<svg id="svg2408" width="96" height="96" version="1.0" xmlns="http://www.w3.org/2000/svg" xmlns:xlink="http://www.w3.org/1999/xlink">
 <defs id="defs2410">
  <linearGradient id="linearGradient3737">
   <stop id="stop3739" style="stop-color:#fefefe" offset="0"/>
   <stop id="stop3741" style="stop-color:#fefefe;stop-opacity:0" offset="1"/>
  </linearGradient>
  <linearGradient id="linearGradient3188" x1="36.357143" x2="36.357143" y1="6" y2="63.893143" gradientUnits="userSpaceOnUse" xlink:href="#linearGradient3737"/>
  <filter id="filter3794" x="-.192" y="-.192" width="1.3839999" height="1.3839999" color-interpolation-filters="sRGB">
   <feGaussianBlur id="feGaussianBlur3796" stdDeviation="5.28"/>
  </filter>
  <linearGradient id="linearGradient3613" x1="48" x2="48" y1="20.220806" y2="138.66119" gradientUnits="userSpaceOnUse" xlink:href="#linearGradient3737"/>
  <radialGradient id="radialGradient3619" cx="48" cy="90.171875" r="42" gradientTransform="matrix(1.1573129 0 0 .99590774 -7.5510206 .19713193)" gradientUnits="userSpaceOnUse" xlink:href="#linearGradient3737"/>
  <clipPath id="clipPath3613">
   <rect id="rect3615" x="6" y="6" width="84" height="84" rx="6" ry="6" style="fill:#fefefe"/>
  </clipPath>
  <linearGradient id="linearGradient3617" x1="48" x2="48" y1="90" y2="5.9877172" gradientUnits="userSpaceOnUse">
   <stop id="stop3702" style="stop-color:#b9b9b9" offset="0"/>
   <stop id="stop3704" style="stop-color:#dedede" offset="1"/>
  </linearGradient>
  <linearGradient id="ButtonShadow-0" x1="45.447727" x2="45.447727" y1="92.539597" y2="7.0165396" gradientTransform="matrix(1.0058652 0 0 .994169 100 0)" gradientUnits="userSpaceOnUse">
   <stop id="stop3750-8" style="stop-color:#000000" offset="0"/>
   <stop id="stop3752-5" style="stop-color:#000000;stop-opacity:.58823532" offset="1"/>
  </linearGradient>
  <linearGradient id="linearGradient3780" x1="32.251034" x2="32.251034" y1="6.1317081" y2="90.238609" gradientTransform="matrix(1.0238095,0,0,1.0119048,-1.1428571,-98.071429)" gradientUnits="userSpaceOnUse" xlink:href="#ButtonShadow-0"/>
  <linearGradient id="linearGradient3721" x1="32.251034" x2="32.251034" y1="6.1317081" y2="90.238609" gradientTransform="translate(0,-97)" gradientUnits="userSpaceOnUse" xlink:href="#ButtonShadow-0"/>
  <linearGradient id="p" x1="20.759001" x2="20.759001" y1="1" y2="45.016998" gradientTransform="matrix(1.0512882,0,0,1.0512882,31.383416,91.904358)" gradientUnits="userSpaceOnUse">
   <stop id="stop32" stop-color="#f6f6f6" offset="0"/>
   <stop id="stop34" stop-color="#d2d2d2" offset="1"/>
  </linearGradient>
  <linearGradient id="linearGradient4765" x1="37.201" x2="37.201" y1="1" y2="45" gradientTransform="matrix(1.0512882,0,0,1.0512882,31.383416,91.904358)" gradientUnits="userSpaceOnUse">
   <stop id="stop37" stop-color="#aaa" offset="0"/>
   <stop id="stop39" stop-color="#8c8c8c" offset="1"/>
  </linearGradient>
 </defs>
 <g id="layer3">
  <path id="path3786" transform="scale(1,-1)" d="m12-95.03125c-5.5110903 0-10.03125 4.52016-10.03125 10.03125v71c0 5.5110902 4.5201598 10.03125 10.03125 10.03125h72c5.51109 0 10.03125-4.5201597 10.03125-10.03125v-71c0-5.51109-4.52016-10.03125-10.03125-10.03125h-72z" style="fill:url(#linearGradient3780);opacity:.07999998"/>
  <path id="path3778" transform="scale(1,-1)" d="m12-94.03125c-4.971633 0-9.03125 4.059617-9.03125 9.03125v71c0 4.9716329 4.0596171 9.03125 9.03125 9.03125h72c4.971633 0 9.03125-4.059617 9.03125-9.03125v-71c0-4.971633-4.059617-9.03125-9.03125-9.03125h-72z" style="fill:url(#linearGradient3780);opacity:.1"/>
  <path id="path3770" transform="scale(1,-1)" d="m12-93c-4.4091333 0-8 3.590867-8 8v71c0 4.4091333 3.5908667 8 8 8h72c4.409133 0 8-3.5908667 8-8v-71c0-4.409133-3.590867-8-8-8h-72z" style="fill:url(#linearGradient3780);opacity:.2"/>
  <rect id="rect3723" transform="scale(1,-1)" x="5" y="-92" width="86" height="85" rx="7" ry="7" style="fill:url(#linearGradient3780);opacity:.3"/>
  <rect id="rect3716" transform="scale(1,-1)" x="6" y="-91" width="84" height="84" rx="6" ry="6" style="fill:url(#linearGradient3721);opacity:.45"/>
 </g>
 <g id="layer1">
  <rect id="rect2419" x="6" y="6" width="84" height="84" rx="6" ry="6" style="fill:url(#linearGradient3617)"/>
  <path id="rect3728" d="m12 6c-3.324 0-6 2.676-6 6v72c0 0.334721 0.04135 0.6507 0.09375 0.96875 0.0487 0.295596 0.09704 0.596915 0.1875 0.875 0.00988 0.03038 0.020892 0.0636 0.03125 0.09375 0.098865 0.287771 0.2348802 0.547452 0.375 0.8125 0.1445918 0.273507 0.3156161 0.535615 0.5 0.78125s0.3737765 0.473472 0.59375 0.6875c0.439947 0.428056 0.94291 0.814526 1.5 1.09375 0.278545 0.139612 0.5734731 0.246947 0.875 0.34375-0.2562018-0.100222-0.4867109-0.236272-0.71875-0.375-0.00741-0.0044-0.023866 0.0045-0.03125 0-0.031933-0.0193-0.062293-0.04251-0.09375-0.0625-0.120395-0.0767-0.2310226-0.163513-0.34375-0.25-0.1061728-0.0808-0.2132809-0.161112-0.3125-0.25-0.1779299-0.161433-0.3474596-0.345388-0.5-0.53125-0.1075789-0.130255-0.2183939-0.265285-0.3125-0.40625-0.025089-0.03838-0.038446-0.08587-0.0625-0.125-0.064763-0.103032-0.1302275-0.204517-0.1875-0.3125-0.1010083-0.194706-0.2056748-0.415701-0.28125-0.625-0.00796-0.02181-0.023589-0.04055-0.03125-0.0625-0.0318251-0.09195-0.0358045-0.186831-0.0625-0.28125-0.0303323-0.106618-0.0703894-0.203031-0.09375-0.3125-0.0728786-0.341512-0.125-0.698205-0.125-1.0625v-72c0-2.781848 2.2181517-5 5-5h72c2.781848 0 5 2.218152 5 5v72c0 0.364295-0.05212 0.720988-0.125 1.0625-0.04415 0.206893-0.08838 0.397658-0.15625 0.59375-0.0077 0.02195-0.0233 0.04069-0.03125 0.0625-0.06274 0.173739-0.138383 0.367449-0.21875 0.53125-0.04158 0.0828-0.07904 0.169954-0.125 0.25-0.0546 0.09721-0.126774 0.18835-0.1875 0.28125-0.09411 0.140965-0.204921 0.275995-0.3125 0.40625-0.143174 0.17445-0.303141 0.346998-0.46875 0.5-0.01117 0.0102-0.01998 0.02115-0.03125 0.03125-0.138386 0.125556-0.285091 0.234436-0.4375 0.34375-0.102571 0.07315-0.204318 0.153364-0.3125 0.21875-0.0074 0.0045-0.02384-0.0044-0.03125 0-0.232039 0.138728-0.462548 0.274778-0.71875 0.375 0.301527-0.0968 0.596455-0.204138 0.875-0.34375 0.55709-0.279224 1.060053-0.665694 1.5-1.09375 0.219973-0.214028 0.409366-0.441865 0.59375-0.6875s0.355408-0.507743 0.5-0.78125c0.14012-0.265048 0.276135-0.524729 0.375-0.8125 0.01041-0.03078 0.02133-0.06274 0.03125-0.09375 0.09046-0.278085 0.1388-0.579404 0.1875-0.875 0.0524-0.31805 0.09375-0.634029 0.09375-0.96875v-72c0-3.324-2.676-6-6-6z" style="fill:url(#linearGradient3188);opacity:.5"/>
  <path id="path3615" d="m12 90c-3.324 0-6-2.676-6-6v-72c0-0.334721 0.04135-0.6507 0.09375-0.96875 0.0487-0.295596 0.09704-0.596915 0.1875-0.875 0.00988-0.03038 0.020892-0.0636 0.03125-0.09375 0.098865-0.287771 0.2348802-0.547452 0.375-0.8125 0.1445918-0.273507 0.3156161-0.535615 0.5-0.78125s0.3737765-0.473472 0.59375-0.6875c0.439947-0.428056 0.94291-0.814526 1.5-1.09375 0.278545-0.139612 0.5734731-0.246947 0.875-0.34375-0.2562018 0.100222-0.4867109 0.236272-0.71875 0.375-0.00741 0.0044-0.023866-0.0045-0.03125 0-0.031933 0.0193-0.062293 0.04251-0.09375 0.0625-0.120395 0.0767-0.2310226 0.163513-0.34375 0.25-0.1061728 0.0808-0.2132809 0.161112-0.3125 0.25-0.1779299 0.161433-0.3474596 0.345388-0.5 0.53125-0.1075789 0.130255-0.2183939 0.265285-0.3125 0.40625-0.025089 0.03838-0.038446 0.08587-0.0625 0.125-0.064763 0.103032-0.1302275 0.204517-0.1875 0.3125-0.1010083 0.194706-0.2056748 0.415701-0.28125 0.625-0.00796 0.02181-0.023589 0.04055-0.03125 0.0625-0.0318251 0.09195-0.0358045 0.186831-0.0625 0.28125-0.0303323 0.106618-0.0703894 0.203031-0.09375 0.3125-0.0728786 0.341512-0.125 0.698205-0.125 1.0625v72c0 2.781848 2.2181517 5 5 5h72c2.781848 0 5-2.218152 5-5v-72c0-0.364295-0.05212-0.720988-0.125-1.0625-0.04415-0.206893-0.08838-0.397658-0.15625-0.59375-0.0077-0.02195-0.0233-0.04069-0.03125-0.0625-0.06274-0.173739-0.138383-0.367449-0.21875-0.53125-0.04158-0.0828-0.07904-0.169954-0.125-0.25-0.0546-0.09721-0.126774-0.18835-0.1875-0.28125-0.09411-0.140965-0.204921-0.275995-0.3125-0.40625-0.143174-0.17445-0.303141-0.346998-0.46875-0.5-0.01117-0.0102-0.01998-0.02115-0.03125-0.03125-0.138386-0.125556-0.285091-0.234436-0.4375-0.34375-0.102571-0.07315-0.204318-0.153364-0.3125-0.21875-0.0074-0.0045-0.02384 0.0044-0.03125 0-0.232039-0.138728-0.462548-0.274778-0.71875-0.375 0.301527 0.0968 0.596455 0.204138 0.875 0.34375 0.55709 0.279224 1.060053 0.665694 1.5 1.09375 0.219973 0.214028 0.409366 0.441865 0.59375 0.6875s0.355408 0.507743 0.5 0.78125c0.14012 0.265048 0.276135 0.524729 0.375 0.8125 0.01041 0.03078 0.02133 0.06274 0.03125 0.09375 0.09046 0.278085 0.1388 0.579404 0.1875 0.875 0.0524 0.31805 0.09375 0.634029 0.09375 0.96875v72c0 3.324-2.676 6-6 6z" style="fill:url(#radialGradient3619);opacity:.2"/>
 </g>
 <g id="layer5">
  <rect id="rect3171" x="15" y="15" width="66" height="66" rx="12" ry="12" clip-path="url(#clipPath3613)" style="fill:url(#linearGradient3613);filter:url(#filter3794);opacity:.1;stroke-linecap:round;stroke-width:.5;stroke:#fefefe"/>
 </g>
 <g id="layer3-3" transform="matrix(1.2166977,0,0,1.2166977,-11.118693,-9.6259261)">
  <g id="g4755" transform="matrix(1.2551618,0,0,1.2551618,-22.601642,-98.978329)">
   <path id="path108" d="m53.480934 91.426014c-2.491991 0-4.469475 2.089262-4.469475 4.520433v1.232845c-0.33184 0.128668-0.650317 0.291149-0.976002 0.436633l-0.898333-0.898333c-0.727379-0.727379-1.817707-1.35013-3.133482-1.361226-1.149094-0.0098-2.3069 0.431973-3.18485 1.309939l-4.443997 4.442355c-1.76527 1.76527-1.647327 4.61947 0.05137 6.31833l0.898991 0.89899c-0.146298 0.32629-0.308212 0.64437-0.437249 0.97641h-1.232846c-2.431417 0-4.520432 1.97749-4.520432 4.46948v6.26696c0 2.49166 2.089015 4.46907 4.520432 4.46907h1.232846c0.128668 0.33184 0.291148 0.65031 0.436632 0.976l-0.89899 0.89899c-1.698861 1.69886-1.816803 4.55306-0.05137 6.31833l4.443339 4.44334c1.76527 1.76527 4.619389 1.64757 6.318332-0.0514l0.899155-0.89998c0.326293 0.14548 0.644367 0.30739 0.976413 0.43643v1.23284c0 2.43142 1.977402 4.52044 4.469064 4.52044h6.266964c2.491662 0 4.469064-2.08902 4.469064-4.52044v-1.23284c0.331841-0.12867 0.650318-0.29115 0.976002-0.43663l0.898991 0.89899c1.698943 1.69894 4.553062 1.81664 6.318332 0.0514l4.442353-4.444c1.76527-1.76527 1.647327-4.61947-0.05137-6.31833l-0.898333-0.89916c0.145476-0.32629 0.307389-0.64436 0.436427-0.97641h1.232845c2.431418 0 4.520433-1.9774 4.520433-4.46906v-6.26697c0-2.49117-2.089262-4.46865-4.520433-4.46865h-1.232845c-0.129038-0.33369-0.291773-0.65176-0.437249-0.97724l0.898991-0.89899c1.69886-1.69886 1.816803-4.55306 0.05137-6.31833l-4.443996-4.44235c-1.76527-1.76527-4.619389-1.647575-6.318332 0.05137l-0.899155 0.898333c-0.326293-0.145475-0.644367-0.307389-0.976414-0.436427v-1.232845c0-2.431418-1.977401-4.520433-4.469064-4.520433h-6.266964zm3.133071 21.523836c2.233176 0 3.955379 1.7222 3.955379 3.95538 0 2.23317-1.722203 3.95538-3.955379 3.95538s-3.955378-1.72221-3.955378-3.95538c0-2.23318 1.722202-3.95538 3.955378-3.95538z" display="block" style="display:block;opacity:.05;stroke-width:.82189685"/>
   <path id="path110" d="m53.480934 92.27339c-2.026386 0-3.621441 1.690231-3.621441 3.672892v1.7979c-0.695933 0.25164-1.375034 0.528069-2.029099 0.84754l-1.284625-1.284625c-0.599163-0.599163-1.484346-1.095588-2.542949-1.104629-0.936962-0.0074-1.8805 0.340265-2.593906 1.053671l-4.443175 4.443171c-1.431004 1.43109-1.329993 3.75533 0.05137 5.13686l1.284214 1.28421c-0.319513 0.654-0.595941 1.33312-0.84754 2.0291h-1.7979c-1.982579 0-3.672892 1.59514-3.672892 3.62144v6.26697c0 2.02638 1.69023 3.62144 3.672892 3.62144h1.7979c0.251648 0.69593 0.528068 1.37503 0.84754 2.0291l-1.284214 1.28421c-1.381444 1.38145-1.482538 3.70585-0.05137 5.13686l4.443175 4.44317c1.431004 1.43101 3.755328 1.33016 5.136855-0.0514l1.284214-1.28421c0.653999 0.31951 1.333116 0.59594 2.029099 0.84754v1.7979c0 1.98258 1.595137 3.67289 3.621441 3.67289h6.266964c2.026387 0 3.621442-1.69023 3.621442-3.67289v-1.7979c0.695933-0.25164 1.375033-0.52807 2.029099-0.84754l1.284624 1.2838c1.381527 1.38153 3.705851 1.48237 5.136856 0.0514l4.443174-4.44317c1.431005-1.43109 1.329994-3.75533-0.05137-5.13686l-1.284623-1.28462c0.319512-0.654 0.595941-1.33312 0.84754-2.0291h1.797899c1.98258 0 3.672893-1.59514 3.672893-3.62145v-6.26696c0-2.02639-1.690231-3.62144-3.672893-3.62144h-1.797899c-0.251501-0.69615-0.527658-1.37586-0.847376-2.03009l1.284214-1.28421c1.381444-1.38144 1.482537-3.70585 0.05137-5.13685l-4.443175-4.443179c-1.431004-1.431004-3.755329-1.330158-5.136855 0.05137l-1.284214 1.284214c-0.65423-0.318896-1.333938-0.595054-2.029263-0.846554v-1.797899c0-1.98258-1.595138-3.672893-3.621442-3.672893h-6.266964zm3.133071 19.82826c2.676343 0 4.803001 2.12658 4.803001 4.803 0 2.67634-2.126576 4.803-4.803001 4.803-2.676343 0-4.803001-2.12657-4.803001-4.803 0-2.67634 2.126576-4.803 4.803001-4.803z" display="block" style="display:block;opacity:.07999998;stroke-width:.82189685"/>
   <path id="path112" d="m53.480934 93.095287c-1.559549 0-2.799545 1.315281-2.799545 2.850995v2.362954c-1.054329 0.34444-2.071262 0.780185-3.030744 1.284214l-1.695162-1.695163c-0.479512-0.479511-1.160272-0.866525-1.952005-0.873265-0.720377-0.0062-1.45147 0.270026-2.003374 0.821897l-4.443339 4.443341c-1.097807 1.0978-1.017179 2.88675 0.05137 3.95538l1.695162 1.69516c-0.504028 0.95948-0.939757 1.97641-1.284214 3.03074h-2.362954c-1.535714 0-2.850996 1.24-2.850996 2.79955v6.26696c0 1.55955 1.315282 2.79955 2.850996 2.79955h2.362953c0.344441 1.05433 0.780186 2.07126 1.284214 3.03074l-1.695162 1.69516c-1.06863 1.06863-1.149259 2.85757-0.05137 3.95538l4.443339 4.44334c1.097725 1.09781 2.886748 1.01726 3.955379-0.0514l1.695162-1.69516c0.959482 0.50403 1.976415 0.93976 3.030744 1.28421v2.36296c0 1.53563 1.239996 2.85099 2.799545 2.85099h6.266964c1.559549 0 2.799545-1.31528 2.799545-2.85099v-2.36296c1.054329-0.34444 2.071262-0.78018 3.030744-1.28421l1.695163 1.69516c1.06863 1.06863 2.857653 1.14909 3.955378 0.0514l4.443339-4.44334c1.097808-1.09781 1.01718-2.88675-0.05137-3.95538l-1.695162-1.69516c0.504028-0.95948 0.939757-1.97641 1.284214-3.03074h2.362953c1.535633 0 2.850996-1.24 2.850996-2.79955v-6.26696c0-1.55955-1.315281-2.79955-2.850996-2.79955h-2.362953c-0.34444-1.05433-0.780186-2.07126-1.284214-3.03074l1.695162-1.69516c1.068631-1.06863 1.149259-2.85758 0.05137-3.95538l-4.442352-4.44482c-1.097726-1.097726-2.886749-1.017262-3.955379 0.05137l-1.695162 1.695162c-0.958332-0.504644-1.975018-0.94025-3.029512-1.284624v-2.362954c0-1.535714-1.240078-2.850996-2.799545-2.850996h-6.266963zm3.133071 18.184463c3.120578 0 5.624898 2.50432 5.624898 5.6249s-2.50432 5.6249-5.624898 5.6249-5.624897-2.50432-5.624897-5.6249 2.504319-5.6249 5.624897-5.6249z" display="block" style="display:block;opacity:.2;stroke-width:.82189685"/>
   <path id="path114" d="m53.480934 93.891705c-1.120245 0-2.003784 0.935318-2.003784 2.054742v2.876639c-1.411937 0.403502-2.752615 0.992522-4.006747 1.695164l-2.080385-2.054744c-0.375024-0.375015-0.847869-0.637537-1.386951-0.642107-0.517565-0.0044-1.037974 0.190376-1.43832 0.590738l-4.443174 4.443173c-0.789539 0.78955-0.733708 2.04011 0.05137 2.82527l2.054742 2.08039c-0.701899 1.25421-1.2912 2.59473-1.694751 4.00674h-2.876639c-1.119752 0-2.054742 0.88395-2.054742 2.00338v6.26696c0 1.11942 0.93499 2.00337 2.054742 2.00337h2.876639c0.40351 1.41194 0.992523 2.75262 1.695162 4.00675l-2.054742 2.08039c-0.78515 0.78515-0.840965 2.03575-0.05137 2.82527l4.443174 4.44317c0.789531 0.78954 2.040112 0.73379 2.82527-0.0514l2.080386-2.05474c1.254132 0.70268 2.59481 1.29169 4.006747 1.69516v2.87664c0 1.11975 0.88395 2.05474 2.003373 2.05474h6.266964c1.119423 0 2.003373-0.93499 2.003373-2.05474v-2.87664c1.411937-0.4035 2.752615-0.99252 4.006748-1.69516l2.080385 2.05474c0.785158 0.78517 2.035756 0.84088 2.82527 0.0514l4.443175-4.44317c0.789538-0.78955 0.733707-2.04011-0.05137-2.82527l-2.054742-2.08039c0.7019-1.25421 1.2912-2.59473 1.694751-4.00675h2.876639c1.119752 0 2.054742-0.88395 2.054742-2.00337v-6.26696c0-1.11943-0.935318-2.00297-2.054742-2.00297h-2.876638c-0.403502-1.41193-0.992522-2.75261-1.695162-4.00674l2.054742-2.08039c0.78515-0.78515 0.840965-2.03575 0.05137-2.82527l-4.443175-4.443172c-0.789538-0.78953-2.040112-0.733789-2.82527 0.05137l-2.080386 2.054742c-1.254215-0.701079-2.594729-1.290379-4.006748-1.69393v-2.876639c0-1.119753-0.88395-2.054742-2.003373-2.054742h-6.266964zm3.133071 16.592455c3.547389 0 6.421069 2.87368 6.421069 6.42107s-2.87368 6.42107-6.421069 6.42107-6.421069-2.87368-6.421069-6.42107 2.87368-6.42107 6.421069-6.42107z" display="block" style="display:block;opacity:.3;stroke-width:.82189685"/>
   <path id="path116" d="m53.493263 93.480756c-0.889539 0-1.609767 0.737883-1.609767 1.642561v3.186659c-1.590453 0.42377-3.110222 1.063863-4.500707 1.872524l-2.266792-2.266788c-0.319866-0.319866-0.703026-0.489275-1.116958-0.492777-0.413932-0.0035-0.835293 0.145443-1.149833 0.459925l-4.435038 4.43504c-0.628965 0.62897-0.606872 1.62702 0.03279 2.26679l2.266791 2.26679c-0.808689 1.39049-1.448758 2.91017-1.872528 4.50071h-3.186662c-0.904744 0-1.642561 0.72023-1.642561 1.60976v6.24182c0 0.88954 0.737891 1.60977 1.642561 1.60977h3.186658c0.423779 1.59053 1.063864 3.11022 1.872528 4.5007l-2.266791 2.26679c-0.639724 0.63973-0.661816 1.6378-0.03279 2.2668l4.435038 4.43503c0.628964 0.62898 1.627027 0.60688 2.266791-0.0328l2.266792-2.26679c1.390485 0.8087 2.910172 1.44876 4.500707 1.87253v3.18666c0 0.90474 0.720244 1.64256 1.609767 1.64256h6.241813c0.889539 0 1.609767-0.73789 1.609767-1.64256v-3.18666c1.590453-0.42377 3.110222-1.06386 4.500708-1.87253l2.266791 2.26679c0.639723 0.63973 1.637794 0.66183 2.266792 0.0328l4.435037-4.43503c0.628965-0.62898 0.606872-1.62703-0.03279-2.2668l-2.266792-2.26679c0.808689-1.39048 1.448758-2.91017 1.872528-4.5007h3.186658c0.904662 0 1.642561-0.72024 1.642561-1.60977v-6.24182c0-0.88953-0.737891-1.60976-1.642561-1.60976h-3.186649c-0.422455-1.58955-1.062713-3.10924-1.871459-4.49989l2.266791-2.26679c0.639724-0.63972 0.661824-1.63779 0.03279-2.26679l-4.435042-4.435038c-0.628973-0.628973-1.627027-0.606872-2.266791 0.03285l-2.266792 2.266788c-1.390485-0.808694-2.910172-1.448754-4.500707-1.872524v-3.186659c0-0.904744-0.720237-1.642561-1.609767-1.642561h-6.241814z" display="block" style="display:block;fill:url(#p);stroke-linejoin:round;stroke-width:.82189685;stroke:url(#linearGradient4765)"/>
  </g>
 </g>
 <g id="g1026" transform="translate(56.32544,-12.246457)">
  <path id="path4-0" d="m-8.4843014 36.617025c-12.620762 0-22.854105 10.231394-22.854105 22.852147 0 12.622736 10.233343 22.854092 22.854105 22.854092 12.622719 0 22.852145-10.231356 22.852145-22.854092 0-12.620753-10.229426-22.852147-22.852145-22.852147zm0 3.894411c10.470593 0 18.957715 8.48714 18.957715 18.957736 0 1.608704-0.222786 3.162596-0.6000366 4.6542l-9.0161768-10.019488-11.527368 13.115145 5.5639976-11.128002-2.78199-4.967858-16.386146 18.833053c-1.999253-3.004099-3.167741-6.608518-3.167741-10.48705 0-10.470596 8.487141-18.957736 18.957745-18.957736z" style="fill:#565656"/>
  <path id="path4" d="m-8.484301 36.617025c-12.620762 0-22.854105 10.231394-22.854105 22.852147 0 12.622736 10.233343 22.854092 22.854105 22.854092 12.622719 0 22.852145-10.231356 22.852145-22.854092 0-12.620753-10.229426-22.852147-22.852145-22.852147zm0 3.894411c10.470593 0 18.957715 8.48714 18.957715 18.957736 0 1.608704-0.222786 3.162596-0.6000364 4.6542l-9.016177-10.019488-11.527368 13.115145 5.5639976-11.128002-2.7819896-4.967858-16.386146 18.833053c-1.999253-3.004099-3.167741-6.608518-3.167741-10.48705 0-10.470596 8.487141-18.957736 18.957745-18.957736z" style="fill:#000000;opacity:.05;stroke-width:1.2551618"/>
 </g>
</svg>
