<svg id="svg2408" width="96" height="96" version="1.0" xmlns="http://www.w3.org/2000/svg" xmlns:xlink="http://www.w3.org/1999/xlink">
 <path id="rect2957" d="m13.064758 0.65507768c-4.6198996 0-8.3581216 3.7919408-8.3581216 8.4718397v77.667999c0 4.679899 3.738222 8.471838 8.3581216 8.471838h63.339791c4.619899 0 8.358121-3.791939 8.358121-8.471838v-24.278357l-10.916731 12.736187v3.638911 1.819454c0 2.015957-1.622955 3.63891-3.638912 3.63891h-1.819454-47.305838-1.819456c-2.015956 0-3.63891-1.622953-3.63891-3.63891v-1.819454-61.861481-1.819456c0-2.015956 1.622954-3.638909 3.63891-3.638909h1.819456 47.305838 1.819454c2.015957 0 3.638912 1.622953 3.638912 3.638909v1.819456 5.458364l10.916731 10.916733v-24.278356c0-4.6798989-3.738222-8.4718397-8.358121-8.4718397zm57.142269 25.472375v14.555643h-25.472372v16.375097h25.472372v14.555643l21.833466-23.65292z" style="color:#000000;fill:#000000"/>
</svg>
