<svg id="svg2" width="16" height="16" version="1.0" xmlns="http://www.w3.org/2000/svg">
 <path id="path4037" d="m8 0c-4.416222 0-7.996956 3.5841633-8 8v6.40625c0 0.8864 0.70735 1.59375 1.59375 1.59375h6.40625c4.416666-0.0018 8-3.582768 8-8 0-4.4185636-3.581748-8-8-8zm2.3125 2c2.035033 0 3.6875 1.6522247 3.6875 3.6875 0 2.03515-1.652467 3.6563-3.6875 3.65625h-1.9375v1.96875c0 2.035462-1.652467 3.6875-3.6875 3.6875-2.035219 0-3.6875-1.652038-3.6875-3.6875 0-2.035152 1.652219-3.687448 3.6875-3.6875h1.9375v-1.9375c0-2.0352742 1.652156-3.6875 3.6875-3.6875zm0 1.75c-1.07306 0-1.9356 0.864473-1.9375 1.9375v1.6875c0 0.151859 0.12952 0.25 0.28125 0.25h1.65625c1.074119 0 1.96875-0.863289 1.96875-1.9375 0-1.074335-0.894631-1.9375-1.96875-1.9375zm-5.625 5.59375c-1.074119 0-1.96875 0.894229-1.96875 1.96875 0 1.07415 0.894631 1.9375 1.96875 1.9375 1.072999 0 1.936-0.865094 1.9375-1.9375v-1.6875c0-0.151483-0.129521-0.28125-0.28125-0.28125z" style="fill:#bebebe"/>
 <path id="path4039" d="m10.75 2.03125c0.119158 0.017996 0.242846 0.027906 0.375 0.0625-0.122192-0.027456-0.24855-0.047518-0.375-0.0625zm0.375 0.0625c0.416791 0.1092827 0.749815 0.4775546 0.75 0.875 1.88e-4 0.4804695-0.322532 0.8125-0.84375 0.8125-0.107762 0-0.229127 0.010136-0.3125 0 0.887825 0.1813806 1.5625 0.9662069 1.5625 1.90625 0 1.074211-0.894631 1.9375-1.96875 1.9375h-0.375c0.475976 0 0.843376 0.397767 0.84375 0.875 0 0.47742-0.367962 0.84375-0.84375 0.84375h0.375c2.035033 5e-5 3.6875-1.6211 3.6875-3.65625 0-1.7565228-1.230217-3.2241764-2.875-3.59375zm-6.4375 5.53125c-2.035281 5.2e-5 -3.6875 1.652348-3.6875 3.6875 0 1.887189 1.4213107 3.439615 3.25 3.65625-0.1194424-0.018009-0.2425435-0.059053-0.375-0.09375-0.416815-0.109224-0.749813-0.446431-0.75-0.84375 0-0.480345 0.32228-0.8125 0.84375-0.8125 0.107653 0 0.2291239-0.01015 0.3125 0-0.8877884-0.181366-1.5625-0.966369-1.5625-1.90625 0-1.074521 0.894631-1.96875 1.96875-1.96875h0.375c-0.476099 0-0.84375-0.366203-0.84375-0.84375-1.24e-4 -0.48022 0.393859-0.875 0.875-0.875zm1.78125 4.4375c-0.098578 0.232312-0.2302917 0.449301-0.40625 0.625 0.1759665-0.175683 0.3076507-0.392676 0.40625-0.625z" style="fill:#bebebe;opacity:.45"/>
</svg>
