<svg id="Layer_1" width="1024px" height="993.28px" enable-background="new 0 0 1024 993.28" version="1.1" viewBox="0 0 1024 993.28" xmlns="http://www.w3.org/2000/svg">
 <path id="path2" d="m306.935 413.91c2.865-0.226 5.756-0.5 8.631-0.646-2.886 0.146-5.766 0.411-8.631 0.646z"/>
 <path id="path4" d="m290.48 415.68c3.654-0.5 7.319-0.989 10.984-1.359-3.664 0.369-7.319 0.859-10.984 1.359z"/>
 <path id="path6" d="m273.43 418.395c4.66-0.88 9.325-1.67 14.005-2.345-4.68 0.675-9.345 1.465-14.005 2.345z"/>
 <path id="path8" d="m408.165 638.24c-0.595-0.221-1.165-0.44-1.75-0.66 0.585 0.22 1.17 0.46 1.75 0.66z"/>
 <path id="path10" d="m329.49 412.9c-2.57 0-5.15 0.119-7.721 0.199 2.716-0.08 5.431-0.199 8.141-0.199h-0.42z"/>
 <path id="path12" d="m585.68 509.35c-0.66 1.33-1.34 2.631-2.08 3.87 0.74-1.24 1.42-2.54 2.08-3.87z"/>
 <path id="path14" d="m589 501.555c-0.71 2.065-1.53 4.065-2.42 6.025 0.88-1.95 1.7-3.96 2.42-6.025z"/>
 <path id="path16" d="m582.31 515.18c-0.729 1.08-1.489 2.141-2.329 3.141 0.839-1.001 1.599-2.061 2.329-3.141z"/>
 <path id="path18" d="m165.755 588.52c7.375 0 14.735-0.039 22.12-0.06-11.79 0.04-23.575 0.12-35.35 0.01 4.405 0.05 8.815 0.05 13.23 0.05z"/>
 <path id="path20" d="m419.06 641.56c-0.59-0.14-1.175-0.279-1.76-0.439 0.585 0.159 1.17 0.299 1.76 0.439z"/>
 <path id="path22" d="m173.805 403.71c-7.1 0-14.205 0.045-21.29 0.095 11.96-0.085 23.931-0.145 35.891-0.02-4.876-0.055-9.751-0.075-14.601-0.075z"/>
 <path id="path24" d="m429.025 643.58c-0.091-0.021-0.195-0.021-0.275-0.04 0.09 0.02 0.195 0.02 0.275 0.04z"/>
 <path id="path26" d="m439.82 644.34c0.245 0 0.5-0.04 0.745-0.04-0.615 0-1.23-0.02-1.846-0.03 0.381 0.01 0.731 0.07 1.101 0.07z"/>
 <path id="path28" d="m578.36 520.13c-0.86 0.91-1.761 1.76-2.721 2.57 0.961-0.81 1.861-1.66 2.721-2.57z"/>
 <path id="path30" d="m505.725 545.37c-3.024-0.01-6.045-0.17-9.064-0.33 3.019 0.16 6.039 0.32 9.064 0.33z"/>
 <path id="path32" d="m513.79 545.22c1.415-0.04 2.81-0.04 4.22-0.1-1.41 0.06-2.815 0.06-4.22 0.1z"/>
 <path id="path34" d="m478.605 543.21c4.5 0.771 9.015 1.29 13.51 1.63-4.505-0.34-9-0.86-13.51-1.63z"/>
 <path id="path36" d="m443.515 523.52c-1.18 0.061-2.364 0.07-3.574 0.16 1.209-0.09 2.374-0.1 3.574-0.16z"/>
 <path id="path38" d="m573.74 524.22c-1.05 0.74-2.16 1.4-3.311 2.021 1.151-0.621 2.271-1.261 3.311-2.021z"/>
 <path id="path40" d="m568.34 527.32c-1.37 0.6-2.859 1.04-4.38 1.439 1.52-0.399 3.01-0.839 4.38-1.439z"/>
 <path id="path42" d="m555.04 530c2.52 0 4.85-0.26 7.04-0.7-2.24 0.46-4.62 0.7-7.18 0.69 0.04 0 0.1 0.01 0.14 0.01z"/>
 <path id="path44" d="m860.93 295.425h-37.31c-3.49-12.615-8.5-24.575-14.82-35.72l27.9-27.88c8.24-8.226 8.24-21.556 0-29.78l-29.78-29.775c-8.22-8.225-21.56-8.225-29.76 0l-27.9 27.881c-11.14-6.306-23.109-11.315-35.72-14.795v-37.316c0-11.635-9.42-21.055-21.06-21.055h-42.1c-11.649 0-21.07 9.42-21.07 21.055v37.305c-11.89 3.275-23.229 7.896-33.829 13.721l-26.79-26.796c-8.21-8.225-21.551-8.225-29.771 0l-29.775 29.775c-8.225 8.225-8.225 21.555 0 29.78l25.975 25.975c-6.84 11.686-12.22 24.3-15.89 37.625h-37.315c-11.646 0-21.065 9.431-21.065 21.065v42.104c0 11.636 9.42 21.065 21.065 21.065h37.315c3.479 12.615 8.489 24.585 14.789 35.715l-10.34 10.355c15.78 2.475 32.16 6 48.641 11.289 18.399 5.91 31.64 15.671 40.5 29.87 1.649 2.676 3.06 5.42 4.21 8.226 13.14-6.38 26.87-9.525 41.42-9.525 11.899 0 23.28 3.28 33.79 9.72 10.3 6.29 17.71 15.575 21.3 26.195v-11.754c13.32-3.67 25.94-9.055 37.62-15.905l26 25.99c8.2 8.225 21.54 8.225 29.75 0l29.78-29.78c8.229-8.22 8.229-21.555 0-29.765l-26.801-26.8c5.82-10.585 10.45-21.936 13.73-33.82h37.31c11.63 0 21.051-9.43 21.051-21.064v-42.106c0-11.645-9.42-21.075-21.05-21.075zm-189.51 115.805c-40.71 0-73.689-32.995-73.689-73.69 0-40.69 32.989-73.695 73.689-73.695 40.71 0 73.7 33.005 73.7 73.695 0 40.695-32.99 73.69-73.7 73.69z"/>
 <path id="path48" d="m684.96 545.58c0.8-4.16 0.56-8.58-3.84-10.54-5.101-2.26-3.95-4.1-0.95-7.36 8.08-8.819 6.311-19.899-3.939-26.165-5.431-3.33-11.25-5.225-17.771-5.225-19.83 0-35.8 8.86-49.84 21.8-11.84 10.9-25.43 18.11-41.11 21.41-12.25 2.58-24.7 3.86-37.17 4.84-4.12 0.32-8.22 0.59-12.33 0.78-1.41 0.06-2.805 0.06-4.22 0.1-2.385 0.08-4.78 0.181-7.165 0.181-0.3 0-0.605-0.03-0.9-0.03-3.024-0.01-6.045-0.17-9.064-0.33-1.505-0.07-3.021-0.08-4.535-0.2-4.495-0.34-9.01-0.859-13.505-1.63-17.29-2.96-32.3-12.17-50.125-18.05 4.055-0.76 7.81-1.19 11.445-1.48 1.199-0.1 2.385-0.109 3.574-0.17 1.495-0.06 3.04-0.21 4.505-0.21 1.445 0 2.881 0.021 4.311 0.08 18.564 0.68 37.11 2.061 55.685 2.71 12.646 0.44 25.415 0.63 37.926 3 3.199 0.61 6.18 0.88 8.96 0.891 2.56 0.01 4.949-0.24 7.199-0.681 0.65-0.13 1.221-0.359 1.87-0.55 1.511-0.39 3.011-0.83 4.38-1.44 0.74-0.319 1.41-0.72 2.091-1.069 1.14-0.63 2.279-1.28 3.3-2.021 0.68-0.479 1.3-1.01 1.92-1.52 0.96-0.811 1.859-1.66 2.72-2.57 0.561-0.59 1.101-1.189 1.62-1.82 0.82-1.01 1.59-2.05 2.33-3.149 0.43-0.641 0.88-1.26 1.29-1.94 0.74-1.239 1.42-2.54 2.08-3.87 0.28-0.59 0.62-1.159 0.89-1.77 0.891-1.95 1.71-3.96 2.43-6.025 2.29-6.5 1.41-12.545-2.279-18.465-5.62-9.02-14.101-13.729-23.78-16.84-29.84-9.575-60.69-13.18-91.765-15.15-13.53-0.869-26.655-2.76-38.71-9.59-6.245-3.545-12.86-6.41-19.32-9.545-26.265-12.76-54.17-19.015-83.245-19.08-2.71 0-5.425 0.125-8.14 0.205-2.065 0.065-4.136 0.065-6.205 0.165-2.875 0.155-5.755 0.42-8.63 0.646-1.825 0.154-3.636 0.225-5.46 0.409-3.665 0.37-7.33 0.86-10.985 1.36-1.015 0.135-2.03 0.22-3.045 0.37-4.675 0.675-9.345 1.475-14.005 2.345-13.69 2.58-27.25 5.735-40.675 9.445 0.01 11.56 0.02 23.12 0.02 34.68v53.05c0.01 16.131 0 32.261-0.02 48.36 8.335 1.14 16.805 1.6 24.649 5 10.65 4.6 21.32 9.17 31.806 14.1 35.989 16.891 71.564 34.66 107.93 50.78 3.07 1.36 6.165 2.601 9.265 3.76 0.585 0.221 1.16 0.46 1.75 0.66 3.021 1.08 6.065 2.04 9.135 2.88 0.585 0.16 1.171 0.29 1.761 0.44 3.194 0.82 6.42 1.51 9.689 1.97 0.09 0.021 0.195 0.021 0.275 0.05 3.195 0.44 6.43 0.631 9.7 0.681 0.609 0.01 1.225 0.029 1.84 0.029 2.609-0.02 5.245-0.149 7.905-0.46 10.22-1.189 20.47-2.329 30.64-3.859 27.475-4.13 54.8-9.21 82.37-12.44 17.689-2.08 33.75-6.99 48.029-17.51 10.561-7.76 21.681-14.62 32.62-21.8 12.16-7.99 23.98-16.47 34.341-26.811 4.437-4.412 7.297-9.692 8.477-15.812z"/>
 <path id="path50" d="m202.035 574.02c0.04-25.96 0.02-51.92 0.02-77.859-0.02-26.155 0.021-52.275-0.02-78.43-0.01-9.78-3.955-13.855-13.641-13.936-11.96-0.125-23.93-0.064-35.89 0.021-9.075 0.06-13.455 4.505-13.455 13.72-0.04 52.46-0.05 104.945 0 157.405 0.01 9.359 4.075 13.449 13.465 13.54 11.775 0.119 23.561 0.039 35.351-0.011 10.34-0.04 14.17-3.89 14.17-14.45z"/>
 <path id="path52" d="m872.96 0h-721.92c-83.28 0-151.04 67.76-151.04 151.04v481.28c0 83.28 67.76 151.04 151.04 151.04h240.64v89.6h-180.48c-33.23 0-60.16 26.93-60.16 60.16 0 33.229 26.93 60.16 60.16 60.16h601.6c33.23 0 60.16-26.931 60.16-60.16 0-33.23-26.93-60.16-60.16-60.16h-180.48v-89.6h240.64c83.28 0 151.04-67.761 151.04-151.04v-481.28c0-83.28-67.76-151.04-151.04-151.04zm89.6 632.32c0 49.399-40.189 89.6-89.6 89.6h-721.92c-49.41 0-89.6-40.2-89.6-89.6v-481.28c0-49.4 40.189-89.6 89.6-89.6h721.92c49.41 0 89.6 40.199 89.6 89.6z"/>
</svg>
