<svg id="svg2" enable-background="new 0 0 256 256" setSize="0 0 256 256" version="1.1" viewBox="0 0 256 256" xmlns="http://www.w3.org/2000/svg">
 <path id="path8" d="m93.394434 11.130509h-58.120627c-12.822833 0-23.233923 10.41109-23.233923 23.257802v58.096748c0 12.822831 10.41109 23.233921 23.233923 23.233921h58.120627c12.822836 0 23.257806-10.41109 23.257806-23.233921v-58.096748c-0.02388-12.846712-10.43497-23.257802-23.257806-23.257802zm0 81.35455h-58.120627v-58.120627h58.120627z" style="stroke-width:.23878647"/>
 <path id="path10" d="m221.21683 11.130509h-58.09675c-12.82283 0-23.23392 10.41109-23.23392 23.257802v58.096748c0 12.822831 10.41109 23.233921 23.23392 23.233921h58.09675c12.82283 0 23.2578-10.41109 23.2578-23.233921v-58.096748c0-12.846712-10.41109-23.257802-23.2578-23.257802zm0 81.35455h-58.09675v-58.120627h58.09675z" style="stroke-width:.23878647"/>
 <path id="path12" d="m93.394434 138.97678h-58.120627c-12.822833 0-23.233923 10.41109-23.233923 23.23393v58.12062c0 12.82284 10.41109 23.23393 23.233923 23.23393h58.120627c12.822836 0 23.257806-10.41109 23.257806-23.23393v-58.12062c-0.0239-12.82284-10.43497-23.23393-23.257806-23.23393zm0 81.35455h-58.120627v-58.12062h58.120627z" style="stroke-width:.23878647"/>
 <path id="path14" d="m221.21683 138.97678h-58.09675c-12.82283 0-23.23392 10.41109-23.23392 23.23393v58.12062c0 12.82284 10.41109 23.23393 23.23392 23.23393h58.09675c12.82283 0 23.2578-10.41109 23.2578-23.23393v-58.12062c0-12.82284-10.41109-23.23393-23.2578-23.23393zm0 81.35455h-58.09675v-58.12062h58.09675z" style="stroke-width:.23878647"/>
 <path id="path16" d="m92.009472 113.21172h-60.221947c-11.413994 0-20.702787-9.36043-20.702787-20.846054v-59.911526c0-11.509508 9.288793-20.846059 20.702787-20.846059h60.221947c11.413998 0 20.702788 9.36043 20.702788 20.846059v59.911526c0 11.485624-9.28879 20.846054-20.702788 20.846054zm-60.221947-90.332917c-5.181667 0-9.408187 4.298156-9.408187 9.575337v59.911526c0 5.277181 4.22652 9.575334 9.408187 9.575334h60.221947c5.181667 0 9.408188-4.298153 9.408188-9.575334v-59.911526c0-5.277181-4.226521-9.575337-9.408188-9.575337z" style="stroke-width:.23878647"/>
 <path id="path18" d="m224.39269 113.37888h-60.22195c-11.41399 0-20.70278-9.36043-20.70278-20.846064v-59.935404c0-11.509508 9.28879-20.846059 20.70278-20.846059h60.24583c11.41399 0 20.70279 9.36043 20.70279 20.846059v59.911526c-0.0239 11.509512-9.31268 20.869942-20.72667 20.869942zm-60.22195-90.332927c-5.18166 0-9.40818 4.298157-9.40818 9.575338v59.911525c0 5.277181 4.22652 9.575334 9.40818 9.575334h60.24583c5.18167 0 9.40819-4.298153 9.40819-9.575334v-59.935404c0-5.277181-4.22652-9.575337-9.40819-9.575337h-60.24583z" style="stroke-width:.23878647"/>
 <path id="path20" d="m92.009472 243.08769h-60.221947c-11.413994 0-20.702787-9.36043-20.702787-20.84606v-59.91153c0-11.50951 9.288793-20.84606 20.702787-20.84606h60.221947c11.413998 0 20.702788 9.36043 20.702788 20.84606v59.91153c0 11.5095-9.28879 20.84606-20.702788 20.84606zm-60.221947-90.33293c-5.181667 0-9.408187 4.29816-9.408187 9.57534v59.91153c0 5.27718 4.22652 9.57533 9.408187 9.57533h60.221947c5.181667 0 9.408188-4.29815 9.408188-9.57533v-59.91153c0-5.27718-4.226521-9.57534-9.408188-9.57534z" style="stroke-width:.23878647"/>
 <path id="path22" d="m224.39269 243.25484h-60.22195c-11.41399 0-20.70278-9.36043-20.70278-20.84606v-59.93541c0-11.5095 9.28879-20.84606 20.70278-20.84606h60.24583c11.41399 0 20.70279 9.36043 20.70279 20.84606v59.91153c-0.0239 11.50951-9.31268 20.86994-20.72667 20.86994zm-60.22195-90.33293c-5.18166 0-9.40818 4.29816-9.40818 9.57534v59.88765c0 5.27718 4.22652 9.57534 9.40818 9.57534h60.24583c5.18167 0 9.40819-4.29816 9.40819-9.57534v-59.91153c0-5.27718-4.22652-9.57533-9.40819-9.57533h-60.24583z" style="stroke-width:.23878647"/>
</svg>
