<svg id="svg2" width="16" height="16" version="1.0" xmlns="http://www.w3.org/2000/svg">
 <path id="rect3267" d="m7.0334283 1.000039c-0.275485 0-0.498547 0.2285261-0.498547 0.508718v0.986916c-0.4925824 0.131243-0.963247 0.329482-1.3938891 0.5799401l-0.7020336-0.702032c-0.0990649-0.0990601-0.2177308-0.1515311-0.3459287-0.1526161-0.1281975-0.0011-0.2587053 0.04505-0.3561028 0.142441l-1.3735427 1.373541c-0.1947947 0.194796-0.1879513 0.503908 0.0101617 0.702034l0.7020332 0.7020311c-0.25046 0.4306419-0.448699 0.9013079-0.5799453 1.3938909h-0.9869146c-0.2801917 0-0.5087194 0.223063-0.5087194 0.4985463v1.9331329c0 0.2754827 0.2285277 0.4985463 0.5087196 0.4985463h0.9869146c0.1312463 0.4925837 0.3294855 0.9632495 0.5799416 1.3938895l-0.7020335 0.702033c-0.1981255 0.198126-0.2049692 0.507235-0.010162 0.702032l1.3735426 1.373543c0.1947946 0.194796 0.5039058 0.18795 0.7020316-0.01015l0.7020374-0.702057c0.4306422 0.250458 0.9013068 0.448698 1.3938892 0.579941v0.986916c0 0.280191 0.2230619 0.508719 0.498547 0.508719h1.9331323c0.2754842 0 0.4985452-0.228528 0.4985452-0.508719v-0.986916c0.492583-0.131243 0.9632494-0.329483 1.3938914-0.579941l0.702035 0.702035c0.198123 0.198123 0.507235 0.204969 0.702031 0.01015l1.373541-1.373544c0.194795-0.194796 0.18795-0.503906-0.01015-0.702032l-0.702029-0.702035c0.250457-0.43064 0.448697-0.901306 0.57994-1.3938898h0.986917c0.280189 2.13e-5 0.508718-0.2230407 0.508718-0.4985241v-1.9331338c0-0.2754822-0.228529-0.4985453-0.508718-0.4985453h-0.986917c-0.131243-0.4925819-0.329483-0.9632479-0.57994-1.3938909l0.702034-0.7020321c0.198123-0.1981249 0.204969-0.5072359 0.01015-0.7020319l-1.37354-1.3735441c-0.194801-0.1947939-0.503909-0.18795-0.702035 0.01015l-0.702036 0.7020341c-0.430642-0.2504591-0.901307-0.4486981-1.39389-0.5799421v-0.986914c0-0.2801939-0.223061-0.50872-0.4985433-0.50872h-1.9331332zm0.9665662 4.883704c1.1681845 0 2.1162735 0.94809 2.1162735 2.1162723 0 1.168184-0.948092 2.1162717-2.1162735 2.1162717-1.1681817 0-2.1162724-0.9480877-2.1162724-2.1162717 0-1.1681823 0.9480907-2.1162723 2.1162724-2.1162723z" style="display:block;fill:#bebebe"/>
</svg>
