<svg id="svg2" width="16" height="16" version="1.0" xmlns="http://www.w3.org/2000/svg">
 <path id="path4004" transform="matrix(.93233865 0 0 .93233865 -3.1041005 -1.8318425)" d="m11.570312 1.9628906c-1.171058-0.0614164-2.1785384 0.6183063-3.1035151 1.140625a0.13191028 0.13191028 0 0 0-0.00781 0.00391c-0.9442937 0.6122738-1.7751669 1.4448493-2.2246119 2.5058556-1.0619593 1.2791045-1.2855704 3.0081626-1.1777344 4.5839848l-0.00195-0.01172c-0.042458 2.166222 0.6859027 4.361699 2.09375 6.025391 1.3431688 1.663241 3.3598675 2.937607 5.5703125 2.921874a0.13227241 0.13227241 0 0 0 0.02148-0.263671c-1.0217471-0.173883-1.9123701-0.791606-2.7832019-1.378906-0.6311256-0.634139-1.3613251-1.148121-1.8125-1.871093l-0.00195-2e-3c-0.3999917-0.652302-0.6293347-1.418857-0.8925812-2.162063a0.13191028 0.13191028 0 0 0-0.029297-0.04492c-0.6488843-0.693775-1.0363691-1.588004-0.9960936-2.529299a0.13191028 0.13191028 0 0 0 0-0.02148c-0.2045175-1.7298473 0.2880676-3.5701299 1.4316406-4.890629 0.8362535-0.551605 1.5596114-1.2385376 2.455078-1.5957031a0.13191028 0.13191028 0 0 0 0.02344-0.013672c0.901248-0.59737 2.023945-0.7355746 3.099609-0.6660156 1.936667 0.2423447 3.634626 1.9659737 3.822266 3.9121094a0.13191028 0.13191028 0 0 0 0.01172 0.044922c0.104078 0.2200286 0.07408 0.4883633 0.03125 0.78125-0.03995 0.2731798-0.08155 0.564875 0.01758 0.8417969-0.199727 1.9494784-2.40087 3.5089584-4.291021 2.9140624-0.775813-0.277847-1.400695-0.954333-1.707031-1.740234-0.306014-0.7850732-0.295387-1.6670115 0.175781-2.3710941l2e-3 -0.00195c0.709231-0.9859117 2.234764-1.3384943 3.253859-0.6523469a0.13191028 0.13191028 0 0 0 0.183594-0.1835938c-0.365059-0.5447741-1.11854-0.7942323-1.765625-0.7773437h-0.0039c-1.055034 0.00476-2.000849 0.7067707-2.427735 1.640625-0.7958829 1.4381151-0.275887 3.4203155 1.171875 4.2363285 0.0067 0.01207 0.0082 0.01669 0.01367 0.02734-0.05525-0.02517-0.113727-0.05293-0.167968-0.08398-0.03595-0.02058-0.06972-0.03944-0.0957-0.05469-0.01299-0.0076-0.02281-0.01573-0.0332-0.02148-0.0104-0.0058-0.01152-0.0081-0.04101-0.01758a0.13191028 0.13191028 0 0 0-0.05274-0.0059c-0.04674-0.03608-0.08232-0.06309-0.134765-0.103516-0.04816-0.03713-0.09432-0.07319-0.134766-0.101563-0.02022-0.01419-0.03838-0.02625-0.05664-0.03711-0.01826-0.01085-0.02999-0.02236-0.07226-0.03125-0.0053-0.0011-0.0103-0.0014-0.01758-2e-3 -0.0073-6.03e-4 -0.02675-6.1e-5 -0.02734 0-5.99e-4 6.1e-5 -0.03468 0.0096-0.03516 0.0098-4.72e-4 1.84e-4 -0.04263 0.02508-0.04297 0.02539-3.41e-4 3.11e-4 -0.03104 0.04253-0.03125 0.04297-2.08e-4 4.41e-4 -0.01165 0.04044-0.01172 0.04102-7e-5 5.74e-4 -8.38e-4 0.02271 0 0.03125 8.39e-4 0.0085 0.0024 0.01545 0.0039 0.02148 0.01212 0.04829 0.02571 0.05664 0.04102 0.07813 0.03062 0.04296 0.07662 0.09801 0.152344 0.181641a0.13191028 0.13191028 0 0 0 0.0059 0.0078c0.586899 0.560151 1.354314 0.852083 2.148438 0.96875 6e-3 8.76e-4 0.01161 3e-3 0.01758 0.0039 0.0012 2.85e-4 0.0027-2.82e-4 0.0039 0 0.366212 0.08291 0.777901 0.103509 1.066406 0.0625l-0.05078-0.259765c-0.274065 0.06833-0.564349 0.0023-0.878906-0.04883 1.655426 0.163085 3.406202-0.638421 4.24414-2.09961l-0.01563 0.01953c0.494093-0.566171 0.620367-1.3247893 0.923829-1.898438a0.13191028 0.13191028 0 0 0 0.01367-0.048828c0.08711-0.8086892 0.0084-1.6276833-0.285156-2.3945313-0.04922-0.1674135-0.02912-0.255371-0.01563-0.2773437 0.01349-0.021973 0.01663-0.023674 0.06445-0.011719 0.09566 0.02391 0.265927 0.1791059 0.25586 0.4140625a0.13191028 0.13191028 0 0 0 0 0.025391c0.01765 0.1204853 0.03131 0.2024765 0.04102 0.2558594 0.0049 0.026692 0.0091 0.044934 0.01367 0.0625 0.0023 0.00878 9.39e-4 0.015433 0.01172 0.037109 0.0027 0.00542 0.01346 0.021209 0.01367 0.021484 1.05e-4 1.376e-4 0.01748 0.019443 0.01758 0.019531 9.9e-5 8.83e-5 0.03702 0.021445 0.03711 0.021484 9.3e-5 3.93e-5 0.06632 0.00977 0.06641 0.00977 8.7e-5 -9.3e-6 0.06242-0.02338 0.0625-0.023437 8.1e-5 -5.74e-5 0.03118-0.031145 0.03125-0.03125 7.4e-5 -1.05e-4 0.0136-0.023285 0.01367-0.023437 1.36e-4 -3.046e-4 0.0065-0.019417 0.0078-0.025391 0.0013-0.00597 0.0015-0.00999 2e-3 -0.013672 9.5e-4 -0.00737 0.0018-0.012966 2e-3 -0.017578 3.57e-4 -0.00922 2.54e-4 -0.016827 0-0.025391-5.07e-4 -0.017127-0.0021-0.03645-0.0039-0.060547-0.0036-0.048193-0.0099-0.1118168-0.01758-0.1855469-0.03099-0.2948536-0.084611-0.7299898-0.134893-0.9179021-0.299841-1.3094635-1.337946-2.2832888-2.435547-2.9238281a0.13191028 0.13191028 0 0 0-0.0059-0.00391c-0.841535-0.4396917-1.801875-0.5050875-2.648397-0.7597619-0.349481-0.0995902-0.690087-0.0950434-1.011718-0.1015625-0.321632-0.0065191-0.623765-0.0226622-0.91211-0.1425782a0.13191028 0.13191028 0 0 0-0.04297-0.00977z" style="fill:#bebebe"/>
</svg>
