<svg id="svg2" width="16" height="16" version="1.0" xmlns="http://www.w3.org/2000/svg">
 <path id="path2401" d="m7.5 1c-0.277 0-0.4999999 0.223-0.5 0.5v5c0 0.277 0.2230001 0.5000001 0.5 0.5h1c0.277 0 0.5000001-0.2229999 0.5-0.5v-5c0-0.277-0.2229999-0.50000002-0.5-0.5zm-1.5 1.34375c-2.3307785 0.8236389-4 3.0446-4 5.65625 0 3.312 2.6880002 6 6 6 3.312 0 6-2.688 6-6 0-2.61165-1.669221-4.8326111-4-5.65625v2.21875c1.193787 0.6923393 2 1.9590541 2 3.4375 0 2.208-1.792 4-4 4-2.2079999 0-4-1.792-4-4 0-1.4784461 0.8062133-2.7451607 2-3.4375z" style="fill:#bebebe"/>
</svg>
