<svg id="svg7384" width="16" height="16.000008" version="1.1" xmlns="http://www.w3.org/2000/svg">
 <title id="title9167">Gnome Symbolic Icon Theme</title>
 <path id="path3908" d="m3.54894 0.09056c-0.39933 0-0.78638 0.0916-1.14329 0.21572l1.88488 1.87971c0.38735 0.38627 0.38735 1.00037 0 1.38667l-0.71069 0.70874c-0.38735 0.38628-1.00314 0.38628-1.39049 0l-1.88488-1.87971c-0.12444 0.35591-0.2163 0.74191-0.2163 1.14015 0 1.90608 1.54944 3.45126 3.46077 3.45126 0.39933 0 0.78638-0.0916 1.14329-0.2157l1.17419 1.17097a2.4722239 2.4654407 0 0 1 0.0618 0l2.07028-2.0646-1.20509-1.20178c0.12444-0.35592 0.2163-0.74191 0.2163-1.14015 0-1.90609-1.54944-3.45128-3.46077-3.45128zm6.55074 7.88863-2.07029 2.06459a2.4722239 2.4654407 0 0 1 0.0309 0.0924l1.14329 1.14015c-0.12444 0.35596-0.2163 0.74196-0.2163 1.14019 0 1.90609 1.54944 3.45129 3.46077 3.45129 0.43346 0 0.8536-0.10141 1.23599-0.24653l-2.00848-2.00297c-0.38735-0.38629-0.38735-1.03119 0-1.41749l0.67979-0.67792c0.19367-0.19315 0.45794-0.30816 0.71069-0.30816 0.25276 0 0.51702 0.11501 0.7107 0.30816l1.94668 1.94133c0.10485-0.32958 0.1854-0.68351 0.1854-1.04771 0-1.90608-1.54944-3.45126-3.46077-3.45126-0.39933 0-0.78639 0.0916-1.14329 0.2157l-1.20509-1.20179z" style="color:#000000;fill:#bebebe;text-decoration-line:none;text-indent:0;text-transform:none"/>
 <path id="path3910" d="m13.85805 0-1.54246 1.43753c-0.45151 0.42079-0.5292 1.14883-0.2663 1.70647l-5.88822 5.99575a1.4916729 1.4875773 0 0 0-0.0311 2.5e-4 1.4916729 1.4875773 0 0 0-0.84016-0.1484 1.4916729 1.4875773 0 0 0-0.86663 0.44059l-3.9462 3.99734a1.4941171 1.4900149 0 1 0 2.12943 2.09068l3.9462-3.99734a1.4916729 1.4875773 0 0 0 0.29713-1.73771l5.88846-5.96477c0.55782 0.24837 1.27325 0.14697 1.70681-0.2922l1.41721-1.56049-2.00418-1.9677z" style="color:#000000;fill:#bebebe;text-decoration-line:none;text-indent:0;text-transform:none"/>
</svg>
