<svg id="svg2" width="16" height="16" version="1.0" xmlns="http://www.w3.org/2000/svg">
 <path id="rect3729" d="m3.723375 0.0110012c-0.322464 0.044507-0.59161 0.3008057-0.681423 0.6359953l-3.020978 11.288916c-0.119752 0.446919 0.166362 0.902383 0.613281 1.022135l11.288917 3.020978c0.446919 0.119752 0.902383-0.166362 1.022135-0.613281l3.020978-11.288917c0.119752-0.4469192-0.166362-0.9023834-0.613281-1.0221351l-11.288917-3.0209776c-0.11173-0.029937-0.233223-0.03755-0.340712-0.022714zm-0.181713 2.907407h8.903935c0.352341 0 0.635995 0.2836539 0.635995 0.6359953v8.9039345c0 0.352341-0.283654 0.635995-0.635995 0.635995h-8.903935c-0.352341 0-0.635995-0.283654-0.635995-0.635995v-8.9039345c0-0.3523414 0.283654-0.6359953 0.635995-0.6359953z" style="color:#000000;fill:#bebebe;opacity:.45"/>
 <path id="rect3748" d="m3.541662 2.9184082c-0.352341 0-0.635995 0.2836539-0.635995 0.6359953v8.9039345c0 0.352341 0.283654 0.635995 0.635995 0.635995h8.903935c0.352341 0 0.635995-0.283654 0.635995-0.635995v-8.9039345c0-0.3523414-0.283654-0.6359953-0.635995-0.6359953zm6.632523 2.1805558v1.453703h-2.907408v0.726852h2.180556v1.453703h-2.180556v2.180556h-1.453703v-5.814814z" style="color:#000000;fill:#bebebe"/>
</svg>
