<svg id="svg2" width="16" height="16" version="1.0" xmlns="http://www.w3.org/2000/svg">
 <path id="path2401" d="m14.5 6.9999999c0-0.277-0.223-0.4999999-0.5-0.5h-5c-0.277 0-0.5000001 0.2230001-0.5 0.5v1c0 0.277 0.2229999 0.5000001 0.5 0.5h5c0.277 0 0.5-0.2229999 0.5-0.5zm-1.34375-1.5c-0.823639-2.3307785-3.0446-4-5.65625-4-3.3119999 0-5.9999999 2.6880002-5.9999999 6 0 3.3120001 2.688 6.0000001 5.9999999 6.0000001 2.61165 0 4.832611-1.669221 5.65625-3.9999999h-2.21875c-0.69234 1.1937869-1.9590541 1.9999999-3.4375 1.9999999-2.2079999 0-3.9999999-1.7919999-3.9999999-4.0000001 0-2.2079999 1.792-4 3.9999999-4 1.4784461 0 2.74516 0.8062133 3.4375 2z" style="fill:#bebebe"/>
</svg>
