<svg id="svg2" width="16" height="16" version="1.0" xmlns="http://www.w3.org/2000/svg">
 <path id="path3929" d="m2.5 0c-0.8682406-0.0342396-1.5762596 0.7771943-1.5 1.625 0.00371 2.98867-0.01296 4.980348 0 7.96875 0.037895 0.846424 0.8637194 1.475502 1.6875 1.40625 1.2758522-0.00138 2.2735679-7.96e-4 3.3125 0 0.3136399 2.4e-4 0.6838508-4.89e-4 1 0h5c1.14345 0.0018 0.248096 0.0053 1.65625 0 0.853504-0.04404 1.446329-0.904228 1.34375-1.71875-0.0028-2.965232 0.0096-4.941145 0-7.90625-0.030626-0.8509106-0.86892-1.4523902-1.6875-1.375zm0.5 2h10v7h-10z" style="fill:#bebebe"/>
 <path id="path3927" d="m3 2h10v7h-10z" style="fill:#bebebe;opacity:.45"/>
 <path id="rect2932" d="m2.6331025 12c-0.111514 0.03642-0.2151508 0.12492-0.292764 0.25l-2.2166418 2.3125c-0.30866722 0.45954-0.05898776 1.413058 0.37641088 1.4375h14.972787c0.435399-0.02444 0.685079-0.97796 0.376411-1.4375l-2.216641-2.3125c-0.098682-0.149588-0.235983-0.24078-0.376411-0.25h-10.539505c-0.027831-3e-3 -0.055816-3e-3 -0.083647 0z" style="fill:#bebebe"/>
</svg>
