<svg id="svg2" width="16" height="16" version="1.0" xmlns="http://www.w3.org/2000/svg">
 <path id="rect2932" d="m1.5 0c-0.8682406-0.0342396-1.5762596 0.7771943-1.5 1.625 0.00371 2.98867-0.01296 6.980348 0 9.96875 0.037895 0.846424 0.8637194 1.475502 1.6875 1.40625 1.6610151-0.001796 2.9491065-0.002109 4.3125 0v1h-1.9375c-0.020795-0.001548-0.041705-0.001548-0.0625 0-0.0833222 0.018211-0.1607583 0.06246-0.21875 0.125l-1.65625 1.15625c-0.2306327 0.22977-0.044075 0.706529 0.28125 0.71875h11.1875c0.325325-0.01222 0.511883-0.48898 0.28125-0.71875l-1.65625-1.15625c-0.073734-0.074794-0.176324-0.12039-0.28125-0.125h-1.9375v-1c1.460196 9.8e-4 2.86296 0.0068 4.65625 0 0.853504-0.04404 1.446329-0.904228 1.34375-1.71875-0.0028-2.965232 0.0096-6.941145 0-9.90625-0.030626-0.8509106-0.86892-1.4523902-1.6875-1.375zm0.5 2h12v9h-12z" style="fill:#bebebe"/>
 <rect id="rect3126" x="2" y="2" width="12" height="9" style="color:#000000;fill:#bebebe;opacity:.45"/>
</svg>
