<svg id="svg2" width="16" height="16" version="1.0" xmlns="http://www.w3.org/2000/svg">
 <path id="path3018" d="m8 0s-2 3-6 3c0 11 6 13 6 13s6-2 6-13c-4 0-6-3-6-3zm0 3c0.9002113 0.7401502 2.082069 1.3257046 3.6875 1.75-0.279725 3.9231037-1.383077 6.221034-2.40625 7.5-0.5348386 0.668548-0.9398215 1.038206-1.28125 1.28125-0.3414285-0.243044-0.7464114-0.612702-1.28125-1.28125-1.0231728-1.278966-2.1265248-3.5768963-2.40625-7.5 1.6054309-0.4242954 2.7872887-1.0098498 3.6875-1.75z" style="fill:#bebebe"/>
 <path id="path3797" d="M 8,4.0078125 C 7.2512791,4.5298454 6.3501746,4.9629707 5.2910156,5.3085938 5.638404,8.6248185 6.5545134,10.667751 7.390625,11.712891 7.6654074,12.056369 7.8067297,12.144258 8,12.328125 8.1932703,12.144258 8.3345926,12.056369 8.609375,11.712891 9.4454868,10.667751 10.361596,8.6248185 10.708984,5.3085938 9.6498253,4.9629707 8.7487209,4.5298454 8,4.0078125 Z" style="fill:#bebebe"/>
</svg>
