<svg id="svg2" width="16" height="16" version="1.0" xmlns="http://www.w3.org/2000/svg">
 <path id="path4909" d="m12.992328 0.0143841c-0.614764 0.041008-1.319089 0.3111311-1.887306 0.7771261-0.696212 0.5709639-1.2617231 2.0224968-1.1101801 2.8309593 0.0781301 0.4168435 0.3926901 0.9240465 0.6938621 1.0824255 0.560849 0.294939 1.583057-0.1943 2.52566-1.1934435 1.018248-1.0793269 1.485861-2.268606 1.137935-2.9419773-0.213823-0.413829-0.745206-0.5960983-1.359971-0.5550901zm-5.023565 0.6383536c-0.8552481 7.691e-4 -1.3077424 0.6021244-1.3044616 1.7485337 0.00225 0.7850483 0.2781842 1.4913111 0.6383536 1.6652706 0.2677861 0.129341 0.2744818 0.117267 0.610599 0 0.5567459-0.1942438 1.0798079-1.4908027 0.9714079-2.3591332-0.088718-0.7106565-0.394165-1.0551409-0.9158989-1.0546711zm-3.3860493 1.1656891c-0.1600285 0.0231393-0.3205339 0.1261271-0.4718266 0.277545-0.3049567 0.3052072-0.3090241 0.4715664-0.3052995 1.0546712 0.00439 0.6876926 0.1722069 1.062642 0.6383536 1.554252 0.348686 0.367733 0.6001328 0.389716 0.9158986 0.05551 0.3420578-0.362038 0.4482649-0.9305032 0.333054-1.554253-0.1757053-0.9512623-0.6300946-1.457143-1.1101801-1.3877252zm-2.3868873 2.0815877c-0.1660394 0.0270089-0.3156905 0.1212805-0.4718265 0.2775455-0.4097418 0.410082-0.1231579 1.53773 0.5273355 2.109342 0.7763935 0.682245 1.4033361 0.057579 1.1379347-1.137935-0.1888673-0.85076-0.6953253-1.3299791-1.1934437-1.2489525zm7.1329075 1.4987435c-0.549815-0.0095-1.1659584 0.03639-1.8040429 0.166527-1.6437417 0.335248-2.9589942 0.955153-3.8023669 1.804042-0.4857159 0.488893-0.7636284 0.941483-0.9991621 1.637516-0.5701163 1.684777 0.4857228 4.081624 2.4979053 5.717428 0.7496716 0.609447 1.2071227 0.882205 1.9705697 1.137934 0.3958778 0.132607 0.7097719 0.163413 1.4432339 0.138773 0.84082-0.02825 1.01182-0.06579 1.5542521-0.333054 0.794922-0.391662 1.695959-1.29761 2.081588-2.081588 0.235256-0.478266 0.272947-0.682651 0.249791-1.082426-0.03954-0.682608-0.30433-0.868388-1.165689-0.860389-1.229654 0.01141-1.7458751 0.296579-1.9983251 1.165689-0.190675 0.656443-0.401475 0.888144-0.832635 0.888144-0.6833094 0-1.3877249-0.543358-1.3877249-1.11018 0-0.394331 0.635301-0.982083 2.2203599-2.053833 2.2328981-1.509792 3.0005861-2.428285 2.8864691-3.441559-0.117884-1.046723-1.26478-1.664644-2.9142231-1.693024z" style="fill:#bebebe"/>
</svg>
