<svg id="svg8" enable-background="new 0 0 1000 1000" version="1.1" viewBox="0 0 1e3 1e3" xmlns="http://www.w3.org/2000/svg">
 <path id="path4" d="m873.3 476.7h-70v-186.7c0-51.3-42-93.3-93.3-93.3h-186.7v-70c0-65.4-51.3-116.7-116.6-116.7-65.4 0-116.7 51.3-116.7 116.7v70h-186.7c-51.3 0-93.3 42-93.3 93.3v177.3h70c70 0 126 56 126 126s-56 126-126 126h-70v177.3c0 51.4 42 93.4 93.3 93.4h177.3v-70c0-70 56-126 126-126s126 56 126 126v70h177.4c51.3 0 93.3-42 93.3-93.3v-186.7h70c65.3 0 116.7-51.3 116.7-116.7 0-65.3-51.3-116.6-116.7-116.6z"/>
</svg>
