<svg id="svg2" width="16" height="16" version="1.0" xmlns="http://www.w3.org/2000/svg">
 <path id="path3159" d="m8 0.7783785c-2.256463 0-4.0648649 1.699373-4.0648649 3.8054054 0.00509 0.2242649 0.021845 0.5484266 0.043244 0.8216216-0.3858679 0.1637694-0.4140257 0.9147514-0.086487 1.6864865 0.1298861 0.3060329 0.295314 0.5410147 0.4756757 0.7351351 0.043823 0.2168896 0.032325 0.3142604 0.086486 0.5621622 0.1511376 0.4534118 0.7470076 1.3420395 1.2972972 2.0756757 0.05396 0.563421 0.109936 1.132004 0 1.772973-1.5856236 1.315524-5.6709421 1.881347-5.6648645 3.243243l-0.08648649 0.518919h16l-0.08649-0.518919c-0.0065-1.1656-4.098682-1.881347-5.664862-3.243243-0.06337-0.521335-0.07545-1.043272-0.04324-1.556757 0.501434-0.7738141 1.172201-1.7868737 1.34054-2.2918917 0.0605-0.2557354 0.08252-0.4284482 0.129729-0.6486487 0.150255-0.1820053 0.278504-0.3878554 0.38919-0.6486486 0.311162-0.7331483 0.291049-1.4330284-0.04324-1.6432432 0.01971-0.2953966 0.03456-0.6097082 0.04324-0.8648649 0-2.1060324-1.8084-3.8054054-4.064865-3.8054054z" style="fill:#bebebe"/>
</svg>
