<svg id="svg2" width="16" height="16" version="1.0" xmlns="http://www.w3.org/2000/svg">
 <path id="path2518" d="m7.998497 1.5e-6c-0.712281 1.7459936-1.141889 2.8880795-1.93492 4.5821725 0.486227 0.515304 1.083048 1.115401 2.052282 1.793154-1.042021-0.428706-1.823812-0.752633-2.354993-1.199272-1.014929 2.117406-2.534028 5.027074-5.760853 10.82394 2.536175-1.463903 4.502176-2.366418 6.334393-2.710793-0.07867-0.338321-0.123407-0.704283-0.120369-1.086123l3e-3 -0.08123c0.04024-1.624556 0.885494-2.873841 1.886774-2.789017 1.001283 0.08482 1.779567 1.471339 1.739325 3.0959-0.0076 0.305687-0.04206 0.599759-0.102312 0.872506 1.812323 0.354456 3.757299 1.254661 6.259163 2.698759-0.493319-0.908064-0.933646-1.726616-1.354148-2.506204-0.662352-0.513272-1.353218-1.181297-2.762454-1.904474 0.968625 0.251642 1.591151 0.453235 2.13174 0.777755-4.275318-7.958417-4.550525-8.9271915-6.016628-12.367074z" style="fill-rule:evenodd;fill:#bebebe"/>
</svg>
