<svg id="svg2" width="16" height="16" version="1.0" xmlns="http://www.w3.org/2000/svg">
 <path id="path3066" d="m10.751211 1.708284c-0.07263-0.015188-0.185026 0.04846-0.270907 0.1806044l-2.0167484 3.1304746c-0.1713847 0.263139-0.5609511 0.441438-0.8729207 0.39131l-3.7324901-0.602014c-0.3127111-0.050436-0.4106273 0.117781-0.2107049 0.361208l2.377957 2.889669c0.1991846 0.244056 0.2646648 0.682944 0.1204029 0.963224l-1.7157412 3.341179c-0.1438421 0.280335-0.023002 0.414339 0.2709065 0.301007l3.491685-1.354532c0.2805127-0.107484 0.6729087-0.048632 0.9030207 0.150504-1.9647239 1.317524-4.9822039 2.864566-6.8930658 1.053526-1.1128443-1.0546-1.287514-3.028082-1.2341295-4.454908 0.06045196-1.61521 0.73503146-3.104439 1.8060433-4.3044029-0.2900127 0.3248679-0.6421148 0.5769499-0.9331223 0.9030219-1.043152 1.168812-1.6644593 2.567173-1.8060434 4.123799-0.13832683 1.52138 0.1023236 3.480816 1.2040289 4.635512 2.0284978 2.126223 5.8073114-0.22002 7.5853824-1.505036 0.1322616-0.09556 0.2481014-0.239867 0.3612084-0.36121l2.6187632 2.618763c0.222916 0.223622 0.378833 0.133451 0.361209-0.180605l-0.210705-3.732488c-0.01735-0.313119 0.199065-0.700893 0.481611-0.842821l3.371282-1.68564c0.28201-0.142489 0.245756-0.31023-0.0602-0.39131l-3.64219-0.963223c-0.30565-0.0804-0.583597-0.412229-0.632115-0.722417l-0.571914-3.7023891c-0.024232-0.155161-0.077864-0.2256176-0.150503-0.2408059z" style="fill:#bebebe"/>
</svg>
