<svg id="svg2" width="16" height="16" version="1.0" xmlns="http://www.w3.org/2000/svg">
 <path id="path2975" d="m6.4501951 0.5052601c-3.2205444 0.15201-5.7416901 3.073119-5.6132115 4.6618199 0.124992 1.545597 4.0419429 2.903214 3.9958455 2.949312-0.8013915 0.676635-1.3299033 1.133661-1.9979229 1.744221-1.6087215 1.470339-2.720022 2.561094-2.1564879 4.090983 0.650076 1.764837 2.071092 1.691694 3.7421409 1.363662 4.3073454-0.849534 11.397038-6.298245 11.036145-8.308821-0.292014-1.626858-4.254177-4.8428039-6.5963167-5.9937689-0.7317-0.359568-1.5643776-0.547203-2.4101922-0.507408zm0.6659742 2.79075c0.4029111-0.03774 0.8722041 0.0642 1.3953753 0.31713 1.1425902 0.5524139 2.3261234 2.0190389 0 2.8541759-0.6325314 0.2271-2.6618811-0.546339-2.6004717-1.617369 0.055968-0.9888179 0.5335773-1.4910329 1.2050964-1.5539369z" style="fill-rule:evenodd;fill:#bebebe"/>
</svg>
