<svg id="svg2" width="16" height="16" version="1.0" xmlns="http://www.w3.org/2000/svg">
 <path id="path2963" d="m8 4e-7c-4.418278 0-8 3.5817218-8 7.9999996 0 4.418278 3.581722 8 8 8s8-3.581722 8-8c0-4.4182778-3.581722-7.9999996-8-7.9999996zm3.027778 2.3055556c0.589001 0 1.055555 0.4943319 1.055555 1.0833333 0 0.5890018-0.466554 1.0555557-1.055555 1.0555557-0.589002 0-1.0833336-0.4665539-1.0833336-1.0555557 0-0.5890014 0.4943316-1.0833333 1.0833336-1.0833333zm-2.861111 1.0833333c0.375075 0 0.762186 0.026459 1.111111 0.1111111 0.07024 0.9175166 0.814583 1.6666666 1.75 1.6666666 0.245417 0 0.481705-0.04885 0.694444-0.138889 0.604318 0.719654 0.97864 1.617934 1.055556 2.611111h-2.138889c-0.170888-1.208153-1.21714-2.138889-2.472222-2.138889-0.3116794 0-0.613835 0.0897-0.8888892 0.194445l-1.0555556-1.8611113c0.5960817-0.2802294 1.242552-0.4444444 1.9444448-0.4444444zm-2.5833337 0.7777777 1.0833334 1.861111c-0.5961107 0.455017-0.9722223 1.164951-0.9722223 1.972222 0 0.784467 0.3491288 1.48798 0.9166667 1.944444l-1.0555555 1.833334c-0.7825854-0.544314-1.4184301-1.315518-1.75-2.222222 0.4773575-0.356821 0.8055555-0.914171 0.8055555-1.555556 0-0.635334-0.3080793-1.198136-0.7777778-1.555556 0.3367287-0.928959 0.9428099-1.732301 1.75-2.277777zm-2.9166666 2.583333c0.6871682 0 1.25 0.562831 1.25 1.25s-0.5628318 1.25-1.25 1.25c-0.6871684 0-1.25-0.562831-1.25-1.25s0.5628316-1.25 1.25-1.25zm7.9722223 1.611111h2.138889c-0.07691 0.993177-0.451238 1.891456-1.055556 2.611111-0.212739-0.09003-0.449027-0.138889-0.694444-0.138889-0.935417 0-1.679751 0.749151-1.75 1.666667-0.348925 0.08465-0.736036 0.111111-1.111111 0.111111-0.726707 0-1.4157496-0.145305-2.0277781-0.444444l1.1111111-1.861111c0.2857191 0.114362 0.5902631 0.194444 0.916667 0.194444 1.255082 0 2.301334-0.930736 2.472222-2.138889zm0.388889 3.194445c0.589001 0 1.055555 0.466554 1.055555 1.055555 0 0.589002-0.466554 1.083333-1.055555 1.083333-0.589002 0-1.0833336-0.494331-1.0833336-1.083333 0-0.589001 0.4943316-1.055555 1.0833336-1.055555z" style="color:#000000;fill:#bebebe"/>
</svg>
