<svg id="svg2" width="16" height="16" version="1.0" xmlns="http://www.w3.org/2000/svg">
 <path id="path4336" d="m8 0c-4.418278 0-8 3.581722-8 8s3.581722 8 8 8c2.526054 0 4.783865-1.171486 6.25-3h-11.25v-3h1v2h10.90625c0.684275-1.178958 1.09375-2.5387089 1.09375-4 0-4.418278-3.581722-8-8-8zm0.15625 3.15625c0.6868507 0 1.4788863 0.2054482 1.71875 0.40625 0.011423-0.251003 0.260136-0.34375 0.5-0.34375 0.282874 0 0.5625 0.2492491 0.5625 0.4375v1.46875c0 0.213347-0.174543 0.375-0.4375 0.375-0.251547 0-0.474154-0.116921-0.53125-0.34375-0.0489463-0.288482-0.3918868-1.15625-1.84375-1.15625-1.2907496 0-1.8125 0.810107-1.8125 1.375 0 0.527253 0.6023977 1.08117 1.6875 1.09375 1.0511328 0 3.2386 0.241911 3.25 2.25 0.0071 1.242438-1.246027 2.21875-3.0625 2.21875-0.7265864 0-1.378563-0.131814-2.03125-0.5 0 0.466887-0.1386589 0.5-0.5625 0.5-0.393569 0-0.551099-0.354798-0.5625-0.71875v-1.59375c0-0.200801 0.1829675-0.375 0.46875-0.375 0.2855529 0 0.53125 0.198851 0.53125 0.375 0 0.502632 0.6323027 1.46875 1.96875 1.46875 1.1767012 0 2.1875-0.420863 2.1875-1.375 0-0.979231-1.0763092-1.28125-2.21875-1.28125-1.097059 0-2.78125-0.54373-2.78125-2.0625 0-1.5832934 1.7694272-2.21875 2.96875-2.21875z" style="color:#000000;fill:#bebebe"/>
</svg>
