<svg id="svg2" width="16" height="16" version="1.0" xmlns="http://www.w3.org/2000/svg">
 <path id="path4124" d="m8 0c-4.418278 0-8 3.5817218-8 8 0 4.418278 3.581722 8 8 8s8-3.581722 8-8c0-4.4182782-3.581722-8-8-8zm0 1.7777778c3.436438 0 6.222222 2.7857842 6.222222 6.2222222s-2.785784 6.222222-6.222222 6.222222c-1.635166 0-3.1117228-0.635206-4.2222222-1.666666 0.3580818-0.05034 0.9268937-0.05594 1.6666666 0.02778 1.0819976 0.12245 1.6754223 0.165045 2.3888889 0.111111 1.6248137-0.122839 2.6980447-0.390023 3.8888887-0.972222 0.622357-0.304278 0.75428-0.441734 0.888889-0.805555 0.128345-0.346889 0.176553-0.66667 0.111111-0.66667-0.02316 0-0.228013 0.07903-0.472222 0.194444-0.91637 0.433033-1.718167 0.648427-2.416667 0.611112-0.726129-0.03884-1.8941641-0.460212-3.3055552-1.138889l-0.6666667-0.305556-0.5-1.25 0.4722222 0.305556c0.8058908 0.535139 2.1223423 1.165456 2.9166667 1.416666 1.213505 0.38377 2.161732 0.331091 3.138889-0.166666 0.344419-0.175445 1-0.605362 1-0.666667 0-0.11556-0.335437-1.240241-0.527778-1.75-0.480977-1.274735-0.818449-1.705215-1.611111-2.083333-0.88002-0.419791-1.855713-0.704687-3.6388889-1.111111-0.8525351-0.18102-1.6903159-0.3643338-2.5555555-0.4722227l-0.0277778 1.0555557c-0.5658376-0.17597-1.1033601-0.311341-1.6388889-0.444445 1.1248696-1.6084082 2.9994459-2.6666662 5.1111111-2.6666662zm1.472222 4.5000002c0.582598-0.01235 1.13757 0.370924 1.305556 1.027778 0.08462 0.330913 0.05789 0.565591-0.111111 0.916666-0.247073 0.513212-0.793843 0.791735-1.388889 0.694445-0.419621-0.0686-0.78233-0.339195-0.972222-0.75-0.231294-0.500351-0.123011-1.165041 0.277777-1.527778 0.2625-0.237586 0.583712-0.354729 0.888889-0.361111zm0.305556 0.694444c-0.464926 0-0.756997 0.341457-0.5 0.583334 0.208457 0.196185 0.556395 0.224873 0.833333 0.08333 0.179349-0.09167 0.240747-0.231871 0.194445-0.416667-0.03408-0.135987-0.301552-0.25-0.527778-0.25z" style="color:#000000;fill:#bebebe"/>
</svg>
