<svg id="Capa_1" width="34.083px" height="34.083px" style="enable-background:new 0 0 34.083 34.083" version="1.1" viewBox="0 0 34.083 34.083" xmlns="http://www.w3.org/2000/svg">
 <path id="path2" d="m2.501 29.572c-0.64 0-1.279-0.244-1.768-0.732-0.977-0.976-0.977-2.559 0-3.534l8.264-8.264-8.264-8.263c-0.977-0.977-0.977-2.56 0-3.535 0.977-0.977 2.559-0.977 3.535 0l10.031 10.031c0.469 0.469 0.731 1.104 0.731 1.768s-0.264 1.298-0.731 1.769l-10.03 10.03c-0.489 0.486-1.129 0.73-1.768 0.73zm31.582-2.5c0-1.381-1.119-2.5-2.5-2.5h-14.637c-1.381 0-2.5 1.119-2.5 2.5s1.119 2.5 2.5 2.5h14.637c1.38 0 2.5-1.119 2.5-2.5z"/>
</svg>
