<svg id="svg2" width="16" height="16" version="1.0" xmlns="http://www.w3.org/2000/svg">
 <path id="path3897" d="m7.5 0c-3.5898508 0-6.5 2.9101492-6.5 6.5 0 3.0065 2.0403331 5.538471 4.8125 6.28125l-3.09375 2.3125c-0.3545308 0.233494-0.143183 0.914503 0.28125 0.90625h9c0.424433 0.0083 0.635781-0.672756 0.28125-0.90625l-3.09375-2.3125c2.772167-0.742779 4.8125-3.27475 4.8125-6.28125 0-3.5898508-2.910149-6.5-6.5-6.5zm0 1c0.2761424 0 0.5 0.2238576 0.5 0.5s-0.2238576 0.5-0.5 0.5-0.5-0.2238576-0.5-0.5 0.2238576-0.5 0.5-0.5zm0 2c1.6568542 0 3 1.343145 3 3s-1.3431458 3-3 3-3-1.343145-3-3 1.3431458-3 3-3zm0 0.84375c-1.1834673 0-2.15625 0.972783-2.15625 2.15625s0.9727827 2.15625 2.15625 2.15625 2.15625-0.972783 2.15625-2.15625-0.9727827-2.15625-2.15625-2.15625z" style="color:#000000;fill:#bebebe"/>
</svg>
