<svg id="Capa_1" width="260.464px" height="260.464px" style="enable-background:new 0 0 260.464 260.464" version="1.1" viewBox="0 0 260.464 260.464" xmlns="http://www.w3.org/2000/svg">
 <path id="path2" d="m207.854 139.263c-2.01 2.714-4.376 5.038-6.929 6.908-5.861 7.85-14.24 11.92-21.67 9.476-10.264-3.355-14.769-17.72-10.062-32.094 1.476-4.51 3.743-8.399 6.395-11.623l17.368-40.801 7.166-16.823c-21.535-21.873-55.012-35.144-100.432-27.897-99.631 15.896-130.366 137.786-65.712 195.021 60.503 53.567 92.24 17.077 115.171-23.441 2.595-4.583 8.746-7.271 13.981-6.711 16.684 1.771 50.844-0.099 62.687-41.922 3.313-11.719 4.06-24.591 2.31-37.482zm-148.967-52.444c11.418 0 20.668 9.253 20.668 20.664 0 11.415-9.25 20.668-20.668 20.668-11.415 0-20.668-9.253-20.668-20.668 0-11.411 9.253-20.664 20.668-20.664zm-11.925 94.594c-11.41 0-20.668-9.253-20.668-20.661 0-11.412 9.253-20.671 20.668-20.671 11.418 0 20.669 9.253 20.669 20.671 0 11.408-9.251 20.661-20.669 20.661zm40.542 41.337c-11.416 0-20.668-9.254-20.668-20.661 0-11.417 9.253-20.671 20.668-20.671 11.417 0 20.668 9.254 20.668 20.671 1e-3 11.407-9.25 20.661-20.668 20.661zm16.692-130.364c-11.415 0-20.668-9.251-20.668-20.669 0-11.41 9.253-20.663 20.668-20.663 11.413 0 20.671 9.253 20.671 20.663 0 11.418-9.253 20.669-20.671 20.669z"/>
 <path id="path4" d="m238.954 15.941c-13.375 0.865-23.416 13.82-23.416 13.82l0.114 0.057c-0.564 0.551-1.113 1.139-1.631 1.761-9.108 10.853-7.689 27.027 3.164 36.13 10.853 9.104 27.024 7.689 36.127-3.166 3.299-3.928 5.199-8.567 5.789-13.313l0.011 5e-3c4.925-23.314-5.193-39.053-5.193-39.053s-1.579 2.894-14.965 3.759z"/>
 <path id="path6" d="m179.871 146.477c5.044 2.936 13.422-0.487 18.72-7.639l24.663-33.323c-11.49-2.641-21.784-9.761-28.412-15.325-0.616-0.518-1.201-1.018-1.75-1.504l-16.032 37.658c-3.485 8.181-2.227 17.201 2.811 20.133z"/>
 <path id="path8" d="m214.741 70.619c-4.07-3.415-6.97-7.697-8.699-12.353l-7.363 17.3c6.504 6.475 20.77 17.738 33.761 17.551l13.453-18.165c-10.046 4.454-22.189 3.194-31.152-4.333z"/>
</svg>
