<svg id="svg2" width="16" height="16" version="1.0" xmlns="http://www.w3.org/2000/svg">
 <path id="path3098" d="m0.03125 1.09375v4.0625h1.03125c0.5411819-3.87e-4 1.0316391 0.490068 1.03125 1.03125v1.6875 3c0 2.278887 1.7836138 4.09375 4.0625 4.09375h4.71875 5.09375v-4.09375-5.71875c0-2.278887-1.814864-4.0625-4.09375-4.0625h-2.59375-2.0625-6.15625zm3.96875 1.90625h0.96875v7.875 0.25c0 0.536935 0.4506767 0.96875 1 0.96875h6.0625c0.549323 0 0.96875-0.431815 0.96875-0.96875v-0.25-0.875-2-1c0-0.552285-0.447715-1-1-1s-1 0.447715-1 1v1 2h-1v-2-1c0-0.552285-0.447715-1-1-1s-1 0.447715-1 1v3h-1v-3c0-1.104569 0.895431-2 2-2 0.600847 0 1.133385 0.268051 1.5 0.6875 0.366615-0.419449 0.899153-0.6875 1.5-0.6875 1.104569 0 2 0.895431 2 2v1 2 0.875 0.25c0 1.073869-0.870103 1.9375-1.96875 1.9375h-6.0625c-1.0986466 0-1.96875-0.863631-1.96875-1.9375v-0.25z" style="color:#000000;fill:#bebebe"/>
</svg>
