<svg id="svg2408" width="96" height="96" version="1.0" xmlns="http://www.w3.org/2000/svg" xmlns:xlink="http://www.w3.org/1999/xlink">
 <defs id="defs2410">
  <linearGradient id="linearGradient3761">
   <stop id="stop3763" style="stop-color:#ffffff" offset="0"/>
   <stop id="stop3765" style="stop-color:#ffffff;stop-opacity:0" offset="1"/>
  </linearGradient>
  <linearGradient id="linearGradient3188" x1="36.357143" x2="36.357143" y1="6" y2="63.893143" gradientUnits="userSpaceOnUse" xlink:href="#linearGradient3761"/>
  <filter id="filter3794" x="-.192" y="-.192" width="1.3839999" height="1.3839999" color-interpolation-filters="sRGB">
   <feGaussianBlur id="feGaussianBlur3796" stdDeviation="5.28"/>
  </filter>
  <linearGradient id="linearGradient3613" x1="48" x2="48" y1="20.220806" y2="138.66119" gradientUnits="userSpaceOnUse" xlink:href="#linearGradient3761"/>
  <radialGradient id="radialGradient3619" cx="48" cy="90.171875" r="42" gradientTransform="matrix(1.1573129 0 0 .99590774 -7.5510206 .19713193)" gradientUnits="userSpaceOnUse" xlink:href="#linearGradient3761"/>
  <clipPath id="clipPath3613">
   <rect id="rect3615" x="6" y="6" width="84" height="84" rx="6" ry="6" style="fill:#ffffff"/>
  </clipPath>
  <linearGradient id="linearGradient3617" x1="48" x2="48" y1="90" y2="5.9877172" gradientUnits="userSpaceOnUse">
   <stop id="stop3643" style="stop-color:#bdb8c4" offset="0"/>
   <stop id="stop3645" style="stop-color:#dbd9df" offset="1"/>
  </linearGradient>
  <linearGradient id="linearGradient3670" x1="16.162441" x2="76.838295" y1="52.098946" y2="52.098946" gradientUnits="userSpaceOnUse">
   <stop id="stop3666" style="stop-color:#000000;stop-opacity:.29838711" offset="0"/>
   <stop id="stop3668" style="stop-color:#ffffff;stop-opacity:.64516127" offset="1"/>
  </linearGradient>
  <linearGradient id="linearGradient3674" x1="16.162441" x2="76.771591" y1="44.48222" y2="44.48222" gradientUnits="userSpaceOnUse">
   <stop id="stop3721" style="stop-color:#4b4b4b" offset="0"/>
   <stop id="stop3723" style="stop-color:#232323" offset=".37373093"/>
   <stop id="stop3725" style="stop-color:#5c5c5c" offset="1"/>
  </linearGradient>
  <linearGradient id="linearGradient3707" x1="16.162441" x2="76.771591" y1="44.48222" y2="44.48222" gradientUnits="userSpaceOnUse">
   <stop id="stop3709" style="stop-color:#141414" offset="0"/>
   <stop id="stop3654" style="stop-color:#616161" offset="1"/>
  </linearGradient>
  <radialGradient id="radialGradient3738" cx="48" cy="48.000935" r="27.001867" gradientTransform="matrix(1 0 0 .99996543 0 .00165947)" gradientUnits="userSpaceOnUse">
   <stop id="stop3734" style="stop-color:#000000;stop-opacity:0" offset="0"/>
   <stop id="stop3740" style="stop-color:#000000;stop-opacity:0" offset=".94999999"/>
   <stop id="stop3736" style="stop-color:#000000" offset="1"/>
  </radialGradient>
  <linearGradient id="linearGradient3744" x1="16.162441" x2="76.771591" y1="44.48222" y2="44.48222" gradientUnits="userSpaceOnUse">
   <stop id="stop3748" style="stop-color:#5d5d5d" offset="0"/>
   <stop id="stop3753" style="stop-color:#0a0a0a" offset=".60000002"/>
   <stop id="stop3751" style="stop-color:#4e4e4e" offset="1"/>
  </linearGradient>
  <clipPath id="clipPath3798">
   <path id="path3800" transform="matrix(1.0266143 0 0 1.0266143 -.999999 .778362)" d="m61.366765 45.997448a13.637059 13.637059 0 1 1-27.274118 0 13.637059 13.637059 0 1 1 27.274118 0z" style="fill:#ff00ff"/>
  </clipPath>
  <filter id="filter3833" x="-.23999999" y="-.24000001" width="1.48" height="1.48" color-interpolation-filters="sRGB">
   <feGaussianBlur id="feGaussianBlur3835" stdDeviation="2.8000002"/>
  </filter>
  <radialGradient id="radialGradient3687" cx="47.729706" cy="45.997448" r="13.637059" gradientUnits="userSpaceOnUse">
   <stop id="stop3683" style="stop-color:#ffffff;stop-opacity:.18548387" offset="0"/>
   <stop id="stop3689" style="stop-color:#ffffff;stop-opacity:.10887097" offset=".3086735"/>
   <stop id="stop3691" style="stop-color:#000000;stop-opacity:0" offset=".43622452"/>
   <stop id="stop3693" style="stop-color:#000000;stop-opacity:0" offset=".54464293"/>
   <stop id="stop3695" style="stop-color:#ffffff;stop-opacity:0" offset=".58290821"/>
   <stop id="stop3697" style="stop-color:#000000;stop-opacity:.1814516" offset=".61479598"/>
   <stop id="stop3699" style="stop-color:#000000;stop-opacity:.43145162" offset=".69132656"/>
   <stop id="stop3701" style="stop-color:#ffffff;stop-opacity:.08064516" offset=".78061229"/>
   <stop id="stop3703" style="stop-color:#000000;stop-opacity:0" offset=".87627554"/>
   <stop id="stop3685" style="stop-color:#ffffff;stop-opacity:0" offset="1"/>
  </radialGradient>
  <linearGradient id="linearGradient3733" x1="33.199345" x2="67.957489" y1="45.997448" y2="45.997448" gradientUnits="userSpaceOnUse">
   <stop id="stop3729" style="stop-color:#ffffff" offset="0"/>
   <stop id="stop3731" style="stop-color:#ffffff;stop-opacity:0" offset="1"/>
  </linearGradient>
  <linearGradient id="linearGradient3767" x1="40.068184" x2="31.793724" y1="58.17598" y2="49.665066" gradientUnits="userSpaceOnUse" xlink:href="#linearGradient3761"/>
  <linearGradient id="linearGradient3771" x1="40.068184" x2="40.068184" y1="58.17598" y2="41.697067" gradientUnits="userSpaceOnUse" xlink:href="#linearGradient3761"/>
  <filter id="filter3774" color-interpolation-filters="sRGB">
   <feGaussianBlur id="feGaussianBlur3776" stdDeviation="0.27274118"/>
  </filter>
  <filter id="filter3987" color-interpolation-filters="sRGB">
   <feGaussianBlur id="feGaussianBlur3989" stdDeviation="0.42020394"/>
  </filter>
  <linearGradient id="linearGradient3817" x1="64.072342" x2="46.604744" y1="64.036171" y2="46.568573" gradientUnits="userSpaceOnUse">
   <stop id="stop3799" style="stop-color:#ffffff" offset="0"/>
   <stop id="stop3805" style="stop-color:#ffffff" offset=".5"/>
   <stop id="stop3801" style="stop-color:#ffffff;stop-opacity:0" offset="1"/>
  </linearGradient>
  <linearGradient id="ButtonShadow-0" x1="45.447727" x2="45.447727" y1="92.539597" y2="7.0165396" gradientTransform="matrix(1.0058652 0 0 .994169 100 0)" gradientUnits="userSpaceOnUse">
   <stop id="stop3750-8" style="stop-color:#000000" offset="0"/>
   <stop id="stop3752-5" style="stop-color:#000000;stop-opacity:.58823532" offset="1"/>
  </linearGradient>
  <linearGradient id="linearGradient3780" x1="32.251034" x2="32.251034" y1="6.1317081" y2="90.238609" gradientTransform="matrix(1.0238095,0,0,1.0119048,-1.1428571,-98.071429)" gradientUnits="userSpaceOnUse" xlink:href="#ButtonShadow-0"/>
  <linearGradient id="linearGradient3721" x1="32.251034" x2="32.251034" y1="6.1317081" y2="90.238609" gradientTransform="translate(0,-97)" gradientUnits="userSpaceOnUse" xlink:href="#ButtonShadow-0"/>
 </defs>
 <g id="layer7">
  <path id="path3786" transform="scale(1,-1)" d="m12-95.03125c-5.5110903 0-10.03125 4.52016-10.03125 10.03125v71c0 5.5110902 4.5201598 10.03125 10.03125 10.03125h72c5.51109 0 10.03125-4.5201597 10.03125-10.03125v-71c0-5.51109-4.52016-10.03125-10.03125-10.03125h-72z" style="fill:url(#linearGradient3780);opacity:.07999998"/>
  <path id="path3778-9" transform="scale(1,-1)" d="m12-94.03125c-4.971633 0-9.03125 4.059617-9.03125 9.03125v71c0 4.9716329 4.0596171 9.03125 9.03125 9.03125h72c4.971633 0 9.03125-4.059617 9.03125-9.03125v-71c0-4.971633-4.059617-9.03125-9.03125-9.03125h-72z" style="fill:url(#linearGradient3780);opacity:.1"/>
  <path id="path3770" transform="scale(1,-1)" d="m12-93c-4.4091333 0-8 3.590867-8 8v71c0 4.4091333 3.5908667 8 8 8h72c4.409133 0 8-3.5908667 8-8v-71c0-4.409133-3.590867-8-8-8h-72z" style="fill:url(#linearGradient3780);opacity:.2"/>
  <rect id="rect3723" transform="scale(1,-1)" x="5" y="-92" width="86" height="85" rx="7" ry="7" style="fill:url(#linearGradient3780);opacity:.3"/>
  <rect id="rect3716" transform="scale(1,-1)" x="6" y="-91" width="84" height="84" rx="6" ry="6" style="fill:url(#linearGradient3721);opacity:.45"/>
 </g>
 <g id="layer1">
  <rect id="rect2419" x="6" y="6" width="84" height="84" rx="6" ry="6" style="fill:url(#linearGradient3617)"/>
  <path id="rect3728" d="m12 6c-3.324 0-6 2.676-6 6v2 68 2c0 0.334721 0.04135 0.6507 0.09375 0.96875 0.0487 0.295596 0.09704 0.596915 0.1875 0.875 0.00988 0.03038 0.020892 0.0636 0.03125 0.09375 0.098865 0.287771 0.2348802 0.547452 0.375 0.8125 0.1445918 0.273507 0.3156161 0.535615 0.5 0.78125s0.3737765 0.473472 0.59375 0.6875c0.439947 0.428056 0.94291 0.814526 1.5 1.09375 0.278545 0.139612 0.5734731 0.246947 0.875 0.34375-0.2562018-0.100222-0.4867109-0.236272-0.71875-0.375-0.00741-0.0044-0.023866 0.0045-0.03125 0-0.031933-0.0193-0.062293-0.04251-0.09375-0.0625-0.120395-0.0767-0.2310226-0.163513-0.34375-0.25-0.1061728-0.0808-0.2132809-0.161112-0.3125-0.25-0.1779299-0.161433-0.3474596-0.345388-0.5-0.53125-0.1075789-0.130255-0.2183939-0.265285-0.3125-0.40625-0.025089-0.03838-0.038446-0.08587-0.0625-0.125-0.064763-0.103032-0.1302275-0.204517-0.1875-0.3125-0.1010083-0.194706-0.2056748-0.415701-0.28125-0.625-0.00796-0.02181-0.023589-0.04055-0.03125-0.0625-0.0318251-0.09195-0.0358045-0.186831-0.0625-0.28125-0.0303323-0.106618-0.0703894-0.203031-0.09375-0.3125-0.0728786-0.341512-0.125-0.698205-0.125-1.0625v-2-68-2c0-2.781848 2.2181517-5 5-5h2 68 2c2.781848 0 5 2.218152 5 5v2 68 2c0 0.364295-0.05212 0.720988-0.125 1.0625-0.04415 0.206893-0.08838 0.397658-0.15625 0.59375-0.0077 0.02195-0.0233 0.04069-0.03125 0.0625-0.06274 0.173739-0.138383 0.367449-0.21875 0.53125-0.04158 0.0828-0.07904 0.169954-0.125 0.25-0.0546 0.09721-0.126774 0.18835-0.1875 0.28125-0.09411 0.140965-0.204921 0.275995-0.3125 0.40625-0.143174 0.17445-0.303141 0.346998-0.46875 0.5-0.01117 0.0102-0.01998 0.02115-0.03125 0.03125-0.138386 0.125556-0.285091 0.234436-0.4375 0.34375-0.102571 0.07315-0.204318 0.153364-0.3125 0.21875-0.0074 0.0045-0.02384-0.0044-0.03125 0-0.232039 0.138728-0.462548 0.274778-0.71875 0.375 0.301527-0.0968 0.596455-0.204138 0.875-0.34375 0.55709-0.279224 1.060053-0.665694 1.5-1.09375 0.219973-0.214028 0.409366-0.441865 0.59375-0.6875s0.355408-0.507743 0.5-0.78125c0.14012-0.265048 0.276135-0.524729 0.375-0.8125 0.01041-0.03078 0.02133-0.06274 0.03125-0.09375 0.09046-0.278085 0.1388-0.579404 0.1875-0.875 0.0524-0.31805 0.09375-0.634029 0.09375-0.96875v-2-68-2c0-3.324-2.676-6-6-6h-72z" style="fill:url(#linearGradient3188);opacity:.5"/>
  <path id="path3615" d="m12 90c-3.324 0-6-2.676-6-6v-2-68-2c0-0.334721 0.04135-0.6507 0.09375-0.96875 0.0487-0.295596 0.09704-0.596915 0.1875-0.875 0.00988-0.03038 0.020892-0.0636 0.03125-0.09375 0.098865-0.287771 0.2348802-0.547452 0.375-0.8125 0.1445918-0.273507 0.3156161-0.535615 0.5-0.78125s0.3737765-0.473472 0.59375-0.6875c0.439947-0.428056 0.94291-0.814526 1.5-1.09375 0.278545-0.139612 0.5734731-0.246947 0.875-0.34375-0.2562018 0.100222-0.4867109 0.236272-0.71875 0.375-0.00741 0.0044-0.023866-0.0045-0.03125 0-0.031933 0.0193-0.062293 0.04251-0.09375 0.0625-0.120395 0.0767-0.2310226 0.163513-0.34375 0.25-0.1061728 0.0808-0.2132809 0.161112-0.3125 0.25-0.1779299 0.161433-0.3474596 0.345388-0.5 0.53125-0.1075789 0.130255-0.2183939 0.265285-0.3125 0.40625-0.025089 0.03838-0.038446 0.08587-0.0625 0.125-0.064763 0.103032-0.1302275 0.204517-0.1875 0.3125-0.1010083 0.194706-0.2056748 0.415701-0.28125 0.625-0.00796 0.02181-0.023589 0.04055-0.03125 0.0625-0.0318251 0.09195-0.0358045 0.186831-0.0625 0.28125-0.0303323 0.106618-0.0703894 0.203031-0.09375 0.3125-0.0728786 0.341512-0.125 0.698205-0.125 1.0625v2 68 2c0 2.781848 2.2181517 5 5 5h2 68 2c2.781848 0 5-2.218152 5-5v-2-68-2c0-0.364295-0.05212-0.720988-0.125-1.0625-0.04415-0.206893-0.08838-0.397658-0.15625-0.59375-0.0077-0.02195-0.0233-0.04069-0.03125-0.0625-0.06274-0.173739-0.138383-0.367449-0.21875-0.53125-0.04158-0.0828-0.07904-0.169954-0.125-0.25-0.0546-0.09721-0.126774-0.18835-0.1875-0.28125-0.09411-0.140965-0.204921-0.275995-0.3125-0.40625-0.143174-0.17445-0.303141-0.346998-0.46875-0.5-0.01117-0.0102-0.01998-0.02115-0.03125-0.03125-0.138386-0.125556-0.285091-0.234436-0.4375-0.34375-0.102571-0.07315-0.204318-0.153364-0.3125-0.21875-0.0074-0.0045-0.02384 0.0044-0.03125 0-0.232039-0.138728-0.462548-0.274778-0.71875-0.375 0.301527 0.0968 0.596455 0.204138 0.875 0.34375 0.55709 0.279224 1.060053 0.665694 1.5 1.09375 0.219973 0.214028 0.409366 0.441865 0.59375 0.6875s0.355408 0.507743 0.5 0.78125c0.14012 0.265048 0.276135 0.524729 0.375 0.8125 0.01041 0.03078 0.02133 0.06274 0.03125 0.09375 0.09046 0.278085 0.1388 0.579404 0.1875 0.875 0.0524 0.31805 0.09375 0.634029 0.09375 0.96875v2 68 2c0 3.324-2.676 6-6 6h-72z" style="fill:url(#radialGradient3619);opacity:.3"/>
 </g>
 <g id="layer5">
  <rect id="rect3171" x="15" y="15" width="66" height="66" rx="12" ry="12" clip-path="url(#clipPath3613)" style="fill:url(#linearGradient3613);filter:url(#filter3794);opacity:.5;stroke-linecap:round;stroke-width:.5;stroke:#ffffff"/>
 </g>
 <g id="layer3">
  <path id="path3660" transform="matrix(0,1.0559461,-1.0559461,0,94.970826,-1.0666667)" d="m76.771595 44.48222a30.304577 30.304577 0 1 1-60.609154 0 30.304577 30.304577 0 1 1 60.609154 0z" style="fill:url(#linearGradient3670)"/>
  <path id="path3648" transform="matrix(.69999999 .69999999 -.69999999 .69999999 46.610641 -15.664466)" d="m76.771595 44.48222a30.304577 30.304577 0 1 1-60.609154 0 30.304577 30.304577 0 1 1 60.609154 0z" style="fill:url(#linearGradient3674)"/>
  <path id="path3672" transform="matrix(0 .9816999 -.9816999 0 91.66819 2.3833331)" d="m76.771595 44.48222a30.304577 30.304577 0 1 1-60.609154 0 30.304577 30.304577 0 1 1 60.609154 0z" style="fill:none;stroke-width:.50932068;stroke:#000000"/>
  <path id="path3697" transform="matrix(0 .89095453 -.89095453 0 87.631635 6.5999996)" d="m76.771595 44.48222a30.304577 30.304577 0 1 1-60.609154 0 30.304577 30.304577 0 1 1 60.609154 0z" style="fill:url(#linearGradient3707)"/>
  <g id="g3691" transform="matrix(.92592592 0 0 .92592592 3.555556 3.5555557)" style="opacity:.2">
   <path id="path3676" transform="matrix(0 .88270495 -.88270495 0 87.264675 6.9833334)" d="m76.771595 44.48222a30.304577 30.304577 0 1 1-60.609154 0 30.304577 30.304577 0 1 1 60.609154 0z" style="fill:none;stroke-width:.61175603;stroke:#000000"/>
   <path id="path3678" transform="matrix(0 .81670832 -.81670832 0 84.328998 10.05)" d="m76.771595 44.48222a30.304577 30.304577 0 1 1-60.609154 0 30.304577 30.304577 0 1 1 60.609154 0z" style="fill:none;stroke-width:.66119081;stroke:#000000"/>
   <path id="path3680" transform="matrix(0 .84970663 -.84970663 0 85.796836 8.5166669)" d="m76.771595 44.48222a30.304577 30.304577 0 1 1-60.609154 0 30.304577 30.304577 0 1 1 60.609154 0z" style="fill:none;stroke-width:.63551354;stroke:#000000"/>
   <path id="path3682" transform="matrix(0 .78371 -.78371 0 82.861159 11.583334)" d="m76.771595 44.48222a30.304577 30.304577 0 1 1-60.609154 0 30.304577 30.304577 0 1 1 60.609154 0z" style="fill:none;stroke-width:.68903041;stroke:#000000"/>
  </g>
  <path id="path3727" d="m48 21c-6.909903 0-13.821672 2.634172-19.09375 7.90625-10.544156 10.544156-10.544156 27.643344 0 38.1875s27.643344 10.544156 38.1875 0 10.544156-27.643344 0-38.1875c-5.272078-5.272078-12.183847-7.90625-19.09375-7.90625zm0 2.5c6.270097 0 12.528577 2.403577 17.3125 7.1875 9.567845 9.567845 9.567845 25.057155 0 34.625s-25.057155 9.567845-34.625 0-9.567845-25.057155 0-34.625c4.783923-4.783923 11.042403-7.1875 17.3125-7.1875z" style="fill:url(#radialGradient3738);opacity:.6"/>
  <path id="path3742" transform="matrix(0 .64907743 -.64907743 0 76.872405 17.839307)" d="m76.771595 44.48222a30.304577 30.304577 0 1 1-60.609154 0 30.304577 30.304577 0 1 1 60.609154 0z" style="fill:url(#linearGradient3744);stroke-width:1.5406482;stroke:#1a1a1a"/>
 </g>
 <g id="layer4">
  <path id="path3757" transform="matrix(1.0266143 0 0 1.0266143 -.999999 .7783622)" d="m61.366765 45.997448a13.637059 13.637059 0 1 1-27.274118 0 13.637059 13.637059 0 1 1 27.274118 0z" style="fill:#000000"/>
  <path id="path3760" d="m47.5 33c-8.008129 0-14.5 6.491871-14.5 14.5s6.491871 14.5 14.5 14.5c0.08504 0 0.165309 0.0015 0.25 0-7.616122-0.133969-13.75-6.351898-13.75-14 0-7.731986 6.268014-14 14-14 7.648102 0 13.866031 6.133878 14 13.75 0.0015-0.08469 0-0.164961 0-0.25 0-8.008129-6.491871-14.5-14.5-14.5z" style="fill:#000000;opacity:.6"/>
  <path id="path2907" transform="matrix(1.0266143 0 0 1.0266143 -.999999 .778362)" d="m61.366765 45.997448a13.637059 13.637059 0 1 1-27.274118 0 13.637059 13.637059 0 1 1 27.274118 0z" style="fill:url(#radialGradient3687)"/>
  <path id="path3705" transform="matrix(0 .97161711 -.97161711 0 92.69191 1.6250011)" d="m61.366765 45.997448a13.637059 13.637059 0 1 1-27.274118 0 13.637059 13.637059 0 1 1 27.274118 0z" style="fill:none;filter:url(#filter3774);stroke-width:.514606;stroke:url(#linearGradient3733)"/>
  <path id="path3735" d="m41.34375 47.375c0.07082-0.767299 0.285421-1.486362 0.59375-2.15625l-4.59375-2.40625c-0.603997 1.243084-1.018186 2.621977-1.15625 4.0625zm1.375-3.4375c1.071033-1.389071 2.667628-2.34897 4.5-2.5625l-0.59375-5.15625c-3.598468 0.417087-6.654118 2.435762-8.53125 5.3125z" style="fill:#ffffff;opacity:.6"/>
  <path id="path3759" transform="matrix(.58268801 -.58268801 .58268801 .58268801 -.74355667 46.935862)" d="m50.708204 52a9.7082043 6 0 1 1-19.416408 0 9.7082043 6 0 1 1 19.416408 0z" style="fill:url(#linearGradient3767);opacity:.4314516"/>
  <path id="path3769" transform="matrix(.15076894 -.15076894 .15076894 .15076894 37.387737 49.649792)" d="m50.708204 52a9.7082043 6 0 1 1-19.416408 0 9.7082043 6 0 1 1 19.416408 0z" style="fill:url(#linearGradient3771);opacity:.3"/>
  <path id="path3773" transform="matrix(-.10757707 .10757707 -.10757707 -.10757707 55.999137 47.076819)" d="m50.708204 52a9.7082043 6 0 1 1-19.416408 0 9.7082043 6 0 1 1 19.416408 0z" style="fill:url(#linearGradient3771);opacity:.3"/>
  <path id="path3777" transform="matrix(-.19358861 .19358861 -.19358861 -.19358861 59.194255 43.21899)" d="m50.708204 52a9.7082043 6 0 1 1-19.416408 0 9.7082043 6 0 1 1 19.416408 0z" style="fill:url(#linearGradient3771);opacity:.4314516"/>
  <path id="path3789" transform="matrix(.08968638 -.08968638 .08968638 .08968638 40.497472 47.750757)" d="m50.708204 52a9.7082043 6 0 1 1-19.416408 0 9.7082043 6 0 1 1 19.416408 0z" style="fill:url(#linearGradient3771);opacity:.6"/>
  <path id="path3806" d="m48 32c-8.836556 0-16 7.163444-16 16s7.163444 16 16 16c3.116171 0 6.024275-0.890837 8.483537-2.431735 4.514493-2.828642 7.516463-7.84788 7.516463-13.568265 0-8.836556-7.163444-16-16-16zm0 1.5c8.008129 0 14.5 6.491871 14.5 14.5s-6.491871 14.5-14.5 14.5-14.5-6.491871-14.5-14.5 6.491871-14.5 14.5-14.5z" style="fill:url(#linearGradient3817);opacity:.7;stroke:#ff0000"/>
 </g>
 <g id="layer6" style="fill:#ff0000;stroke:#ff0000">
  <g id="g3786" clip-path="url(#clipPath3798)" style="fill:#ff0000;filter:url(#filter3833);opacity:.93;stroke:#ff0000">
   <path id="path3756" transform="matrix(1.0266143 0 0 1.0266143 -.9999987 .7783622)" d="m61.366765 45.997448a13.637059 13.637059 0 0 1-3.994202 9.642857l-9.642857-9.642857z" style="fill:#ff0000;stroke:#ff0000"/>
   <path id="path3772" transform="matrix(.72592593 .72592593 -.72592593 .72592593 46.742509 -20.038972)" d="m61.366765 45.997448a13.637059 13.637059 0 0 1-3.994202 9.642857l-9.642857-9.642857z" style="fill:#ff0000;stroke:#ff0000"/>
   <path id="path3774" transform="matrix(0 1.0266143 -1.0266143 0 95.221638 -.99999877)" d="m61.366765 45.997448a13.637059 13.637059 0 0 1-3.994202 9.642857l-9.642857-9.642857z" style="fill:#ff0000;stroke:#ff0000"/>
   <path id="path3776" transform="matrix(-.72592593 .72592593 -.72592593 -.72592593 116.03897 46.742509)" d="m61.366765 45.997448a13.637059 13.637059 0 0 1-3.994202 9.642857l-9.642857-9.642857z" style="fill:#ff0000;stroke:#ff0000"/>
   <path id="path3778" transform="matrix(-1.0266143,0,0,-1.0266143,96.999997,95.221637)" d="m61.366765 45.997448a13.637059 13.637059 0 0 1-3.994202 9.642857l-9.642857-9.642857z" style="fill:#ff0000;stroke:#ff0000"/>
   <path id="path3780" transform="matrix(-.72592593 -.72592593 .72592593 -.72592593 49.25749 116.03897)" d="m61.366765 45.997448a13.637059 13.637059 0 0 1-3.994202 9.642857l-9.642857-9.642857z" style="fill:#ff0000;stroke:#ff0000"/>
   <path id="path3782" transform="matrix(0 -1.0266143 1.0266143 0 .77836254 96.999997)" d="m61.366765 45.997448a13.637059 13.637059 0 0 1-3.994202 9.642857l-9.642857-9.642857z" style="fill:#ff0000;stroke:#ff0000"/>
   <path id="path3784" transform="matrix(.72592593 -.72592593 .72592593 .72592593 -20.03897 49.25749)" d="m61.366765 45.997448a13.637059 13.637059 0 0 1-3.994202 9.642857l-9.642857-9.642857z" style="fill:#ff0000;stroke:#ff0000"/>
  </g>
  <g id="g3957" transform="translate(0,-50)" style="fill:#ff0000;filter:url(#filter3987);opacity:.8;stroke:#ff0000">
   <path id="path3726" d="m61.53125 94.375-0.96875 0.25c0.287421 1.074342 0.4375 2.210019 0.4375 3.375 0 4.80784-2.619633 9.00086-6.5 11.25l0.5 0.875c5.487553-3.16824 8.171252-9.62943 6.53125-15.75z" style="fill:#ff0000;opacity:.8;stroke:#ff0000"/>
   <path id="path3728" d="m59.25 104.5c-2.249137 3.88037-6.442164 6.5-11.25 6.5-1.164981 0-2.300658-0.15008-3.375-0.4375l-0.25 0.96875c6.120569 1.64 12.58176-1.0437 15.75-6.53125l-0.875-0.5z" style="fill:#ff0000;opacity:.8;stroke:#ff0000"/>
   <path id="path3730" d="m36.75 104.5-0.875 0.5c3.16824 5.48755 9.629431 8.17125 15.75 6.53125l-0.25-0.96875c-1.074342 0.28742-2.210019 0.4375-3.375 0.4375-4.807836 0-9.000863-2.61963-11.25-6.5z" style="fill:#ff0000;stroke:#ff0000"/>
   <path id="path3732" d="m34.46875 94.375c-1.640002 6.12057 1.043697 12.58176 6.53125 15.75l0.5-0.875c-3.880367-2.24914-6.5-6.44216-6.5-11.25 0-1.164981 0.150079-2.300658 0.4375-3.375l-0.96875-0.25z" style="fill:#ff0000;opacity:.9;stroke:#ff0000"/>
   <path id="path3734" d="m41 85.875c-5.487553 3.16824-8.171252 9.629431-6.53125 15.75l0.96875-0.25c-0.287421-1.07434-0.4375-2.210019-0.4375-3.375 0-4.807836 2.619633-9.000863 6.5-11.25l-0.5-0.875z" style="fill:#ff0000;stroke:#ff0000"/>
   <path id="path3736" d="m48.15625 84c-4.972416-0.06059-9.707055 2.541364-12.28125 7l0.875 0.5c2.249137-3.880367 6.442164-6.5 11.25-6.5 1.164981 0 2.300658 0.150079 3.375 0.4375l0.25-0.96875c-1.147607-0.3075-2.321269-0.454768-3.46875-0.46875z" style="fill:#ff0000;stroke:#ff0000"/>
   <path id="path3738" d="m47.84375 84c-1.147481 0.01398-2.321143 0.16125-3.46875 0.46875l0.25 0.96875c1.074342-0.287421 2.210019-0.4375 3.375-0.4375 4.807836 0 9.000863 2.619633 11.25 6.5l0.875-0.5c-2.574195-4.458637-7.308834-7.060589-12.28125-7z" style="fill:#ff0000;stroke:#ff0000"/>
   <path id="path3740" d="m55 85.875-0.5 0.875c3.880367 2.249137 6.5 6.442164 6.5 11.25 0 1.164981-0.150079 2.30066-0.4375 3.375l0.96875 0.25c1.640002-6.120569-1.043697-12.58176-6.53125-15.75z" style="fill:#ff0000;opacity:.9;stroke:#ff0000"/>
  </g>
  <path id="path3793" transform="matrix(.23287504 -.23287504 .23287504 .23287504 33.266783 52.13527)" d="m50.708204 52a9.7082043 6 0 1 1-19.416408 0 9.7082043 6 0 1 1 19.416408 0z" style="fill:#ff0000;stroke:#ff0000"/>
 </g>
</svg>
