<svg id="svg2" width="16" height="16" version="1.0" xmlns="http://www.w3.org/2000/svg" xmlns:xlink="http://www.w3.org/1999/xlink">
 <path id="path3020" d="m8 1c-3.8639998 0-7 3.1360001-7 7 0 3.864 3.1360002 7 7 7 3.864 0 7-3.136 7-7 0-3.8639999-3.136-7-7-7zm0 1c3.312 0 6 2.6880001 6 6 0 3.312-2.688 6-6 6-3.3119998 0-6-2.688-6-6 0-3.3119999 2.6880002-6 6-6z" style="fill:#ffffff;opacity:.15"/>
 <path id="Symbol" class="error" d="m8 2c-3.3119998 0-6 2.6880001-6 6 0 3.312 2.6880002 6 6 6 3.312 0 6-2.688 6-6 0-3.3119999-2.688-6-6-6z" style="fill:#d40000"/>
</svg>
