<svg id="svg2408" width="96" height="96" version="1.0" xmlns="http://www.w3.org/2000/svg" xmlns:osb="http://www.openswatchbook.org/uri/2009/osb" xmlns:xlink="http://www.w3.org/1999/xlink">
 <path id="rect2957" d="m19.545746 0.54192874c-4.642507 0-8.399021 3.8104941-8.399021 8.5132931v28.053872h10.970149v-20.111941-1.828357c0-2.025822 1.630897-3.656717 3.656718-3.656717h1.828359 47.537315 1.828358c2.025822 0 3.656716 1.630895 3.656716 3.656717v1.828357 62.164183 1.828358c0 2.02582-1.630894 3.656717-3.656716 3.656717h-1.828358-47.537315-1.828359c-2.025821 0-3.656718-1.630897-3.656718-3.656717v-1.828358-18.283584h-10.970149v26.225515c0 4.702798 3.756514 8.513295 8.399021 8.513295h63.649724c4.642507 0 8.399021-3.810497 8.399021-8.513295v-78.048045c0-4.702799-3.756514-8.5132931-8.399021-8.5132931zm9.884563 25.597016v14.626867h-25.597018v16.455224h25.597018v14.626867l15.588754-16.887818 6.351545-6.880839z" style="color:#000000;fill:#000000"/>
</svg>
