<svg id="svg5238" width="16" height="16" version="1.1" xmlns="http://www.w3.org/2000/svg">
 <path id="rect20" d="m3.4375 0c-1.904375 0-3.4375 1.533125-3.4375 3.4375v9.125c0 1.904375 1.533125 3.4375 3.4375 3.4375h9.125c1.904375 0 3.4375-1.533125 3.4375-3.4375v-9.125c0-1.904375-1.533125-3.4375-3.4375-3.4375zm-0.59375 2.5a10.765199 10.713849 0 0 1 10.75 10.6875h-2.125a8.6121577 8.5710802 0 0 0-8.625-8.5625zm-0.03125 3.625a7.1219231 7.1359988 0 0 1 7.125 7.125h-2.09375a5.0344639 5.0444137 0 0 0-5.03125-5.03125zm1.40625 4.25c0.80669 0 1.46875 0.66044 1.46875 1.46875s-0.66206 1.46875-1.46875 1.46875-1.4375-0.66044-1.4375-1.46875 0.63081-1.46875 1.4375-1.46875z" style="fill:#bebebe"/>
</svg>
