<svg id="svg5238" width="16" height="16" version="1.1" xmlns="http://www.w3.org/2000/svg">
 <path id="path3960" d="M 3.4375,0 C 1.53312,0 0,1.53312 0,3.4375 v 9.125 C 0,14.46688 1.53312,16 3.4375,16 h 9.125 C 14.46688,16 16,14.46688 16,12.5625 V 3.4375 C 16,1.53312 14.46688,0 12.5625,0 Z" style="fill:#bebebe"/>
 <path id="path3958" class="warning" d="m2.84375 2.5a10.765199 10.713849 0 0 1 10.75 10.6875h-2.125a8.6121577 8.5710802 0 0 0-8.625-8.5625z" style="fill:#ff9000"/>
 <path id="path3956" class="warning" d="m2.8125 6.125a7.1219231 7.1359988 0 0 1 7.125 7.125h-2.09375a5.0344639 5.0444137 0 0 0-5.03125-5.03125z" style="fill:#ff9000"/>
 <path id="rect20" class="warning" d="m4.21875 10.375c0.80669 0 1.46875 0.66044 1.46875 1.46875s-0.66206 1.46875-1.46875 1.46875-1.4375-0.66044-1.4375-1.46875 0.63081-1.46875 1.4375-1.46875z" style="fill:#ff9000"/>
</svg>
