<svg xmlns="http://www.w3.org/2000/svg" xmlns:xlink="http://www.w3.org/1999/xlink" height="96" width="96" version="1.0"><defs><linearGradient id="i"><stop offset="0" stop-color="#e8e8e8"/><stop offset="1" stop-color="#828282"/></linearGradient><linearGradient gradientTransform="scale(1.00587 .99417)" gradientUnits="userSpaceOnUse" id="l" y2="7.017" x2="45.448" y1="92.54" x1="45.448"><stop offset="0"/><stop offset="1" stop-opacity=".588"/></linearGradient><linearGradient id="a"><stop offset="0" stop-color="#fff"/><stop offset="1" stop-color="#fff" stop-opacity="0"/></linearGradient><filter id="m" color-interpolation-filters="sRGB"><feGaussianBlur stdDeviation="1.71"/></filter><filter id="U" color-interpolation-filters="sRGB" height="1.384" width="1.384" y="-.192" x="-.192"><feGaussianBlur stdDeviation="5.28"/></filter><linearGradient gradientUnits="userSpaceOnUse" xlink:href="#a" id="T" y2="138.661" x2="48" y1="20.221" x1="48"/><clipPath id="S"><rect y="6" x="6" ry="6" rx="6" height="84" width="84" fill="#fff"/></clipPath><radialGradient gradientTransform="matrix(1.15731 0 0 .9959 -7.551 .197)" gradientUnits="userSpaceOnUse" xlink:href="#b" id="R" fy="90.172" fx="48" r="42" cy="90.172" cx="48"/><linearGradient id="b"><stop offset="0" stop-color="#fff"/><stop offset="1" stop-color="#fff" stop-opacity="0"/></linearGradient><linearGradient gradientTransform="matrix(1.02941 0 0 -1.02941 -1.412 97.412)" gradientUnits="userSpaceOnUse" xlink:href="#c" id="Q" y2="83.295" x2="43.179" y1="13" x1="43.179"/><linearGradient gradientUnits="userSpaceOnUse" xlink:href="#d" id="P" y2="63.893" x2="36.357" y1="6" x1="36.357"/><linearGradient id="d"><stop offset="0" stop-color="#fff"/><stop offset="1" stop-color="#fff" stop-opacity="0"/></linearGradient><linearGradient gradientUnits="userSpaceOnUse" xlink:href="#e" id="O" y2="5.988" x2="48" y1="90" x1="48"/><linearGradient id="c"><stop offset="0" stop-color="#b2b2b2"/><stop offset="1" stop-color="#898989"/></linearGradient><linearGradient id="e"><stop offset="0" stop-color="#656565"/><stop offset="1" stop-color="#dcdcdc"/></linearGradient><linearGradient id="f"><stop offset="0" stop-color="#232323"/><stop offset="1" stop-color="#4b4b4b"/></linearGradient><linearGradient gradientTransform="matrix(.68606 0 0 .68376 4.242 5.727)" gradientUnits="userSpaceOnUse" xlink:href="#f" id="s" y2="8.551" x2="60.777" y1="115.279" x1="60.777"/><clipPath id="M"><rect y="14" x="14" ry="3" rx="3" height="68" width="68" fill="#fff"/></clipPath><linearGradient id="g"><stop offset="0" stop-color="#e3e3e3"/><stop offset="1" stop-color="#939393"/></linearGradient><linearGradient id="h"><stop offset="0" stop-color="#656565"/><stop offset="1" stop-color="#dcdcdc"/></linearGradient><filter id="K" color-interpolation-filters="sRGB"><feGaussianBlur stdDeviation="1.86"/></filter><filter id="L" color-interpolation-filters="sRGB"><feGaussianBlur stdDeviation="1.452"/></filter><linearGradient id="j"><stop offset="0" stop-color="#f9f9f9"/><stop offset="1" stop-color="#3c3c3c"/></linearGradient><filter id="y" color-interpolation-filters="sRGB"><feGaussianBlur stdDeviation=".063"/></filter><filter id="F" color-interpolation-filters="sRGB"><feGaussianBlur stdDeviation="1.568"/></filter><radialGradient gradientTransform="matrix(1 .00369 -.0021 .56946 .003 .453)" gradientUnits="userSpaceOnUse" xlink:href="#g" id="I" fy="1.473" fx="48.969" r="83.476" cy="1.473" cx="48.969"/><linearGradient gradientUnits="userSpaceOnUse" xlink:href="#h" id="J" y2="19.184" x2="49.625" y1="34.162" x1="73.195"/><radialGradient gradientTransform="matrix(1 .00369 -.0021 .56946 .003 .453)" gradientUnits="userSpaceOnUse" xlink:href="#g" id="G" fy="1.473" fx="48.969" r="83.476" cy="1.473" cx="48.969"/><linearGradient gradientUnits="userSpaceOnUse" xlink:href="#g" id="H" y2="37.811" x2="77.52" y1="18.785" x1="39.292"/><filter id="B" color-interpolation-filters="sRGB"><feGaussianBlur stdDeviation="1.891"/></filter><clipPath id="A"><path d="M81.776 33.017l-1.699 4.06-.488 2.91.098 1.113-4.393.566-.195-1.074-1.21-2.694-2.695-3.495-2.753.742-.586 4.354.293 2.948.371 1.035-4.08 1.698-.469-.996-1.874-2.284-3.514-2.675-2.46 1.426.566 4.373 1.035 2.753.624.917-3.494 2.695-.723-.84-2.401-1.737-4.08-1.66-2.012 2.011 1.68 4.06 1.717 2.402.84.723-2.694 3.514-.898-.625-2.773-1.054-4.354-.566-1.425 2.48 2.655 3.494 2.304 1.874.976.469-1.679 4.08-1.034-.37-2.948-.293-4.354.605-.742 2.733 3.475 2.694 2.694 1.23 1.094.196-.586 4.373-1.093-.078-2.929.468-4.06 1.699v2.85l4.06 1.699 2.929.488 1.093-.098.586 4.393-1.094.196-2.694 1.21-3.475 2.694.742 2.753 4.354.586 2.948-.293 1.034-.371 1.68 4.08-.977.469-2.304 1.874-2.655 3.515 1.425 2.46 4.354-.567 2.773-1.034.898-.625 2.694 3.495-.84.722-1.718 2.401-1.679 4.08 2.011 2.012 4.08-1.68 2.402-1.717.723-.84 3.494 2.694-.624.899-1.035 2.772-.566 4.354 2.46 1.425 3.514-2.655 1.874-2.304.469-.976 4.08 1.679-.37 1.035-.294 2.948.586 4.353 2.753.742 2.694-3.475 1.21-2.694.196-1.094 4.393.586-.098 1.094.488 2.928 1.699 4.061h2.85l1.699-4.06.468-2.93-.078-1.093 4.374-.586.195 1.094 1.23 2.694 2.694 3.475 2.734-.742.605-4.353-.293-2.948-.371-1.035 4.08-1.68.469.977 1.874 2.304 3.495 2.655 2.48-1.425-.567-4.354-1.054-2.772-.625-.899 3.515-2.694.722.84 2.401 1.718 4.061 1.679 2.011-2.011-1.66-4.08-1.737-2.402-.84-.722 2.695-3.495.918.625 2.752 1.034 4.374.567 1.425-2.46-2.675-3.515-2.284-1.874-.996-.469 1.699-4.08 1.035.371 2.948.293 4.353-.586.742-2.753L130 94.01l-2.695-1.21-1.074-.196.567-4.393 1.113.098 2.909-.488 4.06-1.699v-2.85l-4.06-1.699-2.91-.468-1.112.078-.567-4.373 1.074-.196 2.695-1.23 3.494-2.694-.742-2.733-4.353-.605-2.948.292-1.035.371-1.699-4.08.996-.469 2.284-1.874 2.675-3.495-1.425-2.48-4.374.567-2.752 1.054-.918.625-2.694-3.514.84-.723 1.737-2.401 1.66-4.061-2.012-2.011-4.06 1.66-2.402 1.737-.722.84-3.515-2.695.625-.917 1.054-2.753.567-4.373-2.48-1.426-3.495 2.675-1.874 2.284-.469.996-4.08-1.698.371-1.035.293-2.948-.605-4.354-2.734-.742-2.694 3.495-1.23 2.694-.195 1.074-4.374-.566.078-1.113-.468-2.91-1.699-4.06h-2.85zM83.2 47.933c4.751 0 9.283.915 13.452 2.558l-7.946 15.404c-1.75-.513-3.592-.8-5.506-.8a19.527 19.527 0 0 0-10.347 2.967L61.06 55.352a36.617 36.617 0 0 1 22.14-7.419zm20.11 6.013c10.023 6.568 16.653 17.877 16.653 30.75 0 .962-.044 1.908-.117 2.85l-17.044-3.084c-.073-6.124-2.973-11.566-7.439-15.111l7.947-15.405zm-47.756 6.502l11.793 12.71a19.476 19.476 0 0 0-3.749 11.538c0 1.593.188 3.144.547 4.627L48.39 96.547a36.626 36.626 0 0 1-1.972-11.85c0-9.288 3.45-17.777 9.137-24.25zm45.9 31.374l17.065 3.105c-3.647 12.612-13.873 22.447-26.709 25.537l-2.323-17.2a19.671 19.671 0 0 0 11.968-11.442zM67.27 96.137a19.59 19.59 0 0 0 14.78 8.122l2.323 17.2c-.39.013-.78.02-1.172.02-13.49 0-25.285-7.276-31.687-18.118l15.756-7.224z" fill="#fff"/></clipPath><clipPath id="C"><path d="M81.882 32.767l-1.713 4.097-.492 2.934.098 1.123-4.431.57-.197-1.083-1.221-2.717-2.718-3.526-2.777.749-.59 4.392.295 2.973.374 1.044-4.116 1.714-.473-1.005-1.89-2.304-3.546-2.698-2.481 1.438.571 4.411 1.044 2.777.63.926-3.525 2.717-.729-.846-2.422-1.753-4.116-1.674-2.029 2.028 1.694 4.097 1.733 2.422.847.729-2.718 3.545-.906-.63-2.797-1.064-4.392-.571-1.437 2.501 2.678 3.525 2.324 1.891.985.473-1.694 4.116-1.044-.374-2.974-.296-4.391.61-.749 2.758 3.506 2.718 2.718 1.24 1.103.198-.591 4.411-1.103-.079-2.954.473-4.097 1.713v2.876l4.097 1.713 2.954.493 1.103-.099.59 4.431-1.102.197-2.718 1.221-3.506 2.718.749 2.777 4.391.59 2.974-.295 1.044-.374 1.694 4.116-.985.473-2.324 1.89-2.678 3.546 1.437 2.481 4.392-.571 2.797-1.044.906-.63 2.718 3.525-.847.729-1.733 2.422-1.694 4.117 2.029 2.028 4.116-1.694 2.422-1.733.729-.847 3.525 2.718-.63.906-1.044 2.797-.571 4.392 2.481 1.437 3.545-2.678 1.891-2.324.473-.985 4.116 1.694-.374 1.044-.296 2.974.591 4.391 2.777.749 2.718-3.506 1.22-2.718.198-1.103 4.431.591-.098 1.103.492 2.954 1.713 4.097h2.876l1.713-4.097.473-2.954-.079-1.103 4.412-.59.197 1.102 1.24 2.718 2.718 3.506 2.757-.749.61-4.391-.295-2.974-.374-1.044 4.116-1.694.473.985 1.89 2.324 3.526 2.678 2.501-1.437-.571-4.392-1.063-2.797-.63-.906 3.544-2.718.729.847 2.422 1.733 4.097 1.694 2.028-2.028-1.674-4.117-1.752-2.422-.847-.729 2.718-3.525.925.63 2.777 1.044 4.412.571 1.437-2.481-2.698-3.545-2.304-1.891-1.005-.473 1.714-4.116 1.044.374 2.974.296 4.391-.591.749-2.777-3.526-2.718-2.717-1.22-1.084-.198.572-4.43 1.122.098 2.935-.493 4.096-1.713V83.46l-4.096-1.713-2.935-.473-1.122.08-.572-4.412 1.084-.197 2.717-1.241 3.526-2.718-.749-2.757-4.391-.61-2.974.295-1.044.374-1.714-4.116 1.005-.473 2.304-1.89 2.698-3.526-1.437-2.501-4.412.571-2.777 1.064-.926.63-2.717-3.545.847-.729 1.752-2.422 1.674-4.097-2.028-2.028-4.097 1.674-2.422 1.753-.729.846-3.545-2.717.63-.926 1.064-2.777.571-4.411-2.501-1.438-3.525 2.698-1.891 2.304-.473 1.005-4.116-1.714.374-1.044.296-2.973-.61-4.392-2.758-.749-2.718 3.526-1.24 2.717-.197 1.084-4.412-.571.079-1.123-.473-2.934-1.713-4.097h-2.876zm1.438 15.047c4.793 0 9.364.923 13.57 2.58l-8.016 15.538a19.704 19.704 0 0 0-5.554-.807 19.698 19.698 0 0 0-10.438 2.993l-11.895-12.82a36.937 36.937 0 0 1 22.333-7.484zm20.285 6.065c10.11 6.625 16.8 18.033 16.8 31.02 0 .969-.046 1.923-.119 2.874l-17.193-3.111c-.074-6.177-2.999-11.667-7.503-15.244l8.015-15.539zm-48.172 6.559l11.895 12.82a19.646 19.646 0 0 0-3.781 11.64c0 1.607.189 3.172.551 4.668l-15.893 7.287a36.946 36.946 0 0 1-1.99-11.955c0-9.368 3.48-17.931 9.218-24.46zm46.301 31.649l17.213 3.13c-3.678 12.724-13.994 22.644-26.942 25.761l-2.343-17.35a19.843 19.843 0 0 0 12.072-11.541zM67.25 96.439a19.762 19.762 0 0 0 14.91 8.193l2.343 17.35c-.393.013-.786.02-1.182.02-13.607 0-25.506-7.34-31.964-18.276l15.893-7.287z" fill="#fff"/></clipPath><filter id="D" color-interpolation-filters="sRGB"><feGaussianBlur stdDeviation="1.897"/></filter><filter id="u" color-interpolation-filters="sRGB"><feGaussianBlur stdDeviation="1.44"/></filter><radialGradient gradientTransform="matrix(.6243 -.6243 .3974 .3974 57.19 56.707)" gradientUnits="userSpaceOnUse" xlink:href="#g" id="v" fy="55.979" fx="56.055" r="52.252" cy="55.979" cx="56.055"/><linearGradient gradientTransform="translate(75.974 5.553) scale(.68606)" gradientUnits="userSpaceOnUse" xlink:href="#i" id="w" y2="130.512" x2="113.84" y1="42.24" x1="50.76"/><linearGradient gradientUnits="userSpaceOnUse" xlink:href="#j" id="x" y2="84.938" x2="82.574" y1="82.615" x1="80.875"/><linearGradient gradientUnits="userSpaceOnUse" xlink:href="#j" id="z" y2="82.652" x2="81.313" y1="85.362" x1="82.312"/><clipPath id="t"><rect y="14" x="84" ry="3" rx="3" height="68" width="68" fill="#fff"/></clipPath><clipPath id="E"><rect y="14" x="-36" ry="3" rx="3" height="68" width="68" fill="#fff"/></clipPath><filter id="N" color-interpolation-filters="sRGB" height="1.336" width="1.336" y="-.168" x="-.168"><feGaussianBlur stdDeviation="5.04"/></filter><linearGradient gradientTransform="matrix(1.00587 0 0 .99417 100 0)" gradientUnits="userSpaceOnUse" id="k" y2="7.017" x2="45.448" y1="92.54" x1="45.448"><stop offset="0"/><stop offset="1" stop-opacity=".588"/></linearGradient><linearGradient gradientTransform="matrix(1.0238 0 0 1.0119 -1.143 -98.071)" gradientUnits="userSpaceOnUse" xlink:href="#k" id="o" y2="90.239" x2="32.251" y1="6.132" x1="32.251"/><linearGradient gradientTransform="matrix(1.0238 0 0 1.0119 -1.143 -98.071)" gradientUnits="userSpaceOnUse" xlink:href="#k" id="p" y2="90.239" x2="32.251" y1="6.132" x1="32.251"/><linearGradient gradientTransform="matrix(1.0238 0 0 1.0119 -1.143 -98.071)" gradientUnits="userSpaceOnUse" xlink:href="#k" id="q" y2="90.239" x2="32.251" y1="6.132" x1="32.251"/><linearGradient gradientTransform="translate(0 -97)" gradientUnits="userSpaceOnUse" xlink:href="#k" id="r" y2="90.239" x2="32.251" y1="6.132" x1="32.251"/><linearGradient gradientTransform="matrix(1.0238 0 0 1.0119 -1.143 -98.071)" gradientUnits="userSpaceOnUse" xlink:href="#k" id="n" y2="90.239" x2="32.251" y1="6.132" x1="32.251"/></defs><g transform="scale(1 -1)"><path d="M12-95.031c-5.511 0-10.031 4.52-10.031 10.031v71C1.969-8.489 6.489-3.969 12-3.969h72c5.511 0 10.031-4.52 10.031-10.031v-71c0-5.511-4.52-10.031-10.031-10.031H12z" opacity=".08" fill="url(#n)"/><path d="M12-94.031c-4.972 0-9.031 4.06-9.031 9.031v71c0 4.972 4.06 9.031 9.031 9.031h72c4.972 0 9.031-4.06 9.031-9.031v-71c0-4.972-4.06-9.031-9.031-9.031H12z" opacity=".1" fill="url(#o)"/><path d="M12-93c-4.41 0-8 3.59-8 8v71c0 4.41 3.59 8 8 8h72c4.41 0 8-3.59 8-8v-71c0-4.41-3.59-8-8-8H12z" opacity=".2" fill="url(#p)"/><rect y="-92" x="5" ry="7" rx="7" height="85" width="86" opacity=".3" fill="url(#q)"/><rect y="-91" x="6" ry="6" rx="6" height="84" width="84" opacity=".45" fill="url(#r)"/></g><rect width="72" height="72" rx="7.547" ry="7.521" x="12" y="14" fill="url(#s)" fill-rule="evenodd"/><g transform="translate(-69 1)" clip-path="url(#t)"><path d="M131.781 29.594l-.125.312-1.156 2.782-.031.062v.031l-.344 2v.125l.031.313-2.094.25-.03-.25v-.063l-.032-.062-.844-1.844-.031-.063-.031-.062-1.844-2.375-.188-.281-.343.093-1.875.5-.344.094-.031.344-.406 2.969v.125l.218 2.031v.125l.094.25-1.906.781-.125-.218-.031-.063-.032-.063L119 35.876l-.031-.031-.063-.063-2.406-1.812-.281-.219-.281.156-1.688 1-.281.157.031.343.406 3v.063l.031.031.688 1.906.031.063.031.031.157.25-1.657 1.281-.187-.218-.031-.063-.032-.031-1.656-1.188-.062-.031-.031-.031-2.813-1.125-.313-.125-.218.218-1.406 1.376-.22.25.126.312L108 44.156l.031.063.031.031 1.157 1.656.03.063.063.031.22.188-1.282 1.656-.219-.157-.062-.03-.032-.032-1.906-.719-.062-.031h-.063l-3-.375-.312-.063-.188.313-.969 1.688-.156.28.188.282 1.812 2.406.063.032.03.03 1.595 1.313.03.032.063.03.25.126-.781 1.906-.281-.094-.063-.031h-.062l-2.031-.188-.032-.03-.062.03-3 .407-.313.031-.093.344-.531 1.875-.063.312.25.219 2.375 1.844.063.031.062.031 1.844.844.062.031h.063l.281.032-.281 2.093-.281-.031h-.125l-2 .313-.063.03h-.062l-2.782 1.188-.312.125v2.625l.312.125 2.782 1.156.062.032h.063l2 .344h.125l.28-.032.282 2.094-.281.031h-.063l-.062.031-1.844.844-.063.031-.062.032-2.375 1.844-.25.218.063.313.53 1.875.094.344.313.03 3 .407h.094l2.03-.188.063-.03h.063l.281-.094.781 1.906-.25.125-.062.031-.031.031-1.594 1.281-.031.063-.063.031-1.812 2.406-.188.282.157.281.968 1.688.188.28.312-.03 3-.407H106l1.906-.719.063-.03.062-.032.219-.156L109.531 85l-.219.188-.062.03-.031.032-1.156 1.656-.063.063V87l-1.156 2.813-.125.312.219.25 1.406 1.375.219.219.312-.125 2.813-1.156h.03l.063-.032 1.656-1.187.032-.031.03-.063.188-.219 1.657 1.281-.157.22-.03.062-.032.062-.688 1.906-.03.032v.062l-.407 3-.031.313.281.187 1.688.969.28.156.282-.187 2.406-1.813.063-.031.031-.063 1.281-1.593.031-.031.032-.063.125-.219 1.906.781-.094.25v.126l-.219 2.03v.094l.407 3 .03.344.345.063 1.875.531.343.063.188-.25 1.844-2.376.031-.062.031-.063.844-1.843.031-.063v-.062l.031-.281 2.094.28-.031.282v.125l.344 2.031v.031l.03.063 1.157 2.781.125.313h2.625l.125-.313 1.188-2.781.03-.063v-.062l.313-2v-.406l2.063-.281.031.28.031.063v.063l.844 1.875.031.031.031.063 1.875 2.374.188.282.312-.094 1.907-.531.312-.063.031-.343.438-3v-.094l-.219-2.031V94.5l-.031-.062-.094-.25 1.938-.782.125.219v.063l.062.03 1.281 1.595.032.03.062.063 2.375 1.813.281.187.282-.156 1.718-.969.282-.187-.063-.313-.375-3v-.062l-.031-.031-.719-1.907-.031-.062-.031-.063-.156-.218 1.656-1.282.188.219.03.063.063.03 1.656 1.188.032.032h.062l2.781 1.156.313.125.25-.219 1.375-1.375.219-.25-.125-.312-1.125-2.782-.032-.062-.03-.063-1.188-1.656-.031-.031-.063-.031-.219-.188 1.281-1.656.25.156.032.031.062.031 1.906.72h.094l3 .406.344.03.156-.28 1-1.688.156-.281-.187-.281-1.844-2.407-.031-.031-.063-.063-1.562-1.28-.063-.032-.03-.031-.25-.125.78-1.906.282.093H162l.063.031 2.03.188h.126l3-.406.312-.031.094-.344.5-1.875.094-.313-.25-.219-2.407-1.843-.062-.031-.031-.032-1.875-.844h-.031l-.063-.03-.281-.063.25-2.063.312.031h.125l2-.343h.031l.063-.031 2.781-1.157.313-.125v-2.625l-.313-.125L166 62.97h-.063l-.03-.032-2-.312h-.126l-.312.031-.25-2.062.281-.063h.063l.03-.031 1.876-.844.03-.031.063-.031 2.407-1.844.25-.219-.094-.312-.5-1.875-.094-.344-.312-.031-3-.407-.063-.03-.062.03-2.031.188H162l-.031.031-.281.094-.782-1.906.25-.125.031-.032.063-.062 1.563-1.281.062-.032.031-.03L164.75 49l.188-.281-.157-.282-1-1.687-.156-.313-.344.063-3 .375h-.062l-.031.031-1.907.719-.062.031-.031.032-.25.156-1.282-1.657.219-.187.063-.031.03-.063 1.188-1.656.031-.031.032-.063 1.125-2.781.125-.313-.22-.25-1.374-1.374-.25-.22-.313.126-2.78 1.125-.063.031-.032.031-1.656 1.188-.062.031-.032.063-.187.218-1.656-1.281.156-.25.031-.031.031-.063.72-1.875.03-.062v-.063l.375-3 .063-.343-.281-.157-1.72-1-.28-.156-.282.219-2.375 1.812-.062.063-.031.031-1.282 1.563-.062.062v.063l-.125.218-1.938-.781.094-.25.031-.063v-.062l.22-2.031v-.125l-.438-3-.032-.313-.312-.093-1.906-.5-.313-.094-.187.281-1.875 2.375-.031.063-.032.062-.843 1.844v.062l-.032.063-.03.25-2.063-.25V34.812l-.313-2v-.062l-.031-.063-1.188-2.78-.125-.313h-2.625zm1.313 11.25c3.005 0 5.867.58 8.531 1.562l-5.031 9.719c-1.12-.292-2.287-.5-3.5-.5-2.536 0-4.887.753-6.938 1.938l-7.5-8.032c4.07-2.933 9.04-4.687 14.438-4.687zm14 4.406c6.48 4.464 10.75 11.88 10.75 20.344 0 .465-.004.915-.031 1.375L147 65a13.838 13.838 0 0 0-4.938-10.063l5.032-9.687zm-32.938 4.469l7.469 8.031c-1.537 2.244-2.5 4.923-2.5 7.844 0 .992.146 1.939.344 2.875l-9.938 4.562c-.747-2.357-1.187-4.834-1.187-7.437 0-6.048 2.207-11.576 5.812-15.875zm31.75 21.312l10.75 1.938c-2.53 8.063-9.036 14.329-17.25 16.5l-1.437-10.813c3.59-1.338 6.44-4.114 7.937-7.625zm-23.875 3.031a13.915 13.915 0 0 0 9.844 5.407l1.469 10.875h-.25c-8.877 0-16.596-4.697-20.969-11.719l9.906-4.563z" style="line-height:normal;-inkscape-font-specification:'Abandoned Bitplane';text-indent:0;text-align:start;text-decoration-line:none;text-transform:none;block-progression:tb;marker:none" color="#000" font-weight="400" font-family="Abandoned Bitplane" overflow="visible" filter="url(#u)" enable-background="accumulate"/><path d="M132.126 28.09l-1.167 2.79-.335 1.997.067.765-3.018.389-.134-.738-.831-1.85-1.851-2.401-1.89.51-.403 2.99.2 2.025.256.71-2.803 1.168-.322-.684-1.287-1.57-2.414-1.837-1.69.98.389 3.003.71 1.891.43.63-2.4 1.851-.497-.576-1.65-1.194-2.802-1.14-1.382 1.381 1.154 2.79 1.18 1.65.577.495-1.851 2.414-.617-.429-1.904-.724-2.99-.389-.98 1.703 1.824 2.4 1.582 1.288.671.322-1.153 2.803-.711-.255-2.025-.201-2.99.416-.51 1.877 2.387 1.85 1.85.846.751.134-.402 3.004-.75-.054-2.012.322-2.79 1.167v1.958l2.79 1.166 2.011.336.751-.067.402 3.017-.75.134-1.851.832-2.387 1.85.51 1.891 2.99.403 2.025-.202.71-.254 1.154 2.802-.67.322-1.583 1.288-1.824 2.414.98 1.69 2.99-.39 1.904-.71.617-.43 1.85 2.401-.576.496-1.18 1.65-1.154 2.803 1.382 1.38 2.803-1.152 1.65-1.18.495-.577 2.4 1.85-.428.617-.711 1.905-.389 2.99 1.69.98 2.414-1.825 1.287-1.582.322-.67 2.803 1.153-.255.71-.201 2.025.402 2.991 1.891.51 1.85-2.387.832-1.851.134-.751 3.018.402-.067.751.335 2.012 1.167 2.79h1.958l1.166-2.79.322-2.012-.053-.75 3.004-.403.134.75.845 1.852 1.85 2.387 1.878-.51.415-2.99-.2-2.026-.256-.71 2.803-1.154.322.67 1.288 1.583 2.4 1.824 1.703-.979-.389-2.99-.724-1.905-.429-.617 2.414-1.85.496.576 1.65 1.18 2.789 1.154 1.381-1.381-1.14-2.803-1.193-1.65-.577-.496 1.85-2.4.631.429 1.891.71 3.004.39.98-1.69-1.838-2.414-1.57-1.288-.683-.322 1.167-2.802.71.254 2.025.202 2.99-.403.51-1.89-2.4-1.851-1.85-.832-.738-.134.389-3.017.764.067 1.998-.336 2.79-1.166v-1.958l-2.79-1.167-1.998-.322-.764.054-.39-3.004.738-.134 1.851-.845 2.4-1.85-.51-1.878-2.99-.416-2.025.201-.71.255-1.167-2.803.684-.322 1.569-1.287 1.837-2.4-.979-1.704-3.004.39-1.89.723-.631.43-1.85-2.415.576-.496 1.193-1.65 1.14-2.789-1.381-1.38-2.79 1.139-1.649 1.194-.496.576-2.414-1.85.43-.63.723-1.892.39-3.004-1.704-.979-2.4 1.838-1.288 1.569-.322.684-2.803-1.167.255-.71.201-2.026-.415-2.99-1.878-.51-1.85 2.4-.845 1.851-.134.738-3.004-.39.053-.764-.322-1.998-1.166-2.79h-1.958zm.979 10.245c3.263 0 6.376.63 9.24 1.757l-5.459 10.581a13.417 13.417 0 0 0-3.781-.55c-2.608 0-5.045.754-7.108 2.039l-8.1-8.73a25.152 25.152 0 0 1 15.208-5.097zm13.813 4.131c6.884 4.511 11.439 12.28 11.439 21.122 0 .66-.03 1.31-.08 1.958l-11.708-2.12c-.05-4.205-2.042-7.944-5.11-10.379l5.459-10.581zm-32.803 4.466l8.1 8.73a13.378 13.378 0 0 0-2.575 7.926c0 1.094.13 2.16.376 3.178l-10.823 4.962a25.158 25.158 0 0 1-1.354-8.14c0-6.38 2.369-12.21 6.276-16.656zm31.529 21.55l11.72 2.133c-2.504 8.663-9.528 15.419-18.345 17.541l-1.596-11.815a13.512 13.512 0 0 0 8.22-7.858zm-23.482 2.964a13.457 13.457 0 0 0 10.151 5.58l1.596 11.814a25.6 25.6 0 0 1-.804.014c-9.266 0-17.368-4.999-21.766-12.446l10.823-4.962z" fill="url(#v)" stroke="url(#w)"/><path d="M83.039 84.007a1.237 1.237 0 1 1-2.474 0 1.237 1.237 0 1 1 2.474 0z" transform="matrix(2.21072 0 0 2.21072 -47.743 -122.121)" fill="#b8b8b8" stroke="url(#x)" stroke-width=".452" stroke-linejoin="round"/><path d="M83.039 84.007a1.237 1.237 0 1 1-2.474 0 1.237 1.237 0 1 1 2.474 0z" transform="matrix(22.24796 0 0 22.24796 -1686.833 -1805.392)" fill="none" stroke="#fff" stroke-width=".09" stroke-linejoin="round" filter="url(#y)"/><path d="M83.039 84.007a1.237 1.237 0 1 1-2.474 0 1.237 1.237 0 1 1 2.474 0z" transform="translate(-339.924 -422.177) scale(5.78251)" fill="none" stroke="url(#z)" stroke-width=".346" stroke-linejoin="round"/><path d="M108 40.531l-2.625 2-.031.063-1.031 1.25L85.03 83.812l44.563 11.22-.094-.063-2.312-1.031h-.063l-1.031-.22a1.235 1.235 0 0 1-.969-1.374l.594-4.375a1.235 1.235 0 0 1 1.312-1.063l.875.063 2.782-.469h.03l3.032-1.281v-1.25l-3.094-1.281-2.75-.47h-.062l-.844.063a1.235 1.235 0 0 1-1.281-1.062l-.594-4.375a1.235 1.235 0 0 1 1-1.375l.969-.156 2.406-1.094 2.719-2.125-.313-1.156-3.437-.47-2.594.25-.906.344a1.235 1.235 0 0 1-1.594-.687l-1.688-4.094a1.235 1.235 0 0 1 .626-1.594l.874-.406 2.094-1.75.063-.031 2-2.625-.625-1.094-3.375.438-2.5.968-.844.563a1.235 1.235 0 0 1-1.656-.281l-2.688-3.5a1.235 1.235 0 0 1 .156-1.688l.75-.656 1.47-2 .03-.063 1.344-3.28-.844-.813-3.218 1.312-.094.032-2 1.468-.656.782a1.235 1.235 0 0 1-1.688.156l-3.531-2.719a1.235 1.235 0 0 1-.281-1.656l.562-.813.969-2.5.438-3.375-1.063-.625zm-4.594 12.032a1.235 1.235 0 0 1 .688.218c10.37 6.795 17.25 18.499 17.25 31.813 0 1.007-.083 1.976-.156 2.937a1.235 1.235 0 0 1-1.438 1.125l-17.063-3.094a1.235 1.235 0 0 1-1.03-1.218c-.07-5.747-2.806-10.826-7-14.156a1.235 1.235 0 0 1-.313-1.532l7.969-15.406a1.235 1.235 0 0 1 1.093-.688zM36.937 74.156l.094.063 2.407 1.094.968.156a1.235 1.235 0 0 1 1 1.375l-.593 4.375a1.235 1.235 0 0 1-1.282 1.062l-.843-.062h-.063l-2.781.469-3.094 1.28v1.25l3.031 1.282h.032l2.812.469.875-.063a1.235 1.235 0 0 1 1.313 1.063l.593 4.375a1.235 1.235 0 0 1-.968 1.375l-1.032.219h-.062l-2.313 1.03-2.718 2.126.312 1.187 3.438.438 2.593-.25.907-.344a1.235 1.235 0 0 1 1.593.688l1.688 4.093a1.235 1.235 0 0 1-.625 1.594l-.813.406-2.093 1.656-2.063 2.782.594 1.031 3.343-.438L45.72 109l.812-.563a1.235 1.235 0 0 1 1.657.282l2.687 3.5a1.235 1.235 0 0 1-.156 1.687l-.75.656-1.469 2-.031.063-1.344 3.281.844.813 3.25-1.313.062-.031 2-1.469.657-.75a1.235 1.235 0 0 1 1.687-.156l3.5 2.688a1.235 1.235 0 0 1 .281 1.656l-.562.812-.938 2.531-.437 3.344 1.062.594 2.782-2.063.843-1.062 3.5-7.281c-6.271-3.296-11.558-8.22-15.156-14.313a1.235 1.235 0 0 1 .531-1.75l15.75-7.25a1.235 1.235 0 0 1 1.531.406c1.545 2.146 3.62 3.844 5.938 5.157l7.25-15.063-16.219-4.094c-.196 1.077-.375 2.142-.375 3.282 0 1.506.134 2.962.469 4.344a1.235 1.235 0 0 1-.688 1.406l-15.78 7.25a1.235 1.235 0 0 1-1.657-.719c-1.313-3.851-2.063-7.989-2.063-12.281 0-2.796.395-5.502.97-8.125l-9.22-2.313z" transform="translate(75.955 5.41) scale(.68689)" clip-path="url(#A)" opacity=".15" filter="url(#B)"/><path d="M82.563 33.938l-1.376 3.28-.437 2.5v.063l.094 1.063a1.093 1.093 0 0 1-.969 1.187l-4.406.563a1.093 1.093 0 0 1-1.188-.907l-.125-.812-.031-.063-1.125-2.5-2.188-2.812-1.312.344-.5 3.562.281 2.625.313.907A1.093 1.093 0 0 1 69 44.312l-4.063 1.72A1.093 1.093 0 0 1 63.5 45.5l-.438-.938-.03-.062-1.626-1.938-2.875-2.187-1.187.688.437 3.562.938 2.469.562.812a1.093 1.093 0 0 1-.25 1.5l-3.5 2.719a1.093 1.093 0 0 1-1.5-.156l-.687-.782-.032-.062-2.156-1.531-3.187-1.313-1.032 1 1.376 3.313 1.468 2.062.844.719a1.093 1.093 0 0 1 .156 1.5l-2.687 3.5a1.093 1.093 0 0 1-1.5.25l-.813-.563-2.5-.968-3.531-.438-.688 1.219 2.157 2.844 1.062.875.063.031 7.312 3.531c1.418-2.72 3.12-5.281 5.125-7.562a1.093 1.093 0 0 1 1.625-.032l11.813 12.72a1.093 1.093 0 0 1 .062 1.406c-.437.598-.762 1.254-1.125 1.906l15.406 7.437L86.72 66.5c-1.13-.223-2.252-.438-3.438-.438-3.59 0-6.973 1.044-9.812 2.813a1.093 1.093 0 0 1-1.375-.188L60.28 55.97a1.093 1.093 0 0 1 .157-1.625 37.822 37.822 0 0 1 22.843-7.657c2.82 0 5.548.38 8.188.97l2.5-9.907-.438.563-1.125 2.5-.031.062-.156.844a1.093 1.093 0 0 1-1.188.875l-4.375-.563a1.093 1.093 0 0 1-.969-1.187l.094-.938-.469-2.781v-.031l-1.343-3.157h-1.406zm1.406 52.25l-4.156 16.53c.79.161 1.57.33 2.374.376a1.093 1.093 0 0 1 1.032.937l2.312 17.219a1.093 1.093 0 0 1-1.062 1.25c-.435.014-.818 0-1.188 0-2.827 0-5.57-.38-8.219-.969l-2.5 9.938.438-.563 1.125-2.5.156-.906a1.093 1.093 0 0 1 1.188-.906l4.406.562a1.093 1.093 0 0 1 .969 1.188l-.094 1.031v.063l.438 2.53 1.374 3.282h1.407l1.344-3.156v-.031l.437-2.813-.063-.906a1.093 1.093 0 0 1 .97-1.188l4.374-.562a1.093 1.093 0 0 1 1.188.875l.156.875.031.062 1.125 2.5 2.156 2.782 1.344-.375.5-3.532-.281-2.625-.313-.937a1.093 1.093 0 0 1 .626-1.375l4.093-1.656a1.093 1.093 0 0 1 1.375.53l.344.75.063.063 1.718 2.125 2.844 2.157 1.188-.688-.438-3.531-.969-2.5-.562-.813a1.093 1.093 0 0 1 .25-1.5l3.531-2.687a1.093 1.093 0 0 1 1.5.156l.719.844 2.062 1.469 3.281 1.343 1.032-1-1.375-3.312-1.469-2.063-.844-.719a1.093 1.093 0 0 1-.156-1.5l2.688-3.5a1.093 1.093 0 0 1 1.468-.25l.719.5.063.032 2.468.937h.094l3.562.5.688-1.187-2.188-2.875-.968-.844-.063-.031-7.5-3.594c-4.996 9.6-13.851 16.875-24.625 19.469a1.093 1.093 0 0 1-1.344-.906l-2.343-17.22a1.093 1.093 0 0 1 .75-1.187c4.362-1.48 7.933-4.599 10.156-8.562l-15.406-7.406z" transform="matrix(.68094 0 0 .68094 76.369 5.777)" clip-path="url(#C)" opacity=".5" fill="#fff" filter="url(#D)"/></g><g transform="translate(50)" clip-path="url(#E)"><path d="M-35.406-27.281l-.313.031-.125.281-1.281 3.032v.062l-.031.063-.344 2.187v.125l.031.344-2.343.312-.063-.343v-.063l-.031-.063-.938-2v-.062l-.062-.031-2-2.594-.188-.281-.343.093-2.063.563-.312.094-.063.312-.406 3.282-.031.062.03.063.22 2.187v.063l.03.03.126.376-2.157.875-.156-.313-.03-.031-.063-.063-1.407-1.718-.03-.032-.063-.03-2.625-1.97-.25-.218-.282.187-1.843 1.063-.313.156.063.344.406 3.25.031.062v.063l.813 2.062.03.063.032.031.187.281-1.875 1.469-.218-.281-.032-.031-.062-.063-1.813-1.281-.03-.031h-.063l-3.063-1.25-.28-.125-.25.218-1.5 1.532-.25.25.124.28 1.281 3.063.032.031.03.063 1.282 1.813.031.03.063.032.25.219-1.438 1.906-.281-.188-.031-.062h-.063l-2.062-.813h-.063l-.062-.03-3.25-.376-.344-.062-.156.312-1.063 1.844-.156.281.187.282 2 2.593.032.063.062.031 1.719 1.406.031.032.063.03.312.157-.875 2.156-.344-.125h-.125L-68 .062l-.063-.03-.062.03-3.281.47-.344.03-.063.313-.53 2.094-.095.312.25.188 2.625 2 .032.031.062.031 2.031.907.063.03h.031l.375.063-.312 2.344-.344-.031h-.125l-2.188.375H-70l-.031.031-3.032 1.281-.312.125V13.47l.312.125 3.032 1.25.062.031h.063l2.187.344.063.031h.062l.344-.031.312 2.312-.312.063-.063.031-.062.031-2.031.907-.063.03-.062.032-2.594 2.031-.25.219.094.313.562 2.062.094.313.312.03 3.281.438h.094l2.219-.218h.062l.063-.032.312-.125.907 2.188-.313.156-.062.031-.032.032-1.718 1.406-.031.031-.032.063-2 2.625-.187.25.156.28 1.063 1.845.156.312.344-.063 3.28-.437h.063l.032-.031 2.093-.781h.063l.031-.063.281-.187 1.469 1.875-.281.218-.031.032-.032.062-1.312 1.781-.031.063-.032.03-1.218 3.095-.125.28.25.25 1.5 1.5.218.22.313-.125 3.062-1.282h.032l.062-.03 1.781-1.313.063-.031.031-.032.219-.28 1.875 1.437-.188.28-.03.063-.032.063-.75 2.062-.031.063v.062l-.407 3.282-.062.312.313.188 1.843 1.03.282.188.28-.218 2.594-2 .032-.032.03-.062 1.407-1.719.063-.031v-.063l.156-.312 2.187.875-.125.344v.062l-.03.063-.188 2.187v.125l.437 3.25.063.344.312.094 2.063.53.312.095.219-.25 2-2.625.031-.063.031-.031.907-2.031.03-.063v-.062l.063-.344 2.344.312-.031.344v.125l.375 2.188.031.062v.031l1.281 3.063.125.312.344-.03h2.469l.125-.313 1.25-3.032.031-.062v-.063l.344-2.187.03-.063-.03-.062-.031-.344 2.343-.312.063.343.031.063.031.062.906 2 .032.032.03.062 2.032 2.625.188.25.312-.094 2.063-.53.343-.095.032-.343.437-3.282v-.125l-.25-2.187v-.063l-.031-.062-.125-.344 2.187-.875.157.313.03.03.032.063 1.437 1.72.032.03.031.032 2.625 1.968.281.22.281-.157 1.844-1.094.281-.156-.03-.344-.438-3.25v-.062l-.032-.063-.78-2.062-.032-.063-.031-.031-.188-.313 1.875-1.406.219.25.031.063.063.03 1.781 1.282.062.031h.063l3.031 1.25.313.125.25-.218 1.5-1.532.25-.218-.157-.313-1.25-3.063-.03-.03-.032-.063-1.281-1.781-.063-.063-.031-.031-.281-.219 1.437-1.875.281.188.063.03h.062l2.063.782.031.031h.063l3.281.407.344.062.156-.312 1.062-1.844.157-.281-.188-.282-2-2.593-.03-.063-.063-.031-1.719-1.407-.031-.03-.063-.032-.312-.156.875-2.157.344.094.062.032h.031l2.22.218h.093l3.281-.437.344-.032.063-.343L4 20.906l.094-.343-.282-.188-2.624-2-.032-.063h-.062l-2-.906-.063-.031h-.062l-.344-.063.281-2.343.344.031h.125l2.188-.375h.062l.063-.031 3.03-1.281.313-.126v-2.812l-.312-.125L1.656 9l-.031-.031h-.063l-2.187-.344-.063-.031-.062.031-.344.031-.312-2.344.312-.062.063-.031.062-.032 2.031-.906.063-.031.031-.031L3.75 3.187 4 3l-.063-.313L3.375.626 3.281.281 2.937.25l-3.25-.438h-.125l-2.187.22h-.063l-.062.03-.344.126L-4-2l.344-.156.031-.031.063-.032 1.687-1.406.031-.031.063-.031 2-2.626.187-.28-.156-.282-1.094-1.844L-1-9l-.344.031-3.25.438h-.062l-.063.031-2.062.781-.063.032-.031.03-.281.188-1.469-1.875.25-.219.063-.03.03-.063L-7-11.437l.031-.063.032-.063 1.25-3.03.125-.313-.25-.25-1.5-1.5-.125-.094-.157-.031-.125-.032-.125.063-3.062 1.25-.063.031-.062.031-1.781 1.313-.032.031-.031.031-.219.282-1.875-1.438.188-.281.031-.063.031-.062.75-2.063.031-.062v-.063l.407-3.25.031-.343-.281-.157-1.844-1.062-.281-.188-.281.22-2.594 2.03-.063.032-.031.031-1.406 1.719-.031.031-.032.063-.156.312-2.187-.875.125-.313.03-.062v-.063l.22-2.218v-.125l-.47-3.25-.03-.344-.344-.094-2.063-.531-.312-.063-.188.25-2.03 2.594-.032.063v.031l-.906 2.063-.032.03-.03.063-.063.344-2.313-.313v-.343l.031-.063-.03-.062-.376-2.188v-.031l-.03-.063-1.25-3.03-.126-.313h-2.5zm1.125 14.968A24.153 24.153 0 0 1-17.125-5.28C-7.63 4.144-7.544 19.505-16.969 29c-9.425 9.495-24.786 9.52-34.281.094-9.495-9.426-9.55-24.755-.125-34.25a24.128 24.128 0 0 1 17.094-7.157z" filter="url(#F)"/><path d="M16.344-47.563l-1.875 4.438-.5 3.188.094 1.187-4.782.625-.219-1.188L7.72-42.25 4.78-46.031l-3 .781-.625 4.781.313 3.188.406 1.156-4.469 1.844-.5-1.094-2.062-2.5-3.813-2.906-2.687 1.562.594 4.75 1.156 3.032.687.968-3.844 2.938-.78-.907-2.626-1.875-4.437-1.843-2.188 2.218 1.813 4.438 1.875 2.625.937.781-2.937 3.813-1-.688-3.032-1.125-4.75-.625L-31.75-18l2.906 3.813 2.5 2.03 1.094.532-1.844 4.438-1.125-.407-3.218-.312-4.75.656-.813 3 3.781 2.938L-30.25 0l1.156.219L-29.719 5l-1.187-.094-3.188.532-4.437 1.843v3.125l4.437 1.844 3.188.531 1.187-.094.625 4.782-1.156.218L-33.219 19-37 21.938l.813 3 4.75.656 3.218-.313 1.125-.406 1.844 4.438-1.094.53-2.5 2.032-2.906 3.844 1.563 2.687 4.75-.625 3.03-1.125 1-.687 2.938 3.812-.937.782-1.875 2.624-1.813 4.438 2.188 2.219L-16.47 48l2.625-1.875.781-.906 3.844 2.937-.687.969-1.156 3.031-.594 4.782 2.687 1.53 3.813-2.906 2.062-2.5.5-1.093 4.469 1.875-.406 1.125-.313 3.218.625 4.75 3 .813 2.938-3.813L9.062 57l.22-1.188 4.78.626-.093 1.187.5 3.188 1.875 4.437h3.093l1.844-4.438.532-3.187-.094-1.188 4.781-.624.219 1.187 1.343 2.938L31 63.75l3-.813.625-4.75-.313-3.218-.406-1.125 4.469-1.875.5 1.093 2.063 2.5 3.812 2.907 2.688-1.532-.594-4.78-1.157-3.032-.687-.969 3.844-2.937.781.906L52.25 48l4.438 1.844 2.187-2.219-1.813-4.438-1.906-2.624-.906-.782 2.938-3.812 1 .687 3 1.125 4.78.625 1.563-2.687-2.937-3.844-2.5-2.031-1.063-.532 1.844-4.437 1.125.406 3.219.313 4.75-.657.812-3L68.97 19l-2.938-1.313-1.187-.218.656-4.782 1.188.094 3.187-.531 4.438-1.844V7.281l-4.438-1.843-3.188-.532L65.5 5 64.844.219 66.03 0l2.938-1.313L72.78-4.25l-.812-3-4.75-.656L64-7.594l-1.125.407-1.844-4.438 1.063-.531 2.5-2.031L67.53-18l-1.562-2.719-4.781.625-3 1.125-1 .688-2.938-3.813.906-.781 1.907-2.625 1.812-4.438-2.188-2.218-4.437 1.843-2.625 1.875-.781.907L45-30.47l.688-.968 1.156-3.032.593-4.75-2.687-1.562-3.813 2.906-2.062 2.5-.5 1.094-4.469-1.844.407-1.156.312-3.188L34-45.25l-3-.781-2.938 3.781-1.343 2.938-.219 1.187-4.781-.625.093-1.188-.53-3.187-1.845-4.438h-3.093zm1.531 20.376c19.895 0 36.063 16.135 36.063 36.03 0 19.896-16.168 36.032-36.063 36.032-19.895 0-36.031-16.136-36.031-36.031 0-19.896 16.136-36.032 36.031-36.032z" transform="rotate(44.789 -15.63 -48.368) scale(.68606)" fill="url(#I)" stroke="url(#J)" stroke-width="1.458"/><path d="M17.875-29.219c12.794 0 24.065 6.39 30.969 16.094l6.531-4.219-2.719-3.531a2.017 2.017 0 0 1 .282-2.75l.75-.625 1.593-2.219 1.219-3-.281-.281-2.938 1.219-2.343 1.656-.563.656a2.017 2.017 0 0 1-2.75.282l-3.844-2.938c-11.993-26.554-105.446 7.543-25.906-.344zm30.969 60.032c-6.904 9.703-18.175 16.093-30.969 16.093l19.719 3.219a2.017 2.017 0 0 1 2.625 1l.406.875 1.75 2.156 2.531 1.907.375-.22-.406-3.218-.969-2.5-.562-.813a2.017 2.017 0 0 1 .437-2.75l3.844-2.937a2.017 2.017 0 0 1 2.75.281l.563.657 2.343 1.656 2.938 1.218.281-.28-1.219-3-1.593-2.22-.75-.624a2.017 2.017 0 0 1-.282-2.75l2.719-3.532-6.531-4.218z" transform="rotate(44.789 -15.63 -48.368) scale(.68606)" opacity=".2" filter="url(#K)"/><path d="M59.5-9.563l-6.563 3.25c2.021 4.658 3.22 9.767 3.22 15.157 0 5.39-1.199 10.499-3.22 15.156l6.563 3.25 1.344-3.219a2.213 2.213 0 0 1 2.781-1.25l.969.344 2.531.25 3.094-.438.062-.156-2.406-1.812-2.5-1.157-.938-.156a2.213 2.213 0 0 1-1.78-2.5l.656-4.781a2.213 2.213 0 0 1 2.374-1.906l.938.062 2.719-.437 2.75-1.156V8.75l-2.75-1.156-2.719-.438-.938.063a2.213 2.213 0 0 1-2.374-1.907l-.657-4.78a2.213 2.213 0 0 1 1.782-2.5l.937-.157 2.5-1.156 2.406-1.813-.062-.156-3.094-.438-2.531.25-.969.344a2.213 2.213 0 0 1-2.781-1.25L59.5-9.562z" transform="rotate(44.789 -15.63 -48.368) scale(.68606)" opacity=".5" fill="#fff" filter="url(#L)"/></g><path d="M17 12c-2.735 0-5 2.265-5 5v62c0 2.735 2.265 5 5 5h62c2.735 0 5-2.265 5-5V17c0-2.735-2.265-5-5-5H17zm0 4h62c.589 0 1 .411 1 1v62c0 .589-.411 1-1 1H17c-.589 0-1-.411-1-1V17c0-.589.411-1 1-1z" clip-path="url(#M)" style="line-height:normal;-inkscape-font-specification:'Abandoned Bitplane';text-indent:0;text-align:start;text-decoration-line:none;text-transform:none;block-progression:tb;marker:none" color="#000" font-weight="400" font-family="Abandoned Bitplane" overflow="visible" filter="url(#N)" enable-background="accumulate"/><path d="M17 14c-1.662 0-3 1.338-3 3v62c0 1.662 1.338 3 3 3h62c1.662 0 3-1.338 3-3V17c0-1.662-1.338-3-3-3H17zm0 1.781h62c.704 0 1.219.515 1.219 1.219v62c0 .704-.515 1.219-1.219 1.219H17c-.704 0-1.219-.515-1.219-1.219V17c0-.704.515-1.219 1.219-1.219z" opacity=".15"/><path d="M17 14c-1.662 0-3 1.338-3 3v62c0 1.662 1.338 3 3 3h62c1.662 0 3-1.338 3-3V17c0-1.662-1.338-3-3-3H17zm0 1h62c1.12 0 2 .88 2 2v62c0 1.12-.88 2-2 2H17c-1.12 0-2-.88-2-2V17c0-1.12.88-2 2-2z" opacity=".2"/><path d="M12 6c-3.324 0-6 2.676-6 6v72c0 3.324 2.676 6 6 6h72c3.324 0 6-2.676 6-6V12c0-3.324-2.676-6-6-6H12zm5 7h62c2.216 0 4 1.784 4 4v62c0 2.216-1.784 4-4 4H17c-2.216 0-4-1.784-4-4V17c0-2.216 1.784-4 4-4z" fill="url(#O)"/><path d="M12 6c-3.324 0-6 2.676-6 6v72c0 .335.041.65.094.969.048.295.097.597.187.875l.032.094c.098.287.234.547.375.812.144.274.315.536.5.781a6.105 6.105 0 0 0 2.094 1.781c.278.14.573.247.874.344a4.843 4.843 0 0 1-.719-.375c-.007-.004-.023.005-.03 0-.033-.02-.063-.042-.095-.062-.12-.077-.23-.164-.343-.25-.106-.081-.214-.161-.313-.25a5.042 5.042 0 0 1-.5-.531 5.092 5.092 0 0 1-.312-.407c-.025-.038-.039-.086-.063-.125-.065-.103-.13-.204-.187-.312a5.371 5.371 0 0 1-.282-.625c-.007-.022-.023-.04-.03-.063-.033-.092-.037-.187-.063-.281-.03-.107-.07-.203-.094-.313A5.098 5.098 0 0 1 7 85V13c0-2.782 2.218-5 5-5h72c2.782 0 5 2.218 5 5v72c0 .364-.052.721-.125 1.063a4.896 4.896 0 0 1-.156.593c-.008.022-.024.04-.031.063a5.482 5.482 0 0 1-.22.531c-.04.083-.078.17-.124.25-.055.097-.127.188-.188.281a5.092 5.092 0 0 1-.312.406 5.05 5.05 0 0 1-.469.5l-.031.032a4.818 4.818 0 0 1-.438.344c-.102.073-.204.153-.312.218-.008.005-.024-.004-.031 0a4.843 4.843 0 0 1-.72.375c.302-.097.597-.204.876-.344a6.105 6.105 0 0 0 2.094-1.78c.184-.246.355-.508.5-.782a5.69 5.69 0 0 0 .374-.813l.032-.093c.09-.278.139-.58.187-.875.053-.318.094-.634.094-.969V12c0-3.324-2.676-6-6-6H12z" opacity=".5" fill="url(#P)"/><path d="M17 84c-2.753 0-5-2.247-5-5V17c0-2.753 2.247-5 5-5h62c2.753 0 5 2.247 5 5v62c0 2.753-2.247 5-5 5H17zm0-2h62c1.68 0 3-1.32 3-3V17c0-1.68-1.32-3-3-3H17c-1.68 0-3 1.32-3 3v62c0 1.68 1.32 3 3 3z" fill="url(#Q)"/><path d="M12 90c-3.324 0-6-2.676-6-6V12c0-.335.041-.65.094-.969.048-.295.097-.597.187-.875l.032-.094a5.69 5.69 0 0 1 .375-.812c.144-.274.315-.536.5-.781a6.105 6.105 0 0 1 2.094-1.781c.278-.14.573-.247.874-.344-.256.1-.486.236-.719.375-.007.004-.023-.005-.03 0-.033.019-.063.042-.095.062-.12.077-.23.164-.343.25-.106.081-.214.161-.313.25a5.042 5.042 0 0 0-.5.532c-.107.13-.218.265-.312.406-.025.038-.039.086-.063.125-.065.103-.13.204-.187.312a5.371 5.371 0 0 0-.282.625c-.007.022-.023.04-.03.063-.033.092-.037.187-.063.281-.03.107-.07.203-.094.313A5.098 5.098 0 0 0 7 11v72c0 2.782 2.218 5 5 5h72c2.782 0 5-2.218 5-5V11c0-.364-.052-.721-.125-1.063a4.896 4.896 0 0 0-.156-.593c-.008-.022-.024-.04-.031-.063a5.482 5.482 0 0 0-.22-.531c-.04-.083-.078-.17-.124-.25-.055-.097-.127-.188-.188-.281a5.092 5.092 0 0 0-.312-.406 5.05 5.05 0 0 0-.469-.5l-.031-.032a4.818 4.818 0 0 0-.438-.343c-.102-.074-.204-.154-.312-.22-.008-.004-.024.005-.031 0a4.843 4.843 0 0 0-.72-.374c.302.097.597.204.876.343a6.105 6.105 0 0 1 2.094 1.782c.184.245.355.507.5.781.14.265.276.525.374.813l.032.093c.09.278.139.58.187.875.053.318.094.634.094.969v72c0 3.324-2.676 6-6 6H12z" opacity=".2" fill="url(#R)"/></svg>