<svg id="svg2408" width="96" height="96" version="1.0" xmlns="http://www.w3.org/2000/svg" xmlns:xlink="http://www.w3.org/1999/xlink">
 <defs id="defs2410">
  <linearGradient id="ButtonShadow" x1="45.447727" x2="45.447727" y1="92.539597" y2="7.0165396" gradientTransform="scale(1.0058652 .994169)" gradientUnits="userSpaceOnUse">
   <stop id="stop3750" style="stop-color:#000000" offset="0"/>
   <stop id="stop3752" style="stop-color:#000000;stop-opacity:.58823532" offset="1"/>
  </linearGradient>
  <linearGradient id="linearGradient3737">
   <stop id="stop3739" style="stop-color:#ffffff" offset="0"/>
   <stop id="stop3741" style="stop-color:#ffffff;stop-opacity:0" offset="1"/>
  </linearGradient>
  <filter id="filter3174">
   <feGaussianBlur id="feGaussianBlur3176" stdDeviation="1.71"/>
  </filter>
  <linearGradient id="linearGradient3188" x1="36.357143" x2="36.357143" y1="6" y2="63.893143" gradientUnits="userSpaceOnUse" xlink:href="#linearGradient3737"/>
  <filter id="filter3794" x="-.192" y="-.192" width="1.384" height="1.384">
   <feGaussianBlur id="feGaussianBlur3796" stdDeviation="5.28"/>
  </filter>
  <linearGradient id="linearGradient3613" x1="48" x2="48" y1="20.220806" y2="138.66119" gradientUnits="userSpaceOnUse" xlink:href="#linearGradient3737"/>
  <radialGradient id="radialGradient3619" cx="48" cy="90.171875" r="42" gradientTransform="matrix(1.1573129 0 0 .99590774 -7.5510206 .19713193)" gradientUnits="userSpaceOnUse" xlink:href="#linearGradient3737"/>
  <clipPath id="clipPath3613">
   <rect id="rect3615" x="6" y="6" width="84" height="84" rx="6" ry="6" style="fill:#ffffff"/>
  </clipPath>
  <linearGradient id="ButtonShadow-0" x1="45.447727" x2="45.447727" y1="92.539597" y2="7.0165396" gradientTransform="matrix(1.0058652 0 0 .994169 100 0)" gradientUnits="userSpaceOnUse">
   <stop id="stop3750-8" style="stop-color:#000000" offset="0"/>
   <stop id="stop3752-5" style="stop-color:#000000;stop-opacity:.58823532" offset="1"/>
  </linearGradient>
  <linearGradient id="linearGradient3780" x1="32.251034" x2="32.251034" y1="6.1317081" y2="90.238609" gradientTransform="matrix(1.0238095,0,0,1.0119048,-1.1428571,-98.071429)" gradientUnits="userSpaceOnUse" xlink:href="#ButtonShadow-0"/>
  <linearGradient id="linearGradient3721" x1="32.251034" x2="32.251034" y1="6.1317081" y2="90.238609" gradientTransform="translate(0,-97)" gradientUnits="userSpaceOnUse" xlink:href="#ButtonShadow-0"/>
  <linearGradient id="linearGradient3858" x1="49" x2="49" y1="46" y2="6" gradientTransform="matrix(1 0 0 .87500001 0 10.75)" gradientUnits="userSpaceOnUse" spreadMethod="reflect" xlink:href="#linearGradient3737"/>
  <linearGradient id="linearGradient3909" x1="49" x2="49" y1="46" y2="6" gradientTransform="matrix(1 0 0 .87500001 6 10.75)" gradientUnits="userSpaceOnUse" spreadMethod="reflect" xlink:href="#linearGradient3737"/>
  <linearGradient id="linearGradient3913" x1="49" x2="49" y1="46" y2="6" gradientTransform="matrix(1 0 0 .87500001 12 10.75)" gradientUnits="userSpaceOnUse" spreadMethod="reflect" xlink:href="#linearGradient3737"/>
  <linearGradient id="linearGradient3917" x1="49" x2="49" y1="46" y2="6" gradientTransform="matrix(1 0 0 .87500001 14 10.75)" gradientUnits="userSpaceOnUse" spreadMethod="reflect" xlink:href="#linearGradient3737"/>
  <linearGradient id="linearGradient3921" x1="49" x2="49" y1="46" y2="6" gradientTransform="matrix(1 0 0 .87500001 18 10.75)" gradientUnits="userSpaceOnUse" spreadMethod="reflect" xlink:href="#linearGradient3737"/>
  <linearGradient id="linearGradient3925" x1="49" x2="49" y1="46" y2="9" gradientTransform="matrix(1 0 0 .87500001 22 10.75)" gradientUnits="userSpaceOnUse" spreadMethod="reflect" xlink:href="#linearGradient3737"/>
  <radialGradient id="radialGradient4244" cx="76.999992" cy="46.000004" r=".99999517" gradientTransform="matrix(15.00008,-3.3574445e-5,9.7206e-5,33.250174,-1078.0106,-1478.5054)" gradientUnits="userSpaceOnUse" xlink:href="#linearGradient3737"/>
  <radialGradient id="radialGradient4240" cx="82.999992" cy="46.000004" r=".99999517" gradientTransform="matrix(13.00007,1.6203053e-5,-4.558221e-5,28.000148,-996.00365,-1237.0082)" gradientUnits="userSpaceOnUse" xlink:href="#linearGradient3737"/>
  <radialGradient id="radialGradient4238" cx="84.999992" cy="46.000004" r=".99999517" gradientTransform="matrix(19.000099,-1.212133e-5,2.1873078e-5,26.250139,-1530.0093,-1156.5054)" gradientUnits="userSpaceOnUse" xlink:href="#linearGradient3737"/>
  <linearGradient id="linearGradient3941" x1="49" x2="49" y1="46" y2="6" gradientTransform="matrix(1 0 0 .87500001 -4 10.75)" gradientUnits="userSpaceOnUse" spreadMethod="reflect" xlink:href="#linearGradient3737"/>
  <linearGradient id="linearGradient3945" x1="49" x2="49" y1="46" y2="6" gradientTransform="matrix(1 0 0 .87500001 -8 10.75)" gradientUnits="userSpaceOnUse" spreadMethod="reflect" xlink:href="#linearGradient3737"/>
  <linearGradient id="linearGradient3949" x1="49" x2="49" y1="46" y2="6" gradientTransform="matrix(1 0 0 .87500001 -10 10.75)" gradientUnits="userSpaceOnUse" spreadMethod="reflect" xlink:href="#linearGradient3737"/>
  <linearGradient id="linearGradient3953" x1="49" x2="49" y1="46" y2="6" gradientTransform="matrix(1 0 0 .87500001 -16 10.75)" gradientUnits="userSpaceOnUse" spreadMethod="reflect" xlink:href="#linearGradient3737"/>
  <linearGradient id="linearGradient3957" x1="49" x2="49" y1="46" y2="6" gradientTransform="matrix(1 0 0 .87500001 -20 10.75)" gradientUnits="userSpaceOnUse" spreadMethod="reflect" xlink:href="#linearGradient3737"/>
  <linearGradient id="linearGradient3961" x1="49" x2="49" y1="46" y2="6" gradientTransform="matrix(1 0 0 .87500001 -22 10.75)" gradientUnits="userSpaceOnUse" spreadMethod="reflect" xlink:href="#linearGradient3737"/>
  <linearGradient id="linearGradient3965" x1="49" x2="49" y1="46" y2="6" gradientTransform="matrix(1 0 0 .87500001 -24 10.75)" gradientUnits="userSpaceOnUse" spreadMethod="reflect" xlink:href="#linearGradient3737"/>
  <radialGradient id="radialGradient4250" cx="18.999994" cy="46.000004" r=".99999517" gradientTransform="matrix(15.000078,-3.3574446e-5,9.7206015e-5,33.250174,-266.00587,-1478.5075)" gradientUnits="userSpaceOnUse" xlink:href="#linearGradient3737"/>
  <radialGradient id="radialGradient4248" cx="16.999994" cy="46.000004" r=".99999517" gradientTransform="matrix(19.000097,1.4939416e-5,-3.1451407e-5,30.625161,-306.0001,-1357.7578)" gradientUnits="userSpaceOnUse" xlink:href="#linearGradient3737"/>
  <radialGradient id="radialGradient4246" cx="12.999995" cy="46.000004" r=".99999517" gradientTransform="matrix(27.000135,0,0,28.000178,-338.00163,-1237.0082)" gradientUnits="userSpaceOnUse" xlink:href="#linearGradient3737"/>
  <radialGradient id="radialGradient4236" cx="8.9999952" cy="46.000004" r=".99999517" gradientTransform="matrix(15.000077,-1.2121331e-5,2.7705904e-5,26.250139,-126.0019,-1156.5064)" gradientUnits="userSpaceOnUse" xlink:href="#linearGradient3737"/>
  <linearGradient id="linearGradient3985" x1="49" x2="49" y1="46" y2="6" gradientTransform="matrix(1 0 0 .87500001 -2 10.75)" gradientUnits="userSpaceOnUse" spreadMethod="reflect" xlink:href="#linearGradient3737"/>
  <radialGradient id="radialGradient4242" cx="78.999992" cy="46.000004" r=".99999517" gradientTransform="matrix(11.094983,-1.4517317e-5,5.3834e-5,31.500183,-797.50608,-1398.0074)" gradientUnits="userSpaceOnUse" xlink:href="#linearGradient3737"/>
  <linearGradient id="linearGradient4166" x1="48" x2="48" y1="88" y2="-40" gradientTransform="matrix(1,0,0,-1,0,92)" gradientUnits="userSpaceOnUse" xlink:href="#linearGradient3737"/>
  <radialGradient id="radialGradient3860" cx="66.346695" cy="-.082872503" r="42" gradientTransform="matrix(1.904762,0,0,1.7142858,-79.321578,34.055641)" gradientUnits="userSpaceOnUse">
   <stop id="stop3702" style="stop-color:#7d9ccb" offset="0"/>
   <stop id="stop4252" style="stop-color:#6c8cbd" offset=".25"/>
   <stop id="stop4188" style="stop-color:#416cad" offset=".5"/>
   <stop id="stop3704" style="stop-color:#1e356e" offset="1"/>
  </radialGradient>
 </defs>
 <g id="layer2" style="display:none">
  <rect id="rect3745" x="5" y="7" width="86" height="85" rx="6" ry="6" style="fill:url(#ButtonShadow);filter:url(#filter3174);opacity:.9"/>
 </g>
 <g id="layer3">
  <path id="path3786" transform="scale(1,-1)" d="m12-95.021484c-5.5110903 0-10.021484 4.510394-10.021484 10.021484v71c0 5.5110902 4.5103942 10.021484 10.021484 10.021484h72c5.51109 0 10.021484-4.5103941 10.021484-10.021484v-71c0-5.51109-4.510394-10.021484-10.021484-10.021484z" style="fill:url(#linearGradient3780);opacity:.07999998"/>
  <path id="path3778" transform="scale(1,-1)" d="m12-94.035156c-4.971633 0-9.0351562 4.063523-9.0351562 9.035156v71c0 4.9716329 4.0635233 9.0351562 9.0351562 9.0351562h72c4.971633 0 9.035156-4.0635232 9.035156-9.0351562v-71c0-4.971633-4.063523-9.035156-9.035156-9.035156z" style="fill:url(#linearGradient3780);opacity:.1"/>
  <path id="path3770" transform="scale(1,-1)" d="m12-92.990234c-4.4091333 0-7.9902344 3.581101-7.9902344 7.990234v71c0 4.4091333 3.5811011 7.9902344 7.9902344 7.9902344h72c4.409133 0 7.990234-3.5811011 7.990234-7.9902344v-71c0-4.409133-3.581101-7.990234-7.990234-7.990234z" style="fill:url(#linearGradient3780);opacity:.2"/>
  <rect id="rect3723" transform="scale(1,-1)" x="5" y="-92" width="86" height="85" rx="7" ry="7" style="fill:url(#linearGradient3780);opacity:.3"/>
  <rect id="rect3716" transform="scale(1,-1)" x="6" y="-91" width="84" height="84" rx="6" ry="6" style="fill:url(#linearGradient3721);opacity:.45"/>
 </g>
 <g id="layer1">
  <rect id="rect2419" x="6" y="6" width="84" height="84" rx="6" ry="6" style="fill:url(#radialGradient3860)"/>
  <path id="rect3728" d="m12 6c-3.324 0-6 2.676-6 6v72c0 0.334721 0.04135 0.6507 0.09375 0.96875 0.0487 0.295596 0.09704 0.596915 0.1875 0.875 0.00988 0.03038 0.020892 0.0636 0.03125 0.09375 0.098865 0.287771 0.2348802 0.547452 0.375 0.8125 0.1445918 0.273507 0.3156161 0.535615 0.5 0.78125s0.3737765 0.473472 0.59375 0.6875c0.439947 0.428056 0.94291 0.814526 1.5 1.09375 0.278545 0.139612 0.5734731 0.246947 0.875 0.34375-0.2562018-0.100222-0.4867109-0.236272-0.71875-0.375-0.00741-0.0044-0.023866 0.0045-0.03125 0-0.031933-0.0193-0.062293-0.04251-0.09375-0.0625-0.120395-0.0767-0.2310226-0.163513-0.34375-0.25-0.1061728-0.0808-0.2132809-0.161112-0.3125-0.25-0.1779299-0.161433-0.3474596-0.345388-0.5-0.53125-0.1075789-0.130255-0.2183939-0.265285-0.3125-0.40625-0.025089-0.03838-0.038446-0.08587-0.0625-0.125-0.064763-0.103032-0.1302275-0.204517-0.1875-0.3125-0.1010083-0.194706-0.2056748-0.415701-0.28125-0.625-0.00796-0.02181-0.023589-0.04055-0.03125-0.0625-0.0318251-0.09195-0.0358045-0.186831-0.0625-0.28125-0.0303323-0.106618-0.0703894-0.203031-0.09375-0.3125-0.0728786-0.341512-0.125-0.698205-0.125-1.0625v-72c0-2.781848 2.2181517-5 5-5h72c2.781848 0 5 2.218152 5 5v72c0 0.364295-0.05212 0.720988-0.125 1.0625-0.04415 0.206893-0.08838 0.397658-0.15625 0.59375-0.0077 0.02195-0.0233 0.04069-0.03125 0.0625-0.06274 0.173739-0.138383 0.367449-0.21875 0.53125-0.04158 0.0828-0.07904 0.169954-0.125 0.25-0.0546 0.09721-0.126774 0.18835-0.1875 0.28125-0.09411 0.140965-0.204921 0.275995-0.3125 0.40625-0.143174 0.17445-0.303141 0.346998-0.46875 0.5-0.01117 0.0102-0.01998 0.02115-0.03125 0.03125-0.138386 0.125556-0.285091 0.234436-0.4375 0.34375-0.102571 0.07315-0.204318 0.153364-0.3125 0.21875-0.0074 0.0045-0.02384-0.0044-0.03125 0-0.232039 0.138728-0.462548 0.274778-0.71875 0.375 0.301527-0.0968 0.596455-0.204138 0.875-0.34375 0.55709-0.279224 1.060053-0.665694 1.5-1.09375 0.219973-0.214028 0.409366-0.441865 0.59375-0.6875s0.355408-0.507743 0.5-0.78125c0.14012-0.265048 0.276135-0.524729 0.375-0.8125 0.01041-0.03078 0.02133-0.06274 0.03125-0.09375 0.09046-0.278085 0.1388-0.579404 0.1875-0.875 0.0524-0.31805 0.09375-0.634029 0.09375-0.96875v-72c0-3.324-2.676-6-6-6z" style="fill:url(#linearGradient3188);opacity:.5"/>
  <g id="g1160">
   <g id="layer7" transform="matrix(1,0,0,1.180286,1.0000048,-12.194591)" style="opacity:.8">
    <rect id="rect3082" x="48" y="16" width="1.9999903" height="70.000008" style="color:#000000;fill:url(#linearGradient3858);opacity:.15"/>
    <rect id="rect3907" x="54" y="16" width="1.9999903" height="70.000008" style="color:#000000;fill:url(#linearGradient3909);opacity:.2"/>
    <rect id="rect3911" x="60" y="16" width="1.9999903" height="70.000008" style="color:#000000;fill:url(#linearGradient3913);opacity:.12000002"/>
    <rect id="rect3915" x="62" y="16" width="1.9999903" height="70.000008" style="color:#000000;fill:url(#linearGradient3917);opacity:.16000001"/>
    <rect id="rect3919" x="66" y="16" width="1.9999903" height="70.000008" style="color:#000000;fill:url(#linearGradient3921);opacity:.07999998"/>
    <rect id="rect3923" x="70" y="16" width="1.9999903" height="70.000008" style="color:#000000;fill:url(#linearGradient3925);opacity:.2"/>
    <rect id="rect3927" x="76" y="16" width="1.9999903" height="70.000008" style="color:#000000;fill:url(#radialGradient4244);opacity:.15"/>
    <rect id="rect3931" x="82" y="16" width="1.9999903" height="70.000008" style="color:#000000;fill:url(#radialGradient4240);opacity:.12000002"/>
    <rect id="rect3935" x="84" y="16" width="1.9999903" height="70.000008" style="color:#000000;fill:url(#radialGradient4238);opacity:.06000001"/>
    <rect id="rect3939" x="44" y="16" width="1.9999903" height="70.000008" style="color:#000000;fill:url(#linearGradient3941);opacity:.1"/>
    <rect id="rect3943" x="40" y="16" width="1.9999903" height="70.000008" style="color:#000000;fill:url(#linearGradient3945);opacity:.2"/>
    <rect id="rect3947" x="38" y="16" width="1.9999903" height="70.000008" style="color:#000000;fill:url(#linearGradient3949);opacity:.15"/>
    <rect id="rect3951" x="32" y="16" width="1.9999903" height="70.000008" style="color:#000000;fill:url(#linearGradient3953);opacity:.1"/>
    <rect id="rect3955" x="28" y="16" width="1.9999903" height="70.000008" style="color:#000000;fill:url(#linearGradient3957);opacity:.16000001"/>
    <rect id="rect3959" x="26" y="16" width="1.9999903" height="70.000008" style="color:#000000;fill:url(#linearGradient3961);opacity:.1"/>
    <rect id="rect3963" x="24" y="16" width="1.9999903" height="70.000008" style="color:#000000;fill:url(#linearGradient3965);opacity:.06000001"/>
    <rect id="rect3967" x="18" y="16" width="1.9999903" height="70.000008" style="color:#000000;fill:url(#radialGradient4250);opacity:.2"/>
    <rect id="rect3971" x="16" y="16" width="1.9999903" height="70.000008" style="color:#000000;fill:url(#radialGradient4248);opacity:.15"/>
    <rect id="rect3975" x="12" y="16" width="1.9999903" height="70.000008" style="color:#000000;fill:url(#radialGradient4246);opacity:.15"/>
    <rect id="rect3979" x="8" y="16" width="1.9999903" height="70.000008" style="color:#000000;fill:url(#radialGradient4236);opacity:.1"/>
    <rect id="rect3983" x="46" y="16" width="1.9999903" height="70.000008" style="color:#000000;fill:url(#linearGradient3985);opacity:.05"/>
    <rect id="rect3987" x="78" y="16" width="1.9999903" height="70.000008" style="color:#000000;fill:url(#radialGradient4242);opacity:.05"/>
   </g>
  </g>
  <path id="rect4377-6" d="m12 6c-3.324 0-6 2.676-6 6v6c0-0.732197 0.3847682-1.370284 0.96875-1.71875v-4.28125c0-2.80489 2.2263602-5.03125 5.03125-5.03125h72c2.80489 0 5.03125 2.22636 5.03125 5.03125v4.28125c0.583982 0.348466 0.96875 0.986553 0.96875 1.71875v-6c0-3.324-2.676-6-6-6z" style="fill:url(#linearGradient4166);opacity:.15"/>
  <g id="g1090">
   <path id="rect3991" d="M 12,6 C 8.676,6 6,8.676 6,12 V 13 16.65625 19 C 6,18.858275 6.01242,18.730135 6.03125,18.59375 6.0359,18.57092 6.057087,18.55378 6.0625,18.53125 6.2921881,17.100479 7.5024925,16 9,16 h 78 c 1.497508,0 2.707812,1.100479 2.9375,2.53125 C 89.96273,18.688412 90,18.835508 90,19 V 16.65625 13 12 C 90,8.676 87.324,6 84,6 Z" style="color:#000000;fill:#000000"/>
   <g id="g4219" transform="translate(1)">
    <path id="path4209" d="m57.039578 13c0.02084-0.253598 0.06427-0.517618 0.130274-0.79206 0.066-0.274441 0.145904-0.543672 0.239702-0.807694 0.09727-0.264018 0.204962-0.512405 0.323077-0.745162 0.118113-0.236226 0.237964-0.439451 0.359554-0.609678h-1.568488v-0.661787h2.527298v0.5627797c-0.111169 0.1215913-0.234494 0.2900773-0.369976 0.5054593-0.132012 0.215388-0.258811 0.460301-0.380397 0.734741-0.118116 0.270969-0.222335 0.562781-0.312655 0.875435-0.086851 0.312656-0.140697 0.625311-0.161539 0.937966h-0.78685m-2.513538 0.07816c-0.0938 0-0.192805-0.0069-0.297022-0.02084-0.10422-0.01042-0.204964-0.02605-0.302234-0.0469-0.09727-0.02084-0.185857-0.04342-0.265757-0.06774s-0.142432-0.0469-0.187593-0.06774l0.151117-0.646155c0.09032 0.03821 0.204962 0.0799 0.343921 0.125062 0.142431 0.04169 0.317865 0.06253 0.526303 0.06253 0.239701 0 0.415135-0.04516 0.526303-0.135484 0.111165-0.09032 0.166748-0.21191 0.16675-0.364765-2e-6 -0.0938-0.02085-0.171959-0.06253-0.234492-0.03822-0.066-0.09206-0.118113-0.161539-0.156327-0.06948-0.04169-0.152855-0.06948-0.250124-0.08338-0.0938-0.01737-0.194543-0.02605-0.302234-0.02605h-0.302234v-0.625311h0.343921c0.07643 3e-6 0.149379-0.0069 0.218859-0.02084 0.07295-0.01389 0.13722-0.03647 0.192804-0.06774 0.05558-0.03474 0.09901-0.0799 0.130273-0.135484 0.03474-0.05906 0.05211-0.132008 0.05211-0.218859-2e-6 -0.066-0.0139-0.123323-0.04169-0.171961-0.02779-0.04863-0.06427-0.08858-0.109429-0.119851-0.04169-0.03126-0.09206-0.05384-0.151117-0.067742-0.05558-0.017367-0.112904-0.026052-0.17196-0.026055-0.149381 3e-6 -0.288339 0.022584-0.416874 0.067742-0.125063 0.04516-0.239703 0.100747-0.343921 0.166749l-0.276178-0.5679946c0.05558-0.034736 0.119851-0.071212 0.192804-0.1094294 0.07643-0.03821 0.159801-0.072949 0.250124-0.1042185 0.09032-0.031262 0.185856-0.057316 0.286601-0.078164 0.104218-0.02084 0.213647-0.031262 0.328288-0.031266 0.21191 3.7e-6 0.394292 0.026058 0.547147 0.078164 0.156326 0.048639 0.284862 0.1198547 0.385609 0.2136478 0.100742 0.090326 0.175432 0.1980183 0.224069 0.3230773 0.04863 0.1215904 0.07295 0.2553384 0.07295 0.4012404-2e-6 0.142435-0.03995 0.281393-0.119851 0.416874-0.0799 0.132012-0.187595 0.232757-0.323077 0.302234 0.187591 0.07643 0.33176 0.191069 0.432506 0.343921 0.104216 0.149381 0.156326 0.330026 0.156328 0.541936-2e-6 0.16675-0.02779 0.321341-0.08337 0.463772-0.05559 0.138958-0.142434 0.260546-0.260546 0.364765-0.118116 0.100745-0.269233 0.180645-0.45335 0.239702-0.180647 0.05558-0.396032 0.08337-0.646155 0.08337m-1.344908-2.339699c-1e-6 0.15633-0.05037 0.276181-0.151117 0.359554-0.09727 0.0799-0.208438 0.119853-0.333499 0.119851-0.125063 2e-6 -0.237966-0.03995-0.33871-0.119851-0.09727-0.08337-0.145906-0.203224-0.145906-0.359554 0-0.156325 0.04863-0.274439 0.145906-0.354343 0.100744-0.08337 0.213647-0.125059 0.33871-0.125062 0.125061 3e-6 0.236228 0.04169 0.333499 0.125062 0.100744 0.0799 0.151116 0.198018 0.151117 0.354343m0 1.849878c-1e-6 0.156328-0.05037 0.276179-0.151117 0.359554-0.09727 0.0799-0.208438 0.119851-0.333499 0.119851-0.125063 0-0.237966-0.03995-0.33871-0.119851-0.09727-0.08338-0.145906-0.203226-0.145906-0.359554 0-0.156327 0.04863-0.274441 0.145906-0.354343 0.100744-0.08337 0.213647-0.125061 0.33871-0.125062 0.125061 1e-6 0.236228 0.04169 0.333499 0.125062 0.100744 0.0799 0.151116 0.198016 0.151117 0.354343m-2.899146 0.489827c-0.0938 0-0.192805-0.0069-0.297022-0.02084-0.104219-0.01042-0.204964-0.02605-0.302234-0.0469-0.09727-0.02084-0.185856-0.04342-0.265757-0.06774-0.0799-0.02432-0.142432-0.0469-0.187593-0.06774l0.151117-0.646155c0.09032 0.03821 0.204962 0.0799 0.343921 0.125062 0.142431 0.04169 0.317865 0.06253 0.526303 0.06253 0.239701 0 0.415135-0.04516 0.526303-0.135484 0.111165-0.09032 0.166748-0.21191 0.16675-0.364765-2e-6 -0.0938-0.02085-0.171959-0.06253-0.234492-0.03822-0.066-0.09206-0.118113-0.161539-0.156327-0.06948-0.04169-0.152855-0.06948-0.250124-0.08338-0.0938-0.01737-0.194543-0.02605-0.302234-0.02605h-0.302233v-0.625311h0.34392c0.07643 3e-6 0.149379-0.0069 0.218859-0.02084 0.07295-0.01389 0.13722-0.03647 0.192804-0.06774 0.05558-0.03474 0.09901-0.0799 0.130274-0.135484 0.03474-0.05906 0.05211-0.132008 0.05211-0.218859-2e-6 -0.066-0.0139-0.123323-0.04169-0.171961-0.02779-0.04863-0.06427-0.08858-0.109429-0.119851-0.04169-0.03126-0.09206-0.05384-0.151117-0.067742-0.05558-0.017367-0.112904-0.026052-0.17196-0.026055-0.149381 3e-6 -0.288339 0.022584-0.416874 0.067742-0.125063 0.04516-0.239703 0.100747-0.343921 0.166749l-0.276179-0.5679986c0.05558-0.034736 0.119851-0.071212 0.192804-0.1094294 0.07643-0.03821 0.159801-0.072949 0.250124-0.1042185 0.09032-0.031262 0.185856-0.057316 0.286601-0.078164 0.104218-0.02084 0.213647-0.031262 0.328288-0.031266 0.21191 3.7e-6 0.394292 0.026058 0.547147 0.078164 0.156326 0.048639 0.284862 0.1198547 0.385609 0.2136478 0.100742 0.090326 0.175432 0.1980183 0.224069 0.3230773 0.04863 0.1215904 0.07295 0.2553384 0.07295 0.4012404-2e-6 0.142435-0.03995 0.281393-0.119851 0.416874-0.0799 0.132012-0.187595 0.232757-0.323077 0.302234 0.187591 0.07643 0.33176 0.191069 0.432507 0.343921 0.104215 0.149381 0.156325 0.330026 0.156327 0.541936-2e-6 0.16675-0.02779 0.321341-0.08338 0.463772-0.05558 0.138958-0.142434 0.260546-0.260546 0.364765-0.118116 0.100745-0.269233 0.180645-0.45335 0.239702-0.180647 0.05558-0.396032 0.08337-0.646155 0.08337m-3.784995-2.938955c0.100744-0.04168 0.204962-0.08858 0.312655-0.140695 0.111166-0.05558 0.218858-0.1146372 0.323078-0.1771714 0.104217-0.066002 0.203224-0.1337438 0.297022-0.2032261 0.09727-0.072949 0.184118-0.1493762 0.260546-0.2292806h0.541937v3.6111701h-0.776428v-2.600251c-0.10422 0.06948-0.220597 0.13375-0.349132 0.192804-0.128537 0.05559-0.253599 0.104221-0.375187 0.145906l-0.234491-0.599256m-5.325474 0.213648c0.13201-0.03821 0.302233-0.07295 0.510671-0.104219 0.208436-0.03474 0.427294-0.05211 0.656576-0.05211 0.232753 3e-6 0.425557 0.03127 0.578413 0.0938 0.156325 0.05906 0.27965 0.144171 0.369975 0.255335 0.09032 0.111169 0.154588 0.243179 0.192804 0.39603 0.03821 0.152856 0.05732 0.323079 0.05732 0.510671v1.547644h-0.776427v-1.453848c-2e-6 -0.250122-0.03301-0.427294-0.09901-0.531514-0.06601-0.104216-0.189332-0.156325-0.369975-0.156328-0.05559 3e-6 -0.114642 0.0035-0.177172 0.01042-0.06253 0.0035-0.118115 0.0087-0.166749 0.01563v2.115635h-0.776428v-2.647149m-0.733924 2.553355c-0.132013 0.03821-0.302236 0.07295-0.51067 0.104219-0.208439 0.03474-0.427298 0.05211-0.656577 0.05211-0.232756 0-0.427297-0.03126-0.583623-0.0938-0.152855-0.06253-0.274443-0.149379-0.364765-0.260546-0.09032-0.11464-0.154591-0.250124-0.192804-0.406452-0.03821-0.156327-0.05732-0.328287-0.05732-0.515881v-1.526801h0.776427v1.433004c-1e-6 0.250126 0.033 0.430771 0.09901 0.541936 0.066 0.111167 0.189329 0.16675 0.369975 0.16675 0.05558 0 0.114639-0.0017 0.177172-0.0052 0.06253-0.0069 0.118112-0.01389 0.166749-0.02084v-2.115635h0.776428v2.647149m-4.335653-0.526316c0.114639 1e-6 0.208435-0.0087 0.28139-0.02605 0.07643-0.02084 0.137219-0.0469 0.182382-0.07816 0.04516-0.03474 0.07643-0.07469 0.0938-0.119852 0.01737-0.04516 0.02605-0.09553 0.02605-0.151116-2e-6 -0.118114-0.05559-0.215384-0.166749-0.291812-0.111168-0.0799-0.302235-0.165011-0.573202-0.255335-0.118115-0.04169-0.236229-0.08858-0.354343-0.140695-0.118115-0.05558-0.22407-0.123324-0.317866-0.203226-0.0938-0.08337-0.170224-0.182381-0.229281-0.297023-0.05906-0.118112-0.08859-0.260544-0.08859-0.427296-1e-6 -0.166747 0.03126-0.316126 0.0938-0.4481392 0.06253-0.1354808 0.151116-0.250121 0.265757-0.343921 0.11464-0.093793 0.253598-0.165009 0.416874-0.2136478 0.163275-0.052106 0.347394-0.07816 0.552358-0.078164 0.243175 3.7e-6 0.453348 0.026058 0.630522 0.078164 0.177169 0.052113 0.323075 0.1094329 0.437717 0.1719605l-0.234491 0.6409435c-0.100747-0.05211-0.21365-0.09727-0.33871-0.135484-0.12159-0.04168-0.269233-0.062528-0.442929-0.062531-0.194542 3e-6 -0.335237 0.027795-0.422084 0.083375-0.08338 0.05211-0.125064 0.13375-0.125063 0.244913-1e-6 0.06601 0.01563 0.121591 0.0469 0.16675 0.03126 0.04516 0.07469 0.08685 0.130273 0.125062 0.05906 0.03474 0.125061 0.06774 0.198015 0.09901 0.07643 0.02779 0.1598 0.05732 0.250124 0.08859 0.187592 0.06948 0.350867 0.13896 0.489827 0.208437 0.138956 0.06601 0.253596 0.144171 0.343921 0.234492 0.09379 0.09032 0.163273 0.196279 0.208437 0.317866 0.04516 0.12159 0.06774 0.269232 0.06774 0.442929-3e-6 0.336973-0.118117 0.599256-0.354343 0.786849-0.236231 0.184119-0.59231 0.276179-1.068239 0.276179-0.159803 0-0.303972-0.01042-0.432507-0.03127-0.128537-0.01737-0.243177-0.03995-0.343921-0.06774-0.09727-0.02779-0.182383-0.05732-0.255335-0.08859-0.06948-0.03127-0.128536-0.06079-0.177172-0.08859l0.229281-0.646155c0.107692 0.05906 0.239702 0.112905 0.39603 0.161539 0.159801 0.04516 0.354342 0.06774 0.583624 0.06774m-19.664989-2.7940658c-0.750941-0.781137-1.968366-0.781097-2.719282 1.6e-5 -2.64e-4 2.72e-4 -5.89e-4 6.24e-4 -9.23e-4 8e-4l-0.719619 0.7485578-0.717394-0.7462378c-1.06e-4 -1.12e-4 -1.06e-4 -1.12e-4 -1.77e-4 -1.84e-4 -0.750918-0.781121-1.965381-0.784161-2.71625-0.0032-0.7509857 0.7811848-0.750979 2.0475698-8.4e-5 2.8286588 0.750825 0.781025 1.968251 0.781033 2.719236-1.52e-4 2.88e-4 -3.04e-4 5.27e-4 -5.52e-4 9.23e-4 -8e-4l0.722603-0.751662 0.717371 0.746222c1.63e-4 1.68e-4 2.25e-4 2.32e-4 3e-4 3.12e-4 0.750826 0.781017 1.962328 0.787185 2.713197 0.0064 0.750917-0.781121 0.750932-2.04753 1.07e-4 -2.8285468zm-4.797768 2.1620918c-0.396231 0.410986-1.03812 0.41061-1.434002-8e-4 -0.396298-0.412235-0.399252-1.083723-0.0029-1.495973 0.396445-0.4123858 1.047924-0.4154978 1.444221-0.0032 3.14e-4 3.36e-4 6.42e-4 6.72e-4 9.23e-4 8e-4l0.614894 0.639621c2e-4 2.08e-4 3.12e-4 3.28e-4 4.62e-4 4.88e-4 0.05598 0.05824 0.05607 0.152581 1.76e-4 0.210714-1.06e-4 1.12e-4 -1.76e-4 4e-5 -3.26e-4 2e-4l-0.623405 0.648478-2.2e-5 -2.4e-5zm2.717492 0.0016c-2.25e-4 -2.32e-4 -4.63e-4 -4.8e-4 -7.06e-4 -7.28e-4l-0.615277-0.640077c-1.38e-4 -1.44e-4 -3.01e-4 -3.12e-4 -3.62e-4 -3.84e-4 -0.05598-0.05824-0.05598-0.152437 4.8e-5 -0.210714l2.3e-5 -2.4e-5 0.620397-0.64535c0.396567-0.4111138 1.038235-0.4107218 1.434141 8e-4 0.396297 0.412235 0.399297 1.083827 0.0029 1.496141-0.39633 0.412274-1.044894 0.41221-1.44119-2.4e-5zm68.59718-2.4535281c-1.189536 0-2.153846 0.7415841-2.153846 1.8461541 0 1.104569 0.96431 1.846154 2.153846 1.846154 0.327679 0 0.635413-0.07076 0.913462-0.192308l1.240384 0.5-0.442307-1.096154c0.277899-0.336831 0.442307-0.600595 0.442307-1.057692 0-1.10457-0.96431-1.8461541-2.153846-1.8461541z" style="fill:#bebebe"/>
   </g>
  </g>
  <path id="path3615" d="m12 90c-3.324 0-6-2.676-6-6v-72c0-0.334721 0.04135-0.6507 0.09375-0.96875 0.0487-0.295596 0.09704-0.596915 0.1875-0.875 0.00988-0.03038 0.020892-0.0636 0.03125-0.09375 0.098865-0.287771 0.2348802-0.547452 0.375-0.8125 0.1445918-0.273507 0.3156161-0.535615 0.5-0.78125s0.3737765-0.473472 0.59375-0.6875c0.439947-0.428056 0.94291-0.814526 1.5-1.09375 0.278545-0.139612 0.5734731-0.246947 0.875-0.34375-0.2562018 0.100222-0.4867109 0.236272-0.71875 0.375-0.00741 0.0044-0.023866-0.0045-0.03125 0-0.031933 0.0193-0.062293 0.04251-0.09375 0.0625-0.120395 0.0767-0.2310226 0.163513-0.34375 0.25-0.1061728 0.0808-0.2132809 0.161112-0.3125 0.25-0.1779299 0.161433-0.3474596 0.345388-0.5 0.53125-0.1075789 0.130255-0.2183939 0.265285-0.3125 0.40625-0.025089 0.03838-0.038446 0.08587-0.0625 0.125-0.064763 0.103032-0.1302275 0.204517-0.1875 0.3125-0.1010083 0.194706-0.2056748 0.415701-0.28125 0.625-0.00796 0.02181-0.023589 0.04055-0.03125 0.0625-0.0318251 0.09195-0.0358045 0.186831-0.0625 0.28125-0.0303323 0.106618-0.0703894 0.203031-0.09375 0.3125-0.0728786 0.341512-0.125 0.698205-0.125 1.0625v72c0 2.781848 2.2181517 5 5 5h72c2.781848 0 5-2.218152 5-5v-72c0-0.364295-0.05212-0.720988-0.125-1.0625-0.04415-0.206893-0.08838-0.397658-0.15625-0.59375-0.0077-0.02195-0.0233-0.04069-0.03125-0.0625-0.06274-0.173739-0.138383-0.367449-0.21875-0.53125-0.04158-0.0828-0.07904-0.169954-0.125-0.25-0.0546-0.09721-0.126774-0.18835-0.1875-0.28125-0.09411-0.140965-0.204921-0.275995-0.3125-0.40625-0.143174-0.17445-0.303141-0.346998-0.46875-0.5-0.01117-0.0102-0.01998-0.02115-0.03125-0.03125-0.138386-0.125556-0.285091-0.234436-0.4375-0.34375-0.102571-0.07315-0.204318-0.153364-0.3125-0.21875-0.0074-0.0045-0.02384 0.0044-0.03125 0-0.232039-0.138728-0.462548-0.274778-0.71875-0.375 0.301527 0.0968 0.596455 0.204138 0.875 0.34375 0.55709 0.279224 1.060053 0.665694 1.5 1.09375 0.219973 0.214028 0.409366 0.441865 0.59375 0.6875s0.355408 0.507743 0.5 0.78125c0.14012 0.265048 0.276135 0.524729 0.375 0.8125 0.01041 0.03078 0.02133 0.06274 0.03125 0.09375 0.09046 0.278085 0.1388 0.579404 0.1875 0.875 0.0524 0.31805 0.09375 0.634029 0.09375 0.96875v72c0 3.324-2.676 6-6 6z" style="fill:url(#radialGradient3619);opacity:.2"/>
 </g>
 <g id="layer5" style="display:none">
  <rect id="rect3171" x="15" y="15" width="66" height="66" rx="12" ry="12" clip-path="url(#clipPath3613)" style="display:inline;fill:url(#linearGradient3613);filter:url(#filter3794);opacity:.1;stroke-linecap:round;stroke-width:.5;stroke:#ffffff"/>
 </g>
</svg>
