<svg xmlns="http://www.w3.org/2000/svg" xmlns:xlink="http://www.w3.org/1999/xlink" version="1.0" width="96" height="96"><defs><linearGradient id="s"><stop offset="0" stop-color="#014382"/><stop offset="1" stop-color="#1d75c8"/></linearGradient><linearGradient id="r"><stop offset="0" stop-color="#6f6f6f"/><stop offset="1" stop-color="#9c9c9c"/></linearGradient><linearGradient id="e"><stop offset="0" stop-color="#3a77d3"/><stop offset="1" stop-color="#6192dc"/></linearGradient><linearGradient id="d"><stop offset="0" stop-opacity=".651"/><stop offset=".5" stop-opacity=".233"/><stop offset="1" stop-opacity="0"/></linearGradient><linearGradient x1="45.448" y1="92.54" x2="45.448" y2="7.017" id="t" gradientUnits="userSpaceOnUse" gradientTransform="scale(1.00587 .99417)"><stop offset="0"/><stop offset="1" stop-opacity=".588"/></linearGradient><linearGradient id="a"><stop offset="0" stop-color="#fff"/><stop offset="1" stop-color="#fff" stop-opacity="0"/></linearGradient><linearGradient id="b"><stop offset="0" stop-color="#e1e1e1"/><stop offset="1" stop-color="#f5f5f5"/></linearGradient><filter color-interpolation-filters="sRGB" id="u"><feGaussianBlur stdDeviation="1.71"/></filter><linearGradient x1="36.357" y1="6" x2="36.357" y2="63.893" id="J" xlink:href="#a" gradientUnits="userSpaceOnUse"/><filter x="-.192" y="-.192" width="1.384" height="1.384" color-interpolation-filters="sRGB" id="M"><feGaussianBlur stdDeviation="5.28"/></filter><linearGradient x1="48" y1="20.221" x2="48" y2="138.661" id="L" xlink:href="#a" gradientUnits="userSpaceOnUse"/><radialGradient cx="48" cy="90.172" r="42" fx="48" fy="90.172" id="E" xlink:href="#a" gradientUnits="userSpaceOnUse" gradientTransform="matrix(1.15731 0 0 .9959 -7.551 .197)"/><clipPath id="K"><rect width="84" height="84" rx="6" ry="6" x="6" y="6" fill="#fff"/></clipPath><linearGradient x1="48" y1="90" x2="48" y2="5.988" id="A" xlink:href="#b" gradientUnits="userSpaceOnUse"/><linearGradient x1="45.448" y1="92.54" x2="45.448" y2="7.017" id="c" gradientUnits="userSpaceOnUse" gradientTransform="matrix(1.00587 0 0 .99417 100 0)"><stop offset="0"/><stop offset="1" stop-opacity=".588"/></linearGradient><linearGradient x1="32.251" y1="6.132" x2="32.251" y2="90.239" id="w" xlink:href="#c" gradientUnits="userSpaceOnUse" gradientTransform="matrix(1.0238 0 0 1.0119 -1.143 -98.071)"/><linearGradient x1="32.251" y1="6.132" x2="32.251" y2="90.239" id="x" xlink:href="#c" gradientUnits="userSpaceOnUse" gradientTransform="matrix(1.0238 0 0 1.0119 -1.143 -98.071)"/><linearGradient x1="32.251" y1="6.132" x2="32.251" y2="90.239" id="y" xlink:href="#c" gradientUnits="userSpaceOnUse" gradientTransform="matrix(1.0238 0 0 1.0119 -1.143 -98.071)"/><linearGradient x1="32.251" y1="6.132" x2="32.251" y2="90.239" id="z" xlink:href="#c" gradientUnits="userSpaceOnUse" gradientTransform="translate(0 -97)"/><linearGradient x1="32.251" y1="6.132" x2="32.251" y2="90.239" id="v" xlink:href="#c" gradientUnits="userSpaceOnUse" gradientTransform="matrix(1.0238 0 0 1.0119 -1.143 -98.071)"/><linearGradient x1="40" y1="90" x2="40" y2="76" id="D" xlink:href="#d" gradientUnits="userSpaceOnUse" gradientTransform="translate(0 -14)"/><linearGradient x1="40" y1="90" x2="40" y2="76" id="F" xlink:href="#d" gradientUnits="userSpaceOnUse" gradientTransform="translate(0 -28)"/><linearGradient x1="40" y1="90" x2="40" y2="76" id="G" xlink:href="#d" gradientUnits="userSpaceOnUse" gradientTransform="translate(0 -42)"/><linearGradient x1="40" y1="90" x2="40" y2="76" id="H" xlink:href="#d" gradientUnits="userSpaceOnUse" gradientTransform="translate(0 -56)"/><linearGradient x1="41" y1="76" x2="41" y2="62" id="I" xlink:href="#e" gradientUnits="userSpaceOnUse"/><linearGradient id="q"><stop offset="0"/><stop offset="1" stop-opacity="0"/></linearGradient><filter color-interpolation-filters="sRGB" id="U"><feGaussianBlur stdDeviation=".916"/></filter><linearGradient x1="136.414" y1="115.494" x2="149.53" y2="115.494" id="W" xlink:href="#f" gradientUnits="userSpaceOnUse"/><linearGradient id="f"><stop offset="0" stop-color="#e6605b"/><stop offset="1" stop-color="#f08682"/></linearGradient><filter x="-.429" y="-.167" width="1.857" height="1.333" color-interpolation-filters="sRGB" id="X"><feGaussianBlur stdDeviation=".552"/></filter><filter x="-.183" y="-.177" width="1.367" height="1.353" color-interpolation-filters="sRGB" id="Y"><feGaussianBlur stdDeviation=".659"/></filter><linearGradient x1="137.406" y1="116.469" x2="148.531" y2="116.469" id="Z" xlink:href="#g" gradientUnits="userSpaceOnUse" gradientTransform="matrix(1.08938 0 0 1 -13.276 0)"/><linearGradient id="g"><stop offset="0"/><stop offset=".7" stop-opacity=".498"/><stop offset="1" stop-opacity="0"/></linearGradient><linearGradient x1="136" y1="60" x2="150" y2="60" id="aa" xlink:href="#h" gradientUnits="userSpaceOnUse" gradientTransform="translate(-23.733)"/><linearGradient id="h"><stop offset="0"/><stop offset=".25" stop-color="#282828"/><stop offset=".3" stop-color="#3c3c3c"/><stop offset=".7" stop-color="#646464"/><stop offset=".75" stop-color="#787878"/><stop offset="1" stop-color="#a0a0a0"/></linearGradient><linearGradient x1="143" y1="0" x2="143" y2="120.018" id="ab" xlink:href="#i" gradientUnits="userSpaceOnUse" gradientTransform="translate(-23.733)"/><linearGradient id="i"><stop offset="0"/><stop offset=".066"/><stop offset=".07" stop-color="#ad5f1b"/><stop offset=".191" stop-color="#ad601a"/><stop offset=".21"/><stop offset="1"/></linearGradient><linearGradient x1="141.25" y1="4.922" x2="144.813" y2="4.922" id="ac" xlink:href="#j" gradientUnits="userSpaceOnUse" gradientTransform="translate(-23.733)"/><linearGradient id="j"><stop offset="0"/><stop offset=".5" stop-color="#7d7d7d"/><stop offset="1"/></linearGradient><linearGradient x1="136.988" y1="17.043" x2="148.995" y2="17.043" id="ad" xlink:href="#k" gradientUnits="userSpaceOnUse" gradientTransform="translate(-23.733)"/><linearGradient id="k"><stop offset="0" stop-color="#da8539"/><stop offset="1" stop-color="#fadfc7"/></linearGradient><linearGradient x1="146.106" y1="118.94" x2="146.076" y2="66" id="ae" xlink:href="#l" gradientUnits="userSpaceOnUse" gradientTransform="matrix(1 0 0 1.26535 -23.733 -54.364)"/><linearGradient id="l"><stop offset="0" stop-color="#fff"/><stop offset="1" stop-color="#fff" stop-opacity="0"/></linearGradient><linearGradient x1="146.106" y1="118.94" x2="146.076" y2="66" id="af" xlink:href="#l" gradientUnits="userSpaceOnUse" gradientTransform="matrix(1 0 0 1.26535 -29.858 -54.364)"/><filter x="-.432" y="-.114" width="1.863" height="1.227" color-interpolation-filters="sRGB" id="ag"><feGaussianBlur stdDeviation=".739"/></filter><filter x="-.61" y="-.149" width="2.22" height="1.299" color-interpolation-filters="sRGB" id="ah"><feGaussianBlur stdDeviation=".778"/></filter><linearGradient x1="136" y1="106" x2="150" y2="106" id="ai" xlink:href="#m" gradientUnits="userSpaceOnUse"/><linearGradient id="m"><stop offset="0" stop-color="#404040"/><stop offset=".2" stop-color="gray"/><stop offset=".7" stop-color="#efefef"/><stop offset="1" stop-color="#dcdcdc"/></linearGradient><linearGradient x1="136" y1="106" x2="150" y2="106" id="aj" xlink:href="#n" gradientUnits="userSpaceOnUse"/><linearGradient id="n"><stop offset="0" stop-color="#444542"/><stop offset="1" stop-color="#71746e"/></linearGradient><linearGradient x1="142.958" y1="98.951" x2="148.958" y2="98.951" id="ak" xlink:href="#g" gradientUnits="userSpaceOnUse" gradientTransform="translate(.042 1.55)" spreadMethod="reflect"/><linearGradient x1="142.958" y1="98.951" x2="148.958" y2="98.951" id="al" xlink:href="#o" gradientUnits="userSpaceOnUse" gradientTransform="translate(.042 2.55)" spreadMethod="reflect"/><linearGradient id="o"><stop offset="0" stop-color="#fff"/><stop offset=".7" stop-color="#fff" stop-opacity=".498"/><stop offset="1" stop-color="#fff" stop-opacity="0"/></linearGradient><linearGradient x1="142.958" y1="98.951" x2="148.958" y2="98.951" id="am" xlink:href="#g" gradientUnits="userSpaceOnUse" gradientTransform="translate(.042 3.55)" spreadMethod="reflect"/><linearGradient x1="142.958" y1="98.951" x2="148.958" y2="98.951" id="an" xlink:href="#o" gradientUnits="userSpaceOnUse" gradientTransform="translate(.042 4.55)" spreadMethod="reflect"/><linearGradient x1="142.958" y1="98.951" x2="148.958" y2="98.951" id="ao" xlink:href="#g" gradientUnits="userSpaceOnUse" gradientTransform="translate(.042 9.55)" spreadMethod="reflect"/><linearGradient x1="142.958" y1="98.951" x2="148.958" y2="98.951" id="ap" xlink:href="#o" gradientUnits="userSpaceOnUse" gradientTransform="translate(.042 10.55)" spreadMethod="reflect"/><linearGradient x1="142.958" y1="98.951" x2="148.958" y2="98.951" id="aq" xlink:href="#g" gradientUnits="userSpaceOnUse" gradientTransform="translate(.042 11.55)" spreadMethod="reflect"/><linearGradient x1="142.958" y1="98.951" x2="148.958" y2="98.951" id="ar" xlink:href="#o" gradientUnits="userSpaceOnUse" gradientTransform="translate(.042 12.55)" spreadMethod="reflect"/><linearGradient x1="137" y1="106" x2="139.031" y2="106" id="as" xlink:href="#p" gradientUnits="userSpaceOnUse" spreadMethod="repeat"/><linearGradient id="p"><stop offset="0" stop-color="#3d3d3d"/><stop offset="1" stop-color="#fff"/></linearGradient><filter x="-1.035" y="-.136" width="3.07" height="1.271" color-interpolation-filters="sRGB" id="at"><feGaussianBlur stdDeviation=".95"/></filter><filter x="-.933" y="-.138" width="2.867" height="1.275" color-interpolation-filters="sRGB" id="au"><feGaussianBlur stdDeviation=".928"/></filter><linearGradient x1="61.295" y1="121.328" x2="104.63" y2="41.347" id="V" xlink:href="#q" gradientUnits="userSpaceOnUse"/><linearGradient x1="61.295" y1="121.328" x2="104.63" y2="41.347" id="T" xlink:href="#q" gradientUnits="userSpaceOnUse"/><linearGradient x1="12" y1="83" x2="22" y2="83" id="O" xlink:href="#r" gradientUnits="userSpaceOnUse" gradientTransform="rotate(90 17 83)"/><linearGradient x1="12" y1="83" x2="22" y2="83" id="P" xlink:href="#r" gradientUnits="userSpaceOnUse" gradientTransform="rotate(90 17 83)"/><linearGradient x1="12" y1="83" x2="22" y2="83" id="Q" xlink:href="#r" gradientUnits="userSpaceOnUse" gradientTransform="rotate(90 17 83)"/><linearGradient x1="12" y1="83" x2="22" y2="83" id="R" xlink:href="#r" gradientUnits="userSpaceOnUse" gradientTransform="rotate(90 17 83)"/><linearGradient x1="12" y1="83" x2="22" y2="83" id="N" xlink:href="#r" gradientUnits="userSpaceOnUse" gradientTransform="rotate(90 17 83)"/><linearGradient x1="12" y1="83" x2="22" y2="83" id="S" xlink:href="#s" gradientUnits="userSpaceOnUse" gradientTransform="rotate(90 24 76)"/><linearGradient x1="40" y1="90" x2="40" y2="76" id="C" xlink:href="#d" gradientUnits="userSpaceOnUse"/><linearGradient x1="40" y1="90" x2="40" y2="76" id="B" xlink:href="#d" gradientUnits="userSpaceOnUse" gradientTransform="translate(0 -70)"/></defs><g transform="scale(1 -1)"><path d="M12-95.031c-5.511 0-10.031 4.52-10.031 10.031v71C1.969-8.489 6.489-3.969 12-3.969h72c5.511 0 10.031-4.52 10.031-10.031v-71c0-5.511-4.52-10.031-10.031-10.031H12z" opacity=".08" fill="url(#v)"/><path d="M12-94.031c-4.972 0-9.031 4.06-9.031 9.031v71c0 4.972 4.06 9.031 9.031 9.031h72c4.972 0 9.031-4.06 9.031-9.031v-71c0-4.972-4.06-9.031-9.031-9.031H12z" opacity=".1" fill="url(#w)"/><path d="M12-93c-4.41 0-8 3.59-8 8v71c0 4.41 3.59 8 8 8h72c4.41 0 8-3.59 8-8v-71c0-4.41-3.59-8-8-8H12z" opacity=".2" fill="url(#x)"/><rect width="86" height="85" rx="7" ry="7" x="5" y="-92" opacity=".3" fill="url(#y)"/><rect width="84" height="84" rx="6" ry="6" x="6" y="-91" opacity=".45" fill="url(#z)"/></g><rect width="84" height="84" rx="6" ry="6" x="6" y="6" fill="url(#A)"/><path d="M12 6c-3.324 0-6 2.676-6 6v8h84v-8c0-3.324-2.676-6-6-6H12z" style="marker:none" opacity=".1" color="#000" fill="url(#B)" overflow="visible" enable-background="accumulate"/><path d="M6 76v8c0 3.324 2.676 6 6 6h72c3.324 0 6-2.676 6-6v-8H6z" style="marker:none" opacity=".1" color="#000" fill="url(#C)" overflow="visible" enable-background="accumulate"/><path style="marker:none" opacity=".1" color="#000" fill="url(#D)" overflow="visible" enable-background="accumulate" d="M6 62h84v14H6z"/><path d="M12 90c-3.324 0-6-2.676-6-6V12c0-.335.041-.65.094-.969.048-.295.097-.597.187-.875l.032-.094a5.69 5.69 0 0 1 .375-.812c.144-.274.315-.536.5-.781a6.105 6.105 0 0 1 2.094-1.781c.278-.14.573-.247.874-.344-.256.1-.486.236-.719.375-.007.004-.023-.005-.03 0-.033.019-.063.042-.095.062-.12.077-.23.164-.343.25-.106.081-.214.161-.313.25a5.042 5.042 0 0 0-.5.532c-.107.13-.218.265-.312.406-.025.038-.039.086-.063.125-.065.103-.13.204-.187.312a5.371 5.371 0 0 0-.282.625c-.007.022-.023.04-.03.063-.033.092-.037.187-.063.281-.03.107-.07.203-.094.313A5.098 5.098 0 0 0 7 11v72c0 2.782 2.218 5 5 5h72c2.782 0 5-2.218 5-5V11c0-.364-.052-.721-.125-1.063a4.896 4.896 0 0 0-.156-.593c-.008-.022-.024-.04-.031-.063a5.482 5.482 0 0 0-.22-.531c-.04-.083-.078-.17-.124-.25-.055-.097-.127-.188-.188-.281a5.092 5.092 0 0 0-.312-.406 5.05 5.05 0 0 0-.469-.5l-.031-.032a4.818 4.818 0 0 0-.438-.343c-.102-.074-.204-.154-.312-.22-.008-.004-.024.005-.031 0a4.843 4.843 0 0 0-.72-.374c.302.097.597.204.876.343a6.105 6.105 0 0 1 2.094 1.782c.184.245.355.507.5.781.14.265.276.525.374.813l.032.093c.09.278.139.58.187.875.053.318.094.634.094.969v72c0 3.324-2.676 6-6 6H12z" opacity=".3" fill="url(#E)"/><path style="marker:none" opacity=".1" color="#000" fill="url(#F)" overflow="visible" enable-background="accumulate" d="M6 48h84v14H6z"/><path style="marker:none" opacity=".1" color="#000" fill="url(#G)" overflow="visible" enable-background="accumulate" d="M6 34h84v14H6z"/><path style="marker:none" opacity=".1" color="#000" fill="url(#H)" overflow="visible" enable-background="accumulate" d="M6 20h84v14H6z"/><path style="marker:none" color="#000" fill="url(#I)" overflow="visible" enable-background="accumulate" d="M6 62h84v14H6z"/><path style="marker:none" opacity=".2" color="#000" fill="#025" overflow="visible" enable-background="accumulate" d="M6 75h84v1H6z"/><path style="marker:none" opacity=".2" color="#000" fill="#fff" overflow="visible" enable-background="accumulate" d="M6 62h84v1H6z"/><path d="M12 6c-3.324 0-6 2.676-6 6v72c0 .335.041.65.094.969.048.295.097.597.187.875l.032.094c.098.287.234.547.375.812.144.274.315.536.5.781a6.105 6.105 0 0 0 2.094 1.781c.278.14.573.247.874.344a4.843 4.843 0 0 1-.719-.375c-.007-.004-.023.005-.03 0-.033-.02-.063-.042-.095-.062-.12-.077-.23-.164-.343-.25-.106-.081-.214-.161-.313-.25a5.042 5.042 0 0 1-.5-.531 5.092 5.092 0 0 1-.312-.407c-.025-.038-.039-.086-.063-.125-.065-.103-.13-.204-.187-.312a5.371 5.371 0 0 1-.282-.625c-.007-.022-.023-.04-.03-.063-.033-.092-.037-.187-.063-.281-.03-.107-.07-.203-.094-.313A5.098 5.098 0 0 1 7 85V13c0-2.782 2.218-5 5-5h72c2.782 0 5 2.218 5 5v72c0 .364-.052.721-.125 1.063a4.896 4.896 0 0 1-.156.593c-.008.022-.024.04-.031.063a5.482 5.482 0 0 1-.22.531c-.04.083-.078.17-.124.25-.055.097-.127.188-.188.281a5.092 5.092 0 0 1-.312.406 5.05 5.05 0 0 1-.469.5l-.031.032a4.818 4.818 0 0 1-.438.344c-.102.073-.204.153-.312.218-.008.005-.024-.004-.031 0a4.843 4.843 0 0 1-.72.375c.302-.097.597-.204.876-.344a6.105 6.105 0 0 0 2.094-1.78c.184-.246.355-.508.5-.782a5.69 5.69 0 0 0 .374-.813l.032-.093c.09-.278.139-.58.187-.875.053-.318.094-.634.094-.969V12c0-3.324-2.676-6-6-6H12z" opacity=".8" fill="url(#J)"/><rect width="66" height="66" rx="12" ry="12" x="15" y="15" clip-path="url(#K)" opacity=".1" fill="url(#L)" stroke="#fff" stroke-width=".5" stroke-linecap="round" filter="url(#M)"/><g style="line-height:125%;-inkscape-font-specification:'Droid Sans';text-align:start" font-weight="400" font-size="8" font-family="Droid Sans" fill="#666"><path d="M28.532 15.902h-.726v-5.71h2.965v.64h-2.239v2.016h2.09v.64h-2.09v2.414M32.356 15.902h-.71v-4.289h.71v4.29m-.765-5.45c0-.156.039-.27.117-.34.08-.07.18-.105.297-.105.057 0 .11.009.16.027a.31.31 0 0 1 .133.078c.039.037.069.084.09.14a.505.505 0 0 1 .035.2c0 .151-.042.264-.125.34a.422.422 0 0 1-.293.11.427.427 0 0 1-.297-.11c-.078-.073-.117-.186-.117-.34M34.435 15.902h-.711V9.824h.71v6.078M37.497 15.98c-.286 0-.548-.048-.785-.144a1.702 1.702 0 0 1-.613-.422 1.93 1.93 0 0 1-.395-.687 2.884 2.884 0 0 1-.14-.938c0-.354.042-.67.128-.95.086-.278.207-.513.364-.706.156-.195.342-.344.558-.446.219-.101.46-.152.723-.152.258 0 .49.047.695.14.206.092.38.222.524.391.143.167.252.369.328.606.078.234.117.495.117.781v.442h-2.703c.013.502.118.872.316 1.109.2.237.498.355.89.355a3.19 3.19 0 0 0 .696-.074 2.835 2.835 0 0 0 .61-.223v.633c-.105.05-.207.093-.309.13a2.543 2.543 0 0 1-.637.14 3.98 3.98 0 0 1-.367.015m-.176-3.855c-.297 0-.532.102-.707.305-.172.203-.272.498-.3.886h1.921c0-.177-.018-.338-.054-.484a1.027 1.027 0 0 0-.164-.379.744.744 0 0 0-.282-.242.918.918 0 0 0-.414-.086M44.618 15.902l-1.73-5h-.032a22.037 22.037 0 0 1 .063 1.094c.008.18.012.344.012.492v3.414h-.672v-5.71h1.078l1.61 4.656h.023l1.617-4.657h1.078v5.711h-.727v-3.464a25.846 25.846 0 0 1 .027-.965c.011-.185.02-.373.028-.563h-.031l-1.746 4.992h-.598M51.548 15.902l-.145-.593h-.03a2.63 2.63 0 0 1-.259.304c-.086.084-.18.153-.281.207a1.25 1.25 0 0 1-.34.121c-.125.026-.27.04-.433.04-.18 0-.345-.027-.497-.079a1.052 1.052 0 0 1-.394-.23 1.122 1.122 0 0 1-.258-.399 1.577 1.577 0 0 1-.094-.57c0-.427.15-.755.45-.984.302-.23.76-.354 1.375-.375l.718-.028v-.27a1.4 1.4 0 0 0-.058-.437.65.65 0 0 0-.164-.28.592.592 0 0 0-.266-.157 1.253 1.253 0 0 0-.36-.047c-.215 0-.417.031-.605.094a3.88 3.88 0 0 0-.535.226l-.25-.535c.193-.104.408-.193.645-.265.237-.073.485-.11.746-.11.265 0 .494.028.687.082.196.052.356.137.48.254.128.115.223.262.286.441.062.18.094.398.094.653v2.937h-.512m-1.305-.496c.159 0 .306-.024.442-.074a.953.953 0 0 0 .351-.223c.1-.101.176-.227.23-.379a1.54 1.54 0 0 0 .087-.539v-.386l-.56.027a2.87 2.87 0 0 0-.589.078c-.159.042-.286.1-.383.176a.624.624 0 0 0-.203.27.95.95 0 0 0-.062.355c0 .24.062.415.187.527a.73.73 0 0 0 .5.168M56.06 15.902v-2.761c0-.339-.07-.593-.207-.762-.136-.17-.35-.254-.641-.254-.211 0-.388.034-.531.102a.845.845 0 0 0-.348.3 1.406 1.406 0 0 0-.187.489 3.6 3.6 0 0 0-.055.664v2.222h-.711v-4.289h.578l.102.578h.039c.065-.112.142-.208.23-.289a1.352 1.352 0 0 1 .637-.328c.12-.026.242-.039.367-.039.477 0 .835.125 1.074.375.242.248.363.645.364 1.192v2.8h-.711M60.517 15.902l-.145-.593h-.031a2.63 2.63 0 0 1-.258.304c-.086.084-.18.153-.281.207a1.25 1.25 0 0 1-.34.121c-.125.026-.27.04-.434.04-.18 0-.345-.027-.496-.079a1.052 1.052 0 0 1-.394-.23 1.122 1.122 0 0 1-.258-.399 1.577 1.577 0 0 1-.094-.57c0-.427.15-.755.45-.984.301-.23.76-.354 1.374-.375l.72-.028v-.27a1.4 1.4 0 0 0-.06-.437.65.65 0 0 0-.164-.28.592.592 0 0 0-.265-.157 1.253 1.253 0 0 0-.36-.047c-.216 0-.418.031-.605.094a3.88 3.88 0 0 0-.535.226l-.25-.535c.193-.104.407-.193.644-.265.237-.073.486-.11.746-.11.266 0 .495.028.688.082.195.052.355.137.48.254.128.115.223.262.286.441.062.18.093.398.093.653v2.937h-.511m-1.305-.496c.159 0 .306-.024.441-.074a.953.953 0 0 0 .352-.223c.099-.101.176-.227.23-.379a1.54 1.54 0 0 0 .086-.539v-.386l-.558.027a2.87 2.87 0 0 0-.59.078c-.159.042-.287.1-.383.176a.624.624 0 0 0-.203.27.95.95 0 0 0-.063.355c0 .24.063.415.188.527a.73.73 0 0 0 .5.168M65.653 11.613v.442l-.77.105c.074.091.135.208.184.352.05.14.075.3.075.48 0 .198-.032.382-.094.551-.06.167-.152.311-.277.434a1.295 1.295 0 0 1-.458.289 1.825 1.825 0 0 1-.636.101h-.172a.881.881 0 0 1-.14-.015 1.326 1.326 0 0 0-.134.09.635.635 0 0 0-.203.25.459.459 0 0 0-.03.171c0 .07.015.128.046.172a.313.313 0 0 0 .125.098c.055.023.118.039.191.047.073.007.15.011.23.011h.688c.242 0 .447.032.614.094.166.06.302.142.406.246a.903.903 0 0 1 .23.371c.047.141.07.29.07.45 0 .229-.042.434-.128.617a1.151 1.151 0 0 1-.387.46 1.905 1.905 0 0 1-.664.294c-.266.067-.58.101-.941.101-.28 0-.523-.027-.73-.082a1.475 1.475 0 0 1-.52-.238 1.015 1.015 0 0 1-.313-.379 1.165 1.165 0 0 1-.102-.496c0-.156.025-.294.075-.414.052-.117.12-.219.207-.305.086-.086.185-.156.297-.21.114-.055.233-.097.355-.126a.652.652 0 0 1-.375-.602c0-.158.042-.295.125-.41.083-.117.215-.23.395-.34a1.152 1.152 0 0 1-.309-.19 1.346 1.346 0 0 1-.234-.282 1.537 1.537 0 0 1-.149-.348 1.473 1.473 0 0 1-.05-.386c0-.232.032-.44.097-.621.065-.183.162-.338.29-.465a1.26 1.26 0 0 1 .476-.293c.19-.068.411-.102.664-.102.096 0 .195.008.297.024.104.013.191.03.261.054h1.418m-3.168 4.992a.71.71 0 0 0 .051.27.523.523 0 0 0 .164.215c.078.06.18.107.305.14.127.037.285.055.473.055.484 0 .846-.075 1.085-.226a.712.712 0 0 0 .364-.645.775.775 0 0 0-.047-.293.374.374 0 0 0-.156-.18.748.748 0 0 0-.282-.086 3.324 3.324 0 0 0-.43-.023h-.687c-.091 0-.186.01-.285.031a.751.751 0 0 0-.273.117.69.69 0 0 0-.204.235.855.855 0 0 0-.078.39m.36-3.613c0 .3.07.522.21.668.141.146.34.219.598.219.26 0 .457-.072.59-.215.136-.146.203-.374.203-.684 0-.32-.069-.556-.207-.707-.135-.15-.333-.226-.593-.226-.258 0-.456.078-.594.234-.138.156-.207.393-.207.711M68.185 15.98c-.287 0-.549-.048-.786-.144a1.702 1.702 0 0 1-.613-.422 1.93 1.93 0 0 1-.394-.687 2.884 2.884 0 0 1-.141-.938c0-.354.043-.67.129-.95.086-.278.207-.513.363-.706.156-.195.343-.344.559-.446.219-.101.46-.152.722-.152.258 0 .49.047.696.14.205.092.38.222.523.391.143.167.253.369.328.606.078.234.117.495.117.781v.442h-2.703c.013.502.119.872.317 1.109.2.237.497.355.89.355a3.19 3.19 0 0 0 .696-.074 2.835 2.835 0 0 0 .61-.223v.633c-.105.05-.208.093-.31.13a2.543 2.543 0 0 1-.637.14 3.98 3.98 0 0 1-.366.015m-.176-3.855c-.297 0-.533.102-.707.305-.172.203-.272.498-.301.886h1.922c0-.177-.018-.338-.055-.484a1.027 1.027 0 0 0-.164-.379.744.744 0 0 0-.281-.242.918.918 0 0 0-.414-.086M72.626 11.535c.075 0 .16.004.254.012.094.005.174.014.242.027l-.094.656a2.975 2.975 0 0 0-.226-.03 1.578 1.578 0 0 0-.215-.016.996.996 0 0 0-.8.387c-.097.122-.173.27-.227.445a1.976 1.976 0 0 0-.079.574v2.312h-.71v-4.289h.578l.086.785h.03c.066-.112.135-.22.208-.324.075-.104.159-.195.25-.273.094-.081.198-.145.312-.192a.977.977 0 0 1 .391-.074"/></g><g style="line-height:125%;-inkscape-font-specification:'Droid Sans';text-align:start" font-weight="400" font-size="8" font-family="Droid Sans" fill="#666"><path d="M27.806 24.191h1.558c.334 0 .627.026.88.079.254.049.467.131.636.246.172.112.3.26.387.445.086.182.129.407.129.676 0 .161-.027.312-.079.453-.05.14-.122.264-.218.37a1.228 1.228 0 0 1-.36.27c-.14.07-.3.118-.48.141v.04c.18.03.347.076.504.136.159.057.297.138.414.242.117.102.21.23.277.387.068.156.102.346.102.57a1.8 1.8 0 0 1-.13.7 1.39 1.39 0 0 1-.366.519 1.64 1.64 0 0 1-.582.324c-.23.076-.489.113-.778.113h-1.894v-5.71m.726 2.421h.953a2.2 2.2 0 0 0 .551-.058.925.925 0 0 0 .36-.172.65.65 0 0 0 .195-.29 1.21 1.21 0 0 0 .062-.405c0-.313-.1-.537-.3-.672-.201-.136-.517-.203-.95-.203h-.87v1.8m0 .61v2.062h1.038c.23 0 .42-.026.575-.078a.94.94 0 0 0 .375-.219.803.803 0 0 0 .207-.336c.041-.132.062-.278.062-.437 0-.146-.022-.28-.066-.402a.71.71 0 0 0-.211-.313.956.956 0 0 0-.387-.203 2.082 2.082 0 0 0-.602-.074h-.992M34.532 25.535c.076 0 .16.004.254.012.094.005.175.014.242.027l-.093.656a2.975 2.975 0 0 0-.227-.03 1.578 1.578 0 0 0-.215-.016.996.996 0 0 0-.8.387c-.097.122-.172.27-.227.445a1.976 1.976 0 0 0-.078.574v2.312h-.711v-4.289h.578l.086.785h.031c.065-.112.134-.22.207-.324.076-.104.159-.195.25-.273.094-.081.198-.145.313-.192a.977.977 0 0 1 .39-.074M39.36 27.75c0 .357-.044.674-.132.953-.086.276-.211.51-.375.7-.162.187-.359.33-.59.429a1.971 1.971 0 0 1-.782.148c-.268 0-.515-.049-.742-.148a1.682 1.682 0 0 1-.59-.43 2.08 2.08 0 0 1-.386-.699 3.062 3.062 0 0 1-.137-.953c0-.354.043-.668.129-.941.088-.276.213-.508.375-.696.161-.19.358-.333.59-.43a2 2 0 0 1 .785-.148c.268 0 .516.05.742.149.227.096.422.24.586.43.167.187.296.419.387.695.093.273.14.587.14.941m-3 0c0 .544.089.954.266 1.23.18.274.47.41.871.41s.689-.136.863-.41c.177-.276.266-.686.266-1.23 0-.544-.09-.95-.27-1.219-.177-.27-.466-.406-.867-.406-.4 0-.69.135-.867.406-.174.268-.262.675-.262 1.219M43.747 29.902l-.656-2.406a3.425 3.425 0 0 0-.04-.156 9.763 9.763 0 0 1-.046-.188 7.554 7.554 0 0 0-.05-.199 962.331 962.331 0 0 0-.16-.668h-.024l-.106.473a17.273 17.273 0 0 1-.184.754l-.671 2.39h-.825l-1.097-4.289h.746l.512 2.282a22.23 22.23 0 0 1 .258 1.457h.023l.05-.27.075-.36c.028-.127.057-.252.086-.374.028-.125.056-.23.082-.317l.699-2.418h.766l.671 2.418c.024.089.05.193.079.313a12.66 12.66 0 0 1 .218 1.008h.024a11.9 11.9 0 0 1 .035-.27 28.063 28.063 0 0 1 .137-.789c.028-.143.057-.276.086-.398l.535-2.282h.726l-1.109 4.29h-.84M49.024 28.727c0 .208-.037.39-.113.546a1.064 1.064 0 0 1-.328.395c-.14.104-.311.182-.512.234-.2.052-.425.078-.675.078a3.29 3.29 0 0 1-.731-.07 1.858 1.858 0 0 1-.535-.2v-.647c.08.041.17.083.27.125a3.38 3.38 0 0 0 .648.183 2.259 2.259 0 0 0 .777-.016.826.826 0 0 0 .29-.12.487.487 0 0 0 .163-.196.642.642 0 0 0 .012-.476.524.524 0 0 0-.144-.192 1.31 1.31 0 0 0-.282-.195 5.766 5.766 0 0 0-.46-.219 7.973 7.973 0 0 1-.508-.238 1.764 1.764 0 0 1-.38-.262 1.038 1.038 0 0 1-.242-.332 1.145 1.145 0 0 1-.082-.453c0-.182.036-.344.106-.484.073-.144.174-.264.305-.36.13-.096.286-.17.468-.219.183-.05.386-.074.61-.074.252 0 .483.028.691.082.211.055.41.127.598.215l-.246.574a4.499 4.499 0 0 0-.524-.195 1.754 1.754 0 0 0-.543-.086c-.265 0-.462.044-.59.133a.42.42 0 0 0-.191.37c0 .092.014.171.043.24a.552.552 0 0 0 .156.19c.073.06.17.122.293.184.123.06.275.128.457.203.188.078.354.157.5.235.149.078.275.166.38.265a.99.99 0 0 1 .237.332c.055.125.082.275.082.45M51.763 29.98c-.287 0-.548-.048-.785-.144a1.702 1.702 0 0 1-.614-.422 1.93 1.93 0 0 1-.394-.687 2.884 2.884 0 0 1-.14-.938c0-.354.042-.67.128-.95.086-.278.207-.513.363-.706.157-.195.343-.344.559-.446.219-.101.46-.152.723-.152.257 0 .49.047.695.14.206.092.38.222.523.391.144.167.253.369.328.606.079.234.118.495.118.781v.442h-2.704c.013.502.119.872.317 1.109.2.237.497.355.89.355a3.19 3.19 0 0 0 .696-.074 2.835 2.835 0 0 0 .61-.223v.633c-.105.05-.208.093-.31.13a2.543 2.543 0 0 1-.637.14 3.98 3.98 0 0 1-.366.015m-.176-3.855c-.297 0-.533.102-.707.305-.172.203-.272.498-.3.886H52.5c0-.177-.018-.338-.055-.484a1.027 1.027 0 0 0-.164-.379.744.744 0 0 0-.281-.242.918.918 0 0 0-.414-.086M56.204 25.535c.076 0 .16.004.254.012.094.005.174.014.242.027l-.094.656a2.975 2.975 0 0 0-.226-.03 1.578 1.578 0 0 0-.215-.016.996.996 0 0 0-.8.387c-.097.122-.173.27-.227.445a1.976 1.976 0 0 0-.078.574v2.312h-.711v-4.289h.578l.086.785h.03c.066-.112.135-.22.208-.324.075-.104.159-.195.25-.273.094-.081.198-.145.312-.192a.977.977 0 0 1 .391-.074"/></g><g style="line-height:125%;-inkscape-font-specification:'Droid Sans';text-align:start" font-weight="400" font-size="8" font-family="Droid Sans" fill="#666"><path d="M30.165 43.902l-1.73-5h-.032a21.994 21.994 0 0 1 .063 1.094c.008.18.012.344.012.492v3.414h-.672v-5.71h1.078l1.61 4.656h.023l1.617-4.657h1.078v5.711h-.727v-3.465a25.846 25.846 0 0 1 .027-.965c.011-.184.02-.372.028-.562h-.031l-1.746 4.992h-.598M37.095 43.902l-.145-.593h-.031a2.63 2.63 0 0 1-.258.304c-.086.084-.18.153-.281.207a1.25 1.25 0 0 1-.34.121c-.125.026-.27.04-.434.04-.18 0-.345-.027-.496-.079a1.052 1.052 0 0 1-.394-.23 1.121 1.121 0 0 1-.258-.399 1.577 1.577 0 0 1-.094-.57c0-.427.15-.755.45-.984.302-.23.76-.354 1.374-.375l.72-.028v-.27a1.4 1.4 0 0 0-.06-.437.65.65 0 0 0-.163-.28.592.592 0 0 0-.266-.157 1.253 1.253 0 0 0-.36-.047c-.216 0-.417.031-.605.094a3.88 3.88 0 0 0-.535.226l-.25-.535c.193-.104.408-.193.644-.265.237-.073.486-.11.747-.11.265 0 .494.028.687.082.195.052.356.137.48.254.128.115.223.262.286.441.062.18.093.398.093.653v2.937h-.511m-1.305-.496c.159 0 .306-.024.441-.074a.953.953 0 0 0 .352-.223c.099-.101.176-.227.23-.379a1.54 1.54 0 0 0 .086-.539v-.386l-.558.027a2.87 2.87 0 0 0-.59.078c-.159.042-.286.1-.383.176a.624.624 0 0 0-.203.27.95.95 0 0 0-.062.355c0 .24.062.415.187.527a.73.73 0 0 0 .5.168M39.638 43.902h-.711v-4.289h.71v4.29m-.765-5.45c0-.156.04-.27.117-.34.081-.07.18-.105.297-.105.057 0 .11.009.16.027a.31.31 0 0 1 .133.078c.04.037.07.084.09.14a.505.505 0 0 1 .035.2c0 .151-.042.264-.125.34a.422.422 0 0 1-.293.11.427.427 0 0 1-.297-.11c-.078-.073-.117-.186-.117-.34M41.716 43.902h-.711v-6.078h.71v6.078M46.802 43.98c-.263 0-.51-.04-.739-.12a1.548 1.548 0 0 1-.597-.391 1.889 1.889 0 0 1-.399-.684 3.085 3.085 0 0 1-.144-1.004c0-.409.05-.755.148-1.039.1-.286.235-.518.407-.695.174-.18.377-.31.609-.39.232-.081.48-.122.746-.122a2.644 2.644 0 0 1 1.082.23l-.21.602a2.156 2.156 0 0 0-.2-.074 2.078 2.078 0 0 0-.227-.066 1.906 1.906 0 0 0-.23-.047 1.267 1.267 0 0 0-.215-.02c-.409 0-.707.132-.895.395-.187.26-.28.666-.28 1.218 0 .55.093.952.28 1.207.19.253.478.38.864.38.21 0 .4-.024.57-.07.172-.05.328-.108.469-.173v.633c-.14.076-.292.133-.453.172-.16.039-.354.058-.586.058M49.575 43.902h-.71v-6.078h.71v6.078M51.653 43.902h-.71v-4.289h.71v4.29m-.765-5.45c0-.156.039-.27.117-.34.08-.07.18-.105.297-.105.057 0 .11.009.16.027a.31.31 0 0 1 .133.078c.039.037.069.084.09.14a.505.505 0 0 1 .035.2c0 .151-.042.264-.125.34a.422.422 0 0 1-.293.11.427.427 0 0 1-.297-.11c-.078-.073-.117-.186-.117-.34M54.716 43.98c-.287 0-.548-.048-.785-.144a1.702 1.702 0 0 1-.614-.422 1.93 1.93 0 0 1-.394-.687 2.884 2.884 0 0 1-.14-.938c0-.354.042-.67.128-.95.086-.278.207-.513.363-.706.157-.195.343-.344.559-.446.219-.101.46-.152.723-.152.257 0 .49.047.695.14.206.092.38.222.523.391.144.167.253.369.329.606.078.234.117.495.117.781v.442h-2.703c.013.502.118.872.316 1.109.2.237.497.355.89.355a3.19 3.19 0 0 0 .696-.074 2.835 2.835 0 0 0 .61-.223v.633c-.105.05-.208.093-.31.13a2.542 2.542 0 0 1-.637.14 3.98 3.98 0 0 1-.366.015m-.176-3.855c-.297 0-.533.102-.707.305-.172.203-.272.498-.3.886h1.921c0-.177-.018-.338-.055-.484a1.027 1.027 0 0 0-.164-.379.744.744 0 0 0-.28-.242.918.918 0 0 0-.415-.086M59.981 43.902v-2.761c0-.339-.069-.593-.207-.762-.135-.17-.349-.254-.64-.254-.211 0-.388.034-.531.102a.845.845 0 0 0-.348.3 1.406 1.406 0 0 0-.188.489 3.6 3.6 0 0 0-.054.664v2.222h-.711v-4.289h.578l.101.578h.04c.065-.112.141-.208.23-.289a1.352 1.352 0 0 1 .637-.328c.12-.026.242-.039.367-.039.476 0 .835.125 1.074.375.242.248.363.645.363 1.192v2.8h-.71M63.317 43.398c.047 0 .1-.002.157-.007.06-.006.117-.012.172-.02a1.703 1.703 0 0 0 .253-.055v.54a1.4 1.4 0 0 1-.3.086 1.533 1.533 0 0 1-.196.027 1.74 1.74 0 0 1-.199.011c-.161 0-.311-.02-.45-.062a.847.847 0 0 1-.358-.215 1.056 1.056 0 0 1-.235-.41 2.133 2.133 0 0 1-.086-.656v-2.489h-.605v-.316l.605-.305.305-.898h.41v.984h1.078v.535H62.79v2.489c0 .252.04.442.121.57.083.128.219.191.406.191"/></g><g style="line-height:125%;-inkscape-font-specification:'Droid Sans';text-align:start" font-weight="400" font-size="8" font-family="Droid Sans" fill="#666"><path d="M29.47 57.902h-.73v-5.07h-1.634v-.64H31.1v.64h-1.63v5.07M33.075 57.98c-.286 0-.548-.048-.785-.144a1.702 1.702 0 0 1-.613-.422 1.93 1.93 0 0 1-.395-.687 2.884 2.884 0 0 1-.14-.938c0-.354.043-.67.129-.95.085-.278.207-.513.363-.706.156-.195.342-.344.558-.446.22-.101.46-.152.723-.152.258 0 .49.047.695.14.206.092.38.222.524.391.143.167.252.369.328.606.078.234.117.495.117.781v.442h-2.703c.013.502.118.872.316 1.109.2.237.498.355.891.355a3.19 3.19 0 0 0 .695-.074 2.835 2.835 0 0 0 .61-.223v.633c-.104.05-.207.093-.309.13a2.542 2.542 0 0 1-.637.14 3.98 3.98 0 0 1-.367.015m-.176-3.855c-.296 0-.532.102-.707.305-.171.203-.272.498-.3.886h1.921c0-.177-.018-.338-.054-.484a1.027 1.027 0 0 0-.164-.379.744.744 0 0 0-.282-.242.918.918 0 0 0-.414-.086M36.575 55.703l-1.379-2.09h.809l.976 1.602.977-1.602h.809l-1.387 2.09 1.457 2.2h-.809l-1.047-1.704-1.054 1.703h-.809l1.457-2.199M40.958 57.398a3.135 3.135 0 0 0 .328-.027 1.703 1.703 0 0 0 .254-.055v.54a1.4 1.4 0 0 1-.3.086 1.533 1.533 0 0 1-.196.027 1.74 1.74 0 0 1-.2.011c-.16 0-.31-.02-.448-.062a.847.847 0 0 1-.36-.215 1.056 1.056 0 0 1-.234-.41 2.133 2.133 0 0 1-.086-.656v-2.489h-.606v-.316l.606-.305.305-.898h.41v.984h1.078v.535H40.43v2.489c0 .252.04.442.12.57.084.128.22.191.407.191M46.153 57.98c-.286 0-.548-.048-.785-.144a1.702 1.702 0 0 1-.613-.422 1.93 1.93 0 0 1-.395-.687 2.884 2.884 0 0 1-.14-.938c0-.354.043-.67.129-.95.086-.278.207-.513.363-.706.156-.195.342-.344.559-.446.218-.101.46-.152.722-.152.258 0 .49.047.695.14.206.092.38.222.524.391.143.167.253.369.328.606.078.234.117.495.117.781v.442h-2.703c.013.502.119.872.317 1.109.2.237.497.355.89.355a3.19 3.19 0 0 0 .695-.074 2.835 2.835 0 0 0 .61-.223v.633c-.104.05-.207.093-.309.13a2.542 2.542 0 0 1-.637.14 3.98 3.98 0 0 1-.367.015m-.175-3.855c-.297 0-.533.102-.707.305-.172.203-.273.498-.301.886h1.922c0-.177-.019-.338-.055-.484a1.027 1.027 0 0 0-.164-.379.744.744 0 0 0-.281-.242.918.918 0 0 0-.414-.086M51.388 57.328h-.032a1.67 1.67 0 0 1-.203.254 1.303 1.303 0 0 1-.602.348c-.124.034-.265.05-.421.05-.242 0-.464-.046-.664-.14a1.394 1.394 0 0 1-.516-.418 2.055 2.055 0 0 1-.332-.695 3.542 3.542 0 0 1-.117-.961c0-.368.039-.69.117-.965.078-.279.189-.512.332-.7a1.38 1.38 0 0 1 .516-.421c.2-.097.422-.145.664-.145.154 0 .293.017.418.05a1.396 1.396 0 0 1 .808.575h.047a29.77 29.77 0 0 0-.023-.254l-.016-.207a2.563 2.563 0 0 1-.008-.172v-1.703h.711v6.078h-.574l-.105-.574m-1.121.063c.198 0 .364-.03.5-.09a.758.758 0 0 0 .332-.274 1.24 1.24 0 0 0 .187-.457c.042-.185.065-.4.07-.644v-.16a3.99 3.99 0 0 0-.054-.7 1.399 1.399 0 0 0-.18-.515.802.802 0 0 0-.336-.317 1.138 1.138 0 0 0-.527-.109c-.352 0-.61.142-.778.426-.164.284-.246.691-.246 1.222 0 .545.082.951.246 1.22.167.265.429.398.786.398M54.138 57.902h-.711v-4.289h.71v4.29m-.765-5.45c0-.156.04-.27.117-.34.081-.07.18-.105.297-.105.057 0 .11.009.16.027a.31.31 0 0 1 .133.078c.04.037.07.084.09.14a.505.505 0 0 1 .035.2c0 .151-.042.264-.125.34a.422.422 0 0 1-.293.11.427.427 0 0 1-.297-.11c-.078-.073-.117-.186-.117-.34M56.802 57.398a3.135 3.135 0 0 0 .328-.027 1.703 1.703 0 0 0 .254-.055v.54a1.4 1.4 0 0 1-.3.086 1.533 1.533 0 0 1-.196.027 1.74 1.74 0 0 1-.2.011c-.161 0-.31-.02-.449-.062a.847.847 0 0 1-.36-.215 1.056 1.056 0 0 1-.233-.41 2.133 2.133 0 0 1-.086-.656v-2.489h-.606v-.316l.606-.305.304-.898h.41v.984h1.079v.535h-1.079v2.489c0 .252.04.442.122.57.083.128.218.191.406.191M61.72 55.75c0 .357-.045.674-.133.953-.086.276-.211.51-.375.7-.162.187-.358.33-.59.429a1.971 1.971 0 0 1-.781.148c-.268 0-.516-.049-.742-.148a1.682 1.682 0 0 1-.59-.43 2.08 2.08 0 0 1-.387-.699 3.062 3.062 0 0 1-.137-.953c0-.354.043-.668.13-.941.088-.276.213-.508.374-.696.162-.19.358-.333.59-.43a2 2 0 0 1 .785-.148c.268 0 .516.05.742.149.227.096.422.24.586.43.167.187.296.419.387.695.094.273.14.587.14.941m-3 0c0 .544.09.954.266 1.23.18.274.47.41.871.41s.69-.136.864-.41c.177-.276.265-.686.265-1.23 0-.544-.09-.95-.27-1.219-.176-.27-.465-.406-.866-.406-.401 0-.69.135-.868.406-.174.268-.261.675-.261 1.219M64.704 53.535c.076 0 .16.004.254.012.094.005.174.014.242.027l-.094.656a2.975 2.975 0 0 0-.226-.03 1.578 1.578 0 0 0-.215-.016.996.996 0 0 0-.8.387c-.097.122-.173.27-.227.445a1.976 1.976 0 0 0-.078.574v2.312h-.711v-4.289h.578l.086.785h.03c.066-.112.135-.22.208-.324.075-.104.159-.195.25-.273.094-.081.198-.145.312-.192a.977.977 0 0 1 .391-.074"/></g><g style="line-height:125%;-inkscape-font-specification:'Droid Sans';text-align:start" font-weight="400" font-size="8" font-family="Droid Sans" fill="#fff"><path d="M31.228 67.863c0 .237-.037.465-.11.684-.07.219-.187.413-.351.582-.164.167-.382.3-.653.402-.268.1-.6.149-.996.149h-.586v2.222h-.726v-5.71h1.414c.349 0 .65.037.902.113.253.073.461.18.625.324.164.14.285.315.363.523.078.209.118.446.118.711m-2.696 1.2h.504c.242 0 .453-.021.633-.063.182-.042.332-.108.45-.2a.864.864 0 0 0 .269-.359c.06-.148.09-.328.09-.539 0-.37-.107-.643-.32-.82-.214-.18-.548-.27-1-.27h-.626v2.25M34.997 71.902v-2.761c0-.339-.069-.593-.207-.762-.135-.17-.349-.254-.64-.254-.212 0-.389.034-.532.102a.845.845 0 0 0-.347.3 1.406 1.406 0 0 0-.188.489 3.6 3.6 0 0 0-.055.664v2.222h-.71v-6.078h.71v1.805l-.03.562h.038c.065-.112.142-.208.23-.289a1.352 1.352 0 0 1 .637-.328c.12-.026.243-.039.368-.039.476 0 .834.125 1.074.375.242.248.363.645.363 1.192v2.8h-.71M40.532 69.75c0 .357-.044.674-.133.953-.086.276-.21.51-.375.7-.161.187-.358.33-.59.429a1.971 1.971 0 0 1-.78.148c-.269 0-.516-.049-.743-.148a1.682 1.682 0 0 1-.59-.43 2.08 2.08 0 0 1-.386-.699 3.062 3.062 0 0 1-.137-.953c0-.354.043-.668.129-.941.088-.276.213-.508.375-.696.161-.19.358-.333.59-.43a2 2 0 0 1 .785-.148c.268 0 .515.05.742.149.227.096.422.24.586.43.167.187.295.419.387.695.093.273.14.587.14.941m-3 0c0 .544.089.954.266 1.23.18.274.47.41.87.41.402 0 .69-.136.864-.41.177-.276.266-.686.266-1.23 0-.544-.09-.95-.27-1.219-.177-.27-.466-.406-.867-.406-.4 0-.69.135-.867.406-.175.268-.262.675-.262 1.219M42.958 71.398a3.135 3.135 0 0 0 .328-.027 1.703 1.703 0 0 0 .254-.055v.54a1.4 1.4 0 0 1-.3.086 1.533 1.533 0 0 1-.196.027 1.74 1.74 0 0 1-.2.011c-.16 0-.31-.02-.448-.062a.847.847 0 0 1-.36-.215 1.056 1.056 0 0 1-.234-.41 2.133 2.133 0 0 1-.086-.656v-2.489h-.606v-.316l.606-.305.305-.898h.41v.984h1.078v.535H42.43v2.489c0 .252.04.442.12.57.084.128.22.191.407.191M47.876 69.75c0 .357-.044.674-.133.953-.086.276-.21.51-.375.7-.161.187-.358.33-.59.429a1.971 1.971 0 0 1-.78.148c-.27 0-.517-.049-.743-.148a1.682 1.682 0 0 1-.59-.43 2.08 2.08 0 0 1-.387-.699 3.062 3.062 0 0 1-.136-.953c0-.354.043-.668.129-.941.088-.276.213-.508.375-.696.161-.19.358-.333.59-.43a2 2 0 0 1 .785-.148c.268 0 .515.05.742.149.226.096.422.24.586.43.166.187.295.419.386.695.094.273.141.587.141.941m-3 0c0 .544.089.954.266 1.23.18.274.47.41.87.41.402 0 .69-.136.864-.41.177-.276.266-.686.266-1.23 0-.544-.09-.95-.27-1.219-.177-.27-.466-.406-.867-.406-.401 0-.69.135-.867.406-.175.268-.262.675-.262 1.219M52.778 71.98c-.286 0-.548-.048-.785-.144a1.702 1.702 0 0 1-.613-.422 1.93 1.93 0 0 1-.395-.687 2.884 2.884 0 0 1-.14-.938c0-.354.043-.67.129-.95.086-.278.207-.513.363-.706.156-.195.342-.344.559-.445.218-.102.46-.153.722-.153.258 0 .49.047.695.14.206.092.38.222.524.391.143.167.253.369.328.606.078.234.117.495.117.781v.442H51.58c.013.502.119.872.317 1.109.2.237.497.355.89.355a3.19 3.19 0 0 0 .695-.074 2.835 2.835 0 0 0 .61-.223v.633c-.104.05-.207.093-.309.13a2.543 2.543 0 0 1-.637.14 3.98 3.98 0 0 1-.367.015m-.175-3.855c-.297 0-.533.102-.707.305-.172.203-.273.498-.301.886h1.922c0-.177-.019-.338-.055-.484a1.027 1.027 0 0 0-.164-.379.744.744 0 0 0-.281-.242.918.918 0 0 0-.414-.086M58.013 71.328h-.032a1.67 1.67 0 0 1-.203.254 1.303 1.303 0 0 1-.602.348c-.124.034-.265.05-.421.05-.242 0-.464-.046-.664-.14a1.394 1.394 0 0 1-.516-.418 2.055 2.055 0 0 1-.332-.695 3.542 3.542 0 0 1-.117-.961c0-.368.039-.69.117-.965.078-.279.189-.512.332-.7a1.38 1.38 0 0 1 .516-.421c.2-.097.422-.145.664-.145.154 0 .293.017.418.05a1.396 1.396 0 0 1 .808.575h.047a29.77 29.77 0 0 0-.023-.254l-.016-.207a2.563 2.563 0 0 1-.008-.172v-1.703h.711v6.078h-.574l-.105-.574m-1.121.063c.198 0 .364-.03.5-.09a.758.758 0 0 0 .332-.274 1.24 1.24 0 0 0 .187-.457c.042-.185.065-.4.07-.644v-.16a3.99 3.99 0 0 0-.054-.7 1.399 1.399 0 0 0-.18-.515.802.802 0 0 0-.336-.317 1.138 1.138 0 0 0-.527-.109c-.352 0-.61.142-.778.426-.164.284-.246.691-.246 1.222 0 .545.082.951.246 1.22.167.265.429.398.786.398M60.763 71.902h-.711v-4.289h.71v4.29m-.765-5.45c0-.156.04-.27.117-.34.081-.07.18-.105.297-.105.057 0 .11.009.16.027a.31.31 0 0 1 .133.078c.04.037.07.084.09.14a.505.505 0 0 1 .035.2c0 .151-.042.264-.125.34a.422.422 0 0 1-.293.11.427.427 0 0 1-.297-.11c-.078-.073-.117-.186-.117-.34M63.427 71.398a3.135 3.135 0 0 0 .328-.027 1.703 1.703 0 0 0 .254-.055v.54a1.4 1.4 0 0 1-.3.086 1.533 1.533 0 0 1-.196.027 1.74 1.74 0 0 1-.2.011c-.161 0-.31-.02-.449-.062a.847.847 0 0 1-.36-.215 1.056 1.056 0 0 1-.233-.41 2.133 2.133 0 0 1-.086-.656v-2.489h-.606v-.316l.606-.305.304-.898h.41v.984h1.079v.535h-1.079v2.489c0 .252.04.442.122.57.083.128.218.191.406.191M68.345 69.75c0 .357-.045.674-.133.953-.086.276-.211.51-.375.7-.162.187-.358.33-.59.429a1.971 1.971 0 0 1-.781.148c-.268 0-.516-.049-.742-.148a1.682 1.682 0 0 1-.59-.43 2.08 2.08 0 0 1-.387-.699 3.062 3.062 0 0 1-.137-.953c0-.354.043-.668.13-.941.088-.276.213-.508.374-.696.162-.19.358-.333.59-.43a2 2 0 0 1 .785-.148c.268 0 .516.05.742.149.227.096.422.24.586.43.167.187.296.419.387.695.094.273.14.587.14.941m-3 0c0 .544.09.954.266 1.23.18.274.47.41.871.41s.69-.136.864-.41c.177-.276.265-.686.265-1.23 0-.544-.09-.95-.27-1.219-.176-.27-.465-.406-.866-.406-.401 0-.69.135-.868.406-.174.268-.261.675-.261 1.219M71.33 67.535c.075 0 .16.004.253.012.094.005.174.014.242.027l-.094.656a2.975 2.975 0 0 0-.226-.03 1.578 1.578 0 0 0-.215-.016.996.996 0 0 0-.8.387c-.097.122-.173.27-.227.445a1.976 1.976 0 0 0-.078.574v2.312h-.711v-4.289h.578l.086.785h.03c.066-.112.135-.22.208-.324.075-.104.159-.195.25-.273.094-.081.198-.145.312-.192a.977.977 0 0 1 .391-.074"/></g><g style="line-height:125%;-inkscape-font-specification:'Droid Sans';text-align:start" font-weight="400" font-size="8" font-family="Droid Sans" fill="#666"><path d="M29.47 85.902h-.73v-5.07h-1.634v-.64H31.1v.64h-1.63v5.07M33.075 85.98c-.286 0-.548-.048-.785-.144a1.702 1.702 0 0 1-.613-.422 1.93 1.93 0 0 1-.395-.687 2.884 2.884 0 0 1-.14-.938c0-.354.043-.67.129-.95.085-.278.207-.513.363-.706.156-.195.342-.344.558-.445.22-.102.46-.153.723-.153.258 0 .49.047.695.14.206.092.38.222.524.391.143.167.252.369.328.606.078.234.117.495.117.781v.442h-2.703c.013.502.118.872.316 1.109.2.237.498.355.891.355a3.19 3.19 0 0 0 .695-.074 2.835 2.835 0 0 0 .61-.223v.633c-.104.05-.207.093-.309.13a2.543 2.543 0 0 1-.637.14 3.98 3.98 0 0 1-.367.015m-.176-3.855c-.296 0-.532.102-.707.305-.171.203-.272.498-.3.886h1.921c0-.177-.018-.338-.054-.484a1.027 1.027 0 0 0-.164-.379.744.744 0 0 0-.282-.242.918.918 0 0 0-.414-.086M37.517 81.535c.075 0 .16.004.254.012.093.005.174.014.242.027l-.094.656a2.975 2.975 0 0 0-.227-.03 1.578 1.578 0 0 0-.214-.016.996.996 0 0 0-.8.387c-.098.122-.173.27-.228.445a1.976 1.976 0 0 0-.078.574v2.312h-.71v-4.289h.577l.086.785h.031c.066-.112.135-.22.207-.324.076-.104.16-.195.25-.273.094-.081.198-.145.313-.192a.977.977 0 0 1 .39-.074M43.985 85.902v-2.761c0-.339-.065-.593-.195-.762-.13-.17-.332-.254-.605-.254-.19 0-.352.031-.485.094a.805.805 0 0 0-.328.27 1.2 1.2 0 0 0-.184.44 2.79 2.79 0 0 0-.058.606v2.367h-.715v-2.761c0-.339-.065-.593-.195-.762-.128-.17-.328-.254-.602-.254-.2 0-.368.034-.504.102a.81.81 0 0 0-.328.3c-.08.133-.14.296-.176.489a3.87 3.87 0 0 0-.05.664v2.222h-.711v-4.289h.578l.101.578h.04a1.264 1.264 0 0 1 .832-.617c.117-.026.235-.039.355-.039.312 0 .571.057.777.172.209.115.362.294.461.54h.031a1.29 1.29 0 0 1 .555-.536c.115-.06.234-.104.36-.133a1.71 1.71 0 0 1 .382-.043c.456 0 .798.125 1.028.375.231.248.347.645.347 1.192v2.8h-.71M46.731 85.902h-.71v-4.289h.71v4.29m-.765-5.45c0-.156.039-.27.117-.34.08-.07.18-.105.297-.105.057 0 .11.009.16.027a.31.31 0 0 1 .133.078c.039.037.069.084.09.14a.505.505 0 0 1 .035.2c0 .151-.042.264-.125.34a.422.422 0 0 1-.293.11.427.427 0 0 1-.297-.11c-.078-.073-.117-.186-.117-.34M50.778 85.902v-2.761c0-.339-.069-.593-.207-.762-.135-.17-.349-.254-.64-.254-.211 0-.388.034-.532.102a.845.845 0 0 0-.347.3 1.406 1.406 0 0 0-.188.489 3.6 3.6 0 0 0-.054.664v2.222h-.711v-4.289h.578l.101.578h.04c.064-.112.141-.208.23-.289a1.352 1.352 0 0 1 .637-.328c.12-.026.242-.039.367-.039.476 0 .834.125 1.074.375.242.248.363.645.363 1.192v2.8h-.71M55.235 85.902l-.144-.593h-.031a2.63 2.63 0 0 1-.258.304c-.086.084-.18.153-.281.207a1.25 1.25 0 0 1-.34.121c-.125.026-.27.04-.434.04-.18 0-.345-.027-.496-.079a1.052 1.052 0 0 1-.395-.23 1.121 1.121 0 0 1-.257-.399 1.577 1.577 0 0 1-.094-.57c0-.427.15-.755.45-.984.301-.23.76-.354 1.374-.375l.719-.028v-.27a1.4 1.4 0 0 0-.059-.437.65.65 0 0 0-.164-.28.592.592 0 0 0-.265-.157 1.253 1.253 0 0 0-.36-.047c-.216 0-.418.031-.605.094a3.88 3.88 0 0 0-.535.226l-.25-.535c.192-.104.407-.193.644-.265.237-.073.486-.11.746-.11.266 0 .495.028.688.082.195.052.355.137.48.254.128.115.223.262.285.442.063.18.094.397.094.652v2.937h-.512m-1.304-.496c.159 0 .306-.024.441-.074a.953.953 0 0 0 .352-.223c.099-.101.175-.227.23-.379a1.54 1.54 0 0 0 .086-.539v-.386l-.559.027a2.87 2.87 0 0 0-.59.078c-.158.042-.286.1-.382.176a.624.624 0 0 0-.203.27.95.95 0 0 0-.063.355c0 .24.063.415.188.527a.73.73 0 0 0 .5.168M57.778 85.902h-.71v-6.078h.71v6.078"/></g><g><path style="marker:none" d="M22 82.31a.36.36 0 0 0-.363-.356h-.705a4.072 4.072 0 0 0-.415-.996l.502-.502a.35.35 0 0 0 .007-.501l-.981-.981a.351.351 0 0 0-.501.007l-.502.502a4.072 4.072 0 0 0-.996-.415v-.705A.36.36 0 0 0 17.69 78h-1.38a.36.36 0 0 0-.357.363v.705a4.072 4.072 0 0 0-.995.415l-.502-.502a.351.351 0 0 0-.501-.007l-.981.981c-.14.14-.134.36.007.501l.502.502c-.18.307-.321.644-.415.996h-.705a.36.36 0 0 0-.363.356v1.38a.36.36 0 0 0 .363.357h.705c.094.351.236.688.415.995l-.502.502a.351.351 0 0 0-.007.501l.98.981c.14.14.36.134.502-.007l.502-.502c.307.18.644.32.995.415v.705c0 .2.16.363.357.363h1.38a.36.36 0 0 0 .356-.363v-.705c.352-.094.688-.236.996-.415l.502.502a.351.351 0 0 0 .501.007l.981-.98a.351.351 0 0 0-.007-.502l-.502-.502c.18-.307.32-.644.415-.995h.705c.2 0 .363-.16.363-.357v-1.38zm-3.488.69a1.512 1.512 0 1 1-3.025-.001 1.512 1.512 0 0 1 3.025.001z" display="block" overflow="visible" fill="url(#N)" enable-background="accumulate"/><path style="marker:none" d="M16.313 78c-.197 0-.344.175-.344.375v.688a4.083 4.083 0 0 0-1 .406l-.5-.5a.35.35 0 0 0-.5 0l-1 1a.35.35 0 0 0 0 .5l.25.25.75-.75a.35.35 0 0 1 .5 0l.5.5a4.083 4.083 0 0 1 1-.406v-.688c0-.2.147-.375.344-.375h1.375c.196 0 .343.175.343.375v.688c.352.093.693.227 1 .406l.5-.5a.35.35 0 0 1 .5 0l.75.75.25-.25a.34.34 0 0 0 .094-.25.337.337 0 0 0-.094-.25l-1-1a.35.35 0 0 0-.5 0l-.5.5a4.082 4.082 0 0 0-1-.406v-.688c0-.2-.147-.375-.343-.375h-1.375zm-3.157 3.656c-.035.1-.066.211-.094.313h-.687c-.2 0-.375.147-.375.344v1c0-.197.175-.344.375-.344h.688c.093-.352.227-.693.406-1l-.313-.313zm7.688 0l-.313.313c.18.307.313.648.407 1h.687c.2 0 .375.147.375.344v-1c0-.197-.175-.344-.375-.344h-.688a4.294 4.294 0 0 0-.093-.313zM15.562 83.5a1.537 1.537 0 0 0-.062.5c0 .834.666 1.5 1.5 1.5s1.5-.666 1.5-1.5c0-.173-.009-.345-.063-.5-.204.592-.776 1-1.437 1a1.509 1.509 0 0 1-1.438-1zm-2.406 1.844l-.187.187a.35.35 0 0 0 0 .5l.25.25.25-.25a3.987 3.987 0 0 1-.313-.687zm7.688 0a3.987 3.987 0 0 1-.313.687l.25.25.25-.25a.35.35 0 0 0 0-.5l-.187-.187z" display="block" overflow="visible" opacity=".5" enable-background="accumulate"/><path style="marker:none" d="M13.219 80.719l-.25.25a.35.35 0 0 0 0 .5l.187.187c.086-.243.186-.469.313-.687l-.25-.25zm7.562 0l-.25.25c.127.218.227.444.313.687l.187-.187a.34.34 0 0 0 .094-.25.337.337 0 0 0-.094-.25l-.25-.25zM17 81.5c-.834 0-1.5.666-1.5 1.5 0 .173.009.345.063.5.204-.592.776-1 1.437-1s1.233.408 1.438 1c.053-.155.062-.327.062-.5 0-.834-.666-1.5-1.5-1.5zm-5 2.188v1c0 .196.175.343.375.343h.688c.027.102.058.214.093.313l.313-.313a4.083 4.083 0 0 1-.406-1h-.688c-.2 0-.375-.147-.375-.344zm10 0c0 .196-.175.343-.375.343h-.688a4.082 4.082 0 0 1-.406 1l.313.313c.035-.1.066-.211.093-.313h.688c.2 0 .375-.147.375-.344v-1zm-8.781 2.593l-.25.25a.35.35 0 0 0 0 .5l1 1a.35.35 0 0 0 .5 0l.5-.5c.307.18.648.313 1 .406v.688c0 .2.147.375.344.375h1.375c.196 0 .343-.175.343-.375v-.688a4.082 4.082 0 0 0 1-.406l.5.5a.35.35 0 0 0 .5 0l1-1a.35.35 0 0 0 0-.5l-.25-.25-.75.75a.35.35 0 0 1-.5 0l-.5-.5a4.082 4.082 0 0 1-1 .406v.688c0 .2-.147.375-.343.375h-1.375c-.197 0-.344-.175-.344-.375v-.688a4.083 4.083 0 0 1-1-.406l-.5.5a.35.35 0 0 1-.5 0l-.75-.75z" display="block" overflow="visible" fill="#fff" enable-background="accumulate"/></g><g><path style="marker:none" d="M22 82.31a.36.36 0 0 0-.363-.356h-.705a4.072 4.072 0 0 0-.415-.996l.502-.502a.35.35 0 0 0 .007-.501l-.981-.981a.351.351 0 0 0-.501.007l-.502.502a4.072 4.072 0 0 0-.996-.415v-.705A.36.36 0 0 0 17.69 78h-1.38a.36.36 0 0 0-.357.363v.705a4.072 4.072 0 0 0-.995.415l-.502-.502a.351.351 0 0 0-.501-.007l-.981.981c-.14.14-.134.36.007.501l.502.502c-.18.307-.321.644-.415.996h-.705a.36.36 0 0 0-.363.356v1.38a.36.36 0 0 0 .363.357h.705c.094.351.236.688.415.995l-.502.502a.351.351 0 0 0-.007.501l.98.981c.14.14.36.134.502-.007l.502-.502c.307.18.644.32.995.415v.705c0 .2.16.363.357.363h1.38a.36.36 0 0 0 .356-.363v-.705c.352-.094.688-.236.996-.415l.502.502a.351.351 0 0 0 .501.007l.981-.98a.351.351 0 0 0-.007-.502l-.502-.502c.18-.307.32-.644.415-.995h.705c.2 0 .363-.16.363-.357v-1.38zm-3.488.69a1.512 1.512 0 1 1-3.025-.001 1.512 1.512 0 0 1 3.025.001z" display="block" overflow="visible" fill="url(#O)" enable-background="accumulate" transform="translate(0 -28)"/><path style="marker:none" d="M16.313 50c-.197 0-.344.175-.344.375v.688a4.083 4.083 0 0 0-1 .406l-.5-.5a.35.35 0 0 0-.5 0l-1 1a.35.35 0 0 0 0 .5l.25.25.75-.75a.35.35 0 0 1 .5 0l.5.5a4.083 4.083 0 0 1 1-.407v-.687c0-.2.147-.375.344-.375h1.375c.196 0 .343.175.343.375v.688c.352.093.693.227 1 .406l.5-.5a.35.35 0 0 1 .5 0l.75.75.25-.25a.34.34 0 0 0 .094-.25.337.337 0 0 0-.094-.25l-1-1a.35.35 0 0 0-.5 0l-.5.5a4.082 4.082 0 0 0-1-.407v-.687c0-.2-.147-.375-.343-.375h-1.375zm-3.157 3.656c-.035.1-.066.211-.094.313h-.687c-.2 0-.375.147-.375.343v1c0-.196.175-.343.375-.343h.688c.093-.352.227-.693.406-1l-.313-.313zm7.688 0l-.313.313c.18.307.313.648.407 1h.687c.2 0 .375.147.375.343v-1c0-.196-.175-.343-.375-.343h-.688a4.294 4.294 0 0 0-.093-.313zM15.562 55.5a1.537 1.537 0 0 0-.062.5c0 .834.666 1.5 1.5 1.5s1.5-.666 1.5-1.5c0-.173-.009-.345-.063-.5-.204.592-.776 1-1.437 1a1.509 1.509 0 0 1-1.438-1zm-2.406 1.844l-.187.187a.35.35 0 0 0 0 .5l.25.25.25-.25a3.987 3.987 0 0 1-.313-.687zm7.688 0a3.987 3.987 0 0 1-.313.687l.25.25.25-.25a.35.35 0 0 0 0-.5l-.187-.187z" display="block" overflow="visible" opacity=".5" enable-background="accumulate"/><path style="marker:none" d="M13.219 52.719l-.25.25a.35.35 0 0 0 0 .5l.187.187c.086-.243.186-.469.313-.687l-.25-.25zm7.562 0l-.25.25c.127.218.227.444.313.687l.187-.187a.34.34 0 0 0 .094-.25.337.337 0 0 0-.094-.25l-.25-.25zM17 53.5c-.834 0-1.5.666-1.5 1.5 0 .173.009.345.063.5.204-.592.776-1 1.437-1s1.233.408 1.438 1c.053-.155.062-.327.062-.5 0-.834-.666-1.5-1.5-1.5zm-5 2.188v1c0 .196.175.343.375.343h.688c.027.102.058.214.093.313l.313-.313a4.083 4.083 0 0 1-.406-1h-.688c-.2 0-.375-.147-.375-.343zm10 0c0 .196-.175.343-.375.343h-.688a4.082 4.082 0 0 1-.406 1l.313.313c.035-.1.066-.211.093-.313h.688c.2 0 .375-.147.375-.343v-1zm-8.781 2.593l-.25.25a.35.35 0 0 0 0 .5l1 1a.35.35 0 0 0 .5 0l.5-.5c.307.18.648.313 1 .407v.687c0 .2.147.375.344.375h1.375c.196 0 .343-.175.343-.375v-.688a4.082 4.082 0 0 0 1-.406l.5.5a.35.35 0 0 0 .5 0l1-1a.35.35 0 0 0 0-.5l-.25-.25-.75.75a.35.35 0 0 1-.5 0l-.5-.5a4.082 4.082 0 0 1-1 .407v.687c0 .2-.147.375-.343.375h-1.375c-.197 0-.344-.175-.344-.375v-.688a4.083 4.083 0 0 1-1-.406l-.5.5a.35.35 0 0 1-.5 0l-.75-.75z" display="block" overflow="visible" fill="#fff" enable-background="accumulate"/></g><g><path style="marker:none" d="M22 82.31a.36.36 0 0 0-.363-.356h-.705a4.072 4.072 0 0 0-.415-.996l.502-.502a.35.35 0 0 0 .007-.501l-.981-.981a.351.351 0 0 0-.501.007l-.502.502a4.072 4.072 0 0 0-.996-.415v-.705A.36.36 0 0 0 17.69 78h-1.38a.36.36 0 0 0-.357.363v.705a4.072 4.072 0 0 0-.995.415l-.502-.502a.351.351 0 0 0-.501-.007l-.981.981c-.14.14-.134.36.007.501l.502.502c-.18.307-.321.644-.415.996h-.705a.36.36 0 0 0-.363.356v1.38a.36.36 0 0 0 .363.357h.705c.094.351.236.688.415.995l-.502.502a.351.351 0 0 0-.007.501l.98.981c.14.14.36.134.502-.007l.502-.502c.307.18.644.32.995.415v.705c0 .2.16.363.357.363h1.38a.36.36 0 0 0 .356-.363v-.705c.352-.094.688-.236.996-.415l.502.502a.351.351 0 0 0 .501.007l.981-.98a.351.351 0 0 0-.007-.502l-.502-.502c.18-.307.32-.644.415-.995h.705c.2 0 .363-.16.363-.357v-1.38zm-3.488.69a1.512 1.512 0 1 1-3.025-.001 1.512 1.512 0 0 1 3.025.001z" display="block" overflow="visible" fill="url(#P)" enable-background="accumulate" transform="translate(0 -56)"/><path style="marker:none" d="M16.313 22c-.197 0-.344.175-.344.375v.688a4.083 4.083 0 0 0-1 .406l-.5-.5a.35.35 0 0 0-.5 0l-1 1a.35.35 0 0 0 0 .5l.25.25.75-.75a.35.35 0 0 1 .5 0l.5.5a4.083 4.083 0 0 1 1-.407v-.687c0-.2.147-.375.344-.375h1.375c.196 0 .343.175.343.375v.688c.352.093.693.227 1 .406l.5-.5a.35.35 0 0 1 .5 0l.75.75.25-.25a.34.34 0 0 0 .094-.25.337.337 0 0 0-.094-.25l-1-1a.35.35 0 0 0-.5 0l-.5.5a4.082 4.082 0 0 0-1-.407v-.687c0-.2-.147-.375-.343-.375h-1.375zm-3.157 3.656c-.035.1-.066.211-.094.313h-.687c-.2 0-.375.147-.375.343v1c0-.196.175-.343.375-.343h.688c.093-.352.227-.693.406-1l-.313-.313zm7.688 0l-.313.313c.18.307.313.648.407 1h.687c.2 0 .375.147.375.343v-1c0-.196-.175-.343-.375-.343h-.688a4.294 4.294 0 0 0-.093-.313zM15.562 27.5a1.537 1.537 0 0 0-.062.5c0 .834.666 1.5 1.5 1.5s1.5-.666 1.5-1.5c0-.173-.009-.345-.063-.5-.204.592-.776 1-1.437 1a1.509 1.509 0 0 1-1.438-1zm-2.406 1.844l-.187.187a.35.35 0 0 0 0 .5l.25.25.25-.25a3.987 3.987 0 0 1-.313-.687zm7.688 0a3.987 3.987 0 0 1-.313.687l.25.25.25-.25a.35.35 0 0 0 0-.5l-.187-.187z" display="block" overflow="visible" opacity=".5" enable-background="accumulate"/><path style="marker:none" d="M13.219 24.719l-.25.25a.35.35 0 0 0 0 .5l.187.187c.086-.243.186-.469.313-.687l-.25-.25zm7.562 0l-.25.25c.127.218.227.444.313.687l.187-.187a.34.34 0 0 0 .094-.25.337.337 0 0 0-.094-.25l-.25-.25zM17 25.5c-.834 0-1.5.666-1.5 1.5 0 .173.009.345.063.5.204-.592.776-1 1.437-1s1.233.408 1.438 1c.053-.155.062-.327.062-.5 0-.834-.666-1.5-1.5-1.5zm-5 2.188v1c0 .196.175.343.375.343h.688c.027.102.058.214.093.313l.313-.313a4.083 4.083 0 0 1-.406-1h-.688c-.2 0-.375-.147-.375-.343zm10 0c0 .196-.175.343-.375.343h-.688a4.082 4.082 0 0 1-.406 1l.313.313c.035-.1.066-.211.093-.313h.688c.2 0 .375-.147.375-.343v-1zm-8.781 2.593l-.25.25a.35.35 0 0 0 0 .5l1 1a.35.35 0 0 0 .5 0l.5-.5c.307.18.648.313 1 .407v.687c0 .2.147.375.344.375h1.375c.196 0 .343-.175.343-.375v-.688a4.082 4.082 0 0 0 1-.406l.5.5a.35.35 0 0 0 .5 0l1-1a.35.35 0 0 0 0-.5l-.25-.25-.75.75a.35.35 0 0 1-.5 0l-.5-.5a4.082 4.082 0 0 1-1 .407v.687c0 .2-.147.375-.343.375h-1.375c-.197 0-.344-.175-.344-.375v-.688a4.083 4.083 0 0 1-1-.406l-.5.5a.35.35 0 0 1-.5 0l-.75-.75z" display="block" overflow="visible" fill="#fff" enable-background="accumulate"/></g><g><path style="marker:none" d="M22 82.31a.36.36 0 0 0-.363-.356h-.705a4.072 4.072 0 0 0-.415-.996l.502-.502a.35.35 0 0 0 .007-.501l-.981-.981a.351.351 0 0 0-.501.007l-.502.502a4.072 4.072 0 0 0-.996-.415v-.705A.36.36 0 0 0 17.69 78h-1.38a.36.36 0 0 0-.357.363v.705a4.072 4.072 0 0 0-.995.415l-.502-.502a.351.351 0 0 0-.501-.007l-.981.981c-.14.14-.134.36.007.501l.502.502c-.18.307-.321.644-.415.996h-.705a.36.36 0 0 0-.363.356v1.38a.36.36 0 0 0 .363.357h.705c.094.351.236.688.415.995l-.502.502a.351.351 0 0 0-.007.501l.98.981c.14.14.36.134.502-.007l.502-.502c.307.18.644.32.995.415v.705c0 .2.16.363.357.363h1.38a.36.36 0 0 0 .356-.363v-.705c.352-.094.688-.236.996-.415l.502.502a.351.351 0 0 0 .501.007l.981-.98a.351.351 0 0 0-.007-.502l-.502-.502c.18-.307.32-.644.415-.995h.705c.2 0 .363-.16.363-.357v-1.38zm-3.488.69a1.512 1.512 0 1 1-3.025-.001 1.512 1.512 0 0 1 3.025.001z" display="block" overflow="visible" fill="url(#Q)" enable-background="accumulate" transform="translate(0 -42)"/><path style="marker:none" d="M16.313 36c-.197 0-.344.175-.344.375v.688a4.083 4.083 0 0 0-1 .406l-.5-.5a.35.35 0 0 0-.5 0l-1 1a.35.35 0 0 0 0 .5l.25.25.75-.75a.35.35 0 0 1 .5 0l.5.5a4.083 4.083 0 0 1 1-.407v-.687c0-.2.147-.375.344-.375h1.375c.196 0 .343.175.343.375v.688c.352.093.693.227 1 .406l.5-.5a.35.35 0 0 1 .5 0l.75.75.25-.25a.34.34 0 0 0 .094-.25.337.337 0 0 0-.094-.25l-1-1a.35.35 0 0 0-.5 0l-.5.5a4.082 4.082 0 0 0-1-.407v-.687c0-.2-.147-.375-.343-.375h-1.375zm-3.157 3.656c-.035.1-.066.211-.094.313h-.687c-.2 0-.375.147-.375.343v1c0-.196.175-.343.375-.343h.688c.093-.352.227-.693.406-1l-.313-.313zm7.688 0l-.313.313c.18.307.313.648.407 1h.687c.2 0 .375.147.375.343v-1c0-.196-.175-.343-.375-.343h-.688a4.294 4.294 0 0 0-.093-.313zM15.562 41.5a1.537 1.537 0 0 0-.062.5c0 .834.666 1.5 1.5 1.5s1.5-.666 1.5-1.5c0-.173-.009-.345-.063-.5-.204.592-.776 1-1.437 1a1.509 1.509 0 0 1-1.438-1zm-2.406 1.844l-.187.187a.35.35 0 0 0 0 .5l.25.25.25-.25a3.987 3.987 0 0 1-.313-.687zm7.688 0a3.987 3.987 0 0 1-.313.687l.25.25.25-.25a.35.35 0 0 0 0-.5l-.187-.187z" display="block" overflow="visible" opacity=".5" enable-background="accumulate"/><path style="marker:none" d="M13.219 38.719l-.25.25a.35.35 0 0 0 0 .5l.187.187c.086-.243.186-.469.313-.687l-.25-.25zm7.562 0l-.25.25c.127.218.227.444.313.687l.187-.187a.34.34 0 0 0 .094-.25.337.337 0 0 0-.094-.25l-.25-.25zM17 39.5c-.834 0-1.5.666-1.5 1.5 0 .173.009.345.063.5.204-.592.776-1 1.437-1s1.233.408 1.438 1c.053-.155.062-.327.062-.5 0-.834-.666-1.5-1.5-1.5zm-5 2.188v1c0 .196.175.343.375.343h.688c.027.102.058.214.093.313l.313-.313a4.083 4.083 0 0 1-.406-1h-.688c-.2 0-.375-.147-.375-.343zm10 0c0 .196-.175.343-.375.343h-.688a4.082 4.082 0 0 1-.406 1l.313.313c.035-.1.066-.211.093-.313h.688c.2 0 .375-.147.375-.343v-1zm-8.781 2.593l-.25.25a.35.35 0 0 0 0 .5l1 1a.35.35 0 0 0 .5 0l.5-.5c.307.18.648.313 1 .407v.687c0 .2.147.375.344.375h1.375c.196 0 .343-.175.343-.375v-.688a4.082 4.082 0 0 0 1-.406l.5.5a.35.35 0 0 0 .5 0l1-1a.35.35 0 0 0 0-.5l-.25-.25-.75.75a.35.35 0 0 1-.5 0l-.5-.5a4.082 4.082 0 0 1-1 .407v.687c0 .2-.147.375-.343.375h-1.375c-.197 0-.344-.175-.344-.375v-.688a4.083 4.083 0 0 1-1-.406l-.5.5a.35.35 0 0 1-.5 0l-.75-.75z" display="block" overflow="visible" fill="#fff" enable-background="accumulate"/></g><g><path style="marker:none" d="M22 82.31a.36.36 0 0 0-.363-.356h-.705a4.072 4.072 0 0 0-.415-.996l.502-.502a.35.35 0 0 0 .007-.501l-.981-.981a.351.351 0 0 0-.501.007l-.502.502a4.072 4.072 0 0 0-.996-.415v-.705A.36.36 0 0 0 17.69 78h-1.38a.36.36 0 0 0-.357.363v.705a4.072 4.072 0 0 0-.995.415l-.502-.502a.351.351 0 0 0-.501-.007l-.981.981c-.14.14-.134.36.007.501l.502.502c-.18.307-.321.644-.415.996h-.705a.36.36 0 0 0-.363.356v1.38a.36.36 0 0 0 .363.357h.705c.094.351.236.688.415.995l-.502.502a.351.351 0 0 0-.007.501l.98.981c.14.14.36.134.502-.007l.502-.502c.307.18.644.32.995.415v.705c0 .2.16.363.357.363h1.38a.36.36 0 0 0 .356-.363v-.705c.352-.094.688-.236.996-.415l.502.502a.351.351 0 0 0 .501.007l.981-.98a.351.351 0 0 0-.007-.502l-.502-.502c.18-.307.32-.644.415-.995h.705c.2 0 .363-.16.363-.357v-1.38zm-3.488.69a1.512 1.512 0 1 1-3.025-.001 1.512 1.512 0 0 1 3.025.001z" display="block" overflow="visible" fill="url(#R)" enable-background="accumulate" transform="translate(0 -70)"/><path style="marker:none" d="M16.313 8c-.197 0-.344.175-.344.375v.688a4.083 4.083 0 0 0-1 .406l-.5-.5a.35.35 0 0 0-.5 0l-1 1a.35.35 0 0 0 0 .5l.25.25.75-.75a.35.35 0 0 1 .5 0l.5.5a4.083 4.083 0 0 1 1-.406v-.688c0-.2.147-.375.344-.375h1.375c.196 0 .343.175.343.375v.688c.352.093.693.227 1 .406l.5-.5a.35.35 0 0 1 .5 0l.75.75.25-.25a.34.34 0 0 0 .094-.25.337.337 0 0 0-.094-.25l-1-1a.35.35 0 0 0-.5 0l-.5.5a4.082 4.082 0 0 0-1-.406v-.688c0-.2-.147-.375-.343-.375h-1.375zm-3.157 3.656c-.035.1-.066.211-.094.313h-.687c-.2 0-.375.147-.375.344v1c0-.197.175-.344.375-.344h.688c.093-.352.227-.693.406-1l-.313-.313zm7.688 0l-.313.313c.18.307.313.648.407 1h.687c.2 0 .375.147.375.344v-1c0-.197-.175-.344-.375-.344h-.688a4.294 4.294 0 0 0-.093-.313zM15.562 13.5a1.537 1.537 0 0 0-.062.5c0 .834.666 1.5 1.5 1.5s1.5-.666 1.5-1.5c0-.173-.009-.345-.063-.5-.204.592-.776 1-1.437 1a1.509 1.509 0 0 1-1.438-1zm-2.406 1.844l-.187.187a.35.35 0 0 0 0 .5l.25.25.25-.25a3.987 3.987 0 0 1-.313-.687zm7.688 0a3.987 3.987 0 0 1-.313.687l.25.25.25-.25a.35.35 0 0 0 0-.5l-.187-.187z" display="block" overflow="visible" opacity=".5" enable-background="accumulate"/><path style="marker:none" d="M13.219 10.719l-.25.25a.35.35 0 0 0 0 .5l.187.187c.086-.243.186-.469.313-.687l-.25-.25zm7.562 0l-.25.25c.127.218.227.444.313.687l.187-.187a.34.34 0 0 0 .094-.25.337.337 0 0 0-.094-.25l-.25-.25zM17 11.5c-.834 0-1.5.666-1.5 1.5 0 .173.009.345.063.5.204-.592.776-1 1.437-1s1.233.408 1.438 1c.053-.155.062-.327.062-.5 0-.834-.666-1.5-1.5-1.5zm-5 2.188v1c0 .196.175.343.375.343h.688c.027.102.058.214.093.313l.313-.313a4.083 4.083 0 0 1-.406-1h-.688c-.2 0-.375-.147-.375-.344zm10 0c0 .196-.175.343-.375.343h-.688a4.082 4.082 0 0 1-.406 1l.313.313c.035-.1.066-.211.093-.313h.688c.2 0 .375-.147.375-.344v-1zm-8.781 2.593l-.25.25a.35.35 0 0 0 0 .5l1 1a.35.35 0 0 0 .5 0l.5-.5c.307.18.648.313 1 .407v.687c0 .2.147.375.344.375h1.375c.196 0 .343-.175.343-.375v-.688a4.082 4.082 0 0 0 1-.406l.5.5a.35.35 0 0 0 .5 0l1-1a.35.35 0 0 0 0-.5l-.25-.25-.75.75a.35.35 0 0 1-.5 0l-.5-.5a4.082 4.082 0 0 1-1 .407v.687c0 .2-.147.375-.343.375h-1.375c-.197 0-.344-.175-.344-.375v-.688a4.083 4.083 0 0 1-1-.406l-.5.5a.35.35 0 0 1-.5 0l-.75-.75z" display="block" overflow="visible" fill="#fff" enable-background="accumulate"/></g><path style="marker:none" d="M22 68.31a.36.36 0 0 0-.363-.356h-.705a4.072 4.072 0 0 0-.415-.996l.502-.502a.35.35 0 0 0 .007-.501l-.981-.981a.351.351 0 0 0-.501.007l-.502.502a4.072 4.072 0 0 0-.996-.415v-.705A.36.36 0 0 0 17.69 64h-1.38a.36.36 0 0 0-.357.363v.705a4.072 4.072 0 0 0-.995.415l-.502-.502a.351.351 0 0 0-.501-.007l-.981.981c-.14.14-.134.36.007.501l.502.502c-.18.307-.321.644-.415.996h-.705a.36.36 0 0 0-.363.356v1.38a.36.36 0 0 0 .363.357h.705c.094.351.236.688.415.995l-.502.502a.351.351 0 0 0-.007.501l.98.981c.14.14.36.134.502-.007l.502-.502c.307.18.644.32.995.415v.705c0 .2.16.363.357.363h1.38a.36.36 0 0 0 .356-.363v-.705c.352-.094.688-.236.996-.415l.502.502a.351.351 0 0 0 .501.007l.981-.98a.351.351 0 0 0-.007-.502l-.502-.502c.18-.307.32-.644.415-.995h.705c.2 0 .363-.16.363-.357v-1.38zm-3.488.69a1.512 1.512 0 1 1-3.025-.001 1.512 1.512 0 0 1 3.025.001z" display="block" overflow="visible" fill="url(#S)" enable-background="accumulate"/><path style="marker:none" d="M16.313 64c-.197 0-.344.175-.344.375v.688a4.083 4.083 0 0 0-1 .406l-.5-.5a.35.35 0 0 0-.5 0l-1 1a.35.35 0 0 0 0 .5l.25.25.75-.75a.35.35 0 0 1 .5 0l.5.5a4.083 4.083 0 0 1 1-.406v-.688c0-.2.147-.375.344-.375h1.375c.196 0 .343.175.343.375v.688c.352.093.693.227 1 .406l.5-.5a.35.35 0 0 1 .5 0l.75.75.25-.25a.34.34 0 0 0 .094-.25.337.337 0 0 0-.094-.25l-1-1a.35.35 0 0 0-.5 0l-.5.5a4.082 4.082 0 0 0-1-.406v-.688c0-.2-.147-.375-.343-.375h-1.375zm-3.157 3.656c-.035.1-.066.211-.094.313h-.687c-.2 0-.375.147-.375.344v1c0-.197.175-.344.375-.344h.688c.093-.352.227-.693.406-1l-.313-.313zm7.688 0l-.313.313c.18.307.313.648.407 1h.687c.2 0 .375.147.375.344v-1c0-.197-.175-.344-.375-.344h-.688a4.294 4.294 0 0 0-.093-.313zM15.562 69.5a1.537 1.537 0 0 0-.062.5c0 .834.666 1.5 1.5 1.5s1.5-.666 1.5-1.5c0-.173-.009-.345-.063-.5-.204.592-.776 1-1.437 1a1.509 1.509 0 0 1-1.438-1zm-2.406 1.844l-.187.187a.35.35 0 0 0 0 .5l.25.25.25-.25a3.987 3.987 0 0 1-.313-.687zm7.688 0a3.987 3.987 0 0 1-.313.687l.25.25.25-.25a.35.35 0 0 0 0-.5l-.187-.187z" display="block" overflow="visible" opacity=".5" enable-background="accumulate"/><path style="marker:none" d="M13.219 66.719l-.25.25a.35.35 0 0 0 0 .5l.187.187c.086-.243.186-.469.313-.687l-.25-.25zm7.562 0l-.25.25c.127.218.227.444.313.687l.187-.187a.34.34 0 0 0 .094-.25.337.337 0 0 0-.094-.25l-.25-.25zM17 67.5c-.834 0-1.5.666-1.5 1.5 0 .173.009.345.063.5.204-.592.776-1 1.437-1s1.233.408 1.438 1c.053-.155.062-.327.062-.5 0-.834-.666-1.5-1.5-1.5zm-5 2.188v1c0 .196.175.343.375.343h.688c.027.102.058.214.093.313l.313-.313a4.083 4.083 0 0 1-.406-1h-.688c-.2 0-.375-.147-.375-.344zm10 0c0 .196-.175.343-.375.343h-.688a4.082 4.082 0 0 1-.406 1l.313.313c.035-.1.066-.211.093-.313h.688c.2 0 .375-.147.375-.344v-1zm-8.781 2.593l-.25.25a.35.35 0 0 0 0 .5l1 1a.35.35 0 0 0 .5 0l.5-.5c.307.18.648.313 1 .406v.688c0 .2.147.375.344.375h1.375c.196 0 .343-.175.343-.375v-.688a4.082 4.082 0 0 0 1-.406l.5.5a.35.35 0 0 0 .5 0l1-1a.35.35 0 0 0 0-.5l-.25-.25-.75.75a.35.35 0 0 1-.5 0l-.5-.5a4.082 4.082 0 0 1-1 .406v.688c0 .2-.147.375-.343.375h-1.375c-.197 0-.344-.175-.344-.375v-.688a4.083 4.083 0 0 1-1-.406l-.5.5a.35.35 0 0 1-.5 0l-.75-.75z" display="block" overflow="visible" opacity=".3" fill="#fff" enable-background="accumulate"/><g><path d="M118.375 11.031a4.034 4.034 0 0 0-1.563.125 3.992 3.992 0 0 0-2.437 1.875l-2.063 3.563a1.05 1.05 0 0 0-.843.531l-9.5 16.469-36 62.343a1.05 1.05 0 0 0-.094.25L59.5 120.22a1.05 1.05 0 0 0 1.75 1.031l17.625-17.531a1.05 1.05 0 0 0 .156-.219l36-62.344 9.5-16.468a1.05 1.05 0 0 0 .063-.907l2.094-3.625c1.11-1.925.457-4.419-1.47-5.531l-5.312-3.063a4.194 4.194 0 0 0-1.531-.53z" transform="matrix(.6661 .18615 -.18615 .6661 12.834 -20.2)" opacity=".25" fill="url(#T)" filter="url(#U)"/><path d="M118.375 11.031a4.034 4.034 0 0 0-1.563.125 3.992 3.992 0 0 0-2.437 1.875l-2.063 3.563a1.05 1.05 0 0 0-.843.531l-9.5 16.469-36 62.343a1.05 1.05 0 0 0-.094.25L59.5 120.22a1.05 1.05 0 0 0 1.75 1.031l17.625-17.531a1.05 1.05 0 0 0 .156-.219l36-62.344 9.5-16.468a1.05 1.05 0 0 0 .063-.907l2.094-3.625c1.11-1.925.457-4.419-1.47-5.531l-5.312-3.063a4.194 4.194 0 0 0-1.531-.53z" transform="scale(.69162) rotate(34.604 80.062 86.966)" opacity=".5" fill="url(#V)" filter="url(#U)"/><g transform="scale(-.69162) rotate(34.765 216.85 -351.213)"><rect width="12.116" height="16" rx="3" ry="3" x="136.914" y="107.494" fill="url(#W)" stroke="#df453f" stroke-width="1.446" stroke-linejoin="round"/><path d="M141.245 118.189a1.547 3.977 0 1 1-3.094 0 1.547 3.977 0 1 1 3.094 0z" transform="matrix(1.88571 0 0 1 -123.513 -1.945)" opacity=".3" fill="#701300" filter="url(#X)"/><path d="M146.313 113.125c-.852 9.507-3.938 8.313-6.5 8.938 4.076.062 8.625-.063 8.625-.063-2.438-.563-1.813-2.375-2.125-8.875z" opacity=".8" fill="#fff" fill-rule="evenodd" filter="url(#Y)"/><path opacity=".2" fill="url(#Z)" d="M136.412 115.969h12.119v1h-12.119z"/></g><path d="M112.767 24.5l6.5-24 6.5 24v72h-13v-72z" fill="url(#aa)" stroke="url(#ab)" stroke-width="1.446" stroke-linejoin="round" transform="matrix(-.56817 -.39437 .39437 -.56817 98.252 119.519)"/><path d="M117.693 8.072l3.143.022-1.582-5.792" fill="url(#ac)" fill-rule="evenodd" transform="matrix(-.56817 -.39437 .39437 -.56817 98.252 119.519)"/><path d="M117.732 8.09L113.965 22s-.468 1.653-.698 2.608c-.192.643 1.958 1.612 3.018-1.608 1.215 4.514 5.576 3.438 5.988.011.343 1.702 1.754 2.95 2.989 1.522-.235-.909-.437-1.522-.437-1.522l-4.021-14.92h-3.072z" fill="url(#ad)" fill-rule="evenodd" transform="matrix(-.56817 -.39437 .39437 -.56817 98.252 119.519)"/><path d="M122.373 96.305V29.088" opacity=".3" fill="none" stroke="url(#ae)" stroke-width="1.446" transform="matrix(-.56817 -.39437 .39437 -.56817 98.252 119.519)"/><path d="M116.248 96.305V29.088" opacity=".4" fill="none" stroke="url(#af)" stroke-width="1.446" transform="matrix(-.56817 -.39437 .39437 -.56817 98.252 119.519)"/><path d="M118.704 5.98l-4.773 17.899 1.99-.84 2.783-17.06z" opacity=".4" fill="#ac4311" fill-rule="evenodd" filter="url(#ag)" transform="matrix(-.56817 -.39437 .39437 -.56817 98.252 119.519)"/><path d="M43.715 60.933s-.148-1.59-2.45-.412c.934-3.772-2.114-3.224-3.386-2.324.574-2.495-1.209-2.05-1.209-2.05" opacity=".15" fill="none" stroke="#4d2600" stroke-width="1.00008252"/><path d="M144.063 8.937l-.375 12.5 3.062-.312-2.687-12.188z" transform="rotate(-145.236 81.738 50.545) scale(.77631 .93024)" opacity=".8" fill="#fff" fill-rule="evenodd" filter="url(#ah)"/><g><path fill="url(#ai)" stroke="url(#aj)" stroke-width="1.446" stroke-linejoin="round" d="M136.5 96.5h13v19h-13z" transform="scale(-.69162) rotate(34.765 216.85 -351.213)"/><path opacity=".4" fill="url(#ak)" d="M137 100h12v1h-12z" transform="scale(-.69162) rotate(34.765 216.85 -351.213)"/><path opacity=".6" fill="url(#al)" d="M137 101h12v1h-12z" transform="scale(-.69162) rotate(34.765 216.85 -351.213)"/><path opacity=".4" fill="url(#am)" d="M137 102h12v1h-12z" transform="scale(-.69162) rotate(34.765 216.85 -351.213)"/><path opacity=".6" fill="url(#an)" d="M137 103h12v1h-12z" transform="scale(-.69162) rotate(34.765 216.85 -351.213)"/><path opacity=".4" fill="url(#ao)" d="M137 108h12v1h-12z" transform="scale(-.69162) rotate(34.765 216.85 -351.213)"/><path opacity=".6" fill="url(#ap)" d="M137 109h12v1h-12z" transform="scale(-.69162) rotate(34.765 216.85 -351.213)"/><path opacity=".4" fill="url(#aq)" d="M137 110h12v1h-12z" transform="scale(-.69162) rotate(34.765 216.85 -351.213)"/><path opacity=".6" fill="url(#ar)" d="M137 111h12v1h-12z" transform="scale(-.69162) rotate(34.765 216.85 -351.213)"/><path opacity=".3" fill="url(#as)" d="M137 104h12v4h-12z" transform="scale(-.69162) rotate(34.765 216.85 -351.213)"/><path d="M140 106.08a1.101 8.397 0 1 1-2.203 0 1.101 8.397 0 1 1 2.203 0z" transform="rotate(-145.236 88.405 50.82) scale(.86825 .69163)" opacity=".6" filter="url(#at)"/><path d="M147.343 106.035a1.193 8.088 0 1 1-2.386 0 1.193 8.088 0 1 1 2.386 0z" opacity=".8" fill="#fff" filter="url(#au)" transform="scale(-.69162) rotate(34.765 216.85 -351.213)"/></g></g></svg>