<?xml version="1.0" encoding="UTF-8" standalone="no"?>
<svg
   xmlns:dc="http://purl.org/dc/elements/1.1/"
   xmlns:cc="http://creativecommons.org/ns#"
   xmlns:rdf="http://www.w3.org/1999/02/22-rdf-syntax-ns#"
   xmlns:svg="http://www.w3.org/2000/svg"
   xmlns="http://www.w3.org/2000/svg"
   xml:space="preserve"
   style="enable-background:new 0 0 30 30;"
   viewBox="0 0 30 30"
   y="0px"
   x="0px"
   id="Layer_1"
   version="1.1"><metadata
     id="metadata9"><rdf:RDF><cc:Work
         rdf:about=""><dc:format>image/svg+xml</dc:format><dc:type
           rdf:resource="http://purl.org/dc/dcmitype/StillImage" /></cc:Work></rdf:RDF></metadata><defs
     id="defs7" /><path
     id="path3"
     d="m 0.57971325,16.186226 c 0,0.914522 0.47714115,1.696505 1.43142495,2.345947 1.749518,1.232617 4.3870508,1.842297 7.9258525,1.842297 1.5904713,0 3.0616653,-0.132539 4.4268233,-0.410872 1.431425,-0.30484 2.611024,-0.795235 3.512293,-1.457932 0.901268,-0.662697 1.365156,-1.431425 1.365156,-2.332693 0,-0.278333 -0.05303,-0.543411 -0.159047,-0.821744 1.842297,-0.450634 3.286977,-1.060316 4.334037,-1.829044 1.047061,-0.768728 1.577218,-1.656742 1.577218,-2.650786 0,-0.251825 -0.03977,-0.516904 -0.119285,-0.795236 3.035151,-1.0735683 4.546101,-2.5182475 4.546101,-4.3472908 0,-1.1663465 -0.662698,-2.2001535 -1.974838,-3.1014211 -2.584517,-1.72301219 -6.375143,-2.58451808 -11.371878,-2.58451808 -2.359199,0 -4.493094,0.21206299 -6.401658,0.62293499 C 7.5910436,1.089994 5.9210477,1.7526912 4.6486699,2.6539589 3.3762931,3.5552266 2.7401037,4.5890337 2.7401037,5.7421261 c 0,0.6892048 0.2120629,1.3121398 0.6361894,1.882059 -1.5639635,0.888014 -2.345945,1.9748367 -2.345945,3.2604679 0,0.994044 0.4903957,1.868804 1.4579304,2.624278 -1.2723759,0.742221 -1.90856525,1.630235 -1.90856525,2.677295 z m 0.79523655,5.964272 c 0,0.967537 0.5964268,1.736265 1.7892797,2.279677 1.1928536,0.543411 2.7038025,0.821743 4.5195923,0.821743 1.8422974,0 3.3532442,-0.278332 4.5593522,-0.821743 1.206119,-0.543412 1.802547,-1.31214 1.802547,-2.279677 0,-0.357857 -0.119286,-0.662697 -0.344604,-0.914523 -0.225316,-0.251825 -0.530156,-0.37111 -0.888017,-0.37111 -0.291591,0 -0.556671,0.106027 -0.795242,0.304841 -0.238571,0.19881 -0.384365,0.463889 -0.450635,0.755475 -0.265079,0.212061 -0.74222,0.397619 -1.457931,0.569918 -0.7157115,0.172302 -1.5242012,0.26508 -2.4254702,0.26508 -1.4579331,0 -2.6507879,-0.212063 -3.5520546,-0.622937 0.2120626,-0.212061 0.3180942,-0.47714 0.3446015,-0.795234 0.026511,-0.318096 -0.053021,-0.596429 -0.1988086,-0.821744 -0.2120627,-0.278333 -0.4771422,-0.463889 -0.8084896,-0.530157 -0.3313483,-0.06627 -0.6361894,0 -0.9277753,0.172301 -0.7819813,0.54341 -1.1663454,1.192853 -1.1663454,1.98809 z m 1.6965024,-5.964272 c 0,-0.01325 0.079531,-0.09278 0.2518243,-0.238571 0.1192856,-0.119286 0.3711108,-0.265078 0.7422208,-0.450633 0.3711098,-0.185556 0.8084896,-0.331349 1.2723777,-0.463888 l 0.159047,-0.07952 c 2.1471383,0.715712 4.652133,1.073568 7.51499,1.073568 1.259124,0 2.398963,-0.06626 3.419516,-0.212062 l 0.344603,0.304839 c -0.119286,0.212064 -0.397619,0.424128 -0.834998,0.662698 -0.530158,0.278333 -1.351902,0.543412 -2.465232,0.755475 -1.113342,0.212062 -2.292942,0.331348 -3.5388103,0.331348 -1.2458696,0 -2.4254711,-0.106026 -3.5388017,-0.331348 C 5.2848582,17.312808 4.4498603,17.060984 3.9064502,16.78265 3.4558162,16.597094 3.1774835,16.398287 3.0714522,16.186223 Z m 0.1457939,11.159815 c 0,0.834998 0.4771412,1.484441 1.4314238,1.935074 0.9542836,0.450635 2.133884,0.675952 3.5388006,0.675952 1.4314259,0 2.6375325,-0.225317 3.6050685,-0.675952 0.967543,-0.450633 1.457944,-1.100076 1.457944,-1.935074 0,-0.331348 -0.119285,-0.636189 -0.371114,-0.888014 -0.251826,-0.251824 -0.543418,-0.384364 -0.874767,-0.384364 -0.622933,0 -1.033806,0.318093 -1.21936,0.954283 -0.516902,0.318095 -1.3784084,0.490396 -2.5977715,0.490396 -1.0603139,0 -1.9085651,-0.159047 -2.5447554,-0.490396 -0.1988096,-0.63619 -0.5964258,-0.954283 -1.219361,-0.954283 -0.3313485,0 -0.6229362,0.119285 -0.8482523,0.371111 -0.2253169,0.251823 -0.3578556,0.543411 -0.3578556,0.901267 z M 3.4955788,10.884653 c 0,-0.106032 0.066271,-0.225318 0.1988085,-0.37111 0.3180942,-0.397618 0.9542826,-0.7952357 1.8820589,-1.166346 2.5447555,1.365154 6.0437938,2.041106 10.4838728,2.041106 2.266422,0 4.400305,-0.212063 6.388397,-0.622935 l 0,0.119285 c 0,0.198808 -0.119285,0.397618 -0.371111,0.596427 -0.543412,0.477142 -1.550711,0.927774 -3.035152,1.365155 -1.603725,0.477141 -3.618324,0.715712 -6.043797,0.715712 -2.438732,0 -4.4533278,-0.238571 -6.0570549,-0.715712 C 5.4041439,12.422108 4.3835915,11.971474 3.8666877,11.494333 3.6148634,11.295526 3.4955788,11.096716 3.4955788,10.884653 Z M 5.2185895,5.7421261 c 0,-0.2385709 0.159047,-0.4903957 0.463887,-0.7819823 0.5964279,-0.5566653 1.7892816,-1.0868227 3.5520558,-1.6037262 1.8953107,-0.5566655 4.1617437,-0.834998 6.8125327,-0.834998 2.66404,0 4.956971,0.2783325 6.878792,0.834998 1.789281,0.5169035 2.968881,1.0603148 3.552055,1.6169803 0.291586,0.2915865 0.450635,0.5566653 0.450635,0.7819822 0,0.2253169 -0.145794,0.4638878 -0.450635,0.7422204 -0.583174,0.5566654 -1.762774,1.1000769 -3.552055,1.6302343 -1.921821,0.5566654 -4.201498,0.8349981 -6.878792,0.8349981 -2.650789,0 -4.930475,-0.2783327 -6.8125328,-0.8349981 C 7.4585049,7.5976774 6.2656501,7.0542659 5.6824765,6.4843466 5.3776365,6.2060139 5.2185895,5.9674431 5.2185895,5.7421261 Z" /></svg>