<?xml version="1.0" encoding="UTF-8" standalone="no"?>
<svg
   xmlns:dc="http://purl.org/dc/elements/1.1/"
   xmlns:cc="http://creativecommons.org/ns#"
   xmlns:rdf="http://www.w3.org/1999/02/22-rdf-syntax-ns#"
   xmlns:svg="http://www.w3.org/2000/svg"
   xmlns="http://www.w3.org/2000/svg"
   xml:space="preserve"
   style="enable-background:new 0 0 30 30;"
   viewBox="0 0 30 30"
   y="0px"
   x="0px"
   id="Layer_1"
   version="1.1"><metadata
     id="metadata9"><rdf:RDF><cc:Work
         rdf:about=""><dc:format>image/svg+xml</dc:format><dc:type
           rdf:resource="http://purl.org/dc/dcmitype/StillImage" /></cc:Work></rdf:RDF></metadata><defs
     id="defs7" /><path
     id="path3"
     d="m 0.05260995,17.86003 c 0,1.239162 0.36511021,2.345555 1.10639445,3.319183 0.7412844,0.973628 1.6927837,1.626401 2.854498,1.947253 l -0.7302203,1.880873 c -0.055319,0.154894 0,0.243405 0.1548951,0.243405 l 2.3566203,0 -1.5821441,4.657922 0.3208544,0 4.8238802,-6.262193 c 0.044255,-0.04426 0.044255,-0.09957 0.022128,-0.154895 -0.022128,-0.05532 -0.077446,-0.07745 -0.1548948,-0.07745 l -2.4230042,0 2.7549222,-5.144733 c 0.077446,-0.154897 0.033192,-0.243407 -0.1548946,-0.243407 l -3.2749283,0 c -0.099576,0 -0.188087,0.05531 -0.2544707,0.165958 L 4.6884031,21.378364 C 3.8917991,21.179213 3.2279624,20.758782 2.7190208,20.094946 2.1990154,19.442173 1.9445447,18.70089 1.9445447,17.86003 c 0,-0.929371 0.3097904,-1.737041 0.9293714,-2.411941 0.619581,-0.6749 1.405121,-1.073201 2.3344923,-1.183841 l 0.5642614,-0.03319 c 0.1327673,0 0.2102149,-0.05531 0.2434067,-0.154895 L 6.0935237,13.42339 C 6.2152273,12.228482 6.7131049,11.221663 7.6092843,10.413994 8.505464,9.6063268 9.5565386,9.1969608 10.773573,9.1969608 c 1.205969,0 2.257044,0.409366 3.164289,1.2170332 0.907242,0.807669 1.427249,1.814488 1.548951,3.009395 l 0.08852,0.652772 c 0,0.121702 0.06638,0.188087 0.199151,0.188087 l 1.781295,0 c 0.984691,0 1.836615,0.354046 2.555772,1.06214 0.719156,0.708091 1.073203,1.54895 1.073203,2.533642 0,0.962564 -0.331919,1.792359 -0.995756,2.500452 -0.663836,0.708091 -1.460441,1.084266 -2.41194,1.139586 -0.143831,0 -0.221279,0.06638 -0.221279,0.19915 l 0,1.48257 c 0,0.121703 0.07745,0.188086 0.221279,0.188086 0.973627,-0.02212 1.869807,-0.287663 2.677475,-0.796605 0.807668,-0.497878 1.449377,-1.172777 1.925127,-2.002574 0.475749,-0.829795 0.708092,-1.737038 0.708092,-2.710666 0,-0.807669 -0.154895,-1.548953 -0.475749,-2.234918 0.840859,-1.062137 1.261289,-2.279172 1.261289,-3.640036 0,-1.051075 -0.265534,-2.0247025 -0.78554,-2.9208815 C 22.567744,8.1680139 21.859651,7.4599214 20.963472,6.9399161 20.067292,6.4199106 19.093665,6.1543759 18.04259,6.1543759 c -0.796604,0 -1.57108,0.1659592 -2.323429,0.4978775 -0.752348,0.3319184 -1.394056,0.7966041 -1.947254,1.3829931 -0.896179,-0.4757496 -1.891934,-0.7191564 -3.009393,-0.7191564 -1.5710803,0 -2.9651372,0.4868137 -4.1711072,1.4604408 C 5.3854315,9.750158 4.5998915,10.98932 4.267973,12.50508 3.0398751,12.792743 2.0330561,13.434451 1.2364521,14.430207 0.45091195,15.448089 0.05260995,16.587676 0.05260995,17.86003 Z M 9.1029172,28.835463 c 0,0.165961 0.055319,0.342984 0.1770234,0.520007 0.1217036,0.177022 0.287662,0.298726 0.5089414,0.376174 0.1217034,0.03319 0.221278,0.04426 0.276598,0.04426 0.165959,0 0.30979,-0.03319 0.42043,-0.08852 0.232343,-0.08851 0.398303,-0.298726 0.47575,-0.630643 l 0.298727,-1.139588 c 0.06638,-0.276598 0.03319,-0.520006 -0.0885,-0.741284 -0.121704,-0.221279 -0.331918,-0.354045 -0.586389,-0.409366 -0.232343,-0.07745 -0.453622,-0.04426 -0.6859641,0.07745 -0.2323432,0.132768 -0.387239,0.320856 -0.4646863,0.575325 l -0.2765984,1.150651 c -0.033192,0.154894 -0.055319,0.243408 -0.055319,0.265534 z M 9.357388,4.2624413 c 0,0.2544707 0.08851,0.4757497 0.2765982,0.6638367 l 0.7191568,0.7302204 c 0.177023,0.177023 0.376174,0.2655347 0.608517,0.2876626 0.232343,0.033193 0.453621,-0.044257 0.674901,-0.2544709 0.221278,-0.199151 0.331918,-0.4314937 0.331918,-0.7080924 0,-0.2544707 -0.08852,-0.4757497 -0.276599,-0.6638367 L 10.994852,3.5875406 C 10.817828,3.4105174 10.59655,3.322006 10.331015,3.322006 c -0.276599,0 -0.5089418,0.088511 -0.6970288,0.2655346 C 9.456964,3.7866917 9.357388,4.0079705 9.357388,4.2624413 Z M 10.585486,23.52477 c -0.01107,0.177022 0.04426,0.354047 0.154894,0.520006 0.11064,0.165958 0.287663,0.287663 0.531071,0.354046 0.232342,0.07745 0.464685,0.05531 0.685964,-0.06638 0.221278,-0.121704 0.376174,-0.33192 0.464686,-0.619582 l 0.331918,-1.139587 c 0.07745,-0.243406 0.04426,-0.475749 -0.08851,-0.697027 -0.132768,-0.22128 -0.331917,-0.376174 -0.597453,-0.453623 -0.25447,-0.07745 -0.486814,-0.05531 -0.708092,0.07745 -0.221279,0.132766 -0.376174,0.320853 -0.453621,0.586387 l -0.265536,1.161715 c -0.03319,0.165959 -0.05531,0.254471 -0.05531,0.276599 z m 3.131096,1.858744 c 0,0.154893 0.03319,0.309789 0.11064,0.431493 0.14383,0.232343 0.342982,0.398302 0.597453,0.475749 0.121703,0.04426 0.232342,0.06638 0.30979,0.06638 0.143832,0 0.254472,-0.02212 0.342983,-0.08851 0.221278,-0.07745 0.387237,-0.298726 0.497877,-0.663837 l 0.276599,-1.117458 c 0.07745,-0.265534 0.05532,-0.497878 -0.07745,-0.719155 -0.121702,-0.22128 -0.309789,-0.36511 -0.564261,-0.431495 -0.25447,-0.07745 -0.497877,-0.05531 -0.719155,0.07745 -0.22128,0.121703 -0.376174,0.30979 -0.453622,0.564261 l -0.309793,1.150651 c 0,0.0885 -0.01107,0.177023 -0.01107,0.254472 z m 1.515761,-5.332822 c 0,0.199151 0.05531,0.376174 0.177022,0.553197 0.121704,0.177022 0.298727,0.298726 0.542134,0.365109 0.188087,0.06638 0.409366,0.04426 0.6749,-0.05531 0.22128,-0.09957 0.376174,-0.309791 0.47575,-0.630647 l 0.298727,-1.106393 c 0.06638,-0.276599 0.04426,-0.520005 -0.08852,-0.741285 -0.132766,-0.221279 -0.320854,-0.354046 -0.586389,-0.409367 -0.25447,-0.07745 -0.486814,-0.05531 -0.708092,0.06638 -0.221279,0.121704 -0.36511,0.309791 -0.442559,0.553199 l -0.320853,1.172777 c -0.01107,0.154896 -0.02212,0.232344 -0.02212,0.232344 z M 15.342982,9.1637691 c 0.741284,-0.7080926 1.637465,-1.0732027 2.710666,-1.0732027 1.084268,0 2.013639,0.3761741 2.777051,1.1395864 0.763412,0.7523482 1.15065,1.6817192 1.15065,2.7659872 0,0.73022 -0.177022,1.394056 -0.520005,2.002574 -1.062138,-1.062139 -2.356621,-1.59321 -3.894509,-1.59321 l -0.342982,0 c -0.320854,-1.316609 -0.9515,-2.400875 -1.880871,-3.2417349 z m 1.770231,-5.8306992 c 0,0.2655347 0.08852,0.4868135 0.276598,0.6749006 0.188087,0.1880871 0.409367,0.2765986 0.663837,0.2765986 0.265535,0 0.486814,-0.088512 0.663837,-0.2765986 0.177024,-0.1880871 0.265535,-0.4093659 0.265535,-0.6749006 l 0,-2.2791727 c 0,-0.26553481 -0.08851,-0.49787761 -0.265535,-0.67490079 -0.177023,-0.18808704 -0.398302,-0.28766254 -0.663837,-0.28766254 -0.265534,0 -0.486813,0.0885111 -0.663837,0.27659868 -0.177022,0.18808704 -0.276598,0.40936598 -0.276598,0.67490065 l 0,2.2902367 z m 6.173681,2.5336435 c 0,0.2655346 0.08852,0.4868135 0.254472,0.6638367 0.154895,0.177023 0.354046,0.2655346 0.608516,0.2876626 0.254471,0.022128 0.486814,-0.077447 0.69703,-0.2876626 L 26.440119,4.937342 c 0.199151,-0.1770233 0.287663,-0.398302 0.287663,-0.6638367 0,-0.2655348 -0.09957,-0.4868136 -0.287663,-0.6638369 -0.177023,-0.199151 -0.398302,-0.2876624 -0.663836,-0.2876624 -0.254471,0 -0.464686,0.099576 -0.641709,0.2876624 l -1.593208,1.5932083 c -0.177023,0.165959 -0.254472,0.387238 -0.254472,0.6638367 z M 24.138818,19.04387 c 0,0.254473 0.08852,0.47575 0.276599,0.663837 l 0.719157,0.697029 c 0.199151,0.188087 0.431493,0.276599 0.685964,0.276599 l 0.02212,0.02212 c 0.243408,0 0.442559,-0.09957 0.597453,-0.298727 0.199151,-0.177023 0.287663,-0.398302 0.287663,-0.663836 0,-0.25447 -0.09957,-0.47575 -0.287663,-0.674901 L 25.754149,18.38003 c -0.199151,-0.199151 -0.420429,-0.298726 -0.674901,-0.298726 -0.265534,0 -0.486814,0.09957 -0.663836,0.287663 -0.177023,0.188087 -0.276599,0.420429 -0.276599,0.674899 z m 1.6264,-7.047731 c 0,0.265534 0.09957,0.486812 0.287663,0.652772 0.177023,0.199152 0.398302,0.287663 0.663837,0.287663 l 2.279172,0 c 0.265535,0 0.486814,-0.08852 0.674901,-0.276598 0.188087,-0.188087 0.276599,-0.409367 0.276599,-0.663837 0,-0.254472 -0.08851,-0.486814 -0.276599,-0.663837 -0.188087,-0.177025 -0.409366,-0.265536 -0.674901,-0.265536 l -2.279172,0 c -0.265535,0 -0.497878,0.08851 -0.674901,0.265536 -0.188087,0.177023 -0.276599,0.398301 -0.276599,0.663837 z" /></svg>