<?xml version="1.0" encoding="UTF-8" standalone="no"?>
<svg
   xmlns:dc="http://purl.org/dc/elements/1.1/"
   xmlns:cc="http://creativecommons.org/ns#"
   xmlns:rdf="http://www.w3.org/1999/02/22-rdf-syntax-ns#"
   xmlns:svg="http://www.w3.org/2000/svg"
   xmlns="http://www.w3.org/2000/svg"
   xml:space="preserve"
   style="enable-background:new 0 0 30 30;"
   viewBox="0 0 30 30"
   y="0px"
   x="0px"
   id="Layer_1"
   version="1.1"><metadata
     id="metadata9"><rdf:RDF><cc:Work
         rdf:about=""><dc:format>image/svg+xml</dc:format><dc:type
           rdf:resource="http://purl.org/dc/dcmitype/StillImage" /></cc:Work></rdf:RDF></metadata><defs
     id="defs7" /><path
     id="path3"
     d="m 0.10458085,14.126327 c 0,-1.661412 0.51561075,-3.122309 1.56115455,-4.4113358 C 2.6969568,8.4259642 4.0289509,7.5952582 5.6473955,7.2371951 6.0627485,5.2606877 7.0510022,3.6565657 8.6121566,2.3818616 10.173311,1.1071574 11.963626,0.47696652 13.997424,0.47696652 c 1.99083,0 3.766823,0.61586848 5.327977,1.83328238 1.546831,1.2174141 2.563731,2.7928911 3.036374,4.726431 l 0.486965,0 c 1.289027,0 2.477796,0.3150954 3.551985,0.9452861 1.088511,0.6301909 1.93354,1.489542 2.56373,2.578054 0.615868,1.08851 0.930964,2.27728 0.930964,3.566307 0,1.919216 -0.658836,3.551984 -1.962184,4.926946 -1.317673,1.374962 -2.921795,2.091086 -4.82669,2.148377 -0.171871,0 -0.257805,-0.08593 -0.257805,-0.243483 l 0,-1.919217 c 0,-0.157548 0.08594,-0.243483 0.257805,-0.243483 1.203091,-0.100255 2.248636,-0.601545 3.107987,-1.503864 0.859351,-0.902319 1.289026,-1.962185 1.289026,-3.1796 0,-1.274703 -0.458321,-2.377538 -1.374962,-3.3085 C 25.211955,9.8868605 24.123445,9.4142179 22.84874,9.4142179 l -2.33457,0 c -0.17187,0 -0.272128,-0.085935 -0.315096,-0.2578054 L 20.09882,8.3400291 C 19.998565,7.3231302 19.669143,6.3921666 19.096242,5.5614605 18.523342,4.7307545 17.792893,4.0862412 16.904898,3.6135981 16.016901,3.1409549 15.04297,2.9117948 14.011749,2.9117948 c -1.575478,0 -2.936117,0.5156106 -4.0962408,1.5611544 C 8.755384,5.518493 8.0965482,6.8218421 7.9533229,8.3686741 l -0.100257,0.773416 c 0,0.1289026 -0.071613,0.2005152 -0.2291604,0.2005152 L 6.8504869,9.5001529 C 5.6473955,9.600411 4.6304967,10.087376 3.8284357,10.975372 c -0.8163836,0.887996 -1.2174141,1.93354 -1.2174141,3.150955 0,1.246058 0.4296756,2.320247 1.2747042,3.222565 0.8450285,0.90232 1.8762497,1.389285 3.1079863,1.460898 0.1718702,0 0.2578054,0.08593 0.2578054,0.243483 l 0,1.919218 c 0,0.157547 -0.085935,0.243482 -0.2578054,0.243482 C 6.048426,21.173006 5.1604298,20.958167 4.3010788,20.571459 3.4417277,20.184751 2.7112792,19.669141 2.1097335,19.03895 1.4938652,18.408759 1.0068995,17.678311 0.64883663,16.81896 0.29077353,15.959609 0.10458085,15.071612 0.10458085,14.126327 Z m 7.76280475,9.696345 c 0,-0.04297 0.014323,-0.11458 0.028645,-0.186194 0.014323,-0.07161 0.028644,-0.128903 0.028644,-0.157548 l 0.3867082,-1.475218 c 0.100258,-0.315096 0.2864503,-0.572901 0.5729006,-0.730449 0.2864505,-0.171871 0.5872232,-0.200515 0.9166413,-0.100255 0.3294183,0.100255 0.5729013,0.28645 0.7447713,0.572901 0.171871,0.286449 0.200515,0.587223 0.100255,0.916641 l -0.34374,1.446574 c -0.186193,0.630191 -0.544256,0.945285 -1.0885118,0.945285 -0.042967,0 -0.071613,0 -0.1289027,0 -0.042967,0 -0.100257,-0.01433 -0.1575477,-0.01433 -0.057287,-0.01432 -0.1002549,-0.01432 -0.1432224,-0.01432 C 8.4832541,24.939828 8.2540937,24.767957 8.096546,24.538797 7.9389983,24.309637 7.8673857,24.051831 7.8673857,23.822672 Z m 1.890572,-6.903455 c 0,-0.02864 0,-0.08593 0.014328,-0.157548 0.014328,-0.07161 0.014328,-0.11458 0.014328,-0.128902 L 10.21629,15.128903 c 0.08593,-0.272128 0.243482,-0.486966 0.458321,-0.644514 0.214838,-0.143224 0.443997,-0.214838 0.673158,-0.214838 0.02864,0 0.07161,0 0.11458,0 0.04297,0 0.08593,0.01433 0.128903,0.01433 0.04297,0.01433 0.08593,0.01433 0.11458,0.01433 0.329418,0.100255 0.5729,0.28645 0.730448,0.572901 0.17187,0.28645 0.200515,0.587223 0.100255,0.916641 l -0.343741,1.432251 c -0.100255,0.40103 -0.286451,0.673159 -0.572901,0.845029 -0.28645,0.17187 -0.601546,0.17187 -0.930964,0.02864 -0.315095,-0.08594 -0.544256,-0.24349 -0.7018034,-0.486972 C 9.8295815,17.363216 9.7579681,17.148377 9.7579681,16.919217 Z M 11.519628,28.30562 c 0,-0.04297 0.01432,-0.100255 0.02864,-0.186193 0.01432,-0.08594 0.02864,-0.128904 0.02864,-0.171871 l 0.415353,-1.41793 c 0.08593,-0.343739 0.28645,-0.601545 0.5729,-0.773416 0.286451,-0.171869 0.601546,-0.214837 0.930965,-0.114579 0.329417,0.100255 0.558579,0.28645 0.730447,0.587223 0.171871,0.300772 0.186194,0.601545 0.100255,0.930964 l -0.358061,1.489541 c -0.157549,0.587224 -0.529935,0.873674 -1.145803,0.873674 -0.07161,0 -0.186193,-0.01432 -0.343741,-0.05729 -0.315095,-0.05729 -0.544255,-0.200516 -0.701803,-0.429675 -0.171871,-0.22916 -0.257805,-0.472644 -0.257805,-0.730448 z m 1.919217,-6.831842 c 0,-0.08593 0.01433,-0.200515 0.05729,-0.358063 l 0.386708,-1.475219 c 0.100255,-0.329417 0.286451,-0.5729 0.587224,-0.730449 0.28645,-0.17187 0.601545,-0.200515 0.930962,-0.100254 0.329419,0.08593 0.558579,0.272126 0.730449,0.558577 0.157548,0.28645 0.186193,0.587223 0.08593,0.930964 l -0.34374,1.417929 c -0.186193,0.644513 -0.529934,0.973931 -1.031221,0.973931 -0.05729,0 -0.214838,-0.02864 -0.443999,-0.08593 -0.315095,-0.05729 -0.544256,-0.200515 -0.701803,-0.429675 -0.171871,-0.214838 -0.257806,-0.458321 -0.257806,-0.701804 z m 4.038951,2.406182 c 0,-0.100255 0.01433,-0.214836 0.04297,-0.343739 l 0.40103,-1.41793 c 0.100255,-0.34374 0.286451,-0.601546 0.587224,-0.773415 0.300773,-0.17187 0.587223,-0.214838 0.902318,-0.128903 0.329418,0.100255 0.587223,0.28645 0.759094,0.587223 0.171871,0.286451 0.214838,0.587223 0.128902,0.902319 l -0.415352,1.518187 c -0.143226,0.587223 -0.515611,0.873673 -1.131479,0.873673 -0.128903,0 -0.257806,-0.01431 -0.372386,-0.04297 -0.28645,-0.05729 -0.501288,-0.200515 -0.658836,-0.429675 -0.143224,-0.257805 -0.229159,-0.501287 -0.243482,-0.744771 z m 1.976507,-6.817517 c 0,-0.04297 0.02864,-0.171871 0.07161,-0.372386 l 0.429675,-1.475219 c 0.05729,-0.300772 0.186194,-0.529934 0.415353,-0.673158 0.22916,-0.143226 0.458321,-0.214838 0.701803,-0.200515 0.05729,-0.01432 0.186193,0 0.343741,0.04297 0.315095,0.07161 0.558577,0.257805 0.744771,0.544255 0.17187,0.243483 0.200515,0.544255 0.100255,0.930964 l -0.343733,1.475223 c -0.186194,0.615869 -0.544257,0.930964 -1.088512,0.930964 -0.08593,0 -0.243483,-0.02864 -0.486965,-0.08593 -0.300774,-0.08594 -0.515612,-0.24349 -0.658837,-0.444005 -0.157547,-0.229161 -0.229161,-0.443998 -0.229161,-0.673158 z" /></svg>