<?xml version="1.0" encoding="UTF-8" standalone="no"?>
<svg
   xmlns:dc="http://purl.org/dc/elements/1.1/"
   xmlns:cc="http://creativecommons.org/ns#"
   xmlns:rdf="http://www.w3.org/1999/02/22-rdf-syntax-ns#"
   xmlns:svg="http://www.w3.org/2000/svg"
   xmlns="http://www.w3.org/2000/svg"
   xml:space="preserve"
   style="enable-background:new 0 0 30 30;"
   viewBox="0 0 30 30"
   y="0px"
   x="0px"
   id="Layer_1"
   version="1.1"><metadata
     id="metadata9"><rdf:RDF><cc:Work
         rdf:about=""><dc:format>image/svg+xml</dc:format><dc:type
           rdf:resource="http://purl.org/dc/dcmitype/StillImage" /></cc:Work></rdf:RDF></metadata><defs
     id="defs7" /><path
     id="path3"
     d="m 0.09050813,14.043434 c 0,1.913132 0.66168504,3.55296 1.99943977,4.933868 1.3377547,1.380908 2.9631985,2.114516 4.890716,2.200823 0.158229,0 0.2445358,-0.08631 0.2445358,-0.244537 l 0,-1.927517 c 0,-0.158228 -0.086308,-0.244536 -0.2445358,-0.244536 -1.2370634,-0.05754 -2.2727445,-0.546609 -3.1358121,-1.467214 -0.8630675,-0.920605 -1.2946011,-1.99944 -1.2946011,-3.250887 0,-1.19391 0.4027647,-2.215207 1.2082944,-3.107045 C 4.5640749,10.058938 5.5709869,9.5410981 6.764897,9.3972537 l 0.7623764,-0.043154 c 0.1869979,0 0.2876891,-0.086308 0.2876891,-0.2733048 L 7.901269,8.318419 C 8.0594983,6.7648977 8.7067989,5.455912 9.8719397,4.4202309 11.037082,3.3701654 12.403605,2.8523249 13.971511,2.8523249 c 1.567906,0 2.934429,0.5178405 4.099571,1.567906 1.165141,1.0500654 1.826826,2.3446668 1.99944,3.8981883 l 0.115075,0.8342987 c 0,0.158229 0.0863,0.2445358 0.258921,0.2445358 l 2.315897,0 c 1.280217,0 2.387821,0.4603022 3.32281,1.3809083 0.934991,0.920606 1.409677,1.99944 1.409677,3.265272 0,1.251447 -0.431534,2.330282 -1.294601,3.250887 -0.863068,0.920605 -1.913132,1.409677 -3.135812,1.467214 -0.186997,0 -0.287689,0.08631 -0.287689,0.244536 l 0,1.927517 c 0,0.15823 0.100696,0.244537 0.287689,0.244537 1.251447,-0.02878 2.402205,-0.373996 3.45227,-1.021297 1.050066,-0.6473 1.884365,-1.510368 2.488511,-2.589202 0.604147,-1.078835 0.906222,-2.258361 0.906222,-3.509809 0,-1.280215 -0.316459,-2.474127 -0.963759,-3.552961 C 28.312816,9.4260225 27.435364,8.5629549 26.342146,7.9444233 25.248927,7.3258916 24.040632,6.9950489 22.760415,6.9950489 l -0.460302,0 C 21.83981,5.0675316 20.818513,3.4996256 19.279376,2.2769466 17.74024,1.0542675 15.970951,0.43573583 13.985895,0.43573583 11.957687,0.43573583 10.159629,1.068652 8.5917233,2.3201 7.0238173,3.5715478 6.0169052,5.1826072 5.5709869,7.1388936 3.974312,7.5128895 2.6653263,8.3328037 1.6440297,9.6274049 0.62273304,10.922005 0.09050813,12.38922 0.09050813,14.043434 Z M 7.9300382,24.400243 c 0.1294601,0.302074 0.3596115,0.532225 0.6616851,0.661686 0.2876892,0.143844 0.5897628,0.158229 0.8918365,0.02877 C 9.8000177,24.96124 10.0014,24.745473 10.130861,24.443398 10.274705,24.12694 10.28909,23.824868 10.159631,23.522793 10.044554,23.220718 9.8144019,23.019336 9.5123286,22.889875 9.2246395,22.731646 8.9369503,22.717261 8.6348767,22.846723 8.332803,22.976182 8.1170361,23.191949 7.9731916,23.522791 7.8149625,23.767328 7.8149625,24.055016 7.9300382,24.400243 Z m 0.9062209,-4.056418 c 0,0.230152 0.071922,0.445919 0.2157669,0.647301 0.1438445,0.215767 0.3739959,0.359612 0.6616851,0.460304 0.2733041,0.158229 0.5753789,0.172613 0.8918369,0.01439 0.316458,-0.143844 0.532225,-0.431534 0.632916,-0.863068 l 1.294602,-4.861947 c 0.08631,-0.359611 0.05754,-0.676069 -0.115077,-0.963758 -0.172613,-0.28769 -0.417149,-0.460303 -0.762376,-0.51784 -0.115075,-0.02877 -0.230151,-0.04315 -0.345226,-0.04315 -0.230152,0 -0.460304,0.07193 -0.676071,0.215767 -0.215767,0.143845 -0.373995,0.359612 -0.460301,0.632916 l -1.2658336,4.876326 c -0.057538,0.23015 -0.071922,0.359611 -0.071922,0.402764 z m 2.6755099,8.040913 c 0,0.172614 0.02876,0.316459 0.08631,0.41715 0.129461,0.316459 0.345228,0.532226 0.647301,0.647301 0.12946,0.07193 0.28769,0.115075 0.474688,0.115075 0.0863,0 0.23015,-0.02876 0.431533,-0.08631 0.316458,-0.115076 0.54661,-0.330842 0.67607,-0.647301 0.143844,-0.316458 0.143844,-0.632915 0,-0.949373 -0.143845,-0.316458 -0.359612,-0.532225 -0.647301,-0.661686 -0.287689,-0.12946 -0.575378,-0.12946 -0.891836,0 -0.273305,0.115077 -0.460303,0.28769 -0.589763,0.517841 -0.129461,0.230151 -0.186998,0.445917 -0.186998,0.6473 z m 1.050065,-3.754342 c 0,0.532224 0.302074,0.877451 0.906221,1.050064 0.158229,0.04315 0.273305,0.05754 0.345227,0.05754 0.215767,0 0.402765,-0.04315 0.546609,-0.115075 0.302075,-0.115076 0.503457,-0.38838 0.604148,-0.819914 l 2.402205,-9.047825 c 0.0863,-0.345227 0.05754,-0.647301 -0.08631,-0.93499 -0.143844,-0.273305 -0.38838,-0.460302 -0.704838,-0.54661 -0.115076,-0.02876 -0.244536,-0.04315 -0.38838,-0.04315 -0.230151,0 -0.460303,0.07193 -0.690455,0.215767 -0.23015,0.143845 -0.373996,0.359612 -0.431533,0.632916 l -2.459742,9.119748 c -0.02878,0.201381 -0.04315,0.345226 -0.04315,0.431534 z m 4.933869,-0.661687 c 0,0.172614 0.02877,0.330843 0.115077,0.460304 0.115075,0.273304 0.330842,0.489071 0.632915,0.632916 0.15823,0.05754 0.330843,0.100686 0.503457,0.100686 0.08631,0 0.230151,-0.02877 0.431534,-0.0863 0.302073,-0.115075 0.532224,-0.330842 0.661684,-0.632916 0.100696,-0.316459 0.100696,-0.618531 -0.01439,-0.906221 -0.115075,-0.287689 -0.316457,-0.503456 -0.604147,-0.6473 -0.330842,-0.15823 -0.632915,-0.172615 -0.934989,-0.04315 -0.302074,0.129459 -0.517841,0.345226 -0.661686,0.676068 -0.0863,0.143846 -0.12946,0.28769 -0.12946,0.445918 z m 1.050066,-3.696805 c 0,0.201383 0.07193,0.41715 0.230152,0.6473 0.158229,0.230151 0.373996,0.388381 0.6473,0.474688 0.230151,0.04315 0.359612,0.07193 0.38838,0.07193 0.129461,0 0.316459,-0.04315 0.532226,-0.143844 0.287688,-0.129461 0.474686,-0.388381 0.575378,-0.747993 l 1.294601,-4.804408 c 0.02877,-0.244537 0.04315,-0.373996 0.04315,-0.373996 0,-0.230152 -0.07193,-0.445919 -0.215766,-0.661686 -0.143845,-0.215767 -0.359612,-0.359611 -0.647301,-0.445917 -0.12946,-0.02877 -0.25892,-0.04315 -0.373996,-0.04315 -0.230152,0 -0.460302,0.07193 -0.676069,0.215767 -0.215767,0.143844 -0.359612,0.359611 -0.445919,0.6473 l -1.294601,4.833179 -0.05754,0.330842 z" /></svg>