<?xml version="1.0" encoding="UTF-8" standalone="no"?>
<svg
   xmlns:dc="http://purl.org/dc/elements/1.1/"
   xmlns:cc="http://creativecommons.org/ns#"
   xmlns:rdf="http://www.w3.org/1999/02/22-rdf-syntax-ns#"
   xmlns:svg="http://www.w3.org/2000/svg"
   xmlns="http://www.w3.org/2000/svg"
   xml:space="preserve"
   style="enable-background:new 0 0 30 30;"
   viewBox="0 0 30 30"
   y="0px"
   x="0px"
   id="Layer_1"
   version="1.1"><metadata
     id="metadata9"><rdf:RDF><cc:Work
         rdf:about=""><dc:format>image/svg+xml</dc:format><dc:type
           rdf:resource="http://purl.org/dc/dcmitype/StillImage" /></cc:Work></rdf:RDF></metadata><defs
     id="defs7" /><path
     id="path3"
     d="m 0.09261124,14.29458 c 0,-1.669972 0.50387118,-3.138397 1.52600996,-4.4340663 C 2.6407599,8.5648449 3.9508249,7.7298584 5.5632127,7.3267614 6.0094986,5.368862 7.017241,3.7564741 8.5864398,2.4895981 10.155639,1.2227219 11.955179,0.60368008 13.98506,0.60368008 c 1.986691,0 3.743042,0.61904182 5.297845,1.84272902 1.554802,1.2236872 2.562544,2.8072823 3.023227,4.7363891 l 0.460682,0 c 1.281272,0 2.476166,0.316719 3.570286,0.950157 1.094121,0.6334382 1.972297,1.4972173 2.605735,2.5913388 0.633437,1.094119 0.964554,2.289014 0.964554,3.570286 0,1.900315 -0.662231,3.555891 -2.001089,4.923543 -1.324461,1.382046 -2.951246,2.101862 -4.865956,2.159447 -0.187153,0 -0.287927,-0.08637 -0.287927,-0.244738 l 0,-1.914709 c 0,-0.172757 0.100778,-0.259136 0.287927,-0.259136 1.223687,-0.05759 2.274618,-0.547059 3.138397,-1.468424 0.86378,-0.921363 1.295669,-1.986691 1.295669,-3.210379 0,-1.281272 -0.460681,-2.375392 -1.396443,-3.311154 -0.93576,-0.935761 -2.044277,-1.3964427 -3.339946,-1.3964427 l -2.317807,0 c -0.172756,0 -0.259134,-0.086378 -0.259134,-0.2447376 L 20.045909,8.4928632 C 19.887549,6.9380608 19.210923,5.6279957 18.044821,4.5770644 16.864323,3.5261331 15.511068,2.9934692 13.94187,2.9934692 c -1.583594,0 -2.951246,0.5326639 -4.1173465,1.5979915 -1.1661021,1.0653276 -1.8283328,2.3753928 -1.972296,3.9589879 l -0.086378,0.7198159 c 0,0.1727559 -0.1007742,0.2735301 -0.2879263,0.2735301 L 6.7149182,9.6445689 C 5.5200237,9.7453434 4.5122814,10.234818 3.6916912,11.141787 2.8711009,12.048755 2.4680039,13.085289 2.4680039,14.29458 c 0,1.223688 0.4318897,2.289016 1.2956689,3.210379 0.8637792,0.921366 1.9147105,1.396445 3.1383976,1.468425 0.1583596,0 0.2447374,0.08637 0.2447374,0.259134 l 0,1.91471 c 0,0.15836 -0.086378,0.244739 -0.2447374,0.244739 C 4.9729635,21.334377 3.3461794,20.614565 2.0073218,19.232518 0.75484196,17.850471 0.09261124,16.194895 0.09261124,14.29458 Z M 8.0105871,25.379747 c 0,-0.331115 0.1151705,-0.619042 0.3599079,-0.86378 0.2303411,-0.215944 0.5038712,-0.331114 0.8205902,-0.331114 0.3311153,0 0.6190419,0.11517 0.8493828,0.331114 0.230341,0.215945 0.345511,0.503872 0.345511,0.849384 0,0.345511 -0.11517,0.619041 -0.345511,0.849382 -0.2303409,0.230341 -0.5038712,0.331115 -0.8493828,0.331115 -0.3311153,0 -0.6190418,-0.11517 -0.8493829,-0.331115 C 8.1257576,25.998788 8.0105871,25.710862 8.0105871,25.379747 Z m 1.2380833,-5.225865 c 0,-0.316719 0.1151706,-0.604645 0.3455117,-0.834986 0.2303414,-0.230341 0.5038709,-0.345512 0.8493829,-0.345512 0.331116,0 0.619042,0.115171 0.849382,0.345512 0.230342,0.230341 0.345513,0.518267 0.345513,0.834986 0,0.345512 -0.115171,0.633439 -0.345513,0.86378 -0.23034,0.244738 -0.50387,0.359908 -0.849382,0.359908 -0.331115,0 -0.6190415,-0.11517 -0.8493829,-0.359908 C 9.363841,20.787321 9.2486704,20.499394 9.2486704,20.153882 Z m 2.7353016,8.047543 c 0,-0.331115 0.11517,-0.619041 0.359907,-0.878176 0.230341,-0.23034 0.503871,-0.345511 0.82059,-0.345511 0.345511,0 0.633438,0.115171 0.878174,0.359908 0.244739,0.244738 0.359909,0.532664 0.359909,0.863779 0,0.331116 -0.11517,0.619042 -0.359909,0.849383 -0.244736,0.230342 -0.532663,0.345512 -0.878174,0.345512 -0.331115,0 -0.604645,-0.11517 -0.834986,-0.345512 -0.215945,-0.244738 -0.345511,-0.518267 -0.345511,-0.849383 z m 1.252479,-5.269053 c 0,-0.345511 0.11517,-0.633438 0.345512,-0.892572 0.23034,-0.23034 0.518266,-0.345511 0.834985,-0.345511 0.331116,0 0.619043,0.115171 0.86378,0.359908 0.244737,0.244737 0.359907,0.532664 0.359907,0.878175 0,0.331116 -0.11517,0.619042 -0.359907,0.863779 -0.244737,0.244738 -0.532664,0.359909 -0.86378,0.359909 -0.331115,0 -0.604645,-0.115171 -0.834985,-0.359909 -0.230342,-0.244737 -0.345512,-0.532663 -0.345512,-0.863779 z m 0.604645,-5.211467 c 0,-0.331115 0.115171,-0.619042 0.359907,-0.863779 0.259135,-0.230342 0.532664,-0.345512 0.820592,-0.345512 0.345511,0 0.633437,0.11517 0.878174,0.359908 0.244738,0.244737 0.359908,0.518268 0.359908,0.86378 0,0.331114 -0.11517,0.61904 -0.359908,0.849382 -0.244737,0.230341 -0.532663,0.345512 -0.878174,0.345512 -0.331116,0 -0.604647,-0.115171 -0.834988,-0.345512 -0.23034,-0.244737 -0.345511,-0.532663 -0.345511,-0.863779 z m 3.411926,7.658842 c 0,-0.331115 0.115172,-0.619042 0.345513,-0.86378 0.230342,-0.215944 0.518268,-0.331114 0.863779,-0.331114 0.345512,0 0.619042,0.11517 0.849383,0.331114 0.230341,0.230341 0.331115,0.503872 0.331115,0.849384 0,0.345511 -0.11517,0.619041 -0.331115,0.849382 -0.230341,0.230341 -0.503871,0.331115 -0.849383,0.331115 -0.345511,0 -0.633437,-0.11517 -0.863779,-0.345511 -0.230341,-0.215945 -0.345513,-0.489475 -0.345513,-0.82059 z m 1.223688,-5.225865 c 0,-0.316719 0.115171,-0.590248 0.359909,-0.834986 0.244737,-0.244737 0.532664,-0.359909 0.863779,-0.359909 0.331115,0 0.619042,0.115172 0.849382,0.345512 0.230342,0.230342 0.345512,0.518268 0.345512,0.834987 0,0.345512 -0.11517,0.633438 -0.345512,0.863779 -0.23034,0.244738 -0.503871,0.359909 -0.849382,0.359909 -0.345512,0 -0.633439,-0.115171 -0.863779,-0.359909 -0.230342,-0.230341 -0.359909,-0.518267 -0.359909,-0.849383 z" /></svg>