<?xml version="1.0" encoding="UTF-8" standalone="no"?>
<svg
   xmlns:dc="http://purl.org/dc/elements/1.1/"
   xmlns:cc="http://creativecommons.org/ns#"
   xmlns:rdf="http://www.w3.org/1999/02/22-rdf-syntax-ns#"
   xmlns:svg="http://www.w3.org/2000/svg"
   xmlns="http://www.w3.org/2000/svg"
   xml:space="preserve"
   style="enable-background:new 0 0 30 30;"
   viewBox="0 0 30 30"
   y="0px"
   x="0px"
   id="Layer_1"
   version="1.1"><metadata
     id="metadata9"><rdf:RDF><cc:Work
         rdf:about=""><dc:format>image/svg+xml</dc:format><dc:type
           rdf:resource="http://purl.org/dc/dcmitype/StillImage" /></cc:Work></rdf:RDF></metadata><defs
     id="defs7" /><path
     id="path3"
     d="m 0.05740575,14.192682 c 0,-1.657886 0.51899029,-3.128359 1.55697085,-4.4258341 C 2.652357,8.4693726 3.964249,7.6476381 5.5500525,7.2728119 5.9969609,5.312182 7.020525,3.6975456 8.5919122,2.4289028 10.163299,1.16026 11.965348,0.54035488 13.998059,0.54035488 c 1.989463,0 3.748263,0.61990512 5.305234,1.84529872 1.556971,1.2253937 2.566119,2.8111972 3.027443,4.7429943 l 0.461325,0 c 1.283059,0 2.479619,0.3171606 3.575266,0.9370658 1.095646,0.6199049 1.975046,1.4848887 2.609368,2.5661183 0.634322,1.081229 0.965899,2.27779 0.965899,3.56085 0,1.268643 -0.302745,2.436371 -0.908234,3.5176 -0.605488,1.08123 -1.441639,1.946214 -2.494036,2.594951 -1.052398,0.648739 -2.205709,0.994731 -3.459935,1.023564 -0.187414,0 -0.288328,-0.0865 -0.288328,-0.245078 l 0,-1.91738 c 0,-0.172997 0.100905,-0.259496 0.288328,-0.259496 1.225394,-0.05767 2.27779,-0.547823 3.142774,-1.470472 0.864984,-0.92265 1.297476,-2.003879 1.297476,-3.258105 0,-1.254227 -0.475741,-2.335456 -1.412807,-3.258106 C 25.170767,9.9975111 24.060703,9.5361859 22.777645,9.5361859 l -2.321041,0 c -0.172996,0 -0.259494,-0.086499 -0.259494,-0.2450787 L 20.081779,8.4549562 C 19.923199,6.8979855 19.245627,5.5860936 18.0779,4.548113 16.895755,3.4957162 15.540614,2.9767259 13.969226,2.9767259 c -1.571387,0 -2.95536,0.5189903 -4.1086708,1.5713871 C 8.6928269,5.6005099 8.0440891,6.8979855 7.8999251,8.4549562 L 7.7990098,9.2190253 c 0,0.1729967 -0.1009152,0.2739115 -0.2883278,0.2739115 l -0.7640689,0.04325 C 5.5500522,9.6803507 4.5409046,10.199341 3.71917,11.07874 c -0.8217346,0.879401 -1.2253935,1.917382 -1.2253935,3.113942 0,1.254227 0.4324918,2.335456 1.2974755,3.258105 0.8649838,0.92265 1.9173806,1.412807 3.1427743,1.470473 0.1585804,0 0.2450788,0.0865 0.2450788,0.259495 l 0,1.917381 c 0,0.158581 -0.086499,0.245079 -0.2450788,0.245079 C 5.0022295,21.256716 3.3731768,20.521479 2.0324521,19.137505 0.69172717,17.753531 0.05740575,16.110063 0.05740575,14.192682 Z m 7.71277165,9.644569 c 0,-0.05767 0.014417,-0.158581 0.057665,-0.288328 l 2.3498725,-8.318261 c 0.0865,-0.273911 0.245079,-0.490157 0.461323,-0.63432 0.216247,-0.144164 0.446909,-0.216247 0.663155,-0.216247 0.100905,0 0.216245,0.01441 0.345993,0.04325 0.345994,0.05767 0.605489,0.245079 0.778487,0.533407 0.172997,0.288328 0.216246,0.605488 0.11533,0.965898 l -2.349872,8.260595 c -0.172997,0.619905 -0.5766554,0.92265 -1.1821441,0.92265 -0.057665,0 -0.1009152,-0.01441 -0.1585803,-0.02884 -0.086498,-0.02883 -0.129747,-0.04324 -0.1441634,-0.04324 C 8.3900827,24.947313 8.1594203,24.788733 8.0008399,24.558071 7.8422596,24.312992 7.7701774,24.08233 7.7701774,23.837251 Z m 3.7770956,4.051007 3.517599,-12.643179 c 0.05767,-0.273913 0.201831,-0.490157 0.432493,-0.634322 0.230661,-0.144164 0.461324,-0.216246 0.706403,-0.216246 0.129747,0 0.259495,0.01441 0.389243,0.04325 0.31716,0.08649 0.547823,0.273911 0.706402,0.562239 0.158581,0.288328 0.187414,0.591072 0.100916,0.922649 l -3.503185,12.657596 c -0.05766,0.245078 -0.187412,0.446908 -0.418074,0.619905 -0.230663,0.172996 -0.461324,0.259495 -0.735236,0.259495 -0.129748,0 -0.259495,-0.02884 -0.36041,-0.07209 -0.288328,-0.07209 -0.533407,-0.259495 -0.749653,-0.56224 -0.15858,-0.259495 -0.187413,-0.562239 -0.08649,-0.937065 z m 5.953971,-4.022174 c 0,-0.05767 0.01441,-0.158581 0.05766,-0.331577 l 2.349872,-8.318261 c 0.0865,-0.273912 0.230664,-0.490158 0.432492,-0.634322 0.216246,-0.144163 0.432492,-0.216246 0.663155,-0.216246 0.115331,0 0.245078,0.01441 0.374827,0.04325 0.302743,0.0865 0.51899,0.230661 0.663154,0.446907 0.144163,0.216247 0.216246,0.446909 0.216246,0.677572 0,0.04325 -0.01441,0.115331 -0.02884,0.201829 -0.01441,0.08649 -0.02884,0.144163 -0.02884,0.172997 l -2.349865,8.260596 c -0.05766,0.273911 -0.187413,0.504574 -0.403658,0.663155 -0.216246,0.158579 -0.461325,0.245078 -0.735237,0.245078 l -0.345993,-0.07209 C 18.07789,24.918472 17.861644,24.774309 17.703063,24.543646 17.573315,24.3274 17.501234,24.096739 17.501234,23.866077 Z" /></svg>