<?xml version="1.0" encoding="UTF-8" standalone="no"?>
<svg
   xmlns:dc="http://purl.org/dc/elements/1.1/"
   xmlns:cc="http://creativecommons.org/ns#"
   xmlns:rdf="http://www.w3.org/1999/02/22-rdf-syntax-ns#"
   xmlns:svg="http://www.w3.org/2000/svg"
   xmlns="http://www.w3.org/2000/svg"
   xml:space="preserve"
   style="enable-background:new 0 0 30 30;"
   viewBox="0 0 30 30"
   y="0px"
   x="0px"
   id="Layer_1"
   version="1.1"><metadata
     id="metadata9"><rdf:RDF><cc:Work
         rdf:about=""><dc:format>image/svg+xml</dc:format><dc:type
           rdf:resource="http://purl.org/dc/dcmitype/StillImage" /></cc:Work></rdf:RDF></metadata><defs
     id="defs7" /><path
     id="path3"
     d="m 0.08132963,14.294046 c 0,-1.671236 0.5042525,-3.140773 1.52716477,-4.4374219 C 2.6314067,8.5599753 3.9424632,7.7243569 5.5560711,7.3209548 6.0026949,5.3615737 7.0111999,3.7479657 8.5815863,2.4801308 10.151972,1.2122959 11.952874,0.59278576 13.984291,0.59278576 c 1.988195,0 3.745875,0.61951014 5.301855,1.84412344 1.555979,1.2246132 2.564484,2.8094069 3.025515,4.7399735 l 0.46103,0 c 1.282242,0 2.478041,0.3169588 3.572989,0.9508762 1.094948,0.6339175 1.973789,1.4983503 2.607706,2.5932981 0.633918,1.094948 0.965284,2.290748 0.965284,3.572989 0,1.901752 -0.662733,3.558582 -2.002603,4.927268 -1.325464,1.383093 -2.95348,2.103453 -4.869638,2.161082 -0.187294,0 -0.288145,-0.08645 -0.288145,-0.244923 l 0,-1.916159 c 0,-0.172887 0.100852,-0.25933 0.288145,-0.25933 1.224612,-0.05763 2.276339,-0.547474 3.140773,-1.469536 0.864432,-0.922061 1.296648,-1.988195 1.296648,-3.212809 0,-1.282241 -0.46103,-2.37719 -1.397499,-3.313659 -0.93647,-0.936469 -2.045825,-1.3974996 -3.342474,-1.3974996 l -2.319561,0 c -0.172887,0 -0.259331,-0.086444 -0.259331,-0.2449227 L 20.049727,8.4879393 C 19.891248,6.9319601 19.21411,5.6209035 18.047124,4.5691769 16.865734,3.5174502 15.511455,2.9843833 13.941069,2.9843833 c -1.584793,0 -2.953479,0.5330669 -4.1204621,1.5992009 C 8.6536224,5.649718 7.9908904,6.9607745 7.8468183,8.5455682 l -0.086443,0.7203607 c 0,0.1728865 -0.1008511,0.273737 -0.2881442,0.273737 L 6.7086488,9.6405171 C 5.51285,9.7413682 4.504345,10.231212 3.6831338,11.138867 c -0.8212112,0.907655 -1.2246133,1.944974 -1.2246133,3.15518 0,1.224614 0.4322165,2.290747 1.2966494,3.212808 0.8644329,0.922063 1.9161595,1.3975 3.1407727,1.469537 0.1584794,0 0.2449226,0.08644 0.2449226,0.25933 l 0,1.916159 c 0,0.15848 -0.086443,0.244923 -0.2449226,0.244923 C 4.9653753,21.339174 3.3373601,20.618814 1.9974892,19.235721 0.74406153,17.852628 0.08132963,16.195798 0.08132963,14.294046 Z m 9.16298847,5.863737 c 0,-0.316959 0.1152577,-0.605103 0.3457732,-0.835619 0.2305156,-0.230515 0.5042517,-0.345773 0.8500247,-0.345773 0.331367,0 0.61951,0.115258 0.850025,0.345773 0.230516,0.230516 0.345775,0.51866 0.345775,0.835619 0,0.345772 -0.115259,0.633917 -0.345775,0.864433 -0.230515,0.244922 -0.504251,0.36018 -0.850025,0.36018 -0.331366,0 -0.6195091,-0.115258 -0.8500247,-0.36018 C 9.3595758,20.7917 9.2443181,20.503555 9.2443181,20.157783 Z m 0,5.229819 c 0,-0.345774 0.1152577,-0.633919 0.3457732,-0.864433 0.2305156,-0.216108 0.5042517,-0.331366 0.8356177,-0.331366 0.331366,0 0.61951,0.115258 0.850026,0.331366 0.230515,0.230514 0.345774,0.504253 0.345774,0.850026 0,0.345773 -0.115259,0.61951 -0.345774,0.850025 -0.230516,0.230515 -0.504252,0.331366 -0.850026,0.331366 -0.331366,0 -0.6195095,-0.115258 -0.850025,-0.331366 C 9.3595758,26.007112 9.2443181,25.718968 9.2443181,25.387602 Z m 4.5958999,-2.449228 c 0,-0.331365 0.115258,-0.633916 0.360181,-0.893246 0.230515,-0.230516 0.504252,-0.345773 0.821212,-0.345773 0.331365,0 0.619509,0.129664 0.864432,0.374587 0.244923,0.244923 0.374587,0.533067 0.374587,0.864432 0,0.331367 -0.115257,0.619512 -0.36018,0.864434 -0.244923,0.244923 -0.533067,0.360181 -0.878839,0.360181 -0.331367,0 -0.605104,-0.115258 -0.835619,-0.360181 -0.230516,-0.244922 -0.345774,-0.533067 -0.345774,-0.864434 z m 0,-5.21541 c 0,-0.331366 0.115258,-0.619512 0.360181,-0.864434 0.259329,-0.230514 0.533066,-0.345772 0.821212,-0.345772 0.345772,0 0.633916,0.115258 0.878839,0.36018 0.244923,0.244922 0.36018,0.51866 0.36018,0.864433 0,0.331366 -0.115257,0.61951 -0.36018,0.850025 -0.244923,0.230516 -0.533067,0.345773 -0.878839,0.345773 -0.331367,0 -0.605104,-0.115257 -0.835619,-0.345773 -0.230516,-0.244922 -0.345774,-0.533066 -0.345774,-0.864432 z m 0,10.488451 c 0,-0.331365 0.115258,-0.61951 0.360181,-0.87884 0.230515,-0.230515 0.504252,-0.345773 0.821212,-0.345773 0.345772,0 0.633916,0.115258 0.878839,0.36018 0.244923,0.244923 0.36018,0.533068 0.36018,0.864433 0,0.331367 -0.115257,0.619511 -0.36018,0.850025 -0.244923,0.230517 -0.533067,0.345774 -0.878839,0.345774 -0.331367,0 -0.605104,-0.115257 -0.835619,-0.345774 -0.230516,-0.244922 -0.345774,-0.518658 -0.345774,-0.850025 z m 4.639124,-8.053632 c 0,-0.316959 0.115257,-0.590696 0.36018,-0.835619 0.244922,-0.244922 0.533067,-0.36018 0.864433,-0.36018 0.331365,0 0.61951,0.115258 0.850025,0.345773 0.230516,0.230515 0.345772,0.51866 0.345772,0.835618 0,0.345773 -0.115256,0.633918 -0.345772,0.864434 -0.230515,0.244922 -0.504253,0.36018 -0.850025,0.36018 -0.345773,0 -0.633919,-0.115258 -0.864433,-0.36018 -0.230515,-0.230516 -0.36018,-0.518661 -0.36018,-0.850026 z m 0,5.229819 c 0,-0.316959 0.115257,-0.605104 0.36018,-0.864433 0.230514,-0.216108 0.51866,-0.331366 0.864433,-0.331366 0.345772,0 0.61951,0.115258 0.850025,0.331366 0.230516,0.216107 0.331365,0.504253 0.331365,0.850026 0,0.345773 -0.115257,0.61951 -0.331365,0.850025 -0.230515,0.230515 -0.504253,0.331366 -0.850025,0.331366 -0.345773,0 -0.633919,-0.115258 -0.864433,-0.345774 -0.230515,-0.216107 -0.36018,-0.489844 -0.36018,-0.82121 z" /></svg>