<?xml version="1.0" encoding="UTF-8" standalone="no"?>
<svg
   xmlns:dc="http://purl.org/dc/elements/1.1/"
   xmlns:cc="http://creativecommons.org/ns#"
   xmlns:rdf="http://www.w3.org/1999/02/22-rdf-syntax-ns#"
   xmlns:svg="http://www.w3.org/2000/svg"
   xmlns="http://www.w3.org/2000/svg"
   xml:space="preserve"
   style="enable-background:new 0 0 30 30;"
   viewBox="0 0 30 30"
   y="0px"
   x="0px"
   id="Layer_1"
   version="1.1"><metadata
     id="metadata9"><rdf:RDF><cc:Work
         rdf:about=""><dc:format>image/svg+xml</dc:format><dc:type
           rdf:resource="http://purl.org/dc/dcmitype/StillImage" /></cc:Work></rdf:RDF></metadata><defs
     id="defs7" /><path
     id="path3"
     d="m 0.09247723,21.122733 c 0,0.998271 0.24402197,1.918899 0.7320659,2.761884 0.48804397,0.842985 1.15355847,1.508499 1.99654337,1.996544 0.8429849,0.488044 1.7525213,0.732066 2.739701,0.732066 l 12.0125345,0 c 0.98718,0 1.907808,-0.244022 2.750793,-0.732066 0.842985,-0.488045 1.519592,-1.153559 2.007636,-1.996544 0.488043,-0.842985 0.743158,-1.763613 0.743158,-2.761884 0,-0.732066 -0.155287,-1.475224 -0.46586,-2.218382 0.842985,-1.020455 1.264477,-2.251657 1.264477,-3.660329 0,-0.787526 -0.155288,-1.541776 -0.454769,-2.262749 -0.299482,-0.720975 -0.720974,-1.331029 -1.242294,-1.852349 -0.521319,-0.521319 -1.131374,-0.942812 -1.852348,-1.2422933 -0.720974,-0.3105736 -1.475223,-0.4547683 -2.262749,-0.4547683 -1.641602,0 -3.072458,0.6433306 -4.303659,1.9299916 -0.854078,-0.488043 -1.852349,-0.732065 -2.994816,-0.732065 -1.563958,0 -2.9393544,0.488042 -4.1372804,1.453039 -1.1979259,0.964996 -1.9743594,2.207289 -2.3071167,3.715788 -1.2422936,0.28839 -2.2516571,0.920629 -3.0391824,1.918901 -0.78752559,0.998271 -1.18683427,2.129645 -1.18683427,3.405216 z m 1.89671617,0 c 0,-0.931721 0.3105734,-1.730338 0.9317202,-2.406945 0.6211468,-0.676605 1.3975803,-1.064823 2.3293005,-1.175742 l 0.5545954,-0.03328 c 0.1331029,0 0.2107462,-0.06654 0.2107462,-0.199654 l 0.077644,-0.598963 c 0.1552867,-1.197926 0.6766062,-2.20729 1.5639589,-3.005907 0.8873525,-0.809708 1.9299918,-1.209017 3.1168264,-1.209017 1.22011,0 2.284933,0.4104 3.183377,1.220109 0.909537,0.80971 1.408673,1.80798 1.519592,3.005907 l 0.07764,0.643331 c 0.02217,0.122011 0.09983,0.188562 0.23293,0.188562 l 1.785796,0 c 0.976088,0 1.819073,0.354941 2.528955,1.064823 0.709881,0.709882 1.064822,1.541775 1.064822,2.517863 0,1.009364 -0.354941,1.86344 -1.05373,2.573322 -0.69879,0.709883 -1.552867,1.064824 -2.528956,1.064824 l -12.023626,0 c -0.9760878,0 -1.8079808,-0.354941 -2.5178628,-1.075915 C 2.3441345,22.975081 1.9891934,22.121004 1.9891934,21.122733 Z M 9.4207712,7.5129624 c 0,0.2662057 0.088736,0.4991358 0.2662058,0.6987901 l 0.732067,0.7098821 c 0.277296,0.2107463 0.510225,0.2994814 0.709881,0.2772977 0.232929,0 0.432584,-0.099827 0.610054,-0.2883896 0.17747,-0.1885624 0.266206,-0.4214925 0.266206,-0.6876982 0,-0.2662058 -0.09983,-0.4880439 -0.288389,-0.6544225 L 11.062372,6.8363561 C 10.862718,6.6588855 10.640881,6.5701503 10.385766,6.5701503 c -0.266205,0 -0.4991349,0.088736 -0.6876971,0.2772976 C 9.5095065,7.0249185 9.4207712,7.2467566 9.4207712,7.5129624 Z m 5.9230778,4.9137146 c 0.765341,-0.743158 1.674877,-1.10919 2.717517,-1.10919 1.098099,0 2.02982,0.377124 2.795161,1.142466 0.765342,0.765342 1.153558,1.68597 1.153558,2.784069 0,0.687697 -0.188563,1.375396 -0.565687,2.04091 -1.075915,-1.064823 -2.362576,-1.597233 -3.871076,-1.597233 l -0.35494,0 c -0.277298,-1.20902 -0.898445,-2.296026 -1.874533,-3.261022 z M 17.15183,6.5701503 c 0,0.2883896 0.08874,0.5102277 0.255114,0.6876982 0.166378,0.1774705 0.388217,0.2551139 0.654422,0.2551139 0.288391,0 0.510228,-0.088736 0.687698,-0.2551139 0.17747,-0.1774705 0.255115,-0.3993086 0.255115,-0.6876982 l 0,-2.2738409 c 0,-0.2662059 -0.08874,-0.4769521 -0.266207,-0.6544225 -0.17747,-0.1774707 -0.399309,-0.255114 -0.676606,-0.255114 -0.266205,0 -0.476952,0.088736 -0.654422,0.255114 -0.177471,0.1663786 -0.255114,0.3882166 -0.255114,0.6544225 l 0,2.2738409 z m 6.122732,2.5400467 c 0,0.2883896 0.07765,0.5102278 0.244022,0.6876983 0.232931,0.1774701 0.46586,0.2662057 0.687699,0.2662057 0.199654,0 0.421493,-0.088739 0.654421,-0.2662057 l 1.586144,-1.5861428 c 0.17747,-0.1996543 0.266205,-0.4325844 0.266205,-0.709882 0,-0.2662058 -0.08874,-0.488044 -0.266205,-0.6655144 -0.177471,-0.1774706 -0.399309,-0.2662058 -0.654422,-0.2662058 -0.266206,0 -0.476953,0.088736 -0.643331,0.2662058 L 23.518584,8.4224988 C 23.352206,8.633245 23.274562,8.8550832 23.274562,9.110197 Z m 0.87626,13.132818 c 0,0.266206 0.08874,0.499135 0.277298,0.69879 l 0.720975,0.69879 c 0.166378,0.17747 0.377125,0.266206 0.643331,0.266206 0.266205,0 0.488043,-0.08874 0.665513,-0.277298 0.177472,-0.188562 0.266207,-0.4104 0.266207,-0.687698 0,-0.244021 -0.08874,-0.465861 -0.266207,-0.64333 L 25.736966,21.5775 c -0.177471,-0.17747 -0.388217,-0.266205 -0.632239,-0.266205 -0.266205,0 -0.488043,0.08874 -0.665514,0.266205 -0.188562,0.17747 -0.288391,0.399309 -0.288391,0.665515 z m 1.630512,-6.998993 c 0,0.255113 0.09983,0.46586 0.28839,0.64333 0.177469,0.177471 0.410399,0.266206 0.676606,0.266206 l 2.262749,0 c 0.255114,0 0.46586,-0.08874 0.64333,-0.255114 0.17747,-0.166379 0.255114,-0.388217 0.255114,-0.654422 0,-0.266206 -0.08874,-0.488045 -0.255114,-0.665515 -0.166379,-0.17747 -0.388216,-0.277297 -0.64333,-0.277297 l -2.262749,0 c -0.266207,0 -0.488044,0.08874 -0.676606,0.277297 -0.199656,0.188562 -0.28839,0.410401 -0.28839,0.665515 z" /></svg>