<?xml version="1.0" encoding="UTF-8" standalone="no"?>
<svg
   xmlns:dc="http://purl.org/dc/elements/1.1/"
   xmlns:cc="http://creativecommons.org/ns#"
   xmlns:rdf="http://www.w3.org/1999/02/22-rdf-syntax-ns#"
   xmlns:svg="http://www.w3.org/2000/svg"
   xmlns="http://www.w3.org/2000/svg"
   xml:space="preserve"
   style="enable-background:new 0 0 30 30;"
   viewBox="0 0 30 30"
   y="0px"
   x="0px"
   id="Layer_1"
   version="1.1"><metadata
     id="metadata9"><rdf:RDF><cc:Work
         rdf:about=""><dc:format>image/svg+xml</dc:format><dc:type
           rdf:resource="http://purl.org/dc/dcmitype/StillImage" /></cc:Work></rdf:RDF></metadata><defs
     id="defs7" /><path
     id="path3"
     d="m 0.11122585,19.055792 c 0,-1.327319 0.41562533,-2.520567 1.24687605,-3.552926 0.8312508,-1.032361 1.8904253,-1.702724 3.1909306,-1.997684 0.3485891,-1.56865 1.1396181,-2.869156 2.3864943,-3.8612938 1.2468763,-1.0055454 2.6814543,-1.5016144 4.3171412,-1.5016144 1.582059,0 3.00323,0.4826617 4.236698,1.4613925 1.246876,0.9787307 2.051313,2.2256067 2.413309,3.7540357 l 0.361996,0 c 1.582058,0 2.922785,0.549698 4.035589,1.662501 1.112804,1.112804 1.67591,2.453531 1.67591,4.022182 0,1.582059 -0.563106,2.922786 -1.67591,4.035589 -1.112804,1.112803 -2.453531,1.675909 -4.035589,1.675909 l -12.4285404,0 c -0.7776218,0 -1.5150216,-0.14748 -2.2121997,-0.455848 C 2.9267527,23.989668 2.296611,23.614265 1.7871346,23.104788 1.2776583,22.595312 0.87544018,21.978578 0.56707296,21.2814 0.25870584,20.584221 0.11122585,19.820007 0.11122585,19.055792 Z m 1.94405415,0 c 0,1.018954 0.3754037,1.903833 1.0993963,2.627825 0.7239926,0.723993 1.6222798,1.099396 2.668047,1.099396 l 12.4419477,0 c 1.03236,0 1.930647,-0.361996 2.668046,-1.099396 0.737401,-0.737399 1.112804,-1.608871 1.112804,-2.627825 0,-1.018952 -0.361996,-1.903832 -1.112804,-2.627825 -0.737399,-0.723993 -1.622278,-1.099396 -2.668046,-1.099396 l -1.863609,0 c -0.134074,0 -0.20111,-0.06704 -0.20111,-0.201109 l -0.09385,-0.656957 C 15.97203,13.210222 15.435737,12.151047 14.510636,11.319797 13.585535,10.488546 12.486139,10.07292 11.225854,10.07292 c -1.2602831,0 -2.359679,0.415626 -3.2981881,1.260284 -0.938509,0.831251 -1.4613926,1.890426 -1.5820579,3.137301 l -0.093851,0.563106 c 0,0.134073 -0.067037,0.20111 -0.2145164,0.20111 l -0.6033271,0.09385 c -0.965324,0.08043 -1.7697604,0.482661 -2.4267165,1.193248 -0.6167345,0.710584 -0.9519164,1.555242 -0.9519164,2.533973 z M 13.920715,7.3646521 c -0.134073,0.1206654 -0.107257,0.2145162 0.09385,0.2815526 0.576512,0.2547382 1.059173,0.4960691 1.447985,0.7373999 0.14748,0.040221 0.254738,0.026815 0.294959,-0.040221 0.817845,-0.7642146 1.756352,-1.1530253 2.842343,-1.1530253 1.085988,0 2.01109,0.3619962 2.815527,1.0859888 0.791029,0.7239928 1.233467,1.6222797 1.327319,2.6814539 l 0.120666,0.858066 1.903832,0 c 0.871474,0 1.622279,0.308367 2.252422,0.938508 0.630142,0.630142 0.938509,1.367542 0.938509,2.225607 0,0.804437 -0.281553,1.501615 -0.831252,2.104942 -0.549698,0.603328 -1.233469,0.938509 -2.051311,1.03236 -0.134073,0 -0.20111,0.06704 -0.20111,0.214517 l 0,1.515021 c 0,0.14748 0.06704,0.214516 0.20111,0.214516 1.354134,-0.08043 2.493752,-0.616734 3.418854,-1.595465 0.925102,-0.978731 1.394356,-2.145164 1.394356,-3.485891 0,-1.42117 -0.49607,-2.627825 -1.501614,-3.619962 -1.005546,-1.005547 -2.2122,-1.5016149 -3.619964,-1.5016149 l -0.201109,0 C 24.2175,8.5176774 23.4801,7.4182811 22.353889,6.5468085 21.241085,5.6753358 19.980802,5.2463031 18.599854,5.2463031 16.722835,5.2328959 15.154185,5.9434812 13.920715,7.3646521 Z" /></svg>