<?xml version="1.0" encoding="UTF-8" standalone="no"?>
<svg
   xmlns:dc="http://purl.org/dc/elements/1.1/"
   xmlns:cc="http://creativecommons.org/ns#"
   xmlns:rdf="http://www.w3.org/1999/02/22-rdf-syntax-ns#"
   xmlns:svg="http://www.w3.org/2000/svg"
   xmlns="http://www.w3.org/2000/svg"
   xml:space="preserve"
   style="enable-background:new 0 0 30 30;"
   viewBox="0 0 30 30"
   y="0px"
   x="0px"
   id="Layer_1"
   version="1.1"><metadata
     id="metadata9"><rdf:RDF><cc:Work
         rdf:about=""><dc:format>image/svg+xml</dc:format><dc:type
           rdf:resource="http://purl.org/dc/dcmitype/StillImage" /></cc:Work></rdf:RDF></metadata><defs
     id="defs7" /><path
     id="path3"
     d="m 7.5319147,15.082927 0,-0.03822 c -0.019111,-0.152886 0,-0.382217 0,-0.707102 0.019111,-0.305772 0.076443,-0.821763 0.1911083,-1.547976 0.1146649,-0.72621 0.2675515,-1.45242 0.4777705,-2.197742 C 8.4110126,9.846562 8.7358964,8.9865751 9.1754454,8.011923 9.6149943,7.0372711 10.130986,6.1199515 10.742532,5.2599645 11.354079,4.3999775 12.156734,3.5017687 13.150497,2.60356 14.14426,1.7053514 15.252688,0.9026968 16.456669,0.23381799 c 0.305774,-0.17199742 0.611547,-0.21021912 0.93643,-0.11466563 0.324883,0.0955537 0.573326,0.28666239 0.726213,0.59243564 0.171996,0.3057732 0.210217,0.6115463 0.114656,0.9555413 -0.09555,0.3248838 -0.286662,0.5924354 -0.573323,0.7453219 -2.50352,1.3759793 -4.433712,3.3061725 -5.790581,5.8288011 1.031985,-0.4777706 2.063969,-0.7262112 3.115064,-0.7262112 2.044858,0 3.822165,0.7262112 5.293699,2.1977451 1.471539,1.4715348 2.197752,3.2297298 2.197752,5.2745878 0,0.152887 0,0.305773 0,0.45866 0,0.152886 -0.03822,0.477769 -0.07644,0.993762 -0.03822,0.515993 -0.114672,0.993763 -0.210221,1.471535 -0.09555,0.477769 -0.24844,1.070205 -0.439549,1.777306 -0.210218,0.707099 -0.439547,1.395089 -0.72621,2.025748 -0.286663,0.630656 -0.649768,1.337756 -1.108429,2.102189 -0.458658,0.764433 -0.974651,1.471533 -1.547975,2.140412 -0.573327,0.668878 -1.261314,1.337757 -2.063969,2.006637 -0.821765,0.668879 -1.700865,1.280425 -2.656404,1.815528 -0.171994,0.114664 -0.382213,0.152886 -0.592432,0.152886 -0.496882,0 -0.859988,-0.229329 -1.108428,-0.668878 -0.171997,-0.305773 -0.21022,-0.611547 -0.114672,-0.936431 0.09555,-0.324883 0.286662,-0.573324 0.592435,-0.726211 2.560851,-1.433312 4.510156,-3.401727 5.847914,-5.886132 -1.031986,0.49688 -2.121302,0.72621 -3.267954,0.72621 -1.318646,0 -2.560848,-0.324884 -3.707498,-0.993763 C 10.150096,20.797066 9.2518887,19.898855 8.5638992,18.752207 7.8950204,17.643778 7.5510255,16.420686 7.5319147,15.082927 Z m 3.2488403,-0.09555 c 0,1.165759 0.420438,2.159522 1.242203,3.0004 0.821765,0.821764 1.815528,1.242202 2.981289,1.242202 1.089317,0 2.025746,-0.363105 2.847512,-1.089316 0.802655,-0.726211 1.261315,-1.624421 1.395089,-2.694627 l 0.01911,-0.439549 c 0,-0.03822 0,-0.07644 0.01911,-0.09555 -0.01911,-1.146638 -0.439551,-2.12129 -1.261316,-2.904834 -0.821767,-0.802654 -1.83464,-1.184872 -3.0004,-1.184872 -1.070206,0 -1.987525,0.343996 -2.79018,1.031985 -0.802655,0.68799 -1.261315,1.567088 -1.39509,2.599072 l -0.03822,0.477771 0,0.05733 z" /></svg>