<?xml version="1.0" encoding="UTF-8" standalone="no"?>
<svg
   xmlns:dc="http://purl.org/dc/elements/1.1/"
   xmlns:cc="http://creativecommons.org/ns#"
   xmlns:rdf="http://www.w3.org/1999/02/22-rdf-syntax-ns#"
   xmlns:svg="http://www.w3.org/2000/svg"
   xmlns="http://www.w3.org/2000/svg"
   xml:space="preserve"
   style="enable-background:new 0 0 30 30;"
   viewBox="0 0 30 30"
   y="0px"
   x="0px"
   id="Layer_1"
   version="1.1"><metadata
     id="metadata9"><rdf:RDF><cc:Work
         rdf:about=""><dc:format>image/svg+xml</dc:format><dc:type
           rdf:resource="http://purl.org/dc/dcmitype/StillImage" /></cc:Work></rdf:RDF></metadata><defs
     id="defs7" /><path
     id="path3"
     d="m 0.04519484,19.535309 c 0,-1.596648 0.48174694,-3.000596 1.45900536,-4.239375 0.9772583,-1.238777 2.2298007,-2.023337 3.7713912,-2.367442 0.3165768,-1.417711 0.9634942,-2.656491 1.9269884,-3.716335 0.963494,-1.0598428 2.1334517,-1.8168737 3.4823412,-2.2710925 0.853382,-0.2890481 1.73429,-0.4404544 2.656493,-0.4404544 1.1149,0 2.202271,0.2202273 3.234587,0.6606817 0.385398,-0.6469174 0.839617,-1.2112498 1.362655,-1.6792326 0.52304,-0.4679828 1.059844,-0.8396163 1.610412,-1.0873719 0.550569,-0.2477557 1.101136,-0.4404544 1.624177,-0.5643323 0.523038,-0.1238778 1.046079,-0.1789346 1.54159,-0.1789346 0.523039,0 1.087372,0.068821 1.692997,0.2202272 l 1.128665,0.3441051 c 0.192697,0.082584 0.247754,0.1789346 0.192697,0.3028124 l -0.192697,0.8258522 c -0.09635,0.4266901 -0.137643,0.825852 -0.137643,1.1837212 0,0.4266904 0.06883,0.8671448 0.206462,1.3075993 0.137644,0.4404548 0.330342,0.867144 0.605626,1.2938343 0.261521,0.4266903 0.633153,0.7983231 1.101137,1.1424289 0.467982,0.344106 0.991021,0.605625 1.582882,0.78456 l 0.85338,0.302812 c 0.137643,0.0413 0.206464,0.110112 0.206464,0.220228 0,0.02753 -0.01376,0.05506 -0.02753,0.09634 l -0.24776,0.922201 c -0.371633,1.486534 -1.073607,2.656491 -2.064629,3.5374 0.550568,0.963494 0.853379,1.99581 0.894673,3.08318 0.01376,0.06883 0.01376,0.165171 0.01376,0.316578 0,1.225014 -0.302811,2.367442 -0.922201,3.413521 -0.605625,1.046081 -1.445241,1.871933 -2.477556,2.477558 -1.046079,0.605624 -2.188508,0.922201 -3.413522,0.922201 l -14.8791017,0 C 5.6059302,26.348582 4.4635015,26.04577 3.4174222,25.426381 2.3713448,24.806997 1.5592571,23.981147 0.95363205,22.94883 0.34800721,21.916517 0.04519484,20.774087 0.04519484,19.535309 Z m 2.35367846,0 c 0,1.225014 0.4404545,2.284858 1.3213633,3.179531 0.8809091,0.894673 1.913224,1.348892 3.1107098,1.348892 l 14.8791016,0 c 1.225013,0 2.271093,-0.440456 3.138238,-1.335129 0.867145,-0.894673 1.307599,-1.954516 1.307599,-3.193294 0,-1.21125 -0.440454,-2.243565 -1.321364,-3.11071 C 23.953613,15.557455 22.907534,15.117 21.696283,15.117 l -2.450028,0 -0.137641,-1.032314 c -0.137642,-1.390185 -0.715739,-2.587672 -1.73429,-3.564929 -1.01855,-0.9772581 -2.229801,-1.5278268 -3.619985,-1.6517042 -0.04129,0 -0.110113,0 -0.206463,-0.013766 -0.09635,-0.013766 -0.151406,-0.013766 -0.206462,-0.013766 -0.701976,0 -1.403949,0.1376419 -2.119688,0.3991612 l 0,-0.027522 c -1.004787,0.3853906 -1.8581659,1.018545 -2.532612,1.885689 -0.6882109,0.867145 -1.1011366,1.858167 -1.2387787,2.986833 l -0.09635,0.991021 -0.9359657,0.04129 C 5.2618273,15.254638 4.2983332,15.736385 3.5275379,16.576001 2.7567422,17.415622 2.398873,18.392881 2.398873,19.535309 Z M 18.571809,8.372541 c 1.459007,1.2525428 2.367444,2.711548 2.711549,4.377017 l 0.440455,0 c 1.70676,0 3.165764,0.536802 4.363252,1.624176 0.454218,-0.426691 0.798323,-0.922203 1.046078,-1.47277 -1.252542,-0.591861 -2.243566,-1.500297 -2.973068,-2.711548 -0.715738,-1.2112493 -1.08737,-2.4913203 -1.08737,-3.8264478 l 0,-0.3303408 C 23.003875,6.0188644 22.89377,6.0188644 22.742363,6.0188644 21.94404,6.0051014 21.15948,6.197799 20.402449,6.6244893 c -0.75703,0.412926 -1.37642,0.9910225 -1.83064,1.7480543 z" /></svg>