<?xml version="1.0" encoding="UTF-8" standalone="no"?>
<svg
   xmlns:dc="http://purl.org/dc/elements/1.1/"
   xmlns:cc="http://creativecommons.org/ns#"
   xmlns:rdf="http://www.w3.org/1999/02/22-rdf-syntax-ns#"
   xmlns:svg="http://www.w3.org/2000/svg"
   xmlns="http://www.w3.org/2000/svg"
   xml:space="preserve"
   style="enable-background:new 0 0 30 30;"
   viewBox="0 0 30 30"
   y="0px"
   x="0px"
   id="Layer_1"
   version="1.1"><metadata
     id="metadata9"><rdf:RDF><cc:Work
         rdf:about=""><dc:format>image/svg+xml</dc:format><dc:type
           rdf:resource="http://purl.org/dc/dcmitype/StillImage" /></cc:Work></rdf:RDF></metadata><defs
     id="defs7" /><path
     id="path3"
     d="m 0.04107864,15.036115 c 0,-0.317814 0.11556862,-0.59229 0.33226003,-0.808981 0.23113734,-0.216691 0.50561303,-0.317815 0.82342693,-0.317815 l 17.4508704,0 c 0.317814,0 0.577844,0.101125 0.780089,0.317815 0.202245,0.216691 0.317814,0.491167 0.317814,0.823427 0,0.317814 -0.101124,0.577843 -0.317814,0.780088 -0.202245,0.202246 -0.462275,0.317814 -0.780089,0.317814 l -17.4508704,0 c -0.31781389,0 -0.60673562,-0.101125 -0.82342692,-0.317814 C 0.14220124,15.613958 0.04107865,15.353929 0.04107865,15.036115 Z M 3.5225853,10.84675 c 0,-0.317813 0.1155687,-0.577843 0.33226,-0.794535 C 4.0715365,9.8355248 4.3460121,9.7199556 4.663826,9.7199556 l 17.465317,0 c 0.303367,0 0.563397,0.1155692 0.780089,0.3322594 0.21669,0.216692 0.317813,0.476722 0.317813,0.794535 0,0.317814 -0.101124,0.577843 -0.317813,0.80898 -0.216692,0.216693 -0.476722,0.332261 -0.780089,0.332261 l -17.4508708,0 c -0.317814,0 -0.5922895,-0.115568 -0.8089809,-0.332261 -0.2166912,-0.216691 -0.346706,-0.491166 -0.346706,-0.80898 z m 2.3402659,8.292053 c 0,-0.303368 0.1155686,-0.563398 0.346706,-0.780088 C 6.4118023,18.156468 6.6718319,18.0409 6.9896458,18.0409 l 17.4797632,0 c 0.317813,0 0.592289,0.101125 0.808981,0.317815 0.21669,0.202245 0.317813,0.462275 0.317813,0.780088 0,0.317814 -0.115569,0.592289 -0.33226,0.80898 -0.21669,0.216692 -0.491167,0.332261 -0.80898,0.332261 l -17.4653172,0 c -0.3178139,0 -0.5778435,-0.115569 -0.8089809,-0.332261 C 5.9495276,19.731092 5.8628512,19.456617 5.8628512,19.138803 Z M 21.146809,15.036115 c 0,-0.332259 0.101124,-0.606736 0.317814,-0.823427 0.216692,-0.216692 0.491167,-0.317814 0.823427,-0.317814 l 6.52963,0 c 0.33226,0 0.606736,0.101124 0.823426,0.317814 0.216693,0.216691 0.317815,0.491168 0.317815,0.80898 0,0.317815 -0.101124,0.577844 -0.317815,0.780089 -0.21669,0.202246 -0.491166,0.317815 -0.808979,0.317815 l -6.529632,0 c -0.33226,0 -0.606735,-0.101125 -0.823426,-0.317815 -0.231138,-0.187799 -0.33226,-0.447828 -0.33226,-0.765642 z" /></svg>