<?xml version="1.0" encoding="UTF-8" standalone="no"?>
<svg
   xmlns:dc="http://purl.org/dc/elements/1.1/"
   xmlns:cc="http://creativecommons.org/ns#"
   xmlns:rdf="http://www.w3.org/1999/02/22-rdf-syntax-ns#"
   xmlns:svg="http://www.w3.org/2000/svg"
   xmlns="http://www.w3.org/2000/svg"
   xml:space="preserve"
   style="enable-background:new 0 0 30 30;"
   viewBox="0 0 30 30"
   y="0px"
   x="0px"
   id="Layer_1"
   version="1.1"><metadata
     id="metadata9"><rdf:RDF><cc:Work
         rdf:about=""><dc:format>image/svg+xml</dc:format><dc:type
           rdf:resource="http://purl.org/dc/dcmitype/StillImage" /></cc:Work></rdf:RDF></metadata><defs
     id="defs7" /><path
     id="path3"
     d="m 0.10009298,15.029662 c 0,-0.375711 0.13841985,-0.711873 0.39548528,-0.988714 0.25706541,-0.276839 0.57345364,-0.415259 0.94916454,-0.415259 0.375711,0 0.7118735,0.13842 0.9689389,0.415259 0.2570656,0.276841 0.3954853,0.593228 0.3954853,0.988714 0,0.37571 -0.1384197,0.692099 -0.3954853,0.949164 -0.2570654,0.257065 -0.5932279,0.395485 -0.9491647,0.395485 -0.3559366,0 -0.69209906,-0.13842 -0.94916446,-0.395485 -0.29661399,-0.27684 -0.41525956,-0.593228 -0.41525956,-0.949164 z m 3.91530412,0 c 0,-0.375711 0.1384198,-0.711873 0.3954853,-0.988714 0.2570654,-0.276839 0.5734536,-0.415259 0.9491647,-0.415259 l 6.3870859,0 L 7.2386021,9.1171571 C 6.9617623,8.8798659 6.8233425,8.5634778 6.8233425,8.1877668 c 0,-0.375711 0.1384198,-0.6920992 0.4152596,-0.9689388 0.2768396,-0.2768398 0.5932278,-0.4152597 0.9689389,-0.4152597 0.3757109,0 0.6920992,0.1384199 0.9689389,0.4152597 l 4.4887571,4.488758 0,-6.3475388 c 0,-0.3757111 0.138421,-0.7118735 0.41526,-0.9887132 0.27684,-0.2768397 0.593227,-0.4152596 0.988712,-0.4152596 0.375711,0 0.6921,0.1384199 0.949165,0.4152596 0.257066,0.2768397 0.395486,0.5932278 0.395486,0.9887132 l 0,6.3870868 4.528306,-4.5480803 c 0.276839,-0.2768398 0.593228,-0.4152596 0.949165,-0.4152596 0.355936,0 0.692099,0.1384198 0.968938,0.4152596 0.237291,0.2768396 0.355936,0.5932278 0.355936,0.9689389 0,0.3757109 -0.118645,0.6920991 -0.355936,0.9293904 l -4.508532,4.508532 6.387087,0 c 0.355937,0 0.672326,0.13842 0.929391,0.415259 0.257064,0.27684 0.395484,0.593228 0.395484,0.988714 0,0.355936 -0.13842,0.672324 -0.395484,0.929389 -0.257065,0.257066 -0.573454,0.395486 -0.929391,0.395486 l -6.387087,0 4.528306,4.528305 c 0.237291,0.237292 0.355936,0.55368 0.355936,0.929391 0,0.37571 -0.118645,0.692099 -0.355936,0.968938 -0.276839,0.276841 -0.613002,0.41526 -0.968938,0.41526 -0.355937,0 -0.6921,-0.138419 -0.949165,-0.41526 l -4.528306,-4.548078 0,6.40686 c 0,0.375711 -0.138419,0.711872 -0.395486,0.968938 -0.257065,0.257065 -0.573453,0.395486 -0.949165,0.395486 -0.375711,0 -0.711872,-0.138421 -0.988712,-0.395486 -0.276839,-0.257066 -0.415259,-0.593227 -0.415259,-0.968938 l 0,-6.367313 -4.4887579,4.488757 c -0.2768397,0.276839 -0.5932279,0.41526 -0.9689388,0.41526 -0.3757111,0 -0.6920993,-0.138421 -0.9689389,-0.41526 -0.2768398,-0.276839 -0.4152597,-0.593228 -0.4152597,-0.968938 0,-0.375711 0.1384199,-0.672325 0.4152597,-0.929391 l 4.5480796,-4.528305 -6.4068604,0 c -0.3757111,0 -0.6920993,-0.138421 -0.9491647,-0.395486 C 4.1340427,15.701986 4.0153971,15.385598 4.0153971,15.029662 Z m 0.019774,9.570743 c 0,-0.355937 0.1384199,-0.6921 0.4152596,-0.949165 0.2372912,-0.27684 0.5536793,-0.41526 0.9293904,-0.41526 0.375711,0 0.6920992,0.13842 0.9689389,0.41526 0.2768397,0.276839 0.4152595,0.593228 0.4152595,0.949165 0,0.355936 -0.1384198,0.692098 -0.4152595,0.949164 -0.2768397,0.276839 -0.5932279,0.415259 -0.9689389,0.415259 -0.3757111,0 -0.6920992,-0.13842 -0.9293904,-0.415259 C 4.1735912,25.292503 4.0351713,24.976116 4.0351713,24.600405 Z m 0,-19.2008094 c 0,-0.3559367 0.1384199,-0.6920991 0.4152596,-0.9491645 0.2372913,-0.2768399 0.5536794,-0.4152596 0.9293905,-0.4152596 0.375711,0 0.6920992,0.1384197 0.9689389,0.4152596 0.2768397,0.2768396 0.4152595,0.5932278 0.4152595,0.9491645 0,0.3559367 -0.1384198,0.6920992 -0.4152595,0.9689389 C 6.0719205,6.6453742 5.7555323,6.7837941 5.3798213,6.7837941 5.0041102,6.7837941 4.6877221,6.6453742 4.4504309,6.3685345 4.1735912,6.0916948 4.0351713,5.7555323 4.0351713,5.3995956 Z M 13.625689,28.555256 c 0,-0.355936 0.138419,-0.672323 0.41526,-0.929389 0.276839,-0.257066 0.593227,-0.395486 0.988712,-0.395486 0.375711,0 0.6921,0.13842 0.949165,0.395486 0.257065,0.257066 0.395485,0.573453 0.395485,0.929389 0,0.375712 -0.13842,0.711874 -0.395485,0.96894 -0.257065,0.257065 -0.573454,0.395485 -0.949165,0.395485 -0.375711,0 -0.711873,-0.13842 -0.988712,-0.395485 -0.276841,-0.257066 -0.41526,-0.573454 -0.41526,-0.96894 z m 0,-27.1105131 c 0,-0.375711 0.138419,-0.71187335 0.41526,-0.96893876 0.276839,-0.25706542 0.593227,-0.39548527 0.988712,-0.39548527 0.375711,0 0.6921,0.13841985 0.949165,0.39548527 0.257065,0.25706541 0.395485,0.59322776 0.395485,0.96893876 0,0.3559368 -0.13842,0.672325 -0.395485,0.9293904 -0.257065,0.2570655 -0.573454,0.3954853 -0.949165,0.3954853 -0.375711,0 -0.711873,-0.1384198 -0.988712,-0.3954853 -0.27684,-0.2570654 -0.41526,-0.5734536 -0.41526,-0.9293904 z m 9.630065,23.1556621 c 0,-0.355937 0.13842,-0.6921 0.41526,-0.949165 0.237291,-0.27684 0.553679,-0.41526 0.92939,-0.41526 0.375711,0 0.6921,0.13842 0.968939,0.41526 0.27684,0.276839 0.41526,0.593228 0.41526,0.949165 0,0.355936 -0.13842,0.692098 -0.41526,0.949164 -0.276839,0.276839 -0.593228,0.415259 -0.968939,0.415259 -0.375711,0 -0.692099,-0.13842 -0.92939,-0.415259 -0.27684,-0.257066 -0.41526,-0.573453 -0.41526,-0.949164 z m 0,-19.2008094 c 0,-0.3559367 0.13842,-0.6920991 0.41526,-0.9491645 0.237291,-0.2768399 0.553679,-0.4152596 0.92939,-0.4152596 0.375711,0 0.6921,0.1384197 0.968939,0.4152596 0.27684,0.2768396 0.41526,0.5932278 0.41526,0.9491645 0,0.3559367 -0.13842,0.6920992 -0.41526,0.9689389 -0.276839,0.2768397 -0.593228,0.4152596 -0.968939,0.4152596 -0.375711,0 -0.692099,-0.1384199 -0.92939,-0.4152596 -0.27684,-0.2768397 -0.415259,-0.6130022 -0.415259,-0.9689389 z m 3.954853,9.6300664 c 0,-0.375711 0.13842,-0.711873 0.395486,-0.988714 0.257065,-0.276839 0.593228,-0.415259 0.968939,-0.415259 0.355937,0 0.672323,0.13842 0.92939,0.415259 0.257065,0.276841 0.395485,0.593228 0.395485,0.988714 0,0.355936 -0.13842,0.672324 -0.395485,0.92939 -0.257067,0.257065 -0.573453,0.395485 -0.92939,0.395485 -0.375711,0 -0.711874,-0.13842 -0.968939,-0.395485 -0.257066,-0.257066 -0.395486,-0.573454 -0.395486,-0.92939 z" /></svg>