<?xml version="1.0" encoding="UTF-8" standalone="no"?>
<svg
   xmlns:dc="http://purl.org/dc/elements/1.1/"
   xmlns:cc="http://creativecommons.org/ns#"
   xmlns:rdf="http://www.w3.org/1999/02/22-rdf-syntax-ns#"
   xmlns:svg="http://www.w3.org/2000/svg"
   xmlns="http://www.w3.org/2000/svg"
   xml:space="preserve"
   style="enable-background:new 0 0 30 30;"
   viewBox="0 0 30 30"
   y="0px"
   x="0px"
   id="Layer_1"
   version="1.1"><metadata
     id="metadata9"><rdf:RDF><cc:Work
         rdf:about=""><dc:format>image/svg+xml</dc:format><dc:type
           rdf:resource="http://purl.org/dc/dcmitype/StillImage" /></cc:Work></rdf:RDF></metadata><defs
     id="defs7" /><path
     id="path3"
     d="m 0.07039905,20.863262 c 0,-0.289544 0.0965146,-0.542895 0.3016081,-0.735925 0.20509355,-0.193029 0.4584444,-0.289543 0.76005235,-0.289543 l 22.5240945,0 c 0.301606,0 0.542893,0.09651 0.735922,0.289543 0.193029,0.19303 0.289545,0.434316 0.289545,0.735925 0,0.277479 -0.09651,0.518765 -0.301609,0.69973 -0.205093,0.193029 -0.44638,0.27748 -0.723858,0.27748 l -22.5240945,0 c -0.30160794,0 -0.55495879,-0.09651 -0.76005234,-0.27748 -0.20509352,-0.193029 -0.3016081,-0.422251 -0.3016081,-0.69973 z M 3.231252,17.075064 c 0,-0.289544 0.1085788,-0.530831 0.3136724,-0.72386 0.1809649,-0.180965 0.4222514,-0.277478 0.711795,-0.277478 l 22.5240936,0 c 0.277479,0 0.506701,0.09651 0.699731,0.289542 0.193028,0.19303 0.277479,0.422252 0.277479,0.711796 0,0.289544 -0.09651,0.53083 -0.277479,0.723859 -0.19303,0.205094 -0.422252,0.301608 -0.699731,0.301608 l -22.5240936,0 c -0.2895436,0 -0.5308301,-0.09651 -0.7238593,-0.301608 C 3.3277665,17.59383 3.231252,17.352543 3.231252,17.075064 Z m 0.1568362,-2.883373 c 0,0.108578 0.060322,0.156836 0.1809649,0.156836 l 1.7251982,0 c 0.072385,0 0.1568362,-0.06032 0.2412865,-0.19303 0.2895438,-0.627345 0.7117952,-1.134046 1.2788183,-1.532168 0.5670232,-0.398124 1.1943682,-0.627345 1.8699704,-0.675602 l 0.6635377,-0.08446 c 0.1327076,0 0.2050935,-0.07239 0.2050935,-0.217157 l 0.08445,-0.603216 C 9.7701152,9.7399499 10.31301,8.6541607 11.29022,7.7855294 c 0.97721,-0.8686313 2.123322,-1.3029471 3.438333,-1.3029471 1.302947,0 2.436994,0.4343158 3.414203,1.2908827 0.965147,0.8565671 1.520105,1.9423563 1.652813,3.233239 l 0.09651,0.687666 c 0,0.132708 0.08446,0.205094 0.241287,0.205094 l 1.918228,0 c 0.772116,0 1.483911,0.205094 2.12332,0.627345 0.639409,0.422251 1.109919,0.965146 1.423591,1.652811 0.08446,0.132708 0.1689,0.19303 0.25335,0.19303 l 1.725198,0 c 0.144773,0 0.205094,-0.08445 0.168902,-0.277479 -0.349866,-1.230561 -1.06166,-2.243965 -2.099193,-3.028146 -1.049595,-0.784181 -2.243963,-1.1702392 -3.583103,-1.1702392 l -0.386058,0 C 21.279481,8.2922362 20.434979,6.9772249 19.144096,5.9517573 17.853214,4.9262898 16.39343,4.4195882 14.740618,4.4195882 c -1.689006,0 -3.184982,0.5308303 -4.499995,1.5924908 C 8.9256128,7.0737394 8.0931745,8.4249438 7.7191804,10.065692 6.693713,10.306978 5.7888886,10.789552 5.016772,11.525475 4.2446551,12.261399 3.7017605,13.13003 3.4001525,14.155497 l 0,-0.04826 c -0.012064,0 -0.012064,0.03619 -0.012064,0.08446 z m 1.9423561,10.363253 c 0,-0.289543 0.1085789,-0.518765 0.3136724,-0.711795 0.1809649,-0.180964 0.4222514,-0.277479 0.7238595,-0.277479 l 22.5361578,0 c 0.289544,0 0.53083,0.09651 0.723859,0.277479 0.205093,0.19303 0.301608,0.422252 0.301608,0.699731 0,0.289545 -0.09651,0.530831 -0.301608,0.735924 -0.205093,0.205094 -0.44638,0.301608 -0.723859,0.301608 l -22.5361578,0 c -0.2774795,0 -0.518766,-0.108579 -0.7238595,-0.313672 C 5.4390232,25.085775 5.3304443,24.832425 5.3304443,24.554944 Z" /></svg>