<?xml version="1.0" encoding="UTF-8" standalone="no"?>
<svg
   xmlns:dc="http://purl.org/dc/elements/1.1/"
   xmlns:cc="http://creativecommons.org/ns#"
   xmlns:rdf="http://www.w3.org/1999/02/22-rdf-syntax-ns#"
   xmlns:svg="http://www.w3.org/2000/svg"
   xmlns="http://www.w3.org/2000/svg"
   xml:space="preserve"
   style="enable-background:new 0 0 30 30;"
   viewBox="0 0 30 30"
   y="0px"
   x="0px"
   id="Layer_1"
   version="1.1"><metadata
     id="metadata9"><rdf:RDF><cc:Work
         rdf:about=""><dc:format>image/svg+xml</dc:format><dc:type
           rdf:resource="http://purl.org/dc/dcmitype/StillImage" /></cc:Work></rdf:RDF></metadata><defs
     id="defs7" /><path
     id="path3"
     d="m 0.10728622,18.078108 c 0,-0.336558 0.11218617,-0.617024 0.3505818,-0.855419 0.25241891,-0.238396 0.53288433,-0.350582 0.84139628,-0.350582 l 2.8607474,0 c 0.3225352,0 0.5889773,0.112186 0.8133497,0.350582 0.2103491,0.238395 0.3225353,0.518861 0.3225353,0.855419 0,0.336558 -0.1121862,0.617024 -0.3225353,0.841396 -0.2103491,0.238395 -0.4908145,0.350582 -0.8133497,0.350582 l -2.8467241,0 c -0.32253525,0 -0.60300067,-0.112187 -0.84139627,-0.350582 C 0.23349566,18.681109 0.10728622,18.400643 0.10728622,18.078108 Z M 4.1179418,8.3880272 c 0,-0.3225353 0.1121862,-0.6030006 0.3225352,-0.8554195 0.2804655,-0.2383957 0.5749542,-0.3505818 0.8974894,-0.3505818 0.2944887,0 0.5749542,0.1121861 0.8273731,0.3505818 l 2.0053277,2.0473976 c 0.2243724,0.2103488 0.3365586,0.4908147 0.3365586,0.8273727 0,0.336559 -0.1121862,0.617024 -0.3365586,0.841397 -0.2243723,0.224372 -0.5048377,0.336558 -0.8413963,0.336558 -0.3365584,0 -0.6170239,-0.112186 -0.827373,-0.336558 L 4.4545004,9.2434468 C 4.230128,9.0050512 4.1179418,8.7245857 4.1179418,8.3880272 Z M 4.3423142,21.443694 c 0,-0.308512 0.1121862,-0.574955 0.3225352,-0.771281 0.2243723,-0.196326 0.5188611,-0.308512 0.8974894,-0.308512 l 8.0072882,0 c 0.378628,0 0.673117,0.09816 0.897489,0.308512 0.224372,0.196326 0.336558,0.462769 0.336558,0.771281 0,0.378628 -0.112186,0.673117 -0.322534,0.897489 -0.224372,0.224372 -0.518861,0.336557 -0.911513,0.336557 l -8.0072882,0 c -0.3786283,0 -0.6731171,-0.112185 -0.8974894,-0.322533 C 4.440477,22.144857 4.3423142,21.822322 4.3423142,21.443694 Z m 1.3883039,4.136864 c 0,-0.308511 0.1262094,-0.588977 0.3926516,-0.841396 0.2524189,-0.252419 0.5469075,-0.378627 0.8413962,-0.378627 0.364605,0 0.6590937,0.126208 0.8834661,0.364604 0.2243723,0.252418 0.3365585,0.532884 0.3365585,0.855419 0,0.392652 -0.1121862,0.68714 -0.3225352,0.911513 -0.2103491,0.224373 -0.518861,0.322535 -0.8974894,0.322535 -0.3225352,0 -0.6170238,-0.112186 -0.8554196,-0.336559 C 5.8568275,26.253676 5.7306181,25.945164 5.7306181,25.580558 Z m 1.9772812,-7.095775 0,-0.09816 C 7.7499683,16.619687 8.366993,15.091151 9.5449478,13.786986 10.722903,12.482821 12.1673,11.697518 13.892161,11.417053 l 0.07013,0 c 0.266442,-0.0561 0.631047,-0.08415 1.065768,-0.08415 0.434722,0 0.799327,0.02805 1.065769,0.08415 l 0.0561,0 c 1.710839,0.266442 3.169259,1.065768 4.347213,2.369933 1.177956,1.304165 1.794978,2.832701 1.837049,4.599633 l 0,0.09816 c 0,0.224373 -0.112187,0.336558 -0.322535,0.336558 l -1.58463,0 c -0.168279,0 -0.280466,-0.04207 -0.350582,-0.126209 -0.07012,-0.08415 -0.09815,-0.168279 -0.09815,-0.252418 -0.0561,-1.304165 -0.560931,-2.412004 -1.514514,-3.323517 -0.953582,-0.911512 -2.089468,-1.360256 -3.421678,-1.360256 -1.33221,0 -2.468096,0.448744 -3.421679,1.360256 -0.953582,0.911513 -1.458419,2.019352 -1.514513,3.323517 0,0.08414 -0.04206,0.168279 -0.1121861,0.252418 -0.070112,0.08415 -0.1963257,0.126209 -0.3646047,0.126209 l -1.5846297,0 c -0.2243724,0 -0.3365585,-0.112185 -0.3365585,-0.336558 z m 1.4163504,7.095775 c 0,-0.322535 0.1121861,-0.603001 0.3365585,-0.855419 0.2243723,-0.238396 0.5188606,-0.364604 0.8834668,-0.364604 l 5.370912,0 c 0.308512,0 0.588977,0.126208 0.841397,0.378627 0.252418,0.252419 0.392651,0.532885 0.392651,0.841396 0,0.364606 -0.126209,0.673118 -0.378627,0.897489 -0.252419,0.224373 -0.532885,0.336559 -0.855421,0.336559 l -5.370912,0 c -0.3786285,0 -0.6731178,-0.112186 -0.89749,-0.322535 C 9.2224126,26.267698 9.1242497,25.97321 9.1242497,25.580558 Z m 4.6837723,-18.342439 0,-2.8467241 c 0,-0.3365585 0.112187,-0.6170239 0.350583,-0.8554195 0.238395,-0.2383955 0.51886,-0.3505817 0.855419,-0.3505817 0.336559,0 0.603,0.1121862 0.841396,0.3505817 0.238396,0.2383956 0.350582,0.518861 0.350582,0.8554195 l 0,2.8467241 c 0,0.3225353 -0.112186,0.6030007 -0.350582,0.8133498 -0.238396,0.2103491 -0.518861,0.3365584 -0.841396,0.3365584 -0.322536,0 -0.617024,-0.1121861 -0.841397,-0.3225353 C 13.948255,7.8551429 13.808022,7.5606543 13.808022,7.238119 Z m 1.907165,14.205575 c 0,-0.294489 0.12621,-0.546908 0.378629,-0.757257 0.252419,-0.21035 0.532884,-0.322536 0.855419,-0.322536 0.322536,0 0.603001,0.112186 0.855419,0.322536 0.25242,0.210349 0.378629,0.462768 0.378629,0.757257 0,0.364604 -0.126209,0.673117 -0.378629,0.897489 -0.252418,0.224372 -0.532883,0.336557 -0.855419,0.336557 -0.322535,0 -0.617023,-0.112185 -0.855419,-0.336557 -0.252419,-0.238395 -0.378629,-0.532885 -0.378629,-0.897489 z m 2.159584,4.136864 c 0,-0.322535 0.112185,-0.603001 0.336558,-0.855419 0.224373,-0.238396 0.532886,-0.364604 0.89749,-0.364604 l 2.608328,0 c 0.364605,0 0.659094,0.126208 0.883467,0.364604 0.224371,0.252418 0.336558,0.532884 0.336558,0.855419 0,0.392652 -0.112187,0.68714 -0.322535,0.911513 -0.21035,0.224373 -0.518861,0.322535 -0.89749,0.322535 l -2.608328,0 c -0.378629,0 -0.673117,-0.112186 -0.89749,-0.322535 -0.224373,-0.224373 -0.336558,-0.518861 -0.336558,-0.911513 z m 1.234048,-4.136864 c 0,-0.294489 0.126209,-0.546908 0.378628,-0.757257 0.252419,-0.21035 0.532885,-0.322536 0.841397,-0.322536 l 4.305144,0 c 0.308512,0 0.560931,0.09816 0.757256,0.308512 0.196325,0.210349 0.308512,0.462769 0.308512,0.771281 0,0.378628 -0.09815,0.673117 -0.294489,0.897489 -0.196325,0.224372 -0.448743,0.336557 -0.771279,0.336557 l -4.305144,0 c -0.322535,0 -0.603001,-0.112185 -0.85542,-0.336557 -0.238396,-0.238395 -0.364605,-0.532885 -0.364605,-0.897489 z m 2.440049,-11.036316 c 0,-0.350581 0.112186,-0.6310473 0.322536,-0.8273726 l 1.991305,-2.0473976 c 0.252418,-0.2383957 0.532883,-0.3505818 0.827372,-0.3505818 0.322535,0 0.603,0.1121861 0.841397,0.3505818 0.238396,0.2383955 0.350581,0.5188611 0.350581,0.8554195 0,0.3365585 -0.112185,0.6310473 -0.336558,0.8554196 l -2.047399,1.9913041 c -0.252418,0.224373 -0.532883,0.33656 -0.841395,0.33656 -0.322535,0 -0.574955,-0.112187 -0.785303,-0.33656 -0.21035,-0.210349 -0.322536,-0.490814 -0.322536,-0.827373 z m 3.169259,7.67073 c 0,-0.322534 0.112186,-0.603001 0.336559,-0.855419 0.238395,-0.238396 0.504838,-0.350582 0.799327,-0.350582 l 2.8327,0 c 0.322535,0 0.603001,0.126209 0.841397,0.364605 0.238396,0.238395 0.364604,0.518862 0.364604,0.841396 0,0.322535 -0.126208,0.603001 -0.364604,0.841396 -0.238396,0.238395 -0.518862,0.350582 -0.841397,0.350582 l -2.8327,0 c -0.322535,0 -0.603001,-0.112187 -0.81335,-0.350582 -0.21035,-0.238395 -0.322536,-0.504838 -0.322536,-0.841396 z" /></svg>