<?xml version="1.0" encoding="UTF-8" standalone="no"?>
<svg
   xmlns:dc="http://purl.org/dc/elements/1.1/"
   xmlns:cc="http://creativecommons.org/ns#"
   xmlns:rdf="http://www.w3.org/1999/02/22-rdf-syntax-ns#"
   xmlns:svg="http://www.w3.org/2000/svg"
   xmlns="http://www.w3.org/2000/svg"
   xmlns:sodipodi="http://sodipodi.sourceforge.net/DTD/sodipodi-0.dtd"
   xmlns:inkscape="http://www.inkscape.org/namespaces/inkscape"
   xml:space="preserve"
   style="enable-background:new 0 0 30 30;"
   viewBox="0 0 30 30"
   y="0px"
   x="0px"
   id="Layer_1"
   version="1.1"
   inkscape:version="0.91 r13725"
   sodipodi:docname="wi-233.svg"><sodipodi:namedview
     pagecolor="#ffffff"
     bordercolor="#666666"
     borderopacity="1"
     objecttolerance="10"
     gridtolerance="10"
     guidetolerance="10"
     inkscape:pageopacity="0"
     inkscape:pageshadow="2"
     inkscape:window-width="1024"
     inkscape:window-height="715"
     id="namedview6"
     showgrid="false"
     inkscape:zoom="5.5625732"
     inkscape:cx="12.491065"
     inkscape:cy="25.594778"
     inkscape:window-x="0"
     inkscape:window-y="0"
     inkscape:window-maximized="1"
     inkscape:current-layer="Layer_1" /><metadata
     id="metadata9"><rdf:RDF><cc:Work
         rdf:about=""><dc:format>image/svg+xml</dc:format><dc:type
           rdf:resource="http://purl.org/dc/dcmitype/StillImage" /><dc:title /></cc:Work></rdf:RDF></metadata><defs
     id="defs7" /><path
     id="path3"
     d="m 0.05119069,14.112593 c 0,1.601658 0.47616842,3.030163 1.42850531,4.285517 0.9523368,1.255352 1.3423967,1.401455 2.7675915,2.076675 0.195939,0.07304 0.4509935,0.14624 0.5871098,-0.189475 C 5.0947139,19.64327 5.1052169,19.688034 5.3746395,18.919234 5.4600158,18.675612 5.2835584,18.521149 5.0794772,18.428275 4.2797096,17.921355 4.192413,17.864223 3.5142337,17.012892 2.8360545,16.16156 2.5041795,15.194794 2.5041795,14.112593 c 0,-1.197635 0.4040217,-2.236548 1.2120651,-3.116738 C 4.524288,10.115665 5.5343422,9.6106382 6.7464072,9.4663447 L 7.4967333,9.3653395 c 0.1875814,0 0.2885868,-0.086576 0.2885868,-0.2452989 L 7.8863256,8.3697144 C 8.0306191,6.811345 8.6799397,5.4982745 9.8487164,4.4449323 11.017494,3.39159 12.388282,2.8577042 13.961081,2.8577042 c 1.572797,0 2.943586,0.5338858 4.112362,1.5872281 1.183206,1.0533422 1.846956,2.3664127 2.020108,3.9247821 l 0.08659,0.836902 c 0,0.1731522 0.08657,0.2597283 0.274158,0.2597283 l 2.323124,0 c 1.313071,0 2.424131,0.4617386 3.347609,1.3707883 0.923478,0.909048 1.385218,2.005679 1.385218,3.289891 0,1.226493 -0.432882,2.294264 -1.284213,3.188885 -0.851332,0.894619 -1.904674,1.385217 -3.160027,1.486222 -0.187582,0 -0.288587,0.08658 -0.288587,0.274158 l 0,1.97682 c 0,0.158723 0.100999,0.245298 0.288587,0.245298 0.937908,-0.02886 1.832527,-0.245298 2.683858,-0.63489 0.851333,-0.389594 1.587229,-0.909049 2.193261,-1.54394 0.606032,-0.634892 1.096631,-1.385218 1.457363,-2.265408 0.360735,-0.865761 0.548317,-1.77481 0.548317,-2.712716 0,-1.298641 -0.317447,-2.496277 -0.966767,-3.592908 C 28.332708,9.4519154 27.466947,8.5861546 26.370318,7.9512633 25.273687,7.3163722 24.076051,6.9989266 22.79184,6.9989266 l -0.46174,0 C 21.853931,5.0798235 20.843877,3.5070248 19.285509,2.2949597 c -1.55837,-1.212065 -3.31875,-1.83252703 -5.31,-1.83252703 -2.034538,0 -3.852635,0.63489133 -5.4254335,1.89024443 C 6.9772768,3.6080302 5.9672226,5.2241169 5.5199128,7.2009373 3.9326848,7.5761003 2.6196143,8.3985731 1.5807014,9.6972143 0.54178842,10.995855 0.05119069,12.453218 0.05119069,14.112593 Z"
     inkscape:connector-curvature="0"
     sodipodi:nodetypes="sscsscsssccccsscccssssscsscsscsssscssscss" /><path
     inkscape:connector-curvature="0"
     d="m 5.5897336,29.55217 0.367173,0 6.5111914,-9.607678 c 0.04895,-0.04895 0.0612,-0.110151 0.02448,-0.171346 -0.03672,-0.0612 -0.08568,-0.08567 -0.171347,-0.08567 l -2.6681204,0 2.8149894,-5.152652 c 0.08567,-0.171348 0.03672,-0.26926 -0.171347,-0.26926 l -3.5982904,0 c -0.09791,0 -0.183586,0.0612 -0.26926,0.171347 l -2.643642,7.000754 c -0.02448,0.171347 0.02448,0.25702 0.171348,0.25702 l 2.65588,0 z"
     id="path3-3"
     sodipodi:nodetypes="cccssccssccscc" /><path
     inkscape:connector-curvature="0"
     d="m 11.739046,28.454391 c 0,0.173233 0.02888,0.317591 0.08662,0.418643 0.129923,0.317589 0.346462,0.534129 0.649617,0.649616 0.129924,0.07218 0.288718,0.11548 0.476385,0.11548 0.08662,0 0.230974,-0.02888 0.433077,-0.08662 0.317589,-0.115493 0.548565,-0.332026 0.678488,-0.649616 0.144359,-0.31759 0.144359,-0.63518 0,-0.95277 -0.14436,-0.31759 -0.360899,-0.534128 -0.649615,-0.664052 -0.288719,-0.129923 -0.577438,-0.129923 -0.895028,0 -0.274282,0.115481 -0.46195,0.288718 -0.591873,0.519692 -0.129922,0.230976 -0.187666,0.447513 -0.187671,0.649627 z m 1.053821,-3.767771 c 0,0.534128 0.303154,0.88059 0.909462,1.053821 0.158796,0.04331 0.274283,0.05774 0.346462,0.05774 0.216539,0 0.404206,-0.04331 0.548566,-0.115493 0.303154,-0.115492 0.505257,-0.389768 0.606308,-0.822846 l 2.410797,-9.080188 c 0.08662,-0.346462 0.05774,-0.649616 -0.08662,-0.938335 -0.144359,-0.274282 -0.389769,-0.461949 -0.70736,-0.548564 -0.115493,-0.02888 -0.24541,-0.04331 -0.389768,-0.04331 -0.230976,0 -0.46195,0.07218 -0.692925,0.21654 -0.230973,0.144358 -0.375334,0.360898 -0.433076,0.63518 l -2.468542,9.152367 c -0.02888,0.202103 -0.04331,0.346462 -0.04331,0.433082 z m 4.951518,-0.664053 c 0,0.173231 0.02888,0.332027 0.115494,0.46195 0.115493,0.274282 0.332025,0.49082 0.63518,0.63518 0.158795,0.05774 0.332026,0.10106 0.505256,0.10106 0.08662,0 0.230976,-0.02888 0.433079,-0.08662 0.303153,-0.115481 0.534128,-0.332026 0.664051,-0.635181 0.101061,-0.317589 0.101061,-0.620743 -0.01444,-0.909462 -0.11548,-0.288717 -0.317589,-0.505257 -0.606308,-0.649616 -0.332025,-0.158795 -0.63518,-0.173231 -0.938334,-0.04331 -0.303154,0.129923 -0.519692,0.346461 -0.664051,0.678487 -0.08662,0.144359 -0.129924,0.288718 -0.12993,0.447514 z m 1.053821,-3.710029 c 0,0.202103 0.07218,0.418643 0.230975,0.649616 0.158796,0.230974 0.375334,0.38977 0.649616,0.476385 0.230975,0.04331 0.360898,0.07218 0.38977,0.07218 0.129924,0 0.31759,-0.04331 0.53413,-0.14436 0.288716,-0.129924 0.476384,-0.38977 0.577435,-0.750668 L 22.479364,15.7941 c 0.02888,-0.24541 0.04331,-0.375334 0.04331,-0.375334 0,-0.230974 -0.07218,-0.447513 -0.216539,-0.664051 -0.144358,-0.216539 -0.360898,-0.360898 -0.649616,-0.447513 -0.129922,-0.02888 -0.259846,-0.04331 -0.375332,-0.04331 -0.230976,0 -0.46195,0.07218 -0.678488,0.216537 -0.21654,0.144361 -0.360899,0.360898 -0.447514,0.649617 l -1.299232,4.850466 z"
     id="path3-36"
     sodipodi:nodetypes="sccsccsscssscscccccssccssccsccscscscscsccccscssccc" /></svg>