<?xml version="1.0" encoding="UTF-8" standalone="no"?>
<svg
   xmlns:dc="http://purl.org/dc/elements/1.1/"
   xmlns:cc="http://creativecommons.org/ns#"
   xmlns:rdf="http://www.w3.org/1999/02/22-rdf-syntax-ns#"
   xmlns:svg="http://www.w3.org/2000/svg"
   xmlns="http://www.w3.org/2000/svg"
   xml:space="preserve"
   style="enable-background:new 0 0 30 30;"
   viewBox="0 0 30 30"
   y="0px"
   x="0px"
   id="Layer_1"
   version="1.1"><metadata
     id="metadata9"><rdf:RDF><cc:Work
         rdf:about=""><dc:format>image/svg+xml</dc:format><dc:type
           rdf:resource="http://purl.org/dc/dcmitype/StillImage" /></cc:Work></rdf:RDF></metadata><defs
     id="defs7" /><path
     id="path3"
     d="m 0.1562193,22.750051 c 0,-1.420543 0.41357599,-2.661269 1.2227465,-3.758147 0.8091703,-1.096874 1.9060457,-1.8521 3.2546631,-2.283658 0.5754101,-1.95999 1.7621934,-3.45246 3.5783314,-4.477409 l 0,-0.629355 c 0,-2.6253078 0.8271519,-4.926948 2.4814567,-6.9229018 1.654304,-1.9959538 3.758146,-3.2366817 6.293548,-3.70420239 0.647336,-0.10788983 1.294672,-0.16183407 1.942008,-0.16183407 l 0.05395,0 c 0.377613,0 0.791189,0.0359628 1.25871,0.0899083 0.46752,0.0359628 0.899077,0.10788986 1.312653,0.19779736 l 1.636322,0.5034838 c 0.233761,0.1258706 0.323669,0.2877051 0.287706,0.4675206 l -0.233765,1.2587095 c -0.125872,0.5933917 -0.197796,1.1688017 -0.197796,1.7442118 0,0.6293548 0.0899,1.2766911 0.287704,1.9240274 0.197798,0.6653179 0.485503,1.2946727 0.899079,1.942009 0.413575,0.6473355 0.935042,1.2227455 1.636321,1.7442105 0.683301,0.521466 1.49247,0.91706 2.391549,1.186782 l 1.276691,0.377616 c 0.197797,0.05394 0.305687,0.143851 0.305687,0.323666 0,0.07193 0,0.107885 -0.01799,0.125872 l -0.323665,1.222746 c -0.107884,0.431557 -0.233759,0.881097 -0.395594,1.312656 -0.269723,0.791187 -0.683299,1.600357 -1.258709,2.463472 0,-0.01797 0,-0.01797 -0.01798,-0.01797 -0.791189,1.132838 -1.762193,2.085861 -2.948976,2.841086 0.251741,0.611374 0.377612,1.348617 0.377612,2.229714 0,1.780176 -0.629354,3.290628 -1.870082,4.549337 -1.240717,1.258704 -2.733187,1.888057 -4.4774,1.888057 l -12.3173714,0 c -1.7442117,0 -3.2546633,-0.629353 -4.5313543,-1.906045 -1.25872164,-1.2767 -1.906058,-2.787151 -1.906058,-4.531364 z m 3.5603498,0 c 0,0.809172 0.2697234,1.492471 0.8271519,2.067881 0.5574285,0.57541 1.2407281,0.845134 2.0498983,0.845134 l 12.3173717,0 c 0.773208,0 1.438525,-0.287706 2.013936,-0.863116 0.575409,-0.575409 0.845134,-1.25871 0.845134,-2.049899 0,-0.773206 -0.287705,-1.438525 -0.845134,-2.013933 -0.557429,-0.575411 -1.240728,-0.845135 -2.013936,-0.845135 l -2.337603,0 c -0.197797,0 -0.341649,-0.125872 -0.449539,-0.413575 l -0.143852,-1.15082 c -0.125872,-1.042931 -0.57541,-1.906046 -1.348619,-2.589346 -0.773205,-0.683299 -1.672284,-1.042931 -2.715216,-1.042931 -1.024948,0 -1.906046,0.341649 -2.6612709,1.042931 -0.7552258,0.701281 -1.1867833,1.564397 -1.3126544,2.589346 l -0.1798155,0.988985 c 0,0.269724 -0.1078899,0.395595 -0.3416498,0.395595 L 6.2879329,19.85502 c -0.7372441,0.07193 -1.3486174,0.377614 -1.8341196,0.917061 -0.4855023,0.57541 -0.7372442,1.222746 -0.7372442,1.97797 z m 7.9658339,-11.5082 0.215778,0 c 1.672286,0 3.146774,0.46752 4.47741,1.402562 1.312653,0.935042 2.247695,2.193751 2.769161,3.776129 1.38458,0 2.607326,0.431557 3.650258,1.294673 1.240727,-0.773209 2.157787,-1.83412 2.751178,-3.146776 C 23.676107,13.633399 22.2196,12.284782 21.176668,10.522588 20.133738,8.7603953 19.59429,6.9082941 19.59429,4.9303221 l 0,-0.6293548 c -0.05394,0 -0.125872,0 -0.215778,0 -0.0899,0 -0.161833,0 -0.215779,0 -1.096876,0 -2.157788,0.2337604 -3.182736,0.701281 -1.02495,0.4675208 -1.888065,1.1508202 -2.589346,2.0139352 l -0.05395,-0.035963 c -0.988975,1.2227462 -1.528422,2.6432903 -1.654293,4.2616305 z" /></svg>