<?xml version="1.0" encoding="UTF-8" standalone="no"?>
<svg
   xmlns:dc="http://purl.org/dc/elements/1.1/"
   xmlns:cc="http://creativecommons.org/ns#"
   xmlns:rdf="http://www.w3.org/1999/02/22-rdf-syntax-ns#"
   xmlns:svg="http://www.w3.org/2000/svg"
   xmlns="http://www.w3.org/2000/svg"
   xml:space="preserve"
   style="enable-background:new 0 0 30 30;"
   viewBox="0 0 30 30"
   y="0px"
   x="0px"
   id="Layer_1"
   version="1.1"><metadata
     id="metadata9"><rdf:RDF><cc:Work
         rdf:about=""><dc:format>image/svg+xml</dc:format><dc:type
           rdf:resource="http://purl.org/dc/dcmitype/StillImage" /></cc:Work></rdf:RDF></metadata><defs
     id="defs7" /><path
     id="path3"
     d="m 1.3506722,12.547448 c 0,-1.506795 0.4808924,-2.8532927 1.4266473,-4.0394941 C 3.7230744,7.3217528 4.9253054,6.5683548 6.3840121,6.2477599 6.7847557,4.4524285 7.6984512,2.9616622 9.1411283,1.8075207 10.583805,0.65337905 12.21884,0.0763082 14.07829,0.0763082 c 1.795332,0 3.414336,0.56104105 4.840983,1.6831232 1.426648,1.1220822 2.340344,2.5647591 2.773146,4.3120014 l 0.432803,0 c 1.795332,0 3.334187,0.62516 4.616566,1.8915097 1.26635,1.2503202 1.90754,2.7891755 1.90754,4.5684765 0,0.961785 -0.192357,1.875481 -0.5931,2.725056 -0.400744,0.849577 -0.945755,1.586946 -1.651063,2.196076 l 0,0.04809 c 0,0.945754 -0.304566,1.79533 -0.897667,2.548729 -0.5931,0.753397 -1.346499,1.21826 -2.244163,1.426647 -0.224418,0.993844 -0.72134,1.84342 -1.458708,2.532699 -0.737368,0.68928 -1.619004,1.122083 -2.612848,1.28238 0.464863,0.545012 0.689279,1.154142 0.689279,1.811361 0,0.769428 -0.272507,1.426647 -0.817517,1.987689 -0.545011,0.545011 -1.20223,0.833546 -1.971658,0.833546 -0.769428,0 -1.426648,-0.272506 -1.971659,-0.833546 -0.545011,-0.545012 -0.817517,-1.218261 -0.817517,-1.987689 0,-0.304565 0.04809,-0.60913 0.160296,-0.913695 l -0.160296,0 c -0.929725,0 -1.731213,-0.336625 -2.404461,-1.009874 -0.67325,-0.67325 -1.009875,-1.474736 -1.009875,-2.404461 0,-0.64119 0.160298,-1.218261 0.480892,-1.715183 -0.833547,-0.464862 -1.426648,-1.122082 -1.7953316,-2.003718 l -2.0518074,0 0,-0.01602 C 5.8069413,18.927287 4.3482344,18.254038 3.1460037,17.003718 1.9437728,15.753398 1.3506722,14.278662 1.3506722,12.547448 Z m 2.2441644,-0.400742 c 0,1.282379 0.4488328,2.372403 1.3464984,3.270069 0.8976657,0.897664 1.9876885,1.346497 3.2540382,1.346497 0.7854575,0 1.5228259,-0.176327 2.1960758,-0.545012 0.192356,1.186203 0.753398,2.180047 1.667093,2.981533 0.913696,0.801488 2.003719,1.186203 3.238009,1.186203 1.394588,0 2.580789,-0.496922 3.558603,-1.474737 0.65722,0.769427 1.474736,1.138112 2.468581,1.138112 0.913696,0 1.683124,-0.320595 2.340343,-0.961785 0.64119,-0.64119 0.961784,-1.426647 0.961784,-2.340343 0.64119,-0.432803 1.154142,-0.977814 1.522826,-1.667094 0.368684,-0.673248 0.56104,-1.410617 0.56104,-2.196074 0,-1.266351 -0.448832,-2.356374 -1.362526,-3.2380092 -0.913697,-0.881636 -2.003719,-1.3304689 -3.286099,-1.3304689 -0.897665,0 -1.715182,0.2404462 -2.452552,0.7053088 0.09618,-0.3847139 0.128239,-0.817517 0.128239,-1.2663499 0,-1.5388554 -0.545011,-2.8532944 -1.651063,-3.9433171 -1.106053,-1.0900227 -2.436522,-1.6190042 -3.991406,-1.6190042 -1.506797,0 -2.805206,0.5289815 -3.89523,1.5548852 -1.0900224,1.0259036 -1.667093,2.3082832 -1.7151824,3.7990495 -0.03206,0 -0.080148,0 -0.1282379,0 -0.064119,0 -0.1122083,0 -0.1442677,0 -1.2663499,0 -2.3403428,0.4488329 -3.2540382,1.3464985 C 4.0436694,9.7903338 3.5948366,10.896385 3.5948366,12.146706 Z" /></svg>