<?xml version="1.0" encoding="UTF-8" standalone="no"?>
<svg
   xmlns:dc="http://purl.org/dc/elements/1.1/"
   xmlns:cc="http://creativecommons.org/ns#"
   xmlns:rdf="http://www.w3.org/1999/02/22-rdf-syntax-ns#"
   xmlns:svg="http://www.w3.org/2000/svg"
   xmlns="http://www.w3.org/2000/svg"
   xml:space="preserve"
   style="enable-background:new 0 0 30 30;"
   viewBox="0 0 30 30"
   y="0px"
   x="0px"
   id="Layer_1"
   version="1.1"><metadata
     id="metadata9"><rdf:RDF><cc:Work
         rdf:about=""><dc:format>image/svg+xml</dc:format><dc:type
           rdf:resource="http://purl.org/dc/dcmitype/StillImage" /></cc:Work></rdf:RDF></metadata><defs
     id="defs7" /><path
     id="path3"
     d="m 0.0545148,16.549112 c 0,0.338672 0.11289048,0.614628 0.35121588,0.840409 0.23832486,0.225782 0.53936701,0.326128 0.90312622,0.326128 l 2.1198379,0 c 0.3386723,0 0.627171,-0.112885 0.8654959,-0.338671 0.2383251,-0.225782 0.3637592,-0.501737 0.3637592,-0.827866 0,-0.363759 -0.1128904,-0.664802 -0.3512157,-0.890584 -0.238325,-0.225781 -0.5268237,-0.351215 -0.865496,-0.351215 l -2.1323813,0 c -0.36375921,0 -0.66480136,0.112887 -0.90312622,0.351215 -0.23832509,0.213239 -0.35121588,0.514281 -0.35121588,0.890584 z m 2.2201854,7.751834 c 0,1.21671 0.4390197,2.270359 1.3296025,3.160941 0.8905829,0.890583 1.9316867,1.329603 3.1483984,1.329603 l 8.6047849,0 c 1.216712,0 2.257817,-0.43902 3.123312,-1.317059 0.865495,-0.878041 1.304516,-1.931687 1.304516,-3.173485 0,-0.602085 -0.08781,-1.116365 -0.263412,-1.542841 1.041105,-0.664802 1.868969,-1.555384 2.471054,-2.659206 0.602084,-1.103821 0.91567,-2.295445 0.91567,-3.562331 0,-1.016017 -0.200696,-1.994404 -0.602085,-2.922616 -0.40139,-0.928214 -0.940757,-1.730993 -1.605557,-2.395794 C 20.036182,10.553357 19.233403,10.01399 18.30519,9.612601 17.376978,9.2112115 16.411134,9.0105168 15.395118,9.0105168 c -1.367234,0 -2.634119,0.3386724 -3.788114,1.0160162 -1.153994,0.677345 -2.069664,1.593014 -2.7344645,2.734466 -0.6648015,1.153995 -0.9909306,2.408337 -0.9909306,3.775569 l 0,0.426476 c -1.2543421,0.714974 -2.0822077,1.75608 -2.4835972,3.123312 -0.9532999,0.301042 -1.705905,0.827866 -2.270359,1.593015 -0.5644538,0.765148 -0.8529525,1.643187 -0.8529525,2.621575 z M 4.2314736,6.5394632 c 0,0.3512156 0.1128905,0.6397143 0.326129,0.8404091 l 2.0194906,2.1198379 c 0.5895407,0.4515632 1.1790814,0.4515632 1.7686223,0 C 8.58404,9.2613851 8.6969316,8.9728865 8.6969316,8.6216707 c 0,-0.3386723 -0.1128859,-0.627171 -0.3512161,-0.8780394 L 6.2760511,5.673967 C 6.0126393,5.435642 5.7115972,5.3102079 5.3980117,5.3102079 c -0.3512158,0 -0.6397144,0.1128905 -0.8529526,0.3512158 C 4.3318211,5.8997486 4.2314736,6.1882473 4.2314736,6.5394632 Z M 4.7582973,24.300946 c 0,-0.526824 0.1630645,-0.978388 0.5017368,-1.35469 0.3386723,-0.376303 0.7651486,-0.58954 1.2794289,-0.639714 l 0.777692,-0.100347 c 0.1630643,0 0.2508684,-0.100347 0.2508684,-0.288499 l 0.1128904,-0.70243 c 0.087804,-0.727517 0.3888465,-1.329601 0.9156694,-1.80625 0.526824,-0.489194 1.1414514,-0.727519 1.8564258,-0.727519 0.727519,0 1.367234,0.238325 1.894056,0.727519 0.539367,0.489192 0.852954,1.091277 0.940757,1.806253 l 0.100347,0.815321 c 0.07526,0.188151 0.175607,0.288499 0.301042,0.288499 l 1.655731,0 c 0.539367,0 1.003474,0.200694 1.404863,0.589541 0.401389,0.388846 0.589541,0.852953 0.589541,1.404863 0,0.564453 -0.200695,1.041103 -0.589541,1.442494 -0.388846,0.401388 -0.865496,0.602083 -1.404863,0.602083 l -8.5922421,0 c -0.5644538,0 -1.0411038,-0.200695 -1.4174065,-0.602083 C 4.9464486,25.354592 4.7582973,24.865399 4.7582973,24.300946 Z m 5.5441907,-8.015247 c 0.08781,-1.367232 0.614628,-2.521226 1.593015,-3.461983 0.965843,-0.928212 2.144924,-1.404863 3.499615,-1.404863 1.392318,0 2.583943,0.501736 3.562331,1.492668 0.978386,0.99093 1.46758,2.20764 1.46758,3.625047 0,0.87804 -0.213239,1.693362 -0.639715,2.445967 -0.426477,0.752606 -1.003474,1.354689 -1.730991,1.818795 -0.740063,-0.614627 -1.593016,-0.915669 -2.546315,-0.915669 -0.363759,-1.103821 -1.016016,-1.969317 -1.931687,-2.621574 -0.91567,-0.652258 -1.956774,-0.978388 -3.110769,-0.978388 l -0.163064,0 z M 14.178406,5.3102079 c 0,0.3386723 0.125434,0.6397144 0.363758,0.8780394 0.238326,0.238325 0.526824,0.3637592 0.865496,0.3637592 0.351216,0 0.639716,-0.1254342 0.87804,-0.3637592 0.238325,-0.238325 0.363759,-0.5268236 0.363759,-0.8780394 l 0,-2.9351603 c 0,-0.3261289 -0.125434,-0.6020841 -0.363759,-0.8278657 -0.238324,-0.2257815 -0.526824,-0.3386723 -0.87804,-0.3386723 -0.338672,0 -0.62717,0.1128905 -0.865496,0.3386723 -0.238324,0.2257816 -0.363758,0.5017368 -0.363758,0.8278657 l 0,2.9351603 z m 7.927441,19.1036281 c 0,0.338672 0.112887,0.62717 0.338672,0.87804 l 2.05712,2.032034 c 0.526825,0.526823 1.116364,0.526823 1.768622,0 0.225783,-0.213239 0.32613,-0.489194 0.32613,-0.852953 0,-0.338673 -0.112886,-0.614628 -0.32613,-0.840409 l -2.119837,-2.094751 c -0.225782,-0.213239 -0.51428,-0.313586 -0.852953,-0.313586 -0.351217,0 -0.627171,0.112887 -0.852952,0.338672 -0.225781,0.225781 -0.338672,0.514281 -0.338672,0.852953 z m 0,-15.8172521 c 0,0.3512157 0.112887,0.6522579 0.338672,0.9031263 0.225781,0.2257819 0.514279,0.3386724 0.852952,0.3386724 0.338673,0 0.627171,-0.1128905 0.852953,-0.3386724 l 2.119837,-2.1198379 c 0.225783,-0.2132383 0.32613,-0.4891935 0.32613,-0.8404091 0,-0.3512159 -0.125434,-0.6397146 -0.36376,-0.8654962 -0.238324,-0.2257815 -0.526823,-0.3512157 -0.878038,-0.3512157 -0.326129,0 -0.614628,0.1254342 -0.852954,0.3637591 l -2.05712,2.0445775 c -0.225781,0.2257817 -0.338672,0.5142802 -0.338672,0.865496 z m 3.236202,7.9525281 c 0,0.338672 0.112885,0.614628 0.351216,0.840409 0.238325,0.225782 0.539366,0.326128 0.903126,0.326128 l 2.119838,0 c 0.338672,0 0.627171,-0.112885 0.865497,-0.338671 0.238324,-0.225782 0.363759,-0.501737 0.363759,-0.827866 0,-0.363759 -0.112886,-0.664802 -0.351217,-0.890584 -0.238325,-0.225781 -0.526824,-0.351215 -0.865496,-0.351215 l -2.119838,0 c -0.363759,0 -0.664802,0.112887 -0.903126,0.351215 -0.238325,0.213239 -0.363759,0.514281 -0.363759,0.890584 z" /></svg>