<?xml version="1.0" encoding="UTF-8" standalone="no"?>
<svg
   xmlns:dc="http://purl.org/dc/elements/1.1/"
   xmlns:cc="http://creativecommons.org/ns#"
   xmlns:rdf="http://www.w3.org/1999/02/22-rdf-syntax-ns#"
   xmlns:svg="http://www.w3.org/2000/svg"
   xmlns="http://www.w3.org/2000/svg"
   xml:space="preserve"
   style="enable-background:new 0 0 30 30;"
   viewBox="0 0 30 30"
   y="0px"
   x="0px"
   id="Layer_1"
   version="1.1"><metadata
     id="metadata9"><rdf:RDF><cc:Work
         rdf:about=""><dc:format>image/svg+xml</dc:format><dc:type
           rdf:resource="http://purl.org/dc/dcmitype/StillImage" /></cc:Work></rdf:RDF></metadata><defs
     id="defs7" /><path
     id="path3"
     d="m 0.09176824,14.985962 c 0,-0.336909 0.11230334,-0.631704 0.35094694,-0.870347 0.23864413,-0.224607 0.53343968,-0.336911 0.84227322,-0.336911 l 2.863728,0 c 0.3228713,0 0.5895911,0.112308 0.814197,0.350947 0.2105684,0.238644 0.3228715,0.519402 0.3228715,0.856311 0,0.336909 -0.098265,0.617669 -0.3088334,0.856312 -0.2105684,0.238643 -0.491326,0.350947 -0.8141972,0.350947 l -2.8637281,0 c -0.32287145,0 -0.60362909,-0.112308 -0.84227304,-0.350947 C 0.21810914,15.603631 0.09176824,15.322871 0.09176824,14.985962 Z m 4.01483456,9.728253 c 0,-0.322872 0.1123032,-0.603628 0.3228712,-0.85631 l 2.0635689,-2.007418 c 0.2105683,-0.224606 0.4913256,-0.322871 0.8282349,-0.322871 0.3369094,0 0.617667,0.112307 0.8422732,0.322871 0.2246061,0.21057 0.336909,0.477288 0.336909,0.80016 0,0.336908 -0.1123032,0.645742 -0.336909,0.898425 L 6.1701713,25.54245 c -0.5755529,0.449213 -1.1511064,0.449213 -1.7266595,0 -0.224606,-0.224606 -0.336909,-0.505364 -0.336909,-0.828235 z m 0,-19.4284298 c 0,-0.3228713 0.1123032,-0.6036291 0.3228712,-0.856311 0.2807576,-0.2386438 0.5755532,-0.350947 0.8984245,-0.350947 0.3088333,0 0.5895911,0.1123033 0.828235,0.3369092 L 8.163551,6.4790052 C 8.3881571,6.6895735 8.50046,6.970331 8.50046,7.3072403 c 0,0.3369092 -0.1123032,0.6176667 -0.336909,0.8422729 -0.2246062,0.2246061 -0.5053638,0.3369091 -0.8422732,0.3369091 -0.3369093,0 -0.6176666,-0.1123031 -0.8282349,-0.3369091 L 4.4435118,6.1420959 C 4.2189058,5.9174899 4.1066028,5.6226942 4.1066028,5.2857852 Z m 3.57966,9.7001768 c 0,-1.305523 0.3228712,-2.526817 0.9826518,-3.649849 C 9.3286953,10.213082 10.213082,9.3146574 11.350151,8.654877 12.487219,7.9950964 13.694477,7.6722253 15,7.6722253 c 0.982652,0 1.92319,0.1965302 2.835652,0.5895909 0.898425,0.3930608 1.684546,0.9124624 2.330288,1.5722433 0.659781,0.6597795 1.179184,1.4318645 1.558206,2.3302865 0.379022,0.898425 0.575552,1.853002 0.575552,2.835654 0,1.319562 -0.322871,2.540857 -0.982652,3.663887 -0.659779,1.123031 -1.544166,2.007417 -2.667196,2.667198 -1.123032,0.65978 -2.344326,0.982651 -3.663886,0.982651 -1.319564,0 -2.540858,-0.322871 -3.66389,-0.982651 C 10.199044,20.671304 9.3146572,19.786918 8.6548767,18.663887 8.023172,17.526819 7.6862628,16.305525 7.6862628,14.985962 Z m 2.3864402,0 c 0,1.375713 0.477288,2.540857 1.445902,3.509471 0.954577,0.968614 2.119719,1.45994 3.495433,1.45994 1.375712,0 2.540857,-0.491326 3.509469,-1.45994 0.968615,-0.968614 1.459941,-2.133758 1.459941,-3.509471 0,-1.347637 -0.491326,-2.498744 -1.459941,-3.467356 -0.968612,-0.954577 -2.133757,-1.431865 -3.509469,-1.431865 -1.361675,0 -2.526819,0.477288 -3.481395,1.431865 -0.982652,0.968612 -1.45994,2.119719 -1.45994,3.467356 z m 3.734077,10.921473 c 0,-0.336909 0.112307,-0.617667 0.350947,-0.842273 0.238644,-0.224606 0.519401,-0.336909 0.842273,-0.336909 0.33691,0 0.631705,0.112307 0.856311,0.336909 0.224606,0.224606 0.336908,0.505364 0.336908,0.842273 l 0,2.793539 c 0,0.336908 -0.112306,0.631706 -0.350947,0.870349 C 15.603628,29.809966 15.32287,29.92227 15,29.92227 c -0.322872,0 -0.617668,-0.112308 -0.842273,-0.350947 C 13.919083,29.33268 13.80678,29.037882 13.80678,28.700974 l 0,-2.793539 z m 0,-21.7587183 0,-2.8637282 c 0,-0.32287131 0.112307,-0.60362885 0.350947,-0.84227297 0.238644,-0.23864402 0.519401,-0.36498503 0.856311,-0.36498503 0.336908,0 0.603629,0.11230302 0.842273,0.35094705 0.238643,0.23864409 0.350947,0.51940163 0.350947,0.84227315 l 0,2.877766 c 0,0.3228712 -0.112308,0.5895909 -0.350947,0.8141972 -0.238644,0.2246061 -0.519401,0.3228713 -0.842273,0.3228713 -0.322872,0 -0.617667,-0.1123033 -0.842273,-0.3228713 C 13.947158,4.7523456 13.80678,4.4715879 13.80678,4.1487167 Z m 7.748913,18.5019303 c 0,-0.322872 0.112306,-0.58959 0.322869,-0.786122 0.210569,-0.224606 0.477289,-0.322871 0.786122,-0.322871 0.33691,0 0.617668,0.112305 0.842273,0.322871 l 2.049531,2.007416 c 0.224606,0.238646 0.336908,0.53344 0.336908,0.856312 0,0.322872 -0.112304,0.603629 -0.336908,0.828235 -0.561516,0.435175 -1.123031,0.435175 -1.684547,0 l -1.993379,-1.993379 c -0.210568,-0.252683 -0.322869,-0.547477 -0.322869,-0.912462 z m 0,-15.3293689 c 0,-0.3509471 0.112306,-0.6317046 0.322869,-0.8282351 l 1.993379,-2.0635688 c 0.238644,-0.224606 0.519402,-0.3369094 0.828237,-0.3369094 0.336908,0 0.617665,0.1123035 0.842271,0.3509473 0.238645,0.238644 0.350947,0.5194018 0.350947,0.8422731 0,0.350947 -0.112304,0.6457426 -0.336908,0.8703486 L 23.506957,8.163551 c -0.252682,0.2246061 -0.53344,0.3369093 -0.842273,0.3369093 -0.322871,0 -0.575553,-0.1123034 -0.786122,-0.3369093 C 21.667994,7.9389449 21.555693,7.6581873 21.555693,7.3212781 Z m 3.172559,7.6646839 c 0,-0.336909 0.112309,-0.617667 0.33691,-0.870347 0.224607,-0.224607 0.491326,-0.336911 0.800159,-0.336911 l 2.835652,0 c 0.322871,0 0.60363,0.126343 0.842274,0.364985 0.238643,0.238644 0.364985,0.519403 0.364985,0.842273 0,0.32287 -0.126342,0.603629 -0.364985,0.842273 -0.238644,0.238644 -0.519403,0.350947 -0.842274,0.350947 l -2.835652,0 c -0.322872,0 -0.603628,-0.112306 -0.814196,-0.350947 -0.210568,-0.238644 -0.322873,-0.505364 -0.322873,-0.842273 z" /></svg>