<?xml version="1.0" encoding="UTF-8" standalone="no"?>
<svg
   xmlns:dc="http://purl.org/dc/elements/1.1/"
   xmlns:cc="http://creativecommons.org/ns#"
   xmlns:rdf="http://www.w3.org/1999/02/22-rdf-syntax-ns#"
   xmlns:svg="http://www.w3.org/2000/svg"
   xmlns="http://www.w3.org/2000/svg"
   xml:space="preserve"
   style="enable-background:new 0 0 30 30;"
   viewBox="0 0 30 30"
   y="0px"
   x="0px"
   id="Layer_1"
   version="1.1"><metadata
     id="metadata9"><rdf:RDF><cc:Work
         rdf:about=""><dc:format>image/svg+xml</dc:format><dc:type
           rdf:resource="http://purl.org/dc/dcmitype/StillImage" /></cc:Work></rdf:RDF></metadata><defs
     id="defs7" /><path
     id="path3"
     d="m 0.15549624,15.000002 c 0,-2.017056 0.39920854,-3.929055 1.17661476,-5.7780218 C 2.1095174,7.373014 3.1810775,5.7971903 4.5047693,4.4734985 5.8284612,3.1498068 7.4252956,2.0782466 9.2742615,1.2798294 11.123228,0.48141209 13.056238,0.08220344 15.052281,0.08220344 l 2.395253,0 c 0.336175,0.0840443 0.483253,0.29415374 0.483253,0.58830736 l 0.105053,1.8489665 c 0.08404,2.6683946 1.029538,4.9375806 2.878504,6.8075579 1.848967,1.8699778 4.076131,2.8785048 6.702503,2.9835608 l 1.722901,0.147076 c 0.336176,0 0.504263,0.168087 0.504263,0.483253 l 0,2.059077 c 0.02102,2.689404 -0.630329,5.189711 -1.954021,7.479908 -1.323691,2.290198 -3.109625,4.097142 -5.399821,5.441844 -2.269187,1.323693 -4.769494,1.996043 -7.4589,1.996043 -2.038064,0 -3.992086,-0.399208 -5.8410517,-1.176614 C 7.3412517,27.963775 5.765428,26.892217 4.4417363,25.568524 3.1180446,24.244834 2.0674954,22.647998 1.2900892,20.820042 0.55470478,18.971077 0.15549624,17.038066 0.15549624,15.000002 Z m 3.84500946,0 c 0,1.596835 0.3151649,3.109624 0.9454941,4.53837 0.6303295,1.407736 1.4707687,2.605363 2.5003068,3.571867 1.0295381,0.966506 2.2061535,1.722901 3.5508554,2.269187 1.323692,0.567296 2.689405,0.840438 4.076132,0.840438 1.218637,0 2.458284,-0.231121 3.697932,-0.714373 1.239647,-0.483251 2.395252,-1.155604 3.466812,-2.017054 1.071559,-0.86145 1.975033,-1.95402 2.752438,-3.298724 0.777406,-1.344703 1.260659,-2.79446 1.49178,-4.391295 C 23.057465,15.084044 20.305027,13.613275 18.24595,11.386112 16.186876,9.1589473 14.989249,6.5535856 14.674083,3.5280044 12.65703,3.6540703 10.850086,4.2633887 9.1902184,5.3769708 7.5513615,6.4905527 6.2696918,7.8982884 5.3662194,9.621189 4.4627473,11.344091 4.0005057,13.130024 4.0005057,15.000002 Z" /></svg>