<?xml version="1.0" encoding="UTF-8" standalone="no"?>
<svg
   xmlns:dc="http://purl.org/dc/elements/1.1/"
   xmlns:cc="http://creativecommons.org/ns#"
   xmlns:rdf="http://www.w3.org/1999/02/22-rdf-syntax-ns#"
   xmlns:svg="http://www.w3.org/2000/svg"
   xmlns="http://www.w3.org/2000/svg"
   xml:space="preserve"
   style="enable-background:new 0 0 30 30;"
   viewBox="0 0 30 30"
   y="0px"
   x="0px"
   id="Layer_1"
   version="1.1"><metadata
     id="metadata9"><rdf:RDF><cc:Work
         rdf:about=""><dc:format>image/svg+xml</dc:format><dc:type
           rdf:resource="http://purl.org/dc/dcmitype/StillImage" /></cc:Work></rdf:RDF></metadata><defs
     id="defs7" /><path
     id="path3"
     d="m 0.06575265,15.900733 c 0,-0.330038 0.12376448,-0.60507 0.37129345,-0.838848 0.23377742,-0.233777 0.52256123,-0.343789 0.8525998,-0.343789 l 2.8328315,0 c 0.3300386,0 0.6050707,0.110014 0.8250966,0.343789 0.2337773,0.233778 0.3437903,0.50881 0.3437903,0.838848 0,0.343791 -0.1100125,0.632575 -0.3437903,0.866352 -0.2337774,0.233778 -0.5088095,0.34379 -0.8250966,0.34379 l -2.8328315,0 c -0.34379032,0 -0.63257403,-0.110012 -0.86635142,-0.34379 C 0.17576552,16.533308 0.06575265,16.244524 0.06575265,15.900733 Z M 4.0812226,6.247104 c 0,-0.3162871 0.1100125,-0.6050707 0.3300387,-0.8525998 0.2750321,-0.2200256 0.563816,-0.3437902 0.9076061,-0.3437902 0.2887839,0 0.563816,0.1100125 0.8113451,0.3437902 l 1.9939833,2.0352382 c 0.2337773,0.2200257 0.3437902,0.4950579 0.3437902,0.8250965 0,0.3300386 -0.1100126,0.6050708 -0.3437902,0.8250966 -0.2337774,0.2337773 -0.4950579,0.3437903 -0.8250965,0.3437903 -0.3575419,0 -0.6325741,-0.1100125 -0.8388482,-0.3437903 L 4.3975098,7.0997038 C 4.2049872,6.8659263 4.0812226,6.5771426 4.0812226,6.247104 Z m 3.5891701,9.653629 c 0,-0.976364 0.1925225,-1.911473 0.5913193,-2.805326 C 8.646757,12.20155 9.1830697,11.417709 9.8293954,10.771384 10.489471,10.125058 11.273313,9.6024967 12.167167,9.2174515 13.061023,8.8324066 14.009883,8.6261324 15,8.6261324 c 1.320154,0 2.530295,0.3300387 3.657927,0.9901158 1.127633,0.6600768 2.021487,1.5401798 2.667813,2.6678128 0.646325,1.11388 0.976364,2.324021 0.976364,3.616672 0,0.206276 -0.01375,0.398798 -0.04125,0.577569 -0.385045,-0.233778 -0.825097,-0.34379 -1.333906,-0.34379 -0.330038,0 -0.660076,0.06875 -0.990116,0.206274 0.01375,-0.09627 0.01375,-0.24753 0.01375,-0.440053 0,-1.347656 -0.481307,-2.48904 -1.457671,-3.437902 -0.976364,-0.94886 -2.145251,-1.430166 -3.506662,-1.430166 -1.361408,0 -2.516543,0.481306 -3.492907,1.430166 -0.976365,0.948862 -1.44392,2.090246 -1.44392,3.437902 l 0,0.247531 c -0.3987956,0.0275 -0.7838407,0.137515 -1.1551341,0.34379 -0.013752,0.01374 -0.055007,0.04125 -0.1375162,0.09625 -0.08251,0.05501 -0.1650193,0.123765 -0.2612805,0.192523 -0.096261,0.06875 -0.1925226,0.151268 -0.316287,0.261281 C 8.0554377,17.152127 7.9316733,17.262139 7.8216604,17.372151 7.7116479,16.9321 7.6703927,16.437042 7.6703927,15.900729 Z m 0.041255,5.019337 0,-0.206272 c -0.013752,-0.123766 0,-0.275033 0.027503,-0.453805 0.068759,-0.495057 0.2612807,-0.962612 0.5775675,-1.402663 0.178771,-0.220026 0.3025355,-0.371293 0.3712934,-0.426299 0.013752,-0.02751 0.027503,-0.05501 0.055007,-0.08251 l 0.055007,-0.05501 c 0.041255,-0.01374 0.096261,-0.06875 0.1650192,-0.137519 0.027503,-0.0275 0.068758,-0.06875 0.1100124,-0.110012 0.041255,-0.04127 0.08251,-0.05501 0.096261,-0.08251 0.068759,-0.06875 0.137516,-0.110014 0.1925225,-0.137518 l 0.2337774,-0.151273 c 0.1925225,-0.123764 0.4262989,-0.192521 0.6875799,-0.192521 l 0.04125,0 c 0.137516,0 0.26128,0.01374 0.357541,0.04125 0.04125,0.01374 0.09626,0.04126 0.178771,0.09627 l 0,0.01374 c 0.192523,0.08251 0.357543,0.220027 0.467556,0.398797 0.110013,0.178771 0.178771,0.371293 0.178771,0.577568 0,0.233777 -0.06876,0.4263 -0.192523,0.577567 -0.08251,0.123765 -0.192523,0.233779 -0.302536,0.316288 -0.0275,0.01375 -0.05501,0.0275 -0.08251,0.04125 -0.0275,0.01375 -0.05501,0.0275 -0.05501,0.0275 l -0.08251,0.05501 c -0.05501,0.04125 -0.09626,0.08251 -0.137515,0.110014 -0.04125,0.02751 -0.08251,0.08251 -0.151269,0.151268 -0.05501,0.06875 -0.110012,0.123764 -0.151267,0.192522 -0.04125,0.05501 -0.08251,0.137516 -0.123765,0.206274 -0.04125,0.08251 -0.06876,0.16502 -0.06876,0.233777 l 0,0.206276 c 0.05501,0.206273 0.110013,0.371291 0.151268,0.495057 0.09626,0.192523 0.24753,0.385045 0.467555,0.605071 0.01376,0.0275 0.123765,0.137515 0.330038,0.34379 1.182639,1.072625 1.746455,2.22776 1.663945,3.437902 -0.0275,0.412549 -0.123764,0.811345 -0.288784,1.19639 -0.165018,0.385045 -0.35754,0.701332 -0.591319,0.962612 -0.220025,0.261282 -0.398796,0.453804 -0.536313,0.59132 -0.137515,0.123764 -0.247529,0.220025 -0.34379,0.288784 -0.01376,0.01374 -0.04125,0.0275 -0.08251,0.05501 -0.04125,0.0275 -0.08251,0.05501 -0.09626,0.05501 -0.110012,0.05501 -0.206274,0.08251 -0.302535,0.09625 -0.123765,0.01374 -0.206274,0.0275 -0.275032,0.0275 -0.412548,0 -0.7425863,-0.137515 -0.9763636,-0.412548 -0.1925134,-0.233763 -0.275023,-0.508795 -0.2475198,-0.811331 0.027503,-0.302535 0.1787708,-0.550064 0.4538031,-0.728835 l 0.013752,-0.04125 c 0.013752,-0.01374 0.041255,-0.04125 0.068759,-0.05501 0.027503,-0.02751 0.055007,-0.05501 0.096261,-0.08251 0.041255,-0.02751 0.08251,-0.06875 0.1100125,-0.110015 0.041255,-0.04126 0.08251,-0.09625 0.1100123,-0.137515 0.041253,-0.05501 0.082507,-0.110014 0.1100137,-0.165019 0.04125,-0.05501 0.08251,-0.123765 0.1100118,-0.192523 0.04125,-0.06875 0.06875,-0.137515 0.09626,-0.206275 0.0275,-0.06875 0.04125,-0.137515 0.06875,-0.220024 0.01375,-0.08251 0.0275,-0.16502 0.0275,-0.233779 0.0275,-0.275031 -0.04125,-0.550063 -0.206275,-0.825096 C 10.021913,24.509241 9.9256471,24.357973 9.7881305,24.206707 9.6918791,24.096694 9.6231212,24.027935 9.5818664,23.98668 9.4581019,23.835412 9.3893438,23.752903 9.3755923,23.739151 c -0.027503,-0.01375 -0.055007,-0.04126 -0.096261,-0.08251 -0.041255,-0.04125 -0.068759,-0.05501 -0.08251,-0.06875 C 8.9905472,23.395362 8.8392794,23.230342 8.7292667,23.092825 8.5642473,22.872799 8.4404828,22.735283 8.399228,22.652774 8.1379474,22.295233 7.9591764,21.937691 7.8629152,21.580149 7.8079084,21.387626 7.7666545,21.236358 7.7529027,21.140097 c 0,-0.0275 -0.013752,-0.06876 -0.027503,-0.110014 -0.013752,-0.04126 -0.013752,-0.06876 -0.013752,-0.110014 z m 5.3356243,-0.453802 c 0,-0.08251 0,-0.137516 0.01374,-0.192523 0.0275,-0.302536 0.123764,-0.591319 0.275031,-0.880102 0.151269,-0.288784 0.302536,-0.536313 0.481307,-0.728836 0.178771,-0.192522 0.343791,-0.371292 0.522561,-0.522562 0.178771,-0.151267 0.316288,-0.261279 0.4263,-0.343789 l 0.165019,-0.09627 c 0.206275,-0.123763 0.440053,-0.192522 0.687581,-0.192522 0.151267,0 0.288784,0.01374 0.412549,0.04126 0.01375,0 0.0275,0.01375 0.06876,0.02751 0.04126,0.0275 0.06875,0.04126 0.08251,0.05501 0.01375,0 0.0275,0 0.04125,0.01375 0.01374,0 0.04125,0.0275 0.09625,0.06875 0.275033,0.165019 0.440052,0.412549 0.522561,0.742586 0,0.02751 0,0.05501 0,0.09627 0,0.0275 0,0.05501 0,0.06875 0,0.04125 -0.01375,0.09625 -0.0275,0.165019 -0.01375,0.06875 -0.0275,0.110014 -0.0275,0.123766 -0.09626,0.316287 -0.288783,0.536311 -0.577567,0.687579 -0.453805,0.302537 -0.701333,0.618824 -0.728836,0.948862 -0.01375,0.110013 -0.01375,0.206273 0,0.302535 0.0275,0.165019 0.110014,0.343791 0.233778,0.536313 0.151267,0.220025 0.26128,0.371294 0.330038,0.440051 0.220026,0.220026 0.34379,0.343791 0.385045,0.371294 0.16502,0.151268 0.385045,0.385044 0.646326,0.701332 0.742587,0.893855 1.086378,1.815213 1.017618,2.750322 -0.0275,0.412548 -0.123763,0.811344 -0.288783,1.19639 -0.165018,0.385045 -0.357541,0.701331 -0.591319,0.962613 -0.220026,0.247528 -0.412549,0.453803 -0.550064,0.591318 -0.151268,0.137515 -0.261281,0.233777 -0.343791,0.288784 l -0.165019,0.110013 c -0.151267,0.05501 -0.233778,0.08251 -0.288784,0.09625 -0.151267,0.01375 -0.247529,0.02751 -0.275033,0.02751 l -0.04125,0 c -0.110015,0 -0.192523,-0.01374 -0.261282,-0.02751 -0.0275,0 -0.06875,0 -0.110014,-0.01375 -0.04126,-0.01375 -0.08251,-0.01375 -0.09625,-0.01375 -0.01375,0 -0.0275,0 -0.04126,-0.01374 -0.01374,-0.01375 -0.0275,-0.01375 -0.05501,-0.02751 -0.01374,-0.01374 -0.0275,-0.01374 -0.04126,-0.01374 -0.206273,-0.151268 -0.330039,-0.233778 -0.35754,-0.288784 -0.220026,-0.247529 -0.302537,-0.52256 -0.261282,-0.825097 0.04126,-0.302535 0.192523,-0.536313 0.467555,-0.728835 l 0.04126,-0.05501 c 0.0275,-0.0275 0.06875,-0.06875 0.123764,-0.110014 l 0.16502,-0.16502 0.178771,-0.220025 0.165019,-0.261281 0.123764,-0.302535 0.05501,-0.330038 c 0.01374,-0.550065 -0.302536,-1.127633 -0.94886,-1.746455 -0.261281,-0.233777 -0.453804,-0.4263 -0.605072,-0.591319 -0.756339,-0.948861 -1.10013,-1.842714 -1.045122,-2.722818 z m 0.742585,-15.346796 0,-2.8465831 c 0,-0.3300386 0.123766,-0.6188224 0.357542,-0.8525998 0.23378,-0.2337773 0.522562,-0.3437902 0.83885,-0.3437902 0.330038,0 0.618821,0.1100128 0.8526,0.3437902 0.233776,0.2337774 0.34379,0.5225612 0.34379,0.8525998 l 0,2.8465831 c 0,0.3300387 -0.110014,0.5913193 -0.34379,0.8113449 C 15.60507,6.1508427 15.330039,6.247104 15,6.247104 c -0.330039,0 -0.605071,-0.1100125 -0.838849,-0.3162871 C 13.913623,5.7107913 13.789857,5.4495107 13.789857,5.119472 Z m 4.620542,15.140521 c 0.0275,-0.302534 0.123764,-0.591318 0.275032,-0.880102 0.151267,-0.288783 0.302535,-0.536313 0.481306,-0.728835 0.178771,-0.192523 0.34379,-0.371293 0.522561,-0.522561 0.16502,-0.151269 0.302536,-0.26128 0.412548,-0.34379 l 0.178771,-0.09625 c 0.0275,-0.0275 0.08251,-0.05501 0.137518,-0.110015 0.151267,-0.05501 0.330038,-0.09625 0.52256,-0.09625 0.467555,0 0.811344,0.17877 1.058875,0.52256 0.06875,0.09627 0.110012,0.192523 0.137515,0.316287 0.01375,0.0275 0.02751,0.06875 0.02751,0.110014 l 0,0.151268 c 0,0.4263 -0.206275,0.756338 -0.618823,0.962613 -0.440052,0.288783 -0.673829,0.60507 -0.715084,0.948861 -0.05501,0.467554 0.261281,1.017618 0.935109,1.650193 1.210142,1.058873 1.760207,2.214009 1.691449,3.437902 -0.0275,0.412547 -0.123764,0.811346 -0.288784,1.196389 -0.165019,0.385046 -0.371294,0.701333 -0.591319,0.962613 -0.233777,0.261281 -0.412548,0.453803 -0.536313,0.59132 -0.123765,0.137516 -0.247529,0.220026 -0.34379,0.288783 -0.220025,0.137516 -0.412548,0.206275 -0.563816,0.220027 -0.04126,0.01375 -0.110014,0.01375 -0.206274,0.01375 -0.412548,0 -0.728837,-0.137515 -0.948862,-0.412547 -0.206274,-0.233778 -0.288784,-0.508809 -0.26128,-0.811345 0.0275,-0.302535 0.178771,-0.550064 0.440051,-0.728836 0.04125,-0.01375 0.123764,-0.08251 0.24753,-0.192522 0.123765,-0.110013 0.247528,-0.288785 0.398796,-0.522561 0.137516,-0.247529 0.220026,-0.481307 0.233778,-0.728836 0.0275,-0.550063 -0.302536,-1.127632 -0.962613,-1.746455 C 19.510533,23.216597 19.070482,22.680285 18.781699,22.11647 18.45166,21.538902 18.327896,20.906327 18.410405,20.260002 Z M 21.559518,8.2685906 c 0,-0.3437903 0.110013,-0.6188225 0.316286,-0.8250965 l 2.007735,-2.0352382 c 0.24753,-0.2337773 0.522561,-0.3437904 0.838848,-0.3437904 0.330039,0 0.605071,0.1237646 0.838848,0.3575419 0.233779,0.2337774 0.357542,0.5225612 0.357542,0.8388482 0,0.3437903 -0.123763,0.632574 -0.357542,0.8525998 l -2.035238,1.9802317 c -0.247528,0.2337774 -0.52256,0.3437903 -0.838847,0.3437903 -0.316288,0 -0.59132,-0.1100126 -0.797593,-0.3437903 C 21.66953,8.8736614 21.559518,8.5848775 21.559518,8.2685906 Z m 3.162869,7.6321424 c 0,-0.302535 0.123765,-0.577566 0.357542,-0.838848 0.220027,-0.233777 0.481306,-0.343789 0.797593,-0.343789 l 2.832833,0 c 0.330038,0 0.618822,0.123765 0.852598,0.357541 0.233779,0.233777 0.371294,0.508809 0.371294,0.825096 0,0.33004 -0.123764,0.618823 -0.357541,0.852601 -0.247529,0.233778 -0.522562,0.357541 -0.866351,0.357541 l -2.832833,0 c -0.330038,0 -0.618822,-0.110012 -0.825096,-0.34379 -0.220026,-0.233777 -0.330039,-0.522561 -0.330039,-0.866352 z" /></svg>