<?xml version="1.0" encoding="UTF-8" standalone="no"?>
<svg
   xmlns:dc="http://purl.org/dc/elements/1.1/"
   xmlns:cc="http://creativecommons.org/ns#"
   xmlns:rdf="http://www.w3.org/1999/02/22-rdf-syntax-ns#"
   xmlns:svg="http://www.w3.org/2000/svg"
   xmlns="http://www.w3.org/2000/svg"
   xml:space="preserve"
   style="enable-background:new 0 0 30 30;"
   viewBox="0 0 30 30"
   y="0px"
   x="0px"
   id="Layer_1"
   version="1.1"><metadata
     id="metadata9"><rdf:RDF><cc:Work
         rdf:about=""><dc:format>image/svg+xml</dc:format><dc:type
           rdf:resource="http://purl.org/dc/dcmitype/StillImage" /></cc:Work></rdf:RDF></metadata><defs
     id="defs7" /><path
     id="path3"
     d="m 0.0432629,21.127853 3.5646275,0 0,-6.688271 0.036749,0 3.7667459,6.688271 3.6564987,0 0,-12.2373309 -3.5646269,0 0,6.5229019 -0.036749,0 -3.5646279,-6.5229019 -3.85861761,0 0,12.2373309 z m 11.9800891,0.275615 2.627535,0 4.795711,-12.8069362 -2.609161,0 -4.814085,12.8069362 z m 5.273444,-0.275615 3.803495,0 0.532857,-1.745565 3.895367,0 0.514481,1.745565 3.913741,0 -4.464972,-12.2373309 -3.693248,0 -4.501721,12.2373309 z m 5.163198,-4.391476 1.17596,-3.74837 0.05514,0 1.102462,3.74837 -2.333545,0 z" /></svg>