<?xml version="1.0" encoding="UTF-8" standalone="no"?>
<svg
   xmlns:dc="http://purl.org/dc/elements/1.1/"
   xmlns:cc="http://creativecommons.org/ns#"
   xmlns:rdf="http://www.w3.org/1999/02/22-rdf-syntax-ns#"
   xmlns:svg="http://www.w3.org/2000/svg"
   xmlns="http://www.w3.org/2000/svg"
   xml:space="preserve"
   style="enable-background:new 0 0 30 30;"
   viewBox="0 0 30 30"
   y="0px"
   x="0px"
   id="Layer_1"
   version="1.1"><metadata
     id="metadata9"><rdf:RDF><cc:Work
         rdf:about=""><dc:format>image/svg+xml</dc:format><dc:type
           rdf:resource="http://purl.org/dc/dcmitype/StillImage" /></cc:Work></rdf:RDF></metadata><defs
     id="defs7" /><path
     id="path3"
     d="m 0.00216618,13.945239 c 0,1.603815 0.47680985,3.034244 1.43042952,4.291288 0.9536196,1.257044 2.1962149,2.123972 3.7277859,2.586332 l -0.9536197,2.427396 c -0.043346,0.202282 0.028898,0.317874 0.2022829,0.317874 l 3.0775908,0 -1.4159807,6.212976 0.4045659,0 5.6639232,-8.30805 c 0.0578,-0.0578 0.0578,-0.13004 0.01445,-0.202284 -0.04335,-0.07224 -0.11559,-0.101137 -0.216732,-0.101137 l -3.1498339,0 3.5832979,-6.704235 c 0.101137,-0.202283 0.0289,-0.317873 -0.202283,-0.317873 l -4.2479418,0 c -0.1300391,0 -0.2456294,0.07224 -0.332322,0.216732 l -1.546021,4.146796 C 5.0158937,18.250976 4.1634155,17.687474 3.4843227,16.834995 2.8052299,15.982517 2.472908,15.014449 2.472908,13.93079 c 0,-1.19925 0.4045658,-2.239562 1.2281464,-3.135386 C 4.5246351,9.9140274 5.5360498,9.3938719 6.7352988,9.249384 L 7.5010844,9.1482425 c 0.1878341,0 0.2889756,-0.086692 0.2889756,-0.2600781 L 7.8912016,8.1512766 C 8.0501381,6.5908081 8.7003333,5.2759689 9.8706842,4.2212076 11.041035,3.1664465 12.413671,2.6318416 13.988588,2.6318416 c 1.574917,0 2.94755,0.5346049 4.117903,1.589366 1.1848,1.0547613 1.849444,2.3696005 2.022829,3.930069 l 0.101137,0.8380294 c 0,0.1589366 0.0867,0.2456293 0.260077,0.2456293 l 2.311807,0 c 1.314839,0 2.427395,0.462361 3.352117,1.3726337 0.924722,0.910274 1.401532,2.02283 1.401532,3.294323 0,1.228147 -0.433463,2.297357 -1.285942,3.193181 -0.852478,0.895825 -1.921688,1.401532 -3.178732,1.502674 -0.187834,0 -0.288975,0.0867 -0.288975,0.260079 l 0,1.979482 c 0,0.158937 0.101148,0.245629 0.288975,0.245629 1.921688,-0.05779 3.554401,-0.794682 4.898137,-2.181766 1.343737,-1.387083 2.008381,-3.048693 2.008381,-4.98483 0,-1.300391 -0.317873,-2.499639 -0.968068,-3.597747 C 28.394024,9.2204866 27.51265,8.3535596 26.414541,7.7178132 25.301985,7.0820668 24.102736,6.7641935 22.802346,6.7641935 l -0.447913,0 C 21.877623,4.8425055 20.851759,3.267588 19.305738,2.0538903 17.75972,0.84019254 15.98252,0.21889495 13.988588,0.21889495 c -2.037278,0 -3.857826,0.63574635 -5.4327425,1.89279055 C 6.9809282,3.3687295 5.9695134,4.9869932 5.521601,6.9664764 3.9177861,7.3421447 2.6029471,8.1657253 1.5626346,9.4661158 0.52232233,10.766506 0.00216618,12.283628 0.00216618,13.945239 Z M 11.763474,27.975007 c 0,0.563502 0.274528,0.939171 0.83803,1.112556 0.01445,0 0.07224,0 0.158937,0.01445 0.0867,0.01445 0.158936,0.01445 0.202283,0.01445 0.24563,0 0.476809,-0.07224 0.707991,-0.216733 0.231179,-0.144487 0.390117,-0.375667 0.462361,-0.69354 L 17.38405,15.650197 c 0.0867,-0.34677 0.0578,-0.650195 -0.101147,-0.93917 -0.158936,-0.274527 -0.390117,-0.462362 -0.722438,-0.563503 -0.245629,-0.0289 -0.375669,-0.04335 -0.375669,-0.04335 -0.231181,0 -0.462361,0.07224 -0.679093,0.21673 -0.216732,0.144489 -0.375668,0.361221 -0.447912,0.650197 l -3.265425,12.599338 c -0.01445,0.144487 -0.0289,0.274526 -0.0289,0.404566 z m 6.010694,-4.421328 c 0,0.187835 0.04335,0.375668 0.144488,0.549054 0.202282,0.317873 0.447912,0.534605 0.736888,0.635746 0.158937,0.04335 0.303424,0.07224 0.433464,0.07224 0.130039,0 0.288974,-0.0289 0.46236,-0.11559 0.303425,-0.130039 0.505708,-0.404566 0.60685,-0.823581 l 2.080624,-8.19246 c 0.04335,-0.202282 0.07224,-0.332321 0.07224,-0.390116 0,-0.216732 -0.07224,-0.433464 -0.23118,-0.650196 -0.158938,-0.216732 -0.375669,-0.375668 -0.664644,-0.462362 -0.24563,-0.0289 -0.375669,-0.04335 -0.375669,-0.04335 -0.245629,0 -0.476811,0.07224 -0.679092,0.216731 -0.202283,0.144488 -0.346771,0.36122 -0.433464,0.650196 l -2.109522,8.235806 c 0,0.02889 0,0.07224 -0.01445,0.158937 -0.0289,0.07224 -0.0289,0.11559 -0.0289,0.158936 z" /></svg>