<?xml version="1.0" encoding="UTF-8" standalone="no"?>
<svg
   xmlns:dc="http://purl.org/dc/elements/1.1/"
   xmlns:cc="http://creativecommons.org/ns#"
   xmlns:rdf="http://www.w3.org/1999/02/22-rdf-syntax-ns#"
   xmlns:svg="http://www.w3.org/2000/svg"
   xmlns="http://www.w3.org/2000/svg"
   xmlns:sodipodi="http://sodipodi.sourceforge.net/DTD/sodipodi-0.dtd"
   xmlns:inkscape="http://www.inkscape.org/namespaces/inkscape"
   xml:space="preserve"
   style="enable-background:new 0 0 30 30;"
   viewBox="0 0 30 30"
   y="0px"
   x="0px"
   id="Layer_1"
   version="1.1"
   inkscape:version="0.91 r13725"
   sodipodi:docname="wi-3.svg"><sodipodi:namedview
     pagecolor="#ffffff"
     bordercolor="#666666"
     borderopacity="1"
     objecttolerance="10"
     gridtolerance="10"
     guidetolerance="10"
     inkscape:pageopacity="0"
     inkscape:pageshadow="2"
     inkscape:window-width="1024"
     inkscape:window-height="715"
     id="namedview6"
     showgrid="false"
     inkscape:zoom="5.5625733"
     inkscape:cx="29.187174"
     inkscape:cy="20.331691"
     inkscape:window-x="0"
     inkscape:window-y="0"
     inkscape:window-maximized="1"
     inkscape:current-layer="Layer_1" /><metadata
     id="metadata9"><rdf:RDF><cc:Work
         rdf:about=""><dc:format>image/svg+xml</dc:format><dc:type
           rdf:resource="http://purl.org/dc/dcmitype/StillImage" /></cc:Work></rdf:RDF></metadata><defs
     id="defs7" /><path
     id="path3"
     d="m 11.763474,27.975007 c 0,0.563502 0.274528,0.939171 0.83803,1.112556 0.01445,0 0.07224,0 0.158937,0.01445 0.0867,0.01445 0.158936,0.01445 0.202283,0.01445 0.24563,0 0.476809,-0.07224 0.707991,-0.216733 0.231179,-0.144487 0.390117,-0.375667 0.462361,-0.69354 L 17.38405,15.650197 c 0.0867,-0.34677 0.0578,-0.650195 -0.101147,-0.93917 -0.158936,-0.274527 -0.390117,-0.462362 -0.722438,-0.563503 -0.245629,-0.0289 -0.375669,-0.04335 -0.375669,-0.04335 -0.231181,0 -0.462361,0.07224 -0.679093,0.21673 -0.216732,0.144489 -0.375668,0.361221 -0.447912,0.650197 l -3.265425,12.599338 c -0.01445,0.144487 -0.0289,0.274526 -0.02889,0.404568 z m 6.010694,-4.421328 c 0,0.187835 0.04335,0.375668 0.144488,0.549054 0.202282,0.317873 0.447912,0.534605 0.736888,0.635746 0.158937,0.04335 0.303424,0.07224 0.433464,0.07224 0.130039,0 0.288974,-0.0289 0.46236,-0.11559 0.303425,-0.130039 0.505708,-0.404566 0.60685,-0.823581 l 2.080624,-8.19246 c 0.04335,-0.202282 0.07224,-0.332321 0.07224,-0.390116 0,-0.216732 -0.07224,-0.433464 -0.23118,-0.650196 -0.158938,-0.216732 -0.375669,-0.375668 -0.664644,-0.462362 -0.24563,-0.0289 -0.375669,-0.04335 -0.375669,-0.04335 -0.245629,0 -0.476811,0.07224 -0.679092,0.216731 -0.202283,0.144488 -0.346771,0.36122 -0.433464,0.650196 l -2.109522,8.235806 c 0,0.02889 0,0.07224 -0.01445,0.158937 -0.0289,0.07224 -0.0289,0.11559 -0.02889,0.158945 z"
     inkscape:connector-curvature="0"
     sodipodi:nodetypes="ccssccccccsccccccscccssccccccc" /><path
     inkscape:connector-curvature="0"
     d="m 5.7962088,29.109543 0.367173,0 6.5111912,-9.607678 c 0.04895,-0.04895 0.0612,-0.110151 0.02448,-0.171346 -0.03672,-0.0612 -0.08568,-0.08567 -0.171347,-0.08567 l -2.6681202,0 2.8149892,-5.152652 c 0.08567,-0.171348 0.03672,-0.26926 -0.171347,-0.26926 l -3.5982902,0 c -0.09791,0 -0.183586,0.0612 -0.26926,0.171347 l -2.643642,7.000754 c -0.02448,0.171347 0.02448,0.25702 0.171348,0.25702 l 2.65588,0 z"
     id="path3-3-6"
     sodipodi:nodetypes="cccssccssccscc" /><path
     id="path3-7"
     d="m 0.05119078,13.713719 c 0,1.601658 0.476169,3.030163 1.42850602,4.285517 0.952336,1.255352 1.342396,1.401455 2.767591,2.076675 0.195939,0.07304 0.450994,0.14624 0.58711,-0.189475 0.260317,-0.64204 0.27082,-0.597276 0.540242,-1.366076 0.08538,-0.243622 -0.09108,-0.398085 -0.295162,-0.490959 -0.799768,-0.50692 -0.887064,-0.564052 -1.565244,-1.415383 -0.678179,-0.851332 -1.010054,-1.818098 -1.010054,-2.900299 0,-1.197635 0.404022,-2.236548 1.212065,-3.116738 0.808044,-0.8801898 1.818098,-1.3852168 3.030163,-1.5295108 l 0.750326,-0.101005 c 0.187581,0 0.288587,-0.08658 0.288587,-0.245298 l 0.101005,-0.750326 c 0.144294,-1.558369 0.793614,-2.87144 1.962391,-3.924782 1.1687772,-1.053342 2.5395652,-1.587228 4.1123642,-1.587228 1.572797,0 2.943586,0.533886 4.112362,1.587228 1.183206,1.053342 1.846956,2.366413 2.020108,3.924782 l 0.08659,0.836901 c 0,0.173152 0.08657,0.259728 0.274158,0.259728 l 2.323124,0 c 1.313071,0 2.424131,0.461739 3.347609,1.3707888 0.923478,0.909048 1.385218,2.005679 1.385218,3.289891 0,1.226493 -0.432882,2.294264 -1.284213,3.188885 -0.851332,0.894619 -1.904674,1.385217 -3.160027,1.486222 -0.187582,0 -0.288587,0.08658 -0.288587,0.274158 l 0,1.97682 c 0,0.158723 0.100999,0.245298 0.288587,0.245298 0.937908,-0.02886 1.832527,-0.245298 2.683858,-0.63489 0.851333,-0.389594 1.587229,-0.909049 2.193261,-1.54394 0.606032,-0.634892 1.096631,-1.385218 1.457363,-2.265408 0.360735,-0.865761 0.548317,-1.77481 0.548317,-2.712716 0,-1.298641 -0.317447,-2.496277 -0.966767,-3.592908 C 28.332708,9.0530412 27.466947,8.1872812 26.370318,7.5523902 25.273687,6.9174992 24.076051,6.6000532 22.79184,6.6000532 l -0.46174,0 c -0.476169,-1.919103 -1.486223,-3.491902 -3.044591,-4.703967 -1.55837,-1.21206488 -3.31875,-1.83252688 -5.31,-1.83252688 -2.034538,0 -3.852635,0.634892 -5.4254332,1.89024488 -1.572799,1.255353 -2.582853,2.87144 -3.030163,4.84826 -1.587228,0.375163 -2.900298,1.197636 -3.939211,2.496276 C 0.54178878,10.596981 0.05119078,12.054344 0.05119078,13.713719 Z"
     inkscape:connector-curvature="0"
     sodipodi:nodetypes="sscsscsssccccsscccssssscsscsscsssscssscss" /></svg>