<?xml version="1.0" encoding="UTF-8" standalone="no"?>
<svg
   xmlns:dc="http://purl.org/dc/elements/1.1/"
   xmlns:cc="http://creativecommons.org/ns#"
   xmlns:rdf="http://www.w3.org/1999/02/22-rdf-syntax-ns#"
   xmlns:svg="http://www.w3.org/2000/svg"
   xmlns="http://www.w3.org/2000/svg"
   xmlns:sodipodi="http://sodipodi.sourceforge.net/DTD/sodipodi-0.dtd"
   xmlns:inkscape="http://www.inkscape.org/namespaces/inkscape"
   xml:space="preserve"
   style="enable-background:new 0 0 30 30;"
   viewBox="0 0 30 30"
   y="0px"
   x="0px"
   id="Layer_1"
   version="1.1"
   inkscape:version="0.91 r13725"
   sodipodi:docname="wi-47.svg"><sodipodi:namedview
     pagecolor="#ffffff"
     bordercolor="#666666"
     borderopacity="1"
     objecttolerance="10"
     gridtolerance="10"
     guidetolerance="10"
     inkscape:pageopacity="0"
     inkscape:pageshadow="2"
     inkscape:window-width="1024"
     inkscape:window-height="715"
     id="namedview6"
     showgrid="false"
     inkscape:zoom="5.5625732"
     inkscape:cx="9.4698177"
     inkscape:cy="21.052386"
     inkscape:window-x="0"
     inkscape:window-y="0"
     inkscape:window-maximized="1"
     inkscape:current-layer="Layer_1" /><metadata
     id="metadata9"><rdf:RDF><cc:Work
         rdf:about=""><dc:format>image/svg+xml</dc:format><dc:type
           rdf:resource="http://purl.org/dc/dcmitype/StillImage" /><dc:title /></cc:Work></rdf:RDF></metadata><defs
     id="defs7" /><path
     id="path3"
     d="m 0.05119069,14.112593 c 0,1.601658 0.47616842,3.030163 1.42850531,4.285517 0.9523368,1.255352 1.3423967,1.401455 2.7675915,2.076675 0.195939,0.07304 0.4509935,0.14624 0.5871098,-0.189475 C 5.0947139,19.64327 5.1052169,19.688034 5.3746395,18.919234 5.4600158,18.675612 5.2835584,18.521149 5.0794772,18.428275 4.2797096,17.921355 4.192413,17.864223 3.5142337,17.012892 2.8360545,16.16156 2.5041795,15.194794 2.5041795,14.112593 c 0,-1.197635 0.4040217,-2.236548 1.2120651,-3.116738 C 4.524288,10.115665 5.5343422,9.6106382 6.7464072,9.4663447 L 7.4967333,9.3653395 c 0.1875814,0 0.2885868,-0.086576 0.2885868,-0.2452989 L 7.8863256,8.3697144 C 8.0306191,6.811345 8.6799397,5.4982745 9.8487164,4.4449323 11.017494,3.39159 12.388282,2.8577042 13.961081,2.8577042 c 1.572797,0 2.943586,0.5338858 4.112362,1.5872281 1.183206,1.0533422 1.846956,2.3664127 2.020108,3.9247821 l 0.08659,0.836902 c 0,0.1731522 0.08657,0.2597283 0.274158,0.2597283 l 2.323124,0 c 1.313071,0 2.424131,0.4617386 3.347609,1.3707883 0.923478,0.909048 1.385218,2.005679 1.385218,3.289891 0,1.226493 -0.432882,2.294264 -1.284213,3.188885 -0.851332,0.894619 -1.904674,1.385217 -3.160027,1.486222 -0.187582,0 -0.288587,0.08658 -0.288587,0.274158 l 0,1.97682 c 0,0.158723 0.100999,0.245298 0.288587,0.245298 0.937908,-0.02886 1.832527,-0.245298 2.683858,-0.63489 0.851333,-0.389594 1.587229,-0.909049 2.193261,-1.54394 0.606032,-0.634892 1.096631,-1.385218 1.457363,-2.265408 0.360735,-0.865761 0.548317,-1.77481 0.548317,-2.712716 0,-1.298641 -0.317447,-2.496277 -0.966767,-3.592908 C 28.332708,9.4519154 27.466947,8.5861546 26.370318,7.9512633 25.273687,7.3163722 24.076051,6.9989266 22.79184,6.9989266 l -0.46174,0 C 21.853931,5.0798235 20.843877,3.5070248 19.285509,2.2949597 c -1.55837,-1.212065 -3.31875,-1.83252703 -5.31,-1.83252703 -2.034538,0 -3.852635,0.63489133 -5.4254335,1.89024443 C 6.9772768,3.6080302 5.9672226,5.2241169 5.5199128,7.2009373 3.9326848,7.5761003 2.6196143,8.3985731 1.5807014,9.6972143 0.54178842,10.995855 0.05119069,12.453218 0.05119069,14.112593 Z M 11.825537,28.339929 c 0,0.230869 0.07215,0.447309 0.216439,0.66375 0.144295,0.21644 0.375164,0.375163 0.663751,0.461738 0.202011,0.04329 0.317445,0.07215 0.360734,0.07215 0.129863,0 0.303016,-0.04329 0.548314,-0.144293 0.303016,-0.129864 0.505027,-0.389591 0.606033,-0.750326 l 0.404021,-1.515081 c 0.08658,-0.317446 0.05772,-0.620461 -0.115434,-0.909049 -0.173152,-0.288586 -0.418452,-0.476169 -0.764756,-0.577174 -0.317445,-0.08659 -0.620462,-0.05772 -0.909048,0.115435 -0.288586,0.173153 -0.490598,0.418452 -0.591603,0.764755 l -0.389592,1.442935 c -0.01443,0.245299 -0.02886,0.375163 -0.02886,0.37516 z m 1.933532,-6.882798 c 0,0.20201 0.07215,0.418451 0.21644,0.63489 0.144293,0.216441 0.360734,0.375164 0.64932,0.476169 0.317446,0.100999 0.634892,0.08658 0.923479,-0.07215 0.288586,-0.158723 0.476168,-0.404022 0.577174,-0.750326 l 0.43288,-1.500652 c 0.08659,-0.317446 0.04329,-0.620461 -0.115435,-0.909049 -0.173152,-0.288586 -0.432881,-0.490598 -0.764756,-0.591603 -0.331874,-0.08659 -0.634889,-0.05772 -0.937906,0.115434 -0.303017,0.173152 -0.490599,0.418452 -0.591604,0.750327 l -0.346304,1.457367 c -0.02886,0.245299 -0.04329,0.375164 -0.04329,0.389593 z m 4.069075,2.380842 c 0,0.245298 0.07215,0.490597 0.23087,0.735896 0.158723,0.245299 0.389591,0.404021 0.678179,0.505027 0.02886,0 0.08657,0.01443 0.173152,0.02886 0.07215,0.01443 0.129865,0.02887 0.173152,0.02887 0.187582,0 0.375164,-0.02887 0.548316,-0.115434 0.274157,-0.10101 0.476167,-0.375164 0.591603,-0.822474 l 0.360734,-1.457364 c 0.100999,-0.331875 0.07215,-0.649321 -0.08658,-0.952336 -0.158723,-0.303017 -0.404022,-0.505027 -0.721466,-0.606034 -0.360735,-0.08658 -0.69261,-0.04329 -0.981196,0.115435 -0.288588,0.173153 -0.476169,0.432881 -0.533886,0.764756 l -0.389592,1.486223 c -0.02886,0.08659 -0.04329,0.187581 -0.04329,0.288587 z m 1.962392,-6.911657 c -0.01443,0.230869 0.05772,0.44731 0.216439,0.678179 0.158723,0.230869 0.389593,0.404021 0.707038,0.548315 0.115435,0.05772 0.23087,0.08659 0.375163,0.08659 0.158723,0 0.317446,-0.04329 0.490598,-0.115434 0.303017,-0.144295 0.505027,-0.418452 0.634892,-0.822474 l 0.418451,-1.486223 c 0.02886,-0.18758 0.04329,-0.288586 0.04329,-0.317445 0,-0.245299 -0.07215,-0.476169 -0.230868,-0.707038 -0.158723,-0.230869 -0.389593,-0.389593 -0.707039,-0.476168 -0.02886,0 -0.08658,-0.01443 -0.158723,-0.02886 -0.08659,-0.04329 -0.144293,-0.04329 -0.187582,-0.04329 -0.245298,0 -0.476168,0.07215 -0.707037,0.21644 -0.230869,0.144294 -0.389592,0.375163 -0.476169,0.692608 l -0.389592,1.457364 c -0.01443,0.115435 -0.02886,0.216441 -0.02886,0.317447 z"
     inkscape:connector-curvature="0"
     sodipodi:nodetypes="sscsscsssccccsscccssssscsscsscsssscssscsscccscccscsccccsccccccsccccsccscccccccccccscscccscccsccccc" /><path
     inkscape:connector-curvature="0"
     d="m 5.5897336,29.55217 0.367173,0 6.5111914,-9.607678 c 0.04895,-0.04895 0.0612,-0.110151 0.02448,-0.171346 -0.03672,-0.0612 -0.08568,-0.08567 -0.171347,-0.08567 l -2.6681204,0 2.8149894,-5.152652 c 0.08567,-0.171348 0.03672,-0.26926 -0.171347,-0.26926 l -3.5982904,0 c -0.09791,0 -0.183586,0.0612 -0.26926,0.171347 l -2.643642,7.000754 c -0.02448,0.171347 0.02448,0.25702 0.171348,0.25702 l 2.65588,0 z"
     id="path3-3"
     sodipodi:nodetypes="cccssccssccscc" /></svg>