<?xml version="1.0" encoding="UTF-8" standalone="no"?>
<svg
   xmlns:dc="http://purl.org/dc/elements/1.1/"
   xmlns:cc="http://creativecommons.org/ns#"
   xmlns:rdf="http://www.w3.org/1999/02/22-rdf-syntax-ns#"
   xmlns:svg="http://www.w3.org/2000/svg"
   xmlns="http://www.w3.org/2000/svg"
   xml:space="preserve"
   style="enable-background:new 0 0 30 30;"
   viewBox="0 0 30 30"
   y="0px"
   x="0px"
   id="Layer_1"
   version="1.1"><metadata
     id="metadata9"><rdf:RDF><cc:Work
         rdf:about=""><dc:format>image/svg+xml</dc:format><dc:type
           rdf:resource="http://purl.org/dc/dcmitype/StillImage" /></cc:Work></rdf:RDF></metadata><defs
     id="defs7" /><path
     id="path3"
     d="m 0.02312931,14.291293 c 0,-1.677757 0.50621954,-3.153025 1.53312229,-4.4547342 C 2.5831545,8.5348522 3.8993258,7.6959734 5.5192288,7.2909975 5.9675948,5.3239725 6.9800342,3.7040694 8.5565468,2.4312884 10.13306,1.1585076 11.940987,0.5365805 13.980329,0.5365805 c 1.995951,0 3.760489,0.6219271 5.322538,1.8513177 1.56205,1.2293907 2.574491,2.8203669 3.037319,4.7584653 l 0.462828,0 c 1.287244,0 2.48771,0.3181952 3.586929,0.9545856 1.09922,0.6363904 1.981488,1.5041954 2.617879,2.6034159 0.63639,1.099218 0.969049,2.299684 0.969049,3.586928 0,1.909169 -0.665316,3.572465 -2.010415,4.946487 -1.330636,1.388489 -2.965001,2.111661 -4.888636,2.169515 -0.188023,0 -0.289269,-0.08678 -0.289269,-0.24588 l 0,-1.923635 c 0,-0.173559 0.101239,-0.26034 0.289269,-0.26034 1.229391,-0.05785 2.285221,-0.549609 3.153025,-1.475269 0.867806,-0.925659 1.301708,-1.99595 1.301708,-3.225343 0,-1.287243 -0.46283,-2.386464 -1.402951,-3.326586 C 25.189479,10.01012 24.075796,9.5472911 22.774089,9.5472911 l -2.328611,0 c -0.173562,0 -0.260342,-0.086783 -0.260342,-0.2458781 L 20.069429,8.4625341 C 19.910332,6.9004851 19.230551,5.5843139 18.059014,4.5284843 16.873012,3.4726546 15.513452,2.9375081 13.93694,2.9375081 c -1.590978,0 -2.965002,0.5351465 -4.1365395,1.6054396 C 8.6288639,5.6132408 7.9635467,6.929412 7.8189125,8.5203886 l -0.08678,0.723171 c 0,0.1735601 -0.1012441,0.2748053 -0.2892684,0.2748053 L 6.6763024,9.619609 c -1.2004642,0.1012446 -2.2129036,0.593 -3.0373185,1.504196 -0.8244149,0.911196 -1.2293908,1.952562 -1.2293908,3.167489 0,1.22939 0.4339026,2.299684 1.3017079,3.225342 0.8678051,0.925659 1.9236347,1.402952 3.1530254,1.47527 0.1590977,0 0.2458783,0.08678 0.2458783,0.260341 l 0,1.923632 c 0,0.1591 -0.08678,0.245882 -0.2458783,0.245882 C 4.9262285,21.363906 3.291862,20.640733 1.9467641,19.252245 0.68844656,17.863758 0.02312931,16.200462 0.02312931,14.291293 Z m 9.19873489,5.886611 c 0,-0.318195 0.1157071,-0.607463 0.3471221,-0.83888 0.2314142,-0.231413 0.5062197,-0.34712 0.8533407,-0.34712 0.332659,0 0.621928,0.115707 0.853343,0.34712 0.231415,0.231417 0.347122,0.520685 0.347122,0.83888 0,0.347122 -0.115707,0.63639 -0.347122,0.867805 -0.231415,0.245877 -0.50622,0.361586 -0.853343,0.361586 -0.332659,0 -0.6219265,-0.115707 -0.8533407,-0.361586 C 9.3375715,20.814294 9.2218642,20.525026 9.2218642,20.177904 Z m 0,5.250222 c 0,-0.347122 0.1157071,-0.63639 0.3471221,-0.867806 0.2314142,-0.216952 0.5062197,-0.332659 0.8388787,-0.332659 0.332658,0 0.621927,0.115706 0.853342,0.332659 0.231415,0.231415 0.347122,0.50622 0.347122,0.853341 0,0.347122 -0.115707,0.621928 -0.347122,0.853343 -0.231415,0.231414 -0.506221,0.332657 -0.853342,0.332657 -0.332659,0 -0.6219281,-0.115707 -0.8533422,-0.332657 -0.2169513,-0.216952 -0.3326586,-0.50622 -0.3326586,-0.838878 z m 4.6138298,-2.458781 c 0,-0.332659 0.115708,-0.63639 0.361587,-0.896734 0.231414,-0.231413 0.506219,-0.347121 0.824415,-0.347121 0.332657,0 0.621927,0.130171 0.867804,0.376049 0.245879,0.245879 0.376048,0.535147 0.376048,0.867806 0,0.332657 -0.115706,0.621925 -0.361585,0.867806 -0.245877,0.245877 -0.535146,0.361583 -0.882267,0.361583 -0.332659,0 -0.607465,-0.115706 -0.83888,-0.361583 -0.231413,-0.24588 -0.347122,-0.535148 -0.347122,-0.867806 z m 0,-5.235759 c 0,-0.332658 0.115708,-0.621927 0.361587,-0.867805 0.260341,-0.231415 0.535146,-0.347121 0.824415,-0.347121 0.347121,0 0.63639,0.115705 0.882267,0.361585 0.245879,0.245879 0.361585,0.520683 0.361585,0.867804 0,0.332659 -0.115706,0.621928 -0.361585,0.853343 -0.245877,0.231414 -0.535146,0.347121 -0.882267,0.347121 -0.332659,0 -0.607465,-0.115707 -0.83888,-0.347121 -0.231413,-0.245879 -0.347122,-0.535147 -0.347122,-0.867807 z m 0,10.52937 c 0,-0.332659 0.115708,-0.621928 0.361587,-0.882268 0.231414,-0.231416 0.506219,-0.347123 0.824415,-0.347123 0.347121,0 0.63639,0.115707 0.882267,0.361586 0.245879,0.245877 0.361585,0.535146 0.361585,0.867805 0,0.332658 -0.115706,0.621927 -0.361585,0.853341 -0.245877,0.231417 -0.535146,0.347123 -0.882267,0.347123 -0.332659,0 -0.607465,-0.115706 -0.83888,-0.347123 -0.231413,-0.245876 -0.347122,-0.520683 -0.347122,-0.853341 z m 4.657223,-8.085051 c 0,-0.318195 0.115707,-0.593002 0.361583,-0.83888 0.245879,-0.245878 0.535148,-0.361584 0.867807,-0.361584 0.332659,0 0.621927,0.115706 0.853342,0.347121 0.231413,0.231416 0.347123,0.520685 0.347123,0.838878 0,0.347124 -0.115709,0.636392 -0.347123,0.867805 -0.231415,0.24588 -0.50622,0.361587 -0.853342,0.361587 -0.347121,0 -0.63639,-0.115706 -0.867807,-0.361587 -0.231413,-0.231413 -0.361583,-0.520681 -0.361583,-0.85334 z m 0,5.250222 c 0,-0.318196 0.115707,-0.607464 0.361583,-0.867806 0.231417,-0.216952 0.520686,-0.332659 0.867807,-0.332659 0.347122,0 0.621927,0.115706 0.853342,0.332659 0.231413,0.216952 0.33266,0.50622 0.33266,0.853341 0,0.347122 -0.115709,0.621928 -0.33266,0.853342 -0.231415,0.231415 -0.50622,0.332658 -0.853342,0.332658 -0.347121,0 -0.63639,-0.115707 -0.867807,-0.347121 -0.231413,-0.216952 -0.361583,-0.491757 -0.361583,-0.824415 z" /></svg>