<?xml version="1.0" encoding="UTF-8" standalone="no"?>
<svg
   xmlns:dc="http://purl.org/dc/elements/1.1/"
   xmlns:cc="http://creativecommons.org/ns#"
   xmlns:rdf="http://www.w3.org/1999/02/22-rdf-syntax-ns#"
   xmlns:svg="http://www.w3.org/2000/svg"
   xmlns="http://www.w3.org/2000/svg"
   xml:space="preserve"
   style="enable-background:new 0 0 30 30;"
   viewBox="0 0 30 30"
   y="0px"
   x="0px"
   id="Layer_1"
   version="1.1"><metadata
     id="metadata9"><rdf:RDF><cc:Work
         rdf:about=""><dc:format>image/svg+xml</dc:format><dc:type
           rdf:resource="http://purl.org/dc/dcmitype/StillImage" /></cc:Work></rdf:RDF></metadata><defs
     id="defs7" /><path
     id="path3"
     d="m 0.04634115,14.122911 c 0,-1.667908 0.51762668,-3.134517 1.56725845,-4.4285843 C 2.648853,8.4002607 3.9860551,7.5663066 5.6108276,7.206843 6.0278046,5.2226077 7.0199224,3.6122138 8.5871809,2.3325256 10.154439,1.0528374 11.951754,0.42018284 13.993504,0.42018284 c 1.998614,0 3.78155,0.61827616 5.348808,1.84045016 1.55288,1.2221741 2.573756,2.8038111 3.048247,4.744911 l 0.48887,0 c 1.294065,0 2.487482,0.316327 3.565871,0.9489824 1.092768,0.6326555 1.941101,1.4953659 2.573754,2.5881336 0.618277,1.092767 0.934605,2.286183 0.934605,3.580251 0,1.926721 -0.661412,3.565872 -1.969858,4.94621 -1.322823,1.380337 -2.933218,2.099262 -4.845559,2.156777 -0.172543,0 -0.258813,-0.08627 -0.258813,-0.244434 l 0,-1.926723 c 0,-0.158161 0.08627,-0.244433 0.258813,-0.244433 1.207795,-0.100639 2.257426,-0.603899 3.120136,-1.509745 0.862713,-0.905846 1.294068,-1.969857 1.294068,-3.192032 0,-1.279688 -0.460112,-2.386834 -1.380337,-3.321436 -0.920226,-0.9202253 -2.012993,-1.3947173 -3.29268,-1.3947173 l -2.343699,0 c -0.172542,0 -0.273193,-0.086268 -0.316328,-0.2588121 L 20.118761,8.313989 C 20.018103,7.2931148 19.687396,6.3585108 19.112256,5.5245567 18.537115,4.6906026 17.803811,4.0435693 16.912343,3.5690784 16.020875,3.0945872 15.043136,2.8645309 14.007882,2.8645309 c -1.581638,0 -2.947596,0.5176267 -4.1122562,1.5672585 C 8.730966,5.4814212 8.0695543,6.7898663 7.925769,8.3427463 L 7.8251196,9.1191859 c 0,0.1294066 -0.071892,0.2012998 -0.2300564,0.2012998 L 6.8186234,9.4786495 C 5.6108278,9.5792917 4.5899531,10.068168 3.784756,10.959636 c -0.8195755,0.891468 -1.222174,1.9411 -1.222174,3.163275 0,1.25093 0.4313555,2.329318 1.2796882,3.235166 0.8483324,0.905847 1.8835858,1.394716 3.1201384,1.466608 0.1725422,0 0.2588132,0.08627 0.2588132,0.244436 l 0,1.926722 c 0,0.158163 -0.086272,0.244434 -0.2588132,0.244434 C 6.0134261,21.197141 5.121958,20.981464 4.259247,20.593244 3.3965359,20.205025 2.6632314,19.687397 2.0593337,19.054741 1.4410575,18.422088 0.95218784,17.688783 0.59272488,16.826072 0.23326187,15.963361 0.04634115,15.071893 0.04634115,14.122911 Z m 7.79315675,9.734256 c 0,-0.04313 0.014378,-0.115031 0.028757,-0.186921 0.014377,-0.07189 0.028757,-0.129406 0.028757,-0.158163 l 0.3882199,-1.480988 c 0.1006495,-0.316328 0.2875706,-0.575141 0.5751408,-0.733304 0.2875704,-0.172542 0.5895193,-0.201299 0.9202248,-0.100639 0.3307066,0.100639 0.5751406,0.28757 0.7476836,0.57514 0.172542,0.287571 0.201299,0.589519 0.100649,0.920225 l -0.345084,1.452232 c -0.186921,0.632652 -0.5463841,0.948981 -1.0927675,0.948981 -0.043134,0 -0.071892,0 -0.1294067,0 -0.043135,0 -0.1006495,-0.01438 -0.1581636,-0.01438 C 8.8459932,25.06497 8.8028587,25.06497 8.7597229,25.06497 8.4577741,24.978692 8.2277179,24.80615 8.0695543,24.576093 7.9113905,24.346036 7.8394979,24.087223 7.8394979,23.857167 Z m 1.8979643,-6.930446 c 0,-0.02876 0,-0.08627 0.014374,-0.158164 0.014374,-0.07189 0.014374,-0.115031 0.014374,-0.129406 l 0.4313558,-1.509744 c 0.08627,-0.273192 0.244434,-0.48887 0.460112,-0.647034 0.215678,-0.143785 0.445734,-0.215679 0.675791,-0.215679 0.02876,0 0.07189,0 0.115031,0 0.04313,0 0.08627,0.01438 0.129407,0.01438 0.04314,0.01438 0.08627,0.01438 0.115031,0.01438 0.330706,0.10064 0.57514,0.28757 0.733303,0.575141 0.172544,0.287571 0.201299,0.589519 0.100639,0.920225 l -0.345083,1.437852 c -0.10064,0.4026 -0.287571,0.67579 -0.575141,0.848332 -0.287572,0.172544 -0.603899,0.172544 -0.934605,0.02876 C 10.355725,18.019487 10.125669,17.861323 9.9675045,17.616888 9.8093418,17.372455 9.737449,17.156776 9.737449,16.92672 Z M 11.50602,28.357643 c 0,-0.04313 0.01438,-0.100639 0.02876,-0.18692 0.01438,-0.08627 0.02876,-0.129406 0.02876,-0.172543 l 0.416976,-1.423472 c 0.08627,-0.345085 0.28757,-0.603898 0.575141,-0.77644 0.28757,-0.172543 0.603897,-0.215679 0.934604,-0.115032 0.330705,0.100639 0.560761,0.287571 0.733304,0.58952 0.172542,0.301949 0.18692,0.603898 0.100639,0.934603 l -0.359463,1.495369 c -0.158164,0.589518 -0.532007,0.877089 -1.150282,0.877089 -0.07189,0 -0.186921,-0.01438 -0.345083,-0.0575 -0.316328,-0.05751 -0.546385,-0.201298 -0.70455,-0.431354 -0.17254,-0.230057 -0.258812,-0.474493 -0.258812,-0.733306 z m 1.926721,-6.858552 c 0,-0.08627 0.01438,-0.2013 0.05751,-0.359463 l 0.388219,-1.480987 c 0.100639,-0.330706 0.287572,-0.575143 0.58952,-0.733306 0.28757,-0.172542 0.603898,-0.201299 0.934604,-0.100639 0.330705,0.08627 0.560761,0.273193 0.733304,0.560763 0.158164,0.28757 0.186922,0.589519 0.08627,0.934603 l -0.345086,1.423473 c -0.186919,0.647034 -0.532003,0.97774 -1.035252,0.97774 -0.0575,0 -0.215677,-0.02876 -0.445733,-0.08627 -0.316328,-0.0575 -0.546385,-0.2013 -0.704548,-0.431357 -0.172542,-0.215676 -0.258814,-0.460112 -0.258814,-0.704546 z m 4.054742,2.41559 c 0,-0.100639 0.01438,-0.215678 0.04314,-0.345084 l 0.402599,-1.423474 c 0.100639,-0.345084 0.287569,-0.603897 0.58952,-0.776439 0.301948,-0.172543 0.589518,-0.215678 0.905845,-0.129407 0.330707,0.100639 0.58952,0.28757 0.762062,0.589519 0.172543,0.287571 0.215678,0.58952 0.129406,0.905848 l -0.416977,1.524122 c -0.143784,0.589519 -0.517626,0.877089 -1.135903,0.877089 -0.129406,0 -0.258813,-0.01438 -0.373841,-0.04313 -0.28757,-0.0575 -0.503248,-0.201299 -0.661411,-0.431356 -0.143786,-0.258813 -0.230058,-0.503248 -0.244436,-0.747683 z m 1.984235,-6.844175 c 0,-0.04313 0.02876,-0.172543 0.07189,-0.37384 l 0.431355,-1.480989 c 0.0575,-0.301948 0.186922,-0.532004 0.416978,-0.675789 0.230056,-0.143785 0.460111,-0.215679 0.704547,-0.2013 0.05751,-0.01438 0.18692,0 0.345084,0.04313 0.316327,0.07189 0.560764,0.258814 0.747683,0.546384 0.172543,0.244435 0.2013,0.546383 0.100639,0.934604 l -0.345083,1.480987 c -0.186922,0.618277 -0.546384,0.934605 -1.092768,0.934605 -0.08627,0 -0.244434,-0.02876 -0.488871,-0.08627 -0.301947,-0.08627 -0.517625,-0.244435 -0.66141,-0.445734 -0.158164,-0.230056 -0.230057,-0.445734 -0.230057,-0.675791 z" /></svg>