<?xml version="1.0" encoding="UTF-8" standalone="no"?>
<svg
   xmlns:dc="http://purl.org/dc/elements/1.1/"
   xmlns:cc="http://creativecommons.org/ns#"
   xmlns:rdf="http://www.w3.org/1999/02/22-rdf-syntax-ns#"
   xmlns:svg="http://www.w3.org/2000/svg"
   xmlns="http://www.w3.org/2000/svg"
   xml:space="preserve"
   style="enable-background:new 0 0 30 30;"
   viewBox="0 0 30 30"
   y="0px"
   x="0px"
   id="Layer_1"
   version="1.1"><metadata
     id="metadata45"><rdf:RDF><cc:Work
         rdf:about=""><dc:format>image/svg+xml</dc:format><dc:type
           rdf:resource="http://purl.org/dc/dcmitype/StillImage" /></cc:Work></rdf:RDF></metadata><defs
     id="defs43" /><path
     id="path39"
     d="m 0.02788853,13.93108 c 0,1.906725 0.67890918,3.55344 2.02228277,4.925705 1.3433737,1.386708 2.9756448,2.108951 4.8823685,2.166731 0.1733387,0 0.260008,-0.08667 0.260008,-0.245563 l 0,-1.921168 c 0,-0.17334 -0.086669,-0.260008 -0.260008,-0.260008 C 5.7191702,18.538994 4.6646941,18.047871 3.7980015,17.123399 2.9313088,16.198926 2.4835177,15.14445 2.4835177,13.916636 c 0,-1.213369 0.4044565,-2.267847 1.2278146,-3.163428 C 4.5346903,9.857626 5.5313867,9.352055 6.7447565,9.2509407 L 7.5103349,9.1498264 c 0.1733386,0 0.2744527,-0.086669 0.2744527,-0.2600078 L 7.8859018,8.167575 C 8.0303506,6.5930833 8.6803701,5.2641547 9.8504054,4.1952336 11.020439,3.1263128 12.392702,2.5918523 13.981639,2.5918523 c 1.560046,0 2.93231,0.5344605 4.102346,1.5889364 1.170034,1.0544762 1.848944,2.3545151 2.022282,3.9145619 l 0.101108,0.8378029 c 0,0.1733385 0.08667,0.2600078 0.274452,0.2600078 l 2.31118,0 c 1.300039,0 2.412295,0.462236 3.351211,1.4011537 0.924473,0.924471 1.401154,2.036728 1.401154,3.322321 0,1.213371 -0.433347,2.28229 -1.30004,3.206763 -0.866693,0.910027 -1.921168,1.401152 -3.148983,1.473378 -0.187783,0 -0.288897,0.08667 -0.288897,0.260008 l 0,1.921168 c 0,0.158894 0.101108,0.245563 0.288897,0.245563 1.921168,-0.05778 3.55344,-0.780023 4.882369,-2.166731 1.328928,-1.386709 1.993393,-3.01898 1.993393,-4.940149 0,-1.285593 -0.317788,-2.484519 -0.967808,-3.582329 C 28.368737,9.236496 27.4876,8.3698032 26.389789,7.7342287 25.291978,7.0986541 24.093054,6.7808668 22.807459,6.7808668 l -0.447791,0 C 21.882987,4.8452532 20.871844,3.2707616 19.311798,2.0285021 17.766196,0.80068756 15.989476,0.17955788 13.996083,0.17955788 c -2.036727,0 -3.842337,0.63557463 -5.4168271,1.89227882 C 7.0047643,3.328541 5.9936229,4.9463673 5.5458316,6.9108705 3.9135605,7.3297721 2.5990767,8.1820199 1.5734904,9.467614 0.54790409,10.753208 0.02788853,12.255476 0.02788853,13.93108 Z M 7.8281223,24.071384 c 0,0.245564 0.072224,0.491127 0.231118,0.736689 0.1588937,0.245563 0.3900118,0.404457 0.6789093,0.505571 0.3322322,0.101108 0.6355745,0.08667 0.9244721,-0.05778 0.2744518,-0.130003 0.4766803,-0.404457 0.5633503,-0.808914 l 0.202227,-0.881138 c 0.07222,-0.33223 0.02889,-0.635574 -0.130004,-0.910025 C 10.139302,22.381335 9.8937396,22.179106 9.5470628,22.077991 9.2292754,21.976878 8.9114881,22.020211 8.6225905,22.193551 8.333693,22.36689 8.1314647,22.626897 8.0447955,22.959129 l -0.2022283,0.852248 c 0,0.04333 -0.014444,0.130005 -0.014444,0.260007 z M 8.925933,19.882371 c 0,0.303341 0.115559,0.577795 0.3611219,0.823357 0.2311181,0.245564 0.4911258,0.361122 0.8089121,0.361122 0.346677,0 0.635574,-0.115558 0.866693,-0.346676 0.231119,-0.231119 0.346677,-0.505572 0.346677,-0.852249 0,-0.332231 -0.115558,-0.621129 -0.346677,-0.852246 -0.231119,-0.23112 -0.520016,-0.346678 -0.866693,-0.346678 -0.3322311,0 -0.6066838,0.115558 -0.8378018,0.332232 C 9.041492,19.261241 8.925933,19.550138 8.925933,19.882371 Z m 0.8811373,-3.278987 c -0.014447,0.231118 0.043332,0.447791 0.2022277,0.65002 0.144448,0.216672 0.375566,0.361121 0.693354,0.462235 0.303341,0.08667 0.592241,0.05778 0.895582,-0.101108 0.303343,-0.158894 0.491127,-0.404457 0.592241,-0.736689 l 0.404456,-1.300039 c 0.101108,-0.346676 0.07222,-0.664466 -0.101108,-0.938917 -0.173339,-0.274452 -0.433346,-0.462236 -0.780023,-0.56335 -0.317789,-0.101108 -0.621129,-0.07222 -0.910028,0.101108 -0.288898,0.158894 -0.491125,0.404457 -0.592238,0.722243 l -0.3466804,1.32893 c 0,0.02889 -0.014437,0.08667 -0.028894,0.173337 -0.014437,0.07222 -0.028894,0.14445 -0.028894,0.20223 z m 1.6900487,11.974802 c 0,0.260008 0.07223,0.491127 0.216675,0.722244 0.144447,0.23112 0.375567,0.390013 0.693353,0.476682 0.115559,0.02889 0.245563,0.04333 0.361122,0.04333 0.621129,0 0.996697,-0.288897 1.141145,-0.881138 l 0.20223,-0.852247 c 0.08667,-0.375567 0.04333,-0.693354 -0.115561,-0.982252 -0.173338,-0.288898 -0.4189,-0.462236 -0.751133,-0.534461 -0.303343,-0.101108 -0.606685,-0.07222 -0.910026,0.101108 -0.303343,0.173339 -0.491127,0.418903 -0.592241,0.73669 l -0.202228,0.852246 c -0.02889,0.130005 -0.04333,0.23112 -0.04333,0.317788 z m 1.112258,-4.189013 c 0,0.317787 0.115558,0.592239 0.361121,0.837803 0.231117,0.231117 0.505571,0.346676 0.823358,0.346676 0.346676,0 0.621129,-0.115559 0.852247,-0.332232 0.231118,-0.231118 0.332233,-0.50557 0.332233,-0.852247 0,-0.332233 -0.115561,-0.606686 -0.332233,-0.837804 -0.231118,-0.231117 -0.505571,-0.332232 -0.852247,-0.332232 -0.346677,0 -0.62113,0.115559 -0.852249,0.332232 -0.231117,0.216674 -0.33223,0.505571 -0.33223,0.837804 z m 0.910025,-3.278987 c -0.01444,0.216672 0.04333,0.447791 0.187784,0.678907 0.14445,0.23112 0.361122,0.375567 0.65002,0.433348 0.332232,0.08667 0.635574,0.05778 0.924471,-0.08667 0.288898,-0.14445 0.476681,-0.418902 0.592241,-0.808914 l 0.390011,-1.30004 c 0.101108,-0.317786 0.07222,-0.621129 -0.101108,-0.910025 -0.173338,-0.288898 -0.418901,-0.476684 -0.765578,-0.577797 -0.317786,-0.101108 -0.62113,-0.05778 -0.924472,0.11556 -0.303343,0.173339 -0.491126,0.433347 -0.592241,0.765577 l -0.332232,1.300041 c -0.01444,0.115558 -0.02889,0.245562 -0.02889,0.390011 z m 3.986786,3.105648 c 0,0.231117 0.07222,0.462236 0.216674,0.693352 0.144448,0.23112 0.375568,0.390013 0.664464,0.476684 0.04333,0 0.115559,0.01444 0.202228,0.02889 0.08667,0.01444 0.14445,0.02889 0.202229,0.02889 0.59224,0 0.953361,-0.317787 1.09781,-0.953363 l 0.202229,-0.866692 c 0.101108,-0.303342 0.07222,-0.606685 -0.101108,-0.910027 -0.158894,-0.303343 -0.404456,-0.491126 -0.736688,-0.59224 -0.361123,-0.08667 -0.693355,-0.05778 -0.982253,0.115559 -0.288896,0.173338 -0.491125,0.418902 -0.592239,0.765579 l -0.130004,0.852247 c 0,0.02889 -0.01444,0.101108 -0.02889,0.173339 -0.01444,0.07222 -0.01444,0.130004 -0.01444,0.187783 z m 1.068922,-4.275685 c 0,0.317789 0.115558,0.606685 0.361122,0.823359 0.216673,0.231118 0.491126,0.346678 0.823358,0.346678 0.346677,0 0.62113,-0.11556 0.852247,-0.332233 0.231119,-0.216674 0.332233,-0.50557 0.332233,-0.837804 0,-0.346676 -0.115558,-0.62113 -0.332233,-0.852246 -0.216673,-0.231118 -0.50557,-0.332232 -0.852247,-0.332232 -0.346677,0 -0.62113,0.115558 -0.852248,0.332232 -0.216674,0.231116 -0.332232,0.50557 -0.332232,0.852246 z m 0.881137,-3.336765 c 0,0.245562 0.07222,0.47668 0.231119,0.693352 0.158894,0.216676 0.390011,0.375569 0.707798,0.462238 0.02889,0 0.08667,0.01444 0.17334,0.02889 0.08667,0.01445 0.158894,0.02889 0.202227,0.02889 0.144449,0 0.317789,-0.04333 0.520015,-0.130003 0.303343,-0.158893 0.505572,-0.418901 0.592241,-0.751134 l 0.346677,-1.300038 c 0.08667,-0.332233 0.05778,-0.635574 -0.115559,-0.910028 -0.158894,-0.288897 -0.404456,-0.476679 -0.736689,-0.577793 -0.332232,-0.101108 -0.635574,-0.07222 -0.924473,0.08667 -0.274452,0.158894 -0.47668,0.390011 -0.56335,0.736689 l -0.404455,1.314484 c 0,0.02889 -0.01444,0.08667 -0.02889,0.173337 0,0.04333 0,0.101108 0,0.14445 z" /></svg>