<?xml version="1.0" encoding="UTF-8" standalone="no"?>
<svg
   xmlns:dc="http://purl.org/dc/elements/1.1/"
   xmlns:cc="http://creativecommons.org/ns#"
   xmlns:rdf="http://www.w3.org/1999/02/22-rdf-syntax-ns#"
   xmlns:svg="http://www.w3.org/2000/svg"
   xmlns="http://www.w3.org/2000/svg"
   xml:space="preserve"
   style="enable-background:new 0 0 30 30;"
   viewBox="0 0 30 30"
   y="0px"
   x="0px"
   id="Layer_1"
   version="1.1"><metadata
     id="metadata9"><rdf:RDF><cc:Work
         rdf:about=""><dc:format>image/svg+xml</dc:format><dc:type
           rdf:resource="http://purl.org/dc/dcmitype/StillImage" /></cc:Work></rdf:RDF></metadata><defs
     id="defs7" /><path
     id="path3"
     d="m 0.11994746,13.892218 c 0,-1.658105 0.51458407,-3.130387 1.54375214,-4.4168461 1.029168,-1.2864601 2.344216,-2.129806 3.916556,-2.487156 0.4431141,-1.958278 1.443694,-3.559206 3.00174,-4.8170781 1.5580464,-1.25787192 3.3590904,-1.88680802 5.3888384,-1.88680802 1.157813,0 2.215569,0.18582198 3.14468,0.57176008 0,0.0142945 0,0.0142945 0.01429,0.0285879 1.200697,0.45740794 2.258452,1.20069594 3.158975,2.21557004 l 0.04289,0 c 0.971991,1.0434619 1.615221,2.2870399 1.958278,3.7450279 l 0.443114,0 c 1.543752,0 2.887388,0.4145261 4.045202,1.229284 l 0,-0.014294 c 0.757582,0.5145841 1.400813,1.14352 1.915396,1.9011015 0.514584,0.7575828 0.85764,1.5866348 1.043462,2.4871568 0.05718,0.300173 0.08575,0.543171 0.114352,0.743288 l 0,0.08577 c 0,0.01429 0,0.08576 0.01429,0.242998 0.01429,0.157235 0.01429,0.271587 0.01429,0.343057 l 0,0.04289 c 0,1.257872 -0.300173,2.42998 -0.914815,3.50203 -0.600348,1.072051 -1.429401,1.943984 -2.487156,2.587214 -1.043462,0.64323 -2.201276,0.986286 -3.459149,1.029168 -0.185821,0 -0.285879,-0.08577 -0.285879,-0.242998 l 0,-1.915396 c 0,-0.185822 0.100064,-0.271586 0.285879,-0.271586 1.229285,-0.05718 2.258453,-0.543172 3.116092,-1.457988 0.85764,-0.914815 1.286461,-1.986866 1.286461,-3.230444 0,-1.272165 -0.457408,-2.35851 -1.386518,-3.273327 -0.914812,-0.9148228 -2.01545,-1.3722308 -3.30191,-1.3722308 l -2.301334,0 c -0.171528,0 -0.257293,-0.085763 -0.257293,-0.242998 L 20.060077,8.1746179 C 19.917138,6.7452178 19.31679,5.5159338 18.24474,4.4724719 c -0.01429,-0.014294 -0.01429,-0.028588 -0.02859,-0.042883 -0.01429,-0.014293 -0.02859,-0.028588 -0.02859,-0.042883 -0.01429,-0.014293 -0.02859,-0.028587 -0.05718,-0.028587 0,-0.028588 -0.01429,-0.042883 -0.02858,-0.042883 -1.043464,-0.9434033 -2.258454,-1.4865753 -3.659266,-1.6009274 -0.10006,-0.014294 -0.257292,-0.014294 -0.485996,-0.014294 -1.572339,0 -2.930269,0.5288781 -4.088084,1.5723399 C 8.7106416,5.3158178 8.0531175,6.6165718 7.9101776,8.1603239 l -0.1143521,0.843346 c -0.042882,0.128646 -0.157234,0.200116 -0.3144679,0.200116 l -0.7004061,0.042882 c -1.2006959,0.1429399 -2.21557,0.6575243 -3.0160339,1.5294581 -0.800464,0.871933 -1.200696,1.915396 -1.200696,3.116092 l 0,0.05718 0.042883,0 c 0.014294,0.686111 0.157234,1.329342 0.4288201,1.92969 0.28588,0.614642 0.6575239,1.129227 1.14352,1.558046 0.300174,0.257292 0.64323,0.485995 1.057756,0.686112 l 0,0.01429 c 0.57176,0.271585 1.1435201,0.42882 1.7295739,0.457407 0.1572341,0 0.2429982,0.08577 0.2429982,0.257293 l 0,1.915395 c 0,0.157235 -0.085764,0.242999 -0.2429982,0.242999 C 6.2234863,20.96775 5.5230802,20.824808 4.8512623,20.581811 l 0,0.01429 C 3.6648596,20.181579 2.6499856,19.495465 1.8352275,18.552061 1.0204695,17.608658 0.47729752,16.493726 0.24859346,15.250149 l 0,-0.04289 c -0.0142939,-0.01429 -0.0142939,-0.0286 -0.0142939,-0.05718 C 0.14853546,14.778443 0.11994747,14.349621 0.11994747,13.892213 Z M 7.9816476,24.141015 c 0,-0.04289 0.014294,-0.100065 0.028587,-0.185821 0.014294,-0.07147 0.028588,-0.128645 0.028588,-0.171528 l 0.128646,-0.843345 c 0.1000577,-0.343057 0.2858801,-0.586055 0.586054,-0.757583 0.3001741,-0.171528 0.614642,-0.200117 0.971992,-0.114352 0.3287624,0.100065 0.5574674,0.300174 0.7289944,0.586054 0.157234,0.300174 0.185822,0.600348 0.100065,0.900522 l -0.200117,0.85764 c -0.142939,0.628936 -0.5002902,0.943404 -1.0863441,0.943404 -0.042883,0 -0.1143521,-0.01429 -0.2001161,-0.02858 -0.085765,-0.0143 -0.1429418,-0.02859 -0.2001179,-0.02859 C 8.5677016,25.213065 8.3532916,25.055831 8.2103516,24.827129 8.0531175,24.612717 7.9816476,24.384014 7.9816476,24.141015 Z m 1.057756,-4.202436 c 0,-0.343055 0.114352,-0.614641 0.3287621,-0.843345 0.2144098,-0.228705 0.5002901,-0.328761 0.8433463,-0.328761 0.343057,0 0.614642,0.11435 0.843346,0.328761 0.228704,0.21441 0.328763,0.50029 0.328763,0.843345 0,0.328763 -0.114353,0.600349 -0.328763,0.829053 -0.21441,0.228704 -0.500289,0.328761 -0.843346,0.328761 -0.3287628,0 -0.6003484,-0.114351 -0.8147583,-0.343056 C 9.1680496,20.524634 9.0394036,20.253048 9.0394036,19.938579 Z m 2.3442174,8.562107 c 0,-0.05718 0.01429,-0.157234 0.05718,-0.328762 l 0.185821,-0.843346 c 0.100065,-0.328762 0.300174,-0.571761 0.586054,-0.728994 0.300175,-0.171528 0.600348,-0.200116 0.900522,-0.100065 0.328762,0.05718 0.586054,0.242999 0.757582,0.528879 0.171528,0.285879 0.21441,0.614641 0.114351,0.971992 l -0.185821,0.843346 c -0.14294,0.586054 -0.528877,0.871934 -1.14352,0.871934 -0.100065,0 -0.228705,-0.01429 -0.343055,-0.04289 -0.314469,-0.08575 -0.543173,-0.242997 -0.700407,-0.471702 -0.14294,-0.228703 -0.228703,-0.457407 -0.228703,-0.700405 z m 1.129226,-4.159555 c 0,-0.328761 0.114351,-0.614641 0.32876,-0.829051 0.228705,-0.228704 0.500291,-0.328762 0.843347,-0.328762 0.343056,0 0.614641,0.114352 0.843345,0.328762 0.228705,0.228703 0.328763,0.50029 0.328763,0.829051 0,0.343056 -0.114352,0.614643 -0.328763,0.843347 -0.228704,0.228704 -0.500289,0.328762 -0.843345,0.328762 -0.328763,0 -0.600347,-0.114353 -0.829051,-0.343056 -0.228705,-0.228704 -0.343056,-0.50029 -0.343056,-0.829053 z m 0.886227,-3.244738 c 0,-0.142939 0.01429,-0.271585 0.04289,-0.385936 l 0.328761,-1.286461 c 0.100065,-0.328762 0.300176,-0.586054 0.586055,-0.757582 0.300173,-0.171528 0.600349,-0.21441 0.914817,-0.114353 0.343056,0.100065 0.586053,0.285881 0.757581,0.571761 0.171528,0.285879 0.200116,0.586055 0.100054,0.900522 l -0.371643,1.28646 c -0.114352,0.400232 -0.314468,0.657524 -0.586054,0.800463 -0.271586,0.142941 -0.586055,0.171529 -0.914815,0.08576 -0.285881,-0.05718 -0.500291,-0.200116 -0.643231,-0.42882 -0.171528,-0.228704 -0.228703,-0.457407 -0.21441,-0.671818 z m 3.945144,3.058917 c 0,-0.04289 0,-0.114352 0.01429,-0.185822 0.01429,-0.07147 0.01429,-0.128646 0.01429,-0.157234 l 0.128645,-0.843346 c 0.100065,-0.343056 0.28588,-0.586055 0.586054,-0.757582 0.300175,-0.171529 0.614642,-0.200116 0.971993,-0.114352 0.328761,0.100065 0.57176,0.300174 0.728993,0.586054 0.171528,0.300173 0.200116,0.600348 0.100065,0.900521 l -0.200116,0.857641 c -0.142941,0.628936 -0.500291,0.943404 -1.086345,0.943404 -0.04289,0 -0.114352,-0.01429 -0.200115,-0.0286 -0.08577,-0.01429 -0.157234,-0.02858 -0.200116,-0.02858 -0.28588,-0.08577 -0.500291,-0.242999 -0.64323,-0.471702 -0.128647,-0.228704 -0.21441,-0.457409 -0.21441,-0.700406 z m 1.057756,-4.202436 c 0,-0.343056 0.114352,-0.614643 0.328762,-0.843346 0.228704,-0.228705 0.500289,-0.328762 0.843346,-0.328762 0.343056,0 0.614641,0.114353 0.843346,0.328762 0.228703,0.228703 0.328762,0.50029 0.328762,0.843346 0,0.328761 -0.114352,0.614641 -0.328762,0.829052 -0.21441,0.21441 -0.485996,0.328761 -0.829053,0.328761 -0.343056,0 -0.614641,-0.114351 -0.829052,-0.343055 -0.228703,-0.21441 -0.357349,-0.485997 -0.357349,-0.814758 z" /></svg>