<?xml version="1.0" encoding="UTF-8" standalone="no"?>
<svg
   xmlns:dc="http://purl.org/dc/elements/1.1/"
   xmlns:cc="http://creativecommons.org/ns#"
   xmlns:rdf="http://www.w3.org/1999/02/22-rdf-syntax-ns#"
   xmlns:svg="http://www.w3.org/2000/svg"
   xmlns="http://www.w3.org/2000/svg"
   xml:space="preserve"
   style="enable-background:new 0 0 30 30;"
   viewBox="0 0 30 30"
   y="0px"
   x="0px"
   id="Layer_1"
   version="1.1"><metadata
     id="metadata9"><rdf:RDF><cc:Work
         rdf:about=""><dc:format>image/svg+xml</dc:format><dc:type
           rdf:resource="http://purl.org/dc/dcmitype/StillImage" /></cc:Work></rdf:RDF></metadata><defs
     id="defs7" /><path
     id="path3"
     d="m 0.03976547,23.675166 c 0,0.265565 0.09958736,0.48687 0.29876213,0.663915 0.18810939,0.188109 0.40941462,0.276632 0.674981,0.276632 l 6.506374,0 c 0.2876968,0 0.5311326,0.09959 0.7524378,0.309827 0.2213052,0.21024 0.3319579,0.464741 0.3319579,0.752438 0,0.287697 -0.1106527,0.553263 -0.3319579,0.763503 -0.2213052,0.21024 -0.464741,0.320892 -0.7524378,0.320892 -0.2876968,0 -0.5311326,-0.110652 -0.7524378,-0.331958 -0.1991747,-0.177043 -0.4204799,-0.265566 -0.674981,-0.265566 -0.2655663,0 -0.4868715,0.08853 -0.6639157,0.265566 -0.1770442,0.177044 -0.2655663,0.398349 -0.2655663,0.663917 0,0.265566 0.088521,0.486871 0.2655663,0.663915 0.5864589,0.586459 1.2835703,0.885221 2.0913345,0.885221 0.8188294,0 1.5159409,-0.287697 2.0802692,-0.86309 0.5643292,-0.575393 0.8630902,-1.272505 0.8630902,-2.091335 0,-0.818829 -0.287695,-1.515941 -0.8630902,-2.091334 -0.5753936,-0.575394 -1.272505,-0.863091 -2.0802692,-0.863091 l -6.506374,0 c -0.26556638,0 -0.48687161,0.08853 -0.68604631,0.276632 -0.18810946,0.188109 -0.28769682,0.409414 -0.28769682,0.663916 z m 0,-3.330645 c 0,0.254501 0.09958736,0.464741 0.29876213,0.641785 0.17704419,0.177045 0.40941462,0.265567 0.674981,0.265567 l 12.1385924,0 c 0.81883,0 1.515941,-0.287697 2.091334,-0.86309 0.575394,-0.575394 0.863091,-1.272505 0.863091,-2.091335 0,-0.818829 -0.287697,-1.504875 -0.863091,-2.080269 -0.575393,-0.564328 -1.272504,-0.852026 -2.091334,-0.852026 -0.840959,0 -1.527006,0.276632 -2.080269,0.84096 -0.177044,0.177045 -0.254501,0.409416 -0.254501,0.674981 0,0.265567 0.08853,0.486872 0.254501,0.663916 0.165978,0.165979 0.387284,0.254501 0.663916,0.254501 0.265565,0 0.48687,-0.08853 0.686046,-0.254501 0.210241,-0.21024 0.453675,-0.309827 0.752438,-0.309827 0.298762,0 0.542198,0.09959 0.752437,0.309827 0.210241,0.21024 0.320893,0.464741 0.320893,0.752438 0,0.298762 -0.110652,0.553263 -0.320893,0.763503 -0.210239,0.21024 -0.46474,0.320892 -0.752437,0.320892 l -12.1607234,0 c -0.26556638,0 -0.48687161,0.09959 -0.68604631,0.287697 -0.18810946,0.199175 -0.28769682,0.42048 -0.28769682,0.674981 z m 6.40678673,-7.23668 c 0,-0.265568 0.099588,-0.486873 0.2876968,-0.686047 0.1991747,-0.177044 0.42048,-0.265566 0.6639156,-0.265566 l 2.2462482,0 c 0.2545011,0 0.4647422,0.08853 0.6417852,0.276631 0.177044,0.188109 0.254501,0.409414 0.254501,0.674982 0,0.265566 -0.08853,0.486871 -0.254501,0.663915 -0.177043,0.188109 -0.3872841,0.276631 -0.6417852,0.276631 l -2.2462482,0 c -0.2655661,0 -0.4868714,-0.08853 -0.6749809,-0.276631 C 6.5350742,13.583647 6.4465522,13.362342 6.4465522,13.107841 Z M 9.6001518,5.4506789 c 0,-0.254501 0.088521,-0.4758063 0.2545017,-0.6749809 0.2102405,-0.1770443 0.4536755,-0.2655664 0.7081765,-0.2655664 0.243436,0 0.464742,0.088521 0.652851,0.2655664 l 1.582331,1.6265934 c 0.177045,0.165979 0.265567,0.3872842 0.265567,0.6528505 0,0.2655664 -0.08853,0.4868715 -0.265567,0.6639157 -0.177044,0.1770442 -0.398349,0.2655663 -0.65285,0.2655663 -0.265566,0 -0.486871,-0.088521 -0.652851,-0.2655663 L 9.8657181,6.1367252 C 9.6886742,5.9486157 9.6001518,5.7273104 9.6001518,5.4506789 Z m 2.8327072,7.5243781 0,-0.07746 c 0.02213,-1.006939 0.298762,-1.93642 0.818829,-2.799511 0.531133,-0.8520254 1.228244,-1.5270063 2.1024,-2.0249432 0.874156,-0.4979368 1.825769,-0.7413726 2.843773,-0.7413726 0.774568,0 1.51594,0.1549138 2.235183,0.4647411 0.708176,0.3098273 1.32783,0.7192419 1.836832,1.2393093 0.520069,0.5200673 0.929483,1.1286574 1.228245,1.8368334 0.298762,0.708178 0.453676,1.460614 0.453676,2.235184 0,1.040133 -0.2545,1.991746 -0.763502,2.876967 -0.509002,0.885222 -1.206115,1.582333 -2.080271,2.091335 -0.874155,0.520067 -1.836833,0.774568 -2.876968,0.785634 l -0.232371,0 c -0.07746,0 -0.143847,-0.02213 -0.188109,-0.07746 -0.05533,-0.05533 -0.07746,-0.121717 -0.07746,-0.199174 l 0,-1.349962 c 0,-0.143848 0.07746,-0.221306 0.243435,-0.221306 l 0.265567,0 c 1.062265,-0.01106 1.980681,-0.387284 2.73312,-1.161852 0.752437,-0.763503 1.139721,-1.681919 1.139721,-2.755251 0,-1.062265 -0.387284,-1.969616 -1.150787,-2.73312 -0.7635,-0.7524327 -1.681917,-1.1286516 -2.766313,-1.1286516 -1.040134,0 -1.947485,0.3540884 -2.699924,1.0843956 -0.752437,0.719242 -1.150787,1.593398 -1.195047,2.622467 0,0.06639 -0.0332,0.121717 -0.08853,0.188109 -0.05533,0.06639 -0.154913,0.09959 -0.287697,0.09959 l -1.250374,0 c -0.16598,0.01106 -0.243436,-0.07746 -0.243436,-0.254501 z m 4.813389,10.932478 0,-2.201986 c 0,-0.265567 0.08853,-0.486872 0.276631,-0.663915 0.18811,-0.177045 0.409415,-0.265567 0.663917,-0.265567 0.276631,0 0.497936,0.08853 0.67498,0.265567 0.177045,0.177043 0.265566,0.398348 0.265566,0.663915 l 0,2.201986 c 0,0.265567 -0.08853,0.497938 -0.27663,0.686047 -0.18811,0.188109 -0.409415,0.276632 -0.663916,0.276632 -0.265567,0 -0.486872,-0.08853 -0.663917,-0.276632 -0.177043,-0.188109 -0.276631,-0.42048 -0.276631,-0.686047 z m 0,-19.3420771 0,-2.2683787 c 0,-0.2545011 0.08853,-0.4758062 0.276631,-0.6639157 0.18811,-0.1881095 0.409415,-0.2766315 0.663917,-0.2766315 0.265566,0 0.486871,0.088521 0.663916,0.2766315 0.177043,0.1881095 0.27663,0.4094146 0.27663,0.6639157 l 0,2.2573135 c 0,0.254501 -0.08853,0.464741 -0.27663,0.6417852 -0.18811,0.1659789 -0.409415,0.254501 -0.663916,0.254501 -0.265567,0 -0.486872,-0.088521 -0.663917,-0.254501 -0.177043,-0.165979 -0.276631,-0.3762189 -0.276631,-0.63072 z m 6.119089,14.5840161 c 0,-0.254502 0.08853,-0.464742 0.254501,-0.619655 0.16598,-0.177045 0.376221,-0.254501 0.630722,-0.254501 0.265565,0 0.48687,0.08853 0.663915,0.254501 l 1.604463,1.571267 c 0.177044,0.188109 0.265566,0.42048 0.265566,0.674981 0,0.254501 -0.08853,0.475806 -0.265566,0.65285 -0.44261,0.343024 -0.885221,0.343024 -1.327832,0 l -1.571268,-1.582332 c -0.177042,-0.177045 -0.254501,-0.42048 -0.254501,-0.697111 z m 0,-12.0943321 c 0,-0.2766315 0.08853,-0.4979367 0.254501,-0.6528505 L 25.191106,4.775698 c 0.199175,-0.1770443 0.409416,-0.2655664 0.652851,-0.2655664 0.2545,0 0.475806,0.088521 0.663915,0.2766316 0.18811,0.1881094 0.276632,0.4094147 0.276632,0.6639157 0,0.2766315 -0.08853,0.5090021 -0.265566,0.6860463 L 24.914475,7.7190576 C 24.7153,7.8961018 24.493994,7.9846239 24.25056,7.9846239 c -0.254501,0 -0.453677,-0.088521 -0.630722,-0.2655663 C 23.442796,7.5420134 23.365337,7.3207083 23.365337,7.0551419 Z m 2.50075,6.0526991 c 0,-0.265568 0.08853,-0.486873 0.265566,-0.686047 0.177044,-0.177044 0.387285,-0.265566 0.63072,-0.265566 l 2.235184,0 c 0.254501,0 0.475806,0.09959 0.674981,0.287696 0.199174,0.188111 0.287697,0.409416 0.287697,0.663917 0,0.254501 -0.09959,0.475806 -0.287697,0.663915 -0.199175,0.188109 -0.42048,0.276631 -0.674981,0.276631 l -2.235184,0 c -0.254501,0 -0.46474,-0.08853 -0.641785,-0.276631 -0.177044,-0.177044 -0.254501,-0.398349 -0.254501,-0.663915 z" /></svg>