<?xml version="1.0" encoding="UTF-8" standalone="no"?>
<svg
   xmlns:dc="http://purl.org/dc/elements/1.1/"
   xmlns:cc="http://creativecommons.org/ns#"
   xmlns:rdf="http://www.w3.org/1999/02/22-rdf-syntax-ns#"
   xmlns:svg="http://www.w3.org/2000/svg"
   xmlns="http://www.w3.org/2000/svg"
   xml:space="preserve"
   style="enable-background:new 0 0 30 30;"
   viewBox="0 0 30 30"
   y="0px"
   x="0px"
   id="Layer_1"
   version="1.1"><metadata
     id="metadata9"><rdf:RDF><cc:Work
         rdf:about=""><dc:format>image/svg+xml</dc:format><dc:type
           rdf:resource="http://purl.org/dc/dcmitype/StillImage" /></cc:Work></rdf:RDF></metadata><defs
     id="defs7" /><path
     id="path3"
     d="m 0.06054114,16.628711 c 0,-1.657538 0.51888136,-3.127702 1.55664406,-4.424904 C 2.6549479,10.906603 3.9665647,10.085041 5.5520355,9.7102936 5.99885,7.7500751 7.007786,6.1357775 8.5788434,4.8818143 10.1499,3.627851 11.965986,2.9936627 13.998271,2.9936627 c 1.989045,0 3.747477,0.6197749 5.30412,1.8304981 1.542231,1.2251365 2.56558,2.7961939 3.041221,4.7275857 l 0.446815,0 c 1.282789,0 2.479099,0.3170947 3.574516,0.9368685 1.095417,0.619775 1.974632,1.484578 2.60882,2.56558 0.634188,1.081003 0.965696,2.277312 0.965696,3.560102 0,1.931391 -0.663015,3.58893 -1.989045,4.972613 -1.326031,1.383685 -2.954741,2.118766 -4.87172,2.176419 -0.187373,0 -0.288267,-0.08648 -0.288267,-0.245027 l 0,-1.916979 c 0,-0.17296 0.100899,-0.25944 0.288267,-0.25944 1.239551,-0.05766 2.277313,-0.547708 3.142115,-1.470164 0.864802,-0.922455 1.297204,-2.003458 1.297204,-3.257422 0,-1.253962 -0.461229,-2.334965 -1.41251,-3.257421 -0.936869,-0.922455 -2.0467,-1.383683 -3.32949,-1.383683 l -2.306139,0 c -0.17296,0 -0.273854,-0.08649 -0.273854,-0.245028 L 20.095127,10.892189 C 19.936579,9.3499594 19.273565,8.0383426 18.106081,6.9861664 16.924185,5.9339904 15.554914,5.4006957 13.998271,5.4006957 c -1.571058,0 -2.954742,0.5188813 -4.1222249,1.5710574 C 8.7085638,8.0239292 8.0455487,9.3211325 7.8870016,10.877776 l -0.086481,0.778322 c 0,0.172962 -0.1008942,0.259441 -0.2882674,0.259441 l -0.7639083,0.04324 c -1.1818965,0.05766 -2.1764189,0.533295 -3.0123945,1.441336 -0.8359755,0.908043 -1.2395499,1.974633 -1.2395499,3.199769 0,1.253963 0.4324011,2.334965 1.2972034,3.257422 0.8648022,0.922455 1.9169783,1.41251 3.1421149,1.470163 0.158547,0 0.2450272,0.08649 0.2450272,0.259441 l 0,1.916979 c 0,0.158547 -0.086481,0.245027 -0.2450272,0.245027 C 5.0043274,23.662436 3.3756165,22.927354 2.0351729,21.543669 0.69472944,20.159986 0.06054114,18.545688 0.06054114,16.628711 Z m 8.54712896,1.268377 c 0,-0.345922 0.1729605,-0.821562 0.5332948,-1.426924 0.3459209,-0.605361 0.6774288,-1.081003 0.9801091,-1.455751 0.30268,-0.34592 0.490055,-0.547707 0.547708,-0.605361 l 0.51888,0.576535 c 0.374749,0.403574 0.72067,0.879216 1.037764,1.470163 0.317093,0.576535 0.475641,1.066589 0.475641,1.441338 0,0.56212 -0.187374,1.037762 -0.576535,1.412509 -0.38916,0.374749 -0.864802,0.562122 -1.441337,0.562122 -0.562121,0 -1.0521754,-0.187373 -1.4557499,-0.576535 -0.4179877,-0.374747 -0.619775,-0.850389 -0.619775,-1.398096 z m 4.2951839,5.750935 c 0,-0.403575 0.115307,-0.850389 0.345921,-1.383684 0.230614,-0.533295 0.504469,-1.008936 0.850389,-1.470164 0.259441,-0.374747 0.576535,-0.778323 0.965696,-1.210724 0.374747,-0.432401 0.663015,-0.749495 0.864803,-0.936868 0.100898,-0.08649 0.216199,-0.201788 0.34592,-0.331508 l 0.345921,0.331508 c 0.547708,0.475641 1.15307,1.181897 1.830499,2.104352 0.34592,0.475641 0.619775,0.980109 0.850388,1.49899 0.230615,0.518881 0.331507,0.98011 0.331507,1.398098 0,0.922455 -0.331507,1.71519 -0.980109,2.378205 -0.648602,0.663015 -1.455751,0.980109 -2.39262,0.980109 -0.922455,0 -1.715191,-0.331507 -2.378206,-0.965695 -0.663015,-0.663015 -0.980109,-1.45575 -0.980109,-2.392619 z m 2.118766,-9.599306 c 0,-0.605362 0.461228,-1.369269 1.398097,-2.306139 l 0.34592,0.360335 c 0.259441,0.30268 0.475642,0.648601 0.691843,1.023348 0.201787,0.374748 0.317094,0.677429 0.317094,0.922456 0,0.374748 -0.12972,0.691842 -0.403574,0.951283 -0.259442,0.259441 -0.576536,0.403574 -0.951283,0.403574 -0.389161,0 -0.720668,-0.12972 -0.994522,-0.403574 C 15.15134,14.740559 15.02162,14.423465 15.02162,14.048717 Z" /></svg>