<?xml version="1.0" encoding="UTF-8" standalone="no"?>
<svg
   xmlns:dc="http://purl.org/dc/elements/1.1/"
   xmlns:cc="http://creativecommons.org/ns#"
   xmlns:rdf="http://www.w3.org/1999/02/22-rdf-syntax-ns#"
   xmlns:svg="http://www.w3.org/2000/svg"
   xmlns="http://www.w3.org/2000/svg"
   xml:space="preserve"
   style="enable-background:new 0 0 30 30;"
   viewBox="0 0 30 30"
   y="0px"
   x="0px"
   id="Layer_1"
   version="1.1"><metadata
     id="metadata9"><rdf:RDF><cc:Work
         rdf:about=""><dc:format>image/svg+xml</dc:format><dc:type
           rdf:resource="http://purl.org/dc/dcmitype/StillImage" /></cc:Work></rdf:RDF></metadata><defs
     id="defs7" /><path
     id="path3"
     d="m 0.02664425,21.010387 c 0,-0.328796 0.10521463,-0.604985 0.32879566,-0.828567 0.22358113,-0.210428 0.48661768,-0.315643 0.78910969,-0.315643 l 7.128291,0 c 0.9732354,0 1.8018014,0.341948 2.4856964,1.038995 0.683895,0.697047 1.025842,1.525612 1.025842,2.498847 0,0.973235 -0.341947,1.814952 -1.025842,2.498847 -0.683895,0.683895 -1.512461,1.025843 -2.4856964,1.025843 -0.9732352,0 -1.8149523,-0.341948 -2.4988474,-1.038995 -0.2104293,-0.210428 -0.3024921,-0.473466 -0.3024921,-0.789109 0,-0.315645 0.1052148,-0.591833 0.3024921,-0.78911 0.1972775,-0.210429 0.4603141,-0.315644 0.7891098,-0.315644 0.302492,0 0.5655285,0.105215 0.8022615,0.315644 0.2630366,0.249886 0.5655286,0.381404 0.9074761,0.381404 0.3419476,0 0.6444397,-0.131518 0.8943244,-0.381404 0.2498848,-0.249884 0.3814031,-0.552376 0.3814031,-0.920629 0,-0.341946 -0.1315183,-0.644439 -0.3814031,-0.894324 C 8.9172803,22.246658 8.6147882,22.11514 8.2728406,22.11514 l -7.128291,0 c -0.30249201,0 -0.56552856,-0.105215 -0.78910969,-0.328796 C 0.13185888,21.562763 0.02664425,21.32603 0.02664425,21.010387 Z m 0,-3.998156 c 0,-0.315645 0.10521463,-0.591833 0.32879566,-0.815414 0.22358113,-0.21043 0.48661768,-0.315644 0.78910969,-0.315644 l 13.8751794,0 c 0.341948,0 0.64444,-0.131518 0.894324,-0.381403 0.249885,-0.249885 0.381404,-0.565528 0.381404,-0.907477 0,-0.341947 -0.131519,-0.657591 -0.381404,-0.907475 -0.249884,-0.249885 -0.552376,-0.381403 -0.894324,-0.381403 -0.368252,0 -0.657592,0.118366 -0.894324,0.36825 -0.236734,0.197279 -0.512921,0.302492 -0.841717,0.302492 -0.315644,0 -0.578681,-0.105213 -0.78911,-0.302492 -0.197277,-0.197277 -0.302492,-0.460314 -0.302492,-0.789109 0,-0.328796 0.09206,-0.591831 0.302492,-0.802262 0.670743,-0.670743 1.51246,-0.999538 2.525151,-0.999538 0.973236,0 1.814952,0.341948 2.498848,1.025841 0.683895,0.683896 1.025842,1.512461 1.025842,2.472545 0,0.960083 -0.341947,1.801801 -1.025842,2.485696 -0.683896,0.683894 -1.51246,1.025842 -2.498848,1.025842 l -13.8751794,0 c -0.3156438,0 -0.57868035,-0.105214 -0.78910969,-0.315643 C 0.13185888,17.57776 0.02664425,17.314722 0.02664425,17.012231 Z M 2.8542874,13.908398 c 0,0.105216 0.065758,0.157823 0.2104292,0.157823 l 1.8938632,0 c 0.1052147,0 0.1972775,-0.06576 0.2893403,-0.197277 0.2893403,-0.7102 0.762806,-1.302032 1.380942,-1.775498 0.6312878,-0.473466 1.3283347,-0.736502 2.0911407,-0.789109 l 0.697047,-0.105214 c 0.1709737,0 0.2630365,-0.0789 0.2630365,-0.223582 l 0.092064,-0.683895 C 9.9168191,8.8712481 10.508651,7.6744316 11.57395,6.7143482 12.639248,5.7542648 13.888671,5.267647 15.335372,5.267647 c 1.459854,0 2.722429,0.4734658 3.787727,1.4335493 1.065299,0.9600835 1.670283,2.1568999 1.828105,3.5904497 l 0.09206,0.775958 c 0,0.14467 0.0789,0.22358 0.223582,0.22358 l 2.130596,0 c 1.196816,0 2.209507,0.42086 3.064376,1.262576 0.854869,0.841717 1.275727,1.841257 1.275727,3.024921 0,1.170512 -0.420858,2.183204 -1.275727,3.02492 -0.854869,0.841718 -1.86756,1.262576 -3.064376,1.262576 l -9.087913,0 c -0.157822,0 -0.249886,0.0789 -0.249886,0.223582 l 0,1.828104 c 0,0.14467 0.07891,0.22358 0.249886,0.22358 l 9.087913,0 c 1.196816,0 2.288418,-0.28934 3.301109,-0.881172 1.01269,-0.57868 1.8018,-1.380942 2.393633,-2.380481 0.591832,-1.012691 0.881172,-2.104293 0.881172,-3.287957 0,-1.196816 -0.28934,-2.288418 -0.881172,-3.287957 C 28.500349,11.304337 27.711239,10.502075 26.698549,9.9233945 25.685857,9.3447138 24.594256,9.0422218 23.397439,9.0422218 l -0.407706,0 C 22.58203,7.2930286 21.661402,5.8594793 20.227853,4.7415738 18.807456,3.6236684 17.163477,3.0712915 15.322221,3.0712915 c -1.854408,0 -3.498386,0.5786807 -4.931936,1.7360415 C 8.9567358,5.9646939 8.0492597,7.4376987 7.6678565,9.2394992 6.5367993,9.5025357 5.5372604,10.041761 4.6692397,10.857174 3.801219,11.672588 3.1962349,12.645824 2.8542874,13.763729 l 0,0.05261 c 0,0.02629 0,0.05261 0,0.09206 z" /></svg>