<?xml version="1.0" encoding="UTF-8" standalone="no"?>
<svg
   xmlns:dc="http://purl.org/dc/elements/1.1/"
   xmlns:cc="http://creativecommons.org/ns#"
   xmlns:rdf="http://www.w3.org/1999/02/22-rdf-syntax-ns#"
   xmlns:svg="http://www.w3.org/2000/svg"
   xmlns="http://www.w3.org/2000/svg"
   xml:space="preserve"
   style="enable-background:new 0 0 30 30;"
   viewBox="0 0 30 30"
   y="0px"
   x="0px"
   id="Layer_1"
   version="1.1"><metadata
     id="metadata9"><rdf:RDF><cc:Work
         rdf:about=""><dc:format>image/svg+xml</dc:format><dc:type
           rdf:resource="http://purl.org/dc/dcmitype/StillImage" /></cc:Work></rdf:RDF></metadata><defs
     id="defs7" /><path
     id="path3"
     d="m 4.2242234,12.116533 c 0,-0.703945 0.3519727,-1.597414 1.028843,-2.734557 C 5.9299367,8.2448338 6.6068071,7.2972151 7.2295279,6.5661952 7.3919769,6.3766715 7.6085753,6.1059233 7.8522486,5.8081003 8.095922,5.5102773 8.258371,5.3478283 8.2854457,5.3207536 l 1.0017684,1.164217 C 10.045308,7.3242899 10.722179,8.2719085 11.3449,9.381976 c 0.622721,1.110068 0.947619,2.003536 0.947619,2.734557 0,1.110067 -0.379047,2.08476 -1.164217,2.86993 -0.758095,0.78517 -1.705714,1.191292 -2.8428563,1.191292 -1.1100673,0 -2.0847607,-0.406122 -2.8699304,-1.191292 C 4.6303457,14.174219 4.2242234,13.2266 4.2242234,12.116533 Z m 8.4473436,11.236048 c 0,-0.785169 0.216597,-1.678639 0.649794,-2.734556 0.433198,-1.028843 0.974695,-2.003537 1.62449,-2.869931 1.245442,-1.651565 2.409658,-3.032379 3.5468,-4.142447 0.108308,-0.08122 0.351973,-0.297823 0.703945,-0.649795 l 0.67687,0.649795 c 1.05592,1.001769 2.247211,2.382584 3.573877,4.115373 0.703945,0.920543 1.24544,1.895236 1.678639,2.92408 0.433196,1.028842 0.649795,1.922312 0.649795,2.707481 0,1.868163 -0.622721,3.411428 -1.895236,4.683943 -1.272517,1.272517 -2.842858,1.895237 -4.683945,1.895237 -1.841087,0 -3.384351,-0.649794 -4.656869,-1.922313 -1.272515,-1.272515 -1.86816,-2.842855 -1.86816,-4.656867 z M 16.786939,4.670958 c 0,-1.164217 0.893468,-2.7074816 2.70748,-4.60271854 l 0.67687,0.75809471 c 0.514423,0.59564603 0.974694,1.24544163 1.380816,2.00353653 0.406122,0.73102 0.622721,1.3537406 0.622721,1.8410873 0,0.7580949 -0.270748,1.3537409 -0.785169,1.8681623 -0.514421,0.4873466 -1.137144,0.7580948 -1.895238,0.7580948 -0.785168,0 -1.434965,-0.2436733 -1.949387,-0.7580948 C 17.057686,6.0246989 16.786939,5.401978 16.786939,4.670958 Z" /></svg>