<svg id="svg7384" width="14" height="14" version="1.1" xmlns="http://www.w3.org/2000/svg">
 <title id="title9167">Gnome Symbolic Icon Theme</title>
 <path id="path10839-9-8-2-2-5" d="m4.00151 4.00009h0.75c0.01-9e-5 0.0159-3.5e-4 0.0231 0 0.19121 8e-3 0.38241 0.0964 0.5156 0.23437l1.711 1.71094 1.7343-1.71094c0.1993-0.17287 0.33502-0.22912 0.51571-0.23437h0.74999v0.75c0 0.21485-0.0261 0.41298-0.1875 0.5625l-1.711 1.71093 1.6875 1.6875c0.1412 0.14113 0.21101 0.34009 0.21101 0.53907v0.75h-0.75c-0.19899-1e-5 -0.398-0.0698-0.5391-0.21094l-1.71096-1.71094-1.711 1.71094c-0.14109 0.14114-0.34012 0.21094-0.539 0.21094h-0.75v-0.75c0-0.19897 0.07-0.39794 0.21089-0.53907l1.71091-1.6875-1.7109-1.71093c-0.1581-0.14598-0.22742-0.35194-0.2109-0.5625v-0.75z" style="color:#bebebe;enable-background:new;fill:#bebebe;text-decoration-line:none;text-indent:0;text-transform:none"/>
</svg>
