<svg id="svg2532" width="13.758333mm" height="6.3499999mm" version="1.1" viewBox="0 0 13.758333 6.3499999" xmlns="http://www.w3.org/2000/svg">
 <defs id="defs9">
  <linearGradient id="linearGradient1991" x1="-2.9104166" x2="-2.9104166" y1=".79374987" y2="5.5562496" gradientUnits="userSpaceOnUse">
   <stop id="stop1985" style="stop-color:#ffffff" offset="0"/>
   <stop id="stop1987" style="stop-color:#d1d1d1" offset="1"/>
  </linearGradient>
 </defs>
 <path id="path3759-7-3-62-7-2" d="m2.9104162 0.52916659a2.645833 2.645833 0 0 0-2.6458334 2.6458333 2.645833 2.645833 0 0 0 2.6458334 2.6458333h7.9374998a2.645833 2.645833 0 0 0 2.645834-2.6458333 2.645833 2.645833 0 0 0-2.645834-2.6458333z" style="fill:#b0b0b0;font-variant-east_asian:normal;stroke-width:.26458332"/>
 <path id="path10839-9-8-2-2-5" d="m10.054904 2.3812532h0.198438c0.0026-2.38e-5 0.0042-9.26e-5 0.0061 0 0.05059 0.00212 0.101177 0.025506 0.136419 0.06201l0.452702 0.4526862 0.458867-0.4526862c0.05273-0.045738 0.08864-0.060621 0.136446-0.06201h0.198437v0.1984375c0 0.056846-0.0069 0.1092676-0.04961 0.1488281l-0.452702 0.4526836 0.446484 0.4464844c0.03736 0.037341 0.05583 0.089982 0.05583 0.1426289v0.1984375h-0.198437c-0.05265-2.7e-6 -0.105304-0.018468-0.142637-0.055811l-0.452693-0.4526864-0.452702 0.4526862c-0.03733 0.037343-0.08999 0.055811-0.14261 0.055811h-0.198438v-0.1984373c0-0.052644 0.01852-0.1052883 0.0558-0.1426289l0.452676-0.4464844-0.452675-0.4526836c-0.04183-0.038624-0.06017-0.093117-0.0558-0.1488281v-0.1984375z" style="color:#bebebe;enable-background:new;fill:#5c5c5c;opacity:.6;stroke-width:.26458332;text-decoration-line:none;text-indent:0;text-transform:none"/>
 <circle id="path3759-7-3-62" transform="scale(-1,1)" cx="-2.9104166" cy="3.1749997" r="2.3812499" style="fill:url(#linearGradient1991);stroke-width:.26458332"/>
 <path id="path3759-7-3-62-2-8" transform="scale(.26458333)" d="m10.996094 2c-0.079832 0-0.156938 0.0098437-0.236328 0.0117188a9.9999989 9.9999989 0 0 0-0.757813 0.0390624c-0.001925 1.916e-4 -0.0039348-1.926e-4 -0.0058592 0-0.1948357 0.0195043-0.3847625 0.0572925-0.5761719 0.0878907a9.9999989 9.9999989 0 0 0-0.4199219 0.0644531c-0.3243583 0.066143-0.6428775 0.147266-0.9550781 0.2441406-0.2048049 0.0635502-0.4025862 0.1425747-0.6015625 0.21875a9.9999989 9.9999989 0 0 0-1.2070313 0.5449219 9.9999989 9.9999989 0 0 0-1.59375 1.078125 9.9999989 9.9999989 0 0 0-0.7109375 0.6464844 9.9999989 9.9999989 0 0 0-0.6445312 0.7109375 9.9999989 9.9999989 0 0 0-0.5117188 0.6855468c-0.0268277 0.0388192-0.0557399 0.0760222-0.0820312 0.1152344a9.9999989 9.9999989 0 0 0-0.3652344 0.5996094c-0.0512722 0.0894093-0.1057319 0.1764736-0.1542969 0.2675781a9.9999989 9.9999989 0 0 0-0.2832031 0.5898438c-0.0448989 0.099412-0.0911013 0.1977324-0.1328125 0.2988281a9.9999989 9.9999989 0 0 0-0.2050781 0.5546875c-0.0471459 0.1368185-0.0954234 0.2727056-0.1367188 0.4121094a9.9999989 9.9999989 0 0 0-0.1347656 0.5273437c-0.0333046 0.1402657-0.0683918 0.2794212-0.0957031 0.4218754a9.9999989 9.9999989 0 0 0-0.0878907 0.574218c-0.0188454 0.142876-0.0400114 0.285008-0.0527343 0.429688a9.9999989 9.9999989 0 0 0-0.0449219 0.876953 9.9999989 9.9999989 0 0 0 0.0507812 0.998047 9.9999989 9.9999989 0 0 0 0 0.005859c0.0206525 0.207134 0.0605953 0.408077 0.09375 0.611328a9.9999989 9.9999989 0 0 0 0.0585938 0.384766c0.0658875 0.323758 0.1476857 0.643431 0.2441406 0.955078 0.0690878 0.223224 0.1542442 0.43802 0.2382813 0.654297a9.9999989 9.9999989 0 0 0 0.3417969 0.775391c0.0639477 0.130397 0.1200652 0.265433 0.1894531 0.392578a9.9999989 9.9999989 0 0 0 0.4101562 0.673828c0.029495 0.045176 0.0537826 0.094004 0.0839844 0.138672a9.9999989 9.9999989 0 0 0 0.0019531 0.003906 9.9999989 9.9999989 0 0 0 0.4609375 0.613281c0.0430844 0.054235 0.0808228 0.112702 0.125 0.166016a9.9999989 9.9999989 0 0 0 0.4902344 0.537109c0.0558951 0.058312 0.1067847 0.120785 0.1640625 0.177735a9.9999989 9.9999989 0 0 0 0.5292969 0.482421c0.0653644 0.056361 0.1284943 0.115239 0.1953125 0.169922a9.9999989 9.9999989 0 0 0 0.5234375 0.392578c0.0931419 0.0666 0.1838202 0.135774 0.2792969 0.199219a9.9999989 9.9999989 0 0 0 0.4628906 0.28125c0.1339084 0.078907 0.2665025 0.159674 0.4042968 0.232422a9.9999989 9.9999989 0 0 0 0.4160157 0.201172c0.1637621 0.076977 0.3276488 0.152507 0.4960937 0.220703a9.9999989 9.9999989 0 0 0 0.3964844 0.144531c0.1782552 0.063494 0.3563378 0.12621 0.5390625 0.179688a9.9999989 9.9999989 0 0 0 0.4375 0.113281c0.1663906 0.040564 0.3324436 0.081188 0.5019531 0.113281a9.9999989 9.9999989 0 0 0 0.5234375 0.080079c0.1563066 0.021064 0.3122153 0.042917 0.4707029 0.05664a9.9999989 9.9999989 0 0 0 0.871094 0.044922h30a9.9999989 9.9999989 0 0 0 10-10 9.9999989 9.9999989 0 0 0-10-10h-30c-0.001314-5e-7 -0.002593 0-0.003906 0zm4.324218 1h25.679688c4.982411-1.9e-6 9 4.0156381 9 8.998047 0 4.982408-4.017589 9.000002-9 9h-25.669922c3.346627-1.617802 5.667969-5.036521 5.667969-8.994141 0-3.9613441-2.326013-7.3851547-5.677735-9.003906zm-4.320312 0.0019531a8.9999998 8.9999998 0 0 1 9 8.9999999 8.9999998 8.9999998 0 0 1-8.941406 8.996094h-0.058594c-0.311401 0-0.618715-0.016233-0.921875-0.046875-0.2965074-0.02997-0.5897437-0.072988-0.8769531-0.13086a8.9999998 8.9999998 0 0 1-0.7519531-0.193359 8.9999998 8.9999998 0 0 1-0.1132813-0.029297 8.9999998 8.9999998 0 0 1-3.7929687-2.326172 8.9999998 8.9999998 0 0 1-0.59375-0.675781 8.9999998 8.9999998 0 0 1-0.0019532-0.001953 8.9999998 8.9999998 0 0 1-0.5214844-0.730469 8.9999998 8.9999998 0 0 1-0.4414062-0.769531 8.9999998 8.9999998 0 0 1-0.0175781-0.037109 8.9999998 8.9999998 0 0 1-0.3535157-0.791016 8.9999998 8.9999998 0 0 1-0.0058593-0.015625 8.9999998 8.9999998 0 0 1-0.2773438-0.835938 8.9999998 8.9999998 0 0 1-0.0058593-0.019531 8.9999998 8.9999998 0 0 1-0.1875-0.832031c-0.0061051-0.034916-0.0099222-0.070414-0.015625-0.105469a8.9999998 8.9999998 0 0 1-0.0917969-0.77539c-0.0067915-0.090582-0.0095676-0.182116-0.0136719-0.273438a8.9999998 8.9999998 0 0 1-0.015625-0.40625 8.9999998 8.9999998 0 0 1 4.1367188-7.5742186 8.9999998 8.9999998 0 0 1 0.7792968-0.4472656c5.223e-4 -2.654e-4 0.0014308 2.652e-4 0.0019532 0a8.9999998 8.9999998 0 0 1 0.0019531-0.0019532 8.9999998 8.9999998 0 0 1 0.7988281-0.3554687c0.0258635-0.0100869 0.052145-0.0194422 0.078125-0.0292969a8.9999998 8.9999998 0 0 1 0.7207031-0.2402344c0.0767557-0.021868 0.1548363-0.0406711 0.2324219-0.0605468a8.9999998 8.9999998 0 0 1 0.6464844-0.1425782c0.0883547-0.0158034 0.1783404-0.0277956 0.2675781-0.0410156a8.9999998 8.9999998 0 0 1 0.5742185-0.0703125c0.214326-0.0178764 0.430053-0.0304993 0.648438-0.0332031a8.9999998 8.9999998 0 0 1 0.113281-0.0039063z" style="color-rendering:auto;color:#000000;dominant-baseline:auto;fill-opacity:.13333334;fill:#000000;font-feature-settings:normal;font-variant-alternates:normal;font-variant-caps:normal;font-variant-ligatures:normal;font-variant-numeric:normal;font-variant-position:normal;image-rendering:auto;isolation:auto;mix-blend-mode:normal;shape-padding:0;shape-rendering:auto;solid-color:#000000;text-decoration-color:#000000;text-decoration-line:none;text-decoration-style:solid;text-indent:0;text-orientation:mixed;text-transform:none;white-space:normal"/>
</svg>
