<svg id="svg3759" width="13.758333mm" height="6.3499999mm" version="1.1" viewBox="0 0 13.758333 6.3499999" xmlns="http://www.w3.org/2000/svg">
 <defs id="defs10">
  <linearGradient id="linearGradient1991" x1="-2.9104166" x2="-2.9104166" y1=".79374987" y2="5.5562496" gradientTransform="translate(-7.9375)" gradientUnits="userSpaceOnUse">
   <stop id="stop1985" style="stop-color:#ffffff" offset="0"/>
   <stop id="stop1987" style="stop-color:#d1d1d1" offset="1"/>
  </linearGradient>
 </defs>
 <path id="path3759-7-3-62-7-2" d="m2.9104194 0.529163a2.645833 2.645833 0 0 0-2.6458334 2.645833 2.645833 2.645833 0 0 0 2.6458334 2.645833h7.9374996a2.645833 2.645833 0 0 0 2.645834-2.645833 2.645833 2.645833 0 0 0-2.645834-2.645833z" style="fill:@selected_bg_color@;stroke-width:.26458332"/>
 <rect id="rect5465-3-32" transform="scale(-1,1)" x="-13.758333" y="-2.1057129e-8" width="13.758333" height="6.3499999" style="opacity:0;stroke-width:.26458332"/>
 <circle id="path3759-7-3-62" transform="scale(-1,1)" cx="-10.847917" cy="3.175" r="2.3812499" style="fill:url(#linearGradient1991);stroke-width:.26458332"/>
 <path id="path3759-7-3-62-2-8" d="m10.848952 0.529163c0.02112 0 0.04152 0.0026 0.06253 0.0031a2.645833 2.645833 0 0 1 0.200505 0.01033c5.03e-4 5e-5 1e-3 -5.1e-5 0.0015 0 0.05155 0.0052 0.101802 0.01516 0.152446 0.02325a2.645833 2.645833 0 0 1 0.111104 0.01705c0.08582 0.0175 0.170094 0.03896 0.252697 0.0646 0.05419 0.01681 0.106518 0.03772 0.159164 0.05788a2.645833 2.645833 0 0 1 0.319361 0.144177 2.645833 2.645833 0 0 1 0.42168 0.285254 2.645833 2.645833 0 0 1 0.188102 0.171049 2.645833 2.645833 0 0 1 0.170532 0.188103 2.645833 2.645833 0 0 1 0.135392 0.181384c0.0071 0.01027 0.01475 0.02011 0.0217 0.03049a2.645833 2.645833 0 0 1 0.09664 0.158646c0.01357 0.02366 0.02797 0.04669 0.04082 0.0708a2.645833 2.645833 0 0 1 0.07493 0.156063c0.01188 0.0263 0.0241 0.05232 0.03514 0.07906a2.645833 2.645833 0 0 1 0.05426 0.146761c0.01247 0.0362 0.02525 0.07215 0.03617 0.109038a2.645833 2.645833 0 0 1 0.03566 0.139526c0.0088 0.03711 0.0181 0.07393 0.02532 0.111621a2.645833 2.645833 0 0 1 0.02326 0.151928c5e-3 0.0378 0.01059 0.07541 0.01395 0.113689a2.645833 2.645833 0 0 1 0.01189 0.232027 2.645833 2.645833 0 0 1-0.01344 0.264067 2.645833 2.645833 0 0 1 0 0.0016c-0.0055 0.0548-0.01603 0.10797-0.0248 0.161747a2.645833 2.645833 0 0 1-0.0155 0.101792c-0.01743 0.08566-0.03908 0.170241-0.0646 0.252697-0.01828 0.05906-0.04081 0.115893-0.06305 0.173116a2.645833 2.645833 0 0 1-0.09043 0.205156c-0.01692 0.0345-0.03177 0.07023-0.05013 0.103869a2.645833 2.645833 0 0 1-0.108521 0.178285c-0.0078 0.01195-0.01423 0.02487-0.02222 0.03669a2.645833 2.645833 0 0 1-5.16e-4 1e-3 2.645833 2.645833 0 0 1-0.121957 0.162264c-0.0114 0.01435-0.02138 0.02982-0.03307 0.04392a2.645833 2.645833 0 0 1-0.129707 0.14211c-0.01479 0.01543-0.02825 0.03196-0.04341 0.04703a2.645833 2.645833 0 0 1-0.140044 0.127643c-0.01729 0.01491-0.034 0.03049-0.05168 0.04496a2.645833 2.645833 0 0 1-0.138493 0.103869c-0.02464 0.01762-0.04864 0.03592-0.0739 0.05271a2.645833 2.645833 0 0 1-0.122473 0.07441c-0.03543 0.02088-0.07051 0.04225-0.10697 0.0615a2.645833 2.645833 0 0 1-0.110071 0.05323c-0.04333 0.02037-0.08669 0.04035-0.131258 0.05839a2.645833 2.645833 0 0 1-0.104904 0.03824c-0.04716 0.0168-0.09428 0.03339-0.142627 0.04754a2.645833 2.645833 0 0 1-0.115755 0.02997c-0.04402 0.01073-0.08796 0.02148-0.132809 0.02997a2.645833 2.645833 0 0 1-0.138492 0.02119c-0.04136 0.0056-0.08261 0.01136-0.12454 0.01499a2.645833 2.645833 0 0 1-0.230478 0.01189h-7.9374404a2.645833 2.645833 0 0 1-2.645833-2.645838 2.645833 2.645833 0 0 1 2.645833-2.645834h7.9384994zm-1.1441156 0.264583h-6.7944168c-1.318263-1e-6 -2.38125 1.062471-2.38125 2.380733s1.062987 2.381251 2.38125 2.38125h6.7918328c-0.8854617-0.428043-1.4996501-1.332579-1.4996501-2.3797 0-1.048105 0.6154243-1.953989 1.5022341-2.382283zm1.1430826 5.16e-4a2.3812499 2.3812499 0 0 0-2.3812501 2.38125 2.3812499 2.3812499 0 0 0 2.3657471 2.380216h0.0155c0.08239 0 0.163702-0.0043 0.243913-0.0124 0.07845-0.0079 0.156036-0.01931 0.232027-0.03462a2.3812499 2.3812499 0 0 0 0.198954-0.05116 2.3812499 2.3812499 0 0 0 0.02997-0.0078 2.3812499 2.3812499 0 0 0 1.003556-0.615466 2.3812499 2.3812499 0 0 0 0.157097-0.178801 2.3812499 2.3812499 0 0 0 5.16e-4 -5.29e-4 2.3812499 2.3812499 0 0 0 0.137976-0.193258 2.3812499 2.3812499 0 0 0 0.116789-0.203605 2.3812499 2.3812499 0 0 0 0.0047-0.0098 2.3812499 2.3812499 0 0 0 0.09353-0.20929 2.3812499 2.3812499 0 0 0 0.0015-0.0041 2.3812499 2.3812499 0 0 0 0.07338-0.221175 2.3812499 2.3812499 0 0 0 0.0015-0.0052 2.3812499 2.3812499 0 0 0 0.04961-0.220141c0.0016-0.0092 0.0026-0.01863 0.0041-0.0279a2.3812499 2.3812499 0 0 0 0.02429-0.205156c0.0018-0.02397 0.0025-0.04819 0.0036-0.07235a2.3812499 2.3812499 0 0 0 0.004244-0.107476 2.3812499 2.3812499 0 0 0-1.094506-2.004012 2.3812499 2.3812499 0 0 0-0.206189-0.118339c-1.38e-4 -7.1e-5 -3.79e-4 7e-5 -5.16e-4 0a2.3812499 2.3812499 0 0 0-5.16e-4 -5.16e-4 2.3812499 2.3812499 0 0 0-0.211358-0.09405c-0.0068-0.0027-0.0138-0.0051-0.02067-0.0078a2.3812499 2.3812499 0 0 0-0.190687-0.06356c-0.02031-0.0058-0.04097-0.01076-0.0615-0.01602a2.3812499 2.3812499 0 0 0-0.171049-0.03772c-0.02338-0.0042-0.04719-0.0074-0.0708-0.01085a2.3812499 2.3812499 0 0 0-0.151928-0.0186c-0.05671-0.0047-0.113785-0.0081-0.171566-0.0088a2.3812499 2.3812499 0 0 0-0.02997-1e-3z" style="color-rendering:auto;color:#000000;dominant-baseline:auto;fill-opacity:.13333334;fill:#000000;font-feature-settings:normal;font-variant-alternates:normal;font-variant-caps:normal;font-variant-ligatures:normal;font-variant-numeric:normal;font-variant-position:normal;image-rendering:auto;isolation:auto;mix-blend-mode:normal;shape-padding:0;shape-rendering:auto;solid-color:#000000;text-decoration-color:#000000;text-decoration-line:none;text-decoration-style:solid;text-indent:0;text-orientation:mixed;text-transform:none;white-space:normal"/>
 <rect id="rect3977-39-2" transform="rotate(45)" x="3.4544296" y=".55842328" width="1.3229166" height=".52916205" rx=".17638735" ry=".17638735" style="fill:#ffffff;stroke-width:.26458335"/>
 <rect id="rect3979-7-0" transform="rotate(45)" x="4.2481794" y="-1.0290767" width=".5291667" height="2.116662" ry="0" style="fill:#ffffff;stroke-width:.26458335"/>
</svg>
