<svg id="svg8635" width="13.758333mm" height="6.3499999mm" version="1.1" viewBox="0 0 13.758333 6.3499999" xmlns="http://www.w3.org/2000/svg">
 <path id="path3759-7-3-62-7-2" d="m2.9104163 0.52917a2.645833 2.645833 0 0 0-2.6458333 2.6458331 2.645833 2.645833 0 0 0 2.6458333 2.6458333h7.9374997a2.645833 2.645833 0 0 0 2.645834-2.6458333 2.645833 2.645833 0 0 0-2.645834-2.6458331z" style="fill:#000000;opacity:.2;stroke-width:.26458332"/>
 <path id="path10839-9-8-2-2-5" d="m10.054904 2.381256h0.198438c0.0026-2.3e-5 0.0042-9.2e-5 0.0061 0 0.05059 0.0021 0.101177 0.02551 0.136419 0.06201l0.452702 0.4526866 0.458867-0.4526866c0.05273-0.04574 0.08864-0.06062 0.136447-0.06201h0.198437v0.198438c0 0.05685-0.0069 0.109267-0.04961 0.148828l-0.452702 0.4526837 0.446484 0.4464844c0.03736 0.037341 0.05583 0.089982 0.05583 0.1426289v0.1984375h-0.198437c-0.05265-2.9e-6 -0.105304-0.018468-0.142637-0.055811l-0.452694-0.4526864-0.452702 0.4526862c-0.03733 0.037343-0.08999 0.055811-0.14261 0.055811h-0.198438v-0.1984373c0-0.052644 0.01852-0.1052885 0.0558-0.1426289l0.452676-0.4464844-0.452675-0.4526837c-0.04183-0.038624-0.06017-0.093117-0.0558-0.148828v-0.198438z" style="color:#bebebe;enable-background:new;fill:#ffffff;opacity:.6;stroke-width:.26458332;text-decoration-line:none;text-indent:0;text-transform:none"/>
 <circle id="path3759-7-3-62" transform="scale(-1,1)" cx="-2.9104166" cy="3.1750031" r="2.3812499" style="fill:#ffffff;stroke-width:.26458332"/>
 <path id="path3759-7-3-62-2-8" d="m2.9093834 0.52917c-0.021122 0-0.041523 0.0026-0.062528 0.0031a2.645833 2.645833 0 0 0-0.2005052 0.01033c-5.027e-4 5e-5 -0.00104-5.1e-5 -0.00155 0-0.05155 0.0052-0.1018018 0.01516-0.1524455 0.02325a2.645833 2.645833 0 0 0-0.1111045 0.01705c-0.08582 0.0175-0.1700947 0.03896-0.2526978 0.0646-0.054188 0.01681-0.1065176 0.03772-0.1591634 0.05788a2.645833 2.645833 0 0 0-0.3193603 0.144178 2.645833 2.645833 0 0 0-0.4216797 0.285254 2.645833 2.645833 0 0 0-0.1881022 0.171049 2.645833 2.645833 0 0 0-0.1705322 0.188102 2.645833 2.645833 0 0 0-0.1353923 0.181384c-0.0071 0.01027-0.014748 0.02011-0.021704 0.03049a2.645833 2.645833 0 0 0-0.096635 0.158647c-0.013566 0.02366-0.027975 0.04669-0.040824 0.0708a2.645833 2.645833 0 0 0-0.074931 0.156063c-0.01188 0.0263-0.024104 0.05232-0.03514 0.07906a2.645833 2.645833 0 0 0-0.05426 0.146761c-0.012474 0.0362-0.025247 0.07215-0.036174 0.109037a2.645833 2.645833 0 0 0-0.035657 0.139526c-0.00881 0.03711-0.018095 0.07393-0.025321 0.111621a2.645833 2.645833 0 0 0-0.023254 0.1519287c-0.00499 0.037803-0.010586 0.075408-0.013953 0.1136883a2.645833 2.645833 0 0 0-0.011886 0.2320271 2.645833 2.645833 0 0 0 0.013436 0.2640666 2.645833 2.645833 0 0 0 0 0.00156c0.00546 0.054804 0.016032 0.1079704 0.024805 0.1617472a2.645833 2.645833 0 0 0 0.015503 0.1017918c0.017433 0.085661 0.039075 0.1702412 0.064596 0.2526978 0.01828 0.059061 0.040811 0.1158927 0.063045 0.173116a2.645833 2.645833 0 0 0 0.090434 0.2051556c0.01692 0.034501 0.031767 0.070229 0.050126 0.1038696a2.645833 2.645833 0 0 0 0.1085205 0.1782836c0.0078 0.011954 0.01423 0.024871 0.022221 0.03669a2.645833 2.645833 0 0 0 5.159e-4 0.00103 2.645833 2.645833 0 0 0 0.1219564 0.1622639c0.011399 0.014348 0.021384 0.029819 0.033073 0.043925a2.645833 2.645833 0 0 0 0.1297079 0.1421101c0.014789 0.015428 0.028253 0.031958 0.043408 0.047026a2.645833 2.645833 0 0 0 0.140043 0.1276435c0.017294 0.014912 0.033997 0.03049 0.051676 0.044959a2.645833 2.645833 0 0 0 0.1384929 0.1038692c0.024644 0.017621 0.048636 0.035924 0.073897 0.05271a2.645833 2.645833 0 0 0 0.1224731 0.074414c0.03543 0.020878 0.070512 0.042247 0.1069702 0.061495a2.645833 2.645833 0 0 0 0.1100708 0.053227c0.043329 0.020368 0.08669 0.040351 0.1312581 0.058394a2.645833 2.645833 0 0 0 0.1049041 0.038242c0.047163 0.016798 0.094281 0.033393 0.142627 0.047542a2.645833 2.645833 0 0 0 0.1157552 0.029972c0.044024 0.010731 0.087959 0.021481 0.1328084 0.029972a2.645833 2.645833 0 0 0 0.1384928 0.021188c0.041356 0.00557 0.082607 0.011356 0.1245402 0.014986a2.645833 2.645833 0 0 0 0.2304769 0.011885h7.9375003a2.645833 2.645833 0 0 0 2.645833-2.6458319 2.645833 2.645833 0 0 0-2.645833-2.6458331h-7.9385302zm1.1441159 0.264583h6.7944177c1.318263 0 2.38125 1.062471 2.38125 2.3807334 0 1.318262-1.062987 2.3812504-2.38125 2.3812499h-6.7918337c0.8854617-0.4280434 1.4996501-1.3325795 1.4996501-2.3796998 0-1.0481055-0.6154243-1.9539885-1.5022341-2.3822835zm-1.1430825 5.16e-4a2.3812499 2.3812499 0 0 1 2.38125 2.38125 2.3812499 2.3812499 0 0 1-2.365747 2.3802165h-0.015502c-0.082391 0-0.1637017-0.00429-0.2439128-0.012401-0.078451-0.00793-0.1560362-0.019312-0.232027-0.034623a2.3812499 2.3812499 0 0 1-0.1989543-0.05116 2.3812499 2.3812499 0 0 1-0.029972-0.00775 2.3812499 2.3812499 0 0 1-1.0035563-0.6154663 2.3812499 2.3812499 0 0 1-0.1570963-0.1788004 2.3812499 2.3812499 0 0 1-5.16e-4 -5.292e-4 2.3812499 2.3812499 0 0 1-0.137978-0.1932571 2.3812499 2.3812499 0 0 1-0.1167887-0.2036051 2.3812499 2.3812499 0 0 1-0.00465-0.00982 2.3812499 2.3812499 0 0 1-0.093534-0.2092897 2.3812499 2.3812499 0 0 1-0.00155-0.00413 2.3812499 2.3812499 0 0 1-0.073381-0.2211753 2.3812499 2.3812499 0 0 1-0.00155-0.00517 2.3812499 2.3812499 0 0 1-0.049609-0.2201415c-0.00162-0.00924-0.00263-0.018629-0.00413-0.027905a2.3812499 2.3812499 0 0 1-0.024288-0.2051553c-0.0018-0.023966-0.00253-0.048185-0.00362-0.072347a2.3812499 2.3812499 0 0 1-0.00413-0.1074875 2.3812499 2.3812499 0 0 1 1.0945068-2.0040121 2.3812499 2.3812499 0 0 1 0.206189-0.118339c1.381e-4 -7e-5 3.783e-4 7e-5 5.159e-4 0a2.3812499 2.3812499 0 0 1 5.159e-4 -5.16e-4 2.3812499 2.3812499 0 0 1 0.2113583-0.09405c0.00684-0.0027 0.013797-0.0051 0.020671-0.0078a2.3812499 2.3812499 0 0 1 0.190686-0.06356c0.020308-0.0058 0.040967-0.01076 0.061495-0.01602a2.3812499 2.3812499 0 0 1 0.171049-0.03772c0.023377-0.0042 0.047186-0.0074 0.070797-0.01085a2.3812499 2.3812499 0 0 1 0.1519287-0.0186c0.056707-0.0047 0.1137848-0.0081 0.1715659-0.0088a2.3812499 2.3812499 0 0 1 0.029971-1e-3z" style="color-rendering:auto;color:#000000;dominant-baseline:auto;fill-opacity:.13333334;fill:#000000;font-feature-settings:normal;font-variant-alternates:normal;font-variant-caps:normal;font-variant-ligatures:normal;font-variant-numeric:normal;font-variant-position:normal;image-rendering:auto;isolation:auto;mix-blend-mode:normal;shape-padding:0;shape-rendering:auto;solid-color:#000000;text-decoration-color:#000000;text-decoration-line:none;text-decoration-style:solid;text-indent:0;text-orientation:mixed;text-transform:none;white-space:normal"/>
</svg>
