<?xml version="1.0" encoding="UTF-8" standalone="no"?>
<svg
   xmlns:dc="http://purl.org/dc/elements/1.1/"
   xmlns:cc="http://creativecommons.org/ns#"
   xmlns:rdf="http://www.w3.org/1999/02/22-rdf-syntax-ns#"
   xmlns:svg="http://www.w3.org/2000/svg"
   xmlns="http://www.w3.org/2000/svg"
   version="1.1"
   id="svg2"
   viewBox="0 0 1146.4 1200">
  <defs
     id="defs10" />
  <path
     id="path4"
     fill="#fff"
     d="M573.2 0c316.5 0 573.2 256.6 573.2 573.2s-256.6 573.2-573.2 573.2S0 889.7 0 573.2 256.6 0 573.2 0z" />
  <path
     id="path6"
     fill="#ec1a23"
     d="M723.1 1128.4c-89.9 92.2-196 83.3-267.1 40.6-73.6-44.3-120.5-141.7-141-221.4-19.3-74.8-28.2-170.3-25.5-298.5C188.6 558.1 99.9 468.3 62 383.4c-36.4-81.5-18.5-192.8 55-249 27.6-21.1 65.3-35 116.9-35.2-6 116.7 78.9 192.8 191.5 287.1 73.8-79.4 166.9-157.6 260.5-211.8 73-42.3 144.7-69.7 205.8-76.2 63.8-6.9 129 13.6 170.9 64.2 27.2 32.9 42 79.8 20.6 144.9-52.7 7.5-98.3 19.1-138.1 34-61.5 23-103.8 59.6-148 95-80.9 64.9-149.2 130.6-206.1 198-2.2 108.4-1.6 258.2 28.3 363.5 16.4 57.8 46.7 104.6 104 130.6z" />
</svg>
