<svg xmlns="http://www.w3.org/2000/svg" xml:space="preserve" viewBox="0 0 124.6 119.4" y="0" x="0" id="Layer_1" version="1.1"><style id="style3" type="text/css">.st1{fill:#fff}</style><g transform="matrix(1.308 0 0 1.308 -18.311 -18.9)" id="g5"><path id="path7" d="M16 60.4c0-25.1 20.3-45.5 45.5-45.5 24.8 0 45.1 20.3 45.1 45.5 0 24.8-20.3 45.1-45.1 45.1-25.2 0-45.5-20.3-45.5-45.1z" fill="#3276bc"/><path id="path9" d="M70.6 54.3c-2.5 3.2-4.5 4.5-5.7 4.1-.6-.3-.9-1-.9-1.6v-.3c0-2.5 2.2-6 5.1-7.9.3 2.3.6 4.2 1.5 5.7zm5.1-8.2c-.3 0-.3.3-.3.3-.3.6-1.3 2.9-2.9 5.1-.3-1.6-.6-2.9-.6-4.5 1.3-.3 2.6-.6 3.8-.9zm10.5.6c-1.6-1.9-3.2-2.9-7-3.2 0-.3.3-.6 0-1.3-.7-.9-1.9-1.6-4.5-1.6h-.6c-.7 0-1 0-1.3.6v.3c0 .3.6.6.6.6 1 .7 1.9 1 2.2 1.3-1.3.3-2.5.6-3.8 1.3 0-1.9.3-3.8.6-6 1.6 0 2.9-.3 4.5-.9 2.5-.7 3.8-1.9 3.8-3.2 0-.6-.3-1.3-.6-1.3-.9-.6-2.5-.3-4.1.9-.6.7-1.6 1-2.5 1.6 0-.9.3-1.9.7-2.2v-.9.3c0-1-1.3-1.9-5.1-1.9h-.3c-.3 0-.9-.3-.9.3s.6.6 1.3 1l.6.6c0 1.3-.3 2.5-.3 3.5h-4.1c-.3 0-.6-.3-.9-.6 0-.3-.3-.3-.3-.3-.9-.6-1.8-.6-1.8-.6-.6.3-.9.6-.9.6 0 .6.3.9.6 1.3l.3.3c.6 1.3 1.9 1.9 1.9 1.9h.3c1.6.3 2.9.3 4.5.3-.3 1.6-.3 3.5-.3 4.8v1.9c-7 3.5-7.9 7.9-7.9 10.2 0 2.2 1 3.8 1.9 4.1.3 0 .9.6 2.2.6 1.6 0 4.5-1 7.3-3.8 0 0 .3 0 .3.3.9.7 1.6 1 2.5 1 .6 0 .9-.6.9-.6 0-.3.3-.3.3-.7l-.3-.3c-.6-.6-1.3-1.3-1.9-2.2 1.9-2.2 3.5-5.1 5.1-8.6 3.5 0 5.7 1.9 6 5.7 0 .3.3.6.3.6 0 5.4-8.6 8.6-8.6 8.6-1 0-1.3.3-1.3.9 0 .6.7 1 1.3 1h.3c.3 0 10.8-3.2 11.1-11.1v-.3c.1-1.9-.8-3.5-2.1-4.8z" class="st1" fill="#fff"/><path id="path11" d="M50.6 81.1v-7c-3.2-.6-6-.6-7.6.3-1.9.6-3.8 1.9-3.8 4.8 0 2.5 1.6 4.1 4.8 4.1 2.8 0 5-.7 6.6-2.2zm4.5 5l-3.8-.3c-.3-.7-.3-1.3-.3-2.5h-.3c-1.9 2.5-4.8 3.2-8.6 3.2-1.9 0-3.5-.3-4.8-1.6-1.6-1.3-2.2-3.2-2.2-5.4 0-2.5.6-4.8 2.9-6.3 2.2-2.2 7.3-3.2 12.7-1.9.3.3 0-.6 0-1.3 0-2.2-.6-3.5-1.6-4.1-1.3-.7-2.9-1-5.1-1-2.5 0-2.5.3-5.1 1l-.7-3.5c2.5-.6 3.8-1.3 7-1.3s5.4.6 7 1.9c1.6 1.3 2.5 3.5 2.5 6.3v4.5c-.3 1.9-.3 3.5-.3 4.1 0 3.2.4 5.7.7 8.2z" class="st1" fill="#fff"/><path id="path13" d="M60.5 42.6c-4.1-2.5-12.4-3.8-18.4.3l-6-6.1v19.7h19.1l-6.3-7c2-3.7 7.1-6.6 11.6-6.9z" class="st1" fill="#fff"/><path id="path15" d="M59.5 81.1c4.1 2.5 11.8 4.1 17.8-.3l5.7 6V68H64.6l6.7 6.3c-2.6 3.9-7.3 6.4-11.8 6.8z" class="st1" fill="#fff"/></g></svg>