<svg xmlns="http://www.w3.org/2000/svg" xmlns:xlink="http://www.w3.org/1999/xlink" height="512" width="512"><defs><linearGradient id="a"><stop offset="0" stop-opacity=".329"/><stop offset="1" stop-opacity="0"/></linearGradient><linearGradient gradientUnits="userSpaceOnUse" y2="466.745" x2="1025.764" y1="389.275" x1="831.524" id="b" xlink:href="#a"/></defs><path d="M479.06 95.98c15.977 0 28.838 12.864 28.838 28.842V478.38c0 15.977-12.861 28.84-28.838 28.84H280.54L251.1 95.982z" fill="#e5e5e5" fill-rule="evenodd"/><path d="M1039.571 318.464v134.949a25.548 25.548 0 0 1-25.604 25.605h-176.25l-26.136-365.107z" opacity=".239" fill="url(#b)" fill-rule="evenodd" transform="matrix(1.12636 0 0 1.12636 -663.028 -32.323)"/><path d="M247.219 414.346l31.966 92.875 91.578-91.579z" fill="#4354b6" fill-rule="evenodd"/><path d="M367.81 200.78v25.919h-82.939v23.325h129.166c-8.114 25.081-20.636 44.072-34.747 60.212-21.544-24.803-27.16-37.012-27.16-37.012l-23.183.23s1.805 17.532 34.28 53.583c-6.356 6.19-12.808 12.095-19.138 17.946l9.037 24.615c8.884-8.3 17.69-16.801 26.13-25.653 23.273 23.875 58.448 58.478 58.448 58.478l16.055-14.7s-36.926-37.065-59.24-60.768c18.755-22.328 34.3-47.255 42.569-76.93h33.1v-23.326h-81.21v-25.92H367.81z" fill="#668290" fill-rule="evenodd"/><path d="M33.72 4.402c-15.978 0-28.84 12.864-28.84 28.84v353.56c0 15.977 12.862 28.84 28.84 28.84h335.935L230.141 4.403H33.719z" fill="#5390f5" fill-rule="evenodd"/><path d="M137.988 293.444c-17.202-3.951-29.997-11.158-43.03-24.236-10.8-10.837-15.86-18.658-20.43-31.573-13.095-37.002.928-77.057 34.694-99.1 14.599-9.53 29.082-13.66 47.659-13.59 19.597.075 38.994 6.828 51.84 18.05l5.068 4.428-15.52 15.57-4.592-3.744c-6.186-5.043-18.009-10.137-27.846-11.668-50.729-7.891-88.357 45.925-64.657 92.473 7.076 13.9 23.383 26.748 39.25 31 9.873 2.645 23.795 2.458 33.231-.07 15.063-4.036 28.147-14.318 33.915-26.73 3.696-7.955 4.612-14.053 4.612-18.592h-54.71v-21.65h77.196c.39 1.33 1.085 6.353 1.085 12.553 0 36.564-19.368 64.165-52.376 74.794-12.655 4.075-29.318 4.902-45.39 2.084z" fill="#fff"/></svg>