<svg xmlns="http://www.w3.org/2000/svg" xmlns:xlink="http://www.w3.org/1999/xlink" height="96" width="96" version="1.0"><defs><linearGradient id="c"><stop offset="0" stop-color="#536d98"/><stop offset="1" stop-color="#7990b6"/></linearGradient><linearGradient id="e"><stop offset="0" stop-opacity=".137"/><stop offset="1" stop-color="#fff" stop-opacity="0"/></linearGradient><linearGradient gradientTransform="scale(1.00587 .99417)" gradientUnits="userSpaceOnUse" id="d" y2="7.017" x2="45.448" y1="92.54" x1="45.448"><stop offset="0"/><stop offset="1" stop-opacity=".588"/></linearGradient><linearGradient id="b"><stop offset="0" stop-color="#fff"/><stop offset="1" stop-color="#fff" stop-opacity="0"/></linearGradient><linearGradient id="a"><stop offset="0" stop-color="#f7d687"/><stop offset="1" stop-color="#fbe9bf"/></linearGradient><linearGradient gradientUnits="userSpaceOnUse" xlink:href="#a" id="o" y2="5.988" x2="48" y1="90" x1="48"/><filter id="i" color-interpolation-filters="sRGB"><feGaussianBlur stdDeviation="1.71"/></filter><linearGradient gradientUnits="userSpaceOnUse" xlink:href="#b" id="u" y2="63.893" x2="36.357" y1="6" x1="36.357"/><linearGradient gradientTransform="matrix(.92754 0 0 .88555 -22.754 .664)" gradientUnits="userSpaceOnUse" xlink:href="#c" id="s" y2="44.972" x2="99.195" y1="18.936" x1="99.195"/><linearGradient gradientTransform="translate(-1 -1)" gradientUnits="userSpaceOnUse" xlink:href="#d" id="q" y2="16.413" x2="73.214" y1="44.5" x1="73.214"/><filter id="r" color-interpolation-filters="sRGB"><feGaussianBlur stdDeviation=".375"/></filter><linearGradient gradientUnits="userSpaceOnUse" xlink:href="#e" id="t" y2="5.988" x2="48" y1="90" x1="48"/><linearGradient id="f"><stop offset="0" stop-color="#fff"/><stop offset="1" stop-color="#fff" stop-opacity="0"/></linearGradient><radialGradient gradientTransform="matrix(1.15731 0 0 .9959 -7.551 .197)" gradientUnits="userSpaceOnUse" xlink:href="#f" id="p" fy="90.172" fx="48" r="42" cy="90.172" cx="48"/><linearGradient id="g"><stop offset="0" stop-color="#fff"/><stop offset="1" stop-color="#fff" stop-opacity="0"/></linearGradient><clipPath id="v"><rect y="6" x="6" ry="6" rx="6" height="84" width="84" fill="#fff"/></clipPath><filter id="x" color-interpolation-filters="sRGB" height="1.384" width="1.384" y="-.192" x="-.192"><feGaussianBlur stdDeviation="5.28"/></filter><linearGradient gradientUnits="userSpaceOnUse" xlink:href="#g" id="w" y2="138.661" x2="48" y1="20.221" x1="48"/><linearGradient gradientTransform="matrix(1.00587 0 0 .99417 100 0)" gradientUnits="userSpaceOnUse" id="h" y2="7.017" x2="45.448" y1="92.54" x1="45.448"><stop offset="0"/><stop offset="1" stop-opacity=".588"/></linearGradient><linearGradient gradientTransform="matrix(1.0238 0 0 1.0119 -1.143 -98.071)" gradientUnits="userSpaceOnUse" xlink:href="#h" id="k" y2="90.239" x2="32.251" y1="6.132" x1="32.251"/><linearGradient gradientTransform="matrix(1.0238 0 0 1.0119 -1.143 -98.071)" gradientUnits="userSpaceOnUse" xlink:href="#h" id="l" y2="90.239" x2="32.251" y1="6.132" x1="32.251"/><linearGradient gradientTransform="matrix(1.0238 0 0 1.0119 -1.143 -98.071)" gradientUnits="userSpaceOnUse" xlink:href="#h" id="m" y2="90.239" x2="32.251" y1="6.132" x1="32.251"/><linearGradient gradientTransform="translate(0 -97)" gradientUnits="userSpaceOnUse" xlink:href="#h" id="n" y2="90.239" x2="32.251" y1="6.132" x1="32.251"/><linearGradient gradientTransform="matrix(1.0238 0 0 1.0119 -1.143 -98.071)" gradientUnits="userSpaceOnUse" xlink:href="#h" id="j" y2="90.239" x2="32.251" y1="6.132" x1="32.251"/></defs><g transform="scale(1 -1)"><path d="M12-95.031c-5.511 0-10.031 4.52-10.031 10.031v71C1.969-8.489 6.489-3.969 12-3.969h72c5.511 0 10.031-4.52 10.031-10.031v-71c0-5.511-4.52-10.031-10.031-10.031H12z" opacity=".08" fill="url(#j)"/><path d="M12-94.031c-4.972 0-9.031 4.06-9.031 9.031v71c0 4.972 4.06 9.031 9.031 9.031h72c4.972 0 9.031-4.06 9.031-9.031v-71c0-4.972-4.06-9.031-9.031-9.031H12z" opacity=".1" fill="url(#k)"/><path d="M12-93c-4.41 0-8 3.59-8 8v71c0 4.41 3.59 8 8 8h72c4.41 0 8-3.59 8-8v-71c0-4.41-3.59-8-8-8H12z" opacity=".2" fill="url(#l)"/><rect y="-92" x="5" ry="7" rx="7" height="85" width="86" opacity=".3" fill="url(#m)"/><rect y="-91" x="6" ry="6" rx="6" height="84" width="84" opacity=".45" fill="url(#n)"/></g><rect y="6" x="6" ry="6" rx="6" height="84" width="84" fill="url(#o)"/><path d="M81.52 90h-9.919l2.48-4H84l-2.48 4z" fill="#ca1e18"/><path d="M66.642 90h-9.92l2.48-4h9.92l-2.48 4z" fill="#2c72c7"/><path d="M51.763 90h-9.919l2.48-4h9.92l-2.48 4z" fill="#ca1e18"/><path d="M36.885 90h-9.919l2.48-4h9.919l-2.48 4z" fill="#2c72c7"/><path d="M21.919 90H12l2.48-4h9.919l-2.48 4z" fill="#ca1e18"/><path d="M86 14.48v9.919l4-2.48V12l-4 2.48z" fill="#2c72c7"/><path d="M86 29.358v9.92l4-2.48v-9.92l-4 2.48z" fill="#ca1e18"/><path d="M86 44.237v9.919l4-2.48v-9.92l-4 2.48z" fill="#2c72c7"/><path d="M86 59.115v9.919l4-2.48v-9.919l-4 2.48z" fill="#ca1e18"/><path d="M86 74.081V84l4-2.48v-9.919l-4 2.48z" fill="#2c72c7"/><g><path d="M6 14.48v9.919l4-2.48V12l-4 2.48z" fill="#2c72c7"/><path d="M6 29.358v9.92l4-2.48v-9.92l-4 2.48z" fill="#ca1e18"/><path d="M6 44.237v9.919l4-2.48v-9.92l-4 2.48z" fill="#2c72c7"/><path d="M6 59.115v9.919l4-2.48v-9.919l-4 2.48z" fill="#ca1e18"/><path d="M6 74.081V84l4-2.48v-9.919l-4 2.48z" fill="#2c72c7"/></g><g><path d="M81.52 10h-9.919l2.48-4H84l-2.48 4z" fill="#ca1e18"/><path d="M66.642 10h-9.92l2.48-4h9.92l-2.48 4z" fill="#2c72c7"/><path d="M51.763 10h-9.919l2.48-4h9.92l-2.48 4z" fill="#ca1e18"/><path d="M36.885 10h-9.919l2.48-4h9.919l-2.48 4z" fill="#2c72c7"/><path d="M21.919 10H12l2.48-4h9.919l-2.48 4z" fill="#ca1e18"/></g><path style="text-align:start;line-height:100%;-inkscape-font-specification:Hurontario" d="M41.283 47.267c-.103 0-.19.054-.274.127a1.28 1.28 0 0 0-.254.296c-.16.248-.345.633-.527 1.097a.05.05 0 0 1 0 .021.05.05 0 0 1-.021 0 .05.05 0 0 1-.022 0h-.063c-.027 0-.041.009-.063 0-.023-.008-.054-.028-.085-.042a1.084 1.084 0 0 1-.084-.042c-.024-.013-.052-.033-.085-.042H39.763a.227.227 0 0 0-.042 0 .05.05 0 0 1-.021.02.057.057 0 0 0-.021.022.229.229 0 0 0-.021.042l-.106.443v.021c0 .01-.002.033 0 .043v.02c.014.03.053.057.085.064.033.008.056.004.126.042a.05.05 0 0 1 .021 0 .05.05 0 0 1 0 .021c.005.002.02-.001.043 0 .022.002.054.01.084.022a.05.05 0 0 1 .021.02.05.05 0 0 1 0 .022.05.05 0 0 1 0 .02l-1.266 3.23a.05.05 0 0 1 0 .022.05.05 0 0 1-.022 0 .05.05 0 0 1-.02 0h-.443c-.016.001-.03.013-.043.02-.014.008-.033.01-.042.022v.021a.05.05 0 0 1 0 .021l-.106.422v.042a.227.227 0 0 0 0 .043v.02c.01.013.029.015.042.022.013.008.027.02.043.021h.253a.05.05 0 0 1 .02 0 .05.05 0 0 1 .022 0 .05.05 0 0 1 0 .021.05.05 0 0 1 0 .021.05.05 0 0 1 0 .021c-.198.498-.373.937-.507 1.204a2.623 2.623 0 0 1-.19.337 2.2 2.2 0 0 1-.063.085.05.05 0 0 1-.021 0 .05.05 0 0 1-.021 0H37.209c-.015.001-.029.013-.042.02-.014.008-.033.01-.042.022v.042l-.085.465a.227.227 0 0 0 0 .042c.002.004-.002.017 0 .02.003.007.018.017.021.022.008.011.01.013.021.021a.05.05 0 0 1 .022.021c.01 0 .032.002.042 0h.359a.321.321 0 0 0 .21-.084c.062-.051.126-.118.19-.211.126-.183.268-.456.423-.802.031-.063.08-.199.169-.423.08-.2.187-.486.316-.823a.05.05 0 0 1 0-.021.05.05 0 0 1 .021 0 .05.05 0 0 1 .022 0h.506a.05.05 0 0 1 .021 0 .05.05 0 0 1 .021 0 .05.05 0 0 1 0 .021.05.05 0 0 1 0 .021.05.05 0 0 1 0 .021c-.108.27-.21.538-.316.803-.18.473-.275.81-.275 1.055 0 .127.036.235.106.317.069.08.174.126.295.126h2.85c.193 0 .362-.115.549-.295.08-.078.177-.23.274-.36a.05.05 0 0 1 0-.02.05.05 0 0 1 .021 0 .05.05 0 0 1 .022 0 .05.05 0 0 1 .02 0 .05.05 0 0 1 .022.02.05.05 0 0 1 0 .022c.008.176.038.336.105.443.078.124.227.19.38.19h.549c.174 0 .333-.108.486-.274.153-.167.314-.402.464-.718.18-.468.366-.808.549-1.034.165-.204.319-.3.464-.317a.05.05 0 0 1 .021 0 .05.05 0 0 1 .021.021.05.05 0 0 1 0 .021.658.658 0 0 1-.042.17c-.029.081-.073.198-.126.337l-.507 1.33a.677.677 0 0 0-.042.253c0 .052.013.104.042.148.024.037.08.063.127.063H45.505s.017.006.02 0v-.02c.01-.007.01-.03.022-.043.012-.013.036-.016.042-.021.019-.031.039-.074.064-.127.05-.106.121-.26.21-.464.231-.513.405-.888.55-1.119.123-.2.232-.352.337-.443.105-.09.199-.127.275-.127a.05.05 0 0 1 .02 0 .05.05 0 0 1 .022 0 .05.05 0 0 1 0 .021.05.05 0 0 1 0 .021.05.05 0 0 1 0 .021s.002.02 0 .021c-.002.008.002.012 0 .022-.01.037-.038.102-.063.168-.057.147-.146.342-.254.592-.212.5-.295.864-.295 1.118 0 .108.039.203.105.275a.324.324 0 0 0 .254.105c.003 0 .067.004.126 0h.38a.587.587 0 0 0 .317-.105c.045-.028.112-.084.169-.127a.05.05 0 0 1 .02 0 .05.05 0 0 1 .022 0 .05.05 0 0 1 .021 0 .05.05 0 0 1 0 .021c.008.024.001.035 0 .042.036.083.14.17.232.17h1.583c.18 0 .329-.093.507-.254.082-.075.196-.217.296-.338a.05.05 0 0 1 .02-.02.05.05 0 0 1 .022 0 .05.05 0 0 1 .02 0 .05.05 0 0 1 .022 0 .05.05 0 0 1 0 .02.05.05 0 0 1 0 .021.05.05 0 0 1 0 .021.564.564 0 0 0-.106.317c0 .057 0 .103.022.148.007.016.035.027.063.042.028.015.058.042.084.042h.971c.016-.001.03-.013.042-.02.014-.008.033-.01.043-.022.003-.004-.003-.017 0-.021a.05.05 0 0 1 0-.021l.105-.443v-.022c0-.01.002-.032 0-.042v-.02c-.002-.005.003-.018 0-.022-.018-.026-.052-.04-.084-.042h-.191a.05.05 0 0 1-.02 0 .05.05 0 0 1-.021 0 .05.05 0 0 1 0-.021.05.05 0 0 1 0-.021.05.05 0 0 1 0-.022c.256-.326.422-.68.422-1.076 0-.192-.045-.466-.148-.823a.05.05 0 0 1 0-.021.05.05 0 0 1 0-.022c.176-.452.253-.81.253-1.055 0-.073.005-.116-.02-.169a.161.161 0 0 0-.064-.063.268.268 0 0 0-.106-.042c-.086 0-.157.067-.21.126-.053.057-.091.126-.148.232a.05.05 0 0 1-.022.022c0 .002-.02-.003-.02 0-.073.147-.12.27-.148.4 0 .004.002.008 0 .022-.022.1-.022.212-.022.295 0 .075.01.174.022.275a.05.05 0 0 1 0 .02c-.162.36-.367.749-.655 1.162-.187.275-.344.485-.485.612-.071.063-.136.097-.19.127a.327.327 0 0 1-.148.042h-1.393a.05.05 0 0 1-.021 0 .05.05 0 0 1-.021 0 .05.05 0 0 1 0-.021.05.05 0 0 1 0-.021.05.05 0 0 1 0-.022.05.05 0 0 1 0-.02c.11-.104.232-.212.295-.275.256-.234.502-.447.76-.676a.05.05 0 0 1 0-.02c.337-.338.549-.62.549-.908 0-.125-.054-.253-.148-.317-.097-.067-.226-.084-.38-.084-.194 0-.357.024-.485.084-.26.126-.484.435-.697.908a5.181 5.181 0 0 0-.338 1.034.05.05 0 0 1 0 .021.05.05 0 0 1-.02 0 .05.05 0 0 1 0 .021c-.08.075-.158.129-.212.17-.027.02-.046.03-.063.041-.018.012-.029.015-.043.021-.073.037-.207.064-.4.064-.112.003-.184-.018-.233-.021a.05.05 0 0 1-.02 0 .05.05 0 0 1-.022 0 .05.05 0 0 1 0-.021.05.05 0 0 1 0-.022.05.05 0 0 1 0-.02c.006-.024.015-.03.021-.043.006-.014.01-.033.021-.063.052-.142.128-.321.232-.57.22-.507.317-.89.317-1.161a.508.508 0 0 0-.084-.317c-.061-.077-.165-.105-.275-.105-.165 0-.308.09-.464.232-.045.04-.109.14-.17.21a.05.05 0 0 1-.02 0 .05.05 0 0 1-.021 0 .05.05 0 0 1-.021 0 .05.05 0 0 1-.022 0 .05.05 0 0 1 0-.02.05.05 0 0 1 0-.021c-.006-.111-.003-.214-.042-.275-.05-.08-.167-.126-.274-.126a.82.82 0 0 0-.443.147.05.05 0 0 1-.022 0 .05.05 0 0 1-.02 0 .05.05 0 0 1-.022 0 .05.05 0 0 1 0-.02l-.105-.148a.057.057 0 0 0-.021-.022c-.006-.003-.016-.018-.022-.02-.004-.002-.016 0-.02 0a.227.227 0 0 0-.043 0H45.336c-.012.009-.014.028-.021.042a.05.05 0 0 1-.021.02c-.172.457-.335.91-.507 1.373-.15.342-.275.577-.4.739a1.17 1.17 0 0 1-.17.19.4.4 0 0 1-.063.042c-.02.01-.041 0-.063 0h-.275c-.09-.002-.176-.018-.232-.021-.027-.002-.037.003-.063 0h-.022a.05.05 0 0 1-.02 0c-.01-.003-.01-.01-.022-.021-.01-.012-.02-.014-.02-.022-.003-.014.001-.016 0-.02-.01-.02-.043-.088-.043-.19 0-.245.045-.437.105-.592.098-.209.156-.367.212-.464.135-.248.293-.53.443-.844.39-.81.766-1.69 1.14-2.64.531-1.324.802-2.193.802-2.68a.448.448 0 0 0-.042-.211.215.215 0 0 0-.17-.106c-.1 0-.16.07-.231.148a1.3 1.3 0 0 0-.212.296 17.61 17.61 0 0 0-.823 1.773c-.569 1.414-1 2.727-1.33 3.926-.055.228-.112.392-.147.507V53.98c-.061.113-.11.185-.148.253a3.52 3.52 0 0 1-.486.676c-.138.138-.244.19-.337.19H41.853a.05.05 0 0 1-.021 0 .05.05 0 0 1-.021 0 .05.05 0 0 1 0-.021.05.05 0 0 1 0-.021.05.05 0 0 1 0-.022c.112-.225.237-.457.359-.78.173-.476.253-.817.253-1.056a.467.467 0 0 0-.127-.338.452.452 0 0 0-.337-.126h-.085c-.339 0-.637.194-.865.548-.113.165-.243.451-.423.908-.144.374-.195.63-.232.866a.05.05 0 0 1 0 .02.05.05 0 0 1 0 .022.05.05 0 0 1-.02 0 .05.05 0 0 1-.022 0h-1.013a.05.05 0 0 1-.021 0 .05.05 0 0 1-.021 0 .05.05 0 0 1 0-.021.05.05 0 0 1 0-.021.05.05 0 0 1 0-.022c-.002-.007-.007-.021 0-.042.028-.084.07-.188.126-.338.105-.28.263-.708.465-1.224a.05.05 0 0 1 0-.021.05.05 0 0 1 .02 0 .05.05 0 0 1 .022 0h.337c.016-.002.03-.013.043-.021.014-.007.033-.009.042-.021.003-.004-.002-.017 0-.021a.05.05 0 0 1 0-.021l.106-.423v-.02-.022a.227.227 0 0 0 0-.042c-.003-.005.003-.017 0-.021-.01-.013-.029-.014-.043-.021-.013-.008-.027-.02-.042-.021h-.126a.05.05 0 0 1-.022 0 .05.05 0 0 1-.02 0 .05.05 0 0 1 0-.021.05.05 0 0 1 0-.022.05.05 0 0 1 0-.02l1.941-5.003v-.022-.02a.227.227 0 0 0 0-.043v-.021c-.002-.006-.017-.016-.02-.021l-.127-.19c-.008-.014-.01-.033-.022-.042H41.895a.227.227 0 0 0-.042 0h-.021c-.006.002-.016.017-.021.02a.057.057 0 0 0-.021.022.05.05 0 0 1-.021.021l-.233.57a.05.05 0 0 1-.02.021.05.05 0 0 1-.022 0 .05.05 0 0 1-.021 0 .05.05 0 0 1-.021 0 .05.05 0 0 1 0-.021.05.05 0 0 1 0-.021.05.05 0 0 1 0-.021c.028-.114.063-.217.063-.317a.47.47 0 0 0-.042-.232.245.245 0 0 0-.19-.106zm-18.534.021c-.125 0-.2.064-.274.17-.074.105-.152.269-.232.464a4.8 4.8 0 0 0-.253.76v.02c-.037.19-.063.4-.085.655a.05.05 0 0 1 0 .021 50.594 50.594 0 0 1-2.259 4.475v.021h-.02H19.583c-.007.003-.017.018-.022.022-.014.007-.033.008-.042.02-.003.005.002.017 0 .022v.02c-.009.054-.02.092-.021.106a.05.05 0 0 1 0 .022 3.997 3.997 0 0 1-.36.59c-.11.159-.207.291-.274.36-.03.031-.058.045-.084.063a.05.05 0 0 1-.021 0H18.338c-.016.001-.03.013-.042.02-.014.008-.033.01-.043.022-.003.004.003.016 0 .021v.021l-.084.465a.227.227 0 0 0 0 .042v.02c.003.007.017.017.021.022.008.011.01.013.021.021a.05.05 0 0 1 .021.021c.01 0 .033.002.042 0h.401c.08 0 .152-.04.212-.084.06-.046.097-.108.168-.19.048-.055.126-.166.19-.253a.05.05 0 0 1 0-.022.05.05 0 0 1 .022 0 .05.05 0 0 1 .02 0 .05.05 0 0 1 .022 0 .05.05 0 0 1 .02 0 .05.05 0 0 1 0 .022.05.05 0 0 1 0 .02c.006.146.019.269.064.36a.36.36 0 0 0 .296.19c.157 0 .29-.107.443-.254a.05.05 0 0 1 .021 0 .05.05 0 0 1 .021 0 .05.05 0 0 1 .021 0 .05.05 0 0 1 .021 0 .05.05 0 0 1 0 .021.05.05 0 0 1 0 .021v.043a.227.227 0 0 0 0 .042v.02c.003.007.018.017.022.022.007.011.01.013.02.021a.05.05 0 0 1 .022.021c.01 0 .032.002.042 0 .309 0 .5-.02.633-.105-.006.004 0-.005.021-.021a.05.05 0 0 1 .021 0 .05.05 0 0 1 .022 0 .05.05 0 0 1 .02 0 .05.05 0 0 1 0 .02.148.148 0 0 1 0 .064c.009.014.038.03.064.042a.186.186 0 0 0 .063.021c.074 0 .092-.045.127-.084.035-.039.078-.073.106-.127.195-.42.376-.85.57-1.266.166-.325.303-.56.422-.718.061-.082.113-.14.147-.169.016-.013.027-.012.022 0v.021l.02.021c.004.002.02 0 .022 0v-.084h.063c.04 0 .063-.006.084 0 .022.006.043.021.043.021a.05.05 0 0 1 .02 0 .05.05 0 0 1 0 .021.05.05 0 0 1 0 .021 1.129 1.129 0 0 1-.063.296c-.046.144-.12.342-.21.57-.19.475-.275.822-.275 1.076 0 .104 0 .182.042.254a.307.307 0 0 0 .232.126h.613a.587.587 0 0 0 .316-.105c.045-.028.113-.084.17-.127a.05.05 0 0 1 .02 0 .05.05 0 0 1 .021 0 .05.05 0 0 1 .021 0 .05.05 0 0 1 0 .021c.009.024.002.035 0 .042.037.083.14.17.233.17H25.557c.119 0 .22-.074.317-.17.096-.095.185-.22.295-.4.211-.35.467-.873.739-1.542a.05.05 0 0 1 .021-.02c.1-.038.26-.155.401-.233a.05.05 0 0 1 .021 0 .05.05 0 0 1 .021 0 .05.05 0 0 1 .021.021.05.05 0 0 1 0 .021.05.05 0 0 1 0 .021c-.432.803-.696 1.456-.696 1.88 0 .113.017.215.063.295a.278.278 0 0 0 .232.126H27.69c.193 0 .362-.115.549-.295.087-.085.192-.242.295-.38a.05.05 0 0 1 0-.021.05.05 0 0 1 .021 0 .05.05 0 0 1 .022 0 .05.05 0 0 1 .02 0 .05.05 0 0 1 .022 0 .05.05 0 0 1 0 .02.05.05 0 0 1 0 .022.929.929 0 0 0 .105.443c.073.127.21.211.36.211h2.511a.531.531 0 0 0 .338-.148c.018-.015.047-.065.084-.105a.05.05 0 0 1 .021 0 .05.05 0 0 1 .021 0 .05.05 0 0 1 .022 0 .05.05 0 0 1 .02.021c.019.035.033.072.043.084.089.108.218.148.38.148h1.055c.251-.004.429-.039.55-.126a.05.05 0 0 1 .02 0 .05.05 0 0 1 .021 0 .05.05 0 0 1 .021 0 .05.05 0 0 1 0 .02.05.05 0 0 1 0 .022c.004.02.01.021.022.042.007.014.037.031.063.042.026.011.05.021.063.021.047 0 .053-.011.064-.02.01-.01.023-.02.042-.043.028-.034.066-.073.084-.106.046-.08.101-.187.17-.337a.05.05 0 0 1 0-.021.05.05 0 0 1 .02 0 .05.05 0 0 1 .021 0 .05.05 0 0 1 .021 0 .05.05 0 0 1 .022 0 .05.05 0 0 1 0 .02c.02.07.053.16.084.212a.557.557 0 0 0 .507.274c.039 0 .123.005.21 0H35.816c.016-.001.03-.013.043-.02.014-.008.033-.01.042-.022v-.021a.05.05 0 0 1 0-.021l.106-.443v-.022c0-.01.002-.032 0-.042v-.02-.022c-.018-.026-.052-.04-.085-.042h-.02c-.07 0-.141.014-.233.02-.048.005-.074.018-.105.022-.032.004-.064 0-.085 0a.359.359 0 0 1-.148-.021c-.038-.018-.06-.053-.084-.085-.047-.06-.068-.162-.085-.274a.05.05 0 0 1 0-.021.05.05 0 0 1 0-.021.05.05 0 0 1 .022 0c.303-.102.568-.288.823-.57.296-.327.464-.662.464-1.013 0-.13-.02-.23-.084-.317a.34.34 0 0 0-.275-.127.71.71 0 0 0-.337.106.05.05 0 0 1-.021 0 .05.05 0 0 1-.022 0 .05.05 0 0 1-.02-.021.05.05 0 0 1 0-.021.05.05 0 0 1 0-.021c.314-.67.624-1.322.95-2.111.62-1.505.928-2.48.928-3.019 0-.08.001-.129-.021-.19-.014-.039-.014-.062-.042-.084a.276.276 0 0 0-.127-.043c-.09 0-.12.037-.169.085-.05.048-.111.105-.169.19-.114.168-.26.429-.422.76a32.012 32.012 0 0 0-2.047 5.467c-.072.258-.136.427-.17.57 0 .004.003.012 0 .021-.063.123-.099.21-.126.253-.06.101-.131.21-.19.317 0 0-.015-.005-.021 0 0 0 .006.017 0 .021a.05.05 0 0 1 0 .021.292.292 0 0 1-.232.106h-1.161c-.083 0-.125-.003-.17 0a.05.05 0 0 1-.02 0 .05.05 0 0 1-.021 0 .05.05 0 0 1 0-.021.05.05 0 0 1 0-.021c.006-.062.017-.148.063-.275.044-.122.128-.284.211-.464 0 .003-.005-.01 0-.021v-.021-.022a.05.05 0 0 1 0-.02c.121-.276.235-.497.359-.634.133-.147.268-.211.401-.211.081 0 .137.017.169.021.004 0 .027-.006.042 0a.05.05 0 0 1 .021.021.05.05 0 0 1 0 .021c.007.034.018.078.021.148a.227.227 0 0 0 0 .042.05.05 0 0 1 .021.021c.008.012.01.014.022.021.005.004.015.019.02.022h.022c.01 0 .032.002.042 0h.021c.005-.003.017.003.021 0 .013-.01.014-.029.021-.043l.19-.274c.004-.005.019-.015.021-.021v-.021-.021c-.008-.175-.037-.315-.105-.423a.38.38 0 0 0-.317-.168h-.126c-.365.008-.68.233-.93.654a.05.05 0 0 1 0 .021.05.05 0 0 1-.02 0c-.158.345-.309.692-.465 1.034-.117.238-.22.42-.316.528-.048.053-.094.084-.127.106-.033.022-.055.02-.084.02h-.275a.05.05 0 0 1-.021 0 .05.05 0 0 1-.021 0 .05.05 0 0 1 0-.02.05.05 0 0 1 0-.021.05.05 0 0 1 0-.022c.112-.225.237-.457.359-.78.173-.476.253-.817.253-1.056a.467.467 0 0 0-.486-.464h-.063c-.339 0-.637.194-.865.548-.109.159-.263.449-.444.908-.144.374-.195.63-.232.866a.05.05 0 0 1 0 .02.05.05 0 0 1 0 .022.05.05 0 0 1-.02 0 .05.05 0 0 1-.022 0h-.317c-.129 0-.235-.018-.295-.021-.029-.002-.037.003-.063 0h-.022a.05.05 0 0 1-.02 0c-.017-.005-.03-.008-.043-.021-.012-.014-.014-.03-.021-.043a.394.394 0 0 1-.042-.19c0-.244.045-.436.105-.59.097-.21.156-.368.211-.465.136-.248.294-.53.444-.844.39-.81.766-1.69 1.14-2.64.531-1.324.802-2.193.802-2.68a.448.448 0 0 0-.042-.211.215.215 0 0 0-.17-.106c-.1 0-.144.07-.21.148-.066.078-.135.155-.212.296a17.61 17.61 0 0 0-.823 1.773 36.784 36.784 0 0 0-1.35 3.926c-.056.228-.113.392-.148.507V53.98c-.063.12-.097.199-.127.253-.176.302-.34.536-.486.676-.144.14-.265.19-.358.19h-.634a.05.05 0 0 1-.02 0 .05.05 0 0 1-.022 0 .05.05 0 0 1 0-.021.05.05 0 0 1 0-.021c.011-.069.025-.169.084-.317.077-.191.208-.43.36-.718.252-.476.45-.835.633-1.097.094-.14.179-.264.232-.36.054-.096.084-.155.084-.253a.333.333 0 0 0-.02-.147.154.154 0 0 0-.149-.085.256.256 0 0 0-.084.021c-.018.014-.016.014-.021.021a.05.05 0 0 1 0 .022 5.894 5.894 0 0 1-.971.675.05.05 0 0 1-.021 0 .05.05 0 0 1-.021 0 .05.05 0 0 1-.022-.021.05.05 0 0 1 0-.021.05.05 0 0 1 0-.021c.034-.138.085-.298.085-.38 0-.078-.006-.136-.042-.19-.032-.048-.115-.085-.17-.085-.108 0-.21.065-.295.148a1.344 1.344 0 0 0-.253.359c-.153.299-.211.523-.211.718 0 .102.017.197.063.274.014.004.06 0 .085.021a.05.05 0 0 1 0 .021.05.05 0 0 1 0 .021.05.05 0 0 1 0 .021c-.198.463-.367.843-.507 1.077a1.644 1.644 0 0 1-.19.274c-.027.028-.052.034-.063.043v-.021-.022l-.021-.02h-.021v.084h-1.436a.05.05 0 0 1-.021 0 .05.05 0 0 1-.021 0 .05.05 0 0 1 0-.021.05.05 0 0 1 0-.021.05.05 0 0 1 0-.022.05.05 0 0 1 0-.02c.11-.104.233-.212.295-.275.257-.234.502-.447.76-.676a.05.05 0 0 1 0-.02c.338-.338.55-.62.55-.908 0-.125-.055-.253-.149-.317-.097-.067-.226-.084-.38-.084-.194 0-.357.024-.485.084-.26.126-.483.435-.697.908a5.181 5.181 0 0 0-.337 1.034.05.05 0 0 1 0 .021.05.05 0 0 1-.022 0 .05.05 0 0 1 0 .021c-.078.075-.156.129-.21.17-.028.02-.047.03-.064.041-.017.012-.029.015-.042.021a.956.956 0 0 1-.38.064h-.021c-.118-.001-.196-.018-.254-.021a.05.05 0 0 1-.02 0 .05.05 0 0 1-.022 0 .05.05 0 0 1 0-.021.05.05 0 0 1 0-.022c.01-.05.02-.09.042-.168.045-.151.12-.331.212-.57.195-.49.295-.84.295-1.098a.467.467 0 0 0-.486-.464.439.439 0 0 0-.147.02.05.05 0 0 1-.021 0 .05.05 0 0 1-.021 0 .05.05 0 0 1-.021 0 .05.05 0 0 1 0-.02.05.05 0 0 1 0-.022.05.05 0 0 1 0-.02c.314-.667.633-1.312.95-2.09.613-1.49.928-2.464.928-2.998a.448.448 0 0 0-.042-.211.215.215 0 0 0-.169-.106c-.083 0-.116.054-.169.106-.055.054-.116.089-.169.169a7.19 7.19 0 0 0-.4.76c-.899 1.879-1.59 3.713-2.07 5.467-.061.248-.09.418-.126.549-.005.019.005.013 0 .02-.005.01-.024.032-.021.022-.05.089-.1.18-.127.232-.012.024-.016.017-.02.021-.053.092-.092.178-.128.233-.017.026-.032.05-.042.063a.05.05 0 0 1 0 .021.05.05 0 0 1-.02 0c-.04.06-.073.1-.106.127a.173.173 0 0 1-.106.042v-.085l-.021.085c-.007-.001-.01.002-.021 0-.023-.004-.054-.018-.085-.021a.05.05 0 0 1-.02 0 .05.05 0 0 1-.022 0 .05.05 0 0 1 0-.021.05.05 0 0 1 0-.021.05.05 0 0 1 0-.022c.054-.08.1-.112.148-.19.265-.431.481-.858.654-1.287.481-1.217.774-2.375.887-3.462.02-.23.034-.411.042-.549a.05.05 0 0 1 0-.021c.087-.21.184-.375.253-.507a6.03 6.03 0 0 0 .38-1.182c.023-.103.043-.183.043-.274 0-.08-.007-.139-.043-.19a.24.24 0 0 0-.169-.085zm18.534 1.077a.05.05 0 0 1 .021 0 .05.05 0 0 1 .021 0 .05.05 0 0 1 .021 0 .05.05 0 0 1 .021 0 .05.05 0 0 1 0 .021.05.05 0 0 1 0 .021.05.05 0 0 1 0 .021L39.7 52.735a.05.05 0 0 1 0 .02.05.05 0 0 1-.021 0 .05.05 0 0 1-.021 0h-.507a.05.05 0 0 1-.021 0 .05.05 0 0 1-.021 0 .05.05 0 0 1 0-.02.05.05 0 0 1 0-.022.05.05 0 0 1 0-.02l1.287-3.294a.05.05 0 0 1 0-.02.05.05 0 0 1 .022 0c.267-.13.497-.37.717-.718.058-.094.1-.182.148-.275a.05.05 0 0 1 0-.021zM36.428 49.8a.05.05 0 0 1 .021 0 .05.05 0 0 1 .021 0 .05.05 0 0 1 .021 0 .05.05 0 0 1 .021 0 .05.05 0 0 1 0 .022.05.05 0 0 1 0 .02.05.05 0 0 1 0 .022c-.186.497-.367.987-.59 1.498a.05.05 0 0 1 0 .022.05.05 0 0 1-.022 0 .05.05 0 0 1-.02 0 .05.05 0 0 1-.022 0 .05.05 0 0 1-.021 0 .05.05 0 0 1 0-.022.05.05 0 0 1 0-.02.05.05 0 0 1 0-.022c.055-.144.088-.27.148-.422.172-.443.297-.727.443-1.076a.05.05 0 0 1 0-.022zM21.61 50.961a.05.05 0 0 1 .02 0 .05.05 0 0 1 .022 0 .05.05 0 0 1 .02 0 .05.05 0 0 1 .022.022.05.05 0 0 1 0 .02 11.958 11.958 0 0 1-.654 2.28c-.147.36-.32.721-.55 1.098-.157.268-.295.484-.421.612a.483.483 0 0 1-.275.148.05.05 0 0 1-.02 0 .05.05 0 0 1-.022 0 .05.05 0 0 1 0-.021.468.468 0 0 1-.021-.148c0-.268.046-.467.105-.612.09-.164.157-.313.212-.401a45.792 45.792 0 0 0 1.562-2.976.05.05 0 0 1 0-.022zm14.354 2.407a.05.05 0 0 1 .02 0 .05.05 0 0 1 .022 0 .05.05 0 0 1 0 .02.05.05 0 0 1 0 .022.05.05 0 0 1 0 .021.982.982 0 0 1-.317.38.05.05 0 0 1-.02 0h-.022c-.06.046-.108.091-.169.127a.05.05 0 0 1-.021 0 .05.05 0 0 1-.021 0 .05.05 0 0 1-.021 0 .05.05 0 0 1 0-.021.05.05 0 0 1 0-.021.05.05 0 0 1 0-.022c.066-.093.141-.243.21-.316a.613.613 0 0 1 .339-.19zm-10.893.02a.05.05 0 0 1 .022 0 .05.05 0 0 1 .02 0 .05.05 0 0 1 0 .022.05.05 0 0 1 0 .021.05.05 0 0 1 0 .021.05.05 0 0 1 0 .021c-.235.235-.453.43-.611.57a.05.05 0 0 1-.022 0 .05.05 0 0 1-.02 0 .05.05 0 0 1-.022 0 .05.05 0 0 1-.02-.02.05.05 0 0 1 0-.022.05.05 0 0 1 0-.021c.132-.258.27-.453.4-.528a.44.44 0 0 1 .253-.063zm6.312 0c.045 0 .08-.005.106 0 .024.007.032.017.042.022a.05.05 0 0 1 .02 0 .05.05 0 0 1 0 .021.05.05 0 0 1 0 .021c-.003.074-.038.203-.105.401-.07.21-.185.486-.337.824a1.09 1.09 0 0 1-.211.337.317.317 0 0 1-.233.085h-.359a.05.05 0 0 1-.02 0 .05.05 0 0 1-.022 0 .05.05 0 0 1 0-.021.05.05 0 0 1 0-.021c.004-.018.013-.077.042-.17.035-.108.1-.246.17-.422a5.04 5.04 0 0 1 .337-.717c.104-.172.185-.261.253-.296a.81.81 0 0 1 .317-.063zm10.449 0c.044 0 .078-.004.105 0a.221.221 0 0 1 .064.022.05.05 0 0 1 .02 0 .05.05 0 0 1 0 .021.05.05 0 0 1 0 .021c-.003.066-.032.2-.105.401-.077.213-.207.486-.359.824a1.09 1.09 0 0 1-.21.337.317.317 0 0 1-.233.085h-.359a.05.05 0 0 1-.02 0 .05.05 0 0 1-.022 0 .05.05 0 0 1 0-.021.05.05 0 0 1 0-.021c.004-.018.013-.077.042-.17.035-.108.1-.246.17-.422a5.04 5.04 0 0 1 .337-.717c.104-.172.185-.261.253-.296a.81.81 0 0 1 .317-.063zm7.41 0a.05.05 0 0 1 .02 0 .05.05 0 0 1 .021 0 .05.05 0 0 1 0 .022.05.05 0 0 1 0 .021.05.05 0 0 1 0 .021.05.05 0 0 1 0 .021c-.236.235-.454.43-.612.57a.05.05 0 0 1-.021 0 .05.05 0 0 1-.021 0 .05.05 0 0 1-.021 0 .05.05 0 0 1-.021-.02.05.05 0 0 1 0-.022.05.05 0 0 1 0-.021c.133-.258.27-.453.4-.528a.44.44 0 0 1 .254-.063zm2.11.444a.05.05 0 0 1 .021 0 .05.05 0 0 1 .021 0 .05.05 0 0 1 .021 0 .05.05 0 0 1 .021 0 .05.05 0 0 1 0 .021l.022.085c.014.053.034.114.042.148.003.016-.002.03 0 .042.002.011 0 .009 0 .02 0 .302-.226.584-.697.866-.102.069-.118.1-.148.127a.05.05 0 0 1-.02 0 .05.05 0 0 1-.022 0 .05.05 0 0 1-.021 0 .05.05 0 0 1-.021 0 .05.05 0 0 1 0-.021.05.05 0 0 1 0-.021.05.05 0 0 1 0-.021c.073-.095.14-.15.211-.254.22-.31.399-.641.57-.97a.05.05 0 0 1 0-.022zm-5.636 4.623c-.013.01-.014.029-.021.042a.05.05 0 0 1-.021.021l-2.111 5.425a.05.05 0 0 1 0 .021.05.05 0 0 1-.021 0 .05.05 0 0 1-.021 0H43.162c-.016.002-.03.014-.042.022-.014.007-.033.008-.043.02-.003.005.003.017 0 .022v.02l-.084.444a.227.227 0 0 0 0 .042v.022c.003.005.017.015.021.02.007.014.009.034.021.043h.021c.01 0 .033.002.042 0h.127a.05.05 0 0 1 .021 0 .05.05 0 0 1 .021 0 .05.05 0 0 1 0 .02.05.05 0 0 1 0 .022.05.05 0 0 1 0 .021c-.153.375-.299.707-.4.887-.139.25-.27.45-.402.57a.575.575 0 0 1-.38.169h-.274a.05.05 0 0 1-.021 0 .05.05 0 0 1-.021 0 .05.05 0 0 1 0-.022.05.05 0 0 1 0-.02.05.05 0 0 1 0-.022c.053-.08.1-.112.147-.19a8.98 8.98 0 0 0 .676-1.309 12.96 12.96 0 0 0 .865-3.44c.02-.225.052-.404.064-.55a.05.05 0 0 1 0-.02c.088-.215.167-.384.232-.507a6.03 6.03 0 0 0 .38-1.182c.022-.104.042-.183.042-.274 0-.074.002-.114-.021-.17a.2.2 0 0 0-.169-.127c-.126.001-.193.063-.274.17a2.153 2.153 0 0 0-.254.464 4.8 4.8 0 0 0-.253.76v.021a6.546 6.546 0 0 0-.084.676.05.05 0 0 1 0 .021 50.487 50.487 0 0 1-2.26 4.454.05.05 0 0 1 0 .021.05.05 0 0 1-.02 0 .227.227 0 0 0-.042.021.05.05 0 0 1-.022.021c-.003.006-.018.016-.02.021v.022a1.36 1.36 0 0 1-.022.105c-.003.013-.016.012-.02.021a.05.05 0 0 1 0 .021c-.003.005-.02.016-.022.021-.043.09-.141.268-.338.55-.111.16-.208.286-.274.358-.014.015-.033.027-.042.042a.156.156 0 0 1-.043.043.05.05 0 0 1-.02 0H39.552c-.016.001-.03.013-.043.02-.014.008-.033.01-.042.022V66.392l-.085.443a.227.227 0 0 0 0 .042c.002.005-.002.018 0 .022.003.005.018.015.021.02.008.014.01.034.021.043.005.003.017-.003.022 0 .01 0 .032.002.042 0h.4c.08 0 .152-.04.212-.085.06-.045.097-.107.169-.19.047-.054.125-.165.19-.253a.05.05 0 0 1 0-.02.05.05 0 0 1 .02 0 .05.05 0 0 1 .022 0 .05.05 0 0 1 .021 0 .05.05 0 0 1 .021 0 .05.05 0 0 1 0 .02.05.05 0 0 1 0 .021.864.864 0 0 0 .085.38c.054.102.16.17.274.17.146 0 .283-.07.422-.19a.05.05 0 0 1 .021 0 .05.05 0 0 1 .021 0 .05.05 0 0 1 .022 0 .05.05 0 0 1 .02.02.05.05 0 0 1 0 .021.227.227 0 0 0 0 .043v.02c.01.013.03.014.043.022.013.008.027.02.042.02h.507c.258 0 .506-.21.76-.506a.05.05 0 0 1 .02 0 .05.05 0 0 1 .022 0 .05.05 0 0 1 .021 0 .05.05 0 0 1 .021 0 .05.05 0 0 1 0 .021.05.05 0 0 1 0 .022c.025.128.07.22.148.295.118.114.295.169.506.169H44.175c.116 0 .196-.072.295-.169.101-.097.21-.205.317-.38.211-.343.467-.872.739-1.54a.05.05 0 0 1 .021-.022c.108-.043.22-.08.338-.148a.05.05 0 0 1 .02 0 .05.05 0 0 1 .022 0 .05.05 0 0 1 .021.021.05.05 0 0 1 0 .021.05.05 0 0 1 0 .022c-.4.754-.654 1.386-.654 1.794 0 .115.015.22.063.295.045.07.143.106.232.106h.718c.14 0 .29-.096.464-.232a.05.05 0 0 1 .021 0 .05.05 0 0 1 .022 0 .05.05 0 0 1 .02 0 .05.05 0 0 1 0 .02c.01.028.002.054 0 .064a.29.29 0 0 0 .233.148h1.52c.139 0 .306-.096.485-.232a.05.05 0 0 1 .021 0 .05.05 0 0 1 .021 0 .05.05 0 0 1 .022 0 .05.05 0 0 1 0 .02c.008.028.001.054 0 .064a.29.29 0 0 0 .232.148h1.71c.258 0 .505-.21.76-.507a.05.05 0 0 1 .02 0 .05.05 0 0 1 .022 0 .05.05 0 0 1 .02 0 .05.05 0 0 1 .022 0 .05.05 0 0 1 0 .021.05.05 0 0 1 0 .022c.025.128.07.22.148.295.118.114.295.169.506.169h.38c.016-.002.03-.013.042-.021.014-.008.033-.009.043-.021.003-.004-.003-.017 0-.021v-.022l.084-.443a.227.227 0 0 0 0-.042v-.021c-.003-.006-.017-.016-.021-.021-.007-.014-.009-.033-.021-.042h-.021a.227.227 0 0 0-.042 0h-.486a.156.156 0 0 1-.042 0c-.068-.018-.106-.04-.127-.064-.025-.028-.042-.089-.042-.169 0-.068.02-.172.063-.316.043-.145.105-.331.19-.55l.211-.57a.05.05 0 0 1 0-.02.05.05 0 0 1 .021 0 .05.05 0 0 1 .022 0H53.188c.016-.002.03-.013.043-.021.013-.008.033-.009.042-.021.003-.005-.003-.017 0-.021a.05.05 0 0 1 0-.022l.105-.422v-.02-.022a.227.227 0 0 0 0-.042c-.002-.005.004-.017 0-.021-.009-.013-.028-.014-.042-.021-.013-.008-.027-.02-.042-.022h-.148a.05.05 0 0 1-.02 0 .05.05 0 0 1-.022 0 .05.05 0 0 1 0-.02.05.05 0 0 1 0-.022.05.05 0 0 1 0-.02l1.984-5.11v-.02-.021a.227.227 0 0 0 0-.043v-.02c-.002-.007-.017-.017-.02-.022l-.128-.169a.057.057 0 0 0-.02-.02c-.006-.005-.016-.02-.022-.022h-.02a.227.227 0 0 0-.043 0h-.042c-.013.01-.014.029-.021.042a.05.05 0 0 1-.022.021l-2.11 5.425a.05.05 0 0 1 0 .021.05.05 0 0 1-.022 0 .05.05 0 0 1-.02 0H52.238c-.016.002-.03.014-.043.022-.013.007-.033.008-.042.02-.003.005.003.017 0 .022v.02l-.084.444a.227.227 0 0 0 0 .042v.022c.002.005.017.015.02.02.008.014.01.034.022.043h.021c.01 0 .033.002.042 0h.127a.05.05 0 0 1 .021 0 .05.05 0 0 1 .021 0 .05.05 0 0 1 0 .02.05.05 0 0 1 0 .022.05.05 0 0 1 0 .021c-.154.375-.3.707-.401.887-.138.25-.27.45-.401.57a.575.575 0 0 1-.38.169H49.663a.05.05 0 0 1-.02 0 .05.05 0 0 1-.022 0 .05.05 0 0 1 0-.022.05.05 0 0 1 0-.02.05.05 0 0 1 0-.022.05.05 0 0 1 0-.02 7.44 7.44 0 0 0 .296-.275c.256-.234.501-.447.76-.676a.05.05 0 0 1 0-.02c.337-.338.548-.62.548-.909 0-.124-.054-.252-.147-.316-.098-.067-.226-.085-.38-.085-.187 0-.346-.001-.486.064-.266.128-.483.457-.697.928a5.065 5.065 0 0 0-.337 1.035.05.05 0 0 1 0 .02l-.021.022c-.153.145-.275.192-.317.211a.9.9 0 0 1-.401.085h-1.077a.05.05 0 0 1-.02 0 .05.05 0 0 1-.022 0 .05.05 0 0 1 0-.022.05.05 0 0 1 0-.02.05.05 0 0 1 0-.022.05.05 0 0 1 0-.02c.11-.098.225-.204.296-.275.254-.232.52-.445.78-.676a.05.05 0 0 1 0-.02c.34-.34.528-.627.528-.909 0-.124-.054-.252-.147-.316-.097-.067-.226-.085-.38-.085-.187 0-.331.001-.465.064-.263.127-.503.454-.717.928-.166.36-.283.683-.36 1.014v.02a.05.05 0 0 1 0 .022.05.05 0 0 1 0 .021c-.152.145-.274.192-.316.211a.887.887 0 0 1-.38.085h-.38a.05.05 0 0 1-.02 0 .05.05 0 0 1-.022 0 .05.05 0 0 1 0-.022.05.05 0 0 1 0-.02c.01-.065.022-.165.084-.317.077-.186.208-.43.36-.718.252-.476.45-.835.633-1.098.094-.14.16-.274.21-.38.05-.106.085-.17.085-.253a.315.315 0 0 0-.021-.127c-.008-.02-.017-.044-.042-.063-.018-.013-.046-.021-.085-.021H46.92c-.01-.001-.013-.003-.021 0-.027.011-.03.03-.042.042a6.777 6.777 0 0 1-.971.697.05.05 0 0 1-.021 0 .05.05 0 0 1-.021 0 .05.05 0 0 1-.022 0 .05.05 0 0 1 0-.021.05.05 0 0 1 0-.021.05.05 0 0 1 0-.022c.034-.137.085-.297.085-.38a.37.37 0 0 0-.042-.19c-.028-.05-.103-.105-.17-.105-.113 0-.21.079-.295.169a1.464 1.464 0 0 0-.253.359c-.152.296-.232.513-.232.717a.44.44 0 0 0 .084.275c.003.004.01-.004.042.02a.05.05 0 0 1 .022 0 .05.05 0 0 1 0 .022.05.05 0 0 1 0 .021.05.05 0 0 1 0 .021c-.193.448-.366.823-.507 1.056-.078.128-.132.235-.19.295-.029.03-.052.034-.063.042v-.02-.022l-.021-.02h-.022v.084h-.823a.157.157 0 0 1-.042 0c-.068-.018-.098-.075-.106-.085-.015-.019-.042-.06-.042-.148 0-.068.02-.172.063-.316.043-.145.106-.331.19-.55l.212-.57a.05.05 0 0 1 0-.02.05.05 0 0 1 .02 0 .05.05 0 0 1 .022 0H44.11c.016-.002.03-.013.043-.021.014-.008.033-.009.042-.021.003-.005-.002-.017 0-.021a.05.05 0 0 1 0-.022l.106-.422v-.02-.022a.227.227 0 0 0 0-.042c-.003-.005.003-.017 0-.021-.01-.013-.029-.014-.043-.021-.013-.008-.027-.02-.042-.022h-.148a.05.05 0 0 1-.02 0 .05.05 0 0 1-.022 0 .05.05 0 0 1 0-.02.05.05 0 0 1 0-.022.05.05 0 0 1 0-.02l1.984-5.11v-.02-.021a.227.227 0 0 0 0-.043v-.02c-.002-.007-.017-.017-.02-.022l-.127-.169a.057.057 0 0 0-.021-.02c-.006-.005-.016-.02-.022-.022h-.02a.227.227 0 0 0-.043 0h-.042zm-19.336.021c-.112 0-.167.065-.232.148-.062.08-.113.175-.19.317-.617 1.137-1.27 2.76-1.92 4.855-.136.42-.23.767-.296 1.013-.03.12-.062.205-.085.274-.011.035-.012.064-.02.085-.006.012-.018.012-.022.02v.022a.05.05 0 0 1 0 .021.05.05 0 0 1 0 .021.05.05 0 0 1-.021 0v.021a.05.05 0 0 1 0 .021c-.159.284-.298.504-.38.655-.044.08-.08.16-.106.21-.01.022-.032.035-.042.043a.05.05 0 0 1 0 .021.296.296 0 0 1-.084.085c-.03.013-.053 0-.085 0H22.538c-.015.001-.029.013-.042.02-.014.008-.033.01-.042.022-.003.004.002.016 0 .02v.022l-.084.443a.227.227 0 0 0 0 .042v.022c.002.005.017.015.02.02.008.014.01.034.022.043.004.003.016-.003.02 0 .01 0 .034.002.043 0h.317c.166 0 .33-.084.443-.232.03-.04.096-.138.19-.296a.05.05 0 0 1 0-.02.05.05 0 0 1 .021 0 .05.05 0 0 1 .021 0 .05.05 0 0 1 .021 0 .05.05 0 0 1 .021 0 .05.05 0 0 1 0 .02.05.05 0 0 1 0 .021c.016.11.013.217.043.275.057.112.16.2.274.232.006.002.015-.002.021 0H24.818c.015-.002.03-.013.042-.021.014-.008.033-.009.043-.021v-.021-.022l.084-.443a.227.227 0 0 0 0-.042c-.001-.004.002-.017 0-.021-.003-.006-.017-.016-.021-.021-.007-.014-.009-.033-.021-.042-.004-.004-.017.002-.021 0a.227.227 0 0 0-.043 0h-.042a.05.05 0 0 1-.02 0 .05.05 0 0 1-.022 0 .05.05 0 0 1 0-.022.05.05 0 0 1 0-.02.05.05 0 0 1 0-.022c.109-.226.222-.477.338-.802.18-.482.274-.796.274-1.034a.439.439 0 0 0-.148-.338.52.52 0 0 0-.358-.127c-.042 0-.077-.003-.106 0a.05.05 0 0 1-.021 0 .05.05 0 0 1-.021-.02.05.05 0 0 1 0-.022.05.05 0 0 1 0-.021c.347-.735.694-1.493 1.034-2.343.54-1.348.802-2.252.802-2.744a.448.448 0 0 0-.042-.211.215.215 0 0 0-.169-.106zm3.863 0c-.103 0-.124.055-.169.106-.039.044-.074.089-.126.169-.221.357-.464.816-.697 1.372-.07.165-.243.623-.549 1.414-.508 1.308-.86 2.355-1.055 3.124l-.064.274c-.008.036-.02.058-.02.064v.02c-.07.131-.128.228-.17.296-.19.343-.378.6-.548.76-.17.159-.323.233-.465.233H26.275c-.016.001-.03.013-.043.02-.013.008-.033.01-.042.022V66.392l-.084.443a.227.227 0 0 0 0 .042c.001.005-.002.018 0 .022.002.005.017.015.02.02.008.014.01.034.022.043.004.003.017-.003.021 0 .01 0 .033.002.042 0 .32 0 .611-.144.866-.422.025-.027.07-.069.105-.127.036-.058.069-.118.106-.169a.05.05 0 0 1 0-.02.05.05 0 0 1 .021 0 .05.05 0 0 1 .021 0 .05.05 0 0 1 .021 0 .05.05 0 0 1 .021 0 .05.05 0 0 1 0 .02.05.05 0 0 1 0 .021c.002.206.018.364.085.486a.428.428 0 0 0 .359.21c.199 0 .385-.138.59-.358.206-.22.423-.523.676-.95.353-.585.667-1.152.908-1.71.353-.827.528-1.471.528-1.942 0-.087-.022-.168-.043-.253a.05.05 0 0 1 0-.021.05.05 0 0 1 0-.021 8.52 8.52 0 0 0 .655-1.246c.248-.58.38-1.041.38-1.414a.641.641 0 0 0-.106-.38.354.354 0 0 0-.295-.148c-.195 0-.389.126-.591.317a.05.05 0 0 1-.022 0 .05.05 0 0 1-.02 0 .05.05 0 0 1-.022 0 .05.05 0 0 1-.02 0 .05.05 0 0 1 0-.021.05.05 0 0 1 0-.021v-.021c0-.074.001-.114-.022-.17a.2.2 0 0 0-.169-.127zm4.96 0c-.089 0-.114.052-.168.106-.051.051-.113.104-.169.19-.115.173-.26.43-.422.76-.898 1.878-1.575 3.691-2.048 5.446a11.06 11.06 0 0 0-.148.59c.007-.027.001.018 0 .022-.059.108-.108.17-.147.232a8.54 8.54 0 0 0-.19.338c-.004.005-.014-.004-.021 0l-.021.02c-.058.07-.112.128-.19.128H31.215a.122.122 0 0 1-.064-.022.05.05 0 0 1-.021-.02.05.05 0 0 1 0-.022c.007-.078.044-.207.105-.38.061-.173.142-.392.254-.654.123-.284.208-.503.274-.676.066-.172.106-.273.106-.38a.236.236 0 0 0-.085-.168.242.242 0 0 0-.169-.064c-.482 0-.925.215-1.287.634v.02c-.153.197-.38.58-.697 1.162a.05.05 0 0 1 0 .02.05.05 0 0 1-.021 0c-.106.2-.19.353-.275.444-.041.045-.076.066-.105.084a.146.146 0 0 1-.085.022h-.21c-.016.001-.03.013-.043.02-.014.008-.033.01-.042.022v.02a.05.05 0 0 1 0 .022l-.106.422v.042a.227.227 0 0 0 0 .043v.02c.01.013.029.014.043.022.013.008.027.02.042.02h.02c.245 0 .444-.058.592-.19a.05.05 0 0 1 .021 0c.009-.006.02-.03.042-.062.022-.032.04-.078.064-.106a.05.05 0 0 1 .02 0 .05.05 0 0 1 .022 0 .05.05 0 0 1 .021 0 .05.05 0 0 1 .021 0 .05.05 0 0 1 0 .021c.014.038.028.082.042.106.072.12.21.19.36.19.162 0 .297-.078.442-.211.045-.04.11-.142.17-.211a.05.05 0 0 1 .02 0 .05.05 0 0 1 .022 0 .05.05 0 0 1 .02 0 .05.05 0 0 1 .022 0 .05.05 0 0 1 0 .02.05.05 0 0 1 0 .022c.007.116.03.224.084.295.069.09.173.127.296.127h.253a2.62 2.62 0 0 0 .338-.021.43.43 0 0 0 .21-.085c-.003.003.005-.007.022-.02a.05.05 0 0 1 .021 0 .05.05 0 0 1 .021 0 .05.05 0 0 1 .021 0 .05.05 0 0 1 0 .02.05.05 0 0 1 0 .021c.004.02.001.017 0 .022a.128.128 0 0 0 .042.063c.017.015.056.042.085.042.047 0 .052-.012.063-.021.011-.01.023-.02.042-.042.029-.035.067-.074.085-.106a3.97 3.97 0 0 0 .169-.337.05.05 0 0 1 0-.022.05.05 0 0 1 .02 0 .05.05 0 0 1 .022 0 .05.05 0 0 1 .021 0 .05.05 0 0 1 .021 0 .05.05 0 0 1 0 .022c.02.061.055.137.085.19a.564.564 0 0 0 .506.295c.067 0 .154-.013.232-.021h.444c.14 0 .306-.096.485-.232a.05.05 0 0 1 .021 0 .05.05 0 0 1 .021 0 .05.05 0 0 1 .022 0 .05.05 0 0 1 0 .02c.008.028.001.054 0 .064a.29.29 0 0 0 .232.148h1.625c.116 0 .196-.072.296-.169.1-.097.209-.205.316-.38.211-.343.467-.872.74-1.54a.05.05 0 0 1 .02-.022c.108-.043.22-.08.338-.148a.05.05 0 0 1 .021 0 .05.05 0 0 1 .021 0 .05.05 0 0 1 .021.021.05.05 0 0 1 0 .021.05.05 0 0 1 0 .022c-.4.754-.654 1.386-.654 1.794 0 .115.015.22.063.295.045.07.143.106.232.106H38.158c.016-.002.03-.013.043-.021.014-.008.033-.009.042-.021.003-.004-.002-.017 0-.021a.05.05 0 0 1 0-.022l.106-.422v-.02-.022a.227.227 0 0 0 0-.042v-.021c-.01-.013-.029-.014-.042-.021-.013-.008-.027-.02-.043-.021h-.4a.05.05 0 0 1-.022 0 .05.05 0 0 1-.02 0 .05.05 0 0 1 0-.022.05.05 0 0 1 0-.02c.009-.065.02-.165.084-.317.076-.186.207-.43.358-.718.253-.476.451-.835.634-1.098.094-.14.161-.274.21-.38.05-.106.085-.17.085-.253a.315.315 0 0 0-.02-.127c-.01-.02-.018-.044-.043-.063-.018-.013-.046-.021-.084-.021-.008.002-.03.017-.043.021a.337.337 0 0 0-.084.042c-.01.008-.033-.008-.042 0a6.864 6.864 0 0 1-.93.676.05.05 0 0 1-.02 0 .05.05 0 0 1-.021 0 .05.05 0 0 1-.021 0 .05.05 0 0 1 0-.021.05.05 0 0 1 0-.021.05.05 0 0 1 0-.022c.033-.137.084-.297.084-.38 0-.07.002-.11-.021-.168a.211.211 0 0 0-.063-.085.188.188 0 0 0-.106-.042c-.113 0-.21.079-.296.169a1.464 1.464 0 0 0-.253.359c-.152.296-.232.513-.232.717a.44.44 0 0 0 .084.275c.003.004.01-.004.043.02a.05.05 0 0 1 .02 0 .05.05 0 0 1 0 .022.05.05 0 0 1 0 .021.05.05 0 0 1 0 .021c-.192.448-.364.823-.506 1.056-.078.128-.132.235-.19.295-.028.03-.051.034-.063.042v-.02-.022l-.021-.02h-.021v.084h-1.436a.05.05 0 0 1-.02 0 .05.05 0 0 1-.022 0 .05.05 0 0 1 0-.022.05.05 0 0 1 0-.02.05.05 0 0 1 0-.022.05.05 0 0 1 0-.02c.111-.105.23-.209.295-.275.254-.232.521-.445.782-.676a.05.05 0 0 1 0-.02c.338-.34.527-.627.527-.909 0-.122-.038-.25-.126-.316-.092-.068-.226-.085-.38-.085-.187 0-.346-.001-.486.064-.266.128-.483.457-.696.928a5.23 5.23 0 0 0-.36 1.056h-.02c-.006.025-.005.024 0 .021a.05.05 0 0 1 0 .021c-.006.005-.014-.002-.022 0a.05.05 0 0 1 0 .021c-.117.103-.235.152-.274.17a1.008 1.008 0 0 1-.401.084h-.021c-.069 0-.13.014-.211.02-.08.007-.126 0-.19 0-.12 0-.203-.043-.254-.105-.025-.031-.031-.062-.042-.105-.01-.044-.013-.099-.02-.148a.05.05 0 0 1 0-.021.05.05 0 0 1 0-.021.05.05 0 0 1 .02 0c.31-.1.587-.285.845-.57.295-.327.464-.662.464-1.014 0-.134-.02-.252-.084-.337-.063-.083-.182-.127-.296-.127a.66.66 0 0 0-.295.063.05.05 0 0 1-.022 0 .05.05 0 0 1-.02 0 .05.05 0 0 1-.022 0 .05.05 0 0 1 0-.02.05.05 0 0 1 0-.022.05.05 0 0 1 0-.021c.308-.65.61-1.276.929-2.048.621-1.504.929-2.5.929-3.04a.448.448 0 0 0-.042-.21.215.215 0 0 0-.17-.106zm-4.2.697a.05.05 0 0 1 .021 0 .05.05 0 0 1 .021 0 .05.05 0 0 1 0 .02c0 .002-.003.015 0 .022.003.007.018.01.021.021.006.022 0 .048 0 .085 0 .232-.123.604-.358 1.097-.17.366-.354.667-.55.95a.05.05 0 0 1 0 .021.05.05 0 0 1-.02 0 .05.05 0 0 1-.022 0h-.063c-.13 0-.259.026-.38.085a.05.05 0 0 1-.02 0 .05.05 0 0 1-.022 0 .05.05 0 0 1-.021 0 .05.05 0 0 1 0-.021.05.05 0 0 1 0-.022.05.05 0 0 1 0-.02c.116-.29.254-.604.338-.845.09-.252.14-.44.19-.591.007-.014.016-.018.02-.021v-.021c.038-.054.078-.12.106-.148a.05.05 0 0 1 .021 0c.163-.214.323-.366.444-.464.06-.05.102-.08.147-.106a.25.25 0 0 1 .127-.042zm3.145 2.068a.05.05 0 0 1 .021 0 .05.05 0 0 1 .021 0 .05.05 0 0 1 .022 0 .05.05 0 0 1 .02 0 .05.05 0 0 1 0 .022.05.05 0 0 1 0 .02.05.05 0 0 1 0 .022c-.16.416-.319.82-.506 1.245a.05.05 0 0 1 0 .021.05.05 0 0 1-.021 0 .05.05 0 0 1-.021 0 .05.05 0 0 1-.021 0 .05.05 0 0 1-.021 0 .05.05 0 0 1 0-.02.05.05 0 0 1 0-.022.05.05 0 0 1 0-.021c.054-.144.088-.27.147-.422.135-.345.24-.54.36-.823a.05.05 0 0 1 0-.022zm-13.446.401c-.168 0-.296.104-.464.275-.168.17-.363.41-.57.739a.05.05 0 0 1 0 .02.05.05 0 0 1-.022 0v.064l.043.317v.02c.002.007.017.017.02.022a.05.05 0 0 1 .022.021c.005.004.015.018.021.021h.042c.01.002.033 0 .042 0 .005-.002.017.003.022 0 .012-.009.013-.028.02-.042.181-.28.334-.501.465-.633.096-.097.156-.111.19-.127a.05.05 0 0 1 .021 0 .05.05 0 0 1 .021 0 .05.05 0 0 1 .021 0 .05.05 0 0 1 0 .021.05.05 0 0 1 0 .021c-.005.357-.215 1-.654 1.9-.372.765-.696 1.28-.971 1.625a.05.05 0 0 1 0 .022.05.05 0 0 1-.021 0 .05.05 0 0 1-.021 0 .05.05 0 0 1-.021 0 .05.05 0 0 1-.021 0c-.082-.072-.154-.127-.254-.127-.187 0-.348.11-.464.317a1.157 1.157 0 0 0-.169.57c0 .101.015.18.063.253a.263.263 0 0 0 .211.105c.15 0 .314-.095.486-.232a.05.05 0 0 1 .021 0 .05.05 0 0 1 .021 0 .05.05 0 0 1 .021 0 .05.05 0 0 1 0 .021c.036.056.063.105.085.127.064.067.143.127.232.127.073 0 .112-.029.169-.064a1.24 1.24 0 0 0 .169-.126c.022-.02.054-.056.084-.085a.05.05 0 0 1 .021 0 .05.05 0 0 1 .021 0 .05.05 0 0 1 .021 0 .05.05 0 0 1 .021 0 .05.05 0 0 1 0 .021c.017.052.029.11.043.127.052.065.128.084.21.084.15 0 .315-.095.486-.232a.05.05 0 0 1 .021 0 .05.05 0 0 1 .022 0 .05.05 0 0 1 .02 0 .05.05 0 0 1 0 .021c.036.056.064.105.085.127.064.067.143.127.232.127.135 0 .234-.088.38-.212.023-.019.07-.072.106-.105a.05.05 0 0 1 .02 0 .05.05 0 0 1 .022 0 .05.05 0 0 1 .021 0 .05.05 0 0 1 .021 0 .05.05 0 0 1 0 .021.05.05 0 0 1 .021.021.05.05 0 0 1 0 .021l.148.148c.006.003.015.02.021.021a.05.05 0 0 1 .021 0 .05.05 0 0 1 0 .021c.01 0 .033.002.043 0 .009.002.032 0 .042 0a.05.05 0 0 1 .02-.02.057.057 0 0 0 .022-.022.05.05 0 0 1 .021-.021l1.921-4.918v-.022-.02a.227.227 0 0 0 0-.043v-.021c-.003-.006-.017-.016-.021-.021l-.127-.169a.057.057 0 0 0-.02-.021c-.006-.004-.016-.018-.022-.021h-.021a.227.227 0 0 0-.042 0h-.043c-.012.01-.013.028-.02.042a.05.05 0 0 1-.022.021l-1.583 4.01a.05.05 0 0 1-.021.022.05.05 0 0 1-.021 0 .232.232 0 0 0-.042 0 .227.227 0 0 0-.043 0h-.02c-.007.003-.017.017-.022.021a.05.05 0 0 1-.02.021c-.176.209-.304.363-.423.465-.052.044-.116.067-.148.084-.008.004-.015-.003-.021 0l-.021.021a.05.05 0 0 1-.021 0 .05.05 0 0 1-.021 0 .05.05 0 0 1-.021 0 .05.05 0 0 1 0-.021.05.05 0 0 1 0-.021.05.05 0 0 1 0-.021c.374-.476.757-1.121 1.14-1.963.45-.97.675-1.711.675-2.259a.698.698 0 0 0-.063-.338.304.304 0 0 0-.254-.148c-.167 0-.296.104-.464.275-.168.17-.362.41-.57.739a.05.05 0 0 1 0 .02.05.05 0 0 1-.021 0c0 .01-.002.034 0 .043v.021l.042.317v.02c.003.007.017.017.021.022a.05.05 0 0 1 .021.021c.006.004.016.018.021.021H21.42c.01.002.033 0 .043 0 .004-.002.017.003.021 0 .012-.009.014-.028.021-.042a4.67 4.67 0 0 1 .464-.633c.05-.052.097-.065.127-.085.03-.02.051-.036.063-.042a.05.05 0 0 1 .022 0 .05.05 0 0 1 .02 0 .05.05 0 0 1 .022 0 .05.05 0 0 1 0 .021.05.05 0 0 1 0 .021c-.006.354-.236 1-.676 1.9-.372.764-.679 1.281-.95 1.625a.05.05 0 0 1 0 .022.05.05 0 0 1-.02 0 .05.05 0 0 1-.022 0 .05.05 0 0 1-.02 0 .503.503 0 0 0-.296-.127c-.04 0-.072.034-.127.063a.05.05 0 0 1-.021 0 .05.05 0 0 1-.021 0 .05.05 0 0 1-.021 0 .05.05 0 0 1 0-.02c-.008-.015-.01-.034-.022-.043H19.984a.227.227 0 0 0-.042 0h-.021c-.006.003-.016.017-.021.021a.05.05 0 0 1-.021.021c-.176.209-.303.363-.422.465-.053.044-.116.067-.148.084-.008.004-.015-.003-.021 0l-.021.021a.05.05 0 0 1-.022 0 .05.05 0 0 1-.02 0 .05.05 0 0 1-.022 0 .05.05 0 0 1 0-.021.05.05 0 0 1 0-.021.05.05 0 0 1 0-.021c.376-.474.778-1.12 1.161-1.963.452-.97.655-1.714.655-2.259a.698.698 0 0 0-.064-.338.304.304 0 0 0-.253-.148zm22.1.528a.05.05 0 0 1 .022 0 .05.05 0 0 1 .021 0 .05.05 0 0 1 .021 0 .05.05 0 0 1 .021.021.05.05 0 0 1 0 .021c-.137.723-.32 1.478-.633 2.26-.147.358-.32.72-.549 1.097-.157.267-.296.483-.422.612a.473.473 0 0 1-.232.148.05.05 0 0 1-.021 0 .05.05 0 0 1-.021 0 .05.05 0 0 1-.021 0 .05.05 0 0 1 0-.021.05.05 0 0 1 0-.022c-.004-.015-.022-.051-.022-.126 0-.274.028-.474.085-.612.089-.165.157-.313.21-.401.516-.892 1.031-1.901 1.542-2.956a.05.05 0 0 1 0-.02zm-12.833.19a.05.05 0 0 1 .02 0 .05.05 0 0 1 .022 0 .05.05 0 0 1 .021 0 .05.05 0 0 1 .021 0 .05.05 0 0 1 0 .021.05.05 0 0 1 0 .021c-.028.295-.159.717-.422 1.31-.199.463-.454.963-.781 1.498-.23.378-.431.684-.591.865-.08.092-.156.152-.211.19-.028.02-.044.033-.064.043-.02.009-.038 0-.063 0-.007 0-.01.003-.021 0a.124.124 0 0 1-.042-.022c-.015-.016-.012-.023-.021-.042a.623.623 0 0 1-.042-.274c0-.331.042-.572.105-.718.185-.385.316-.669.422-.865a.05.05 0 0 1 .021-.021c.002-.003.02.002.021 0 .246-.512.474-1.064.718-1.626a.05.05 0 0 1 0-.021.05.05 0 0 1 .021 0 .05.05 0 0 1 .021 0 .05.05 0 0 1 .021 0 .468.468 0 0 0 .212.063c.14 0 .28-.075.422-.19.057-.046.118-.154.19-.232zm3.778 2.217a.05.05 0 0 1 .021 0 .05.05 0 0 1 .021 0 .05.05 0 0 1 .022 0 .05.05 0 0 1 0 .02.05.05 0 0 1 0 .022.05.05 0 0 1 0 .02c-.06.12-.155.238-.317.36a.05.05 0 0 1-.021 0c-.007.005-.015-.004-.021 0-.036.024-.058.044-.085.063a.05.05 0 0 1-.02 0 .05.05 0 0 1-.022 0 .05.05 0 0 1-.021-.021.05.05 0 0 1 0-.021.05.05 0 0 1 0-.021c.042-.056.093-.176.148-.232a.618.618 0 0 1 .295-.19zm-8.929.02c.043 0 .081-.005.106 0 .024.006.03.016.042.022a.05.05 0 0 1 .021 0 .05.05 0 0 1 0 .02.05.05 0 0 1 0 .022.574.574 0 0 1-.021.084c-.011.037-.024.09-.042.148-.041.131-.105.289-.19.507-.107.27-.193.467-.275.612-.04.073-.093.127-.126.169-.017.02-.011.052-.021.063-.006.006-.018-.003-.022 0-.001.002.002.02 0 .021h-.02a.49.49 0 0 1-.233.043c-.027 0-.044-.005-.063-.022a.227.227 0 0 1-.042-.042c-.026-.04-.043-.11-.043-.232 0-.237.044-.427.106-.591.075-.143.108-.237.148-.296.228-.37.461-.527.675-.527zm10.787 0c.045-.007.104 0 .169 0a.05.05 0 0 1 .02 0 .05.05 0 0 1 .022 0 .05.05 0 0 1 0 .022.05.05 0 0 1 0 .02.05.05 0 0 1 0 .022.05.05 0 0 1 0 .021c-.242.236-.472.431-.633.57a.05.05 0 0 1-.022 0 .05.05 0 0 1-.02 0 .05.05 0 0 1-.022 0 .05.05 0 0 1-.02-.021.05.05 0 0 1 0-.021.05.05 0 0 1 0-.021c.13-.268.267-.473.4-.55a.287.287 0 0 1 .106-.041zm12.454 0c.042-.007.091.002.148 0a.05.05 0 0 1 .02 0 .05.05 0 0 1 .022.022.05.05 0 0 1 0 .02.05.05 0 0 1 0 .022.05.05 0 0 1 0 .021c-.233.228-.454.412-.612.549a.05.05 0 0 1-.021 0 .05.05 0 0 1-.021 0 .05.05 0 0 1-.022 0 .05.05 0 0 1-.02-.021.05.05 0 0 1 0-.021.05.05 0 0 1 0-.021c.132-.259.27-.453.4-.528a.315.315 0 0 1 .106-.042zm2.3 0c.043-.007.092.002.149 0a.05.05 0 0 1 .02 0 .05.05 0 0 1 .022.022.05.05 0 0 1 0 .02.05.05 0 0 1 0 .022.05.05 0 0 1 0 .021c-.234.228-.454.412-.612.549a.05.05 0 0 1-.021 0 .05.05 0 0 1-.022 0 .05.05 0 0 1-.02 0 .05.05 0 0 1-.022-.021.05.05 0 0 1 0-.021.05.05 0 0 1 0-.021c.133-.259.27-.453.401-.528a.315.315 0 0 1 .106-.042zm-19.166.022a.05.05 0 0 1 .021 0 .05.05 0 0 1 .021 0 .05.05 0 0 1 .021 0 .05.05 0 0 1 0 .02.05.05 0 0 1 0 .022.05.05 0 0 1 0 .021c-.207.486-.409.884-.59 1.14-.215.301-.39.422-.528.422-.03 0-.045-.002-.064-.02-.009-.01-.019-.015-.02-.022-.007-.009-.022-.042-.022-.127 0-.127.061-.288.169-.506v-.021-.021a.05.05 0 0 1 0-.022c.128-.259.302-.462.507-.633.17-.14.32-.214.485-.253zm10.597 5.024c-.02.011-.034.041-.043.063l-2.09 5.425a.05.05 0 0 1 0 .021.05.05 0 0 1-.02 0 .05.05 0 0 1-.022 0H39.257c-.016.002-.03.013-.043.021-.013.008-.033.009-.042.021-.003.004.003.017 0 .021v.022l-.084.443a.227.227 0 0 0 0 .042v.021c.002.006.017.016.02.021.008.014.01.033.022.042h.021c.01.001.033.002.042 0h.106a.05.05 0 0 1 .02 0 .05.05 0 0 1 .022 0 .05.05 0 0 1 0 .022.05.05 0 0 1 0 .02.05.05 0 0 1 0 .022c-.15.384-.28.732-.38.907-.138.251-.269.45-.401.57a.575.575 0 0 1-.38.17h-.464c-.144 0-.249-.018-.317-.022h-.063c-.003.003-.021 0-.021 0h-.022a.05.05 0 0 1-.02 0 .219.219 0 0 1-.127-.084.184.184 0 0 1-.042-.127c0-.103.022-.253.084-.464.06-.207.163-.475.274-.781v-.021a.05.05 0 0 1 0-.022c.106-.295.148-.443.148-.57v-.063c.002-.016.005-.025 0-.042 0-.002-.035-.031-.063-.063-.02-.024-.052-.064-.085-.064-.037 0-.054.015-.063.021-.01.007-.006.026-.021.043-.012.014-.037.016-.042.02a2.007 2.007 0 0 0-.085.17c-.057.128-.135.302-.232.548-.21.518-.403.908-.591 1.161-.188.253-.35.36-.485.36h-.38a.23.23 0 0 0-.022 0c-.015 0-.029.013-.042.02-.014.008-.033.01-.042.021-.003.005.003.017 0 .022v.02l-.084.444a.227.227 0 0 0 0 .042c0 .004-.002.017 0 .021.002.006.017.016.02.021.008.014.01.033.022.042.004.004.016-.002.02 0 .01.001.034.002.043 0h.359c.203 0 .389-.1.57-.274.06-.058.133-.191.211-.295a.05.05 0 0 1 0-.022.05.05 0 0 1 .021 0 .05.05 0 0 1 .021 0 .05.05 0 0 1 .021 0 .05.05 0 0 1 .021 0 .05.05 0 0 1 0 .022.05.05 0 0 1 0 .02c.011.148.057.285.127.38.085.117.222.17.38.17h.887c.258 0 .49-.215.738-.507a.05.05 0 0 1 .022 0 .05.05 0 0 1 .02 0 .05.05 0 0 1 .022 0 .05.05 0 0 1 .02 0 .05.05 0 0 1 0 .02c.029.12.09.22.17.296.124.12.295.19.506.19h.528c.153 0 .284-.087.422-.21.004-.004.032-.006.042-.022.01-.015.005-.046.022-.063a.05.05 0 0 1 .02 0 .05.05 0 0 1 .022 0 .05.05 0 0 1 .02 0 .05.05 0 0 1 .022 0 .05.05 0 0 1 0 .021.05.05 0 0 1 0 .021v.063a.5.5 0 0 0 .063.275c.013.003.039.003.064.02a.05.05 0 0 1 .02 0 .05.05 0 0 1 0 .022.05.05 0 0 1 0 .021.05.05 0 0 1 0 .021.05.05 0 0 1 0 .021c-.275.319-.553.67-.78 1.119a6.362 6.362 0 0 0-.55 1.478c0 .007.002.013 0 .02a2.103 2.103 0 0 0-.041.38c0 .093.008.163.042.233.029.06.117.126.19.126.08 0 .117-.04.169-.084.05-.043.11-.093.169-.169.117-.151.257-.365.422-.654.32-.56.752-1.42 1.266-2.512a.05.05 0 0 1 0-.021.05.05 0 0 1 .021 0c.131-.058.292-.112.486-.106h.211a.23.23 0 0 0 .021 0c.015-.001.03-.013.042-.02.014-.008.033-.01.043-.022.003-.004-.003-.016 0-.021a.05.05 0 0 1 0-.021l.105-.422v-.021-.021a.227.227 0 0 0 0-.043v-.02c-.01-.013-.028-.014-.042-.022-.013-.008-.027-.02-.042-.02a.23.23 0 0 0-.021 0H42.149a.05.05 0 0 1-.022 0 .05.05 0 0 1-.02 0 .05.05 0 0 1 0-.022.05.05 0 0 1 0-.021.05.05 0 0 1 0-.021c.176-.39.355-.775.527-1.161a7.02 7.02 0 0 0 .232-.612 1.24 1.24 0 0 0 .085-.38.315.315 0 0 0-.021-.127c-.009-.02-.018-.044-.043-.063-.017-.013-.045-.021-.084-.021-.062 0-.071.028-.085.042-.014.015-.027.018-.042.042-.024.04-.06.095-.084.148-.19.425-.333.754-.443.992-.107.228-.183.35-.212.401v.021a.05.05 0 0 1 0 .021 3.47 3.47 0 0 1-.506.74.66.66 0 0 1-.253.168.05.05 0 0 1-.022 0 .05.05 0 0 1-.02 0 .05.05 0 0 1-.022 0 .05.05 0 0 1 0-.021.05.05 0 0 1 0-.021.05.05 0 0 1 0-.021c.208-.67.395-1.153.528-1.478.082-.206.13-.376.169-.507.039-.13.063-.199.063-.274 0-.03-.002-.05 0-.063.002-.013.009-.019 0-.042a.242.242 0 0 0-.063-.085.162.162 0 0 0-.085-.021c-.035 0-.051.016-.063.021-.012.005-.012.012-.021.021-.009.009-.023.015-.042.042a1.398 1.398 0 0 0-.085.148c-.061.12-.142.278-.232.507-.226.563-.427.991-.612 1.266a1.39 1.39 0 0 1-.253.296c-.074.06-.134.084-.19.084H39.53a.148.148 0 0 1-.042 0 .238.238 0 0 1-.127-.084c-.033-.04-.042-.09-.042-.169 0-.069.02-.172.063-.317.043-.144.105-.33.19-.549l.232-.57a.05.05 0 0 1 .022-.02.05.05 0 0 1 .02 0h.317a.23.23 0 0 0 .021 0c.016-.002.03-.014.043-.022.013-.007.033-.008.042-.02.003-.005-.003-.017 0-.022a.05.05 0 0 1 0-.02l.105-.423v-.021-.021a.227.227 0 0 0 0-.042c-.002-.005.003-.017 0-.021-.009-.013-.028-.014-.042-.022-.013-.007-.027-.02-.042-.02h-.148a.05.05 0 0 1-.02 0 .05.05 0 0 1-.022 0 .05.05 0 0 1 0-.022.05.05 0 0 1 0-.02.05.05 0 0 1 0-.022l2.005-5.087v-.022-.02a.227.227 0 0 0 0-.043v-.021c-.002-.006-.017-.016-.02-.021a.05.05 0 0 1 0-.021v-.021l-.127-.148c-.006-.004-.016-.018-.022-.021-.003-.002-.017.001-.02 0-.006-.004-.016-.019-.022-.021-.004-.002-.017.001-.02 0a.227.227 0 0 0-.043 0h-.021c-.005.002-.017-.003-.021 0zm-18.597.042c-.106 0-.171.065-.254.148a1.79 1.79 0 0 0-.274.337c-.162.267-.356.683-.57 1.183a.05.05 0 0 1 0 .02.05.05 0 0 1-.021 0 .05.05 0 0 1-.021 0 .05.05 0 0 1-.021 0c-.096-.025-.188-.055-.254-.147-.081-.116-.126-.297-.126-.549 0-.2.032-.484.105-.844a.232.232 0 0 0 0-.043c-.001-.015-.013-.029-.02-.042-.008-.013-.01-.033-.022-.042-.004-.003-.016.002-.021 0h-.021a.232.232 0 0 0-.042 0l-.19.021h-.021c-.006.003-.016.018-.021.021-.014.008-.033.009-.043.021-.003.005.003.017 0 .021v.022a5.96 5.96 0 0 0-.105 1.097c0 .325.057.602.169.802.08.144.19.23.337.296a.05.05 0 0 1 .021 0 .05.05 0 0 1 0 .021.05.05 0 0 1 0 .021.05.05 0 0 1 0 .021c-.719 1.66-1.295 2.894-1.773 3.8a.05.05 0 0 1-.02.02.05.05 0 0 1-.022 0 .05.05 0 0 1-.021 0 .05.05 0 0 1-.021 0 .05.05 0 0 1 0-.02c-.024-.052-.047-.122-.063-.148-.074-.113-.173-.19-.296-.19-.133 0-.247.078-.359.19a2.16 2.16 0 0 0-.338.464c-.193.343-.323.639-.38.887v.021a2.156 2.156 0 0 0-.042.401c0 .197.012.346.064.465.049.113.173.21.295.21a.44.44 0 0 0 .253-.084c.079-.054.144-.15.233-.253.125-.145.287-.383.443-.633a.05.05 0 0 1 0-.021.05.05 0 0 1 .021 0 .05.05 0 0 1 .021 0 .05.05 0 0 1 .021 0 .05.05 0 0 1 .021.02c.08.253.154.485.254.634.14.212.324.338.527.338h2.639c.176 0 .332-.108.485-.275.154-.168.318-.402.465-.717.18-.468.36-.83.549-1.056.188-.225.37-.317.549-.317H25.325l-.021.043.042-.021c.003.005.017.011.021.02.007.02 0 .05 0 .085 0 .075-.016.172-.063.317a7.497 7.497 0 0 1-.211.549c-.183.426-.254.755-.254.992 0 .104.015.2.064.274.045.069.14.106.232.106h1.287a.23.23 0 0 0 .022 0c.015-.002.029-.014.042-.021.014-.008.033-.01.042-.021.003-.005-.003-.017 0-.022v-.02c.023-.126.14-.29.38-.444.077-.054.132-.085.19-.127a.05.05 0 0 1 .021 0 .05.05 0 0 1 .021 0 .05.05 0 0 1 .021 0 .05.05 0 0 1 0 .022.05.05 0 0 1 0 .02.968.968 0 0 0-.02.19c0 .116.025.214.084.296a.312.312 0 0 0 .253.127H30.032c.176 0 .333-.108.486-.275.154-.168.318-.402.464-.717.18-.468.36-.83.549-1.056.188-.225.37-.316.549-.316.017 0 .01-.002.02 0h.022l-.021.042.042-.021c.003.005.017.011.021.02.007.02 0 .05 0 .085 0 .155-.077.448-.253.866-.182.423-.275.747-.275.992 0 .104.015.2.064.274.045.069.14.106.232.106h.443a.23.23 0 0 0 .021 0c.016-.002.03-.013.042-.021.014-.008.033-.009.043-.021.003-.004-.003-.017 0-.021v-.022l.084-.443a.227.227 0 0 0 0-.042c-.001-.004.002-.017 0-.021-.003-.006-.017-.016-.021-.021-.007-.014-.009-.033-.021-.042h-.021a.222.222 0 0 0-.042 0h-.338a.05.05 0 0 1-.021 0 .05.05 0 0 1-.021 0 .05.05 0 0 1 0-.022.05.05 0 0 1 0-.02c.006-.036.012-.1.042-.19.041-.127.105-.276.19-.486.181-.431.274-.78.274-1.056a.747.747 0 0 0-.105-.422.381.381 0 0 0-.317-.169c-.16 0-.32.053-.464.148a.05.05 0 0 1-.021 0 .05.05 0 0 1-.022 0 .05.05 0 0 1-.02 0 .05.05 0 0 1 0-.02l-.106-.149a.057.057 0 0 0-.021-.021c-.006-.004-.016-.018-.021-.021-.004-.002-.017.001-.022 0a.227.227 0 0 0-.042 0h-.02c-.005.002-.018-.003-.022 0-.012.01-.014.028-.021.042a.05.05 0 0 1-.021.021c-.18.456-.356.908-.528 1.372-.15.342-.274.593-.401.76-.063.084-.12.154-.169.19-.024.018-.044.033-.063.042-.02.01-.042 0-.064 0H29.78a.05.05 0 0 1-.021 0 .05.05 0 0 1-.021 0 .05.05 0 0 1 0-.02.05.05 0 0 1 0-.022.05.05 0 0 1 0-.02c.113-.233.237-.478.358-.803.174-.475.254-.816.254-1.055a.467.467 0 0 0-.127-.338.452.452 0 0 0-.338-.127H29.8c-.34 0-.637.194-.866.549-.112.165-.242.451-.422.908a3.92 3.92 0 0 0-.232.886.05.05 0 0 1 0 .021.05.05 0 0 1 0 .021.05.05 0 0 1-.021 0 .05.05 0 0 1-.021 0H27.9c-.12 0-.191-.015-.253-.02a.05.05 0 0 1-.021 0 .05.05 0 0 1-.021 0 .05.05 0 0 1 0-.022.05.05 0 0 1 0-.02c.095-.471.302-1.08.654-1.858.395-.866.794-1.724 1.182-2.576.454-1.048.748-1.936.908-2.66v-.02c.03-.155.042-.28.042-.38 0-.077.006-.115-.021-.17a.157.157 0 0 0-.064-.063.298.298 0 0 0-.105-.042c-.108 0-.165.068-.232.148-.067.079-.13.17-.211.316-.694 1.238-1.367 2.949-1.985 5.045a.05.05 0 0 1-.02.022.05.05 0 0 1-.022 0 .05.05 0 0 1-.02 0 .474.474 0 0 0-.254-.085.918.918 0 0 0-.422.085c-.265.127-.502.49-.76 1.097-.209.471-.322.848-.38 1.161a.05.05 0 0 1 0 .021.05.05 0 0 1-.021.021.05.05 0 0 1-.022 0h-.527a.05.05 0 0 1-.021 0 .05.05 0 0 1-.021 0 .05.05 0 0 1 0-.02.05.05 0 0 1 0-.022c.006-.036.012-.098.042-.19.04-.127.105-.275.19-.485.181-.432.274-.78.274-1.056a.747.747 0 0 0-.105-.422.381.381 0 0 0-.317-.169.863.863 0 0 0-.464.148.05.05 0 0 1-.022 0 .05.05 0 0 1-.02 0 .05.05 0 0 1-.022 0 .05.05 0 0 1 0-.021l-.105-.148a.057.057 0 0 0-.021-.021c-.006-.004-.016-.018-.021-.021-.004-.002-.017.001-.022 0a.227.227 0 0 0-.042 0h-.02c-.006.002-.018-.003-.022 0-.012.01-.014.028-.021.042a.05.05 0 0 1-.021.021c-.18.456-.356.908-.528 1.372-.15.342-.274.593-.401.76-.063.084-.12.154-.169.19-.024.018-.044.033-.063.042-.02.01-.042 0-.064 0H22.982a.05.05 0 0 1-.021 0 .05.05 0 0 1-.022 0 .05.05 0 0 1 0-.02.05.05 0 0 1 0-.022.05.05 0 0 1 0-.02c.114-.233.238-.478.36-.803.173-.475.253-.816.253-1.055a.467.467 0 0 0-.486-.464h-.063c-.34 0-.637.193-.866.548-.112.165-.242.451-.422.908a4.409 4.409 0 0 0-.253.886.05.05 0 0 1 0 .021.05.05 0 0 1 0 .021.05.05 0 0 1-.021 0 .05.05 0 0 1-.021 0h-.739c-.093 0-.193-.065-.296-.232-.1-.162-.172-.414-.253-.739a.05.05 0 0 1 0-.02.05.05 0 0 1 0-.022c.565-1.03 1.27-2.508 2.09-4.433a.05.05 0 0 1 0-.02.05.05 0 0 1 .02 0 .05.05 0 0 1 .022 0c.327-.045.603-.276.844-.718.246-.43.38-.85.38-1.225a.539.539 0 0 0-.063-.295.296.296 0 0 0-.232-.127zm14.48 0c-.208 0-.417.12-.633.317-.106.096-.238.267-.359.422a.05.05 0 0 1 0 .02.05.05 0 0 1-.02 0 .05.05 0 0 1-.022 0 .05.05 0 0 1-.021 0 .05.05 0 0 1-.021-.02.05.05 0 0 1 0-.021c.02-.165.035-.283.084-.55a.227.227 0 0 0 0-.041v-.022c-.002-.005-.017-.015-.02-.02a.057.057 0 0 0-.022-.022.05.05 0 0 1-.021-.02.227.227 0 0 0-.042 0h-.021l-.17.02h-.02c-.006.003-.016.018-.021.021a.057.057 0 0 0-.022.021.05.05 0 0 1-.02.022v.02c-.106.533-.17.938-.17 1.204 0 .061.014.115.022.169a.05.05 0 0 1 0 .02c-.446.786-.935 1.802-1.415 3.04-.569 1.469-.844 2.521-.844 3.21 0 .204.034.38.106.506.069.121.194.19.337.19.214 0 .408-.099.612-.275.206-.176.421-.425.634-.76a8.47 8.47 0 0 0 .78-1.477v-.021-.021a.227.227 0 0 0 0-.043c0-.004.002-.016 0-.02-.002-.007-.017-.016-.02-.022a.05.05 0 0 1 0-.02v-.022l-.127-.148c-.005-.004-.015-.018-.021-.02-.004-.003-.017 0-.021 0-.006-.004-.016-.02-.021-.022h-.022a.227.227 0 0 0-.042 0H36.048c-.02.012-.033.042-.042.063-.185.48-.384.92-.633 1.31-.184.29-.35.516-.507.654-.156.137-.301.19-.422.19-.016 0-.05-.006-.064-.022-.013-.015-.011-.024-.02-.042a.552.552 0 0 1-.043-.253c0-.52.273-1.473.823-2.85.445-1.128.862-2.01 1.246-2.68a.05.05 0 0 1 0-.022.05.05 0 0 1 .02 0 .05.05 0 0 1 .022 0 .05.05 0 0 1 .021 0c.109.05.234.085.401.085.316 0 .59-.202.823-.591.208-.346.338-.687.338-1.013a.55.55 0 0 0-.084-.317.304.304 0 0 0-.254-.127zm-.147.675a.05.05 0 0 1 .02 0 .05.05 0 0 1 .022 0 .05.05 0 0 1 0 .022.05.05 0 0 1 0 .02c-.02.107-.09.235-.211.38v.022c-.134.163-.266.255-.38.274h-.127a.05.05 0 0 1-.02 0 .05.05 0 0 1-.022 0 .05.05 0 0 1 0-.021.05.05 0 0 1 0-.021.05.05 0 0 1 0-.021c.13-.182.267-.383.38-.486a.594.594 0 0 1 .338-.169zm1.013 2.09c-.127 0-.221.079-.317.19a1.797 1.797 0 0 0-.295.465c-.152.349-.232.64-.232.886 0 .105.004.183.042.253a.277.277 0 0 0 .21.127c.132 0 .245-.08.339-.19.095-.112.19-.264.274-.464.151-.356.232-.64.232-.887a.518.518 0 0 0-.042-.253.277.277 0 0 0-.211-.127zM22.96 75.785c.045 0 .08-.006.105 0 .025.006.033.016.042.021a.05.05 0 0 1 .021 0 .05.05 0 0 1 0 .022.05.05 0 0 1 0 .02c-.003.075-.038.203-.105.402a9.77 9.77 0 0 1-.338.823c-.07.155-.134.266-.21.338a.341.341 0 0 1-.233.105h-.359v-.042l-.042-.021c.001-.008-.004-.027 0-.042.006-.031.025-.073.042-.127.035-.108.1-.246.169-.422a5.04 5.04 0 0 1 .338-.718c.103-.171.184-.26.253-.295a.81.81 0 0 1 .317-.064zm4.411 0c.027 0 .043 0 .064.021.01.011.02.019.02.022a.43.43 0 0 1 .022.042c.012.026.021.06.021.105 0 .122-.027.265-.063.401 0 .006.002.014 0 .021-.046.075-.094.137-.127.19-.184.313-.349.565-.507.718-.157.153-.304.211-.422.211a.111.111 0 0 1-.063-.02.05.05 0 0 1-.021-.022.05.05 0 0 1 0-.021.05.05 0 0 1 0-.021c.005-.02.014-.03.02-.042.007-.013.011-.03.022-.064.037-.112.09-.267.169-.464.122-.317.218-.565.316-.739.05-.087.107-.146.148-.19.02-.022.027-.05.042-.063.015-.013.027-.014.043-.021a.774.774 0 0 1 .316-.063zm2.386 0c.044 0 .077-.004.105 0a.214.214 0 0 1 .063.021.05.05 0 0 1 .022 0 .05.05 0 0 1 0 .022.05.05 0 0 1 0 .02c-.004.067-.033.201-.106.402-.077.212-.207.486-.359.823-.07.155-.134.266-.21.338a.342.342 0 0 1-.233.105h-.359v-.042l-.042-.021c.001-.008-.003-.027 0-.042.007-.031.025-.074.042-.127.035-.108.1-.246.169-.422a5.04 5.04 0 0 1 .338-.718c.103-.171.184-.261.253-.295a.81.81 0 0 1 .317-.064zm-4.497.085v.02l.022-.02zm6.797 0v.02l.022-.02zm-12.623.338a.05.05 0 0 1 .022 0 .05.05 0 0 1 .02 0 .05.05 0 0 1 .022 0 .05.05 0 0 1 0 .02c.017.021.01.024.02.043.031.057.073.154.106.274a.05.05 0 0 1 0 .021.05.05 0 0 1 0 .021c-.175.3-.34.545-.464.697a1.315 1.315 0 0 1-.19.19c.001-.002-.01.016-.021.021a.05.05 0 0 1-.021 0 .05.05 0 0 1-.021 0 .05.05 0 0 1-.021-.021.593.593 0 0 1-.022-.169c0-.063.011-.12.022-.169v-.02c.026-.134.087-.297.232-.528.084-.14.168-.253.232-.317.046-.046.06-.049.084-.063zm21.151 3.208a.05.05 0 0 1 .022 0 .05.05 0 0 1 .02 0 .05.05 0 0 1 .022 0 .05.05 0 0 1 .02.021.05.05 0 0 1 0 .021.05.05 0 0 1 0 .021c-.147.286-.348.684-.463.887a.05.05 0 0 1 0 .021.05.05 0 0 1-.022 0 .05.05 0 0 1-.02 0 .05.05 0 0 1-.022 0 .05.05 0 0 1-.02 0 .05.05 0 0 1 0-.021.05.05 0 0 1 0-.021.05.05 0 0 1 0-.021c.096-.232.196-.453.337-.697.043-.076.087-.127.126-.19a.05.05 0 0 1 0-.02z" font-size="14" font-weight="400" fill="#3f6490" font-family="Hurontario"/><path d="M12 90c-3.324 0-6-2.676-6-6V12c0-.335.041-.65.094-.969.048-.295.097-.597.187-.875l.032-.094a5.69 5.69 0 0 1 .375-.812c.144-.274.315-.536.5-.781a6.105 6.105 0 0 1 2.094-1.781c.278-.14.573-.247.874-.344-.256.1-.486.236-.719.375-.007.004-.023-.005-.03 0-.033.019-.063.042-.095.062-.12.077-.23.164-.343.25-.106.081-.214.161-.313.25a5.042 5.042 0 0 0-.5.532c-.107.13-.218.265-.312.406-.025.038-.039.086-.063.125-.065.103-.13.204-.187.312a5.371 5.371 0 0 0-.282.625c-.007.022-.023.04-.03.063-.033.092-.037.187-.063.281-.03.107-.07.203-.094.313A5.098 5.098 0 0 0 7 11v72c0 2.782 2.218 5 5 5h72c2.782 0 5-2.218 5-5V11c0-.364-.052-.721-.125-1.063a4.896 4.896 0 0 0-.156-.593c-.008-.022-.024-.04-.031-.063a5.482 5.482 0 0 0-.22-.531c-.04-.083-.078-.17-.124-.25-.055-.097-.127-.188-.188-.281a5.092 5.092 0 0 0-.312-.406 5.05 5.05 0 0 0-.469-.5l-.031-.032a4.818 4.818 0 0 0-.438-.343c-.102-.074-.204-.154-.312-.22-.008-.004-.024.005-.031 0a4.843 4.843 0 0 0-.72-.374c.302.097.597.204.876.343a6.105 6.105 0 0 1 2.094 1.782c.184.245.355.507.5.781.14.265.276.525.374.813l.032.093c.09.278.139.58.187.875.053.318.094.634.094.969v72c0 3.324-2.676 6-6 6H12z" opacity=".3" fill="url(#p)"/><g><path d="M59.917 15.5c0 .483-.411.875-.917.875v1.75c.506 0 .917.392.917.875s-.411.875-.917.875v1.75c.506 0 .917.392.917.875s-.411.875-.917.875v1.75c.506 0 .917.392.917.875s-.411.875-.917.875v1.75c.506 0 .917.392.917.875s-.411.875-.917.875v1.75c.506 0 .917.392.917.875s-.411.875-.917.875v1.75c.506 0 .917.392.917.875s-.411.875-.917.875v1.75c.506 0 .917.392.917.875s-.411.875-.917.875v1.75c.506 0 .917.392.917.875h1.833c0-.483.41-.875.917-.875.506 0 .916.392.916.875h1.834c0-.483.41-.875.916-.875s.917.392.917.875h1.833c0-.483.411-.875.917-.875s.917.392.917.875h1.833c0-.483.41-.875.917-.875.506 0 .916.392.916.875h1.834c0-.483.41-.875.916-.875s.917.392.917.875h1.833c0-.483.411-.875.917-.875v-1.75c-.506 0-.917-.392-.917-.875s.411-.875.917-.875v-1.75c-.506 0-.917-.392-.917-.875s.411-.875.917-.875v-1.75c-.506 0-.917-.392-.917-.875s.411-.875.917-.875v-1.75c-.506 0-.917-.392-.917-.875s.411-.875.917-.875v-1.75c-.506 0-.917-.392-.917-.875s.411-.875.917-.875v-1.75c-.506 0-.917-.392-.917-.875s.411-.875.917-.875v-1.75c-.506 0-.917-.392-.917-.875s.411-.875.917-.875v-1.75c-.506 0-.917-.392-.917-.875H78.25c0 .483-.41.875-.917.875-.506 0-.916-.392-.916-.875h-1.834c0 .483-.41.875-.916.875s-.917-.392-.917-.875h-1.833c0 .483-.411.875-.917.875s-.917-.392-.917-.875H67.25c0 .483-.41.875-.917.875-.506 0-.916-.392-.916-.875h-1.834c0 .483-.41.875-.916.875s-.917-.392-.917-.875h-1.833z" fill="url(#q)" filter="url(#r)"/><path d="M59.917 15c0 .483-.411.875-.917.875v1.75c.506 0 .917.392.917.875s-.411.875-.917.875v1.75c.506 0 .917.392.917.875s-.411.875-.917.875v1.75c.506 0 .917.392.917.875s-.411.875-.917.875v1.75c.506 0 .917.392.917.875s-.411.875-.917.875v1.75c.506 0 .917.392.917.875s-.411.875-.917.875v1.75c.506 0 .917.392.917.875s-.411.875-.917.875v1.75c.506 0 .917.392.917.875s-.411.875-.917.875v1.75c.506 0 .917.392.917.875h1.833c0-.483.41-.875.917-.875.506 0 .916.392.916.875h1.834c0-.483.41-.875.916-.875s.917.392.917.875h1.833c0-.483.411-.875.917-.875s.917.392.917.875h1.833c0-.483.41-.875.917-.875.506 0 .916.392.916.875h1.834c0-.483.41-.875.916-.875s.917.392.917.875h1.833c0-.483.411-.875.917-.875v-1.75c-.506 0-.917-.392-.917-.875s.411-.875.917-.875v-1.75c-.506 0-.917-.392-.917-.875s.411-.875.917-.875v-1.75c-.506 0-.917-.392-.917-.875s.411-.875.917-.875v-1.75c-.506 0-.917-.392-.917-.875s.411-.875.917-.875v-1.75c-.506 0-.917-.392-.917-.875s.411-.875.917-.875v-1.75c-.506 0-.917-.392-.917-.875s.411-.875.917-.875v-1.75c-.506 0-.917-.392-.917-.875s.411-.875.917-.875v-1.75c-.506 0-.917-.392-.917-.875H78.25c0 .483-.41.875-.917.875-.506 0-.916-.392-.916-.875h-1.834c0 .483-.41.875-.916.875s-.917-.392-.917-.875h-1.833c0 .483-.411.875-.917.875s-.917-.392-.917-.875H67.25c0 .483-.41.875-.917.875-.506 0-.916-.392-.916-.875h-1.834c0 .483-.41.875-.916.875s-.917-.392-.917-.875h-1.833z" fill="#fff"/><path fill="url(#s)" d="M61.721 17.432h16.57v23.011h-16.57z" transform="matrix(.96557 0 0 .95605 2.404 1.334)"/><path d="M69.541 34.039c-.533-.166-.842-.33-1.365-.726-1.404-1.062-2.134-2.627-1.737-3.72.165-.452.352-.738.69-1.055.589-.55 1.506-.957 2.653-1.175 1.78-.338 3.182.084 3.292.99.08.657-.46 1.255-2.018 2.235-1.106.696-1.537 1.066-1.537 1.322 0 .368.478.737.955.737.3 0 .455-.152.588-.578.176-.564.536-.763 1.394-.77.6-.006.787.124.815.567.016.26-.018.39-.182.701-.269.509-.9 1.093-1.454 1.347-.378.173-.495.197-1.082.215-.511.016-.736-.004-1.012-.09zm-3.446-6.201c-.453-.371-.648-1.111-.363-1.378.436-.405.989-.106 1.164.63.185.775-.259 1.19-.8.748zm1.53-1.034c-.325-.319-.433-.571-.436-1.017-.003-.379-.004-.483.21-.681.421-.393.952-.101 1.115.722.08.405-.01.771-.249 1.006-.22.217-.397.209-.64-.03zm4.37.001c-.21-.102-.44-.426-.494-.697-.106-.524.298-1.475.783-1.846.793-.604 1.963-.677 2.261-.14.243.437-.077 1.215-.787 1.915-.658.649-1.372.96-1.763.768zm-2.372-.419c-.251-.113-.433-.56-.434-1.069-.003-.743.314-1.14.91-1.14.365-.001.576.228.638.69.076.563-.304 1.4-.693 1.527-.234.076-.234.076-.421-.008z" opacity=".8" fill="#fff"/><path d="M73.626 38.42c-.291-.09-.46-.18-.746-.394-.766-.574-1.165-1.421-.948-2.013.09-.244.192-.4.377-.571.321-.298.822-.518 1.448-.636.972-.183 1.738.045 1.798.536.043.355-.252.68-1.102 1.21-.604.376-.84.576-.84.715 0 .199.262.399.522.399.164 0 .249-.083.321-.313.096-.305.293-.413.761-.417.329-.003.43.068.446.307.008.14-.01.212-.1.38-.147.275-.491.591-.794.729-.207.093-.27.106-.59.116-.28.009-.403-.002-.553-.049zm-1.882-3.357c-.248-.2-.354-.601-.198-.745.238-.22.54-.058.635.34.101.42-.141.645-.437.405zm.835-.56c-.177-.172-.236-.309-.238-.55-.002-.205-.002-.261.114-.368.23-.213.52-.055.61.39.044.22-.006.418-.136.545-.12.117-.217.113-.35-.016zm2.387.001c-.115-.055-.24-.23-.27-.377-.058-.284.162-.798.428-.999.432-.327 1.071-.367 1.234-.076.133.237-.042.658-.43 1.037-.359.35-.749.519-.962.415zm-1.296-.227c-.137-.06-.236-.302-.237-.578-.001-.402.172-.617.498-.617.198 0 .314.123.348.373.041.305-.166.758-.378.827-.129.04-.129.04-.23-.005z" opacity=".6" fill="#fff"/><path d="M65.114 36.175a1.288 1.288 0 0 1-.452-.238c-.465-.348-.707-.862-.575-1.22a.805.805 0 0 1 .228-.347c.195-.18.499-.314.878-.385.59-.111 1.054.027 1.09.324.027.216-.152.412-.668.734-.366.228-.508.35-.508.434 0 .12.158.241.316.241.1 0 .15-.05.194-.19.059-.184.178-.25.462-.252.199-.002.26.04.27.186.005.085-.006.128-.06.23-.09.167-.298.359-.482.442-.125.057-.164.065-.358.07a.921.921 0 0 1-.335-.029zm-1.141-2.035c-.15-.121-.215-.364-.12-.452.144-.133.327-.035.385.207.061.254-.086.39-.265.245zm.506-.339a.407.407 0 0 1-.144-.334c-.001-.124-.001-.158.07-.223.139-.13.314-.033.369.237.026.133-.004.253-.083.33-.073.071-.131.068-.212-.01zm1.447 0a.37.37 0 0 1-.163-.228c-.035-.172.098-.484.259-.606.262-.198.65-.222.749-.046.08.143-.026.399-.261.629-.218.212-.454.314-.584.252zm-.785-.137c-.083-.037-.143-.184-.144-.35 0-.245.104-.375.302-.375.12 0 .19.075.21.226.026.185-.1.46-.229.501-.077.025-.077.025-.14-.002zM71.827 23.106a1.288 1.288 0 0 1-.452-.239c-.465-.348-.707-.862-.575-1.22a.805.805 0 0 1 .229-.347c.194-.18.498-.314.878-.385.59-.11 1.053.027 1.09.325.026.215-.153.412-.668.733-.367.228-.51.35-.51.434 0 .12.159.242.317.242.1 0 .15-.05.195-.19.058-.185.177-.25.461-.253.2-.001.26.041.27.187.005.085-.006.128-.06.23-.09.167-.298.358-.482.442-.125.056-.164.064-.358.07a.921.921 0 0 1-.335-.03zm-1.14-2.035c-.151-.122-.216-.365-.121-.452.144-.133.327-.035.385.206.062.255-.086.391-.265.246zm.506-.34a.407.407 0 0 1-.145-.333c0-.125-.001-.159.07-.224.14-.129.315-.033.369.237.027.133-.004.253-.083.33-.072.072-.13.069-.211-.01zm1.446.001a.37.37 0 0 1-.163-.229c-.035-.172.098-.484.26-.606.262-.198.65-.222.748-.046.08.144-.026.4-.26.629-.219.213-.455.315-.585.252zm-.785-.138c-.083-.037-.143-.183-.144-.35 0-.244.104-.375.302-.375.12 0 .19.075.211.227.025.185-.1.46-.23.5-.077.026-.077.026-.139-.002zM64.927 24.545a.828.828 0 0 1-.29-.154c-.3-.223-.455-.553-.37-.784a.517.517 0 0 1 .147-.222c.125-.117.32-.202.564-.248.38-.071.677.017.7.208.018.139-.097.265-.429.472-.235.147-.327.225-.327.279 0 .077.102.155.203.155.064 0 .097-.032.126-.122.037-.119.114-.16.296-.162.128-.001.168.026.174.12.003.054-.004.082-.039.147a.744.744 0 0 1-.31.284.453.453 0 0 1-.23.046.592.592 0 0 1-.215-.02zm-.733-1.308c-.097-.078-.138-.235-.078-.29.093-.086.21-.023.248.132.04.164-.055.251-.17.158zm.325-.218a.262.262 0 0 1-.093-.215c0-.08 0-.102.045-.143.09-.083.203-.022.237.152.017.085-.002.163-.053.212-.046.046-.084.044-.136-.006zm.93 0a.238.238 0 0 1-.105-.147c-.023-.11.063-.311.167-.39.168-.127.417-.142.48-.029.052.092-.016.256-.167.404-.14.137-.292.202-.375.162zm-.505-.088c-.053-.024-.092-.118-.092-.226 0-.157.067-.24.194-.24.077 0 .122.048.136.145.016.119-.065.296-.148.322-.05.016-.05.016-.09-.001z" opacity=".4" fill="#fff"/><path d="M73.688 23.125c-2.538-.024-4.59.567-6.532 1.094-1.94.526-3.83 1.005-6.219 1-2.362-.005-3.742-.573-5.53-1.125-1.762-.544-3.901-1.048-7.25-.719l.218.688c3.092-.312 4.725.074 6.406.593 1.703.526 3.428 1.213 6.157 1.219 2.703.006 4.868-.566 6.812-1.094 1.944-.527 3.708-1.02 5.906-1 2.163.021 3.683.502 5.219 1 1.503.488 3.041 1.003 5 .969l-.094-.656c-1.526.02-2.71-.386-4.219-.875-1.55-.504-3.388-1.07-5.874-1.094zm0 4c-2.538-.024-4.59.567-6.532 1.094-1.94.526-3.83 1.005-6.219 1-2.362-.005-3.742-.573-5.53-1.125-1.762-.544-3.901-1.048-7.25-.719l.218.688c3.092-.312 4.725.074 6.406.593 1.703.526 3.428 1.213 6.157 1.219 2.703.006 4.868-.566 6.812-1.094 1.944-.527 3.708-1.02 5.906-1 2.163.021 3.683.502 5.219 1 1.503.488 3.041 1.003 5 .969l-.094-.656c-1.526.02-2.71-.386-4.219-.875-1.55-.504-3.388-1.07-5.874-1.094zm0 4c-2.538-.024-4.59.567-6.532 1.094-1.94.526-3.83 1.005-6.219 1-2.362-.005-3.742-.573-5.53-1.125-1.762-.544-3.901-1.048-7.25-.719l.218.688c3.092-.312 4.725.074 6.406.593 1.703.526 3.428 1.213 6.157 1.219 2.703.006 4.868-.566 6.812-1.094 1.944-.527 3.708-1.02 5.906-1 2.163.021 3.683.502 5.219 1 1.503.488 3.041 1.003 5 .969l-.094-.656c-1.526.02-2.71-.386-4.219-.875-1.55-.504-3.388-1.07-5.874-1.094zm0 4c-2.538-.024-4.59.567-6.532 1.094-1.94.526-3.83 1.005-6.219 1-2.362-.005-3.742-.573-5.53-1.125-1.762-.544-3.901-1.048-7.25-.719l.218.688c3.092-.312 4.725.074 6.406.593 1.703.526 3.428 1.213 6.157 1.219 2.703.006 4.868-.566 6.812-1.094 1.944-.527 3.708-1.02 5.906-1 2.163.021 3.683.502 5.219 1 1.503.488 3.041 1.003 5 .969l-.094-.656c-1.526.02-2.71-.386-4.219-.875-1.55-.504-3.388-1.07-5.874-1.094z" opacity=".3" fill-rule="evenodd"/><g><path style="text-align:center;line-height:80.00000119%;-inkscape-font-specification:Forgotten Futurist" d="M22.627 26.431l.297-.105c.076.214.225.28.449.202l.325-.116c.262-.093.336-.299.223-.618l-.167-.469-.78.277c-.38.135-.636.014-.77-.362l-.117-.33c-.16-.454-.043-.75.352-.89l.44-.157c.409-.145.691.003.848.443l.523 1.474c.165.466.044.771-.365.916l-.469.167c-.373.132-.636-.012-.789-.432m1.017-1.417l-.175-.493c-.109-.306-.276-.419-.503-.339l-.373.133c-.227.08-.283.287-.168.62.107.303.244.425.41.366l.809-.287m1.03 1.046l.151-.053c.038.107.102.144.191.113l.242-.086c.102-.036.123-.136.063-.3-.055-.155-.15-.208-.283-.159l-.112.04-.055-.155.112-.04c.134-.048.171-.156.111-.325-.052-.148-.124-.206-.214-.172l-.28.1c-.072.025-.089.091-.051.198l-.153.054c-.075-.21-.015-.35.18-.42l.272-.096c.173-.061.295.009.366.21l.053.15c.054.15.02.257-.102.32.138-.017.23.039.275.166l.056.158c.076.214.018.355-.173.423l-.245.087c-.194.069-.329-.002-.404-.213m1.89-.587c.056.162.008.27-.143.323l-.38.135c-.159.056-.265.001-.318-.165l-.333-.938c-.054-.153-.009-.254.137-.304l.395-.14c.151-.054.254-.005.308.146l.335.943m-.167.002l-.301-.85c-.027-.076-.083-.099-.168-.069l-.294.105c-.081.028-.109.081-.081.158l.301.85c.017.045.04.076.073.09a.123.123 0 0 0 .093.004l.32-.114c.03-.01.05-.033.06-.067a.162.162 0 0 0-.003-.107m1.091-1.292l.39 1.096-.297.105-1-2.819.966-.343c.435-.15.733 0 .894.454l.11.31c.172.486.041.805-.393.96l-.67.237m-.5-1.412l.39 1.1.66-.234c.243-.086.317-.263.221-.53l-.112-.317c-.09-.255-.257-.34-.5-.253l-.66.234m4.351 1.28l-.297.105-.835-2.355.102.713.207 1.829-.335.119-.976-1.535-.38-.63.834 2.35-.301.107-1-2.82.45-.159 1.283 2.083.167.29-.052-.315-.317-2.442.45-.16 1 2.82m-5.841 6.384l-.412.146-1.456-1.644-.217-.279.793 2.235-.297.106-1-2.82.335-.118 1.616 1.835.196.248-.86-2.421.302-.107 1 2.819m1.901-1.22c.111.324.015.54-.288.647l-.76.27c-.317.112-.528.002-.635-.33l-.666-1.876c-.109-.306-.017-.51.274-.609l.79-.28c.303-.108.508-.01.616.293l.67 1.886m-.333.004l-.603-1.699c-.055-.153-.166-.2-.335-.14l-.59.21c-.162.057-.216.163-.162.316l.603 1.699c.033.093.081.153.145.18.064.028.126.031.187.01l.64-.228c.062-.021.101-.066.12-.134a.325.325 0 0 0-.005-.214m1.411-3.017l.36 3.047-.403.142-1.608-2.603.306-.109.894 1.44.224.39.32.58-.115-.643-.073-.448-.211-1.687.306-.109m2.478 2.294l-.296.106-.892-2.513-.378.134-.11-.31.674-.24 1.002 2.823m1.273-2.93l-.302.107c-.07-.216-.219-.283-.448-.202l-.374.133c-.226.08-.287.267-.183.56l.18.508.847-.3c.335-.12.57.014.708.4l.134.378c.146.412.004.694-.427.847l-.397.14c-.408.146-.674.04-.796-.315l-.614-1.727c-.139-.382-.023-.639.347-.77l.57-.202c.351-.132.603.015.755.443m-1.017 1.417l.182.512c.1.295.266.401.496.32l.35-.124c.235-.084.298-.293.186-.627-.107-.303-.263-.418-.467-.346l-.747.265m-5.117 7.2l1.344-.478.11.311-1.645.585-.318-.895c-.16-.453-.032-.754.386-.902l.483-.172c.168-.063.22-.186.155-.367l-.143-.403c-.063-.178-.173-.24-.33-.184l-.636.226c-.127.045-.167.135-.12.269l.043.12-.302.106-.019-.052c-.137-.386-.04-.638.293-.756l.593-.21c.37-.132.619-.02.746.338l.152.43c.072.202.082.369.033.501-.048.129-.205.24-.47.334l-.401.143c-.198.07-.253.224-.165.462l.21.594m3.342-1.38c.111.323.015.539-.288.646l-.761.27c-.316.112-.527.002-.634-.33l-.666-1.876c-.109-.306-.018-.509.274-.609l.79-.28c.303-.108.508-.01.616.293l.669 1.886m-.332.005l-.603-1.7c-.055-.153-.167-.2-.336-.14l-.588.21c-.163.058-.217.163-.163.316l.603 1.7c.033.092.081.152.145.18.064.027.126.03.186.009l.642-.228c.06-.021.1-.066.12-.134a.325.325 0 0 0-.006-.213m2.416-.745c.112.323.016.539-.287.646l-.761.27c-.316.113-.528.003-.635-.33l-.666-1.875c-.108-.307-.017-.51.274-.61l.79-.28c.303-.108.509-.01.616.293l.67 1.886m-.333.005l-.603-1.7c-.054-.152-.166-.199-.335-.139l-.589.209c-.163.058-.217.163-.162.316l.603 1.7c.032.092.08.152.144.18.064.027.126.03.187.009l.641-.228c.06-.021.1-.066.12-.134a.325.325 0 0 0-.006-.213m.64-1.165c-.18.017-.328-.137-.444-.462l-.095-.268c-.142-.399-.03-.663.333-.792l.56-.199c.363-.121.614.014.753.407l.094.263c.116.328.079.547-.113.654.216-.04.38.1.495.423l.097.272c.147.415.04.687-.32.815l-.56.198c-.364.13-.62-.013-.767-.428l-.103-.292c-.104-.294-.08-.49.07-.591m.863-1.06c-.103-.291-.261-.398-.475-.322l-.407.144c-.217.077-.27.272-.159.584.117.318.261.447.433.386l.527-.187c.169-.06.196-.262.081-.606m.456 1.283c-.116-.304-.256-.427-.422-.368l-.522.185c-.188.067-.22.264-.098.59.11.306.272.42.489.344l.388-.138c.22-.078.275-.282.164-.613" font-size="8" font-weight="400" text-anchor="middle" opacity=".4" font-family="Forgotten Futurist"/><path d="M39.406 27.967a11.45 11.45 0 1 1-22.898 0 11.45 11.45 0 1 1 22.898 0z" opacity=".4" fill="none" stroke="#000" stroke-width=".49951664" stroke-linejoin="round"/><path d="M36.29 27.967a8.333 8.333 0 1 1-16.666 0 8.333 8.333 0 1 1 16.666 0z" opacity=".4" fill="none"/><path d="M32.03 37.638l-.975-.253-.503.874-.061-1.007-.987-.208.939-.369-.107-1.003.64.779.921-.412-.542.85zM35.252 35.717l-.976-.253-.503.874-.06-1.006-.987-.208.938-.37-.107-1.002.641.778.92-.411-.542.85zM28.285 38.047l-.976-.253-.503.874-.061-1.006-.987-.209.939-.368-.107-1.003.64.778.921-.411-.542.85z" opacity=".4"/><path style="text-align:start;line-height:120.00000477%;-inkscape-font-specification:Forgotten Futurist" d="M21.584 32.257l1.005 1.206-2.262 1.886-1.005-1.206.25-.208.803.964.753-.628-.397-.476.25-.208.396.476.76-.634-.803-.964.25-.208m-3.44-.312l2.939-.696.185.378-2.365 1.866-.14-.287 1.306-1.036.356-.264.533-.378-.617.185-.43.122-1.627.397-.14-.287m1.717-3.202c.332-.061.527.064.588.375l.152.78c.063.324-.075.514-.414.57l-1.924.374c-.314.061-.498-.057-.553-.356l-.158-.81c-.06-.31.065-.496.376-.557l1.933-.376m-.043.324l-1.743.34c-.157.03-.218.132-.185.306l.118.603c.032.167.127.235.284.205l1.742-.34c.095-.018.16-.056.197-.114a.243.243 0 0 0 .036-.18l-.128-.658a.182.182 0 0 0-.113-.136.32.32 0 0 0-.208-.026m.592-2.015l-.036 1.184-2.963-.09.01-.31 2.633.08.026-.874.33.01m-2.86-.832l.08-.3 2.108.553c.287.075.462-.006.524-.245l.118-.45c.062-.235-.05-.39-.337-.466l-2.109-.553.077-.295 2.027.532c.551.144.769.438.653.88l-.113.43c-.115.438-.449.587-1 .445l-2.027-.531m1.898-3.914l-.31.56 2.304 1.277-.15.272-2.304-1.279-.284.512-.284-.158.744-1.342.284.158m2.629.926l-.193.248-2.327-1.805.194-.25 2.326 1.807m1.227-1.9c.22.254.211.486-.026.696l-.596.526c-.248.218-.481.195-.701-.069l-1.297-1.47c-.212-.24-.203-.458.027-.657l.619-.545c.237-.21.46-.196.67.041l1.304 1.478m-.302.126l-1.175-1.331c-.106-.12-.225-.121-.357-.005l-.461.407c-.128.113-.139.23-.033.349l1.175 1.33c.064.073.13.11.198.113a.243.243 0 0 0 .174-.06l.502-.444a.182.182 0 0 0 .06-.166.32.32 0 0 0-.083-.193m2.48-.687l-.387.186-1.596-1.46-.241-.25 1.007 2.107-.28.134-1.27-2.657.315-.151 1.772 1.63.218.223-1.092-2.282.284-.136 1.27 2.656m3.123-.44l-.31.02-.153-2.456-.096.702-.3 1.788-.349.021-.508-1.716-.189-.7.153 2.45-.314.02-.184-2.94.469-.028.651 2.318.08.321.036-.313.36-2.397.47-.03.184 2.94m2.003.43l-.313-.07.01-.484-.87-.19-.2.442-.312-.068 1.193-2.754.561.123-.07 3m-.302-.885l.039-1.435.032-.638-.236.588-.572 1.323.737.162m.742 1.115l-.292-.117 1.1-2.732.292.117-1.1 2.732m1.42.761l-1.023-.597 1.495-2.56.268.156-1.329 2.275.756.441-.167.285m1.849 1.784l-.576-.618c-.355-.38-.323-.765.094-1.154l.958-.893c.383-.356.75-.342 1.099.043l.576.618-.23.215-.61-.655c-.191-.205-.386-.215-.583-.031l-1.003.94c-.256.234-.297.444-.125.63l.638.684-.238.221m.632 1.1l-.625-1.006 2.518-1.565.164.263-2.238 1.391.462.743-.28.174m.14.39l-.13-.287 2.685-1.21.13.288-2.685 1.21m.578 1.908l-.388-1.52 2.853-.73.389 1.522-.315.08-.31-1.216-.95.243.153.6-.315.08-.153-.6-.96.245.311 1.216-.315.08m.029 2l.003-.43 2.012-.793.33-.108-2.334-.019.002-.31 2.945.024-.003.35-2.242.877-.296.098 2.53.02-.002.315-2.945-.024m2.107 2.479l.163-.619-2.549-.67.08-.3 2.548.67.148-.566.315.083-.39 1.485-.315-.083" font-size="5" font-weight="400" opacity=".4" font-family="Forgotten Futurist"/></g></g><g><path d="M14.469 6L12 10h9.906l2.5-4H14.47zm14.969 0l-2.47 4h9.907l2.5-4h-9.938zm14.875 0l-2.47 4h9.907l2.5-4h-9.938zm14.874 0l-2.468 4h9.937l2.469-4h-9.938zm14.907 0l-2.5 4h9.937L84 6h-9.906zM10 12l-4 2.469v9.937l4-2.5V12zm80 0l-4 2.469v9.937l4-2.5V12zM10 26.875l-4 2.469v9.937l4-2.468v-9.938zm80 0l-4 2.469v9.937l4-2.468v-9.938zM10 41.75l-4 2.5v9.906l4-2.468V41.75zm80 0l-4 2.5v9.906l4-2.468V41.75zM10 56.625l-4 2.5v9.906l4-2.469v-9.937zm80 0l-4 2.5v9.906l4-2.469v-9.937zM10 71.594l-4 2.5V84l4-2.469v-9.937zm80 0l-4 2.5V84l4-2.469v-9.937zM14.469 86L12 90h9.906l2.5-4H14.47zm14.969 0l-2.47 4h9.907l2.5-4h-9.938zm14.875 0l-2.47 4h9.907l2.5-4h-9.938zm14.874 0l-2.468 4h9.937l2.469-4h-9.938zm14.907 0l-2.5 4h9.937L84 86h-9.906z" fill="url(#t)"/><path d="M12 6c-3.324 0-6 2.676-6 6v72c0 .335.041.65.094.969.048.295.097.597.187.875l.032.094c.098.287.234.547.375.812.144.274.315.536.5.781a6.105 6.105 0 0 0 2.094 1.781c.278.14.573.247.874.344a4.843 4.843 0 0 1-.719-.375c-.007-.004-.023.005-.03 0-.033-.02-.063-.042-.095-.062-.12-.077-.23-.164-.343-.25-.106-.081-.214-.161-.313-.25a5.042 5.042 0 0 1-.5-.531 5.092 5.092 0 0 1-.312-.407c-.025-.038-.039-.086-.063-.125-.065-.103-.13-.204-.187-.312a5.371 5.371 0 0 1-.282-.625c-.007-.022-.023-.04-.03-.063-.033-.092-.037-.187-.063-.281-.03-.107-.07-.203-.094-.313A5.098 5.098 0 0 1 7 85V13c0-2.782 2.218-5 5-5h72c2.782 0 5 2.218 5 5v72c0 .364-.052.721-.125 1.063a4.896 4.896 0 0 1-.156.593c-.008.022-.024.04-.031.063a5.482 5.482 0 0 1-.22.531c-.04.083-.078.17-.124.25-.055.097-.127.188-.188.281a5.092 5.092 0 0 1-.312.406 5.05 5.05 0 0 1-.469.5l-.031.032a4.818 4.818 0 0 1-.438.344c-.102.073-.204.153-.312.218-.008.005-.024-.004-.031 0a4.843 4.843 0 0 1-.72.375c.302-.097.597-.204.876-.344a6.105 6.105 0 0 0 2.094-1.78c.184-.246.355-.508.5-.782a5.69 5.69 0 0 0 .374-.813l.032-.093c.09-.278.139-.58.187-.875.053-.318.094-.634.094-.969V12c0-3.324-2.676-6-6-6H12z" opacity=".5" fill="url(#u)"/><rect clip-path="url(#v)" y="15" x="15" ry="12" rx="12" height="66" width="66" opacity=".1" fill="url(#w)" stroke="#fff" stroke-width=".5" stroke-linecap="round" filter="url(#x)"/></g></svg>