<svg id="svg9892" width="16" height="16" version="1.1" xmlns="http://www.w3.org/2000/svg">
 <defs id="defs9894">
  <linearGradient id="linearGradient904" x1="29.330967" x2="29.330967" y1="1034.3317" y2="1046.5824" gradientTransform="matrix(1.142791,0,0,1.142791,-32.519166,-1181.0249)" gradientUnits="userSpaceOnUse">
   <stop id="stop3786" style="stop-color:#f5f5f5;stop-opacity:.07843138" offset="0"/>
   <stop id="stop3789" style="stop-color:#f5f5f5;stop-opacity:0" offset="1"/>
  </linearGradient>
 </defs>
 <rect id="rect909-7" width="16" height="16" ry="3" style="fill:@selected_bg_color@;paint-order:stroke fill markers;stroke-width:0"/>
 <rect id="rect909-7-3" width="16" height="16" ry="3" style="fill:url(#linearGradient904);paint-order:stroke fill markers"/>
 <path id="rect909-7-3-5-9" d="m3.0000001 0c-1.662 0-3.0000001 1.338-3.0000001 3v10c0 1.662 1.3380001 3 3.0000001 3h9.9999999c1.662 0 3-1.338 3-3v-10c0-1.662-1.338-3-3-3zm0 1h9.9999999c1.125297 0 2 0.874703 2 2v10c0 1.125297-0.874703 2-2 2h-9.9999999c-1.125297 0-2-0.874703-2-2v-10c0-1.125297 0.874703-2 2-2z" style="color-rendering:auto;color:#000000;dominant-baseline:auto;fill-opacity:.13333333;fill:#000000;font-feature-settings:normal;font-variant-alternates:normal;font-variant-caps:normal;font-variant-ligatures:normal;font-variant-numeric:normal;font-variant-position:normal;image-rendering:auto;isolation:auto;mix-blend-mode:normal;paint-order:normal;shape-padding:0;shape-rendering:auto;solid-color:#000000;text-decoration-color:#000000;text-decoration-line:none;text-decoration-style:solid;text-indent:0;text-orientation:mixed;text-transform:none;white-space:normal"/>
 <path id="rect3979-7" d="m12.555769 3.4977197 1.741623 1.741624-6.9664767 6.9664803-1.741624-1.741624zm-7.2567697 3.1929712c1.073813 1.074814 2.149653 2.1476492 3.222197 3.2237018 0.314613 0.3283543 0.266591 0.9001483-0.08338 1.1845283-0.219675 0.209225-0.418527 0.442319-0.655407 0.631895-0.341445 0.237802-0.838576 0.148566-1.097038-0.170534-1.052142-1.053145-2.106316-2.1043139-3.15719-3.1586969-0.314612-0.328357-0.266591-0.9001478 0.08338-1.1845284 0.219636-0.2092645 0.418527-0.4423168 0.655404-0.6318962 0.314697-0.2148673 0.767139-0.1686395 1.032034 0.1055304z" style="fill:#f5f5f5"/>
</svg>
