<svg id="svg9892" width="16" height="16" version="1.1" xmlns="http://www.w3.org/2000/svg">
 <rect id="rect5147-9-1-7-2" x=".005557653" y=".0060539651" width="15.986923" height="15.986927" rx="7.9934616" ry="7.9934635" style="color:#000000;fill:#f5f5f5;paint-order:stroke fill markers;stroke-width:0"/>
 <rect id="use15101-5-7" x="4.8070579" y="4.807539" width="6.3864856" height="6.3864856" rx="3.191447" ry="3.1932428" style="color:#000000;fill:@selected_bg_color@"/>
 <path id="rect5147-9-1-7-2-6-7" d="m8.000301 0.0076178c-4.428378 0-7.994141 3.565762-7.994141 7.994141 0 4.4283792 3.565763 7.9921872 7.994141 7.9921872s7.994141-3.563808 7.994141-7.9921872c0-4.428379-3.565763-7.994141-7.994141-7.994141zm0 1c3.891675 0 6.994141 3.102465 6.994141 6.994141 0 3.8916762-3.102466 6.9941412-6.994141 6.9941402-3.891675 0-6.994141-3.102464-6.994141-6.9941402 0-3.891676 3.102466-6.994141 6.994141-6.994141z" style="color-rendering:auto;color:#000000;dominant-baseline:auto;fill-opacity:.13333333;fill:#000000;font-feature-settings:normal;font-variant-alternates:normal;font-variant-caps:normal;font-variant-ligatures:normal;font-variant-numeric:normal;font-variant-position:normal;image-rendering:auto;isolation:auto;mix-blend-mode:normal;paint-order:normal;shape-padding:0;shape-rendering:auto;solid-color:#000000;text-decoration-color:#000000;text-decoration-line:none;text-decoration-style:solid;text-indent:0;text-orientation:mixed;text-transform:none;white-space:normal"/>
</svg>
