<svg id="svg9892" width="15.999999" height="15.999999" version="1.1" xmlns="http://www.w3.org/2000/svg">
 <rect id="rect5147-9-1-7-2" x=".0055572297" y=".0060536871" width="15.986923" height="15.986927" rx="7.9934616" ry="7.9934635" style="color:#000000;fill:@selected_bg_color@;opacity:.6;stroke-width:0"/>
 <rect id="use15101-5-7" x="4.8070583" y="4.807539" width="6.3864856" height="6.3864856" rx="3.191447" ry="3.1932428" style="color:#000000;fill:#f5f5f5;opacity:.6"/>
 <path id="rect5147-9-1-7-2-6-7" d="m8.0003008 0.00761738c-4.428378 0-7.994141 3.565762-7.994141 7.994141 0 4.4283796 3.565763 7.9921876 7.994141 7.9921876 4.4283782 0 7.9941412-3.563808 7.9941412-7.9921876 0-4.428379-3.565763-7.994141-7.9941412-7.994141zm0 1c3.8916752 0 6.9941412 3.102465 6.9941412 6.994141 0 3.8916766-3.102466 6.9941416-6.9941412 6.9941406-3.891675 0-6.994141-3.102464-6.994141-6.9941406 0-3.891676 3.102466-6.994141 6.994141-6.994141z" style="color-rendering:auto;color:#000000;dominant-baseline:auto;fill-opacity:.13333333;fill:#000000;font-feature-settings:normal;font-variant-alternates:normal;font-variant-caps:normal;font-variant-ligatures:normal;font-variant-numeric:normal;font-variant-position:normal;image-rendering:auto;isolation:auto;mix-blend-mode:normal;opacity:.6;shape-padding:0;shape-rendering:auto;solid-color:#000000;text-decoration-color:#000000;text-decoration-line:none;text-decoration-style:solid;text-indent:0;text-orientation:mixed;text-transform:none;white-space:normal"/>
</svg>
