<svg id="svg9892" width="15.999999" height="15.999999" version="1.1" xmlns="http://www.w3.org/2000/svg">
 <rect id="rect5147-9-1-7-2" x=".0052559134" y=".0052718278" width="15.986923" height="15.986927" rx="7.9934616" ry="7.9934635" style="color:#000000;fill:@selected_bg_color@;stroke-width:0"/>
 <rect id="use15101-5-7" x="4.806757" y="4.806757" width="6.3864856" height="6.3864856" rx="3.191447" ry="3.1932428" style="color:#000000;fill:#f5f5f5"/>
 <path id="rect5147-9-1-7-2-6-7" d="m7.9999995 0.00683552c-4.428378 0-7.994141 3.565762-7.994141 7.994141 0 4.4283795 3.565763 7.9921875 7.994141 7.9921875 4.4283785 0 7.9941415-3.563808 7.9941415-7.9921875 0-4.428379-3.565763-7.994141-7.9941415-7.994141zm0 0.99999998c3.8916755 0 6.9941415 3.102465 6.9941415 6.994141 0 3.8916765-3.102466 6.9941415-6.9941415 6.9941405-3.891675 0-6.994141-3.102464-6.994141-6.9941405 0-3.891676 3.102466-6.994141 6.994141-6.994141z" style="color-rendering:auto;color:#000000;dominant-baseline:auto;fill-opacity:.13333333;fill:#000000;font-feature-settings:normal;font-variant-alternates:normal;font-variant-caps:normal;font-variant-ligatures:normal;font-variant-numeric:normal;font-variant-position:normal;image-rendering:auto;isolation:auto;mix-blend-mode:normal;shape-padding:0;shape-rendering:auto;solid-color:#000000;text-decoration-color:#000000;text-decoration-line:none;text-decoration-style:solid;text-indent:0;text-orientation:mixed;text-transform:none;white-space:normal"/>
</svg>
