<svg id="Layer_1" style="enable-background:new 0 0 30 30" version="1.1" viewBox="0 0 30 30" xmlns="http://www.w3.org/2000/svg">
 <path id="path3" d="m0.57971325 16.186226c0 0.914522 0.47714115 1.696505 1.431425 2.345947 1.749518 1.232617 4.3870508 1.842297 7.9258525 1.842297 1.5904713 0 3.0616653-0.132539 4.4268233-0.410872 1.431425-0.30484 2.611024-0.795235 3.512293-1.457932 0.901268-0.662697 1.365156-1.431425 1.365156-2.332693 0-0.278333-0.05303-0.543411-0.159047-0.821744 1.842297-0.450634 3.286977-1.060316 4.334037-1.829044 1.047061-0.768728 1.577218-1.656742 1.577218-2.650786 0-0.251825-0.03977-0.516904-0.119285-0.795236 3.035151-1.0735683 4.546101-2.5182475 4.546101-4.3472908 0-1.1663465-0.662698-2.2001535-1.974838-3.1014211-2.584517-1.7230122-6.375143-2.5845181-11.371878-2.5845181-2.359199 0-4.493094 0.21206299-6.401658 0.62293499-2.0808694 0.42412599-3.7508653 1.0868232-5.0232431 1.9880909-1.2723768 0.9012677-1.9085662 1.9350748-1.9085662 3.0881672 0 0.6892048 0.2120629 1.3121398 0.6361894 1.882059-1.5639635 0.888014-2.345945 1.9748367-2.345945 3.2604679 0 0.994044 0.4903957 1.868804 1.4579304 2.624278-1.2723759 0.742221-1.9085652 1.630235-1.9085652 2.677295zm0.79523655 5.964272c0 0.967537 0.5964268 1.736265 1.7892797 2.279677 1.1928536 0.543411 2.7038025 0.821743 4.5195923 0.821743 1.8422974 0 3.3532442-0.278332 4.5593522-0.821743 1.206119-0.543412 1.802547-1.31214 1.802547-2.279677 0-0.357857-0.119286-0.662697-0.344604-0.914523-0.225316-0.251825-0.530156-0.37111-0.888017-0.37111-0.291591 0-0.556671 0.106027-0.795242 0.304841-0.238571 0.19881-0.384365 0.463889-0.450635 0.755475-0.265079 0.212061-0.74222 0.397619-1.457931 0.569918-0.7157115 0.172302-1.5242012 0.26508-2.4254702 0.26508-1.4579331 0-2.6507879-0.212063-3.5520546-0.622937 0.2120626-0.212061 0.3180942-0.47714 0.3446015-0.795234 0.026511-0.318096-0.053021-0.596429-0.1988086-0.821744-0.2120627-0.278333-0.4771422-0.463889-0.8084896-0.530157-0.3313483-0.06627-0.6361894 0-0.9277753 0.172301-0.7819813 0.54341-1.1663454 1.192853-1.1663454 1.98809zm1.6965024-5.964272c0-0.01325 0.079531-0.09278 0.2518243-0.238571 0.1192856-0.119286 0.3711108-0.265078 0.7422208-0.450633 0.3711098-0.185556 0.8084896-0.331349 1.2723777-0.463888l0.159047-0.07952c2.1471383 0.715712 4.652133 1.073568 7.51499 1.073568 1.259124 0 2.398963-0.06626 3.419516-0.212062l0.344603 0.304839c-0.119286 0.212064-0.397619 0.424128-0.834998 0.662698-0.530158 0.278333-1.351902 0.543412-2.465232 0.755475-1.113342 0.212062-2.292942 0.331348-3.5388103 0.331348-1.2458696 0-2.4254711-0.106026-3.5388017-0.331348-1.1133308-0.225324-1.9483287-0.477148-2.4917388-0.755482-0.450634-0.185556-0.7289667-0.384363-0.834998-0.596427zm0.1457939 11.159815c0 0.834998 0.4771412 1.484441 1.4314238 1.935074 0.9542836 0.450635 2.133884 0.675952 3.5388006 0.675952 1.4314259 0 2.6375325-0.225317 3.6050685-0.675952 0.967543-0.450633 1.457944-1.100076 1.457944-1.935074 0-0.331348-0.119285-0.636189-0.371114-0.888014-0.251826-0.251824-0.543418-0.384364-0.874767-0.384364-0.622933 0-1.033806 0.318093-1.21936 0.954283-0.516902 0.318095-1.3784084 0.490396-2.5977715 0.490396-1.0603139 0-1.9085651-0.159047-2.5447554-0.490396-0.1988096-0.63619-0.5964258-0.954283-1.219361-0.954283-0.3313485 0-0.6229362 0.119285-0.8482523 0.371111-0.2253169 0.251823-0.3578556 0.543411-0.3578556 0.901267zm0.2783327-16.461388c0-0.106032 0.066271-0.225318 0.1988085-0.37111 0.3180942-0.397618 0.9542826-0.7952357 1.8820589-1.166346 2.5447555 1.365154 6.0437938 2.041106 10.483873 2.041106 2.266422 0 4.400305-0.212063 6.388397-0.622935v0.119285c0 0.198808-0.119285 0.397618-0.371111 0.596427-0.543412 0.477142-1.550711 0.927774-3.035152 1.365155-1.603725 0.477141-3.618324 0.715712-6.043797 0.715712-2.438732 0-4.4533278-0.238571-6.0570549-0.715712-1.5374572-0.424127-2.5580096-0.874761-3.0749134-1.351902-0.2518243-0.198807-0.3711089-0.397617-0.3711089-0.60968zm1.7230107-5.1425269c0-0.2385709 0.159047-0.4903957 0.463887-0.7819823 0.5964279-0.5566653 1.7892816-1.0868227 3.5520558-1.6037262 1.8953107-0.5566655 4.1617437-0.834998 6.8125327-0.834998 2.66404 0 4.956971 0.2783325 6.878792 0.834998 1.789281 0.5169035 2.968881 1.0603148 3.552055 1.6169803 0.291586 0.2915865 0.450635 0.5566653 0.450635 0.7819822s-0.145794 0.4638878-0.450635 0.7422204c-0.583174 0.5566654-1.762774 1.1000769-3.552055 1.6302343-1.921821 0.5566654-4.201498 0.8349981-6.878792 0.8349981-2.650789 0-4.930475-0.2783327-6.8125328-0.8349981-1.7760273-0.5301574-2.9688821-1.0735689-3.5520557-1.6434882-0.30484-0.2783327-0.463887-0.5169035-0.463887-0.7422205z"/>
</svg>
