<svg id="Layer_1" style="enable-background:new 0 0 30 30" version="1.1" viewBox="0 0 30 30" xmlns="http://www.w3.org/2000/svg">
 <path id="path3" d="m0.05260995 17.86003c0 1.239162 0.36511021 2.345555 1.1063944 3.319183 0.7412844 0.973628 1.6927837 1.626401 2.854498 1.947253l-0.7302203 1.880873c-0.055319 0.154894 0 0.243405 0.1548951 0.243405h2.3566203l-1.5821441 4.657922h0.3208544l4.8238802-6.262193c0.044255-0.04426 0.044255-0.09957 0.022128-0.154895-0.022128-0.05532-0.077446-0.07745-0.1548948-0.07745h-2.4230042l2.7549222-5.144733c0.077446-0.154897 0.033192-0.243407-0.1548946-0.243407h-3.2749283c-0.099576 0-0.188087 0.05531-0.2544707 0.165958l-1.1838425 3.186418c-0.796604-0.199151-1.4604407-0.619582-1.9693823-1.283418-0.5200054-0.652773-0.7744761-1.394056-0.7744761-2.234916 0-0.929371 0.3097904-1.737041 0.9293714-2.411941s1.405121-1.073201 2.3344923-1.183841l0.5642614-0.03319c0.1327673 0 0.2102149-0.05531 0.2434067-0.154895l0.0774472-0.652773c0.1217036-1.194908 0.6195812-2.201727 1.5157606-3.009396 0.8961797-0.8076672 1.9472543-1.2170332 3.1642887-1.2170332 1.205969 0 2.257044 0.409366 3.164289 1.2170332 0.907242 0.807669 1.427249 1.814488 1.548951 3.009395l0.08852 0.652772c0 0.121702 0.06638 0.188087 0.199151 0.188087h1.781295c0.984691 0 1.836615 0.354046 2.555772 1.06214 0.719156 0.708091 1.073203 1.54895 1.073203 2.533642 0 0.962564-0.331919 1.792359-0.995756 2.500452-0.663836 0.708091-1.460441 1.084266-2.41194 1.139586-0.143831 0-0.221279 0.06638-0.221279 0.19915v1.48257c0 0.121703 0.07745 0.188086 0.221279 0.188086 0.973627-0.02212 1.869807-0.287663 2.677475-0.796605 0.807668-0.497878 1.449377-1.172777 1.925127-2.002574 0.475749-0.829795 0.708092-1.737038 0.708092-2.710666 0-0.807669-0.154895-1.548953-0.475749-2.234918 0.840859-1.062137 1.261289-2.279172 1.261289-3.640036 0-1.051075-0.265534-2.0247025-0.78554-2.9208815-0.520008-0.8961796-1.228101-1.6042721-2.12428-2.1242774-0.89618-0.5200055-1.869807-0.7855402-2.920882-0.7855402-0.796604 0-1.57108 0.1659592-2.323429 0.4978775-0.752348 0.3319184-1.394056 0.7966041-1.947254 1.3829931-0.896179-0.4757496-1.891934-0.7191564-3.009393-0.7191564-1.5710803 0-2.9651372 0.4868137-4.1711072 1.4604408-1.2059753 0.9736271-1.9915153 2.2127891-2.3234338 3.7285491-1.2280979 0.287663-2.2349169 0.929371-3.0315209 1.925127-0.78554015 1.017882-1.1838422 2.157469-1.1838422 3.429823zm9.0503072 10.975433c0 0.165961 0.055319 0.342984 0.1770234 0.520007 0.1217036 0.177022 0.287662 0.298726 0.5089414 0.376174 0.1217034 0.03319 0.221278 0.04426 0.276598 0.04426 0.165959 0 0.30979-0.03319 0.42043-0.08852 0.232343-0.08851 0.398303-0.298726 0.47575-0.630643l0.298727-1.139588c0.06638-0.276598 0.03319-0.520006-0.0885-0.741284-0.121704-0.221279-0.331918-0.354045-0.586389-0.409366-0.232343-0.07745-0.453622-0.04426-0.6859641 0.07745-0.2323432 0.132768-0.387239 0.320856-0.4646863 0.575325l-0.2765984 1.150651c-0.033192 0.154894-0.055319 0.243408-0.055319 0.265534zm0.2544708-24.573022c0 0.2544707 0.08851 0.4757497 0.2765982 0.6638367l0.7191568 0.7302204c0.177023 0.177023 0.376174 0.2655347 0.608517 0.2876626 0.232343 0.033193 0.453621-0.044257 0.674901-0.2544709 0.221278-0.199151 0.331918-0.4314937 0.331918-0.7080924 0-0.2544707-0.08852-0.4757497-0.276599-0.6638367l-0.697028-0.7302204c-0.177024-0.1770232-0.398302-0.2655346-0.663837-0.2655346-0.276599 0-0.5089418 0.088511-0.6970288 0.2655346-0.1770222 0.1991511-0.2765982 0.4204299-0.2765982 0.6749007zm1.228098 19.262329c-0.01107 0.177022 0.04426 0.354047 0.154894 0.520006 0.11064 0.165958 0.287663 0.287663 0.531071 0.354046 0.232342 0.07745 0.464685 0.05531 0.685964-0.06638 0.221278-0.121704 0.376174-0.33192 0.464686-0.619582l0.331918-1.139587c0.07745-0.243406 0.04426-0.475749-0.08851-0.697027-0.132768-0.22128-0.331917-0.376174-0.597453-0.453623-0.25447-0.07745-0.486814-0.05531-0.708092 0.07745-0.221279 0.132766-0.376174 0.320853-0.453621 0.586387l-0.265536 1.161715c-0.03319 0.165959-0.05531 0.254471-0.05531 0.276599zm3.131096 1.858744c0 0.154893 0.03319 0.309789 0.11064 0.431493 0.14383 0.232343 0.342982 0.398302 0.597453 0.475749 0.121703 0.04426 0.232342 0.06638 0.30979 0.06638 0.143832 0 0.254472-0.02212 0.342983-0.08851 0.221278-0.07745 0.387237-0.298726 0.497877-0.663837l0.276599-1.117458c0.07745-0.265534 0.05532-0.497878-0.07745-0.719155-0.121702-0.22128-0.309789-0.36511-0.564261-0.431495-0.25447-0.07745-0.497877-0.05531-0.719155 0.07745-0.22128 0.121703-0.376174 0.30979-0.453622 0.564261l-0.309793 1.150651c0 0.0885-0.01107 0.177023-0.01107 0.254472zm1.515761-5.332822c0 0.199151 0.05531 0.376174 0.177022 0.553197 0.121704 0.177022 0.298727 0.298726 0.542134 0.365109 0.188087 0.06638 0.409366 0.04426 0.6749-0.05531 0.22128-0.09957 0.376174-0.309791 0.47575-0.630647l0.298727-1.106393c0.06638-0.276599 0.04426-0.520005-0.08852-0.741285-0.132766-0.221279-0.320854-0.354046-0.586389-0.409367-0.25447-0.07745-0.486814-0.05531-0.708092 0.06638-0.221279 0.121704-0.36511 0.309791-0.442559 0.553199l-0.320853 1.172777c-0.01107 0.154896-0.02212 0.232344-0.02212 0.232344zm0.110639-10.886923c0.741284-0.7080926 1.637465-1.0732027 2.710666-1.0732027 1.084268 0 2.013639 0.3761741 2.777051 1.1395864 0.763412 0.7523482 1.15065 1.6817192 1.15065 2.7659872 0 0.73022-0.177022 1.394056-0.520005 2.002574-1.062138-1.062139-2.356621-1.59321-3.894509-1.59321h-0.342982c-0.320854-1.316609-0.9515-2.400875-1.880871-3.2417349zm1.770231-5.8306992c0 0.2655347 0.08852 0.4868135 0.276598 0.6749006 0.188087 0.1880871 0.409367 0.2765986 0.663837 0.2765986 0.265535 0 0.486814-0.088512 0.663837-0.2765986 0.177024-0.1880871 0.265535-0.4093659 0.265535-0.6749006v-2.2791727c0-0.26553481-0.08851-0.49787761-0.265535-0.67490079-0.177023-0.18808704-0.398302-0.28766254-0.663837-0.28766254-0.265534 0-0.486813 0.0885111-0.663837 0.27659868-0.177022 0.18808704-0.276598 0.40936598-0.276598 0.67490065v2.2902367zm6.173681 2.5336435c0 0.2655346 0.08852 0.4868135 0.254472 0.6638367 0.154895 0.177023 0.354046 0.2655346 0.608516 0.2876626 0.254471 0.022128 0.486814-0.077447 0.69703-0.2876626l1.593207-1.5932081c0.199151-0.1770233 0.287663-0.398302 0.287663-0.6638367 0-0.2655348-0.09957-0.4868136-0.287663-0.6638369-0.177023-0.199151-0.398302-0.2876624-0.663836-0.2876624-0.254471 0-0.464686 0.099576-0.641709 0.2876624l-1.593208 1.5932083c-0.177023 0.165959-0.254472 0.387238-0.254472 0.6638367zm0.851924 13.177157c0 0.254473 0.08852 0.47575 0.276599 0.663837l0.719157 0.697029c0.199151 0.188087 0.431493 0.276599 0.685964 0.276599l0.02212 0.02212c0.243408 0 0.442559-0.09957 0.597453-0.298727 0.199151-0.177023 0.287663-0.398302 0.287663-0.663836 0-0.25447-0.09957-0.47575-0.287663-0.674901l-0.685962-0.685961c-0.199151-0.199151-0.420429-0.298726-0.674901-0.298726-0.265534 0-0.486814 0.09957-0.663836 0.287663-0.177023 0.188087-0.276599 0.420429-0.276599 0.674899zm1.6264-7.047731c0 0.265534 0.09957 0.486812 0.287663 0.652772 0.177023 0.199152 0.398302 0.287663 0.663837 0.287663h2.279172c0.265535 0 0.486814-0.08852 0.674901-0.276598 0.188087-0.188087 0.276599-0.409367 0.276599-0.663837 0-0.254472-0.08851-0.486814-0.276599-0.663837-0.188087-0.177025-0.409366-0.265536-0.674901-0.265536h-2.279172c-0.265535 0-0.497878 0.08851-0.674901 0.265536-0.188087 0.177023-0.276599 0.398301-0.276599 0.663837z"/>
</svg>
