<svg id="Layer_1" style="enable-background:new 0 0 30 30" version="1.1" viewBox="0 0 30 30" xmlns="http://www.w3.org/2000/svg">
 <path id="path3" d="m0.05740575 14.192682c0-1.657886 0.51899029-3.128359 1.5569708-4.4258341 1.0379804-1.2974753 2.3498724-2.1192098 3.9356759-2.494036 0.4469084-1.9606299 1.4704725-3.5752663 3.0418597-4.8439091 1.5713868-1.2686428 3.3734358-1.8885479 5.4061468-1.8885479 1.989463 0 3.748263 0.61990512 5.305234 1.8452987 1.556971 1.2253937 2.566119 2.8111972 3.027443 4.7429943h0.461325c1.283059 0 2.479619 0.3171606 3.575266 0.9370658 1.095646 0.6199049 1.975046 1.4848887 2.609368 2.5661183 0.634322 1.081229 0.965899 2.27779 0.965899 3.56085 0 1.268643-0.302745 2.436371-0.908234 3.5176-0.605488 1.08123-1.441639 1.946214-2.494036 2.594951-1.052398 0.648739-2.205709 0.994731-3.459935 1.023564-0.187414 0-0.288328-0.0865-0.288328-0.245078v-1.91738c0-0.172997 0.100905-0.259496 0.288328-0.259496 1.225394-0.05767 2.27779-0.547823 3.142774-1.470472 0.864984-0.92265 1.297476-2.003879 1.297476-3.258105 0-1.254227-0.475741-2.335456-1.412807-3.258106-0.937065-0.9226489-2.047129-1.3839741-3.330187-1.3839741h-2.321041c-0.172996 0-0.259494-0.086499-0.259494-0.2450787l-0.115331-0.836151c-0.15858-1.5569707-0.836152-2.8688626-2.003879-3.9068432-1.182145-1.0523968-2.537286-1.5713871-4.108674-1.5713871-1.571387 0-2.95536 0.5189903-4.1086708 1.5713871-1.1677283 1.0523969-1.8164661 2.3498725-1.9606301 3.9068432l-0.1009153 0.7640691c0 0.1729967-0.1009152 0.2739115-0.2883278 0.2739115l-0.7640689 0.04325c-1.1965609 0.1441639-2.2057085 0.6631542-3.0274431 1.5425532-0.8217346 0.879401-1.2253935 1.917382-1.2253935 3.113942 0 1.254227 0.4324918 2.335456 1.2974755 3.258105 0.8649838 0.92265 1.9173806 1.412807 3.1427743 1.470473 0.1585804 0 0.2450788 0.0865 0.2450788 0.259495v1.917381c0 0.158581-0.086499 0.245079-0.2450788 0.245079-1.9317968-0.086499-3.5608495-0.821736-4.9015742-2.20571-1.3407249-1.383974-1.9750464-3.027442-1.9750464-4.944823zm7.7127716 9.644569c0-0.05767 0.014417-0.158581 0.057665-0.288328l2.3498725-8.318261c0.0865-0.273911 0.245079-0.490157 0.461323-0.63432 0.216247-0.144164 0.446909-0.216247 0.663155-0.216247 0.100905 0 0.216245 0.01441 0.345993 0.04325 0.345994 0.05767 0.605489 0.245079 0.778487 0.533407 0.172997 0.288328 0.216246 0.605488 0.11533 0.965898l-2.349872 8.260595c-0.172997 0.619905-0.5766554 0.92265-1.1821441 0.92265-0.057665 0-0.1009152-0.01441-0.1585803-0.02884-0.086498-0.02883-0.129747-0.04324-0.1441634-0.04324-0.3171604-0.086502-0.5478228-0.245082-0.7064032-0.475744-0.1585803-0.245079-0.2306625-0.475741-0.2306625-0.72082zm3.7770956 4.051007 3.517599-12.643179c0.05767-0.273913 0.201831-0.490157 0.432493-0.634322 0.230661-0.144164 0.461324-0.216246 0.706403-0.216246 0.129747 0 0.259495 0.01441 0.389243 0.04325 0.31716 0.08649 0.547823 0.273911 0.706402 0.562239 0.158581 0.288328 0.187414 0.591072 0.100916 0.922649l-3.503185 12.657596c-0.05766 0.245078-0.187412 0.446908-0.418074 0.619905-0.230663 0.172996-0.461324 0.259495-0.735236 0.259495-0.129748 0-0.259495-0.02884-0.36041-0.07209-0.288328-0.07209-0.533407-0.259495-0.749653-0.56224-0.15858-0.259495-0.187413-0.562239-0.08649-0.937065zm5.953971-4.022174c0-0.05767 0.01441-0.158581 0.05766-0.331577l2.349872-8.318261c0.0865-0.273912 0.230664-0.490158 0.432492-0.634322 0.216246-0.144163 0.432492-0.216246 0.663155-0.216246 0.115331 0 0.245078 0.01441 0.374827 0.04325 0.302743 0.0865 0.51899 0.230661 0.663154 0.446907 0.144163 0.216247 0.216246 0.446909 0.216246 0.677572 0 0.04325-0.01441 0.115331-0.02884 0.201829-0.01441 0.08649-0.02884 0.144163-0.02884 0.172997l-2.349865 8.260596c-0.05766 0.273911-0.187413 0.504574-0.403658 0.663155-0.216246 0.158579-0.461325 0.245078-0.735237 0.245078l-0.345993-0.07209c-0.288327-0.0865-0.504573-0.230663-0.663154-0.461326-0.129748-0.216246-0.201829-0.446907-0.201829-0.677569z"/>
</svg>
