<svg id="Layer_1" style="enable-background:new 0 0 30 30" version="1.1" viewBox="0 0 30 30" xmlns="http://www.w3.org/2000/svg">
 <path id="path3" d="m0.11101677 17.754705c0-0.446186 0.15519463-0.795373 0.44618451-1.086364 0.31038934-0.290989 0.71777492-0.426783 1.241557-0.426783h11.077016c0.523782 0 0.931166 0.135794 1.241557 0.426783 0.31039 0.290991 0.446184 0.640178 0.446184 1.086364 0 0.523782-0.155194 0.950566-0.446184 1.241557-0.290989 0.29099-0.717775 0.446185-1.241557 0.446185h-11.077016c-0.5237821 0-0.93116768-0.155195-1.241557-0.446185-0.31038923-0.290991-0.44618451-0.698376-0.44618451-1.241557zm0-11.465003c0-0.4267851 0.15519463-0.7953723 0.44618451-1.0669629 0.31038934-0.2909899 0.71777492-0.4267853 1.241557-0.4267853h5.7422006c0.5237817 0 0.9311676 0.1357954 1.2415569 0.4267853 0.3103891 0.2715905 0.4655838 0.6401777 0.4655838 1.0669629 0 0.5237819-0.1551947 0.9311676-0.4655838 1.2415569-0.3103893 0.3103894-0.7177752 0.465584-1.2415569 0.465584h-5.7422006c-0.5237821 0-0.93116768-0.1551946-1.241557-0.4461847-0.31038923-0.2909898-0.44618451-0.7371742-0.44618451-1.2609562zm1.9205333 17.207203c0-0.426785 0.1745939-0.814772 0.5431811-1.16396 0.349188-0.349188 0.7565738-0.54318 1.1639597-0.54318 0.5043824 0 0.8923689 0.174594 1.2027581 0.523782 0.3103893 0.349186 0.465584 0.737173 0.465584 1.183358 0 0.523782-0.1551947 0.950567-0.4461846 1.260956s-0.6983757 0.446185-1.2221575 0.446185c-0.4461846 0-0.8535704-0.155195-1.183359-0.465585-0.3685872-0.329788-0.5237818-0.737173-0.5237818-1.241556zm2.7547043-11.503801c0-0.446184 0.1357953-0.85357 0.4267852-1.183358 0.2909899-0.349188 0.6401778-0.523782 1.0475636-0.523782 0.5043827 0 0.9311676 0.174594 1.2415569 0.523782 0.3103892 0.349187 0.4655838 0.737174 0.4655838 1.183358 0 0.523782-0.1551946 0.950568-0.4461844 1.260957-0.3103894 0.310389-0.7177751 0.446184-1.2609563 0.446184-0.4461845 0-0.7953723-0.155195-1.0669629-0.465585-0.2715906-0.310387-0.4073859-0.717774-0.4073859-1.241556zm1.9205334 11.503801c0-0.446185 0.1551946-0.85357 0.4655838-1.183358 0.3103891-0.32979 0.7371743-0.523782 1.2415569-0.523782h7.4299425l1.70714 1.70714c0 0.504383-0.174594 0.911768-0.523781 1.241556-0.349189 0.329789-0.737175 0.465585-1.183359 0.465585h-7.4299425c-0.5237818 0-0.950567-0.155195-1.2609562-0.465585-0.3103893-0.310388-0.4461845-0.717774-0.4461845-1.241556zm2.560711-11.503801c0-0.426784 0.1745939-0.814772 0.5431814-1.163958 0.3491878-0.349188 0.7565738-0.543182 1.1639598-0.543182h7.429941c0.504383 0 0.91177 0.174594 1.222159 0.523782 0.310389 0.349187 0.465582 0.737174 0.465582 1.183358 0 0.523782-0.155193 0.950568-0.446184 1.260957-0.310387 0.310389-0.717775 0.446184-1.241557 0.446184h-7.429941c-0.446185 0-0.85357-0.155195-1.1833596-0.465585-0.3491877-0.310387-0.5237816-0.717774-0.5237816-1.241556zm1.4743492-5.7034017c0-0.4267851 0.155194-0.7953723 0.465583-1.0669629 0.31039-0.2715907 0.717776-0.4267853 1.241558-0.4267853h11.077014c0.446187 0 0.834172 0.1551946 1.18336 0.4461846 0.349188 0.2909899 0.523781 0.6401779 0.523781 1.0475636 0 0.5043826-0.174593 0.9311676-0.523781 1.2415569-0.349188 0.3103894-0.737173 0.465584-1.18336 0.465584h-11.077014c-0.523782 0-0.950568-0.1551946-1.260957-0.465584-0.310389-0.3103892-0.446184-0.717775-0.446184-1.2415569zm5.102023 11.465003c0-0.407388 0.174593-0.775974 0.523781-1.066964 0.349189-0.290989 0.737176-0.446183 1.183359-0.446183 0.446185 0 0.834171 0.155194 1.183359 0.446183 0.349188 0.29099 0.523782 0.659576 0.523782 1.066964 0 0.504383-0.174594 0.911767-0.523782 1.222157s-0.737174 0.465585-1.183359 0.465585c-0.446183 0-0.853571-0.155195-1.183359-0.465585-0.349188-0.29099-0.523781-0.698375-0.523781-1.222157zm2.987497 5.7422c0-0.446185 0.155194-0.85357 0.465581-1.183358 0.310391-0.349188 0.717778-0.523782 1.22216-0.523782h3.627673c0.504384 0 0.911769 0.174594 1.222159 0.504382 0.31039 0.329789 0.465582 0.737174 0.465582 1.202758 0 0.523782-0.155192 0.950567-0.446183 1.260956-0.29099 0.310389-0.717776 0.446185-1.241558 0.446185h-3.627673c-0.523783 0-0.931168-0.155195-1.241558-0.446185-0.290989-0.310389-0.446183-0.737174-0.446183-1.260956zm1.687741-5.7422c0-0.407388 0.174594-0.775974 0.523782-1.066964 0.349188-0.290989 0.737174-0.446183 1.183358-0.446183h5.955593c0.426786 0 0.775974 0.155194 1.047564 0.446183 0.271591 0.29099 0.426785 0.640178 0.426785 1.066964 0 0.523782-0.135795 0.931167-0.407386 1.241557-0.27159 0.310389-0.620778 0.446185-1.066963 0.446185h-5.955593c-0.446184 0-0.853571-0.155195-1.183358-0.465585-0.349188-0.29099-0.523782-0.698375-0.523782-1.222157zm0.853569-5.761601c0-0.426784 0.174594-0.814772 0.543183-1.163958 0.349187-0.349188 0.756572-0.543182 1.163958-0.543182h3.80227c0.407384 0 0.756572 0.174594 1.047562 0.523782 0.290989 0.349187 0.446184 0.737174 0.446184 1.183358 0 0.523782-0.135796 0.931169-0.426785 1.241556-0.27159 0.31039-0.640178 0.465585-1.066961 0.465585h-3.80227c-0.446184 0-0.85357-0.155195-1.183357-0.465585-0.34919-0.310387-0.523784-0.717774-0.523784-1.241556zm5.315416-5.7034017c0-0.4267852 0.135796-0.775973 0.426786-1.0669629s0.640178-0.4267853 1.066962-0.4267853c0.523782 0 0.931168 0.1357954 1.241557 0.4267853 0.31039 0.2715905 0.465584 0.6401777 0.465584 1.0669629 0 0.5237819-0.155194 0.9311676-0.465584 1.2415569-0.310389 0.3103894-0.717775 0.465584-1.241557 0.465584-0.446184 0-0.795372-0.1551946-1.066962-0.465584-0.29099-0.3103892-0.426786-0.7177749-0.426786-1.2415569z"/>
</svg>
