<svg id="Layer_1" style="enable-background:new 0 0 30 30" version="1.1" viewBox="0 0 30 30" xmlns="http://www.w3.org/2000/svg">
 <path id="path3" d="m0.09050813 14.043434c0 1.913132 0.66168504 3.55296 1.9994398 4.933868 1.3377547 1.380908 2.9631985 2.114516 4.890716 2.200823 0.158229 0 0.2445358-0.08631 0.2445358-0.244537v-1.927517c0-0.158228-0.086308-0.244536-0.2445358-0.244536-1.2370634-0.05754-2.2727445-0.546609-3.1358121-1.467214-0.8630675-0.920605-1.2946011-1.99944-1.2946011-3.250887 0-1.19391 0.4027647-2.215207 1.2082944-3.107045 0.8055298-0.877451 1.8124418-1.3952909 3.0063519-1.5391353l0.7623764-0.043154c0.1869979 0 0.2876891-0.086308 0.2876891-0.2733048l0.0863065-0.7623759c0.1582293-1.5535213 0.8055299-2.862507 1.9706707-3.8981881 1.1651423-1.0500655 2.5316653-1.567906 4.0995713-1.567906s2.934429 0.5178405 4.099571 1.567906c1.165141 1.0500654 1.826826 2.3446668 1.99944 3.8981883l0.115075 0.8342987c0 0.158229 0.0863 0.2445358 0.258921 0.2445358h2.315897c1.280217 0 2.387821 0.4603022 3.32281 1.3809083 0.934991 0.920606 1.409677 1.99944 1.409677 3.265272 0 1.251447-0.431534 2.330282-1.294601 3.250887-0.863068 0.920605-1.913132 1.409677-3.135812 1.467214-0.186997 0-0.287689 0.08631-0.287689 0.244536v1.927517c0 0.15823 0.100696 0.244537 0.287689 0.244537 1.251447-0.02878 2.402205-0.373996 3.45227-1.021297 1.050066-0.6473 1.884365-1.510368 2.488511-2.589202 0.604147-1.078835 0.906222-2.258361 0.906222-3.509809 0-1.280215-0.316459-2.474127-0.963759-3.552961-0.632917-1.0788335-1.510369-1.9419011-2.603587-2.5604327-1.093219-0.6185317-2.301514-0.9493744-3.581731-0.9493744h-0.460302c-0.460303-1.9275173-1.4816-3.4954233-3.020737-4.7181023-1.539136-1.2226791-3.308425-1.8412108-5.293481-1.8412108-2.028208 0-3.826266 0.63291617-5.3941717 1.8843642-1.567906 1.2514478-2.5748181 2.8625072-3.0207364 4.8187936-1.5966749 0.3739959-2.9056606 1.1939101-3.9269572 2.4885113-1.0212967 1.2946001-1.5535216 2.7618151-1.5535216 4.4160291zm7.8395301 10.356809c0.1294601 0.302074 0.3596115 0.532225 0.6616851 0.661686 0.2876892 0.143844 0.5897628 0.158229 0.8918365 0.02877 0.3164579-0.129459 0.5178402-0.345226 0.6473012-0.647301 0.143844-0.316458 0.158229-0.61853 0.02877-0.920605-0.115077-0.302075-0.3452291-0.503457-0.6473024-0.632918-0.2876891-0.158229-0.5753783-0.172614-0.8774519-0.043152-0.3020737 0.129459-0.5178406 0.345226-0.6616851 0.676068-0.1582291 0.244537-0.1582291 0.532225-0.0431534 0.877452zm0.9062209-4.056418c0 0.230152 0.071922 0.445919 0.2157669 0.647301 0.1438445 0.215767 0.3739959 0.359612 0.6616851 0.460304 0.2733041 0.158229 0.5753789 0.172613 0.8918369 0.01439 0.316458-0.143844 0.532225-0.431534 0.632916-0.863068l1.294602-4.861947c0.08631-0.359611 0.05754-0.676069-0.115077-0.963758-0.172613-0.28769-0.417149-0.460303-0.762376-0.51784-0.115075-0.02877-0.230151-0.04315-0.345226-0.04315-0.230152 0-0.460304 0.07193-0.676071 0.215767-0.215767 0.143845-0.373995 0.359612-0.460301 0.632916l-1.2658336 4.876326c-0.057538 0.23015-0.071922 0.359611-0.071922 0.402764zm2.6755099 8.040913c0 0.172614 0.02876 0.316459 0.08631 0.41715 0.129461 0.316459 0.345228 0.532226 0.647301 0.647301 0.12946 0.07193 0.28769 0.115075 0.474688 0.115075 0.0863 0 0.23015-0.02876 0.431533-0.08631 0.316458-0.115076 0.54661-0.330842 0.67607-0.647301 0.143844-0.316458 0.143844-0.632915 0-0.949373-0.143845-0.316458-0.359612-0.532225-0.647301-0.661686-0.287689-0.12946-0.575378-0.12946-0.891836 0-0.273305 0.115077-0.460303 0.28769-0.589763 0.517841-0.129461 0.230151-0.186998 0.445917-0.186998 0.6473zm1.050065-3.754342c0 0.532224 0.302074 0.877451 0.906221 1.050064 0.158229 0.04315 0.273305 0.05754 0.345227 0.05754 0.215767 0 0.402765-0.04315 0.546609-0.115075 0.302075-0.115076 0.503457-0.38838 0.604148-0.819914l2.402205-9.047825c0.0863-0.345227 0.05754-0.647301-0.08631-0.93499-0.143844-0.273305-0.38838-0.460302-0.704838-0.54661-0.115076-0.02876-0.244536-0.04315-0.38838-0.04315-0.230151 0-0.460303 0.07193-0.690455 0.215767-0.23015 0.143845-0.373996 0.359612-0.431533 0.632916l-2.459742 9.119748c-0.02878 0.201381-0.04315 0.345226-0.04315 0.431534zm4.933869-0.661687c0 0.172614 0.02877 0.330843 0.115077 0.460304 0.115075 0.273304 0.330842 0.489071 0.632915 0.632916 0.15823 0.05754 0.330843 0.100686 0.503457 0.100686 0.08631 0 0.230151-0.02877 0.431534-0.0863 0.302073-0.115075 0.532224-0.330842 0.661684-0.632916 0.100696-0.316459 0.100696-0.618531-0.01439-0.906221-0.115075-0.287689-0.316457-0.503456-0.604147-0.6473-0.330842-0.15823-0.632915-0.172615-0.934989-0.04315-0.302074 0.129459-0.517841 0.345226-0.661686 0.676068-0.0863 0.143846-0.12946 0.28769-0.12946 0.445918zm1.050066-3.696805c0 0.201383 0.07193 0.41715 0.230152 0.6473 0.158229 0.230151 0.373996 0.388381 0.6473 0.474688 0.230151 0.04315 0.359612 0.07193 0.38838 0.07193 0.129461 0 0.316459-0.04315 0.532226-0.143844 0.287688-0.129461 0.474686-0.388381 0.575378-0.747993l1.294601-4.804408c0.02877-0.244537 0.04315-0.373996 0.04315-0.373996 0-0.230152-0.07193-0.445919-0.215766-0.661686-0.143845-0.215767-0.359612-0.359611-0.647301-0.445917-0.12946-0.02877-0.25892-0.04315-0.373996-0.04315-0.230152 0-0.460302 0.07193-0.676069 0.215767-0.215767 0.143844-0.359612 0.359611-0.445919 0.6473l-1.294601 4.833179-0.05754 0.330842z"/>
</svg>
