<svg id="Layer_1" style="enable-background:new 0 0 30 30" version="1.1" viewBox="0 0 30 30" xmlns="http://www.w3.org/2000/svg">
 <path id="path3" d="m0.10458085 14.126327c0-1.661412 0.51561075-3.122309 1.5611546-4.4113358 1.0312214-1.289027 2.3632155-2.119733 3.9816601-2.4777961 0.415353-1.9765074 1.4036067-3.5806294 2.9647611-4.8553335 1.5611544-1.2747042 3.3514694-1.9048951 5.3852674-1.9048951 1.99083 0 3.766823 0.61586848 5.327977 1.8332824 1.546831 1.2174141 2.563731 2.7928911 3.036374 4.726431h0.486965c1.289027 0 2.477796 0.3150954 3.551985 0.9452861 1.088511 0.6301909 1.93354 1.489542 2.56373 2.578054 0.615868 1.08851 0.930964 2.27728 0.930964 3.566307 0 1.919216-0.658836 3.551984-1.962184 4.926946-1.317673 1.374962-2.921795 2.091086-4.82669 2.148377-0.171871 0-0.257805-0.08593-0.257805-0.243483v-1.919217c0-0.157548 0.08594-0.243483 0.257805-0.243483 1.203091-0.100255 2.248636-0.601545 3.107987-1.503864s1.289026-1.962185 1.289026-3.1796c0-1.274703-0.458321-2.377538-1.374962-3.3085-0.916641-0.9166425-2.005151-1.3892851-3.279856-1.3892851h-2.33457c-0.17187 0-0.272128-0.085935-0.315096-0.2578054l-0.100254-0.8163834c-0.100255-1.0168989-0.429677-1.9478625-1.002578-2.7785686-0.5729-0.830706-1.303349-1.4752193-2.191344-1.9478624-0.887997-0.4726432-1.861928-0.7018033-2.893149-0.7018033-1.575478 0-2.936117 0.5156106-4.0962408 1.5611544-1.1601242 1.0455438-1.81896 2.3488929-1.9621853 3.8957249l-0.100257 0.773416c0 0.1289026-0.071613 0.2005152-0.2291604 0.2005152l-0.7734186 0.1575476c-1.2030914 0.1002581-2.2199902 0.5872231-3.0220512 1.4752191-0.8163836 0.887996-1.2174141 1.93354-1.2174141 3.150955 0 1.246058 0.4296756 2.320247 1.2747042 3.222565 0.8450285 0.90232 1.8762497 1.389285 3.1079863 1.460898 0.1718702 0 0.2578054 0.08593 0.2578054 0.243483v1.919218c0 0.157547-0.085935 0.243482-0.2578054 0.243482-0.9452861-0.042967-1.8332823-0.257806-2.6926333-0.644514-0.8593511-0.386708-1.5897996-0.902318-2.1913453-1.532509-0.6158683-0.630191-1.102834-1.360639-1.4608969-2.21999-0.3580631-0.859351-0.54425578-1.747348-0.54425578-2.692633zm7.7628048 9.696345c0-0.04297 0.014323-0.11458 0.028645-0.186194 0.014323-0.07161 0.028644-0.128903 0.028644-0.157548l0.3867082-1.475218c0.100258-0.315096 0.2864503-0.572901 0.5729006-0.730449 0.2864505-0.171871 0.5872232-0.200515 0.9166413-0.100255 0.3294183 0.100255 0.5729013 0.28645 0.7447713 0.572901 0.171871 0.286449 0.200515 0.587223 0.100255 0.916641l-0.34374 1.446574c-0.186193 0.630191-0.544256 0.945285-1.0885118 0.945285h-0.1289027c-0.042967 0-0.100257-0.01433-0.1575477-0.01433-0.057287-0.01432-0.1002549-0.01432-0.1432224-0.01432-0.3007723-0.085931-0.5299327-0.257802-0.6874804-0.486962s-0.2291603-0.486966-0.2291603-0.716125zm1.890572-6.903455c0-0.02864 0-0.08593 0.014328-0.157548 0.014328-0.07161 0.014328-0.11458 0.014328-0.128902l0.4296764-1.503864c0.08593-0.272128 0.243482-0.486966 0.458321-0.644514 0.214838-0.143224 0.443997-0.214838 0.673158-0.214838h0.11458c0.04297 0 0.08593 0.01433 0.128903 0.01433 0.04297 0.01433 0.08593 0.01433 0.11458 0.01433 0.329418 0.100255 0.5729 0.28645 0.730448 0.572901 0.17187 0.28645 0.200515 0.587223 0.100255 0.916641l-0.343741 1.432251c-0.100255 0.40103-0.286451 0.673159-0.572901 0.845029s-0.601546 0.17187-0.930964 0.02864c-0.315095-0.08594-0.544256-0.24349-0.7018034-0.486972-0.1575441-0.243485-0.2291575-0.458324-0.2291575-0.687484zm1.7616704 11.386403c0-0.04297 0.01432-0.100255 0.02864-0.186193 0.01432-0.08594 0.02864-0.128904 0.02864-0.171871l0.415353-1.41793c0.08593-0.343739 0.28645-0.601545 0.5729-0.773416 0.286451-0.171869 0.601546-0.214837 0.930965-0.114579 0.329417 0.100255 0.558579 0.28645 0.730447 0.587223 0.171871 0.300772 0.186194 0.601545 0.100255 0.930964l-0.358061 1.489541c-0.157549 0.587224-0.529935 0.873674-1.145803 0.873674-0.07161 0-0.186193-0.01432-0.343741-0.05729-0.315095-0.05729-0.544255-0.200516-0.701803-0.429675-0.171871-0.22916-0.257805-0.472644-0.257805-0.730448zm1.919217-6.831842c0-0.08593 0.01433-0.200515 0.05729-0.358063l0.386708-1.475219c0.100255-0.329417 0.286451-0.5729 0.587224-0.730449 0.28645-0.17187 0.601545-0.200515 0.930962-0.100254 0.329419 0.08593 0.558579 0.272126 0.730449 0.558577 0.157548 0.28645 0.186193 0.587223 0.08593 0.930964l-0.34374 1.417929c-0.186193 0.644513-0.529934 0.973931-1.031221 0.973931-0.05729 0-0.214838-0.02864-0.443999-0.08593-0.315095-0.05729-0.544256-0.200515-0.701803-0.429675-0.171871-0.214838-0.257806-0.458321-0.257806-0.701804zm4.038951 2.406182c0-0.100255 0.01433-0.214836 0.04297-0.343739l0.40103-1.41793c0.100255-0.34374 0.286451-0.601546 0.587224-0.773415 0.300773-0.17187 0.587223-0.214838 0.902318-0.128903 0.329418 0.100255 0.587223 0.28645 0.759094 0.587223 0.171871 0.286451 0.214838 0.587223 0.128902 0.902319l-0.415352 1.518187c-0.143226 0.587223-0.515611 0.873673-1.131479 0.873673-0.128903 0-0.257806-0.01431-0.372386-0.04297-0.28645-0.05729-0.501288-0.200515-0.658836-0.429675-0.143224-0.257805-0.229159-0.501287-0.243482-0.744771zm1.976507-6.817517c0-0.04297 0.02864-0.171871 0.07161-0.372386l0.429675-1.475219c0.05729-0.300772 0.186194-0.529934 0.415353-0.673158 0.22916-0.143226 0.458321-0.214838 0.701803-0.200515 0.05729-0.01432 0.186193 0 0.343741 0.04297 0.315095 0.07161 0.558577 0.257805 0.744771 0.544255 0.17187 0.243483 0.200515 0.544255 0.100255 0.930964l-0.343733 1.475223c-0.186194 0.615869-0.544257 0.930964-1.088512 0.930964-0.08593 0-0.243483-0.02864-0.486965-0.08593-0.300774-0.08594-0.515612-0.24349-0.658837-0.444005-0.157547-0.229161-0.229161-0.443998-0.229161-0.673158z"/>
</svg>
