<svg id="Layer_1" style="enable-background:new 0 0 30 30" version="1.1" viewBox="0 0 30 30" xmlns="http://www.w3.org/2000/svg">
 <path id="path3" d="m0.08132963 14.294046c0-1.671236 0.5042525-3.140773 1.5271648-4.4374219 1.0229123-1.2966488 2.3339688-2.1322672 3.9475767-2.5356693 0.4466238-1.9593811 1.4551288-3.5729891 3.0255152-4.840824 1.5703857-1.2678349 3.3712877-1.887345 5.4027047-1.887345 1.988195 0 3.745875 0.61951014 5.301855 1.8441234 1.555979 1.2246132 2.564484 2.8094069 3.025515 4.7399735h0.46103c1.282242 0 2.478041 0.3169588 3.572989 0.9508762 1.094948 0.6339175 1.973789 1.4983503 2.607706 2.5932981 0.633918 1.094948 0.965284 2.290748 0.965284 3.572989 0 1.901752-0.662733 3.558582-2.002603 4.927268-1.325464 1.383093-2.95348 2.103453-4.869638 2.161082-0.187294 0-0.288145-0.08645-0.288145-0.244923v-1.916159c0-0.172887 0.100852-0.25933 0.288145-0.25933 1.224612-0.05763 2.276339-0.547474 3.140773-1.469536 0.864432-0.922061 1.296648-1.988195 1.296648-3.212809 0-1.282241-0.46103-2.37719-1.397499-3.313659-0.93647-0.936469-2.045825-1.3974996-3.342474-1.3974996h-2.319561c-0.172887 0-0.259331-0.086444-0.259331-0.2449227l-0.115258-0.8356184c-0.158479-1.5559792-0.835617-2.8670358-2.002603-3.9187624-1.18139-1.0517267-2.535669-1.5847936-4.106055-1.5847936-1.584793 0-2.953479 0.5330669-4.1204621 1.5992009-1.1669845 1.0661338-1.8297165 2.3771903-1.9737886 3.961984l-0.086443 0.7203607c0 0.1728865-0.1008511 0.273737-0.2881442 0.273737l-0.7635823 0.1008512c-1.1957988 0.1008511-2.2043038 0.5906949-3.025515 1.4983499s-1.2246133 1.944974-1.2246133 3.15518c0 1.224614 0.4322165 2.290747 1.2966494 3.212808 0.8644329 0.922063 1.9161595 1.3975 3.1407727 1.469537 0.1584794 0 0.2449226 0.08644 0.2449226 0.25933v1.916159c0 0.15848-0.086443 0.244923-0.2449226 0.244923-1.9305673-0.05763-3.5585825-0.77799-4.8984534-2.161083-1.2534277-1.383093-1.9161596-3.039923-1.9161596-4.941675zm9.1629885 5.863737c0-0.316959 0.1152577-0.605103 0.3457732-0.835619 0.2305156-0.230515 0.5042517-0.345773 0.8500247-0.345773 0.331367 0 0.61951 0.115258 0.850025 0.345773 0.230516 0.230516 0.345775 0.51866 0.345775 0.835619 0 0.345772-0.115259 0.633917-0.345775 0.864433-0.230515 0.244922-0.504251 0.36018-0.850025 0.36018-0.331366 0-0.6195091-0.115258-0.8500247-0.36018-0.2305155-0.230516-0.3457732-0.518661-0.3457732-0.864433zm0 5.229819c0-0.345774 0.1152577-0.633919 0.3457732-0.864433 0.2305156-0.216108 0.5042517-0.331366 0.8356177-0.331366s0.61951 0.115258 0.850026 0.331366c0.230515 0.230514 0.345774 0.504253 0.345774 0.850026s-0.115259 0.61951-0.345774 0.850025c-0.230516 0.230515-0.504252 0.331366-0.850026 0.331366-0.331366 0-0.6195095-0.115258-0.850025-0.331366-0.2161082-0.216108-0.3313659-0.504252-0.3313659-0.835618zm4.5958999-2.449228c0-0.331365 0.115258-0.633916 0.360181-0.893246 0.230515-0.230516 0.504252-0.345773 0.821212-0.345773 0.331365 0 0.619509 0.129664 0.864432 0.374587s0.374587 0.533067 0.374587 0.864432c0 0.331367-0.115257 0.619512-0.36018 0.864434-0.244923 0.244923-0.533067 0.360181-0.878839 0.360181-0.331367 0-0.605104-0.115258-0.835619-0.360181-0.230516-0.244922-0.345774-0.533067-0.345774-0.864434zm0-5.21541c0-0.331366 0.115258-0.619512 0.360181-0.864434 0.259329-0.230514 0.533066-0.345772 0.821212-0.345772 0.345772 0 0.633916 0.115258 0.878839 0.36018s0.36018 0.51866 0.36018 0.864433c0 0.331366-0.115257 0.61951-0.36018 0.850025-0.244923 0.230516-0.533067 0.345773-0.878839 0.345773-0.331367 0-0.605104-0.115257-0.835619-0.345773-0.230516-0.244922-0.345774-0.533066-0.345774-0.864432zm0 10.488451c0-0.331365 0.115258-0.61951 0.360181-0.87884 0.230515-0.230515 0.504252-0.345773 0.821212-0.345773 0.345772 0 0.633916 0.115258 0.878839 0.36018 0.244923 0.244923 0.36018 0.533068 0.36018 0.864433 0 0.331367-0.115257 0.619511-0.36018 0.850025-0.244923 0.230517-0.533067 0.345774-0.878839 0.345774-0.331367 0-0.605104-0.115257-0.835619-0.345774-0.230516-0.244922-0.345774-0.518658-0.345774-0.850025zm4.639124-8.053632c0-0.316959 0.115257-0.590696 0.36018-0.835619 0.244922-0.244922 0.533067-0.36018 0.864433-0.36018 0.331365 0 0.61951 0.115258 0.850025 0.345773 0.230516 0.230515 0.345772 0.51866 0.345772 0.835618 0 0.345773-0.115256 0.633918-0.345772 0.864434-0.230515 0.244922-0.504253 0.36018-0.850025 0.36018-0.345773 0-0.633919-0.115258-0.864433-0.36018-0.230515-0.230516-0.36018-0.518661-0.36018-0.850026zm0 5.229819c0-0.316959 0.115257-0.605104 0.36018-0.864433 0.230514-0.216108 0.51866-0.331366 0.864433-0.331366 0.345772 0 0.61951 0.115258 0.850025 0.331366 0.230516 0.216107 0.331365 0.504253 0.331365 0.850026s-0.115257 0.61951-0.331365 0.850025c-0.230515 0.230515-0.504253 0.331366-0.850025 0.331366-0.345773 0-0.633919-0.115258-0.864433-0.345774-0.230515-0.216107-0.36018-0.489844-0.36018-0.82121z"/>
</svg>
