<svg id="Layer_1" style="enable-background:new 0 0 30 30" version="1.1" viewBox="0 0 30 30" xmlns="http://www.w3.org/2000/svg">
 <path id="path3" d="m0.07039905 20.863262c0-0.289544 0.0965146-0.542895 0.3016081-0.735925 0.20509355-0.193029 0.4584444-0.289543 0.76005235-0.289543h22.524094c0.301606 0 0.542893 0.09651 0.735922 0.289543 0.193029 0.19303 0.289545 0.434316 0.289545 0.735925 0 0.277479-0.09651 0.518765-0.301609 0.69973-0.205093 0.193029-0.44638 0.27748-0.723858 0.27748h-22.524094c-0.30160794 0-0.55495879-0.09651-0.76005234-0.27748-0.20509352-0.193029-0.3016081-0.422251-0.3016081-0.69973zm3.160853-3.788198c0-0.289544 0.1085788-0.530831 0.3136724-0.72386 0.1809649-0.180965 0.4222514-0.277478 0.711795-0.277478h22.524094c0.277479 0 0.506701 0.09651 0.699731 0.289542 0.193028 0.19303 0.277479 0.422252 0.277479 0.711796s-0.09651 0.53083-0.277479 0.723859c-0.19303 0.205094-0.422252 0.301608-0.699731 0.301608h-22.524094c-0.2895436 0-0.5308301-0.09651-0.7238593-0.301608-0.2050936-0.205093-0.3016081-0.44638-0.3016081-0.723859zm0.1568362-2.883373c0 0.108578 0.060322 0.156836 0.1809649 0.156836h1.7251982c0.072385 0 0.1568362-0.06032 0.2412865-0.19303 0.2895438-0.627345 0.7117952-1.134046 1.2788183-1.532168 0.5670232-0.398124 1.1943682-0.627345 1.8699704-0.675602l0.6635377-0.08446c0.1327076 0 0.2050935-0.07239 0.2050935-0.217157l0.08445-0.603216c0.1327075-1.3029441 0.6756023-2.3887333 1.6528123-3.2573646s2.123322-1.3029471 3.438333-1.3029471c1.302947 0 2.436994 0.4343158 3.414203 1.2908827 0.965147 0.8565671 1.520105 1.9423563 1.652813 3.233239l0.09651 0.687666c0 0.132708 0.08446 0.205094 0.241287 0.205094h1.918228c0.772116 0 1.483911 0.205094 2.12332 0.627345s1.109919 0.965146 1.423591 1.652811c0.08446 0.132708 0.1689 0.19303 0.25335 0.19303h1.725198c0.144773 0 0.205094-0.08445 0.168902-0.277479-0.349866-1.230561-1.06166-2.243965-2.099193-3.028146-1.049595-0.784181-2.243963-1.1702392-3.583103-1.1702392h-0.386058c-0.39812-1.6045496-1.242622-2.9195609-2.533505-3.9450285-1.290882-1.0254675-2.750666-1.5321691-4.403478-1.5321691-1.689006 0-3.184982 0.5308303-4.499995 1.5924908-1.3150102 1.0616604-2.1474485 2.4128648-2.5214426 4.053613-1.0254674 0.241286-1.9302918 0.72386-2.7024084 1.459783-0.7721169 0.735924-1.3150115 1.604555-1.6166195 2.630022v-0.04826c-0.012064 0-0.012064 0.03619-0.012064 0.08446zm1.9423561 10.363253c0-0.289543 0.1085789-0.518765 0.3136724-0.711795 0.1809649-0.180964 0.4222514-0.277479 0.7238595-0.277479h22.536158c0.289544 0 0.53083 0.09651 0.723859 0.277479 0.205093 0.19303 0.301608 0.422252 0.301608 0.699731 0 0.289545-0.09651 0.530831-0.301608 0.735924-0.205093 0.205094-0.44638 0.301608-0.723859 0.301608h-22.536158c-0.2774795 0-0.518766-0.108579-0.7238595-0.313672-0.2050935-0.180965-0.3136724-0.434315-0.3136724-0.711796z"/>
</svg>
