<svg id="Layer_1" style="enable-background:new 0 0 30 30" version="1.1" viewBox="0 0 30 30" xmlns="http://www.w3.org/2000/svg">
 <path id="path3" d="m0.05119069 14.112593c0 1.601658 0.47616842 3.030163 1.4285053 4.285517 0.9523368 1.255352 1.3423967 1.401455 2.7675915 2.076675 0.195939 0.07304 0.4509935 0.14624 0.5871098-0.189475 0.2603166-0.64204 0.2708196-0.597276 0.5402422-1.366076 0.0853763-0.243622-0.0910811-0.398085-0.2951623-0.490959-0.7997676-0.50692-0.8870642-0.564052-1.5652435-1.415383-0.6781792-0.851332-1.0100542-1.818098-1.0100542-2.900299 0-1.197635 0.4040217-2.236548 1.2120651-3.116738s1.8180976-1.3852168 3.0301626-1.5295103l0.7503261-0.1010052c0.1875814 0 0.2885868-0.086576 0.2885868-0.2452989l0.1010055-0.7503262c0.1442935-1.5583694 0.7936141-2.8714399 1.9623908-3.9247821 1.1687776-1.0533423 2.5395656-1.5872281 4.1123646-1.5872281 1.572797 0 2.943586 0.5338858 4.112362 1.5872281 1.183206 1.0533422 1.846956 2.3664127 2.020108 3.9247821l0.08659 0.836902c0 0.1731522 0.08657 0.2597283 0.274158 0.2597283h2.323124c1.313071 0 2.424131 0.4617386 3.347609 1.3707883 0.923478 0.909048 1.385218 2.005679 1.385218 3.289891 0 1.226493-0.432882 2.294264-1.284213 3.188885-0.851332 0.894619-1.904674 1.385217-3.160027 1.486222-0.187582 0-0.288587 0.08658-0.288587 0.274158v1.97682c0 0.158723 0.100999 0.245298 0.288587 0.245298 0.937908-0.02886 1.832527-0.245298 2.683858-0.63489 0.851333-0.389594 1.587229-0.909049 2.193261-1.54394 0.606032-0.634892 1.096631-1.385218 1.457363-2.265408 0.360735-0.865761 0.548317-1.77481 0.548317-2.712716 0-1.298641-0.317447-2.496277-0.966767-3.592908-0.649334-1.0966296-1.515095-1.9623904-2.611724-2.5972817-1.096631-0.6348911-2.294267-0.9523367-3.578478-0.9523367h-0.46174c-0.476169-1.9191031-1.486223-3.4919018-3.044591-4.7039669-1.55837-1.212065-3.31875-1.832527-5.31-1.832527-2.034538 0-3.852635 0.63489133-5.4254335 1.8902444-1.5727987 1.2553531-2.5828529 2.8714398-3.0301627 4.8482602-1.587228 0.375163-2.9002985 1.1976358-3.9392114 2.496277-1.038913 1.2986407-1.5295107 2.7560037-1.5295107 4.4153787z"/>
 <path id="path3-3" d="m5.5897336 29.55217h0.367173l6.5111914-9.607678c0.04895-0.04895 0.0612-0.110151 0.02448-0.171346-0.03672-0.0612-0.08568-0.08567-0.171347-0.08567h-2.6681204l2.8149894-5.152652c0.08567-0.171348 0.03672-0.26926-0.171347-0.26926h-3.5982904c-0.09791 0-0.183586 0.0612-0.26926 0.171347l-2.643642 7.000754c-0.02448 0.171347 0.02448 0.25702 0.171348 0.25702h2.65588z"/>
 <path id="path3-36" d="m11.739046 28.454391c0 0.173233 0.02888 0.317591 0.08662 0.418643 0.129923 0.317589 0.346462 0.534129 0.649617 0.649616 0.129924 0.07218 0.288718 0.11548 0.476385 0.11548 0.08662 0 0.230974-0.02888 0.433077-0.08662 0.317589-0.115493 0.548565-0.332026 0.678488-0.649616 0.144359-0.31759 0.144359-0.63518 0-0.95277-0.14436-0.31759-0.360899-0.534128-0.649615-0.664052-0.288719-0.129923-0.577438-0.129923-0.895028 0-0.274282 0.115481-0.46195 0.288718-0.591873 0.519692-0.129922 0.230976-0.187666 0.447513-0.187671 0.649627zm1.053821-3.767771c0 0.534128 0.303154 0.88059 0.909462 1.053821 0.158796 0.04331 0.274283 0.05774 0.346462 0.05774 0.216539 0 0.404206-0.04331 0.548566-0.115493 0.303154-0.115492 0.505257-0.389768 0.606308-0.822846l2.410797-9.080188c0.08662-0.346462 0.05774-0.649616-0.08662-0.938335-0.144359-0.274282-0.389769-0.461949-0.70736-0.548564-0.115493-0.02888-0.24541-0.04331-0.389768-0.04331-0.230976 0-0.46195 0.07218-0.692925 0.21654-0.230973 0.144358-0.375334 0.360898-0.433076 0.63518l-2.468542 9.152367c-0.02888 0.202103-0.04331 0.346462-0.04331 0.433082zm4.951518-0.664053c0 0.173231 0.02888 0.332027 0.115494 0.46195 0.115493 0.274282 0.332025 0.49082 0.63518 0.63518 0.158795 0.05774 0.332026 0.10106 0.505256 0.10106 0.08662 0 0.230976-0.02888 0.433079-0.08662 0.303153-0.115481 0.534128-0.332026 0.664051-0.635181 0.101061-0.317589 0.101061-0.620743-0.01444-0.909462-0.11548-0.288717-0.317589-0.505257-0.606308-0.649616-0.332025-0.158795-0.63518-0.173231-0.938334-0.04331-0.303154 0.129923-0.519692 0.346461-0.664051 0.678487-0.08662 0.144359-0.129924 0.288718-0.12993 0.447514zm1.053821-3.710029c0 0.202103 0.07218 0.418643 0.230975 0.649616 0.158796 0.230974 0.375334 0.38977 0.649616 0.476385 0.230975 0.04331 0.360898 0.07218 0.38977 0.07218 0.129924 0 0.31759-0.04331 0.53413-0.14436 0.288716-0.129924 0.476384-0.38977 0.577435-0.750668l1.299232-4.821591c0.02888-0.24541 0.04331-0.375334 0.04331-0.375334 0-0.230974-0.07218-0.447513-0.216539-0.664051-0.144358-0.216539-0.360898-0.360898-0.649616-0.447513-0.129922-0.02888-0.259846-0.04331-0.375332-0.04331-0.230976 0-0.46195 0.07218-0.678488 0.216537-0.21654 0.144361-0.360899 0.360898-0.447514 0.649617l-1.299232 4.850466z"/>
</svg>
