<svg id="Layer_1" style="enable-background:new 0 0 30 30" version="1.1" viewBox="0 0 30 30" xmlns="http://www.w3.org/2000/svg">
 <path id="path3" d="m0.10728622 18.078108c0-0.336558 0.11218617-0.617024 0.3505818-0.855419 0.25241891-0.238396 0.53288433-0.350582 0.84139628-0.350582h2.8607474c0.3225352 0 0.5889773 0.112186 0.8133497 0.350582 0.2103491 0.238395 0.3225353 0.518861 0.3225353 0.855419s-0.1121862 0.617024-0.3225353 0.841396c-0.2103491 0.238395-0.4908145 0.350582-0.8133497 0.350582h-2.8467241c-0.32253525 0-0.60300067-0.112187-0.84139627-0.350582-0.23839567-0.238395-0.36460511-0.518861-0.36460511-0.841396zm4.0106556-9.6900808c0-0.3225353 0.1121862-0.6030006 0.3225352-0.8554195 0.2804655-0.2383957 0.5749542-0.3505818 0.8974894-0.3505818 0.2944887 0 0.5749542 0.1121861 0.8273731 0.3505818l2.0053277 2.0473976c0.2243724 0.2103488 0.3365586 0.4908147 0.3365586 0.8273727 0 0.336559-0.1121862 0.617024-0.3365586 0.841397-0.2243723 0.224372-0.5048377 0.336558-0.8413963 0.336558-0.3365584 0-0.6170239-0.112186-0.827373-0.336558l-2.0473975-2.0053282c-0.2243724-0.2383956-0.3365586-0.5188611-0.3365586-0.8554196zm0.2243724 13.055667c0-0.308512 0.1121862-0.574955 0.3225352-0.771281 0.2243723-0.196326 0.5188611-0.308512 0.8974894-0.308512h8.0072882c0.378628 0 0.673117 0.09816 0.897489 0.308512 0.224372 0.196326 0.336558 0.462769 0.336558 0.771281 0 0.378628-0.112186 0.673117-0.322534 0.897489-0.224372 0.224372-0.518861 0.336557-0.911513 0.336557h-8.0072882c-0.3786283 0-0.6731171-0.112185-0.8974894-0.322533-0.2243724-0.21035-0.3225352-0.532885-0.3225352-0.911513zm1.3883039 4.136864c0-0.308511 0.1262094-0.588977 0.3926516-0.841396 0.2524189-0.252419 0.5469075-0.378627 0.8413962-0.378627 0.364605 0 0.6590937 0.126208 0.8834661 0.364604 0.2243723 0.252418 0.3365585 0.532884 0.3365585 0.855419 0 0.392652-0.1121862 0.68714-0.3225352 0.911513-0.2103491 0.224373-0.518861 0.322535-0.8974894 0.322535-0.3225352 0-0.6170238-0.112186-0.8554196-0.336559-0.2524188-0.224371-0.3786282-0.532883-0.3786282-0.897489zm1.9772812-7.095775v-0.09816c0.042069-1.766936 0.6590937-3.295472 1.8370485-4.599637 1.1779552-1.304165 2.6223522-2.089468 4.3472132-2.369933h0.07013c0.266442-0.0561 0.631047-0.08415 1.065768-0.08415 0.434722 0 0.799327 0.02805 1.065769 0.08415h0.0561c1.710839 0.266442 3.169259 1.065768 4.347213 2.369933 1.177956 1.304165 1.794978 2.832701 1.837049 4.599633v0.09816c0 0.224373-0.112187 0.336558-0.322535 0.336558h-1.58463c-0.168279 0-0.280466-0.04207-0.350582-0.126209-0.07012-0.08415-0.09815-0.168279-0.09815-0.252418-0.0561-1.304165-0.560931-2.412004-1.514514-3.323517-0.953582-0.911512-2.089468-1.360256-3.421678-1.360256s-2.468096 0.448744-3.421679 1.360256c-0.953582 0.911513-1.458419 2.019352-1.514513 3.323517 0 0.08414-0.04206 0.168279-0.1121861 0.252418-0.070112 0.08415-0.1963257 0.126209-0.3646047 0.126209h-1.5846297c-0.2243724 0-0.3365585-0.112185-0.3365585-0.336558zm1.4163504 7.095775c0-0.322535 0.1121861-0.603001 0.3365585-0.855419 0.2243723-0.238396 0.5188606-0.364604 0.8834668-0.364604h5.370912c0.308512 0 0.588977 0.126208 0.841397 0.378627 0.252418 0.252419 0.392651 0.532885 0.392651 0.841396 0 0.364606-0.126209 0.673118-0.378627 0.897489-0.252419 0.224373-0.532885 0.336559-0.855421 0.336559h-5.370912c-0.3786285 0-0.6731178-0.112186-0.89749-0.322535-0.2243724-0.224373-0.3225353-0.518861-0.3225353-0.911513zm4.6837723-18.342439v-2.8467241c0-0.3365585 0.112187-0.6170239 0.350583-0.8554195 0.238395-0.2383955 0.51886-0.3505817 0.855419-0.3505817s0.603 0.1121862 0.841396 0.3505817c0.238396 0.2383956 0.350582 0.518861 0.350582 0.8554195v2.8467241c0 0.3225353-0.112186 0.6030007-0.350582 0.8133498s-0.518861 0.3365584-0.841396 0.3365584c-0.322536 0-0.617024-0.1121861-0.841397-0.3225353-0.224372-0.210349-0.364605-0.5048376-0.364605-0.8273729zm1.907165 14.205575c0-0.294489 0.12621-0.546908 0.378629-0.757257 0.252419-0.21035 0.532884-0.322536 0.855419-0.322536 0.322536 0 0.603001 0.112186 0.855419 0.322536 0.25242 0.210349 0.378629 0.462768 0.378629 0.757257 0 0.364604-0.126209 0.673117-0.378629 0.897489-0.252418 0.224372-0.532883 0.336557-0.855419 0.336557-0.322535 0-0.617023-0.112185-0.855419-0.336557-0.252419-0.238395-0.378629-0.532885-0.378629-0.897489zm2.159584 4.136864c0-0.322535 0.112185-0.603001 0.336558-0.855419 0.224373-0.238396 0.532886-0.364604 0.89749-0.364604h2.608328c0.364605 0 0.659094 0.126208 0.883467 0.364604 0.224371 0.252418 0.336558 0.532884 0.336558 0.855419 0 0.392652-0.112187 0.68714-0.322535 0.911513-0.21035 0.224373-0.518861 0.322535-0.89749 0.322535h-2.608328c-0.378629 0-0.673117-0.112186-0.89749-0.322535-0.224373-0.224373-0.336558-0.518861-0.336558-0.911513zm1.234048-4.136864c0-0.294489 0.126209-0.546908 0.378628-0.757257 0.252419-0.21035 0.532885-0.322536 0.841397-0.322536h4.305144c0.308512 0 0.560931 0.09816 0.757256 0.308512 0.196325 0.210349 0.308512 0.462769 0.308512 0.771281 0 0.378628-0.09815 0.673117-0.294489 0.897489-0.196325 0.224372-0.448743 0.336557-0.771279 0.336557h-4.305144c-0.322535 0-0.603001-0.112185-0.85542-0.336557-0.238396-0.238395-0.364605-0.532885-0.364605-0.897489zm2.440049-11.036316c0-0.350581 0.112186-0.6310473 0.322536-0.8273726l1.991305-2.0473976c0.252418-0.2383957 0.532883-0.3505818 0.827372-0.3505818 0.322535 0 0.603 0.1121861 0.841397 0.3505818 0.238396 0.2383955 0.350581 0.5188611 0.350581 0.8554195 0 0.3365585-0.112185 0.6310473-0.336558 0.8554196l-2.047399 1.9913041c-0.252418 0.224373-0.532883 0.33656-0.841395 0.33656-0.322535 0-0.574955-0.112187-0.785303-0.33656-0.21035-0.210349-0.322536-0.490814-0.322536-0.827373zm3.169259 7.67073c0-0.322534 0.112186-0.603001 0.336559-0.855419 0.238395-0.238396 0.504838-0.350582 0.799327-0.350582h2.8327c0.322535 0 0.603001 0.126209 0.841397 0.364605 0.238396 0.238395 0.364604 0.518862 0.364604 0.841396 0 0.322535-0.126208 0.603001-0.364604 0.841396s-0.518862 0.350582-0.841397 0.350582h-2.8327c-0.322535 0-0.603001-0.112187-0.81335-0.350582-0.21035-0.238395-0.322536-0.504838-0.322536-0.841396z"/>
</svg>
