<svg id="Layer_1" style="enable-background:new 0 0 30 30" version="1.1" viewBox="0 0 30 30" xmlns="http://www.w3.org/2000/svg">
 <path id="path3" d="m0.11122585 19.055792c0-1.327319 0.41562533-2.520567 1.246876-3.552926 0.8312508-1.032361 1.8904253-1.702724 3.1909306-1.997684 0.3485891-1.56865 1.1396181-2.869156 2.3864943-3.8612938 1.2468763-1.0055454 2.6814543-1.5016144 4.3171412-1.5016144 1.582059 0 3.00323 0.4826617 4.236698 1.4613925 1.246876 0.9787307 2.051313 2.2256067 2.413309 3.7540357h0.361996c1.582058 0 2.922785 0.549698 4.035589 1.662501 1.112804 1.112804 1.67591 2.453531 1.67591 4.022182 0 1.582059-0.563106 2.922786-1.67591 4.035589s-2.453531 1.675909-4.035589 1.675909h-12.42854c-0.7776218 0-1.5150216-0.14748-2.2121997-0.455848-0.6971782-0.308367-1.3273199-0.68377-1.8367963-1.193247-0.5094763-0.509476-0.91169442-1.12621-1.2200616-1.823388-0.30836712-0.697179-0.45584711-1.461393-0.45584711-2.225608zm1.9440542 0c0 1.018954 0.3754037 1.903833 1.0993963 2.627825 0.7239926 0.723993 1.6222798 1.099396 2.668047 1.099396h12.441948c1.03236 0 1.930647-0.361996 2.668046-1.099396 0.737401-0.737399 1.112804-1.608871 1.112804-2.627825 0-1.018952-0.361996-1.903832-1.112804-2.627825-0.737399-0.723993-1.622278-1.099396-2.668046-1.099396h-1.863609c-0.134074 0-0.20111-0.06704-0.20111-0.201109l-0.09385-0.656957c-0.134072-1.260283-0.670365-2.319458-1.595466-3.150708-0.925101-0.831251-2.024497-1.246877-3.284782-1.246877-1.2602831 0-2.359679 0.415626-3.2981881 1.260284-0.938509 0.831251-1.4613926 1.890426-1.5820579 3.137301l-0.093851 0.563106c0 0.134073-0.067037 0.20111-0.2145164 0.20111l-0.6033271 0.09385c-0.965324 0.08043-1.7697604 0.482661-2.4267165 1.193248-0.6167345 0.710584-0.9519164 1.555242-0.9519164 2.533973zm11.865435-11.69114c-0.134073 0.1206654-0.107257 0.2145162 0.09385 0.2815526 0.576512 0.2547382 1.059173 0.4960691 1.447985 0.7373999 0.14748 0.040221 0.254738 0.026815 0.294959-0.040221 0.817845-0.7642146 1.756352-1.1530253 2.842343-1.1530253 1.085988 0 2.01109 0.3619962 2.815527 1.0859888 0.791029 0.7239928 1.233467 1.6222797 1.327319 2.6814539l0.120666 0.858066h1.903832c0.871474 0 1.622279 0.308367 2.252422 0.938508 0.630142 0.630142 0.938509 1.367542 0.938509 2.225607 0 0.804437-0.281553 1.501615-0.831252 2.104942-0.549698 0.603328-1.233469 0.938509-2.051311 1.03236-0.134073 0-0.20111 0.06704-0.20111 0.214517v1.515021c0 0.14748 0.06704 0.214516 0.20111 0.214516 1.354134-0.08043 2.493752-0.616734 3.418854-1.595465s1.394356-2.145164 1.394356-3.485891c0-1.42117-0.49607-2.627825-1.501614-3.619962-1.005546-1.005547-2.2122-1.5016149-3.619964-1.5016149h-0.201109c-0.348587-1.3407277-1.085987-2.440124-2.212198-3.3115966-1.112804-0.8714727-2.373087-1.3005054-3.754035-1.3005054-1.877019-0.0134072-3.445669 0.6971781-4.679139 2.118349z"/>
</svg>
