<svg id="Layer_1" style="enable-background:new 0 0 30 30" version="1.1" viewBox="0 0 30 30" xmlns="http://www.w3.org/2000/svg">
 <path id="path3" d="m0.1163732 17.057442c0 0.300174 0.11256522 0.562826 0.35020298 0.77545 0.20011594 0.237637 0.46276823 0.350202 0.78795662 0.350202h18.373148c0.362711 0 0.662886 0.125074 0.913031 0.375219 0.250145 0.250144 0.375218 0.562826 0.375218 0.925535 0 0.36271-0.125072 0.662885-0.375218 0.900522-0.250145 0.237637-0.55032 0.36271-0.925536 0.36271-0.362711 0-0.675391-0.125073-0.913028-0.36271-0.200118-0.225129-0.450263-0.325188-0.750437-0.325188-0.312681 0-0.575334 0.112567-0.800462 0.325188-0.225132 0.212624-0.337697 0.475275-0.337697 0.762943 0 0.31268 0.112565 0.575333 0.350202 0.787956 0.700407 0.6879 1.525885 1.038102 2.451422 1.038102 0.975566 0 1.81355-0.337695 2.513956-1.013087s1.038101-1.488362 1.038101-2.463928c0-0.975564-0.350203-1.801044-1.050608-2.501451-0.700405-0.700405-1.538392-1.050608-2.501449-1.050608h-18.360643c-0.31268119 0-0.57533334 0.112565-0.80046397 0.325188-0.22513042 0.212623-0.33769564 0.475276-0.33769564 0.787957zm0-4.102377c0 0.287666 0.11256522 0.537811 0.35020298 0.762942 0.21262329 0.225132 0.47527543 0.325188 0.78795662 0.325188h25.064528c0.975565 0 1.813551-0.337695 2.513956-1.025594 0.700407-0.675391 1.05061-1.500869 1.05061-2.463928 0-0.9630581-0.350203-1.8010438-1.05061-2.4889425-0.700405-0.6878987-1.538391-1.0381016-2.513956-1.0381016-0.963058 0-1.77603 0.3376956-2.438913 1.0005799-0.225132 0.2001159-0.337697 0.4752754-0.337697 0.8379856 0 0.3251884 0.112565 0.5878408 0.325188 0.7879567 0.212625 0.2001165 0.475276 0.3001741 0.787957 0.3001741 0.300175 0 0.562826-0.1000556 0.787956-0.3001741 0.237639-0.2626522 0.525306-0.3877246 0.875508-0.3877246 0.362709 0 0.662884 0.1250724 0.913029 0.3752173 0.250145 0.2501451 0.375217 0.5503192 0.375217 0.9130292 0 0.362709-0.125072 0.662884-0.375217 0.900521-0.250145 0.237638-0.55032 0.362711-0.913029 0.362711h-25.064527c-0.31268119 0-0.57533333 0.112565-0.80046396 0.325189-0.22513042 0.237637-0.33769564 0.50029-0.33769564 0.812971z"/>
</svg>
