<svg id="Layer_1" style="enable-background:new 0 0 30 30" version="1.1" viewBox="0 0 30 30" xmlns="http://www.w3.org/2000/svg">
 <path id="path3" d="m0.04107864 15.036115c0-0.317814 0.11556862-0.59229 0.33226003-0.808981 0.23113734-0.216691 0.50561303-0.317815 0.82342693-0.317815h17.45087c0.317814 0 0.577844 0.101125 0.780089 0.317815 0.202245 0.216691 0.317814 0.491167 0.317814 0.823427 0 0.317814-0.101124 0.577843-0.317814 0.780088-0.202245 0.202246-0.462275 0.317814-0.780089 0.317814h-17.45087c-0.31781389 0-0.60673562-0.101125-0.82342692-0.317814-0.23113744-0.216691-0.33226003-0.47672-0.33226003-0.794534zm3.4815067-4.189365c0-0.317813 0.1155687-0.577843 0.33226-0.794535 0.2166912-0.2166902 0.4911668-0.3322594 0.8089807-0.3322594h17.465317c0.303367 0 0.563397 0.1155692 0.780089 0.3322594 0.21669 0.216692 0.317813 0.476722 0.317813 0.794535 0 0.317814-0.101124 0.577843-0.317813 0.80898-0.216692 0.216693-0.476722 0.332261-0.780089 0.332261h-17.450871c-0.317814 0-0.5922895-0.115568-0.8089809-0.332261-0.2166912-0.216691-0.346706-0.491166-0.346706-0.80898zm2.3402659 8.292053c0-0.303368 0.1155686-0.563398 0.346706-0.780088 0.2022451-0.202247 0.4622747-0.317815 0.7800886-0.317815h17.479763c0.317813 0 0.592289 0.101125 0.808981 0.317815 0.21669 0.202245 0.317813 0.462275 0.317813 0.780088 0 0.317814-0.115569 0.592289-0.33226 0.80898-0.21669 0.216692-0.491167 0.332261-0.80898 0.332261h-17.465317c-0.3178139 0-0.5778435-0.115569-0.8089809-0.332261-0.2311373-0.216691-0.3178137-0.491166-0.3178137-0.80898zm15.283958-4.102688c0-0.332259 0.101124-0.606736 0.317814-0.823427 0.216692-0.216692 0.491167-0.317814 0.823427-0.317814h6.52963c0.33226 0 0.606736 0.101124 0.823426 0.317814 0.216693 0.216691 0.317815 0.491168 0.317815 0.80898 0 0.317815-0.101124 0.577844-0.317815 0.780089-0.21669 0.202246-0.491166 0.317815-0.808979 0.317815h-6.529632c-0.33226 0-0.606735-0.101125-0.823426-0.317815-0.231138-0.187799-0.33226-0.447828-0.33226-0.765642z"/>
</svg>
