<svg id="Layer_1" style="enable-background:new 0 0 30 30" version="1.1" viewBox="0 0 30 30" xmlns="http://www.w3.org/2000/svg">
 <path id="path3" d="m0.04519484 19.535309c0-1.596648 0.48174694-3.000596 1.4590054-4.239375 0.9772583-1.238777 2.2298007-2.023337 3.7713912-2.367442 0.3165768-1.417711 0.9634942-2.656491 1.9269884-3.716335 0.963494-1.0598428 2.1334517-1.8168737 3.4823412-2.2710925 0.853382-0.2890481 1.73429-0.4404544 2.656493-0.4404544 1.1149 0 2.202271 0.2202273 3.234587 0.6606817 0.385398-0.6469174 0.839617-1.2112498 1.362655-1.6792326 0.52304-0.4679828 1.059844-0.8396163 1.610412-1.0873719 0.550569-0.2477557 1.101136-0.4404544 1.624177-0.5643323 0.523038-0.1238778 1.046079-0.1789346 1.54159-0.1789346 0.523039 0 1.087372 0.068821 1.692997 0.2202272l1.128665 0.3441051c0.192697 0.082584 0.247754 0.1789346 0.192697 0.3028124l-0.192697 0.8258522c-0.09635 0.4266901-0.137643 0.825852-0.137643 1.1837212 0 0.4266904 0.06883 0.8671448 0.206462 1.3075993 0.137644 0.4404548 0.330342 0.867144 0.605626 1.2938343 0.261521 0.4266903 0.633153 0.7983231 1.101137 1.1424289 0.467982 0.344106 0.991021 0.605625 1.582882 0.78456l0.85338 0.302812c0.137643 0.0413 0.206464 0.110112 0.206464 0.220228 0 0.02753-0.01376 0.05506-0.02753 0.09634l-0.24776 0.922201c-0.371633 1.486534-1.073607 2.656491-2.064629 3.5374 0.550568 0.963494 0.853379 1.99581 0.894673 3.08318 0.01376 0.06883 0.01376 0.165171 0.01376 0.316578 0 1.225014-0.302811 2.367442-0.922201 3.413521-0.605625 1.046081-1.445241 1.871933-2.477556 2.477558-1.046079 0.605624-2.188508 0.922201-3.413522 0.922201h-14.879102c-1.2250081 2e-6 -2.3674368-0.30281-3.4135161-0.922199-1.0460774-0.619384-1.8581651-1.445234-2.4637902-2.477551-0.60562484-1.032313-0.90843721-2.174743-0.90843721-3.413521zm2.3536785 0c0 1.225014 0.4404545 2.284858 1.3213633 3.179531 0.8809091 0.894673 1.913224 1.348892 3.1107098 1.348892h14.879102c1.225013 0 2.271093-0.440456 3.138238-1.335129s1.307599-1.954516 1.307599-3.193294c0-1.21125-0.440454-2.243565-1.321364-3.11071-0.880908-0.867144-1.926987-1.307599-3.138238-1.307599h-2.450028l-0.137641-1.032314c-0.137642-1.390185-0.715739-2.587672-1.73429-3.564929-1.01855-0.9772581-2.229801-1.5278268-3.619985-1.6517042-0.04129 0-0.110113 0-0.206463-0.013766s-0.151406-0.013766-0.206462-0.013766c-0.701976 0-1.403949 0.1376419-2.119688 0.3991612v-0.027522c-1.004787 0.3853906-1.8581659 1.018545-2.532612 1.885689-0.6882109 0.867145-1.1011366 1.858167-1.2387787 2.986833l-0.09635 0.991021-0.9359657 0.04129c-1.1561923 0.137645-2.1196864 0.619392-2.8904817 1.459008-0.7707957 0.839621-1.1286649 1.81688-1.1286649 2.959308zm16.172936-11.162768c1.459007 1.2525428 2.367444 2.711548 2.711549 4.377017h0.440455c1.70676 0 3.165764 0.536802 4.363252 1.624176 0.454218-0.426691 0.798323-0.922203 1.046078-1.47277-1.252542-0.591861-2.243566-1.500297-2.973068-2.711548-0.715738-1.2112493-1.08737-2.4913203-1.08737-3.8264478v-0.3303408c-0.06883-0.013763-0.178935-0.013763-0.330342-0.013763-0.798323-0.013763-1.582883 0.1789346-2.339914 0.6056249-0.75703 0.412926-1.37642 0.9910225-1.83064 1.7480543z"/>
</svg>
