<svg id="Layer_1" style="enable-background:new 0 0 30 30" version="1.1" viewBox="0 0 30 30" xmlns="http://www.w3.org/2000/svg">
 <path id="path3" d="m0.10009298 15.029662c0-0.375711 0.13841985-0.711873 0.39548528-0.988714 0.25706541-0.276839 0.57345364-0.415259 0.94916454-0.415259 0.375711 0 0.7118735 0.13842 0.9689389 0.415259 0.2570656 0.276841 0.3954853 0.593228 0.3954853 0.988714 0 0.37571-0.1384197 0.692099-0.3954853 0.949164-0.2570654 0.257065-0.5932279 0.395485-0.9491647 0.395485-0.3559366 0-0.69209906-0.13842-0.94916446-0.395485-0.29661399-0.27684-0.41525956-0.593228-0.41525956-0.949164zm3.9153041 0c0-0.375711 0.1384198-0.711873 0.3954853-0.988714 0.2570654-0.276839 0.5734536-0.415259 0.9491647-0.415259h6.3870859l-4.5085309-4.5085319c-0.2768398-0.2372912-0.4152596-0.5536793-0.4152596-0.9293903s0.1384198-0.6920992 0.4152596-0.9689388c0.2768396-0.2768398 0.5932278-0.4152597 0.9689389-0.4152597 0.3757109 0 0.6920992 0.1384199 0.9689389 0.4152597l4.4887571 4.488758v-6.3475388c0-0.3757111 0.138421-0.7118735 0.41526-0.9887132 0.27684-0.2768397 0.593227-0.4152596 0.988712-0.4152596 0.375711 0 0.6921 0.1384199 0.949165 0.4152596 0.257066 0.2768397 0.395486 0.5932278 0.395486 0.9887132v6.3870868l4.528306-4.5480803c0.276839-0.2768398 0.593228-0.4152596 0.949165-0.4152596 0.355936 0 0.692099 0.1384198 0.968938 0.4152596 0.237291 0.2768396 0.355936 0.5932278 0.355936 0.9689389 0 0.3757109-0.118645 0.6920991-0.355936 0.9293904l-4.508532 4.508532h6.387087c0.355937 0 0.672326 0.13842 0.929391 0.415259 0.257064 0.27684 0.395484 0.593228 0.395484 0.988714 0 0.355936-0.13842 0.672324-0.395484 0.929389-0.257065 0.257066-0.573454 0.395486-0.929391 0.395486h-6.387087l4.528306 4.528305c0.237291 0.237292 0.355936 0.55368 0.355936 0.929391 0 0.37571-0.118645 0.692099-0.355936 0.968938-0.276839 0.276841-0.613002 0.41526-0.968938 0.41526-0.355937 0-0.6921-0.138419-0.949165-0.41526l-4.528306-4.548078v6.40686c0 0.375711-0.138419 0.711872-0.395486 0.968938-0.257065 0.257065-0.573453 0.395486-0.949165 0.395486-0.375711 0-0.711872-0.138421-0.988712-0.395486-0.276839-0.257066-0.415259-0.593227-0.415259-0.968938v-6.367313l-4.4887579 4.488757c-0.2768397 0.276839-0.5932279 0.41526-0.9689388 0.41526-0.3757111 0-0.6920993-0.138421-0.9689389-0.41526-0.2768398-0.276839-0.4152597-0.593228-0.4152597-0.968938 0-0.375711 0.1384199-0.672325 0.4152597-0.929391l4.5480796-4.528305h-6.4068604c-0.3757111 0-0.6920993-0.138421-0.9491647-0.395486-0.3163882-0.217517-0.4350338-0.533905-0.4350338-0.889841zm0.019774 9.570743c0-0.355937 0.1384199-0.6921 0.4152596-0.949165 0.2372912-0.27684 0.5536793-0.41526 0.9293904-0.41526 0.375711 0 0.6920992 0.13842 0.9689389 0.41526 0.2768397 0.276839 0.4152595 0.593228 0.4152595 0.949165 0 0.355936-0.1384198 0.692098-0.4152595 0.949164-0.2768397 0.276839-0.5932279 0.415259-0.9689389 0.415259-0.3757111 0-0.6920992-0.13842-0.9293904-0.415259-0.2768395-0.257066-0.4152594-0.573453-0.4152594-0.949164zm0-19.200809c0-0.3559367 0.1384199-0.6920991 0.4152596-0.9491645 0.2372913-0.2768399 0.5536794-0.4152596 0.9293905-0.4152596 0.375711 0 0.6920992 0.1384197 0.9689389 0.4152596 0.2768397 0.2768396 0.4152595 0.5932278 0.4152595 0.9491645s-0.1384198 0.6920992-0.4152595 0.9689389c-0.2768396 0.2768397-0.5932278 0.4152596-0.9689388 0.4152596-0.3757111 0-0.6920992-0.1384199-0.9293904-0.4152596-0.2768397-0.2768397-0.4152596-0.6130022-0.4152596-0.9689389zm9.5905179 23.15566c0-0.355936 0.138419-0.672323 0.41526-0.929389 0.276839-0.257066 0.593227-0.395486 0.988712-0.395486 0.375711 0 0.6921 0.13842 0.949165 0.395486s0.395485 0.573453 0.395485 0.929389c0 0.375712-0.13842 0.711874-0.395485 0.96894-0.257065 0.257065-0.573454 0.395485-0.949165 0.395485s-0.711873-0.13842-0.988712-0.395485c-0.276841-0.257066-0.41526-0.573454-0.41526-0.96894zm0-27.110513c0-0.375711 0.138419-0.71187335 0.41526-0.96893876 0.276839-0.25706542 0.593227-0.39548527 0.988712-0.39548527 0.375711 0 0.6921 0.13841985 0.949165 0.39548527 0.257065 0.25706541 0.395485 0.59322776 0.395485 0.96893876 0 0.3559368-0.13842 0.672325-0.395485 0.9293904-0.257065 0.2570655-0.573454 0.3954853-0.949165 0.3954853s-0.711873-0.1384198-0.988712-0.3954853c-0.27684-0.2570654-0.41526-0.5734536-0.41526-0.9293904zm9.630065 23.155662c0-0.355937 0.13842-0.6921 0.41526-0.949165 0.237291-0.27684 0.553679-0.41526 0.92939-0.41526s0.6921 0.13842 0.968939 0.41526c0.27684 0.276839 0.41526 0.593228 0.41526 0.949165 0 0.355936-0.13842 0.692098-0.41526 0.949164-0.276839 0.276839-0.593228 0.415259-0.968939 0.415259s-0.692099-0.13842-0.92939-0.415259c-0.27684-0.257066-0.41526-0.573453-0.41526-0.949164zm0-19.200809c0-0.3559367 0.13842-0.6920991 0.41526-0.9491645 0.237291-0.2768399 0.553679-0.4152596 0.92939-0.4152596s0.6921 0.1384197 0.968939 0.4152596c0.27684 0.2768396 0.41526 0.5932278 0.41526 0.9491645s-0.13842 0.6920992-0.41526 0.9689389c-0.276839 0.2768397-0.593228 0.4152596-0.968939 0.4152596s-0.692099-0.1384199-0.92939-0.4152596c-0.27684-0.2768397-0.415259-0.6130022-0.415259-0.9689389zm3.954853 9.6300664c0-0.375711 0.13842-0.711873 0.395486-0.988714 0.257065-0.276839 0.593228-0.415259 0.968939-0.415259 0.355937 0 0.672323 0.13842 0.92939 0.415259 0.257065 0.276841 0.395485 0.593228 0.395485 0.988714 0 0.355936-0.13842 0.672324-0.395485 0.92939-0.257067 0.257065-0.573453 0.395485-0.92939 0.395485-0.375711 0-0.711874-0.13842-0.968939-0.395485-0.257066-0.257066-0.395486-0.573454-0.395486-0.92939z"/>
</svg>
