<svg id="Layer_1" style="enable-background:new 0 0 30 30" version="1.1" viewBox="0 0 30 30" xmlns="http://www.w3.org/2000/svg">
 <path id="path3" d="m0.00216618 13.945239c0 1.603815 0.47680985 3.034244 1.4304295 4.291288 0.9536196 1.257044 2.1962149 2.123972 3.7277859 2.586332l-0.9536197 2.427396c-0.043346 0.202282 0.028898 0.317874 0.2022829 0.317874h3.0775908l-1.4159807 6.212976h0.4045659l5.6639232-8.30805c0.0578-0.0578 0.0578-0.13004 0.01445-0.202284-0.04335-0.07224-0.11559-0.101137-0.216732-0.101137h-3.1498339l3.5832979-6.704235c0.101137-0.202283 0.0289-0.317873-0.202283-0.317873h-4.2479418c-0.1300391 0-0.2456294 0.07224-0.332322 0.216732l-1.546021 4.146796c-1.0258645-0.260078-1.8783427-0.82358-2.5574355-1.676059-0.6790928-0.852478-1.0114147-1.820546-1.0114147-2.904205 0-1.19925 0.4045658-2.239562 1.2281464-3.135386 0.8235807-0.8813766 1.8349954-1.4015321 3.0342444-1.54602l0.7657856-0.1011415c0.1878341 0 0.2889756-0.086692 0.2889756-0.2600781l0.1011416-0.7368878c0.1589365-1.5604685 0.8091317-2.8753077 1.9794826-3.930069 1.1703508-1.0547611 2.5429868-1.589366 4.1179038-1.589366s2.94755 0.5346049 4.117903 1.589366c1.1848 1.0547613 1.849444 2.3696005 2.022829 3.930069l0.101137 0.8380294c0 0.1589366 0.0867 0.2456293 0.260077 0.2456293h2.311807c1.314839 0 2.427395 0.462361 3.352117 1.3726337 0.924722 0.910274 1.401532 2.02283 1.401532 3.294323 0 1.228147-0.433463 2.297357-1.285942 3.193181-0.852478 0.895825-1.921688 1.401532-3.178732 1.502674-0.187834 0-0.288975 0.0867-0.288975 0.260079v1.979482c0 0.158937 0.101148 0.245629 0.288975 0.245629 1.921688-0.05779 3.554401-0.794682 4.898137-2.181766 1.343737-1.387083 2.008381-3.048693 2.008381-4.98483 0-1.300391-0.317873-2.499639-0.968068-3.597747-0.635742-1.0981074-1.517116-1.9650344-2.615225-2.6007808-1.112556-0.6357464-2.311805-0.9536197-3.612195-0.9536197h-0.447913c-0.47681-1.921688-1.502674-3.4966055-3.048695-4.7103032-1.546018-1.2136978-3.323218-1.8349954-5.31715-1.8349954-2.037278 0-3.857826 0.63574635-5.4327425 1.8927906-1.5749173 1.257044-2.5863321 2.8753077-3.0342445 4.8547909-1.6038149 0.3756683-2.9186539 1.1992489-3.9589664 2.4996394-1.0403123 1.3003902-1.5604684 2.8175122-1.5604684 4.4791232zm11.761308 14.029768c0 0.563502 0.274528 0.939171 0.83803 1.112556 0.01445 0 0.07224 0 0.158937 0.01445 0.0867 0.01445 0.158936 0.01445 0.202283 0.01445 0.24563 0 0.476809-0.07224 0.707991-0.216733 0.231179-0.144487 0.390117-0.375667 0.462361-0.69354l3.250974-12.555993c0.0867-0.34677 0.0578-0.650195-0.101147-0.93917-0.158936-0.274527-0.390117-0.462362-0.722438-0.563503-0.245629-0.0289-0.375669-0.04335-0.375669-0.04335-0.231181 0-0.462361 0.07224-0.679093 0.21673-0.216732 0.144489-0.375668 0.361221-0.447912 0.650197l-3.265425 12.599338c-0.01445 0.144487-0.0289 0.274526-0.0289 0.404566zm6.010694-4.421328c0 0.187835 0.04335 0.375668 0.144488 0.549054 0.202282 0.317873 0.447912 0.534605 0.736888 0.635746 0.158937 0.04335 0.303424 0.07224 0.433464 0.07224 0.130039 0 0.288974-0.0289 0.46236-0.11559 0.303425-0.130039 0.505708-0.404566 0.60685-0.823581l2.080624-8.19246c0.04335-0.202282 0.07224-0.332321 0.07224-0.390116 0-0.216732-0.07224-0.433464-0.23118-0.650196-0.158938-0.216732-0.375669-0.375668-0.664644-0.462362-0.24563-0.0289-0.375669-0.04335-0.375669-0.04335-0.245629 0-0.476811 0.07224-0.679092 0.216731-0.202283 0.144488-0.346771 0.36122-0.433464 0.650196l-2.109522 8.235806c0 0.02889 0 0.07224-0.01445 0.158937-0.0289 0.07224-0.0289 0.11559-0.0289 0.158936z"/>
</svg>
