<svg id="Layer_1" style="enable-background:new 0 0 30 30" version="1.1" viewBox="0 0 30 30" xmlns="http://www.w3.org/2000/svg">
 <path id="path3" d="m0.15549624 15.000002c0-2.017056 0.39920854-3.929055 1.1766148-5.7780218 0.7774064-1.8489662 1.8489665-3.4247899 3.1726583-4.7484817 1.3236919-1.3236917 2.9205263-2.3952519 4.7694922-3.1936691 1.8489665-0.79841731 3.7819765-1.197626 5.7780195-1.197626h2.395253c0.336175 0.0840443 0.483253 0.29415374 0.483253 0.58830736l0.105053 1.8489665c0.08404 2.6683946 1.029538 4.9375806 2.878504 6.8075579 1.848967 1.8699778 4.076131 2.8785048 6.702503 2.9835608l1.722901 0.147076c0.336176 0 0.504263 0.168087 0.504263 0.483253v2.059077c0.02102 2.689404-0.630329 5.189711-1.954021 7.479908-1.323691 2.290198-3.109625 4.097142-5.399821 5.441844-2.269187 1.323693-4.769494 1.996043-7.4589 1.996043-2.038064 0-3.992086-0.399208-5.8410517-1.176614-1.8489656-0.777408-3.4247893-1.848966-4.748481-3.172659-1.3236917-1.32369-2.3742409-2.920526-3.1516471-4.748482-0.73538442-1.848965-1.134593-3.781976-1.134593-5.82004zm3.8450095 0c0 1.596835 0.3151649 3.109624 0.9454941 4.53837 0.6303295 1.407736 1.4707687 2.605363 2.5003068 3.571867 1.0295381 0.966506 2.2061535 1.722901 3.5508554 2.269187 1.323692 0.567296 2.689405 0.840438 4.076132 0.840438 1.218637 0 2.458284-0.231121 3.697932-0.714373 1.239647-0.483251 2.395252-1.155604 3.466812-2.017054 1.071559-0.86145 1.975033-1.95402 2.752438-3.298724 0.777406-1.344703 1.260659-2.79446 1.49178-4.391295-3.424791-0.714374-6.177229-2.185143-8.236306-4.412306-2.059074-2.2271647-3.256701-4.8325264-3.571867-7.8581076-2.017053 0.1260659-3.823997 0.7353843-5.4838646 1.8489664-1.6388569 1.1135819-2.9205266 2.5213176-3.823999 4.2442182-0.9034721 1.722902-1.3657137 3.508835-1.3657137 5.378813z"/>
</svg>
