<svg id="Layer_1" style="enable-background:new 0 0 30 30" version="1.1" viewBox="0 0 30 30" xmlns="http://www.w3.org/2000/svg">
 <path id="path3" d="m0.0545148 16.549112c0 0.338672 0.11289048 0.614628 0.35121588 0.840409 0.23832486 0.225782 0.53936701 0.326128 0.90312622 0.326128h2.1198379c0.3386723 0 0.627171-0.112885 0.8654959-0.338671 0.2383251-0.225782 0.3637592-0.501737 0.3637592-0.827866 0-0.363759-0.1128904-0.664802-0.3512157-0.890584-0.238325-0.225781-0.5268237-0.351215-0.865496-0.351215h-2.1323813c-0.36375921 0-0.66480136 0.112887-0.90312622 0.351215-0.23832509 0.213239-0.35121588 0.514281-0.35121588 0.890584zm2.2201854 7.751834c0 1.21671 0.4390197 2.270359 1.3296025 3.160941 0.8905829 0.890583 1.9316867 1.329603 3.1483984 1.329603h8.6047849c1.216712 0 2.257817-0.43902 3.123312-1.317059 0.865495-0.878041 1.304516-1.931687 1.304516-3.173485 0-0.602085-0.08781-1.116365-0.263412-1.542841 1.041105-0.664802 1.868969-1.555384 2.471054-2.659206 0.602084-1.103821 0.91567-2.295445 0.91567-3.562331 0-1.016017-0.200696-1.994404-0.602085-2.922616-0.40139-0.928214-0.940757-1.730993-1.605557-2.395794-0.664802-0.664801-1.467581-1.204168-2.395794-1.605557-0.928212-0.4013895-1.894056-0.6020842-2.910072-0.6020842-1.367234 0-2.634119 0.3386724-3.788114 1.0160162-1.153994 0.677345-2.069664 1.593014-2.7344645 2.734466-0.6648015 1.153995-0.9909306 2.408337-0.9909306 3.775569v0.426476c-1.2543421 0.714974-2.0822077 1.75608-2.4835972 3.123312-0.9532999 0.301042-1.705905 0.827866-2.270359 1.593015-0.5644538 0.765148-0.8529525 1.643187-0.8529525 2.621575zm1.9567734-17.761483c0 0.3512156 0.1128905 0.6397143 0.326129 0.8404091l2.0194906 2.1198379c0.5895407 0.4515632 1.1790814 0.4515632 1.7686223 0 0.2383245-0.2383251 0.3512161-0.5268237 0.3512161-0.8780395 0-0.3386723-0.1128859-0.627171-0.3512161-0.8780394l-2.0696644-2.0696643c-0.2634118-0.238325-0.5644539-0.3637591-0.8780394-0.3637591-0.3512158 0-0.6397144 0.1128905-0.8529526 0.3512158-0.213238 0.2383249-0.3135855 0.5268236-0.3135855 0.8780395zm0.5268237 17.761483c0-0.526824 0.1630645-0.978388 0.5017368-1.35469 0.3386723-0.376303 0.7651486-0.58954 1.2794289-0.639714l0.777692-0.100347c0.1630643 0 0.2508684-0.100347 0.2508684-0.288499l0.1128904-0.70243c0.087804-0.727517 0.3888465-1.329601 0.9156694-1.80625 0.526824-0.489194 1.1414514-0.727519 1.8564258-0.727519 0.727519 0 1.367234 0.238325 1.894056 0.727519 0.539367 0.489192 0.852954 1.091277 0.940757 1.806253l0.100347 0.815321c0.07526 0.188151 0.175607 0.288499 0.301042 0.288499h1.655731c0.539367 0 1.003474 0.200694 1.404863 0.589541 0.401389 0.388846 0.589541 0.852953 0.589541 1.404863 0 0.564453-0.200695 1.041103-0.589541 1.442494-0.388846 0.401388-0.865496 0.602083-1.404863 0.602083h-8.5922421c-0.5644538 0-1.0411038-0.200695-1.4174065-0.602083-0.3888448-0.401395-0.5769961-0.890588-0.5769961-1.455041zm5.5441907-8.015247c0.08781-1.367232 0.614628-2.521226 1.593015-3.461983 0.965843-0.928212 2.144924-1.404863 3.499615-1.404863 1.392318 0 2.583943 0.501736 3.562331 1.492668 0.978386 0.99093 1.46758 2.20764 1.46758 3.625047 0 0.87804-0.213239 1.693362-0.639715 2.445967-0.426477 0.752606-1.003474 1.354689-1.730991 1.818795-0.740063-0.614627-1.593016-0.915669-2.546315-0.915669-0.363759-1.103821-1.016016-1.969317-1.931687-2.621574-0.91567-0.652258-1.956774-0.978388-3.110769-0.978388h-0.163064zm3.875918-10.975491c0 0.3386723 0.125434 0.6397144 0.363758 0.8780394 0.238326 0.238325 0.526824 0.3637592 0.865496 0.3637592 0.351216 0 0.639716-0.1254342 0.87804-0.3637592 0.238325-0.238325 0.363759-0.5268236 0.363759-0.8780394v-2.9351603c0-0.3261289-0.125434-0.6020841-0.363759-0.8278657-0.238324-0.2257815-0.526824-0.3386723-0.87804-0.3386723-0.338672 0-0.62717 0.1128905-0.865496 0.3386723-0.238324 0.2257816-0.363758 0.5017368-0.363758 0.8278657v2.9351603zm7.927441 19.103628c0 0.338672 0.112887 0.62717 0.338672 0.87804l2.05712 2.032034c0.526825 0.526823 1.116364 0.526823 1.768622 0 0.225783-0.213239 0.32613-0.489194 0.32613-0.852953 0-0.338673-0.112886-0.614628-0.32613-0.840409l-2.119837-2.094751c-0.225782-0.213239-0.51428-0.313586-0.852953-0.313586-0.351217 0-0.627171 0.112887-0.852952 0.338672-0.225781 0.225781-0.338672 0.514281-0.338672 0.852953zm0-15.817252c0 0.3512157 0.112887 0.6522579 0.338672 0.9031263 0.225781 0.2257819 0.514279 0.3386724 0.852952 0.3386724s0.627171-0.1128905 0.852953-0.3386724l2.119837-2.1198379c0.225783-0.2132383 0.32613-0.4891935 0.32613-0.8404091 0-0.3512159-0.125434-0.6397146-0.36376-0.8654962-0.238324-0.2257815-0.526823-0.3512157-0.878038-0.3512157-0.326129 0-0.614628 0.1254342-0.852954 0.3637591l-2.05712 2.0445775c-0.225781 0.2257817-0.338672 0.5142802-0.338672 0.865496zm3.236202 7.9525281c0 0.338672 0.112885 0.614628 0.351216 0.840409 0.238325 0.225782 0.539366 0.326128 0.903126 0.326128h2.119838c0.338672 0 0.627171-0.112885 0.865497-0.338671 0.238324-0.225782 0.363759-0.501737 0.363759-0.827866 0-0.363759-0.112886-0.664802-0.351217-0.890584-0.238325-0.225781-0.526824-0.351215-0.865496-0.351215h-2.119838c-0.363759 0-0.664802 0.112887-0.903126 0.351215-0.238325 0.213239-0.363759 0.514281-0.363759 0.890584z"/>
</svg>
