<svg id="Layer_1" style="enable-background:new 0 0 30 30" version="1.1" viewBox="0 0 30 30" xmlns="http://www.w3.org/2000/svg">
 <path id="path3" d="m0.09176824 14.985962c0-0.336909 0.11230334-0.631704 0.35094694-0.870347 0.23864413-0.224607 0.53343968-0.336911 0.84227322-0.336911h2.863728c0.3228713 0 0.5895911 0.112308 0.814197 0.350947 0.2105684 0.238644 0.3228715 0.519402 0.3228715 0.856311s-0.098265 0.617669-0.3088334 0.856312-0.491326 0.350947-0.8141972 0.350947h-2.8637281c-0.32287145 0-0.60362909-0.112308-0.84227304-0.350947-0.23864402-0.238643-0.36498492-0.519403-0.36498492-0.856312zm4.0148346 9.728253c0-0.322872 0.1123032-0.603628 0.3228712-0.85631l2.0635689-2.007418c0.2105683-0.224606 0.4913256-0.322871 0.8282349-0.322871 0.3369094 0 0.617667 0.112307 0.8422732 0.322871 0.2246061 0.21057 0.336909 0.477288 0.336909 0.80016 0 0.336908-0.1123032 0.645742-0.336909 0.898425l-1.9933797 1.993378c-0.5755529 0.449213-1.1511064 0.449213-1.7266595 0-0.224606-0.224606-0.336909-0.505364-0.336909-0.828235zm0-19.42843c0-0.3228713 0.1123032-0.6036291 0.3228712-0.856311 0.2807576-0.2386438 0.5755532-0.350947 0.8984245-0.350947 0.3088333 0 0.5895911 0.1123033 0.828235 0.3369092l2.0074175 2.0635688c0.2246061 0.2105683 0.336909 0.4913258 0.336909 0.8282351 0 0.3369092-0.1123032 0.6176667-0.336909 0.8422729-0.2246062 0.2246061-0.5053638 0.3369091-0.8422732 0.3369091-0.3369093 0-0.6176666-0.1123031-0.8282349-0.3369091l-2.0495311-2.0074173c-0.224606-0.224606-0.336909-0.5194017-0.336909-0.8563107zm3.57966 9.7001768c0-1.305523 0.3228712-2.526817 0.9826518-3.649849 0.6597807-1.123031 1.5441674-2.0214556 2.6812364-2.681236 1.137068-0.6597806 2.344326-0.9826517 3.649849-0.9826517 0.982652 0 1.92319 0.1965302 2.835652 0.5895909 0.898425 0.3930608 1.684546 0.9124624 2.330288 1.5722433 0.659781 0.6597795 1.179184 1.4318645 1.558206 2.3302865 0.379022 0.898425 0.575552 1.853002 0.575552 2.835654 0 1.319562-0.322871 2.540857-0.982652 3.663887-0.659779 1.123031-1.544166 2.007417-2.667196 2.667198-1.123032 0.65978-2.344326 0.982651-3.663886 0.982651-1.319564 0-2.540858-0.322871-3.66389-0.982651-1.12303-0.659781-2.0074168-1.544167-2.6671973-2.667198-0.6317047-1.137068-0.9686139-2.358362-0.9686139-3.677925zm2.3864402 0c0 1.375713 0.477288 2.540857 1.445902 3.509471 0.954577 0.968614 2.119719 1.45994 3.495433 1.45994 1.375712 0 2.540857-0.491326 3.509469-1.45994 0.968615-0.968614 1.459941-2.133758 1.459941-3.509471 0-1.347637-0.491326-2.498744-1.459941-3.467356-0.968612-0.954577-2.133757-1.431865-3.509469-1.431865-1.361675 0-2.526819 0.477288-3.481395 1.431865-0.982652 0.968612-1.45994 2.119719-1.45994 3.467356zm3.734077 10.921473c0-0.336909 0.112307-0.617667 0.350947-0.842273 0.238644-0.224606 0.519401-0.336909 0.842273-0.336909 0.33691 0 0.631705 0.112307 0.856311 0.336909 0.224606 0.224606 0.336908 0.505364 0.336908 0.842273v2.793539c0 0.336908-0.112306 0.631706-0.350947 0.870349-0.238644 0.238643-0.519402 0.350947-0.842272 0.350947-0.322872 0-0.617668-0.112308-0.842273-0.350947-0.238644-0.238643-0.350947-0.533441-0.350947-0.870349v-2.793539zm0-21.758718v-2.8637282c0-0.32287131 0.112307-0.60362885 0.350947-0.84227297 0.238644-0.23864402 0.519401-0.36498503 0.856311-0.36498503 0.336908 0 0.603629 0.11230302 0.842273 0.35094705 0.238643 0.23864409 0.350947 0.51940163 0.350947 0.84227315v2.877766c0 0.3228712-0.112308 0.5895909-0.350947 0.8141972-0.238644 0.2246061-0.519401 0.3228713-0.842273 0.3228713s-0.617667-0.1123033-0.842273-0.3228713c-0.224607-0.2105683-0.364985-0.491326-0.364985-0.8141972zm7.748913 18.50193c0-0.322872 0.112306-0.58959 0.322869-0.786122 0.210569-0.224606 0.477289-0.322871 0.786122-0.322871 0.33691 0 0.617668 0.112305 0.842273 0.322871l2.049531 2.007416c0.224606 0.238646 0.336908 0.53344 0.336908 0.856312s-0.112304 0.603629-0.336908 0.828235c-0.561516 0.435175-1.123031 0.435175-1.684547 0l-1.993379-1.993379c-0.210568-0.252683-0.322869-0.547477-0.322869-0.912462zm0-15.329369c0-0.3509471 0.112306-0.6317046 0.322869-0.8282351l1.993379-2.0635688c0.238644-0.224606 0.519402-0.3369094 0.828237-0.3369094 0.336908 0 0.617665 0.1123035 0.842271 0.3509473 0.238645 0.238644 0.350947 0.5194018 0.350947 0.8422731 0 0.350947-0.112304 0.6457426-0.336908 0.8703486l-2.049531 2.0074172c-0.252682 0.2246061-0.53344 0.3369093-0.842273 0.3369093-0.322871 0-0.575553-0.1123034-0.786122-0.3369093-0.210568-0.2246061-0.322869-0.5053637-0.322869-0.8422729zm3.172559 7.6646839c0-0.336909 0.112309-0.617667 0.33691-0.870347 0.224607-0.224607 0.491326-0.336911 0.800159-0.336911h2.835652c0.322871 0 0.60363 0.126343 0.842274 0.364985 0.238643 0.238644 0.364985 0.519403 0.364985 0.842273s-0.126342 0.603629-0.364985 0.842273c-0.238644 0.238644-0.519403 0.350947-0.842274 0.350947h-2.835652c-0.322872 0-0.603628-0.112306-0.814196-0.350947-0.210568-0.238644-0.322873-0.505364-0.322873-0.842273z"/>
</svg>
