<svg id="Layer_1" style="enable-background:new 0 0 30 30" version="1.1" viewBox="0 0 30 30" xmlns="http://www.w3.org/2000/svg">
 <path id="path3" d="m0.04634115 14.122911c0-1.667908 0.51762668-3.134517 1.5672584-4.4285843 1.0352534-1.294066 2.3724555-2.1280201 3.997228-2.4874837 0.416977-1.9842353 1.4090948-3.5946292 2.9763533-4.8743174 1.5672581-1.2796882 3.3645731-1.9123428 5.4063231-1.9123428 1.998614 0 3.78155 0.61827616 5.348808 1.8404502 1.55288 1.2221741 2.573756 2.8038111 3.048247 4.744911h0.48887c1.294065 0 2.487482 0.316327 3.565871 0.9489824 1.092768 0.6326555 1.941101 1.4953659 2.573754 2.5881336 0.618277 1.092767 0.934605 2.286183 0.934605 3.580251 0 1.926721-0.661412 3.565872-1.969858 4.94621-1.322823 1.380337-2.933218 2.099262-4.845559 2.156777-0.172543 0-0.258813-0.08627-0.258813-0.244434v-1.926723c0-0.158161 0.08627-0.244433 0.258813-0.244433 1.207795-0.100639 2.257426-0.603899 3.120136-1.509745 0.862713-0.905846 1.294068-1.969857 1.294068-3.192032 0-1.279688-0.460112-2.386834-1.380337-3.321436-0.920226-0.9202253-2.012993-1.3947173-3.29268-1.3947173h-2.343699c-0.172542 0-0.273193-0.086268-0.316328-0.2588121l-0.100641-0.8195766c-0.100658-1.0208742-0.431365-1.9554782-1.006505-2.7894323-0.575141-0.8339541-1.308445-1.4809874-2.199913-1.9554783-0.891468-0.4744912-1.869207-0.7045475-2.904461-0.7045475-1.581638 0-2.947596 0.5176267-4.1122562 1.5672585-1.1646598 1.0496318-1.8260715 2.3580769-1.9698568 3.9109569l-0.1006494 0.7764396c0 0.1294066-0.071892 0.2012998-0.2300564 0.2012998l-0.7764398 0.1581638c-1.2077956 0.1006422-2.2286703 0.5895185-3.0338674 1.4809865-0.8195755 0.891468-1.222174 1.9411-1.222174 3.163275 0 1.25093 0.4313555 2.329318 1.2796882 3.235166 0.8483324 0.905847 1.8835858 1.394716 3.1201384 1.466608 0.1725422 0 0.2588132 0.08627 0.2588132 0.244436v1.926722c0 0.158163-0.086272 0.244434-0.2588132 0.244434-0.9489825-0.043136-1.8404506-0.258813-2.7031616-0.647033-0.8627111-0.388219-1.5960156-0.905847-2.1999133-1.538503-0.6182762-0.632653-1.1071459-1.365958-1.4666088-2.228669-0.35946301-0.862711-0.54638373-1.754179-0.54638373-2.703161zm7.7931568 9.734256c0-0.04313 0.014378-0.115031 0.028757-0.186921 0.014377-0.07189 0.028757-0.129406 0.028757-0.158163l0.3882199-1.480988c0.1006495-0.316328 0.2875706-0.575141 0.5751408-0.733304 0.2875704-0.172542 0.5895193-0.201299 0.9202248-0.100639 0.3307066 0.100639 0.5751406 0.28757 0.7476836 0.57514 0.172542 0.287571 0.201299 0.589519 0.100649 0.920225l-0.345084 1.452232c-0.186921 0.632652-0.5463841 0.948981-1.0927675 0.948981h-0.1294067c-0.043135 0-0.1006495-0.01438-0.1581636-0.01438-0.057515-0.01438-0.1006495-0.01438-0.1437853-0.01438-0.3019488-0.086278-0.532005-0.25882-0.6901686-0.488877-0.1581638-0.230057-0.2300564-0.48887-0.2300564-0.718926zm1.8979643-6.930446c0-0.02876 0-0.08627 0.014374-0.158164 0.014374-0.07189 0.014374-0.115031 0.014374-0.129406l0.4313558-1.509744c0.08627-0.273192 0.244434-0.48887 0.460112-0.647034 0.215678-0.143785 0.445734-0.215679 0.675791-0.215679h0.115031c0.04313 0 0.08627 0.01438 0.129407 0.01438 0.04314 0.01438 0.08627 0.01438 0.115031 0.01438 0.330706 0.10064 0.57514 0.28757 0.733303 0.575141 0.172544 0.287571 0.201299 0.589519 0.100639 0.920225l-0.345083 1.437852c-0.10064 0.4026-0.287571 0.67579-0.575141 0.848332-0.287572 0.172544-0.603899 0.172544-0.934605 0.02876-0.316326-0.086277-0.546382-0.244441-0.7045465-0.488876-0.1581627-0.244433-0.2300555-0.460112-0.2300555-0.690168zm1.7685578 11.430922c0-0.04313 0.01438-0.100639 0.02876-0.18692 0.01438-0.08627 0.02876-0.129406 0.02876-0.172543l0.416976-1.423472c0.08627-0.345085 0.28757-0.603898 0.575141-0.77644 0.28757-0.172543 0.603897-0.215679 0.934604-0.115032 0.330705 0.100639 0.560761 0.287571 0.733304 0.58952 0.172542 0.301949 0.18692 0.603898 0.100639 0.934603l-0.359463 1.495369c-0.158164 0.589518-0.532007 0.877089-1.150282 0.877089-0.07189 0-0.186921-0.01438-0.345083-0.0575-0.316328-0.05751-0.546385-0.201298-0.70455-0.431354-0.17254-0.230057-0.258812-0.474493-0.258812-0.733306zm1.926721-6.858552c0-0.08627 0.01438-0.2013 0.05751-0.359463l0.388219-1.480987c0.100639-0.330706 0.287572-0.575143 0.58952-0.733306 0.28757-0.172542 0.603898-0.201299 0.934604-0.100639 0.330705 0.08627 0.560761 0.273193 0.733304 0.560763 0.158164 0.28757 0.186922 0.589519 0.08627 0.934603l-0.345086 1.423473c-0.186919 0.647034-0.532003 0.97774-1.035252 0.97774-0.0575 0-0.215677-0.02876-0.445733-0.08627-0.316328-0.0575-0.546385-0.2013-0.704548-0.431357-0.172542-0.215676-0.258814-0.460112-0.258814-0.704546zm4.054742 2.41559c0-0.100639 0.01438-0.215678 0.04314-0.345084l0.402599-1.423474c0.100639-0.345084 0.287569-0.603897 0.58952-0.776439 0.301948-0.172543 0.589518-0.215678 0.905845-0.129407 0.330707 0.100639 0.58952 0.28757 0.762062 0.589519 0.172543 0.287571 0.215678 0.58952 0.129406 0.905848l-0.416977 1.524122c-0.143784 0.589519-0.517626 0.877089-1.135903 0.877089-0.129406 0-0.258813-0.01438-0.373841-0.04313-0.28757-0.0575-0.503248-0.201299-0.661411-0.431356-0.143786-0.258813-0.230058-0.503248-0.244436-0.747683zm1.984235-6.844175c0-0.04313 0.02876-0.172543 0.07189-0.37384l0.431355-1.480989c0.0575-0.301948 0.186922-0.532004 0.416978-0.675789s0.460111-0.215679 0.704547-0.2013c0.05751-0.01438 0.18692 0 0.345084 0.04313 0.316327 0.07189 0.560764 0.258814 0.747683 0.546384 0.172543 0.244435 0.2013 0.546383 0.100639 0.934604l-0.345083 1.480987c-0.186922 0.618277-0.546384 0.934605-1.092768 0.934605-0.08627 0-0.244434-0.02876-0.488871-0.08627-0.301947-0.08627-0.517625-0.244435-0.66141-0.445734-0.158164-0.230056-0.230057-0.445734-0.230057-0.675791z"/>
</svg>
