<svg id="Layer_1" style="enable-background:new 0 0 30 30" version="1.1" viewBox="0 0 30 30" xmlns="http://www.w3.org/2000/svg">
 <path id="path3" d="m0.05119069 14.112593c0 1.601658 0.47616842 3.030163 1.4285053 4.285517 0.9523368 1.255352 1.3423967 1.401455 2.7675915 2.076675 0.195939 0.07304 0.4509935 0.14624 0.5871098-0.189475 0.2603166-0.64204 0.2708196-0.597276 0.5402422-1.366076 0.0853763-0.243622-0.0910811-0.398085-0.2951623-0.490959-0.7997676-0.50692-0.8870642-0.564052-1.5652435-1.415383-0.6781792-0.851332-1.0100542-1.818098-1.0100542-2.900299 0-1.197635 0.4040217-2.236548 1.2120651-3.116738s1.8180976-1.3852168 3.0301626-1.5295103l0.7503261-0.1010052c0.1875814 0 0.2885868-0.086576 0.2885868-0.2452989l0.1010055-0.7503262c0.1442935-1.5583694 0.7936141-2.8714399 1.9623908-3.9247821 1.1687776-1.0533423 2.5395656-1.5872281 4.1123646-1.5872281 1.572797 0 2.943586 0.5338858 4.112362 1.5872281 1.183206 1.0533422 1.846956 2.3664127 2.020108 3.9247821l0.08659 0.836902c0 0.1731522 0.08657 0.2597283 0.274158 0.2597283h2.323124c1.313071 0 2.424131 0.4617386 3.347609 1.3707883 0.923478 0.909048 1.385218 2.005679 1.385218 3.289891 0 1.226493-0.432882 2.294264-1.284213 3.188885-0.851332 0.894619-1.904674 1.385217-3.160027 1.486222-0.187582 0-0.288587 0.08658-0.288587 0.274158v1.97682c0 0.158723 0.100999 0.245298 0.288587 0.245298 0.937908-0.02886 1.832527-0.245298 2.683858-0.63489 0.851333-0.389594 1.587229-0.909049 2.193261-1.54394 0.606032-0.634892 1.096631-1.385218 1.457363-2.265408 0.360735-0.865761 0.548317-1.77481 0.548317-2.712716 0-1.298641-0.317447-2.496277-0.966767-3.592908-0.649334-1.0966296-1.515095-1.9623904-2.611724-2.5972817-1.096631-0.6348911-2.294267-0.9523367-3.578478-0.9523367h-0.46174c-0.476169-1.9191031-1.486223-3.4919018-3.044591-4.7039669-1.55837-1.212065-3.31875-1.832527-5.31-1.832527-2.034538 0-3.852635 0.63489133-5.4254335 1.8902444-1.5727987 1.2553531-2.5828529 2.8714398-3.0301627 4.8482602-1.587228 0.375163-2.9002985 1.1976358-3.9392114 2.496277-1.038913 1.2986407-1.5295107 2.7560037-1.5295107 4.4153787zm11.774346 14.227336c0 0.230869 0.07215 0.447309 0.216439 0.66375 0.144295 0.21644 0.375164 0.375163 0.663751 0.461738 0.202011 0.04329 0.317445 0.07215 0.360734 0.07215 0.129863 0 0.303016-0.04329 0.548314-0.144293 0.303016-0.129864 0.505027-0.389591 0.606033-0.750326l0.404021-1.515081c0.08658-0.317446 0.05772-0.620461-0.115434-0.909049-0.173152-0.288586-0.418452-0.476169-0.764756-0.577174-0.317445-0.08659-0.620462-0.05772-0.909048 0.115435-0.288586 0.173153-0.490598 0.418452-0.591603 0.764755l-0.389592 1.442935c-0.01443 0.245299-0.02886 0.375163-0.02886 0.37516zm1.933532-6.882798c0 0.20201 0.07215 0.418451 0.21644 0.63489 0.144293 0.216441 0.360734 0.375164 0.64932 0.476169 0.317446 0.100999 0.634892 0.08658 0.923479-0.07215 0.288586-0.158723 0.476168-0.404022 0.577174-0.750326l0.43288-1.500652c0.08659-0.317446 0.04329-0.620461-0.115435-0.909049-0.173152-0.288586-0.432881-0.490598-0.764756-0.591603-0.331874-0.08659-0.634889-0.05772-0.937906 0.115434-0.303017 0.173152-0.490599 0.418452-0.591604 0.750327l-0.346304 1.457367c-0.02886 0.245299-0.04329 0.375164-0.04329 0.389593zm4.069075 2.380842c0 0.245298 0.07215 0.490597 0.23087 0.735896 0.158723 0.245299 0.389591 0.404021 0.678179 0.505027 0.02886 0 0.08657 0.01443 0.173152 0.02886 0.07215 0.01443 0.129865 0.02887 0.173152 0.02887 0.187582 0 0.375164-0.02887 0.548316-0.115434 0.274157-0.10101 0.476167-0.375164 0.591603-0.822474l0.360734-1.457364c0.100999-0.331875 0.07215-0.649321-0.08658-0.952336-0.158723-0.303017-0.404022-0.505027-0.721466-0.606034-0.360735-0.08658-0.69261-0.04329-0.981196 0.115435-0.288588 0.173153-0.476169 0.432881-0.533886 0.764756l-0.389592 1.486223c-0.02886 0.08659-0.04329 0.187581-0.04329 0.288587zm1.962392-6.911657c-0.01443 0.230869 0.05772 0.44731 0.216439 0.678179 0.158723 0.230869 0.389593 0.404021 0.707038 0.548315 0.115435 0.05772 0.23087 0.08659 0.375163 0.08659 0.158723 0 0.317446-0.04329 0.490598-0.115434 0.303017-0.144295 0.505027-0.418452 0.634892-0.822474l0.418451-1.486223c0.02886-0.18758 0.04329-0.288586 0.04329-0.317445 0-0.245299-0.07215-0.476169-0.230868-0.707038-0.158723-0.230869-0.389593-0.389593-0.707039-0.476168-0.02886 0-0.08658-0.01443-0.158723-0.02886-0.08659-0.04329-0.144293-0.04329-0.187582-0.04329-0.245298 0-0.476168 0.07215-0.707037 0.21644-0.230869 0.144294-0.389592 0.375163-0.476169 0.692608l-0.389592 1.457364c-0.01443 0.115435-0.02886 0.216441-0.02886 0.317447z"/>
 <path id="path3-3" d="m5.5897336 29.55217h0.367173l6.5111914-9.607678c0.04895-0.04895 0.0612-0.110151 0.02448-0.171346-0.03672-0.0612-0.08568-0.08567-0.171347-0.08567h-2.6681204l2.8149894-5.152652c0.08567-0.171348 0.03672-0.26926-0.171347-0.26926h-3.5982904c-0.09791 0-0.183586 0.0612-0.26926 0.171347l-2.643642 7.000754c-0.02448 0.171347 0.02448 0.25702 0.171348 0.25702h2.65588z"/>
</svg>
