<svg id="Layer_1" style="enable-background:new 0 0 30 30" version="1.1" viewBox="0 0 30 30" xmlns="http://www.w3.org/2000/svg">
 <path id="path3" d="m0.02312931 14.291293c0-1.677757 0.50621954-3.153025 1.5331223-4.4547342 1.0269029-1.3017066 2.3430742-2.1405854 3.9629772-2.5455613 0.448366-1.967025 1.4608054-3.5869281 3.037318-4.8597091 1.5765132-1.2727808 3.3844402-1.8947079 5.4237822-1.8947079 1.995951 0 3.760489 0.6219271 5.322538 1.8513177 1.56205 1.2293907 2.574491 2.8203669 3.037319 4.7584653h0.462828c1.287244 0 2.48771 0.3181952 3.586929 0.9545856 1.09922 0.6363904 1.981488 1.5041954 2.617879 2.6034159 0.63639 1.099218 0.969049 2.299684 0.969049 3.586928 0 1.909169-0.665316 3.572465-2.010415 4.946487-1.330636 1.388489-2.965001 2.111661-4.888636 2.169515-0.188023 0-0.289269-0.08678-0.289269-0.24588v-1.923635c0-0.173559 0.101239-0.26034 0.289269-0.26034 1.229391-0.05785 2.285221-0.549609 3.153025-1.475269 0.867806-0.925659 1.301708-1.99595 1.301708-3.225343 0-1.287243-0.46283-2.386464-1.402951-3.326586-0.940123-0.940122-2.053806-1.4029509-3.355513-1.4029509h-2.328611c-0.173562 0-0.260342-0.086783-0.260342-0.2458781l-0.115707-0.8388789c-0.159097-1.562049-0.838878-2.8782202-2.010415-3.9340498-1.186002-1.0558297-2.545562-1.5909762-4.122074-1.5909762-1.590978 0-2.965002 0.5351465-4.1365395 1.6054396-1.1715366 1.0702931-1.8368538 2.3864643-1.981488 3.9774409l-0.08678 0.723171c0 0.1735601-0.1012441 0.2748053-0.2892684 0.2748053l-0.7665617 0.1012441c-1.2004642 0.1012446-2.2129036 0.593-3.0373185 1.504196s-1.2293908 1.952562-1.2293908 3.167489c0 1.22939 0.4339026 2.299684 1.3017079 3.225342 0.8678051 0.925659 1.9236347 1.402952 3.1530254 1.47527 0.1590977 0 0.2458783 0.08678 0.2458783 0.260341v1.923632c0 0.1591-0.08678 0.245882-0.2458783 0.245882-1.9380979-0.057855-3.5724644-0.781028-4.9175623-2.169516-1.2583175-1.388487-1.9236348-3.051783-1.9236348-4.960952zm9.1987349 5.886611c0-0.318195 0.1157071-0.607463 0.3471221-0.83888 0.2314142-0.231413 0.5062197-0.34712 0.8533407-0.34712 0.332659 0 0.621928 0.115707 0.853343 0.34712 0.231415 0.231417 0.347122 0.520685 0.347122 0.83888 0 0.347122-0.115707 0.63639-0.347122 0.867805-0.231415 0.245877-0.50622 0.361586-0.853343 0.361586-0.332659 0-0.6219265-0.115707-0.8533407-0.361586-0.2314148-0.231415-0.3471221-0.520683-0.3471221-0.867805zm0 5.250222c0-0.347122 0.1157071-0.63639 0.3471221-0.867806 0.2314142-0.216952 0.5062197-0.332659 0.8388787-0.332659 0.332658 0 0.621927 0.115706 0.853342 0.332659 0.231415 0.231415 0.347122 0.50622 0.347122 0.853341 0 0.347122-0.115707 0.621928-0.347122 0.853343-0.231415 0.231414-0.506221 0.332657-0.853342 0.332657-0.332659 0-0.6219281-0.115707-0.8533422-0.332657-0.2169513-0.216952-0.3326586-0.50622-0.3326586-0.838878zm4.6138298-2.458781c0-0.332659 0.115708-0.63639 0.361587-0.896734 0.231414-0.231413 0.506219-0.347121 0.824415-0.347121 0.332657 0 0.621927 0.130171 0.867804 0.376049 0.245879 0.245879 0.376048 0.535147 0.376048 0.867806 0 0.332657-0.115706 0.621925-0.361585 0.867806-0.245877 0.245877-0.535146 0.361583-0.882267 0.361583-0.332659 0-0.607465-0.115706-0.83888-0.361583-0.231413-0.24588-0.347122-0.535148-0.347122-0.867806zm0-5.235759c0-0.332658 0.115708-0.621927 0.361587-0.867805 0.260341-0.231415 0.535146-0.347121 0.824415-0.347121 0.347121 0 0.63639 0.115705 0.882267 0.361585 0.245879 0.245879 0.361585 0.520683 0.361585 0.867804 0 0.332659-0.115706 0.621928-0.361585 0.853343-0.245877 0.231414-0.535146 0.347121-0.882267 0.347121-0.332659 0-0.607465-0.115707-0.83888-0.347121-0.231413-0.245879-0.347122-0.535147-0.347122-0.867807zm0 10.52937c0-0.332659 0.115708-0.621928 0.361587-0.882268 0.231414-0.231416 0.506219-0.347123 0.824415-0.347123 0.347121 0 0.63639 0.115707 0.882267 0.361586 0.245879 0.245877 0.361585 0.535146 0.361585 0.867805 0 0.332658-0.115706 0.621927-0.361585 0.853341-0.245877 0.231417-0.535146 0.347123-0.882267 0.347123-0.332659 0-0.607465-0.115706-0.83888-0.347123-0.231413-0.245876-0.347122-0.520683-0.347122-0.853341zm4.657223-8.085051c0-0.318195 0.115707-0.593002 0.361583-0.83888 0.245879-0.245878 0.535148-0.361584 0.867807-0.361584s0.621927 0.115706 0.853342 0.347121c0.231413 0.231416 0.347123 0.520685 0.347123 0.838878 0 0.347124-0.115709 0.636392-0.347123 0.867805-0.231415 0.24588-0.50622 0.361587-0.853342 0.361587-0.347121 0-0.63639-0.115706-0.867807-0.361587-0.231413-0.231413-0.361583-0.520681-0.361583-0.85334zm0 5.250222c0-0.318196 0.115707-0.607464 0.361583-0.867806 0.231417-0.216952 0.520686-0.332659 0.867807-0.332659 0.347122 0 0.621927 0.115706 0.853342 0.332659 0.231413 0.216952 0.33266 0.50622 0.33266 0.853341 0 0.347122-0.115709 0.621928-0.33266 0.853342-0.231415 0.231415-0.50622 0.332658-0.853342 0.332658-0.347121 0-0.63639-0.115707-0.867807-0.347121-0.231413-0.216952-0.361583-0.491757-0.361583-0.824415z"/>
</svg>
