<svg id="Layer_1" style="enable-background:new 0 0 30 30" version="1.1" viewBox="0 0 30 30" xmlns="http://www.w3.org/2000/svg">
 <path id="path39" d="m0.02788853 13.93108c0 1.906725 0.67890918 3.55344 2.0222828 4.925705 1.3433737 1.386708 2.9756448 2.108951 4.8823685 2.166731 0.1733387 0 0.260008-0.08667 0.260008-0.245563v-1.921168c0-0.17334-0.086669-0.260008-0.260008-0.260008-1.2133696-0.057783-2.2678457-0.548906-3.1345383-1.473378-0.8666927-0.924473-1.3144838-1.978949-1.3144838-3.206763 0-1.213369 0.4044565-2.267847 1.2278146-3.163428 0.823358-0.895582 1.8200544-1.401153 3.0334242-1.5022673l0.7655784-0.1011143c0.1733386 0 0.2744527-0.086669 0.2744527-0.2600078l0.1011142-0.7222436c0.1444488-1.5744917 0.7944683-2.9034203 1.9645036-3.9723414 1.1700336-1.0689208 2.5422966-1.6033813 4.1312336-1.6033813 1.560046 0 2.93231 0.5344605 4.102346 1.5889364 1.170034 1.0544762 1.848944 2.3545151 2.022282 3.9145619l0.101108 0.8378029c0 0.1733385 0.08667 0.2600078 0.274452 0.2600078h2.31118c1.300039 0 2.412295 0.462236 3.351211 1.4011537 0.924473 0.924471 1.401154 2.036728 1.401154 3.322321 0 1.213371-0.433347 2.28229-1.30004 3.206763-0.866693 0.910027-1.921168 1.401152-3.148983 1.473378-0.187783 0-0.288897 0.08667-0.288897 0.260008v1.921168c0 0.158894 0.101108 0.245563 0.288897 0.245563 1.921168-0.05778 3.55344-0.780023 4.882369-2.166731 1.328928-1.386709 1.993393-3.01898 1.993393-4.940149 0-1.285593-0.317788-2.484519-0.967808-3.582329-0.635566-1.097811-1.516703-1.9645038-2.614514-2.6000783-1.097811-0.6355746-2.296735-0.9533619-3.58233-0.9533619h-0.447791c-0.476681-1.9356136-1.487824-3.5101052-3.04787-4.7523647-1.545602-1.2278145-3.322322-1.8489442-5.315715-1.8489442-2.036727 0-3.842337 0.63557463-5.4168271 1.8922788-1.5744916 1.2567043-2.585633 2.8745306-3.0334243 4.8390338-1.6322711 0.4189016-2.9467549 1.2711494-3.9723412 2.5567435-1.0255863 1.285594-1.5456019 2.787862-1.5456019 4.463466zm7.8002338 10.140304c0 0.245564 0.072224 0.491127 0.231118 0.736689 0.1588937 0.245563 0.3900118 0.404457 0.6789093 0.505571 0.3322322 0.101108 0.6355745 0.08667 0.9244721-0.05778 0.2744518-0.130003 0.4766803-0.404457 0.5633503-0.808914l0.202227-0.881138c0.07222-0.33223 0.02889-0.635574-0.130004-0.910025-0.158893-0.274452-0.4044554-0.476681-0.7511322-0.577796-0.3177874-0.101113-0.6355747-0.05778-0.9244723 0.11556-0.2888975 0.173339-0.4911258 0.433346-0.577795 0.765578l-0.2022283 0.852248c0 0.04333-0.014444 0.130005-0.014444 0.260007zm1.0978107-4.189013c0 0.303341 0.115559 0.577795 0.3611219 0.823357 0.2311181 0.245564 0.4911258 0.361122 0.8089121 0.361122 0.346677 0 0.635574-0.115558 0.866693-0.346676 0.231119-0.231119 0.346677-0.505572 0.346677-0.852249 0-0.332231-0.115558-0.621129-0.346677-0.852246-0.231119-0.23112-0.520016-0.346678-0.866693-0.346678-0.3322311 0-0.6066838 0.115558-0.8378018 0.332232-0.2166732 0.260008-0.3322322 0.548905-0.3322322 0.881138zm0.8811373-3.278987c-0.014447 0.231118 0.043332 0.447791 0.2022277 0.65002 0.144448 0.216672 0.375566 0.361121 0.693354 0.462235 0.303341 0.08667 0.592241 0.05778 0.895582-0.101108 0.303343-0.158894 0.491127-0.404457 0.592241-0.736689l0.404456-1.300039c0.101108-0.346676 0.07222-0.664466-0.101108-0.938917-0.173339-0.274452-0.433346-0.462236-0.780023-0.56335-0.317789-0.101108-0.621129-0.07222-0.910028 0.101108-0.288898 0.158894-0.491125 0.404457-0.592238 0.722243l-0.3466804 1.32893c0 0.02889-0.014437 0.08667-0.028894 0.173337-0.014437 0.07222-0.028894 0.14445-0.028894 0.20223zm1.6900487 11.974802c0 0.260008 0.07223 0.491127 0.216675 0.722244 0.144447 0.23112 0.375567 0.390013 0.693353 0.476682 0.115559 0.02889 0.245563 0.04333 0.361122 0.04333 0.621129 0 0.996697-0.288897 1.141145-0.881138l0.20223-0.852247c0.08667-0.375567 0.04333-0.693354-0.115561-0.982252-0.173338-0.288898-0.4189-0.462236-0.751133-0.534461-0.303343-0.101108-0.606685-0.07222-0.910026 0.101108-0.303343 0.173339-0.491127 0.418903-0.592241 0.73669l-0.202228 0.852246c-0.02889 0.130005-0.04333 0.23112-0.04333 0.317788zm1.112258-4.189013c0 0.317787 0.115558 0.592239 0.361121 0.837803 0.231117 0.231117 0.505571 0.346676 0.823358 0.346676 0.346676 0 0.621129-0.115559 0.852247-0.332232 0.231118-0.231118 0.332233-0.50557 0.332233-0.852247 0-0.332233-0.115561-0.606686-0.332233-0.837804-0.231118-0.231117-0.505571-0.332232-0.852247-0.332232-0.346677 0-0.62113 0.115559-0.852249 0.332232-0.231117 0.216674-0.33223 0.505571-0.33223 0.837804zm0.910025-3.278987c-0.01444 0.216672 0.04333 0.447791 0.187784 0.678907 0.14445 0.23112 0.361122 0.375567 0.65002 0.433348 0.332232 0.08667 0.635574 0.05778 0.924471-0.08667 0.288898-0.14445 0.476681-0.418902 0.592241-0.808914l0.390011-1.30004c0.101108-0.317786 0.07222-0.621129-0.101108-0.910025-0.173338-0.288898-0.418901-0.476684-0.765578-0.577797-0.317786-0.101108-0.62113-0.05778-0.924472 0.11556-0.303343 0.173339-0.491126 0.433347-0.592241 0.765577l-0.332232 1.300041c-0.01444 0.115558-0.02889 0.245562-0.02889 0.390011zm3.986786 3.105648c0 0.231117 0.07222 0.462236 0.216674 0.693352 0.144448 0.23112 0.375568 0.390013 0.664464 0.476684 0.04333 0 0.115559 0.01444 0.202228 0.02889 0.08667 0.01444 0.14445 0.02889 0.202229 0.02889 0.59224 0 0.953361-0.317787 1.09781-0.953363l0.202229-0.866692c0.101108-0.303342 0.07222-0.606685-0.101108-0.910027-0.158894-0.303343-0.404456-0.491126-0.736688-0.59224-0.361123-0.08667-0.693355-0.05778-0.982253 0.115559-0.288896 0.173338-0.491125 0.418902-0.592239 0.765579l-0.130004 0.852247c0 0.02889-0.01444 0.101108-0.02889 0.173339-0.01444 0.07222-0.01444 0.130004-0.01444 0.187783zm1.068922-4.275685c0 0.317789 0.115558 0.606685 0.361122 0.823359 0.216673 0.231118 0.491126 0.346678 0.823358 0.346678 0.346677 0 0.62113-0.11556 0.852247-0.332233 0.231119-0.216674 0.332233-0.50557 0.332233-0.837804 0-0.346676-0.115558-0.62113-0.332233-0.852246-0.216673-0.231118-0.50557-0.332232-0.852247-0.332232s-0.62113 0.115558-0.852248 0.332232c-0.216674 0.231116-0.332232 0.50557-0.332232 0.852246zm0.881137-3.336765c0 0.245562 0.07222 0.47668 0.231119 0.693352 0.158894 0.216676 0.390011 0.375569 0.707798 0.462238 0.02889 0 0.08667 0.01444 0.17334 0.02889s0.158894 0.02889 0.202227 0.02889c0.144449 0 0.317789-0.04333 0.520015-0.130003 0.303343-0.158893 0.505572-0.418901 0.592241-0.751134l0.346677-1.300038c0.08667-0.332233 0.05778-0.635574-0.115559-0.910028-0.158894-0.288897-0.404456-0.476679-0.736689-0.577793-0.332232-0.101108-0.635574-0.07222-0.924473 0.08667-0.274452 0.158894-0.47668 0.390011-0.56335 0.736689l-0.404455 1.314484c0 0.02889-0.01444 0.08667-0.02889 0.173337v0.14445z"/>
</svg>
