<svg id="Layer_1" style="enable-background:new 0 0 30 30" version="1.1" viewBox="0 0 30 30" xmlns="http://www.w3.org/2000/svg">
 <path id="path3" d="m0.11994746 13.892218c0-1.658105 0.51458407-3.130387 1.5437521-4.4168461 1.029168-1.2864601 2.344216-2.129806 3.916556-2.487156 0.4431141-1.958278 1.443694-3.559206 3.00174-4.8170781 1.5580464-1.2578719 3.3590904-1.886808 5.3888384-1.886808 1.157813 0 2.215569 0.18582198 3.14468 0.57176008 0 0.0142945 0 0.0142945 0.01429 0.0285879 1.200697 0.45740794 2.258452 1.2006959 3.158975 2.21557h0.04289c0.971991 1.0434619 1.615221 2.2870399 1.958278 3.7450279h0.443114c1.543752 0 2.887388 0.4145261 4.045202 1.229284v-0.014294c0.757582 0.5145841 1.400813 1.14352 1.915396 1.9011015 0.514584 0.7575828 0.85764 1.5866348 1.043462 2.4871568 0.05718 0.300173 0.08575 0.543171 0.114352 0.743288v0.08577c0 0.01429 0 0.08576 0.01429 0.242998 0.01429 0.157235 0.01429 0.271587 0.01429 0.343057v0.04289c0 1.257872-0.300173 2.42998-0.914815 3.50203-0.600348 1.072051-1.429401 1.943984-2.487156 2.587214-1.043462 0.64323-2.201276 0.986286-3.459149 1.029168-0.185821 0-0.285879-0.08577-0.285879-0.242998v-1.915396c0-0.185822 0.100064-0.271586 0.285879-0.271586 1.229285-0.05718 2.258453-0.543172 3.116092-1.457988 0.85764-0.914815 1.286461-1.986866 1.286461-3.230444 0-1.272165-0.457408-2.35851-1.386518-3.273327-0.914812-0.9148228-2.01545-1.3722308-3.30191-1.3722308h-2.301334c-0.171528 0-0.257293-0.085763-0.257293-0.242998l-0.114354-0.8433533c-0.142939-1.4294001-0.743287-2.6586841-1.815337-3.702146-0.01429-0.014294-0.01429-0.028588-0.02859-0.042883-0.01429-0.014293-0.02859-0.028588-0.02859-0.042883-0.01429-0.014293-0.02859-0.028587-0.05718-0.028587 0-0.028588-0.01429-0.042883-0.02858-0.042883-1.043464-0.9434033-2.258454-1.4865753-3.659266-1.6009274-0.10006-0.014294-0.257292-0.014294-0.485996-0.014294-1.572339 0-2.930269 0.5288781-4.088084 1.5723399-1.1578124 1.0434634-1.8153365 2.3442174-1.9582764 3.8879695l-0.1143521 0.843346c-0.042882 0.128646-0.157234 0.200116-0.3144679 0.200116l-0.7004061 0.042882c-1.2006959 0.1429399-2.21557 0.6575243-3.0160339 1.5294581-0.800464 0.871933-1.200696 1.915396-1.200696 3.116092v0.05718h0.042883c0.014294 0.686111 0.157234 1.329342 0.4288201 1.92969 0.28588 0.614642 0.6575239 1.129227 1.14352 1.558046 0.300174 0.257292 0.64323 0.485995 1.057756 0.686112v0.01429c0.57176 0.271585 1.1435201 0.42882 1.7295739 0.457407 0.1572341 0 0.2429982 0.08577 0.2429982 0.257293v1.915395c0 0.157235-0.085764 0.242999-0.2429982 0.242999-0.7432883-0.04288-1.4436944-0.185822-2.1155123-0.428819v0.01429c-1.1864027-0.414522-2.2012767-1.100636-3.0160348-2.04404-0.814758-0.943403-1.35793-2.058335-1.586634-3.301912v-0.04289c-0.0142939-0.01429-0.0142939-0.0286-0.0142939-0.05718-0.0857641-0.371636-0.11435209-0.800458-0.11435209-1.257866zm7.8617001 10.248797c0-0.04289 0.014294-0.100065 0.028587-0.185821 0.014294-0.07147 0.028588-0.128645 0.028588-0.171528l0.128646-0.843345c0.1000577-0.343057 0.2858801-0.586055 0.586054-0.757583 0.3001741-0.171528 0.614642-0.200117 0.971992-0.114352 0.3287624 0.100065 0.5574674 0.300174 0.7289944 0.586054 0.157234 0.300174 0.185822 0.600348 0.100065 0.900522l-0.200117 0.85764c-0.142939 0.628936-0.5002902 0.943404-1.0863441 0.943404-0.042883 0-0.1143521-0.01429-0.2001161-0.02858-0.085765-0.0143-0.1429418-0.02859-0.2001179-0.02859-0.3001773-0.085771-0.5145873-0.243005-0.6575273-0.471707-0.1572341-0.214412-0.228704-0.443115-0.228704-0.686114zm1.057756-4.202436c0-0.343055 0.114352-0.614641 0.3287621-0.843345 0.2144098-0.228705 0.5002901-0.328761 0.8433463-0.328761 0.343057 0 0.614642 0.11435 0.843346 0.328761 0.228704 0.21441 0.328763 0.50029 0.328763 0.843345 0 0.328763-0.114353 0.600349-0.328763 0.829053s-0.500289 0.328761-0.843346 0.328761c-0.3287628 0-0.6003484-0.114351-0.8147583-0.343056-0.2287041-0.228703-0.3573501-0.500289-0.3573501-0.814758zm2.3442174 8.562107c0-0.05718 0.01429-0.157234 0.05718-0.328762l0.185821-0.843346c0.100065-0.328762 0.300174-0.571761 0.586054-0.728994 0.300175-0.171528 0.600348-0.200116 0.900522-0.100065 0.328762 0.05718 0.586054 0.242999 0.757582 0.528879 0.171528 0.285879 0.21441 0.614641 0.114351 0.971992l-0.185821 0.843346c-0.14294 0.586054-0.528877 0.871934-1.14352 0.871934-0.100065 0-0.228705-0.01429-0.343055-0.04289-0.314469-0.08575-0.543173-0.242997-0.700407-0.471702-0.14294-0.228703-0.228703-0.457407-0.228703-0.700405zm1.129226-4.159555c0-0.328761 0.114351-0.614641 0.32876-0.829051 0.228705-0.228704 0.500291-0.328762 0.843347-0.328762s0.614641 0.114352 0.843345 0.328762c0.228705 0.228703 0.328763 0.50029 0.328763 0.829051 0 0.343056-0.114352 0.614643-0.328763 0.843347-0.228704 0.228704-0.500289 0.328762-0.843345 0.328762-0.328763 0-0.600347-0.114353-0.829051-0.343056-0.228705-0.228704-0.343056-0.50029-0.343056-0.829053zm0.886227-3.244738c0-0.142939 0.01429-0.271585 0.04289-0.385936l0.328761-1.286461c0.100065-0.328762 0.300176-0.586054 0.586055-0.757582 0.300173-0.171528 0.600349-0.21441 0.914817-0.114353 0.343056 0.100065 0.586053 0.285881 0.757581 0.571761 0.171528 0.285879 0.200116 0.586055 0.100054 0.900522l-0.371643 1.28646c-0.114352 0.400232-0.314468 0.657524-0.586054 0.800463-0.271586 0.142941-0.586055 0.171529-0.914815 0.08576-0.285881-0.05718-0.500291-0.200116-0.643231-0.42882-0.171528-0.228704-0.228703-0.457407-0.21441-0.671818zm3.945144 3.058917c0-0.04289 0-0.114352 0.01429-0.185822s0.01429-0.128646 0.01429-0.157234l0.128645-0.843346c0.100065-0.343056 0.28588-0.586055 0.586054-0.757582 0.300175-0.171529 0.614642-0.200116 0.971993-0.114352 0.328761 0.100065 0.57176 0.300174 0.728993 0.586054 0.171528 0.300173 0.200116 0.600348 0.100065 0.900521l-0.200116 0.857641c-0.142941 0.628936-0.500291 0.943404-1.086345 0.943404-0.04289 0-0.114352-0.01429-0.200115-0.0286-0.08577-0.01429-0.157234-0.02858-0.200116-0.02858-0.28588-0.08577-0.500291-0.242999-0.64323-0.471702-0.128647-0.228704-0.21441-0.457409-0.21441-0.700406zm1.057756-4.202436c0-0.343056 0.114352-0.614643 0.328762-0.843346 0.228704-0.228705 0.500289-0.328762 0.843346-0.328762 0.343056 0 0.614641 0.114353 0.843346 0.328762 0.228703 0.228703 0.328762 0.50029 0.328762 0.843346 0 0.328761-0.114352 0.614641-0.328762 0.829052-0.21441 0.21441-0.485996 0.328761-0.829053 0.328761-0.343056 0-0.614641-0.114351-0.829052-0.343055-0.228703-0.21441-0.357349-0.485997-0.357349-0.814758z"/>
</svg>
