<svg id="Layer_1" style="enable-background:new 0 0 30 30" version="1.1" viewBox="0 0 30 30" xmlns="http://www.w3.org/2000/svg">
 <path id="path3" d="m0.02664425 21.010387c0-0.328796 0.10521463-0.604985 0.32879566-0.828567 0.22358113-0.210428 0.48661768-0.315643 0.78910969-0.315643h7.128291c0.9732354 0 1.8018014 0.341948 2.4856964 1.038995s1.025842 1.525612 1.025842 2.498847-0.341947 1.814952-1.025842 2.498847-1.512461 1.025843-2.4856964 1.025843c-0.9732352 0-1.8149523-0.341948-2.4988474-1.038995-0.2104293-0.210428-0.3024921-0.473466-0.3024921-0.789109 0-0.315645 0.1052148-0.591833 0.3024921-0.78911 0.1972775-0.210429 0.4603141-0.315644 0.7891098-0.315644 0.302492 0 0.5655285 0.105215 0.8022615 0.315644 0.2630366 0.249886 0.5655286 0.381404 0.9074761 0.381404 0.3419476 0 0.6444397-0.131518 0.8943244-0.381404 0.2498848-0.249884 0.3814031-0.552376 0.3814031-0.920629 0-0.341946-0.1315183-0.644439-0.3814031-0.894324-0.2498847-0.249884-0.5523768-0.381402-0.8943244-0.381402h-7.128291c-0.30249201 0-0.56552856-0.105215-0.78910969-0.328796-0.22358103-0.223581-0.32879566-0.460314-0.32879566-0.775957zm0-3.998156c0-0.315645 0.10521463-0.591833 0.32879566-0.815414 0.22358113-0.21043 0.48661768-0.315644 0.78910969-0.315644h13.875179c0.341948 0 0.64444-0.131518 0.894324-0.381403 0.249885-0.249885 0.381404-0.565528 0.381404-0.907477 0-0.341947-0.131519-0.657591-0.381404-0.907475-0.249884-0.249885-0.552376-0.381403-0.894324-0.381403-0.368252 0-0.657592 0.118366-0.894324 0.36825-0.236734 0.197279-0.512921 0.302492-0.841717 0.302492-0.315644 0-0.578681-0.105213-0.78911-0.302492-0.197277-0.197277-0.302492-0.460314-0.302492-0.789109 0-0.328796 0.09206-0.591831 0.302492-0.802262 0.670743-0.670743 1.51246-0.999538 2.525151-0.999538 0.973236 0 1.814952 0.341948 2.498848 1.025841 0.683895 0.683896 1.025842 1.512461 1.025842 2.472545 0 0.960083-0.341947 1.801801-1.025842 2.485696-0.683896 0.683894-1.51246 1.025842-2.498848 1.025842h-13.875179c-0.3156438 0-0.57868035-0.105214-0.78910969-0.315643-0.22358103-0.197277-0.32879566-0.460315-0.32879566-0.762806zm2.8276432-3.103833c0 0.105216 0.065758 0.157823 0.2104292 0.157823h1.8938632c0.1052147 0 0.1972775-0.06576 0.2893403-0.197277 0.2893403-0.7102 0.762806-1.302032 1.380942-1.775498 0.6312878-0.473466 1.3283347-0.736502 2.0911407-0.789109l0.697047-0.105214c0.1709737 0 0.2630365-0.0789 0.2630365-0.223582l0.092064-0.683895c0.1446688-1.4203979 0.7365007-2.6172144 1.8017997-3.5772978 1.065298-0.9600834 2.314721-1.4467012 3.761422-1.4467012 1.459854 0 2.722429 0.4734658 3.787727 1.4335493 1.065299 0.9600835 1.670283 2.1568999 1.828105 3.5904497l0.09206 0.775958c0 0.14467 0.0789 0.22358 0.223582 0.22358h2.130596c1.196816 0 2.209507 0.42086 3.064376 1.262576 0.854869 0.841717 1.275727 1.841257 1.275727 3.024921 0 1.170512-0.420858 2.183204-1.275727 3.02492-0.854869 0.841718-1.86756 1.262576-3.064376 1.262576h-9.087913c-0.157822 0-0.249886 0.0789-0.249886 0.223582v1.828104c0 0.14467 0.07891 0.22358 0.249886 0.22358h9.087913c1.196816 0 2.288418-0.28934 3.301109-0.881172 1.01269-0.57868 1.8018-1.380942 2.393633-2.380481 0.591832-1.012691 0.881172-2.104293 0.881172-3.287957 0-1.196816-0.28934-2.288418-0.881172-3.287957-0.591835-0.999539-1.380945-1.801801-2.393635-2.3804815-1.012692-0.5786807-2.104293-0.8811727-3.30111-0.8811727h-0.407706c-0.407703-1.7491932-1.328331-3.1827425-2.76188-4.300648-1.420397-1.1179054-3.064376-1.6702823-4.905632-1.6702823-1.854408 0-3.498386 0.5786807-4.931936 1.7360415-1.4335492 1.1573609-2.3410253 2.6303657-2.7224285 4.4321662-1.1310572 0.2630365-2.1305961 0.8022618-2.9986168 1.6176748-0.8680207 0.815414-1.4730048 1.78865-1.8149523 2.906555v0.05261 0.09206z"/>
</svg>
