<svg id="Layer_1" style="enable-background:new 0 0 30 30" version="1.1" viewBox="0 0 30 30" xmlns="http://www.w3.org/2000/svg">
 <path id="path3" d="m1.0791368 12.490867c0-1.511914 0.4825256-2.8469016 1.4475767-4.0210466 0.9650512-1.1741457 2.2035337-1.9461867 3.7154471-2.3000387 0.3699364-1.7853448 1.2706509-3.2650899 2.7343117-4.4231514 1.4636617-1.1580614 3.1364147-1.737092 5.0182657-1.737092 1.801428 0 3.425932 0.56294647 4.825256 1.6727554 1.415408 1.1098089 2.332207 2.5573856 2.76648 4.3427303h0.450357c1.222398 0 2.348291 0.2573471 3.409848 0.7881251 1.061555 0.5307783 1.897933 1.2384824 2.525217 2.1552811 0.627283 0.9167988 0.948967 1.8979329 0.948967 2.9594899 0 1.801429-0.69162 3.345511-2.074861 4.600078 0 0.562946-0.176926 1.206314-0.514694 1.930103-0.353851 0.723787-0.804209 1.383239-1.399323 1.978354-0.579032 0.595114-1.174147 0.948966-1.769261 1.093724-0.19301 0.997219-0.659451 1.833598-1.38324 2.525218-0.723788 0.69162-1.592334 1.141977-2.621723 1.367155 0.482526 0.482526 0.723789 1.045472 0.723789 1.704925 0 0.788125-0.273432 1.46366-0.836377 2.026607-0.562948 0.562946-1.238483 0.836378-2.042693 0.836378-0.788125 0-1.46366-0.273432-2.026607-0.836378-0.562946-0.562947-0.852461-1.238482-0.852461-2.026607 0-0.09651 0.01608-0.225179 0.06434-0.418189 0.04826-0.193011 0.06434-0.337769 0.06434-0.434274h-0.128673c-0.948966 0-1.753176-0.337767-2.428712-1.013304-0.675536-0.675535-1.013305-1.495829-1.013305-2.428712 0-0.369936 0.193012-0.932882 0.595116-1.704923-0.788132-0.418189-1.4154141-1.077641-1.8818559-2.026607h-2.0105233c-1.7531772-0.144758-3.2490066-0.852463-4.4714047-2.090945-1.2223983-1.254567-1.8335973-2.766479-1.8335973-4.519656z"/>
</svg>
