<svg id="Layer_1" style="enable-background:new 0 0 30 30" version="1.1" viewBox="0 0 30 30" xmlns="http://www.w3.org/2000/svg">
 <path id="path3" d="m4.2242234 12.116533c0-0.703945 0.3519727-1.597414 1.028843-2.734557 0.6768703-1.1371422 1.3537407-2.0847609 1.9764615-2.8157808 0.162449-0.1895237 0.3790474-0.4602719 0.6227207-0.7580949 0.2436734-0.297823 0.4061224-0.460272 0.4331971-0.4873467l1.0017684 1.164217c0.7580939 0.8393193 1.4349649 1.7869379 2.0576859 2.8970054 0.622721 1.110068 0.947619 2.003536 0.947619 2.734557 0 1.110067-0.379047 2.08476-1.164217 2.86993-0.758095 0.78517-1.705714 1.191292-2.8428563 1.191292-1.1100673 0-2.0847607-0.406122-2.8699304-1.191292-0.7851696-0.812244-1.1912919-1.759863-1.1912919-2.86993zm8.4473436 11.236048c0-0.785169 0.216597-1.678639 0.649794-2.734556 0.433198-1.028843 0.974695-2.003537 1.62449-2.869931 1.245442-1.651565 2.409658-3.032379 3.5468-4.142447 0.108308-0.08122 0.351973-0.297823 0.703945-0.649795l0.67687 0.649795c1.05592 1.001769 2.247211 2.382584 3.573877 4.115373 0.703945 0.920543 1.24544 1.895236 1.678639 2.92408 0.433196 1.028842 0.649795 1.922312 0.649795 2.707481 0 1.868163-0.622721 3.411428-1.895236 4.683943-1.272517 1.272517-2.842858 1.895237-4.683945 1.895237s-3.384351-0.649794-4.656869-1.922313c-1.272515-1.272515-1.86816-2.842855-1.86816-4.656867zm4.115372-18.681623c0-1.164217 0.893468-2.7074816 2.70748-4.6027185l0.67687 0.75809471c0.514423 0.59564603 0.974694 1.2454416 1.380816 2.0035365 0.406122 0.73102 0.622721 1.3537406 0.622721 1.8410873 0 0.7580949-0.270748 1.3537409-0.785169 1.8681623-0.514421 0.4873466-1.137144 0.7580948-1.895238 0.7580948-0.785168 0-1.434965-0.2436733-1.949387-0.7580948-0.487346-0.5144214-0.758093-1.1371423-0.758093-1.8681623z"/>
</svg>
