<svg xmlns="http://www.w3.org/2000/svg" xmlns:xlink="http://www.w3.org/1999/xlink" height="96" width="96" version="1.0"><defs><linearGradient id="b"><stop offset="0" stop-color="#d4530d"/><stop offset="1" stop-color="#f7ad25"/></linearGradient><linearGradient gradientTransform="scale(1.00587 .99417)" gradientUnits="userSpaceOnUse" id="d" y2="7.017" x2="45.448" y1="92.54" x1="45.448"><stop offset="0"/><stop offset="1" stop-opacity=".588"/></linearGradient><linearGradient id="a"><stop offset="0" stop-color="#fff"/><stop offset="1" stop-color="#fff" stop-opacity="0"/></linearGradient><filter id="e" color-interpolation-filters="sRGB"><feGaussianBlur stdDeviation="1.71"/></filter><linearGradient gradientUnits="userSpaceOnUse" xlink:href="#a" id="l" y2="63.893" x2="36.357" y1="6" x1="36.357"/><filter id="p" color-interpolation-filters="sRGB" height="1.384" width="1.384" y="-.192" x="-.192"><feGaussianBlur stdDeviation="5.28"/></filter><linearGradient gradientUnits="userSpaceOnUse" xlink:href="#a" id="o" y2="138.661" x2="48" y1="20.221" x1="48"/><radialGradient gradientTransform="matrix(1.15731 0 0 .9959 -7.551 .197)" gradientUnits="userSpaceOnUse" xlink:href="#a" id="m" fy="90.172" fx="48" r="42" cy="90.172" cx="48"/><clipPath id="n"><rect y="6" x="6" ry="6" rx="6" height="84" width="84" fill="#fff"/></clipPath><linearGradient gradientUnits="userSpaceOnUse" xlink:href="#b" id="k" y2="5.988" x2="48" y1="90" x1="48"/><clipPath id="q"><path d="M-78 6c-3.324 0-6 2.676-6 6v72c0 3.324 2.676 6 6 6h72c3.324 0 6-2.676 6-6V12c0-3.324-2.676-6-6-6h-72zm4 10a64 64 0 0 1 64 64h-12.813A51.2 51.2 0 0 0-74 28.812V16zm0 21.563A42.423 42.423 0 0 1-31.562 80H-44a29.989 29.989 0 0 0-30-30V37.562zm8.781 24.874c4.848 0 8.781 3.934 8.781 8.782 0 4.847-3.933 8.781-8.78 8.781C-70.067 80-74 76.066-74 71.219c0-4.848 3.934-8.781 8.781-8.781z" fill="red"/></clipPath><filter id="r" color-interpolation-filters="sRGB" height="1.24" width="1.24" y="-.12" x="-.12"><feGaussianBlur stdDeviation="3.2"/></filter><clipPath id="s"><path d="M-84 16v12.8A51.2 51.2 0 0 1-32.8 80H-20a64 64 0 0 0-64-64zm0 21.577v12.434A29.989 29.989 0 0 1-54.011 80h12.434A42.423 42.423 0 0 0-84 37.577zm8.777 24.869a8.777 8.777 0 1 0 0 17.554 8.777 8.777 0 0 0 0-17.554z" fill="#fff"/></clipPath><filter id="t" color-interpolation-filters="sRGB"><feGaussianBlur stdDeviation=".42"/></filter><linearGradient gradientTransform="matrix(1.00587 0 0 .99417 100 0)" gradientUnits="userSpaceOnUse" id="c" y2="7.017" x2="45.448" y1="92.54" x1="45.448"><stop offset="0"/><stop offset="1" stop-opacity=".588"/></linearGradient><linearGradient gradientTransform="matrix(1.0238 0 0 1.0119 -1.143 -98.071)" gradientUnits="userSpaceOnUse" xlink:href="#c" id="g" y2="90.239" x2="32.251" y1="6.132" x1="32.251"/><linearGradient gradientTransform="matrix(1.0238 0 0 1.0119 -1.143 -98.071)" gradientUnits="userSpaceOnUse" xlink:href="#c" id="h" y2="90.239" x2="32.251" y1="6.132" x1="32.251"/><linearGradient gradientTransform="matrix(1.0238 0 0 1.0119 -1.143 -98.071)" gradientUnits="userSpaceOnUse" xlink:href="#c" id="i" y2="90.239" x2="32.251" y1="6.132" x1="32.251"/><linearGradient gradientTransform="translate(0 -97)" gradientUnits="userSpaceOnUse" xlink:href="#c" id="j" y2="90.239" x2="32.251" y1="6.132" x1="32.251"/><linearGradient gradientTransform="matrix(1.0238 0 0 1.0119 -1.143 -98.071)" gradientUnits="userSpaceOnUse" xlink:href="#c" id="f" y2="90.239" x2="32.251" y1="6.132" x1="32.251"/></defs><g transform="scale(1 -1)"><path d="M12-95.031c-5.511 0-10.031 4.52-10.031 10.031v71C1.969-8.489 6.489-3.969 12-3.969h72c5.511 0 10.031-4.52 10.031-10.031v-71c0-5.511-4.52-10.031-10.031-10.031H12z" opacity=".08" fill="url(#f)"/><path d="M12-94.031c-4.972 0-9.031 4.06-9.031 9.031v71c0 4.972 4.06 9.031 9.031 9.031h72c4.972 0 9.031-4.06 9.031-9.031v-71c0-4.972-4.06-9.031-9.031-9.031H12z" opacity=".1" fill="url(#g)"/><path d="M12-93c-4.41 0-8 3.59-8 8v71c0 4.41 3.59 8 8 8h72c4.41 0 8-3.59 8-8v-71c0-4.41-3.59-8-8-8H12z" opacity=".2" fill="url(#h)"/><rect y="-92" x="5" ry="7" rx="7" height="85" width="86" opacity=".3" fill="url(#i)"/><rect y="-91" x="6" ry="6" rx="6" height="84" width="84" opacity=".45" fill="url(#j)"/></g><rect y="6" x="6" ry="6" rx="6" height="84" width="84" fill="url(#k)"/><path d="M12 6c-3.324 0-6 2.676-6 6v72c0 .335.041.65.094.969.048.295.097.597.187.875l.032.094c.098.287.234.547.375.812.144.274.315.536.5.781a6.105 6.105 0 0 0 2.094 1.781c.278.14.573.247.874.344a4.843 4.843 0 0 1-.719-.375c-.007-.004-.023.005-.03 0-.033-.02-.063-.042-.095-.062-.12-.077-.23-.164-.343-.25-.106-.081-.214-.161-.313-.25a5.042 5.042 0 0 1-.5-.531 5.092 5.092 0 0 1-.312-.407c-.025-.038-.039-.086-.063-.125-.065-.103-.13-.204-.187-.312a5.371 5.371 0 0 1-.282-.625c-.007-.022-.023-.04-.03-.063-.033-.092-.037-.187-.063-.281-.03-.107-.07-.203-.094-.313A5.098 5.098 0 0 1 7 85V13c0-2.782 2.218-5 5-5h72c2.782 0 5 2.218 5 5v72c0 .364-.052.721-.125 1.063a4.896 4.896 0 0 1-.156.593c-.008.022-.024.04-.031.063a5.482 5.482 0 0 1-.22.531c-.04.083-.078.17-.124.25-.055.097-.127.188-.188.281a5.092 5.092 0 0 1-.312.406 5.05 5.05 0 0 1-.469.5l-.031.032a4.818 4.818 0 0 1-.438.344c-.102.073-.204.153-.312.218-.008.005-.024-.004-.031 0a4.843 4.843 0 0 1-.72.375c.302-.097.597-.204.876-.344a6.105 6.105 0 0 0 2.094-1.78c.184-.246.355-.508.5-.782a5.69 5.69 0 0 0 .374-.813l.032-.093c.09-.278.139-.58.187-.875.053-.318.094-.634.094-.969V12c0-3.324-2.676-6-6-6H12z" opacity=".5" fill="url(#l)"/><path d="M12 90c-3.324 0-6-2.676-6-6V12c0-.335.041-.65.094-.969.048-.295.097-.597.187-.875l.032-.094a5.69 5.69 0 0 1 .375-.812c.144-.274.315-.536.5-.781a6.105 6.105 0 0 1 2.094-1.781c.278-.14.573-.247.874-.344-.256.1-.486.236-.719.375-.007.004-.023-.005-.03 0-.033.019-.063.042-.095.062-.12.077-.23.164-.343.25-.106.081-.214.161-.313.25a5.042 5.042 0 0 0-.5.532c-.107.13-.218.265-.312.406-.025.038-.039.086-.063.125-.065.103-.13.204-.187.312a5.371 5.371 0 0 0-.282.625c-.007.022-.023.04-.03.063-.033.092-.037.187-.063.281-.03.107-.07.203-.094.313A5.098 5.098 0 0 0 7 11v72c0 2.782 2.218 5 5 5h72c2.782 0 5-2.218 5-5V11c0-.364-.052-.721-.125-1.063a4.896 4.896 0 0 0-.156-.593c-.008-.022-.024-.04-.031-.063a5.482 5.482 0 0 0-.22-.531c-.04-.083-.078-.17-.124-.25-.055-.097-.127-.188-.188-.281a5.092 5.092 0 0 0-.312-.406 5.05 5.05 0 0 0-.469-.5l-.031-.032a4.818 4.818 0 0 0-.438-.343c-.102-.074-.204-.154-.312-.22-.008-.004-.024.005-.031 0a4.843 4.843 0 0 0-.72-.374c.302.097.597.204.876.343a6.105 6.105 0 0 1 2.094 1.782c.184.245.355.507.5.781.14.265.276.525.374.813l.032.093c.09.278.139.58.187.875.053.318.094.634.094.969v72c0 3.324-2.676 6-6 6H12z" opacity=".2" fill="url(#m)"/><g><rect clip-path="url(#n)" y="15" x="15" ry="12" rx="12" height="66" width="66" opacity=".1" fill="url(#o)" stroke="#fff" stroke-width=".5" stroke-linecap="round" filter="url(#p)"/></g><g><path clip-path="url(#q)" transform="translate(90)" d="M-74 16v12.8A51.2 51.2 0 0 1-22.8 80H-10a64 64 0 0 0-64-64zm0 21.577v12.434A29.989 29.989 0 0 1-44.011 80h12.434A42.423 42.423 0 0 0-74 37.577zm8.777 24.869a8.777 8.777 0 1 0 0 17.554 8.777 8.777 0 0 0 0-17.554z" opacity=".4" fill="#fff" filter="url(#r)"/><path d="M16 16v12.8A51.2 51.2 0 0 1 67.2 80H80a64 64 0 0 0-64-64zm0 21.577v12.434A29.989 29.989 0 0 1 45.989 80h12.434A42.423 42.423 0 0 0 16 37.577zm8.777 24.869a8.777 8.777 0 1 0 0 17.554 8.777 8.777 0 0 0 0-17.554z" fill="#fff"/><path clip-path="url(#s)" transform="translate(100)" d="M-88 6c-3.324 0-6 2.676-6 6v72c0 3.324 2.676 6 6 6h72c3.324 0 6-2.676 6-6V12c0-3.324-2.676-6-6-6h-72zm4 11a64 64 0 0 1 64 64h-12.813A51.2 51.2 0 0 0-84 29.812V17zm0 21.563A42.423 42.423 0 0 1-41.562 81H-54a29.989 29.989 0 0 0-30-30V38.562zm8.781 24.874c4.848 0 8.781 3.934 8.781 8.782 0 4.847-3.933 8.781-8.78 8.781C-80.067 81-84 77.066-84 72.219c0-4.848 3.934-8.781 8.781-8.781z" opacity=".8" filter="url(#t)"/></g></svg>