<?xml version="1.0" encoding="UTF-8" standalone="no"?>
<!-- Created with Inkscape (http://www.inkscape.org/) -->

<svg
   xmlns:dc="http://purl.org/dc/elements/1.1/"
   xmlns:cc="http://creativecommons.org/ns#"
   xmlns:rdf="http://www.w3.org/1999/02/22-rdf-syntax-ns#"
   xmlns:svg="http://www.w3.org/2000/svg"
   xmlns="http://www.w3.org/2000/svg"
   xmlns:xlink="http://www.w3.org/1999/xlink"
   xmlns:sodipodi="http://sodipodi.sourceforge.net/DTD/sodipodi-0.dtd"
   xmlns:inkscape="http://www.inkscape.org/namespaces/inkscape"
   width="16"
   height="16"
   id="svg3806"
   version="1.1"
   inkscape:version="0.91 r13725"
   sodipodi:docname="radio-unselected.svg">
  <defs
     id="defs3808">
    <linearGradient
       id="linearGradient4391">
      <stop
         style="stop-color:#000000;stop-opacity:0.08;"
         offset="0"
         id="stop4393" />
      <stop
         style="stop-color:#000000;stop-opacity:0;"
         offset="1"
         id="stop4395" />
    </linearGradient>
    <linearGradient
       id="linearGradient4342">
      <stop
         style="stop-color:#ffffff;stop-opacity:0;"
         offset="0"
         id="stop4344" />
      <stop
         style="stop-color:#ffffff;stop-opacity:0.5;"
         offset="1"
         id="stop4346" />
    </linearGradient>
    <linearGradient
       id="linearGradient4332">
      <stop
         style="stop-color:#000000;stop-opacity:0.06;"
         offset="0"
         id="stop4334" />
      <stop
         style="stop-color:#000000;stop-opacity:0.02;"
         offset="1"
         id="stop4336" />
    </linearGradient>
    <linearGradient
       inkscape:collect="always"
       xlink:href="#linearGradient4332"
       id="linearGradient4338"
       x1="9"
       y1="2.5454545"
       x2="9"
       y2="13.454545"
       gradientUnits="userSpaceOnUse" />
    <linearGradient
       inkscape:collect="always"
       xlink:href="#linearGradient4342"
       id="linearGradient4348"
       x1="8"
       y1="0.46156871"
       x2="8"
       y2="14.461554"
       gradientUnits="userSpaceOnUse" />
    <linearGradient
       inkscape:collect="always"
       xlink:href="#linearGradient4391"
       id="linearGradient4397"
       x1="8"
       y1="1.0000643"
       x2="8"
       y2="4.5000558"
       gradientUnits="userSpaceOnUse" />
  </defs>
  <sodipodi:namedview
     id="base"
     pagecolor="#d6d6d6"
     bordercolor="#666666"
     borderopacity="1.0"
     inkscape:pageopacity="1"
     inkscape:pageshadow="2"
     inkscape:zoom="22.4"
     inkscape:cx="7.283865"
     inkscape:cy="8.8335105"
     inkscape:document-units="px"
     inkscape:current-layer="layer1"
     showgrid="true"
     inkscape:snap-bbox="false"
     inkscape:window-width="1022"
     inkscape:window-height="688"
     inkscape:window-x="0"
     inkscape:window-y="28"
     inkscape:window-maximized="0">
    <inkscape:grid
       type="xygrid"
       id="grid4322"
       empspacing="5"
       visible="true"
       enabled="true"
       snapvisiblegridlinesonly="true" />
  </sodipodi:namedview>
  <metadata
     id="metadata3811">
    <rdf:RDF>
      <cc:Work
         rdf:about="">
        <dc:format>image/svg+xml</dc:format>
        <dc:type
           rdf:resource="http://purl.org/dc/dcmitype/StillImage" />
        <dc:title />
      </cc:Work>
    </rdf:RDF>
  </metadata>
  <g
     inkscape:label="Layer 1"
     inkscape:groupmode="layer"
     id="layer1"
     transform="translate(0,-1036.3622)">
    <path
       transform="matrix(0.92857142,0,0,0.92857245,0.57142866,1037.9336)"
       d="M 15,8 A 7,7 0 0 1 8,15 7,7 0 0 1 1,8 7,7 0 0 1 8,1 7,7 0 0 1 15,8 Z"
       sodipodi:ry="7"
       sodipodi:rx="7"
       sodipodi:cy="8"
       sodipodi:cx="8"
       id="path4340"
       style="fill:none;fill-opacity:1;stroke:url(#linearGradient4348);stroke-width:1.07692265999999992;stroke-opacity:1"
       sodipodi:type="arc" />
    <path
       sodipodi:type="arc"
       style="fill:#f5f5f5;fill-opacity:1;stroke:#999999;stroke-width:1.07692265999999992;stroke-opacity:1"
       id="path4328"
       sodipodi:cx="8"
       sodipodi:cy="8"
       sodipodi:rx="7"
       sodipodi:ry="7"
       d="M 15,8 A 7,7 0 0 1 8,15 7,7 0 0 1 1,8 7,7 0 0 1 8,1 7,7 0 0 1 15,8 Z"
       transform="matrix(0.92857142,0,0,0.92857245,0.57142862,1036.9336)" />
    <path
       sodipodi:type="arc"
       style="fill:none;fill-opacity:1;stroke:url(#linearGradient4338);stroke-width:0.90909094000000001;stroke-miterlimit:4;stroke-opacity:1;stroke-dasharray:none"
       id="path4330"
       sodipodi:cx="9"
       sodipodi:cy="8"
       sodipodi:rx="5"
       sodipodi:ry="5"
       d="M 14,8 A 5,5 0 0 1 9,13 5,5 0 0 1 4,8 5,5 0 0 1 9,3 5,5 0 0 1 14,8 Z"
       transform="matrix(1.1,0,0,1.1,-1.9,1035.5622)" />
    <path
       sodipodi:type="arc"
       style="fill:url(#linearGradient4397);fill-opacity:1;stroke:none"
       id="path4389"
       sodipodi:cx="8"
       sodipodi:cy="8"
       sodipodi:rx="7"
       sodipodi:ry="7"
       d="M 15,8 A 7,7 0 0 1 8,15 7,7 0 0 1 1,8 7,7 0 0 1 8,1 7,7 0 0 1 15,8 Z"
       transform="matrix(0.85714286,0,0,0.8571449,1.1428571,1037.505)" />
  </g>
</svg>
