<?xml version="1.0" encoding="UTF-8" standalone="no"?>
<!-- Created with Inkscape (http://www.inkscape.org/) -->

<svg
   xmlns:dc="http://purl.org/dc/elements/1.1/"
   xmlns:cc="http://creativecommons.org/ns#"
   xmlns:rdf="http://www.w3.org/1999/02/22-rdf-syntax-ns#"
   xmlns:svg="http://www.w3.org/2000/svg"
   xmlns="http://www.w3.org/2000/svg"
   xmlns:sodipodi="http://sodipodi.sourceforge.net/DTD/sodipodi-0.dtd"
   xmlns:inkscape="http://www.inkscape.org/namespaces/inkscape"
   width="226"
   height="150"
   viewBox="0 0 226 150"
   id="svg4171"
   version="1.1"
   inkscape:version="0.91 r13725"
   sodipodi:docname="drawing.svg">
  <defs
     id="defs4173" />
  <sodipodi:namedview
     id="base"
     pagecolor="#ffffff"
     bordercolor="#666666"
     borderopacity="1.0"
     inkscape:pageopacity="0.0"
     inkscape:pageshadow="2"
     inkscape:zoom="1.979899"
     inkscape:cx="105.28629"
     inkscape:cy="73.277856"
     inkscape:document-units="px"
     inkscape:current-layer="layer1"
     showgrid="false"
     units="px"
     inkscape:window-width="1024"
     inkscape:window-height="688"
     inkscape:window-x="0"
     inkscape:window-y="28"
     inkscape:window-maximized="1" />
  <metadata
     id="metadata4176">
    <rdf:RDF>
      <cc:Work
         rdf:about="">
        <dc:format>image/svg+xml</dc:format>
        <dc:type
           rdf:resource="http://purl.org/dc/dcmitype/StillImage" />
        <dc:title></dc:title>
      </cc:Work>
    </rdf:RDF>
  </metadata>
  <g
     inkscape:label="Layer 1"
     inkscape:groupmode="layer"
     id="layer1"
     transform="translate(0,-902.36216)">
    <g
       id="g4737"
       transform="matrix(0.79815849,0,0,0.79815849,22.80809,197.24866)">
      <path
         id="path5"
         d="m 97.531628,1012.034 30.932452,0 c 3.78451,0 6.84236,-3.0621 6.84236,-6.8424 l 0,-48.0001 -44.612879,0 0,48.0001 c 0,3.7803 3.06355,6.8424 6.838067,6.8424 z m 26.158592,-46.149 c 0,-1.28096 1.03432,-2.32528 2.32098,-2.32528 1.28096,0 2.321,1.04449 2.321,2.32528 l 0,37.1743 c 0,1.2867 -1.04004,2.3267 -2.321,2.3267 -1.28666,0 -2.32098,-1.04 -2.32098,-2.3267 l 0,-37.1743 z m -12.9393,0 c 0,-1.28096 1.03575,-2.32528 2.32099,-2.32528 1.28096,0 2.321,1.04449 2.321,2.32528 l 0,37.1743 c 0,1.2867 -1.04004,2.3267 -2.321,2.3267 -1.28524,0 -2.32099,-1.04 -2.32099,-2.3267 0,0 0,-37.1743 0,-37.1743 z m -12.931978,0 c 0,-1.28096 1.034329,-2.32528 2.315108,-2.32528 1.28078,0 2.3267,1.04449 2.3267,2.32528 l 0,37.1743 c 0,1.2867 -1.04592,2.3267 -2.3267,2.3267 -1.280957,0 -2.315108,-1.04 -2.315108,-2.3267 l 0,-37.1743 z"
         style="fill:#010002"
         inkscape:connector-curvature="0" />
      <path
         id="path7"
         d="m 130.90162,946.39904 -9.41872,0 c -0.22629,-2.04957 -1.9466,-3.6496 -4.05148,-3.6496 l -8.86605,0 c -2.11648,0 -3.83251,1.60003 -4.05736,3.6496 l -9.412655,0 c -4.615759,0 -8.343879,3.73954 -8.369934,8.34388 l 52.549159,0 c -0.0175,-4.60416 -3.75132,-8.34388 -8.37296,-8.34388 z"
         style="fill:#010002"
         inkscape:connector-curvature="0" />
    </g>
  </g>
</svg>
