<svg viewBox="0 0 512 512" xmlns="http://www.w3.org/2000/svg">
 <path d="M72.837 213.333H320c11.782 0 21.333-9.551 21.333-21.333 0-11.782-9.551-21.333-21.333-21.333H72.837l48.915-48.915c8.331-8.331 8.331-21.839 0-30.17-8.331-8.331-21.839-8.331-30.17 0L6.248 176.915c-.497.497-.967 1.02-1.413 1.564-.202.246-.378.506-.567.759-.228.304-.463.601-.675.918-.203.303-.379.618-.565.929-.171.286-.351.566-.509.861-.17.317-.314.644-.466.968-.145.307-.298.609-.429.924-.13.315-.236.637-.35.957-.121.337-.25.669-.354 1.013-.097.32-.168.645-.249.969-.089.351-.187.698-.258 1.056-.074.375-.118.753-.172 1.13-.044.311-.104.618-.135.933a21.468 21.468 0 0 0 0 4.211c.031.315.09.621.135.933.054.377.098.756.173 1.13.071.358.169.704.258 1.055.081.324.152.649.249.969.104.344.233.677.354 1.013.115.32.22.642.35.957.13.315.284.616.429.923.153.324.297.651.467.969.158.294.337.573.508.859.186.312.362.627.565.931.211.316.446.612.673.916.19.254.366.514.569.761.443.54.91 1.059 1.403 1.552l.01.011 85.333 85.333c8.331 8.331 21.839 8.331 30.17 0 8.331-8.331 8.331-21.839 0-30.17l-48.915-48.916zM507.164 333.522c.204-.248.38-.509.571-.764.226-.302.461-.598.671-.913.204-.304.38-.62.566-.932.17-.285.349-.564.506-.857.17-.318.315-.646.468-.971.145-.306.297-.607.428-.921.13-.315.236-.637.35-.957.121-.337.25-.669.354-1.013.097-.32.168-.646.249-.969.089-.351.187-.698.258-1.055.074-.375.118-.753.173-1.13.044-.311.104-.617.135-.933.138-1.4.138-2.811 0-4.211-.031-.315-.09-.621-.135-.933-.054-.377-.098-.756-.173-1.13-.071-.358-.169-.704-.258-1.055-.081-.324-.152-.649-.249-.969-.104-.344-.233-.677-.354-1.013-.115-.32-.22-.642-.35-.957-.13-.314-.283-.615-.428-.921-.153-.325-.297-.653-.468-.971-.157-.293-.336-.572-.506-.857-.186-.312-.363-.628-.566-.932-.211-.315-.445-.611-.671-.913-.191-.255-.368-.516-.571-.764a21.366 21.366 0 0 0-1.392-1.54l-.021-.023-85.333-85.333c-8.331-8.331-21.839-8.331-30.17 0s-8.331 21.839 0 30.17l48.915 48.915H192c-11.782 0-21.333 9.551-21.333 21.333s9.551 21.333 21.333 21.333h247.163l-48.915 48.915c-8.331 8.331-8.331 21.839 0 30.17s21.839 8.331 30.17 0l85.333-85.333.021-.023a22.07 22.07 0 0 0 1.392-1.543z"/>
</svg>
