<svg data-name="Layer 1" viewBox="0 0 32 32" xmlns="http://www.w3.org/2000/svg">
 <path class="cls-1" d="M31.79 28.11l-7-14a2 2 0 0 0-3.58 0L18 20.56l-2.7-1.83A17.13 17.13 0 0 0 19.91 9H22a2 2 0 0 0 0-4h-8V3a2 2 0 0 0-4 0v2H2a2 2 0 0 0 0 4h13.86a13.09 13.09 0 0 1-3.79 7.28 13.09 13.09 0 0 1-3.19-4.95 2 2 0 1 0-3.77 1.34 17.1 17.1 0 0 0 3.79 6.08l-5.06 3.62a2 2 0 0 0 2.33 3.25l5.93-4.24 4.08 2.79-2 3.93a2 2 0 0 0 3.58 1.79l.45-.89H23a2 2 0 0 0 0-4h-2.76L23 19.47l5.21 10.42a2 2 0 0 0 3.58-1.79z" fill="#ba63c6"/>
</svg>
