<svg viewBox="0 0 512 512" xmlns="http://www.w3.org/2000/svg">
 <path d="M256 2.203C115.803 2.203 2.203 115.803 2.203 256S115.803 509.797 256 509.797 509.797 396.197 509.797 256 396.197 2.203 256 2.203zm-32.79 28.933c-24.67 30.659-43.857 64.87-57.054 101.214a339.22 339.22 0 0 1-76.647-31.064c34.517-37.055 81.215-62.637 133.7-70.15zM78.14 114.585c26.293 14.923 54.007 26.293 82.534 34.008-9.847 31.674-15.33 64.87-16.141 98.778H28.903c1.827-50.049 19.999-96.037 49.236-132.786zM28.902 264.528h115.63c.812 34.008 6.294 67.103 16.141 98.777-28.527 7.817-56.241 19.086-82.535 34.009-29.237-36.648-47.409-82.636-49.236-132.786zm60.606 146.085a346.884 346.884 0 0 1 76.647-31.065c13.299 36.445 32.486 70.556 57.053 101.214-52.485-7.512-99.183-32.993-133.7-70.15zm157.963 72.383c-28.222-31.979-49.947-68.322-64.565-107.509 21.217-4.568 42.84-7.207 64.565-7.715v115.224zm0-132.28c-23.552.508-47.003 3.453-70.149 8.528-9.543-30.354-14.822-62.129-15.634-94.716h85.783v86.189zm0-103.244H161.69c.812-32.587 6.091-64.362 15.634-94.716a355.268 355.268 0 0 0 70.15 8.527v86.19zm0-103.346c-21.623-.507-43.247-3.147-64.565-7.715 14.517-39.186 36.242-75.53 64.565-107.508v115.223zm235.625 103.346H367.366a364.148 364.148 0 0 0-16.142-98.777c28.629-7.817 56.445-19.187 82.738-34.11 29.136 36.75 47.308 82.737 49.135 132.887zm-60.606-146.085c-24.466 13.604-50.354 23.959-76.85 31.065-13.096-35.938-32.08-70.251-56.952-101.316 52.587 7.513 99.285 33.095 133.802 70.251zM264.629 29.004c28.628 32.385 50.049 68.931 64.363 107.509-21.217 4.568-42.74 7.106-64.363 7.715V29.004zm0 132.28a354.172 354.172 0 0 0 69.946-8.528c9.645 30.76 14.924 62.637 15.634 94.615h-85.58v-86.088zm0 103.244h85.58c-.812 31.978-5.99 63.855-15.634 94.615a369.011 369.011 0 0 0-69.946-8.528v-86.087zm0 103.346c21.624.507 43.146 3.045 64.363 7.715-14.314 38.577-35.735 75.124-64.363 107.508V367.874zm24.162 112.99c24.872-31.065 43.856-65.378 56.951-101.316 26.497 7.106 52.283 17.461 76.85 31.065-34.618 37.156-81.316 62.738-133.801 70.25zm145.07-83.449c-26.294-14.923-54.11-26.293-82.738-34.11 9.949-32.08 15.33-65.378 16.141-98.777h115.732c-1.726 50.15-19.898 96.138-49.135 132.887z"/>
</svg>
