<svg id="Layer_1" version="1.1" viewBox="0 0 124.6 119.4" xmlns="http://www.w3.org/2000/svg">
 <style id="style3" type="text/css">.st1{fill:#fff}</style>
 <path id="path7" d="m2.617 60.1032c0-32.8308 26.5524-59.514 59.514-59.514 32.4384 0 58.9908 26.5524 58.9908 59.514 0 32.4384-26.5524 58.9908-58.9908 58.9908-32.9616 0-59.514-26.5524-59.514-58.9908z" style="fill:#3276bc;stroke-width:1.308"/>
 <path id="path9" class="st1" d="m74.0338 52.1244c-3.27 4.1856-5.886 5.886-7.4556 5.3628-0.7848-0.3924-1.1772-1.308-1.1772-2.0928v-0.3924c0-3.27 2.8776-7.848 6.6708-10.3332 0.3924 3.0084 0.7848 5.4936 1.962 7.4556zm6.6708-10.7256c-0.3924 0-0.3924 0.3924-0.3924 0.3924-0.3924 0.7848-1.7004 3.7932-3.7932 6.6708-0.3924-2.0928-0.7848-3.7932-0.7848-5.886 1.7004-0.3924 3.4008-0.7848 4.9704-1.1772zm13.734 0.7848c-2.0928-2.4852-4.1856-3.7932-9.156-4.1856 0-0.3924 0.3924-0.7848 0-1.7004-0.9156-1.1772-2.4852-2.0928-5.886-2.0928h-0.7848c-0.9156 0-1.308 0-1.7004 0.7848v0.3924c0 0.3924 0.7848 0.7848 0.7848 0.7848 1.308 0.9156 2.4852 1.308 2.8776 1.7004-1.7004 0.3924-3.27 0.7848-4.9704 1.7004 0-2.4852 0.3924-4.9704 0.7848-7.848 2.0928 0 3.7932-0.3924 5.886-1.1772 3.27-0.9156 4.9704-2.4852 4.9704-4.1856 0-0.7848-0.3924-1.7004-0.7848-1.7004-1.1772-0.7848-3.27-0.3924-5.3628 1.1772-0.7848 0.9156-2.0928 1.308-3.27 2.0928 0-1.1772 0.3924-2.4852 0.9156-2.8776v-1.1772 0.3924c0-1.308-1.7004-2.4852-6.6708-2.4852h-0.3924c-0.3924 0-1.1772-0.3924-1.1772 0.3924s0.7848 0.7848 1.7004 1.308l0.7848 0.7848c0 1.7004-0.3924 3.27-0.3924 4.578h-5.3628c-0.3924 0-0.7848-0.3924-1.1772-0.7848 0-0.3924-0.3924-0.3924-0.3924-0.3924-1.1772-0.7848-2.3544-0.7848-2.3544-0.7848-0.7848 0.3924-1.1772 0.7848-1.1772 0.7848 0 0.7848 0.3924 1.1772 0.7848 1.7004l0.3924 0.3924c0.7848 1.7004 2.4852 2.4852 2.4852 2.4852h0.3924c2.0928 0.3924 3.7932 0.3924 5.886 0.3924-0.3924 2.0928-0.3924 4.578-0.3924 6.2784v2.4852c-9.156 4.578-10.3332 10.3332-10.3332 13.3416 0 2.8776 1.308 4.9704 2.4852 5.3628 0.3924 0 1.1772 0.7848 2.8776 0.7848 2.0928 0 5.886-1.308 9.5484-4.9704 0 0 0.3924 0 0.3924 0.3924 1.1772 0.9156 2.0928 1.308 3.27 1.308 0.7848 0 1.1772-0.7848 1.1772-0.7848 0-0.3924 0.3924-0.3924 0.3924-0.9156l-0.3924-0.3924c-0.7848-0.7848-1.7004-1.7004-2.4852-2.8776 2.4852-2.8776 4.578-6.6708 6.6708-11.2488 4.578 0 7.4556 2.4852 7.848 7.4556 0 0.3924 0.3924 0.7848 0.3924 0.7848 0 7.0632-11.2488 11.2488-11.2488 11.2488-1.308 0-1.7004 0.3924-1.7004 1.1772s0.9156 1.308 1.7004 1.308h0.3924c0.3924 0 14.1264-4.1856 14.5188-14.5188v-0.3924c0.1308-2.4852-1.0464-4.578-2.7468-6.2784z" style="fill:#ffffff;stroke-width:1.308"/>
 <path id="path11" class="st1" d="m47.8738 87.1788v-9.156c-4.1856-0.7848-7.848-0.7848-9.9408 0.3924-2.4852 0.7848-4.9704 2.4852-4.9704 6.2784 0 3.27 2.0928 5.3628 6.2784 5.3628 3.6624 0 6.54-0.9156 8.6328-2.8776zm5.886 6.54-4.9704-0.3924c-0.3924-0.9156-0.3924-1.7004-0.3924-3.27h-0.3924c-2.4852 3.27-6.2784 4.1856-11.2488 4.1856-2.4852 0-4.578-0.3924-6.2784-2.0928-2.0928-1.7004-2.8776-4.1856-2.8776-7.0632 0-3.27 0.7848-6.2784 3.7932-8.2404 2.8776-2.8776 9.5484-4.1856 16.6116-2.4852 0.3924 0.3924 0-0.7848 0-1.7004 0-2.8776-0.7848-4.578-2.0928-5.3628-1.7004-0.9156-3.7932-1.308-6.6708-1.308-3.27 0-3.27 0.3924-6.6708 1.308l-0.9156-4.578c3.27-0.7848 4.9704-1.7004 9.156-1.7004s7.0632 0.7848 9.156 2.4852 3.27 4.578 3.27 8.2404v5.886c-0.3924 2.4852-0.3924 4.578-0.3924 5.3628 0 4.1856 0.5232 7.4556 0.9156 10.7256z" style="fill:#ffffff;stroke-width:1.308"/>
 <path id="path13" class="st1" d="m60.823 36.8208c-5.3628-3.27-16.2192-4.9704-24.0672 0.3924l-7.848-7.9788v25.7676h24.9828l-8.2404-9.156c2.616-4.8396 9.2868-8.6328 15.1728-9.0252z" style="fill:#ffffff;stroke-width:1.308"/>
 <path id="path15" class="st1" d="m59.515 87.1788c5.3628 3.27 15.4344 5.3628 23.2824-0.3924l7.4556 7.848v-24.5904h-24.0672l8.7636 8.2404c-3.4008 5.1012-9.5484 8.3712-15.4344 8.8944z" style="fill:#ffffff;stroke-width:1.308"/>
</svg>
