<svg xmlns="http://www.w3.org/2000/svg" xmlns:xlink="http://www.w3.org/1999/xlink" height="96" width="96" version="1.0"><defs><linearGradient id="d"><stop offset="0" stop-color="#f60"/><stop offset="1" stop-color="#f60" stop-opacity="0"/></linearGradient><linearGradient id="h"><stop offset="0" stop-color="#fff"/><stop offset="1" stop-color="#fff" stop-opacity="0"/></linearGradient><linearGradient gradientTransform="scale(1.00587 .99417)" gradientUnits="userSpaceOnUse" id="k" y2="7.017" x2="45.448" y1="92.54" x1="45.448"><stop offset="0"/><stop offset="1" stop-opacity=".588"/></linearGradient><linearGradient id="a"><stop offset="0" stop-color="#fff"/><stop offset="1" stop-color="#fff" stop-opacity="0"/></linearGradient><linearGradient id="b"><stop offset="0" stop-color="#98b9d7"/><stop offset="1" stop-color="#68b0f4"/></linearGradient><filter id="l" color-interpolation-filters="sRGB"><feGaussianBlur stdDeviation="1.71"/></filter><linearGradient gradientUnits="userSpaceOnUse" xlink:href="#a" id="aa" y2="63.893" x2="36.357" y1="6" x1="36.357"/><filter id="Z" color-interpolation-filters="sRGB" height="1.384" width="1.384" y="-.192" x="-.192"><feGaussianBlur stdDeviation="5.28"/></filter><linearGradient gradientUnits="userSpaceOnUse" xlink:href="#a" id="Y" y2="138.661" x2="48" y1="20.221" x1="48"/><radialGradient gradientTransform="matrix(1.15731 0 0 .9959 -7.551 .197)" gradientUnits="userSpaceOnUse" xlink:href="#a" id="ab" fy="90.172" fx="48" r="42" cy="90.172" cx="48"/><clipPath id="X"><rect y="6" x="6" ry="6" rx="6" height="84" width="84" fill="#fff"/></clipPath><linearGradient gradientUnits="userSpaceOnUse" xlink:href="#b" id="r" y2="5.988" x2="48" y1="90" x1="48"/><linearGradient gradientTransform="matrix(1.00587 0 0 .99417 100 0)" gradientUnits="userSpaceOnUse" id="c" y2="7.017" x2="45.448" y1="92.54" x1="45.448"><stop offset="0"/><stop offset="1" stop-opacity=".588"/></linearGradient><linearGradient gradientTransform="matrix(1.0238 0 0 1.0119 -1.143 -98.071)" gradientUnits="userSpaceOnUse" xlink:href="#c" id="n" y2="90.239" x2="32.251" y1="6.132" x1="32.251"/><linearGradient gradientTransform="matrix(1.0238 0 0 1.0119 -1.143 -98.071)" gradientUnits="userSpaceOnUse" xlink:href="#c" id="o" y2="90.239" x2="32.251" y1="6.132" x1="32.251"/><linearGradient gradientTransform="matrix(1.0238 0 0 1.0119 -1.143 -98.071)" gradientUnits="userSpaceOnUse" xlink:href="#c" id="p" y2="90.239" x2="32.251" y1="6.132" x1="32.251"/><linearGradient gradientTransform="translate(0 -97)" gradientUnits="userSpaceOnUse" xlink:href="#c" id="q" y2="90.239" x2="32.251" y1="6.132" x1="32.251"/><linearGradient gradientTransform="matrix(1.0238 0 0 1.0119 -1.143 -98.071)" gradientUnits="userSpaceOnUse" xlink:href="#c" id="m" y2="90.239" x2="32.251" y1="6.132" x1="32.251"/><linearGradient id="g"><stop offset="0" stop-color="#ffda56"/><stop offset=".641" stop-color="#ffda56"/><stop offset="1" stop-color="#ffda56" stop-opacity="0"/></linearGradient><linearGradient id="e"><stop offset="0" stop-color="#fff894"/><stop offset=".8" stop-color="#ffc822"/><stop offset="1" stop-color="#ffb400"/></linearGradient><linearGradient id="f"><stop offset="0" stop-color="#ffdc4d"/><stop offset=".776" stop-color="#ffe041"/><stop offset="1" stop-color="#fffda4" stop-opacity="0"/></linearGradient><clipPath id="x"><path style="marker:none" transform="translate(-6 14) scale(.84375)" d="M96 32a32 32 0 1 1-64 0 32 32 0 1 1 64 0z" color="#000" fill="red" stroke-width="1.5" overflow="visible" enable-background="accumulate"/></clipPath><filter id="D" color-interpolation-filters="sRGB" height="1.24" width="1.235" y="-.12" x="-.118"><feGaussianBlur stdDeviation=".569"/></filter><filter id="E" color-interpolation-filters="sRGB" height="1.257" width="1.271" y="-.129" x="-.135"><feGaussianBlur stdDeviation=".569"/></filter><filter id="F" color-interpolation-filters="sRGB"><feGaussianBlur stdDeviation=".569"/></filter><filter id="G" color-interpolation-filters="sRGB" height="1.232" width="1.138" y="-.116" x="-.069"><feGaussianBlur stdDeviation=".569"/></filter><filter id="H" color-interpolation-filters="sRGB"><feGaussianBlur stdDeviation=".569"/></filter><filter id="I" color-interpolation-filters="sRGB"><feGaussianBlur stdDeviation=".569"/></filter><filter id="J" color-interpolation-filters="sRGB"><feGaussianBlur stdDeviation=".569"/></filter><filter id="K" color-interpolation-filters="sRGB" height="1.2" width="1.146" y="-.1" x="-.073"><feGaussianBlur stdDeviation=".569"/></filter><filter id="L" color-interpolation-filters="sRGB"><feGaussianBlur stdDeviation=".569"/></filter><filter id="M" color-interpolation-filters="sRGB"><feGaussianBlur stdDeviation=".569"/></filter><filter id="N" color-interpolation-filters="sRGB" height="1.421" width="1.207" y="-.21" x="-.103"><feGaussianBlur stdDeviation=".569"/></filter><filter id="O" color-interpolation-filters="sRGB" height="1.22" width="1.142" y="-.11" x="-.071"><feGaussianBlur stdDeviation=".569"/></filter><filter id="P" color-interpolation-filters="sRGB"><feGaussianBlur stdDeviation=".569"/></filter><filter id="Q" color-interpolation-filters="sRGB" height="1.241" width="1.14" y="-.121" x="-.07"><feGaussianBlur stdDeviation=".569"/></filter><clipPath id="s"><rect y="6" x="6" ry="6" rx="6" height="84" width="84" fill="#f0f"/></clipPath><radialGradient gradientTransform="matrix(1 0 0 1.06897 0 -3.047)" gradientUnits="userSpaceOnUse" xlink:href="#d" id="y" fy="44.185" fx="57.034" r="10.81" cy="44.185" cx="57.034"/><radialGradient gradientTransform="matrix(1 0 0 1.06897 0 -3.047)" gradientUnits="userSpaceOnUse" xlink:href="#d" id="z" fy="44.185" fx="57.034" r="10.81" cy="44.185" cx="57.034"/><radialGradient gradientTransform="matrix(1 0 0 1.06897 0 -3.047)" gradientUnits="userSpaceOnUse" xlink:href="#d" id="A" fy="44.185" fx="57.034" r="10.81" cy="44.185" cx="57.034"/><radialGradient gradientTransform="matrix(1 0 0 1.06897 0 -3.047)" gradientUnits="userSpaceOnUse" xlink:href="#d" id="B" fy="44.185" fx="57.034" r="10.81" cy="44.185" cx="57.034"/><radialGradient gradientUnits="userSpaceOnUse" xlink:href="#e" id="w" fy="43.852" fx="52.148" r="32" cy="43.852" cx="52.148"/><radialGradient gradientUnits="userSpaceOnUse" xlink:href="#f" id="v" fy="32" fx="64" r="32" cy="32" cx="64"/><radialGradient gradientUnits="userSpaceOnUse" xlink:href="#g" id="u" fy="32" fx="64" r="40" cy="32" cx="64"/><radialGradient gradientTransform="matrix(1 0 0 1.00844 -18 12.737)" gradientUnits="userSpaceOnUse" xlink:href="#g" id="t" fy="31.114" fx="65.325" r="52.047" cy="31.114" cx="65.325"/><linearGradient gradientUnits="userSpaceOnUse" xlink:href="#h" id="C" y2="55.536" x2="64.996" y1="-.909" x1="64.996"/><linearGradient id="i"><stop offset="0" stop-color="#fff"/><stop offset="1" stop-color="#fff" stop-opacity="0"/></linearGradient><linearGradient id="j"><stop offset="0" stop-color="#fff"/><stop offset="1" stop-color="#fff" stop-opacity="0"/></linearGradient><linearGradient gradientTransform="matrix(-1 0 0 1 85.594 12)" gradientUnits="userSpaceOnUse" xlink:href="#i" id="W" y2="76.55" x2="75.918" y1="63.139" x1="75.918"/><linearGradient gradientTransform="matrix(-1 0 0 1 80.942 38.325)" gradientUnits="userSpaceOnUse" xlink:href="#j" id="V" y2="56.865" x2="76.758" y1="27.41" x1="76.758"/><linearGradient gradientTransform="translate(44.277 16.233)" gradientUnits="userSpaceOnUse" xlink:href="#j" id="U" y2="48.086" x2="45.967" y1="28.946" x1="45.967"/><clipPath id="R"><rect y="6" x="6" ry="6" rx="6" height="84" width="84" fill="#f0f"/></clipPath><linearGradient gradientTransform="translate(-10 -3)" gradientUnits="userSpaceOnUse" xlink:href="#j" id="T" y2="89.995" x2="35.838" y1="56.924" x1="35.838"/><linearGradient gradientTransform="scale(-1 1) rotate(16.194 -109.476 -384.011)" gradientUnits="userSpaceOnUse" xlink:href="#j" id="S" y2="29.471" x2="44.586" y1="13.056" x1="39.819"/></defs><g transform="scale(1 -1)"><path d="M12-95.031c-5.511 0-10.031 4.52-10.031 10.031v71C1.969-8.489 6.489-3.969 12-3.969h72c5.511 0 10.031-4.52 10.031-10.031v-71c0-5.511-4.52-10.031-10.031-10.031H12z" opacity=".08" fill="url(#m)"/><path d="M12-94.031c-4.972 0-9.031 4.06-9.031 9.031v71c0 4.972 4.06 9.031 9.031 9.031h72c4.972 0 9.031-4.06 9.031-9.031v-71c0-4.972-4.06-9.031-9.031-9.031H12z" opacity=".1" fill="url(#n)"/><path d="M12-93c-4.41 0-8 3.59-8 8v71c0 4.41 3.59 8 8 8h72c4.41 0 8-3.59 8-8v-71c0-4.41-3.59-8-8-8H12z" opacity=".2" fill="url(#o)"/><rect y="-92" x="5" ry="7" rx="7" height="85" width="86" opacity=".3" fill="url(#p)"/><rect y="-91" x="6" ry="6" rx="6" height="84" width="84" opacity=".45" fill="url(#q)"/></g><rect y="6" x="6" ry="6" rx="6" height="84" width="84" fill="url(#r)"/><g clip-path="url(#s)"><path style="marker:none" d="M72.833-1.476L58.496 29.57 85.881 9.09 62.653 34.185l32.373-11.013L65.18 39.861l34.192-.47-33.543 6.648 32.664 10.119-33.956-4.042 27.939 19.717L61.43 57.496 81.91 84.881 56.815 61.653l8.258 26.272L51.139 64.18l-.513 32.42-5.665-31.77-8.741 28.333 2.664-29.626-15.978 20.264 10.598-23.37L1.986 85.632l27.361-29.817-32.373 11.013L26.82 50.139l-24.942-.71L26.17 43.96l-30.893-9.528 32.185 3.451-20.46-14.01 23.566 8.63L10.09 5.119l25.094 23.228L24.172-4.026 40.861 25.82l-.47-34.192 6.648 33.543L57.158-7.493l-4.042 33.956L72.833-1.476z" opacity=".3" color="#000" fill="url(#t)" overflow="visible" enable-background="accumulate"/><path style="marker:none" transform="translate(-16 12)" d="M98.641 52l-14.654-6.005 10.655 11.717-13.389-8.459 8.459 13.389-11.717-10.655L84 66.641l-9.688-12.527 3.369 15.474-7.366-14.02.63 15.824-4.818-15.085L64 72l-2.127-15.693-4.819 15.085.63-15.823-7.365 14.019 3.37-15.474L44 66.64l6.005-14.654-11.717 10.655 8.459-13.389-13.389 8.459 10.655-11.717L29.359 52l12.527-9.688-15.474 3.369 14.02-7.366-15.824.63 15.085-4.818L24 32l15.693-2.127-15.085-4.819 15.823.63-14.019-7.365 15.474 3.37L29.36 12l14.654 6.005L33.358 6.288l13.389 8.459-8.459-13.389 11.717 10.655L44-2.641l9.688 12.527L50.32-5.588l7.366 14.02-.63-15.824 4.818 15.085L64-8l2.127 15.693 4.819-15.085-.63 15.823L77.68-5.588 74.31 9.886 84-2.64l-6.005 14.654L89.712 1.358l-8.459 13.389 13.389-8.459-10.655 11.717L98.641 12l-12.527 9.688 15.474-3.369-14.02 7.366 15.824-.63-15.085 4.818L104 32l-15.693 2.127 15.085 4.819-15.823-.63 14.019 7.365-15.474-3.37z" opacity=".8" color="#000" fill="url(#u)" overflow="visible" enable-background="accumulate"/><path style="marker:none" transform="translate(-18 10) scale(1.03125)" d="M96 32a32 32 0 1 1-64 0 32 32 0 1 1 64 0z" color="#000" fill="url(#v)" overflow="visible" enable-background="accumulate"/><path style="marker:none" transform="translate(-6 16) scale(.84375)" d="M96 32a32 32 0 1 1-64 0 32 32 0 1 1 64 0z" color="#000" fill="url(#w)" overflow="visible" enable-background="accumulate"/><path style="marker:none" d="M48 16c-14.912 0-27 12.088-27 27s12.088 27 27 27 27-12.088 27-27-12.088-27-27-27zm0 1c14.36 0 26 11.64 26 26S62.36 69 48 69 22 57.36 22 43s11.64-26 26-26z" color="#000" fill="#ffc000" overflow="visible" enable-background="accumulate"/><g clip-path="url(#x)" transform="translate(0 2)" color="#000"><path style="marker:none" transform="matrix(1.32184 0 0 1.32184 -14.876 -17.94)" d="M67.844 44.185a10.81 11.556 0 1 1-21.62 0 10.81 11.556 0 1 1 21.62 0z" opacity=".3" fill="url(#y)" overflow="visible" enable-background="accumulate"/><path style="marker:none" transform="matrix(1.04227 0 0 1.04227 -26.557 -5.587)" d="M67.844 44.185a10.81 11.556 0 1 1-21.62 0 10.81 11.556 0 1 1 21.62 0z" opacity=".3" fill="url(#z)" overflow="visible" enable-background="accumulate"/><path style="marker:none" transform="translate(-43.952 -36.067) scale(1.45087)" d="M67.844 44.185a10.81 11.556 0 1 1-21.62 0 10.81 11.556 0 1 1 21.62 0z" opacity=".3" fill="url(#A)" overflow="visible" enable-background="accumulate"/><path style="marker:none" transform="matrix(1.92214 0 0 1.69818 -48.091 -49.355)" d="M67.844 44.185a10.81 11.556 0 1 1-21.62 0 10.81 11.556 0 1 1 21.62 0z" opacity=".3" fill="url(#B)" overflow="visible" enable-background="accumulate"/></g><path style="marker:none" transform="matrix(.58747 0 0 .37002 10.402 18.734)" d="M96 32a32 32 0 1 1-64 0 32 32 0 1 1 64 0z" opacity=".5" color="#000" fill="url(#C)" overflow="visible" enable-background="accumulate"/><path d="M24.81 39.351c-.487 1.524.031 3.832 1.873 3.539 1.077 2.367-3.419 3.028-2.456 5.528.39 1.419 2.462 1.21 1.542-.445-.275-2.1 2.995-2.623 3-.282.913 1.613 3.71 2.718 4.914.847.853-1.44-3.405-3.484-.65-4.177 2.547.77 3.537-2.508 1.788-4.017-1.252-1.461-2.792.094-3.1 1.385-2.126 1.496-4.441-.981-4.194-3.068-.752-.954-2.49-.487-2.717.69z" opacity=".07" fill="#f60" filter="url(#D)"/><path d="M41.211 51.528c-1.14-1.576-2.314-4.741.025-5.791 2.394-.67 3.112 2.302 4.93 2.944 2.067.093 2.899 1.706 2.57 3.545.312 1.426 2.528 3.158.093 3.947-1.678.438-3.835-.888-3.603-2.764.045-2.121-2.24-2.205-3.585-1.506l-.247-.144-.183-.23z" opacity=".07" fill="#f60" filter="url(#E)"/><path d="M31.27 47.552c2.068-.47 1.594-3.473 3.445-4.142 2.746.544 1.79 4.163 1.641 6.166 1.332 1.968 5.787.475 5.546 3.7-.43 2.636 1.508 4.739 1.826 7.11-.6 2.643-4.946 2.957-5.52.11-1.143-2.17 3.333-3.842.382-5.47-1.89-.833-4.549-2.115-6.029.084-1.473 1.946-4.445-.13-4.128-2.18.297-2.187 5.12-.812 3.945-3.551-.348-.569-1.797-.985-1.107-1.827z" opacity=".07" fill="#f60" filter="url(#F)"/><path d="M34.005 59.48c-1.917-.985-2.801-4.922.054-5.152 2.184-.078 2.95 2.589 2.632 4.359-.258 2.68 3.684 2.983 5.169 1.363 2.248-.16 4.171 3.201 6.38 1.166 1.006-.753 2.78-3.588 3.833-1.924-.656 1.68-3.772 2.222-2.832 4.561-.294 2.284-3.306 2.692-5.01 1.742-1.53-1.004-3.323-4.116-5.241-1.905-1.796 1.424-4.894-.233-4.596-2.535-.109-.563-.203-1.131-.39-1.674z" opacity=".07" fill="#f60" filter="url(#G)"/><path d="M57.862 41.588c1.691-.387 3.76-1.104 5.252.177 1.623 1.21.948 3.438 1.466 5.12 1.075 1.579 2.868 2.63 3.39 4.572.55 1.213 1.006 3.055-.32 3.937-1.68.734-4.203.786-5.203-1.04-1.295-1.324-1.387-3.392-2.484-4.736-1.88-.6-3.944-.115-5.856-.795-1.655-.183-3.172-1.722-2.722-3.446.575-2.293 3.031-3.732 5.311-3.648a7.9 7.9 0 0 0 1.166-.141z" opacity=".07" fill="#f60" filter="url(#H)"/><path d="M34.875 37.544c1.692-.386 3.76-1.104 5.253.177 1.623 1.21.947 3.438 1.465 5.12 1.076 1.58 2.869 2.63 3.39 4.573.55 1.212 1.006 3.055-.32 3.936-1.68.735-4.202.787-5.202-1.039-1.296-1.324-1.388-3.392-2.485-4.737-1.88-.6-3.943-.114-5.855-.794-1.655-.184-3.173-1.723-2.723-3.447.575-2.293 3.031-3.732 5.312-3.648a7.9 7.9 0 0 0 1.165-.14z" opacity=".07" fill="#f60" filter="url(#I)"/><path transform="rotate(115.954 57.682 46.9)" d="M55.418 42.073c-1.916-.986-2.8-4.922.054-5.153 2.185-.078 2.95 2.589 2.633 4.36-.259 2.68 3.684 2.982 5.168 1.362 2.25-.159 4.172 3.201 6.38 1.167 1.007-.754 2.78-3.59 3.834-1.924-.656 1.68-3.772 2.221-2.832 4.56-.294 2.285-3.307 2.692-5.01 1.743-1.531-1.005-3.323-4.116-5.241-1.906-1.796 1.425-4.895-.232-4.597-2.535-.108-.563-.202-1.13-.389-1.674z" opacity=".07" fill="#f60" filter="url(#J)"/><path transform="rotate(166.338 57.622 46.5)" d="M63.496 27.343c1.691-.386 3.76-1.103 5.252.177 1.623 1.21.948 3.438 1.466 5.12 1.075 1.58 2.868 2.63 3.39 4.573.55 1.212 1.006 3.055-.32 3.936-1.68.735-4.203.787-5.203-1.039-1.295-1.324-1.387-3.392-2.484-4.737-1.88-.6-3.944-.114-5.856-.794-1.655-.183-3.172-1.723-2.722-3.447.575-2.293 3.03-3.732 5.311-3.648a7.9 7.9 0 0 0 1.166-.14z" opacity=".07" fill="#f60" filter="url(#K)"/><path d="M46.679 46.806c2.067-.47 1.593-3.472 3.444-4.142 2.746.545 1.79 4.164 1.641 6.166 1.332 1.969 5.787.475 5.545 3.7-.428 2.636 1.508 4.74 1.826 7.11-.6 2.643-4.945 2.958-5.52.11-1.142-2.17 3.334-3.842.383-5.47-1.89-.833-4.55-2.115-6.03.084-1.472 1.947-4.444-.13-4.127-2.179.297-2.187 5.12-.812 3.945-3.552-.349-.568-1.797-.985-1.107-1.827z" opacity=".07" fill="#f60" filter="url(#L)"/><path transform="rotate(-166.938 34.573 51.763)" d="M35.91 43.497c1.692-.387 3.76-1.104 5.254.177 1.622 1.21.947 3.438 1.465 5.12 1.076 1.579 2.868 2.63 3.39 4.572.55 1.213 1.006 3.055-.32 3.937-1.68.734-4.203.786-5.202-1.04-1.296-1.324-1.388-3.392-2.485-4.736-1.88-.6-3.944-.115-5.856-.795-1.655-.183-3.172-1.722-2.722-3.446.575-2.294 3.031-3.732 5.312-3.648a7.9 7.9 0 0 0 1.165-.141z" opacity=".07" fill="#f60" filter="url(#M)"/><path transform="rotate(132.424 45.694 40.78)" d="M57.655 36.606c-1.14-1.576-2.314-4.742.024-5.792 2.395-.67 3.113 2.303 4.93 2.944 2.068.093 2.9 1.706 2.57 3.545.313 1.427 2.529 3.158.093 3.947-1.677.438-3.835-.888-3.602-2.763.045-2.122-2.241-2.206-3.585-1.507l-.248-.144-.182-.23z" opacity=".07" fill="#f60" filter="url(#N)"/><path transform="rotate(132.424 45.694 40.78)" d="M47.714 32.63c2.068-.471 1.593-3.473 3.445-4.143 2.746.545 1.79 4.164 1.64 6.166 1.333 1.969 5.787.475 5.546 3.7-.429 2.636 1.508 4.74 1.826 7.11-.6 2.643-4.946 2.957-5.52.11-1.142-2.17 3.334-3.842.383-5.47-1.89-.833-4.55-2.115-6.03.084-1.473 1.947-4.445-.13-4.128-2.179.297-2.187 5.12-.812 3.946-3.552-.349-.568-1.798-.985-1.108-1.827z" opacity=".07" fill="#f60" filter="url(#O)"/><path transform="rotate(132.424 45.694 40.78)" d="M50.448 44.558c-1.916-.986-2.8-4.922.054-5.153 2.185-.078 2.95 2.59 2.632 4.36-.258 2.68 3.685 2.982 5.17 1.362 2.248-.159 4.17 3.201 6.38 1.167 1.006-.754 2.779-3.589 3.833-1.924-.656 1.68-3.772 2.222-2.832 4.56-.294 2.285-3.307 2.692-5.01 1.743-1.531-1.004-3.323-4.116-5.242-1.906-1.795 1.425-4.894-.232-4.596-2.535-.108-.562-.202-1.13-.389-1.674z" opacity=".07" fill="#f60" filter="url(#P)"/><path transform="rotate(-34.514 32.715 32.764)" d="M35.91 43.497c1.692-.387 3.76-1.104 5.254.177 1.622 1.21.947 3.438 1.465 5.12 1.076 1.579 2.868 2.63 3.39 4.572.55 1.213 1.006 3.055-.32 3.937-1.68.734-4.203.786-5.202-1.04-1.296-1.324-1.388-3.392-2.485-4.736-1.88-.6-3.944-.115-5.856-.795-1.655-.183-3.172-1.722-2.722-3.446.575-2.294 3.031-3.732 5.312-3.648a7.9 7.9 0 0 0 1.165-.141z" opacity=".07" fill="#f60" filter="url(#Q)"/></g><g clip-path="url(#R)" color="#000"><path style="marker:none" d="M63.176 37.577c1.37-.398 2.808.368 3.205 1.737a2.575 2.575 0 0 1-.581 2.48 7.131 7.131 0 0 1 1.505 1.71 10.318 10.318 0 0 1 2.193-1.19c-.07-.14-.146-.277-.19-.432a2.66 2.66 0 0 1 1.81-3.292c1.03-.3 2.09.065 2.746.83a5.973 5.973 0 0 1 3.486-2.9 2.377 2.377 0 0 1 1.618-2.944c1.185-.344 2.406.293 2.852 1.418a3.619 3.619 0 0 1 1.11-.55 3.565 3.565 0 0 1 4.414 2.427c.018.062.008.127.022.189.562-.245 1.134-.46 1.736-.634a15.04 15.04 0 0 1 4.78-.575 6.347 6.347 0 0 1 3.713-2.9 6.339 6.339 0 0 1 8.108 5.845c2.15-.33 4.25.964 4.873 3.108.122.421.172.836.168 1.253.263.122.517.25.766.396a5.021 5.021 0 0 1 2.811-2.086c2.628-.763 5.336.668 6.067 3.185.73 2.517-.79 5.175-3.417 5.939a5.136 5.136 0 0 1-1.184.18c.129 3.89-2.363 7.52-6.273 8.656a8.717 8.717 0 0 1-3.669.252c-1.92 2.79-4.748 4.958-8.254 5.977-4.738 1.375-9.603.33-13.287-2.39a4.943 4.943 0 0 1-8.015-1.154l-.09.026c-3.47 1.008-7.02.122-9.603-2.027a6.953 6.953 0 0 1-4.218 3.405c-3.397.986-6.954-.708-8.344-3.857-.398.227-.808.43-1.268.563a5.941 5.941 0 0 1-7.358-4.046 5.941 5.941 0 0 1 4.046-7.358c.329-.095.658-.151.986-.188a2.594 2.594 0 0 1 1.553-1.265c.705-.204 1.443-.082 2.066.279-.129-3.225 1.929-6.255 5.167-7.195.705-.205 1.41-.264 2.107-.254a2.57 2.57 0 0 1 1.843-2.618z" fill="url(#S)" overflow="visible" enable-background="accumulate"/><path style="marker:none" d="M20.5 50.313c-.95 0-1.828.305-2.531.812-.58-.09-1.176-.156-1.782-.156-2.643 0-5.05.915-7 2.406a4.37 4.37 0 0 0-.687-.063c-2.313 0-4.188 1.772-4.188 3.97 0 .823.268 1.583.72 2.218-.269.978-.407 2-.407 3.063 0 1.073.133 2.107.406 3.093A4.938 4.938 0 0 0 3 65.22a4.925 4.925 0 0 0-4.938 4.937c0 2.737 2.202 4.969 4.938 4.969.366 0 .719-.05 1.063-.125v.125a7.81 7.81 0 0 0 7.812 7.813c2.786 0 5.21-1.463 6.594-3.657a11.502 11.502 0 0 0 7.718 2.969c4.015 0 7.533-2.072 9.594-5.188 1.294.972 2.883 1.563 4.625 1.563 2.725 0 5.12-1.435 6.5-3.563.693.557 1.542.907 2.5.907 1.31 0 2.48-.63 3.219-1.594a2.14 2.14 0 0 0 1.125.344 2.094 2.094 0 0 0 0-4.188c-.18 0-.364.02-.531.063a4.04 4.04 0 0 0-3.407-2.688A2.562 2.562 0 0 0 47.25 65.5c-.381 0-.737.07-1.063.219a7.76 7.76 0 0 0-5.78-2.594 7.61 7.61 0 0 0-2.876.563c-.224-2.374-2.224-4.25-4.656-4.25-.28 0-.546.046-.813.093.033-.217.063-.43.063-.656 0-2.505-2.057-4.531-4.563-4.531-.939 0-1.807.26-2.53.75-.125-.148-.244-.297-.376-.438.012-.123.032-.248.032-.375 0-2.197-1.875-3.968-4.188-3.968z" fill="url(#T)" overflow="visible" enable-background="accumulate"/><path style="marker:none" d="M94.09 34.89a3.572 3.572 0 0 0-3.531 3.062 10.78 10.78 0 0 0-2.719 1.562c-.483-.508-1.15-.843-1.906-.843a2.66 2.66 0 0 0-2.656 2.656v.031a11.27 11.27 0 0 0-2.97.594 3.006 3.006 0 0 0-2.28-1.031 2.999 2.999 0 0 0-3 2.937c-.044-.002-.081-.031-.126-.031-1.203 0-2.223.87-2.468 2a7.357 7.357 0 0 0-5.782 3.5 4.054 4.054 0 0 0-1.593-.313 4.13 4.13 0 0 0-4.125 4.125c0 2.274 1.85 4.094 4.125 4.094.534 0 1.031-.096 1.5-.281a7.368 7.368 0 0 0 6.375 3.625 7.38 7.38 0 0 0 2.5-.438 11.327 11.327 0 0 0 8.594 3.938c3.574 0 6.758-1.64 8.843-4.219 1.215 1.383 2.983 2.281 4.969 2.281a6.623 6.623 0 0 0 4.094-1.437 7.648 7.648 0 0 0 3.531.875c1.549 0 2.981-.461 4.188-1.25a3.59 3.59 0 0 0 1.656.406 3.651 3.651 0 0 0 3.562-2.875 3.193 3.193 0 0 0 3.157 2.719c1.772 0 3.218-1.415 3.218-3.188a3.226 3.226 0 0 0-2.75-3.187c.046-.259.094-.54.094-.813a4.528 4.528 0 0 0-4.531-4.53c-.84 0-1.638.257-2.313.655-.224-.32-.45-.656-.719-.937a2.07 2.07 0 0 0 .157-.813 2.094 2.094 0 0 0-2.094-2.093c-.093 0-.191.02-.281.03a3.283 3.283 0 0 0-3.282-3.25c-.477 0-.934.099-1.343.282a10.978 10.978 0 0 0-6.688-5.187c-.401-1.526-1.754-2.657-3.406-2.657z" fill="url(#U)" overflow="visible" enable-background="accumulate"/><path style="marker:none" d="M10.66 61.763c3.027.307 5.376 2.892 5.376 6 0 .502-.072.97-.188 1.437a8.9 8.9 0 0 1 4.656-1.312c.697 0 1.38.099 2.032.25a3.475 3.475 0 0 1 3.28-2.344c1.928 0 3.47 1.573 3.47 3.5 0 .923-.353 1.75-.938 2.375.197-.023.391 0 .594 0 2.89 0 5.25 2.328 5.25 5.219 0 2.89-2.36 5.25-5.25 5.25-.404 0-.779-.07-1.156-.157a8.92 8.92 0 0 1-4.094 3.157c.004.115.031.227.031.343 0 5.242-4.258 9.47-9.5 9.47a9.42 9.42 0 0 1-4.25-1 16.38 16.38 0 0 1-9.219 2.843c-6.838 0-12.693-4.205-15.156-10.156-4.785-.597-8.5-4.647-8.5-9.594 0-5.357 4.33-9.719 9.688-9.719 1.16 0 2.281.22 3.312.594A16.548 16.548 0 0 1-7.12 65.98c-.082-.233-.156-.488-.156-.75 0-1.233 1.017-2.218 2.25-2.218.948 0 1.77.572 2.094 1.406a16.755 16.755 0 0 1 3.281-.438 2.907 2.907 0 0 1 2.844-2.218c1.174 0 2.188.69 2.656 1.687a5.954 5.954 0 0 1 4.188-1.687c.207 0 .423-.02.625 0z" opacity=".8" fill="url(#V)" overflow="visible" enable-background="accumulate"/><path style="marker:none" d="M7.656 74.656c3.5 0 6.464 2.186 7.625 5.281a5.38 5.38 0 0 1 5.281 5.376 5.376 5.376 0 0 1-5.375 5.374 5.293 5.293 0 0 1-3.124-1.03 8.098 8.098 0 0 1-4.407 1.312c-.412 0-.823-.035-1.218-.094-.461.558-1.158.938-1.938.938-1.11 0-2.043-.72-2.375-1.72a6.31 6.31 0 0 1-1.813.282 6.282 6.282 0 0 1-6.28-6.281c0-2.905 1.977-5.345 4.655-6.063-.024-.153-.062-.308-.062-.469 0-1.618 1.319-2.906 2.938-2.906.866 0 1.65.372 2.187.969a8.173 8.173 0 0 1 3.906-.969z" opacity=".8" fill="url(#W)" overflow="visible" enable-background="accumulate"/></g><path d="M12 6c-3.324 0-6 2.676-6 6v72c0 .335.041.65.094.969.048.295.097.597.187.875l.032.094c.098.287.234.547.375.812.144.274.315.536.5.781a6.105 6.105 0 0 0 2.094 1.781c.278.14.573.247.874.344a4.843 4.843 0 0 1-.719-.375c-.007-.004-.023.005-.03 0-.033-.02-.063-.042-.095-.062-.12-.077-.23-.164-.343-.25-.106-.081-.214-.161-.313-.25a5.042 5.042 0 0 1-.5-.531 5.092 5.092 0 0 1-.312-.407c-.025-.038-.039-.086-.063-.125-.065-.103-.13-.204-.187-.312a5.371 5.371 0 0 1-.282-.625c-.007-.022-.023-.04-.03-.063-.033-.092-.037-.187-.063-.281-.03-.107-.07-.203-.094-.313A5.098 5.098 0 0 1 7 85V13c0-2.782 2.218-5 5-5h72c2.782 0 5 2.218 5 5v72c0 .364-.052.721-.125 1.063a4.896 4.896 0 0 1-.156.593c-.008.022-.024.04-.031.063a5.482 5.482 0 0 1-.22.531c-.04.083-.078.17-.124.25-.055.097-.127.188-.188.281a5.092 5.092 0 0 1-.312.406 5.05 5.05 0 0 1-.469.5l-.031.032a4.818 4.818 0 0 1-.438.344c-.102.073-.204.153-.312.218-.008.005-.024-.004-.031 0a4.843 4.843 0 0 1-.72.375c.302-.097.597-.204.876-.344a6.105 6.105 0 0 0 2.094-1.78c.184-.246.355-.508.5-.782a5.69 5.69 0 0 0 .374-.813l.032-.093c.09-.278.139-.58.187-.875.053-.318.094-.634.094-.969V12c0-3.324-2.676-6-6-6H12z" opacity=".4" fill="url(#aa)"/><path d="M12 90c-3.324 0-6-2.676-6-6V12c0-.335.041-.65.094-.969.048-.295.097-.597.187-.875l.032-.094a5.69 5.69 0 0 1 .375-.812c.144-.274.315-.536.5-.781a6.105 6.105 0 0 1 2.094-1.781c.278-.14.573-.247.874-.344-.256.1-.486.236-.719.375-.007.004-.023-.005-.03 0-.033.019-.063.042-.095.062-.12.077-.23.164-.343.25-.106.081-.214.161-.313.25a5.042 5.042 0 0 0-.5.532c-.107.13-.218.265-.312.406-.025.038-.039.086-.063.125-.065.103-.13.204-.187.312a5.371 5.371 0 0 0-.282.625c-.007.022-.023.04-.03.063-.033.092-.037.187-.063.281-.03.107-.07.203-.094.313A5.098 5.098 0 0 0 7 11v72c0 2.782 2.218 5 5 5h72c2.782 0 5-2.218 5-5V11c0-.364-.052-.721-.125-1.063a4.896 4.896 0 0 0-.156-.593c-.008-.022-.024-.04-.031-.063a5.482 5.482 0 0 0-.22-.531c-.04-.083-.078-.17-.124-.25-.055-.097-.127-.188-.188-.281a5.092 5.092 0 0 0-.312-.406 5.05 5.05 0 0 0-.469-.5l-.031-.032a4.818 4.818 0 0 0-.438-.343c-.102-.074-.204-.154-.312-.22-.008-.004-.024.005-.031 0a4.843 4.843 0 0 0-.72-.374c.302.097.597.204.876.343a6.105 6.105 0 0 1 2.094 1.782c.184.245.355.507.5.781.14.265.276.525.374.813l.032.093c.09.278.139.58.187.875.053.318.094.634.094.969v72c0 3.324-2.676 6-6 6H12z" opacity=".2" fill="url(#ab)"/></svg>