<svg xmlns="http://www.w3.org/2000/svg" width="23" height="23" viewBox="0 0 23 23"><g inkscape:version="0.91 r" sodipodi:docname="cinnamon-logo.svg" xmlns:dc="http://purl.org/dc/elements/1.1/" xmlns:cc="http://creativecommons.org/ns#" xmlns:rdf="http://www.w3.org/1999/02/22-rdf-syntax-ns#" xmlns:svg="http://www.w3.org/2000/svg" xmlns:inkscape="http://www.inkscape.org/namespaces/inkscape" xmlns:sodipodi="http://sodipodi.sourceforge.net/DTD/sodipodi-0.dtd"><sodipodi:namedview inkscape:current-layer="Layer_1" inkscape:window-y="0" inkscape:window-x="0" fit-margin-bottom="0" fit-margin-right="0" inkscape:window-height="1151" inkscape:window-width="1920" inkscape:pageshadow="2" inkscape:pageopacity="0" inkscape:window-maximized="1" inkscape:cy="11.9" inkscape:cx="-5.714" bordercolor="#666666" inkscape:zoom="10.685" pagecolor="#ffffff" guidetolerance="10" fit-margin-left="0" gridtolerance="10" objecttolerance="10" fit-margin-top="0" borderopacity="1" showgrid="false"/><path inkscape:connector-curvature="0" fill="#DC682E" d="M12.7 21.9c.2 0 .399-.101.7-.101.1 0 .199 0 .3-.1.2 0 .5-.101.7-.2.1 0 .199 0 .3-.1l.9-.299c.101 0 .101-.1.2-.1.2-.1.5-.2.7-.3.1 0 .2-.101.3-.2.2-.1.4-.2.5-.3.1-.1.2-.1.3-.2.2-.1.4-.3.601-.4.1 0 .1-.1.2-.1.199-.2.5-.4.699-.6l.2-.2c.2-.2.3-.3.4-.5.1-.101.1-.2.2-.3.1-.2.2-.3.4-.5.1-.1.1-.2.2-.3.1-.199.3-.5.4-.699 0 0 0-.101.1-.101.1-.3.3-.5.4-.8 0-.1.1-.2.1-.3 0-.101.1-.2.1-.4l-5.399-6-5.801 6.6 2.8-5.6-1.4-2.5-8.7 10c0 .101.1.101.1.2.2.2.3.5.5.7l.3.3.6.6.3.3c.2.2.4.4.7.5l.2.2c.3.2.6.4 1 .601.1 0 .1.1.2.1.3.101.6.3.9.4.1 0 .2.1.4.1.2.101.5.2.8.2.1 0 .3.1.4.1.3.099.5.099.8.199.1 0 .2 0 .4.101.4 0 .8.1 1.2.1h1c-.4-.001-.3-.001-.2-.101z"/></g><path fill="#DC682E" d="M11.5 0C5.149 0 0 5.149 0 11.5 0 17.852 5.149 23 11.5 23 17.852 23 23 17.852 23 11.5 23 5.149 17.852 0 11.5 0zm0 21.04c-5.269 0-9.54-4.272-9.54-9.54 0-5.269 4.271-9.54 9.54-9.54s9.54 4.271 9.54 9.54c0 5.268-4.271 9.54-9.54 9.54z"/></svg>