<svg id="svg2408" width="96" height="96" version="1.0" xmlns="http://www.w3.org/2000/svg" xmlns:xlink="http://www.w3.org/1999/xlink">
 <defs id="defs2410">
  <linearGradient id="linearGradient3953">
   <stop id="stop3955" style="stop-color:#000000" offset="0"/>
   <stop id="stop3957" style="stop-color:#000000;stop-opacity:0" offset="1"/>
  </linearGradient>
  <linearGradient id="linearGradient3761">
   <stop id="stop3763" style="stop-color:#333333" offset="0"/>
   <stop id="stop3765" style="stop-color:#515151" offset="1"/>
  </linearGradient>
  <linearGradient id="linearGradient3737">
   <stop id="stop3739" style="stop-color:#ffffff" offset="0"/>
   <stop id="stop3741" style="stop-color:#ffffff;stop-opacity:0" offset="1"/>
  </linearGradient>
  <linearGradient id="linearGradient3188" x1="36.357143" x2="36.357143" y1="6" y2="63.893143" gradientUnits="userSpaceOnUse" xlink:href="#linearGradient3737"/>
  <radialGradient id="radialGradient3619" cx="48" cy="90.171875" r="42" gradientTransform="matrix(1.1573129 0 0 .99590774 -7.5510206 .19713193)" gradientUnits="userSpaceOnUse" xlink:href="#linearGradient3737"/>
  <linearGradient id="linearGradient3617" x1="48" x2="48" y1="90" y2="5.9877172" gradientTransform="translate(0,2)" gradientUnits="userSpaceOnUse">
   <stop id="stop3666" style="stop-color:#c8c8c8" offset="0"/>
   <stop id="stop3668" style="stop-color:#c8c8c8" offset=".79100895"/>
   <stop id="stop3672" style="stop-color:#dadada" offset=".91459841"/>
   <stop id="stop3670" style="stop-color:#f0f0f0" offset="1"/>
  </linearGradient>
  <linearGradient id="ButtonShadow-0" x1="45.447727" x2="45.447727" y1="92.539597" y2="7.0165396" gradientTransform="matrix(1.0058652 0 0 .994169 100 0)" gradientUnits="userSpaceOnUse">
   <stop id="stop3750-8" style="stop-color:#000000" offset="0"/>
   <stop id="stop3752-5" style="stop-color:#000000;stop-opacity:.58823532" offset="1"/>
  </linearGradient>
  <linearGradient id="linearGradient3780" x1="32.251034" x2="32.251034" y1="6.1317081" y2="90.238609" gradientTransform="matrix(1.0238095,0,0,1.0119048,-1.1428571,-98.071429)" gradientUnits="userSpaceOnUse" xlink:href="#ButtonShadow-0"/>
  <linearGradient id="linearGradient3721" x1="32.251034" x2="32.251034" y1="6.1317081" y2="90.238609" gradientTransform="translate(0,-97)" gradientUnits="userSpaceOnUse" xlink:href="#ButtonShadow-0"/>
  <linearGradient id="linearGradient3684" x1="48" x2="48" y1="27" y2="80" gradientUnits="userSpaceOnUse">
   <stop id="stop3680" style="stop-color:#888888" offset="0"/>
   <stop id="stop3682" style="stop-color:#acacac" offset="1"/>
  </linearGradient>
  <linearGradient id="linearGradient3880" x1="32" x2="32" y1="16" y2="6" gradientUnits="userSpaceOnUse" xlink:href="#linearGradient3761"/>
  <linearGradient id="linearGradient3637">
   <stop id="stop3639" style="stop-color:#d4d4d4" offset="0"/>
   <stop id="stop3641" style="stop-color:#797979" offset="1"/>
  </linearGradient>
  <linearGradient id="linearGradient3959" x1="9.1875" x2="16.8125" y1="13" y2="13" gradientTransform="matrix(0 -.83333333 .83333333 0 71.166667 23.333334)" gradientUnits="userSpaceOnUse" xlink:href="#linearGradient3953"/>
  <linearGradient id="linearGradient3969" x1="10" x2="16" y1="13" y2="13" gradientTransform="matrix(.83333333 0 0 .83333333 1.6666674 59.166667)" gradientUnits="userSpaceOnUse" xlink:href="#linearGradient3637"/>
  <linearGradient id="linearGradient959" x1="9.1875" x2="16.8125" y1="13" y2="13" gradientTransform="matrix(0 -.83333333 .83333333 0 3.166667 23.333334)" gradientUnits="userSpaceOnUse" xlink:href="#linearGradient3953"/>
  <linearGradient id="linearGradient961" x1="10" x2="16" y1="13" y2="13" gradientTransform="matrix(.83333333 0 0 .83333333 -23.333334 3.166667)" gradientUnits="userSpaceOnUse" xlink:href="#linearGradient3761"/>
  <linearGradient id="linearGradient965" x1="9.1875" x2="16.8125" y1="13" y2="13" gradientTransform="matrix(0 -.83333333 .83333333 0 65.166667 23.333334)" gradientUnits="userSpaceOnUse" xlink:href="#linearGradient3953"/>
  <linearGradient id="linearGradient967" x1="10" x2="16" y1="13" y2="13" gradientTransform="matrix(.83333333 0 0 .83333333 1.6666674 65.166667)" gradientUnits="userSpaceOnUse" xlink:href="#linearGradient3637"/>
  <linearGradient id="linearGradient969" x1="9.1875" x2="16.8125" y1="13" y2="13" gradientTransform="matrix(0 -.83333333 .83333333 0 59.166667 23.333334)" gradientUnits="userSpaceOnUse" xlink:href="#linearGradient3953"/>
  <linearGradient id="linearGradient3924-7" x1="10" x2="16" y1="13" y2="13" gradientTransform="matrix(.83333333 0 0 .83333333 -23.333334 71.166667)" gradientUnits="userSpaceOnUse">
   <stop id="stop3185-9" style="stop-color:#c80000" offset="0"/>
   <stop id="stop3187-6" style="stop-color:#f3604d" offset="1"/>
  </linearGradient>
 </defs>
 <g id="layer3">
  <path id="path3786" transform="scale(1,-1)" d="m12-95.03125c-5.5110903 0-10.03125 4.52016-10.03125 10.03125v71c0 5.5110902 4.5201598 10.03125 10.03125 10.03125h72c5.51109 0 10.03125-4.5201597 10.03125-10.03125v-71c0-5.51109-4.52016-10.03125-10.03125-10.03125z" style="fill:url(#linearGradient3780);opacity:.07999998"/>
  <path id="path3778" transform="scale(1,-1)" d="m12-94.03125c-4.971633 0-9.03125 4.059617-9.03125 9.03125v71c0 4.9716329 4.0596171 9.03125 9.03125 9.03125h72c4.971633 0 9.03125-4.059617 9.03125-9.03125v-71c0-4.971633-4.059617-9.03125-9.03125-9.03125z" style="fill:url(#linearGradient3780);opacity:.1"/>
  <path id="path3770" transform="scale(1,-1)" d="m12-93c-4.4091333 0-8 3.590867-8 8v71c0 4.4091333 3.5908667 8 8 8h72c4.409133 0 8-3.5908667 8-8v-71c0-4.409133-3.590867-8-8-8z" style="fill:url(#linearGradient3780);opacity:.2"/>
  <rect id="rect3723" transform="scale(1,-1)" x="5" y="-92" width="86" height="85" rx="7" ry="7" style="fill:url(#linearGradient3780);opacity:.3"/>
  <rect id="rect3716" transform="scale(1,-1)" x="6" y="-91" width="84" height="84" rx="6" ry="6" style="fill:url(#linearGradient3721);opacity:.45"/>
 </g>
 <g id="g1186">
  <rect id="rect2419" x="6" y="8" width="84" height="82" rx="6" ry="6" style="fill:url(#linearGradient3617)"/>
  <path id="rect3728" d="m12 6c-3.324 0-6 2.676-6 6v72c0 0.334721 0.04135 0.6507 0.09375 0.96875 0.0487 0.295596 0.09704 0.596915 0.1875 0.875 0.00988 0.03038 0.020892 0.0636 0.03125 0.09375 0.098865 0.287771 0.2348802 0.547452 0.375 0.8125 0.1445918 0.273507 0.3156161 0.535615 0.5 0.78125s0.3737765 0.473472 0.59375 0.6875c0.439947 0.428056 0.94291 0.814526 1.5 1.09375 0.278545 0.139612 0.5734731 0.246947 0.875 0.34375-0.2562018-0.100222-0.4867109-0.236272-0.71875-0.375-0.00741-0.0044-0.023866 0.0045-0.03125 0-0.031933-0.0193-0.062293-0.04251-0.09375-0.0625-0.120395-0.0767-0.2310226-0.163513-0.34375-0.25-0.1061728-0.0808-0.2132809-0.161112-0.3125-0.25-0.1779299-0.161433-0.3474596-0.345388-0.5-0.53125-0.1075789-0.130255-0.2183939-0.265285-0.3125-0.40625-0.025089-0.03838-0.038446-0.08587-0.0625-0.125-0.064763-0.103032-0.1302275-0.204517-0.1875-0.3125-0.1010083-0.194706-0.2056748-0.415701-0.28125-0.625-0.00796-0.02181-0.023589-0.04055-0.03125-0.0625-0.0318251-0.09195-0.0358045-0.186831-0.0625-0.28125-0.0303323-0.106618-0.0703894-0.203031-0.09375-0.3125-0.0728786-0.341512-0.125-0.698205-0.125-1.0625v-72c0-2.781848 2.2181517-5 5-5h72c2.781848 0 5 2.218152 5 5v72c0 0.364295-0.05212 0.720988-0.125 1.0625-0.04415 0.206893-0.08838 0.397658-0.15625 0.59375-0.0077 0.02195-0.0233 0.04069-0.03125 0.0625-0.06274 0.173739-0.138383 0.367449-0.21875 0.53125-0.04158 0.0828-0.07904 0.169954-0.125 0.25-0.0546 0.09721-0.126774 0.18835-0.1875 0.28125-0.09411 0.140965-0.204921 0.275995-0.3125 0.40625-0.143174 0.17445-0.303141 0.346998-0.46875 0.5-0.01117 0.0102-0.01998 0.02115-0.03125 0.03125-0.138386 0.125556-0.285091 0.234436-0.4375 0.34375-0.102571 0.07315-0.204318 0.153364-0.3125 0.21875-0.0074 0.0045-0.02384-0.0044-0.03125 0-0.232039 0.138728-0.462548 0.274778-0.71875 0.375 0.301527-0.0968 0.596455-0.204138 0.875-0.34375 0.55709-0.279224 1.060053-0.665694 1.5-1.09375 0.219973-0.214028 0.409366-0.441865 0.59375-0.6875s0.355408-0.507743 0.5-0.78125c0.14012-0.265048 0.276135-0.524729 0.375-0.8125 0.01041-0.03078 0.02133-0.06274 0.03125-0.09375 0.09046-0.278085 0.1388-0.579404 0.1875-0.875 0.0524-0.31805 0.09375-0.634029 0.09375-0.96875v-72c0-3.324-2.676-6-6-6z" style="fill:url(#linearGradient3188);opacity:.5"/>
  <path id="rect3101" d="m12 6c-3.324 0-6 2.676-6 6v8h84v-8c0-3.324-2.676-6-6-6z" style="color:#000000;fill:url(#linearGradient3880)"/>
  <path id="path3615" d="m12 90c-3.324 0-6-2.676-6-6v-72c0-0.334721 0.04135-0.6507 0.09375-0.96875 0.0487-0.295596 0.09704-0.596915 0.1875-0.875 0.00988-0.03038 0.020892-0.0636 0.03125-0.09375 0.098865-0.287771 0.2348802-0.547452 0.375-0.8125 0.1445918-0.273507 0.3156161-0.535615 0.5-0.78125s0.3737765-0.473472 0.59375-0.6875c0.439947-0.428056 0.94291-0.814526 1.5-1.09375 0.278545-0.139612 0.5734731-0.246947 0.875-0.34375-0.2562018 0.100222-0.4867109 0.236272-0.71875 0.375-0.00741 0.0044-0.023866-0.0045-0.03125 0-0.031933 0.0193-0.062293 0.04251-0.09375 0.0625-0.120395 0.0767-0.2310226 0.163513-0.34375 0.25-0.1061728 0.0808-0.2132809 0.161112-0.3125 0.25-0.1779299 0.161433-0.3474596 0.345388-0.5 0.53125-0.1075789 0.130255-0.2183939 0.265285-0.3125 0.40625-0.025089 0.03838-0.038446 0.08587-0.0625 0.125-0.064763 0.103032-0.1302275 0.204517-0.1875 0.3125-0.1010083 0.194706-0.2056748 0.415701-0.28125 0.625-0.00796 0.02181-0.023589 0.04055-0.03125 0.0625-0.0318251 0.09195-0.0358045 0.186831-0.0625 0.28125-0.0303323 0.106618-0.0703894 0.203031-0.09375 0.3125-0.0728786 0.341512-0.125 0.698205-0.125 1.0625v72c0 2.781848 2.2181517 5 5 5h72c2.781848 0 5-2.218152 5-5v-72c0-0.364295-0.05212-0.720988-0.125-1.0625-0.04415-0.206893-0.08838-0.397658-0.15625-0.59375-0.0077-0.02195-0.0233-0.04069-0.03125-0.0625-0.06274-0.173739-0.138383-0.367449-0.21875-0.53125-0.04158-0.0828-0.07904-0.169954-0.125-0.25-0.0546-0.09721-0.126774-0.18835-0.1875-0.28125-0.09411-0.140965-0.204921-0.275995-0.3125-0.40625-0.143174-0.17445-0.303141-0.346998-0.46875-0.5-0.01117-0.0102-0.01998-0.02115-0.03125-0.03125-0.138386-0.125556-0.285091-0.234436-0.4375-0.34375-0.102571-0.07315-0.204318-0.153364-0.3125-0.21875-0.0074-0.0045-0.02384 0.0044-0.03125 0-0.232039-0.138728-0.462548-0.274778-0.71875-0.375 0.301527 0.0968 0.596455 0.204138 0.875 0.34375 0.55709 0.279224 1.060053 0.665694 1.5 1.09375 0.219973 0.214028 0.409366 0.441865 0.59375 0.6875s0.355408 0.507743 0.5 0.78125c0.14012 0.265048 0.276135 0.524729 0.375 0.8125 0.01041 0.03078 0.02133 0.06274 0.03125 0.09375 0.09046 0.278085 0.1388 0.579404 0.1875 0.875 0.0524 0.31805 0.09375 0.634029 0.09375 0.96875v72c0 3.324-2.676 6-6 6z" style="fill:url(#radialGradient3619);opacity:.2"/>
  <rect id="rect3674" x="11" y="27" width="74" height="56.000008" style="color:#000000;fill:url(#linearGradient3684);opacity:.98999999"/>
  <rect id="rect3676" x="12" y="28" width="72" height="54.000008" style="color:#000000;fill:#ffffff;opacity:.98999999"/>
  <g id="g3715" transform="matrix(.64183214 0 0 .64183214 12.050235 4.0810104)" style="fill:#000000">
   <path id="path3717" d="m19.026227 14.949776c-4e-6 0.255209-0.04427 0.485678-0.132813 0.691406-0.08594 0.203126-0.213545 0.377605-0.382812 0.523437-0.16667 0.14323-0.372399 0.253907-0.617188 0.332032-0.242189 0.07813-0.520835 0.117187-0.835937 0.117187-0.276043 0-0.54297-0.02865-0.800781-0.08594-0.255209-0.05729-0.492188-0.143229-0.710938-0.257813v-1.125c0.125 0.0599 0.251302 0.118491 0.378906 0.175781 0.127604 0.05469 0.25651 0.104168 0.386719 0.148438 0.132811 0.04427 0.264322 0.07943 0.394531 0.105469 0.132811 0.02604 0.264322 0.03906 0.394532 0.03906 0.13281 1e-6 0.246091-0.01432 0.339843-0.04297 0.09635-0.03125 0.173175-0.07292 0.230469-0.125 0.05989-0.05469 0.102862-0.118488 0.128906-0.191406 0.02864-0.07552 0.04297-0.15755 0.04297-0.246094-2e-6 -0.106769-0.02344-0.200519-0.07031-0.28125-0.04427-0.08333-0.108076-0.160154-0.191407-0.230468-0.08073-0.07292-0.179689-0.143227-0.296875-0.210938-0.114585-0.06771-0.243491-0.13932-0.386718-0.214844-0.119794-0.0625-0.253908-0.138018-0.402344-0.226562-0.148439-0.08854-0.289064-0.197914-0.421875-0.328125-0.130209-0.132809-0.239584-0.291663-0.328125-0.476563-0.08854-0.187496-0.132813-0.411454-0.132813-0.671875 0-0.255203 0.04167-0.483068 0.125-0.683593 0.08594-0.20312 0.207031-0.373693 0.363282-0.511719 0.156249-0.14062 0.345051-0.24739 0.566406-0.320313 0.223957-0.07291 0.473956-0.109369 0.75-0.109375 0.138018 6e-6 0.272133 0.0091 0.402344 0.02734 0.132809 0.01824 0.263018 0.04428 0.390625 0.07813 0.130205 0.03386 0.260413 0.07553 0.390625 0.125 0.130205 0.04949 0.264319 0.106776 0.402343 0.171875l-0.390625 0.941406c-0.11719-0.05468-0.226565-0.10286-0.328125-0.144531-0.101565-0.04166-0.200523-0.07682-0.296875-0.105469-0.09636-0.02864-0.191408-0.04947-0.285156-0.0625-0.09115-0.01562-0.183596-0.02343-0.277344-0.02344-0.203127 5e-6 -0.359376 0.05469-0.46875 0.164062-0.106772 0.106776-0.160157 0.250005-0.160156 0.429688-1e-6 0.09636 0.01562 0.182296 0.04687 0.257812 0.03385 0.07292 0.08594 0.141931 0.15625 0.207032 0.07292 0.06511 0.165363 0.131514 0.277344 0.199218 0.114581 0.06771 0.252602 0.144535 0.414062 0.230469 0.19531 0.10417 0.374998 0.210941 0.539063 0.320313 0.164059 0.106773 0.304684 0.226565 0.421875 0.359375 0.119788 0.130211 0.212236 0.278648 0.277344 0.445312 0.0651 0.166669 0.09765 0.361981 0.09766 0.585938" style="fill:#000000"/>
   <path id="path3719" d="m19.366071 12.168526h1.304687l0.703125 2.457031c0.04167 0.135418 0.07161 0.279949 0.08984 0.433594 0.02083 0.153647 0.03385 0.291668 0.03906 0.414062h0.02344c0.0052-0.05989 0.01172-0.126301 0.01953-0.199219 0.01042-0.07292 0.02213-0.147134 0.03516-0.222656 0.01302-0.07552 0.02734-0.149738 0.04297-0.222656 0.01823-0.07552 0.03646-0.143227 0.05469-0.203125l0.6875-2.457031h1.3125l-1.726563 4.925781c-0.161461 0.460936-0.381512 0.803384-0.660156 1.027344-0.278647 0.223956-0.627605 0.335935-1.046875 0.335937-0.135417-2e-6 -0.252605-0.0078-0.351563-0.02344-0.09896-0.01302-0.183594-0.02735-0.253906-0.04297v-0.945313c0.05469 0.01302 0.123698 0.02474 0.207031 0.03516 0.08333 0.01041 0.170573 0.01562 0.261719 0.01563 0.124999-1e-6 0.23177-0.01693 0.320313-0.05078 0.08854-0.03385 0.164061-0.08203 0.226562-0.144531 0.0651-0.0599 0.119791-0.132813 0.164063-0.21875 0.04687-0.08594 0.08724-0.182292 0.121093-0.289062l0.07422-0.21875-1.648437-4.40625" style="fill:#000000"/>
   <path id="path3721" d="m27.213727 15.238838c-4e-6 0.229168-0.04167 0.429689-0.125 0.601563-0.08334 0.171875-0.201826 0.315104-0.355469 0.429687-0.153648 0.114584-0.339846 0.200521-0.558594 0.257813-0.218752 0.05729-0.463543 0.08594-0.734375 0.08594-0.14323 0-0.276043-0.0052-0.398437-0.01563-0.122397-0.0078-0.238282-0.02214-0.347656-0.04297-0.109376-0.02083-0.214845-0.04687-0.316407-0.07813-0.101563-0.03125-0.204427-0.07031-0.308593-0.117187v-0.984375c0.109374 0.05469 0.223957 0.104168 0.34375 0.148437 0.122395 0.04427 0.243488 0.08333 0.363281 0.117188 0.11979 0.03125 0.235676 0.05599 0.347656 0.07422 0.114582 0.01823 0.220051 0.02734 0.316406 0.02734 0.106769 1e-6 0.197915-0.0091 0.273438-0.02734 0.07552-0.02083 0.136717-0.04818 0.183594-0.08203 0.04948-0.03646 0.08463-0.07812 0.105468-0.125 0.02344-0.04948 0.03515-0.101561 0.03516-0.15625-3e-6 -0.05469-0.0091-0.102863-0.02734-0.144531-0.01563-0.04427-0.05339-0.08984-0.113281-0.136719-0.0599-0.04948-0.14844-0.104165-0.265625-0.164062-0.114585-0.0625-0.269533-0.138019-0.464844-0.226563-0.190105-0.08593-0.35547-0.17057-0.496094-0.253906-0.138021-0.08593-0.252605-0.180987-0.34375-0.285156-0.08854-0.104164-0.154948-0.222654-0.199219-0.355469-0.04427-0.135414-0.06641-0.29557-0.06641-0.480469 0-0.203121 0.03906-0.380204 0.117188-0.53125 0.07812-0.153641 0.188801-0.281246 0.332031-0.382812 0.143228-0.101558 0.315103-0.177079 0.515625-0.226563 0.203123-0.05208 0.428384-0.07812 0.675781-0.07813 0.260415 5e-6 0.50781 0.02995 0.742188 0.08984 0.234372 0.0599 0.475257 0.149744 0.722656 0.269531l-0.359375 0.84375c-0.19792-0.09375-0.386721-0.170569-0.566406-0.230468-0.17969-0.05989-0.359377-0.08984-0.539063-0.08984-0.16146 4e-6 -0.278647 0.02865-0.351562 0.08594-0.07031 0.0573-0.105471 0.13542-0.105469 0.234375-2e-6 0.05209 0.0091 0.09896 0.02734 0.140625 0.01823 0.03907 0.05469 0.08073 0.109375 0.125 0.05468 0.04167 0.131508 0.08854 0.230468 0.140625 0.09896 0.04948 0.227863 0.11068 0.386719 0.183594 0.184894 0.08073 0.35156 0.161461 0.5 0.242188 0.148435 0.07813 0.276039 0.167971 0.382813 0.269531 0.106767 0.101564 0.188798 0.220054 0.246093 0.355469 0.05729 0.135418 0.08593 0.29948 0.08594 0.492187" style="fill:#000000"/>
   <path id="path3723" d="m29.920758 15.664619c0.117185 1e-6 0.227862-0.01302 0.332031-0.03906 0.106768-0.02604 0.214841-0.05859 0.324219-0.09766v0.886718c-0.111982 0.05729-0.251305 0.104167-0.417969 0.140625-0.164064 0.03906-0.343752 0.05859-0.539062 0.05859-0.190106 0-0.367189-0.02214-0.53125-0.06641-0.164064-0.04427-0.305991-0.121094-0.425781-0.230469-0.119793-0.111979-0.214845-0.260416-0.285157-0.445312-0.06771-0.187499-0.101563-0.421874-0.101562-0.703125v-2.105469h-0.570313v-0.503906l0.65625-0.398438 0.34375-0.921875h0.761719v0.929688h1.0625v0.894531h-1.0625v2.105469c-2e-6 0.169272 0.04167 0.294272 0.125 0.375 0.08333 0.08073 0.192706 0.121094 0.328125 0.121093" style="fill:#000000"/>
   <path id="path3725" d="m33.225446 12.934151c-0.21094 3e-6 -0.386721 0.07422-0.527344 0.222656-0.138023 0.148441-0.21745 0.381513-0.238281 0.699219h1.519531c-0.0026-0.13281-0.01953-0.255206-0.05078-0.367188-0.03125-0.111976-0.07813-0.20833-0.140625-0.289062-0.0625-0.08333-0.140628-0.148434-0.234375-0.195313-0.09375-0.04687-0.203128-0.07031-0.328125-0.07031m0.152343 3.679687c-0.312502 0-0.600262-0.04557-0.863281-0.136719-0.263022-0.09114-0.489584-0.227864-0.679687-0.410156-0.190105-0.184895-0.338543-0.416666-0.445313-0.695312-0.104167-0.281249-0.15625-0.610676-0.15625-0.988282 0-0.38281 0.04818-0.717445 0.144531-1.003906 0.09635-0.286455 0.230468-0.524736 0.402344-0.714844 0.174478-0.192704 0.382811-0.337235 0.625-0.433593 0.24479-0.09635 0.515623-0.144527 0.8125-0.144532 0.28906 5e-6 0.549476 0.04428 0.78125 0.132813 0.234372 0.08594 0.432288 0.213546 0.59375 0.382812 0.164059 0.169275 0.289059 0.377608 0.375 0.625 0.08854 0.244795 0.132808 0.526045 0.132813 0.84375v0.578125h-2.664063c0.0052 0.166669 0.03125 0.31771 0.07813 0.453125 0.04948 0.132814 0.117186 0.246095 0.203125 0.339844 0.08854 0.09115 0.194009 0.161459 0.316406 0.210938 0.124998 0.04948 0.266925 0.07422 0.425782 0.07422 0.132809 1e-6 0.257809-0.0065 0.375-0.01953 0.119788-0.01562 0.235674-0.03776 0.347656-0.06641 0.111976-0.02865 0.222653-0.0638 0.332031-0.105469 0.109371-0.04427 0.221351-0.09505 0.335938-0.152344v0.921875c-0.104171 0.05469-0.209639 0.101563-0.316407 0.140625-0.10417 0.03646-0.214847 0.06771-0.332031 0.09375-0.117191 0.02604-0.243492 0.04427-0.378906 0.05469-0.13542 0.01302-0.283857 0.01953-0.445313 0.01953" style="fill:#000000"/>
   <path id="path3727" d="m39.866071 16.535713h-1.191407v-2.550781c-3e-6 -0.315101-0.04688-0.550778-0.140625-0.707031-0.09375-0.158851-0.240888-0.238278-0.441406-0.238282-0.151044 4e-6 -0.277346 0.03125-0.378906 0.09375-0.09896 0.0625-0.178387 0.154952-0.238281 0.277344-0.0599 0.122399-0.102867 0.273441-0.128907 0.453125-0.02604 0.17969-0.03906 0.385419-0.03906 0.617188v2.054687h-1.191406v-4.367187h0.910156l0.160156 0.558593h0.06641c0.0625-0.111975 0.136717-0.208329 0.222657-0.289062 0.08854-0.08073 0.184893-0.147131 0.289062-0.199219 0.104165-0.05208 0.214842-0.08984 0.332031-0.113281 0.117185-0.02604 0.235675-0.03906 0.355469-0.03906 0.299476 5e-6 0.553382 0.05209 0.761719 0.15625 0.210934 0.101567 0.372392 0.263025 0.484375 0.484375h0.09766c0.0625-0.111975 0.138017-0.208329 0.226563-0.289062 0.08854-0.08073 0.186193-0.147131 0.292968-0.199219 0.106766-0.05208 0.218745-0.08984 0.335938-0.113281 0.119786-0.02604 0.239578-0.03906 0.359375-0.03906 0.468744 5e-6 0.821608 0.127609 1.058594 0.382813 0.239576 0.252608 0.359368 0.658858 0.359375 1.21875v2.847656h-1.195313v-2.550781c-5e-6 -0.315101-0.04688-0.550778-0.140625-0.707031-0.09376-0.158851-0.240891-0.238278-0.441406-0.238282-0.283859 4e-6 -0.485682 0.113285-0.605469 0.339844-0.119796 0.223961-0.179692 0.545576-0.179687 0.964844v2.191406" style="fill:#000000"/>
   <path id="path3729" d="m49.061383 16.535713-0.335937-1.527344c-0.01042-0.04427-0.02474-0.106769-0.04297-0.1875-0.01563-0.08333-0.03386-0.175779-0.05469-0.277343-0.02084-0.104165-0.04297-0.21354-0.06641-0.328125-0.02084-0.117185-0.04297-0.233071-0.06641-0.347657-0.05209-0.268226-0.109378-0.557288-0.171875-0.867187h-0.02344c-0.0599 0.309899-0.114586 0.600263-0.164062 0.871094-0.02084 0.114586-0.04297 0.230471-0.06641 0.347656-0.02084 0.11719-0.04167 0.227867-0.0625 0.332031-0.02084 0.101565-0.04037 0.194012-0.05859 0.277344-0.01563 0.08333-0.02865 0.148439-0.03906 0.195312l-0.351562 1.511719h-1.28125l-1.175781-4.367187h1.183593l0.441407 1.933593c0.02344 0.101565 0.04687 0.223961 0.07031 0.367188 0.02604 0.140627 0.04948 0.283856 0.07031 0.429687 0.02343 0.143231 0.04427 0.27995 0.0625 0.410157 0.01823 0.127605 0.03255 0.229167 0.04297 0.304687h0.02344c0.0026-0.04948 0.0078-0.11328 0.01563-0.191406 0.01042-0.08073 0.02213-0.166665 0.03516-0.257813 0.01302-0.09114 0.02604-0.183592 0.03906-0.277343 0.01562-0.09635 0.02995-0.186196 0.04297-0.269532 0.01562-0.08333 0.02864-0.156247 0.03906-0.21875 0.01302-0.0651 0.02343-0.110674 0.03125-0.136718l0.476562-2.09375h1.3125l0.457032 2.09375c0.01302 0.05729 0.02994 0.145835 0.05078 0.265625 0.02083 0.119793 0.04166 0.248699 0.0625 0.386718 0.02343 0.135419 0.04296 0.268231 0.05859 0.398438 0.01562 0.127605 0.02473 0.227866 0.02734 0.300781h0.02344c0.0078-0.0651 0.02083-0.161457 0.03906-0.289062 0.02083-0.127603 0.04297-0.264322 0.06641-0.410157 0.02343-0.148435 0.04817-0.295571 0.07422-0.441406 0.02864-0.145831 0.05468-0.269529 0.07813-0.371094l0.457032-1.933593h1.167968l-1.191406 4.367187h-1.296875" style="fill:#000000"/>
   <path id="path3731" d="m52.127789 11.039619c0-0.111973 0.01693-0.204421 0.05078-0.277343 0.03385-0.07551 0.07943-0.135411 0.136718-0.179688 0.0599-0.04687 0.128906-0.07942 0.207032-0.09766 0.08073-0.01822 0.165363-0.02734 0.253906-0.02734 0.08854 6e-6 0.171874 0.0091 0.25 0.02734 0.07812 0.01823 0.145832 0.05079 0.203125 0.09766 0.05989 0.04428 0.106769 0.104173 0.140625 0.179688 0.03646 0.07292 0.05469 0.16537 0.05469 0.277343-1e-6 0.109381-0.01823 0.201829-0.05469 0.277344-0.03386 0.07553-0.08073 0.136724-0.140625 0.183594-0.05729 0.04428-0.125002 0.07683-0.203125 0.09766-0.07813 0.01823-0.16146 0.02735-0.25 0.02734-0.08854 5e-6 -0.173178-0.0091-0.253906-0.02734-0.07813-0.02083-0.147136-0.05338-0.207032-0.09766-0.05729-0.04687-0.102865-0.108068-0.136718-0.183594-0.03385-0.07551-0.05078-0.167963-0.05078-0.277344m1.242188 5.496094h-1.191406v-4.367187h1.191406v4.367187" style="fill:#000000"/>
   <path id="path3733" d="m58.405133 16.535713h-1.191406v-2.550781c-3e-6 -0.315101-0.04818-0.550778-0.144531-0.707031-0.09375-0.158851-0.244795-0.238278-0.453125-0.238282-0.156253 4e-6 -0.286461 0.03125-0.390625 0.09375-0.104169 0.0625-0.187502 0.154952-0.25 0.277344-0.0599 0.122399-0.102867 0.273441-0.128907 0.453125-0.02604 0.17969-0.03906 0.385419-0.03906 0.617188v2.054687h-1.191406v-4.367187h0.910156l0.160156 0.558593h0.06641c0.0625-0.111975 0.138019-0.208329 0.226563-0.289062 0.09114-0.08073 0.190102-0.147131 0.296875-0.199219 0.106768-0.05208 0.22005-0.08984 0.339844-0.113281 0.119789-0.02604 0.242184-0.03906 0.367187-0.03906 0.213539 5e-6 0.407549 0.03125 0.582031 0.09375 0.174476 0.0599 0.324215 0.154953 0.449219 0.285157 0.124996 0.130212 0.22135 0.296878 0.289063 0.5 0.0677 0.200524 0.101558 0.441409 0.101562 0.722656v2.847656" style="fill:#000000"/>
   <path id="path3735" d="m60.916852 16.613838c-0.22396 0-0.428387-0.04818-0.613281-0.144531-0.184897-0.09635-0.343751-0.238281-0.476563-0.425781-0.132813-0.190104-0.23698-0.425781-0.3125-0.707032-0.07292-0.281248-0.109375-0.606769-0.109375-0.976562 0-0.374998 0.03646-0.703122 0.109375-0.984375 0.07552-0.283851 0.180989-0.52083 0.316406-0.710938 0.13802-0.192704 0.302083-0.337235 0.492188-0.433593 0.190103-0.09635 0.399738-0.144527 0.628906-0.144532 0.140623 5e-6 0.269529 0.01693 0.386719 0.05078 0.117185 0.03125 0.222654 0.07683 0.316406 0.136718 0.09375 0.0573 0.177081 0.125005 0.25 0.203125 0.07552 0.07553 0.141924 0.158859 0.199219 0.25h0.03906c-0.01563-0.101558-0.02995-0.204423-0.04297-0.308593-0.01302-0.08854-0.02474-0.182288-0.03516-0.28125-0.0078-0.101558-0.01172-0.195308-0.01172-0.28125v-1.398438h1.191406v6.078125h-0.910156l-0.230469-0.566406h-0.05078c-0.05469 0.08854-0.117191 0.173177-0.1875 0.253906-0.07032 0.07813-0.152347 0.145834-0.246094 0.203125-0.09115 0.05729-0.195315 0.102865-0.3125 0.136719-0.114586 0.03385-0.244794 0.05078-0.390625 0.05078m0.433594-0.949219c0.140622 1e-6 0.260414-0.02344 0.359375-0.07031 0.09896-0.04948 0.178382-0.122395 0.238281-0.21875 0.0625-0.09896 0.10807-0.221353 0.136719-0.367188 0.03125-0.145831 0.04817-0.316404 0.05078-0.511718v-0.128907c-3e-6 -0.210935-0.01302-0.398434-0.03906-0.5625-0.02604-0.164059-0.06901-0.300778-0.128906-0.410156-0.0599-0.111976-0.140628-0.196611-0.242187-0.253906-0.101565-0.05729-0.229169-0.08593-0.382813-0.08594-0.250002 4e-6 -0.433595 0.113285-0.550781 0.339844-0.117189 0.223961-0.175783 0.550784-0.175781 0.980469-2e-6 0.429689 0.05859 0.752606 0.175781 0.96875 0.11979 0.213543 0.305987 0.320313 0.558594 0.320312" style="fill:#000000"/>
   <path id="path3737" d="m65.483258 14.344307c-1e-6 0.434898 0.0612 0.763022 0.183594 0.984375 0.122394 0.218751 0.321612 0.328126 0.597656 0.328125 0.273435 1e-6 0.471352-0.110676 0.59375-0.332031 0.122393-0.221353 0.183591-0.548176 0.183594-0.980469-3e-6 -0.434893-0.0612-0.759112-0.183594-0.972656-0.122398-0.216143-0.322919-0.324216-0.601562-0.324219-0.27344 3e-6 -0.471356 0.108076-0.59375 0.324219-0.119794 0.213544-0.179689 0.537763-0.179688 0.972656m2.773438 0c-5e-6 0.364585-0.04688 0.687501-0.140625 0.96875-0.09115 0.281251-0.223963 0.51823-0.398438 0.710937-0.171878 0.192709-0.382816 0.339844-0.632812 0.441407-0.247399 0.09896-0.526045 0.148437-0.835938 0.148437-0.289064 0-0.554689-0.04948-0.796875-0.148437-0.242189-0.101563-0.451824-0.248698-0.628906-0.441407-0.17448-0.192707-0.311199-0.429686-0.410156-0.710937-0.09896-0.281249-0.148438-0.604165-0.148438-0.96875 0-0.361977 0.04557-0.683591 0.136719-0.964844 0.09375-0.281246 0.226562-0.516923 0.398437-0.707031 0.174479-0.192704 0.385416-0.338538 0.632813-0.4375 0.247394-0.09895 0.527342-0.148433 0.839844-0.148438 0.28906 5e-6 0.554684 0.04948 0.796875 0.148438 0.242184 0.09896 0.450517 0.244796 0.625 0.4375 0.177079 0.190108 0.3151 0.425785 0.414062 0.707031 0.09895 0.281253 0.148433 0.602867 0.148438 0.964844" style="fill:#000000"/>
   <path id="path3739" d="m72.623883 16.535713-0.335937-1.527344c-0.01042-0.04427-0.02474-0.106769-0.04297-0.1875-0.01563-0.08333-0.03386-0.175779-0.05469-0.277343-0.02084-0.104165-0.04297-0.21354-0.06641-0.328125-0.02084-0.117185-0.04297-0.233071-0.06641-0.347657-0.05209-0.268226-0.109378-0.557288-0.171875-0.867187h-0.02344c-0.0599 0.309899-0.114586 0.600263-0.164062 0.871094-0.02084 0.114586-0.04297 0.230471-0.06641 0.347656-0.02084 0.11719-0.04167 0.227867-0.0625 0.332031-0.02084 0.101565-0.04037 0.194012-0.05859 0.277344-0.01563 0.08333-0.02865 0.148439-0.03906 0.195312l-0.351562 1.511719h-1.28125l-1.175781-4.367187h1.183593l0.441407 1.933593c0.02344 0.101565 0.04687 0.223961 0.07031 0.367188 0.02604 0.140627 0.04948 0.283856 0.07031 0.429687 0.02343 0.143231 0.04427 0.27995 0.0625 0.410157 0.01823 0.127605 0.03255 0.229167 0.04297 0.304687h0.02344c0.0026-0.04948 0.0078-0.11328 0.01563-0.191406 0.01041-0.08073 0.02213-0.166665 0.03516-0.257813 0.01302-0.09114 0.02604-0.183592 0.03906-0.277343 0.01562-0.09635 0.02995-0.186196 0.04297-0.269532 0.01562-0.08333 0.02864-0.156247 0.03906-0.21875 0.01302-0.0651 0.02343-0.110674 0.03125-0.136718l0.476562-2.09375h1.3125l0.457032 2.09375c0.01302 0.05729 0.02994 0.145835 0.05078 0.265625 0.02083 0.119793 0.04166 0.248699 0.0625 0.386718 0.02343 0.135419 0.04296 0.268231 0.05859 0.398438 0.01562 0.127605 0.02473 0.227866 0.02734 0.300781h0.02344c0.0078-0.0651 0.02083-0.161457 0.03906-0.289062 0.02083-0.127603 0.04296-0.264322 0.06641-0.410157 0.02343-0.148435 0.04817-0.295571 0.07422-0.441406 0.02864-0.145831 0.05468-0.269529 0.07813-0.371094l0.457032-1.933593h1.167968l-1.191406 4.367187h-1.296875" style="fill:#000000"/>
  </g>
  <g id="text3686" transform="matrix(.64183214 0 0 .64183214 12.050235 3.580642)" style="fill:#ececec">
   <path id="path3691" d="m19.026227 14.949776c-4e-6 0.255209-0.04427 0.485678-0.132813 0.691406-0.08594 0.203126-0.213545 0.377605-0.382812 0.523437-0.16667 0.14323-0.372399 0.253907-0.617188 0.332032-0.242189 0.07813-0.520835 0.117187-0.835937 0.117187-0.276043 0-0.54297-0.02865-0.800781-0.08594-0.255209-0.05729-0.492188-0.143229-0.710938-0.257813v-1.125c0.125 0.0599 0.251302 0.118491 0.378906 0.175781 0.127604 0.05469 0.25651 0.104168 0.386719 0.148438 0.132811 0.04427 0.264322 0.07943 0.394531 0.105469 0.132811 0.02604 0.264322 0.03906 0.394532 0.03906 0.13281 1e-6 0.246091-0.01432 0.339843-0.04297 0.09635-0.03125 0.173175-0.07292 0.230469-0.125 0.05989-0.05469 0.102862-0.118488 0.128906-0.191406 0.02864-0.07552 0.04297-0.15755 0.04297-0.246094-2e-6 -0.106769-0.02344-0.200519-0.07031-0.28125-0.04427-0.08333-0.108076-0.160154-0.191407-0.230468-0.08073-0.07292-0.179689-0.143227-0.296875-0.210938-0.114585-0.06771-0.243491-0.13932-0.386718-0.214844-0.119794-0.0625-0.253908-0.138018-0.402344-0.226562-0.148439-0.08854-0.289064-0.197914-0.421875-0.328125-0.130209-0.132809-0.239584-0.291663-0.328125-0.476563-0.08854-0.187496-0.132813-0.411454-0.132813-0.671875 0-0.255203 0.04167-0.483068 0.125-0.683593 0.08594-0.20312 0.207031-0.373693 0.363282-0.511719 0.156249-0.14062 0.345051-0.24739 0.566406-0.320313 0.223957-0.07291 0.473956-0.109369 0.75-0.109375 0.138018 6e-6 0.272133 0.0091 0.402344 0.02734 0.132809 0.01824 0.263018 0.04428 0.390625 0.07813 0.130205 0.03386 0.260413 0.07553 0.390625 0.125 0.130205 0.04949 0.264319 0.106776 0.402343 0.171875l-0.390625 0.941406c-0.11719-0.05468-0.226565-0.10286-0.328125-0.144531-0.101565-0.04166-0.200523-0.07682-0.296875-0.105469-0.09636-0.02864-0.191408-0.04947-0.285156-0.0625-0.09115-0.01562-0.183596-0.02343-0.277344-0.02344-0.203127 5e-6 -0.359376 0.05469-0.46875 0.164062-0.106772 0.106776-0.160157 0.250005-0.160156 0.429688-1e-6 0.09636 0.01562 0.182296 0.04687 0.257812 0.03385 0.07292 0.08594 0.141931 0.15625 0.207032 0.07292 0.06511 0.165363 0.131514 0.277344 0.199218 0.114581 0.06771 0.252602 0.144535 0.414062 0.230469 0.19531 0.10417 0.374998 0.210941 0.539063 0.320313 0.164059 0.106773 0.304684 0.226565 0.421875 0.359375 0.119788 0.130211 0.212236 0.278648 0.277344 0.445312 0.0651 0.166669 0.09765 0.361981 0.09766 0.585938" style="fill:#ececec"/>
   <path id="path3693" d="m19.366071 12.168526h1.304687l0.703125 2.457031c0.04167 0.135418 0.07161 0.279949 0.08984 0.433594 0.02083 0.153647 0.03385 0.291668 0.03906 0.414062h0.02344c0.0052-0.05989 0.01172-0.126301 0.01953-0.199219 0.01042-0.07292 0.02213-0.147134 0.03516-0.222656 0.01302-0.07552 0.02734-0.149738 0.04297-0.222656 0.01823-0.07552 0.03646-0.143227 0.05469-0.203125l0.6875-2.457031h1.3125l-1.726563 4.925781c-0.161461 0.460936-0.381512 0.803384-0.660156 1.027344-0.278647 0.223956-0.627605 0.335935-1.046875 0.335937-0.135417-2e-6 -0.252605-0.0078-0.351563-0.02344-0.09896-0.01302-0.183594-0.02735-0.253906-0.04297v-0.945313c0.05469 0.01302 0.123698 0.02474 0.207031 0.03516 0.08333 0.01041 0.170573 0.01562 0.261719 0.01563 0.124999-1e-6 0.23177-0.01693 0.320313-0.05078 0.08854-0.03385 0.164061-0.08203 0.226562-0.144531 0.0651-0.0599 0.119791-0.132813 0.164063-0.21875 0.04687-0.08594 0.08724-0.182292 0.121093-0.289062l0.07422-0.21875-1.648437-4.40625" style="fill:#ececec"/>
   <path id="path3695" d="m27.213727 15.238838c-4e-6 0.229168-0.04167 0.429689-0.125 0.601563-0.08334 0.171875-0.201826 0.315104-0.355469 0.429687-0.153648 0.114584-0.339846 0.200521-0.558594 0.257813-0.218752 0.05729-0.463543 0.08594-0.734375 0.08594-0.14323 0-0.276043-0.0052-0.398437-0.01563-0.122397-0.0078-0.238282-0.02214-0.347656-0.04297-0.109376-0.02083-0.214845-0.04687-0.316407-0.07813-0.101563-0.03125-0.204427-0.07031-0.308593-0.117187v-0.984375c0.109374 0.05469 0.223957 0.104168 0.34375 0.148437 0.122395 0.04427 0.243488 0.08333 0.363281 0.117188 0.11979 0.03125 0.235676 0.05599 0.347656 0.07422 0.114582 0.01823 0.220051 0.02734 0.316406 0.02734 0.106769 1e-6 0.197915-0.0091 0.273438-0.02734 0.07552-0.02083 0.136717-0.04818 0.183594-0.08203 0.04948-0.03646 0.08463-0.07812 0.105468-0.125 0.02344-0.04948 0.03515-0.101561 0.03516-0.15625-3e-6 -0.05469-0.0091-0.102863-0.02734-0.144531-0.01563-0.04427-0.05339-0.08984-0.113281-0.136719-0.0599-0.04948-0.14844-0.104165-0.265625-0.164062-0.114585-0.0625-0.269533-0.138019-0.464844-0.226563-0.190105-0.08593-0.35547-0.17057-0.496094-0.253906-0.138021-0.08593-0.252605-0.180987-0.34375-0.285156-0.08854-0.104164-0.154948-0.222654-0.199219-0.355469-0.04427-0.135414-0.06641-0.29557-0.06641-0.480469 0-0.203121 0.03906-0.380204 0.117188-0.53125 0.07812-0.153641 0.188801-0.281246 0.332031-0.382812 0.143228-0.101558 0.315103-0.177079 0.515625-0.226563 0.203123-0.05208 0.428384-0.07812 0.675781-0.07813 0.260415 5e-6 0.50781 0.02995 0.742188 0.08984 0.234372 0.0599 0.475257 0.149744 0.722656 0.269531l-0.359375 0.84375c-0.19792-0.09375-0.386721-0.170569-0.566406-0.230468-0.17969-0.05989-0.359377-0.08984-0.539063-0.08984-0.16146 4e-6 -0.278647 0.02865-0.351562 0.08594-0.07031 0.0573-0.105471 0.13542-0.105469 0.234375-2e-6 0.05209 0.0091 0.09896 0.02734 0.140625 0.01823 0.03907 0.05469 0.08073 0.109375 0.125 0.05468 0.04167 0.131508 0.08854 0.230468 0.140625 0.09896 0.04948 0.227863 0.11068 0.386719 0.183594 0.184894 0.08073 0.35156 0.161461 0.5 0.242188 0.148435 0.07813 0.276039 0.167971 0.382813 0.269531 0.106767 0.101564 0.188798 0.220054 0.246093 0.355469 0.05729 0.135418 0.08593 0.29948 0.08594 0.492187" style="fill:#ececec"/>
   <path id="path3697" d="m29.920758 15.664619c0.117185 1e-6 0.227862-0.01302 0.332031-0.03906 0.106768-0.02604 0.214841-0.05859 0.324219-0.09766v0.886718c-0.111982 0.05729-0.251305 0.104167-0.417969 0.140625-0.164064 0.03906-0.343752 0.05859-0.539062 0.05859-0.190106 0-0.367189-0.02214-0.53125-0.06641-0.164064-0.04427-0.305991-0.121094-0.425781-0.230469-0.119793-0.111979-0.214845-0.260416-0.285157-0.445312-0.06771-0.187499-0.101563-0.421874-0.101562-0.703125v-2.105469h-0.570313v-0.503906l0.65625-0.398438 0.34375-0.921875h0.761719v0.929688h1.0625v0.894531h-1.0625v2.105469c-2e-6 0.169272 0.04167 0.294272 0.125 0.375 0.08333 0.08073 0.192706 0.121094 0.328125 0.121093" style="fill:#ececec"/>
   <path id="path3699" d="m33.225446 12.934151c-0.21094 3e-6 -0.386721 0.07422-0.527344 0.222656-0.138023 0.148441-0.21745 0.381513-0.238281 0.699219h1.519531c-0.0026-0.13281-0.01953-0.255206-0.05078-0.367188-0.03125-0.111976-0.07813-0.20833-0.140625-0.289062-0.0625-0.08333-0.140628-0.148434-0.234375-0.195313-0.09375-0.04687-0.203128-0.07031-0.328125-0.07031m0.152343 3.679687c-0.312502 0-0.600262-0.04557-0.863281-0.136719-0.263022-0.09114-0.489584-0.227864-0.679687-0.410156-0.190105-0.184895-0.338543-0.416666-0.445313-0.695312-0.104167-0.281249-0.15625-0.610676-0.15625-0.988282 0-0.38281 0.04818-0.717445 0.144531-1.003906 0.09635-0.286455 0.230468-0.524736 0.402344-0.714844 0.174478-0.192704 0.382811-0.337235 0.625-0.433593 0.24479-0.09635 0.515623-0.144527 0.8125-0.144532 0.28906 5e-6 0.549476 0.04428 0.78125 0.132813 0.234372 0.08594 0.432288 0.213546 0.59375 0.382812 0.164059 0.169275 0.289059 0.377608 0.375 0.625 0.08854 0.244795 0.132808 0.526045 0.132813 0.84375v0.578125h-2.664063c0.0052 0.166669 0.03125 0.31771 0.07813 0.453125 0.04948 0.132814 0.117186 0.246095 0.203125 0.339844 0.08854 0.09115 0.194009 0.161459 0.316406 0.210938 0.124998 0.04948 0.266925 0.07422 0.425782 0.07422 0.132809 1e-6 0.257809-0.0065 0.375-0.01953 0.119788-0.01562 0.235674-0.03776 0.347656-0.06641 0.111976-0.02865 0.222653-0.0638 0.332031-0.105469 0.109371-0.04427 0.221351-0.09505 0.335938-0.152344v0.921875c-0.104171 0.05469-0.209639 0.101563-0.316407 0.140625-0.10417 0.03646-0.214847 0.06771-0.332031 0.09375-0.117191 0.02604-0.243492 0.04427-0.378906 0.05469-0.13542 0.01302-0.283857 0.01953-0.445313 0.01953" style="fill:#ececec"/>
   <path id="path3701" d="m39.866071 16.535713h-1.191407v-2.550781c-3e-6 -0.315101-0.04688-0.550778-0.140625-0.707031-0.09375-0.158851-0.240888-0.238278-0.441406-0.238282-0.151044 4e-6 -0.277346 0.03125-0.378906 0.09375-0.09896 0.0625-0.178387 0.154952-0.238281 0.277344-0.0599 0.122399-0.102867 0.273441-0.128907 0.453125-0.02604 0.17969-0.03906 0.385419-0.03906 0.617188v2.054687h-1.191406v-4.367187h0.910156l0.160156 0.558593h0.06641c0.0625-0.111975 0.136717-0.208329 0.222657-0.289062 0.08854-0.08073 0.184893-0.147131 0.289062-0.199219 0.104165-0.05208 0.214842-0.08984 0.332031-0.113281 0.117185-0.02604 0.235675-0.03906 0.355469-0.03906 0.299476 5e-6 0.553382 0.05209 0.761719 0.15625 0.210934 0.101567 0.372392 0.263025 0.484375 0.484375h0.09766c0.0625-0.111975 0.138017-0.208329 0.226563-0.289062 0.08854-0.08073 0.186193-0.147131 0.292968-0.199219 0.106766-0.05208 0.218745-0.08984 0.335938-0.113281 0.119786-0.02604 0.239578-0.03906 0.359375-0.03906 0.468744 5e-6 0.821608 0.127609 1.058594 0.382813 0.239576 0.252608 0.359368 0.658858 0.359375 1.21875v2.847656h-1.195313v-2.550781c-5e-6 -0.315101-0.04688-0.550778-0.140625-0.707031-0.09376-0.158851-0.240891-0.238278-0.441406-0.238282-0.283859 4e-6 -0.485682 0.113285-0.605469 0.339844-0.119796 0.223961-0.179692 0.545576-0.179687 0.964844v2.191406" style="fill:#ececec"/>
   <path id="path3703" d="m49.061383 16.535713-0.335937-1.527344c-0.01042-0.04427-0.02474-0.106769-0.04297-0.1875-0.01563-0.08333-0.03386-0.175779-0.05469-0.277343-0.02084-0.104165-0.04297-0.21354-0.06641-0.328125-0.02084-0.117185-0.04297-0.233071-0.06641-0.347657-0.05209-0.268226-0.109378-0.557288-0.171875-0.867187h-0.02344c-0.0599 0.309899-0.114586 0.600263-0.164062 0.871094-0.02084 0.114586-0.04297 0.230471-0.06641 0.347656-0.02084 0.11719-0.04167 0.227867-0.0625 0.332031-0.02084 0.101565-0.04037 0.194012-0.05859 0.277344-0.01563 0.08333-0.02865 0.148439-0.03906 0.195312l-0.351562 1.511719h-1.28125l-1.175781-4.367187h1.183593l0.441407 1.933593c0.02344 0.101565 0.04687 0.223961 0.07031 0.367188 0.02604 0.140627 0.04948 0.283856 0.07031 0.429687 0.02343 0.143231 0.04427 0.27995 0.0625 0.410157 0.01823 0.127605 0.03255 0.229167 0.04297 0.304687h0.02344c0.0026-0.04948 0.0078-0.11328 0.01563-0.191406 0.01042-0.08073 0.02213-0.166665 0.03516-0.257813 0.01302-0.09114 0.02604-0.183592 0.03906-0.277343 0.01562-0.09635 0.02995-0.186196 0.04297-0.269532 0.01562-0.08333 0.02864-0.156247 0.03906-0.21875 0.01302-0.0651 0.02343-0.110674 0.03125-0.136718l0.476562-2.09375h1.3125l0.457032 2.09375c0.01302 0.05729 0.02994 0.145835 0.05078 0.265625 0.02083 0.119793 0.04166 0.248699 0.0625 0.386718 0.02343 0.135419 0.04296 0.268231 0.05859 0.398438 0.01562 0.127605 0.02473 0.227866 0.02734 0.300781h0.02344c0.0078-0.0651 0.02083-0.161457 0.03906-0.289062 0.02083-0.127603 0.04297-0.264322 0.06641-0.410157 0.02343-0.148435 0.04817-0.295571 0.07422-0.441406 0.02864-0.145831 0.05468-0.269529 0.07813-0.371094l0.457032-1.933593h1.167968l-1.191406 4.367187h-1.296875" style="fill:#ececec"/>
   <path id="path3705" d="m52.127789 11.039619c0-0.111973 0.01693-0.204421 0.05078-0.277343 0.03385-0.07551 0.07943-0.135411 0.136718-0.179688 0.0599-0.04687 0.128906-0.07942 0.207032-0.09766 0.08073-0.01822 0.165363-0.02734 0.253906-0.02734 0.08854 6e-6 0.171874 0.0091 0.25 0.02734 0.07812 0.01823 0.145832 0.05079 0.203125 0.09766 0.05989 0.04428 0.106769 0.104173 0.140625 0.179688 0.03646 0.07292 0.05469 0.16537 0.05469 0.277343-1e-6 0.109381-0.01823 0.201829-0.05469 0.277344-0.03386 0.07553-0.08073 0.136724-0.140625 0.183594-0.05729 0.04428-0.125002 0.07683-0.203125 0.09766-0.07813 0.01823-0.16146 0.02735-0.25 0.02734-0.08854 5e-6 -0.173178-0.0091-0.253906-0.02734-0.07813-0.02083-0.147136-0.05338-0.207032-0.09766-0.05729-0.04687-0.102865-0.108068-0.136718-0.183594-0.03385-0.07551-0.05078-0.167963-0.05078-0.277344m1.242188 5.496094h-1.191406v-4.367187h1.191406v4.367187" style="fill:#ececec"/>
   <path id="path3707" d="m58.405133 16.535713h-1.191406v-2.550781c-3e-6 -0.315101-0.04818-0.550778-0.144531-0.707031-0.09375-0.158851-0.244795-0.238278-0.453125-0.238282-0.156253 4e-6 -0.286461 0.03125-0.390625 0.09375-0.104169 0.0625-0.187502 0.154952-0.25 0.277344-0.0599 0.122399-0.102867 0.273441-0.128907 0.453125-0.02604 0.17969-0.03906 0.385419-0.03906 0.617188v2.054687h-1.191406v-4.367187h0.910156l0.160156 0.558593h0.06641c0.0625-0.111975 0.138019-0.208329 0.226563-0.289062 0.09114-0.08073 0.190102-0.147131 0.296875-0.199219 0.106768-0.05208 0.22005-0.08984 0.339844-0.113281 0.119789-0.02604 0.242184-0.03906 0.367187-0.03906 0.213539 5e-6 0.407549 0.03125 0.582031 0.09375 0.174476 0.0599 0.324215 0.154953 0.449219 0.285157 0.124996 0.130212 0.22135 0.296878 0.289063 0.5 0.0677 0.200524 0.101558 0.441409 0.101562 0.722656v2.847656" style="fill:#ececec"/>
   <path id="path3709" d="m60.916852 16.613838c-0.22396 0-0.428387-0.04818-0.613281-0.144531-0.184897-0.09635-0.343751-0.238281-0.476563-0.425781-0.132813-0.190104-0.23698-0.425781-0.3125-0.707032-0.07292-0.281248-0.109375-0.606769-0.109375-0.976562 0-0.374998 0.03646-0.703122 0.109375-0.984375 0.07552-0.283851 0.180989-0.52083 0.316406-0.710938 0.13802-0.192704 0.302083-0.337235 0.492188-0.433593 0.190103-0.09635 0.399738-0.144527 0.628906-0.144532 0.140623 5e-6 0.269529 0.01693 0.386719 0.05078 0.117185 0.03125 0.222654 0.07683 0.316406 0.136718 0.09375 0.0573 0.177081 0.125005 0.25 0.203125 0.07552 0.07553 0.141924 0.158859 0.199219 0.25h0.03906c-0.01563-0.101558-0.02995-0.204423-0.04297-0.308593-0.01302-0.08854-0.02474-0.182288-0.03516-0.28125-0.0078-0.101558-0.01172-0.195308-0.01172-0.28125v-1.398438h1.191406v6.078125h-0.910156l-0.230469-0.566406h-0.05078c-0.05469 0.08854-0.117191 0.173177-0.1875 0.253906-0.07032 0.07813-0.152347 0.145834-0.246094 0.203125-0.09115 0.05729-0.195315 0.102865-0.3125 0.136719-0.114586 0.03385-0.244794 0.05078-0.390625 0.05078m0.433594-0.949219c0.140622 1e-6 0.260414-0.02344 0.359375-0.07031 0.09896-0.04948 0.178382-0.122395 0.238281-0.21875 0.0625-0.09896 0.10807-0.221353 0.136719-0.367188 0.03125-0.145831 0.04817-0.316404 0.05078-0.511718v-0.128907c-3e-6 -0.210935-0.01302-0.398434-0.03906-0.5625-0.02604-0.164059-0.06901-0.300778-0.128906-0.410156-0.0599-0.111976-0.140628-0.196611-0.242187-0.253906-0.101565-0.05729-0.229169-0.08593-0.382813-0.08594-0.250002 4e-6 -0.433595 0.113285-0.550781 0.339844-0.117189 0.223961-0.175783 0.550784-0.175781 0.980469-2e-6 0.429689 0.05859 0.752606 0.175781 0.96875 0.11979 0.213543 0.305987 0.320313 0.558594 0.320312" style="fill:#ececec"/>
   <path id="path3711" d="m65.483258 14.344307c-1e-6 0.434898 0.0612 0.763022 0.183594 0.984375 0.122394 0.218751 0.321612 0.328126 0.597656 0.328125 0.273435 1e-6 0.471352-0.110676 0.59375-0.332031 0.122393-0.221353 0.183591-0.548176 0.183594-0.980469-3e-6 -0.434893-0.0612-0.759112-0.183594-0.972656-0.122398-0.216143-0.322919-0.324216-0.601562-0.324219-0.27344 3e-6 -0.471356 0.108076-0.59375 0.324219-0.119794 0.213544-0.179689 0.537763-0.179688 0.972656m2.773438 0c-5e-6 0.364585-0.04688 0.687501-0.140625 0.96875-0.09115 0.281251-0.223963 0.51823-0.398438 0.710937-0.171878 0.192709-0.382816 0.339844-0.632812 0.441407-0.247399 0.09896-0.526045 0.148437-0.835938 0.148437-0.289064 0-0.554689-0.04948-0.796875-0.148437-0.242189-0.101563-0.451824-0.248698-0.628906-0.441407-0.17448-0.192707-0.311199-0.429686-0.410156-0.710937-0.09896-0.281249-0.148438-0.604165-0.148438-0.96875 0-0.361977 0.04557-0.683591 0.136719-0.964844 0.09375-0.281246 0.226562-0.516923 0.398437-0.707031 0.174479-0.192704 0.385416-0.338538 0.632813-0.4375 0.247394-0.09895 0.527342-0.148433 0.839844-0.148438 0.28906 5e-6 0.554684 0.04948 0.796875 0.148438 0.242184 0.09896 0.450517 0.244796 0.625 0.4375 0.177079 0.190108 0.3151 0.425785 0.414062 0.707031 0.09895 0.281253 0.148433 0.602867 0.148438 0.964844" style="fill:#ececec"/>
   <path id="path3713" d="m72.623883 16.535713-0.335937-1.527344c-0.01042-0.04427-0.02474-0.106769-0.04297-0.1875-0.01563-0.08333-0.03386-0.175779-0.05469-0.277343-0.02084-0.104165-0.04297-0.21354-0.06641-0.328125-0.02084-0.117185-0.04297-0.233071-0.06641-0.347657-0.05209-0.268226-0.109378-0.557288-0.171875-0.867187h-0.02344c-0.0599 0.309899-0.114586 0.600263-0.164062 0.871094-0.02084 0.114586-0.04297 0.230471-0.06641 0.347656-0.02084 0.11719-0.04167 0.227867-0.0625 0.332031-0.02084 0.101565-0.04037 0.194012-0.05859 0.277344-0.01563 0.08333-0.02865 0.148439-0.03906 0.195312l-0.351562 1.511719h-1.28125l-1.175781-4.367187h1.183593l0.441407 1.933593c0.02344 0.101565 0.04687 0.223961 0.07031 0.367188 0.02604 0.140627 0.04948 0.283856 0.07031 0.429687 0.02343 0.143231 0.04427 0.27995 0.0625 0.410157 0.01823 0.127605 0.03255 0.229167 0.04297 0.304687h0.02344c0.0026-0.04948 0.0078-0.11328 0.01563-0.191406 0.01041-0.08073 0.02213-0.166665 0.03516-0.257813 0.01302-0.09114 0.02604-0.183592 0.03906-0.277343 0.01562-0.09635 0.02995-0.186196 0.04297-0.269532 0.01562-0.08333 0.02864-0.156247 0.03906-0.21875 0.01302-0.0651 0.02343-0.110674 0.03125-0.136718l0.476562-2.09375h1.3125l0.457032 2.09375c0.01302 0.05729 0.02994 0.145835 0.05078 0.265625 0.02083 0.119793 0.04166 0.248699 0.0625 0.386718 0.02343 0.135419 0.04296 0.268231 0.05859 0.398438 0.01562 0.127605 0.02473 0.227866 0.02734 0.300781h0.02344c0.0078-0.0651 0.02083-0.161457 0.03906-0.289062 0.02083-0.127603 0.04296-0.264322 0.06641-0.410157 0.02343-0.148435 0.04817-0.295571 0.07422-0.441406 0.02864-0.145831 0.05468-0.269529 0.07813-0.371094l0.457032-1.933593h1.167968l-1.191406 4.367187h-1.296875" style="fill:#ececec"/>
  </g>
  <path id="path3882" d="m12 6c-3.324 0-6 2.676-6 6v8h1v-7c0-2.781848 2.2181517-5 5-5h72c2.781848 0 5 2.218152 5 5v7h1v-8c0-3.324-2.676-6-6-6z" style="fill:url(#linearGradient3188);opacity:.05"/>
  <path id="path3961" d="m72.83431 12.500001c0 1.740142 1.425548 3.16569 3.16569 3.16569 1.740143 0 3.16569-1.425548 3.16569-3.16569 0-1.740143-1.425547-3.1656903-3.16569-3.1656903-1.740142 0-3.16569 1.4255473-3.16569 3.1656903z" style="color:#000000;fill:url(#linearGradient965);stroke-width:.83333331"/>
  <circle id="path3963" transform="matrix(0,1,1,0,0,0)" cx="12.500001" cy="76" r="2.5" style="color:#000000;fill:url(#linearGradient967);stroke-width:.83333331"/>
  <path id="path3965" d="m76 10c-1.380712 0-2.5 1.119288-2.5 2.5 0 0.08629 0.02272 0.165957 0.03125 0.25 0.128025-1.26064 1.174333-2.25 2.46875-2.25s2.340725 0.98936 2.46875 2.25c0.008535-0.084043 0.03125-0.163706 0.03125-0.25 0-1.380712-1.119288-2.5-2.5-2.5z" style="color:#000000;fill:#ffffff;opacity:.3"/>
  <path id="path3971" d="m66.83431 12.500001c0 1.740142 1.425548 3.16569 3.16569 3.16569 1.740143 0 3.16569-1.425548 3.16569-3.16569 0-1.740143-1.425547-3.1656903-3.16569-3.1656903-1.740142 0-3.16569 1.4255473-3.16569 3.1656903z" style="color:#000000;fill:url(#linearGradient969);stroke-width:.83333331"/>
  <circle id="path3973" transform="matrix(0,1,1,0,0,0)" cx="12.500001" cy="70" r="2.5" style="color:#000000;fill:url(#linearGradient3969);stroke-width:.83333331"/>
  <path id="path3975" d="m70 10c-1.380712 0-2.5 1.119288-2.5 2.5 0 0.08629 0.02272 0.165957 0.03125 0.25 0.128025-1.26064 1.174333-2.25 2.46875-2.25s2.340725 0.98936 2.46875 2.25c0.008535-0.084043 0.03125-0.163706 0.03125-0.25 0-1.380712-1.119288-2.5-2.5-2.5z" style="color:#000000;fill:#ffffff;opacity:.3"/>
  <path id="path3948-6" d="m78.83431 12.500001c0 1.740142 1.425548 3.16569 3.16569 3.16569 1.740143 0 3.16569-1.425548 3.16569-3.16569 0-1.740143-1.425547-3.1656903-3.16569-3.1656903-1.740142 0-3.16569 1.4255473-3.16569 3.1656903z" style="color:#000000;fill:url(#linearGradient3959);stroke-width:.83333331"/>
  <circle id="path3889-0" transform="rotate(-90)" cx="-12.500001" cy="82" r="2.5" style="color:#000000;fill:url(#linearGradient3924-7);stroke-width:.83333331"/>
  <path id="path3935-6" d="m82 10c-1.380712 0-2.5 1.119288-2.5 2.5 0 0.08629 0.02271 0.165957 0.03125 0.25 0.128025-1.26064 1.174333-2.25 2.46875-2.25s2.340725 0.98936 2.46875 2.25c0.008535-0.084043 0.03125-0.163706 0.03125-0.25 0-1.380712-1.119288-2.5-2.5-2.5z" style="color:#000000;fill:#ffffff;opacity:.2"/>
  <path id="path3981-5" d="m10.83431 12.500001c0 1.740142 1.425548 3.16569 3.16569 3.16569 1.740143 0 3.16569-1.425548 3.16569-3.16569 0-1.740143-1.425547-3.1656903-3.16569-3.1656903-1.740142 0-3.16569 1.4255473-3.16569 3.1656903z" style="color:#000000;fill:url(#linearGradient959);stroke-width:.83333331"/>
  <circle id="path3983-6" transform="rotate(-90)" cx="-12.500001" cy="14" r="2.5" style="color:#000000;fill:url(#linearGradient961);stroke-width:.83333331"/>
  <path id="path3985-2" d="m14 10c-1.380712 0-2.5 1.119288-2.5 2.5 0 0.08629 0.02272 0.165957 0.03125 0.25 0.128025-1.26064 1.174333-2.25 2.46875-2.25s2.340725 0.98936 2.46875 2.25c0.008535-0.084043 0.03125-0.163706 0.03125-0.25 0-1.380712-1.119288-2.5-2.5-2.5z" style="color:#000000;fill:#ffffff;opacity:.2"/>
 </g>
</svg>
