<!-- Created with Inkscape (http://www.inkscape.org/) -->
<svg id="svg2408" width="96" height="96" version="1.0" xmlns="http://www.w3.org/2000/svg" xmlns:xlink="http://www.w3.org/1999/xlink">
 <defs id="defs2410">
  <linearGradient id="linearGradient3361" x1="48.035713" x2="48.035713" y1="25.910715" y2="85.821426" gradientTransform="scale(1.0598527 .9435274)" gradientUnits="userSpaceOnUse">
   <stop id="stop3319" style="stop-color:#67a33d" offset="0"/>
   <stop id="stop3321" style="stop-color:#58992b" offset="1"/>
  </linearGradient>
  <linearGradient id="ButtonShadow" x1="45.447727" x2="45.447727" y1="80.471962" y2="7.0165396" gradientTransform="matrix(1.0058652 0 0 .994169 0 12)" gradientUnits="userSpaceOnUse">
   <stop id="stop3750" style="stop-color:#000000" offset="0"/>
   <stop id="stop3752" style="stop-color:#000000;stop-opacity:.58823532" offset="1"/>
  </linearGradient>
  <linearGradient id="linearGradient3706" x1="48" x2="48" y1="78" y2="5.9877172" gradientTransform="translate(0,8)" gradientUnits="userSpaceOnUse">
   <stop id="stop3189" style="stop-color:#6ab534" offset="0"/>
   <stop id="stop3191" style="stop-color:#84cd4f" offset="1"/>
  </linearGradient>
  <filter id="filter3174" color-interpolation-filters="sRGB">
   <feGaussianBlur id="feGaussianBlur3176" stdDeviation="1.71"/>
  </filter>
  <linearGradient id="linearGradient3664" x1="45.447727" x2="45.447727" y1="80.471962" y2="5.297224" gradientTransform="matrix(1.0058652 0 0 .994169 0 12)" gradientUnits="userSpaceOnUse" xlink:href="#ButtonShadow"/>
  <clipPath id="clipPath3860">
   <rect id="rect3862" x="6" y="18" width="84" height="72" rx="6" ry="6" style="fill:#ff00ff"/>
  </clipPath>
  <filter id="filter3870" x="-.16558799" y="-.19715989" width="1.331176" height="1.3943198" color-interpolation-filters="sRGB">
   <feGaussianBlur id="feGaussianBlur3872" stdDeviation="5.1703125"/>
  </filter>
  <linearGradient id="linearGradient3123" x1="48.021698" x2="48.021698" y1="22.933374" y2="81.481377" gradientUnits="userSpaceOnUse">
   <stop id="stop3876" style="stop-color:#ffffff" offset="0"/>
   <stop id="stop3878" style="stop-color:#ffffff;stop-opacity:0" offset="1"/>
  </linearGradient>
  <linearGradient id="linearGradient3105" x1="34.85965" x2="34.85965" y1="16.275133" y2="26.986736" gradientTransform="matrix(.72 0 0 .72 1.92 -5.52)" gradientUnits="userSpaceOnUse">
   <stop id="stop4010" style="stop-color:#84cd4f" offset="0"/>
   <stop id="stop4012" style="stop-color:#6ab534" offset=".71691591"/>
   <stop id="stop4014" style="stop-color:#58992b" offset="1"/>
  </linearGradient>
  <linearGradient id="linearGradient3952" x1="43" x2="43" y1="91" y2="7" gradientUnits="userSpaceOnUse" xlink:href="#ButtonShadow"/>
  <linearGradient id="linearGradient3961" x1="45" x2="45" y1="92" y2="7" gradientUnits="userSpaceOnUse" xlink:href="#ButtonShadow"/>
  <radialGradient id="radialGradient2874" cx="48" cy="90.171875" r="42" gradientTransform="matrix(1.1573129 0 0 .99590774 -7.551021 .197132)" gradientUnits="userSpaceOnUse">
   <stop id="stop3739-0" style="stop-color:#ffffff" offset="0"/>
   <stop id="stop3741-4" style="stop-color:#ffffff;stop-opacity:0" offset="1"/>
  </radialGradient>
  <linearGradient id="linearGradient3080" x1="36.357143" x2="36.357143" y1="16" y2="73.994667" gradientUnits="userSpaceOnUse">
   <stop id="stop3739" style="stop-color:#ffffff" offset="0"/>
   <stop id="stop3741" style="stop-color:#ffffff;stop-opacity:0" offset="1"/>
  </linearGradient>
 </defs>
 <g id="layer2" style="display:none">
  <path id="rect3745" d="m14.96875 8.8028918c-1.63984 0-2.96875 1.2822502-2.96875 2.8750002v7.322108c-3.324 0-7 2.676-7 6v61c0 3.324 2.676 6 6 6h74c3.324 0 6-2.676 6-6v-61c0-3.324-3.74743-6-7.07143-6v-0.134608c0-2.389125-1.97774-4.3125-4.4375-4.3125h-43.33482l-1.46875-2.875c-0.73336-1.424599-1.32891-2.8750002-2.96875-2.8750002h-16.75z" style="fill:url(#linearGradient3664);filter:url(#filter3174);opacity:.9"/>
 </g>
 <g id="layer4">
  <path id="path3984" d="m14.125 4c-4.4339296 0-8.125 3.568413-8.125 8v2.15625c-2.3764039 1.802117-4 4.602795-4 7.84375v63c0 5.503629 4.496371 10 10 10h72c5.503629 0 10-4.496371 10-10v-63c0-3.483399-1.853393-6.453106-4.53125-8.21875-0.987199-3.289512-3.942726-5.78125-7.59375-5.78125h-39.5c-1.402648-1.354823-2.539671-2.5096216-3.6875-3.15625-1.495213-0.8423269-2.930851-0.8142088-3.8125-0.84375a0.92780092 0.92780092 0 0 0-0.03125 0c-0.0012-1.73e-5 -0.03009-1.73e-5 -0.03125 0h-0.03125-20.65625z" style="fill:url(#linearGradient3961);opacity:.07999998"/>
  <path id="path3975" d="m14.125 4.9375c-3.940593 0-7.1875 3.1432925-7.1875 7.0625v2.59375c-2.3826099 1.622076-4 4.293928-4 7.40625v63c0 5.001444 4.0610559 9.0625 9.0625 9.0625h72c5.001444 0 9.0625-4.061056 9.0625-9.0625v-63c0-3.260846-1.77319-6.039741-4.34375-7.625-0.761191-3.095675-3.477261-5.4375-6.84375-5.4375h-39.8125c-1.597479-1.5411943-2.772062-2.6775158-3.84375-3.28125-1.273179-0.7172441-2.447473-0.6876716-3.375-0.71875a1.043776 1.043776 0 0 0-0.03125 0h-0.03125-20.65625z" style="fill:url(#linearGradient3961);opacity:.1"/>
  <path id="path3967" d="m14.125 5.96875c-3.388674 0-6.15625 2.6880206-6.15625 6.03125v3.125c-2.3751432 1.394016-4 3.920462-4 6.875v63c0 4.438141 3.5931086 8.03125 8.03125 8.03125h72c4.438141 0 8.03125-3.593109 8.03125-8.03125v-63c0-3.031992-1.712245-5.604362-4.1875-6.96875-0.491893-2.85962-2.928643-5.0625-5.96875-5.0625h-40.1875c-1.834833-1.7748421-3.008637-2.8653713-3.96875-3.40625-1.037275-0.5843477-1.940446-0.5613891-2.90625-0.59375a1.043776 1.043776 0 0 0-0.03125 0h-20.65625z" style="fill:url(#linearGradient3961);opacity:.2"/>
  <path id="path3908-1" d="m14.125 7c-2.842895 0-5.125 2.23-5.125 5v3.6875c-2.3640592 1.121384-4 3.512842-4 6.3125v63c0 3.878 3.122 7 7 7h72c3.878 0 7-3.122 7-7v-63c0-2.809736-1.653368-5.196371-4.03125-6.3125-0.169649-2.618425-2.362165-4.6875-5.09375-4.6875h-40.59375c-4.220528-4.1123102-4.502768-3.9330794-6.5-4h-20.65625z" style="fill:url(#linearGradient3961);opacity:.3"/>
  <path id="path3941" d="m15 7c-2.77 0-5 2.23-5 5v3.34375c-2.3335067 0.820906-4 3.035137-4 5.65625v64c0 3.324 2.676 6 6 6h72c3.324 0 6-2.676 6-6v-64c0-2.641888-1.699863-4.851225-4.0625-5.65625-0.326036-2.450302-2.395226-4.34375-4.9375-4.34375h-40.53125c-4.11231-4.1123102-4.366479-3.9330794-6.3125-4h-19.15625z" style="fill:url(#linearGradient3952);opacity:.45"/>
 </g>
 <g id="layer3">
  <rect id="rect3352" x="10.535714" y="23.142857" width="75" height="62.678574" rx="6" ry="6" style="fill:url(#linearGradient3361)"/>
  <path id="path3908" d="m15 6c-2.77 0-5 2.23-5 5v59.8125c0 2.39328 1.91922 4.3125 4.3125 4.3125h67.375c2.39328 0 4.3125-1.91922 4.3125-4.3125v-55.8125c0-2.77-2.23-5-5-5h-40.53125c-4.11231-4.1123102-4.366479-3.9330794-6.3125-4z" style="fill:url(#linearGradient3105)"/>
  <path id="path3108" d="m15 6c-2.77 0-5 2.23-5 5v59.8125c0 2.39328 1.91922 4.3125 4.3125 4.3125h67.375c2.39328 0 4.3125-1.91922 4.3125-4.3125v-55.8125c0-2.77-2.23-5-5-5h-40.53125c-4.11231-4.1123102-4.366479-3.9330794-6.3125-4h-19.15625zm0 1.03125h19.125 0.03125c0.964976 0.031157 1.192535-0.016972 1.8125 0.34375 0.630289 0.366729 1.706808 1.3318077 3.75 3.375a1.043776 1.043776 0 0 0 0.75 0.28125h40.53125c2.209859 0 3.96875 1.758891 3.96875 3.96875v55.8125c0 1.835319-1.445931 3.28125-3.28125 3.28125h-67.375c-1.835319 0-3.28125-1.445931-3.28125-3.28125v-59.8125c0-2.2098586 1.758891-3.96875 3.96875-3.96875z" style="fill:#ffffff;opacity:.2"/>
 </g>
 <g id="layer1">
  <rect id="rect2419" x="6" y="14" width="84" height="76" rx="6" ry="6" style="fill:url(#linearGradient3706)"/>
  <path id="rect3728" d="m12 14c-3.324 0-6 2.676-6 6v2 60 2c0 0.334721 0.04135 0.6507 0.09375 0.96875 0.0487 0.295596 0.09704 0.596915 0.1875 0.875 0.00988 0.03038 0.020892 0.0636 0.03125 0.09375 0.098865 0.287771 0.2348802 0.547452 0.375 0.8125 0.1445918 0.273507 0.3156161 0.535615 0.5 0.78125s0.3737765 0.473472 0.59375 0.6875c0.439947 0.428056 0.94291 0.814526 1.5 1.09375 0.278545 0.139612 0.5734731 0.246947 0.875 0.34375-0.2562018-0.100222-0.4867109-0.236272-0.71875-0.375-0.00741-0.0044-0.023866 0.0045-0.03125 0-0.031933-0.0193-0.062293-0.04251-0.09375-0.0625-0.120395-0.0767-0.2310226-0.163513-0.34375-0.25-0.1061728-0.0808-0.2132809-0.161112-0.3125-0.25-0.1779299-0.161433-0.3474596-0.345388-0.5-0.53125-0.1075789-0.130255-0.2183939-0.265285-0.3125-0.40625-0.025089-0.03838-0.038446-0.08587-0.0625-0.125-0.064763-0.103032-0.1302275-0.204517-0.1875-0.3125-0.1010083-0.194706-0.2056748-0.415701-0.28125-0.625-0.00796-0.02181-0.023589-0.04055-0.03125-0.0625-0.0318251-0.09195-0.0358045-0.186831-0.0625-0.28125-0.0303323-0.106618-0.0703894-0.203031-0.09375-0.3125-0.0728786-0.341512-0.125-0.698205-0.125-1.0625v-2-60-2c0-2.781848 2.2181517-5 5-5h2 68 2c2.781848 0 5 2.218152 5 5v2 60 2c0 0.364295-0.05212 0.720988-0.125 1.0625-0.04415 0.206893-0.08838 0.397658-0.15625 0.59375-0.0077 0.02195-0.0233 0.04069-0.03125 0.0625-0.06274 0.173739-0.138383 0.367449-0.21875 0.53125-0.04158 0.0828-0.07904 0.169954-0.125 0.25-0.0546 0.09721-0.126774 0.18835-0.1875 0.28125-0.09411 0.140965-0.204921 0.275995-0.3125 0.40625-0.143174 0.17445-0.303141 0.346998-0.46875 0.5-0.01117 0.0102-0.01998 0.02115-0.03125 0.03125-0.138386 0.125556-0.285091 0.234436-0.4375 0.34375-0.102571 0.07315-0.204318 0.153364-0.3125 0.21875-0.0074 0.0045-0.02384-0.0044-0.03125 0-0.232039 0.138728-0.462548 0.274778-0.71875 0.375 0.301527-0.0968 0.596455-0.204138 0.875-0.34375 0.55709-0.279224 1.060053-0.665694 1.5-1.09375 0.219973-0.214028 0.409366-0.441865 0.59375-0.6875s0.355408-0.507743 0.5-0.78125c0.14012-0.265048 0.276135-0.524729 0.375-0.8125 0.01041-0.03078 0.02133-0.06274 0.03125-0.09375 0.09046-0.278085 0.1388-0.579404 0.1875-0.875 0.0524-0.31805 0.09375-0.634029 0.09375-0.96875v-2-60-2c0-3.324-2.676-6-6-6z" style="fill:url(#linearGradient3080);opacity:.35"/>
  <path id="path3615" d="m12 90c-3.324 0-6-2.676-6-6v-2-56-2c0-0.334721 0.04135-0.6507 0.09375-0.96875 0.0487-0.295596 0.09704-0.596915 0.1875-0.875 0.00988-0.03038 0.020892-0.0636 0.03125-0.09375 0.098865-0.287771 0.2348802-0.547452 0.375-0.8125 0.1445918-0.273507 0.3156161-0.535615 0.5-0.78125s0.3737765-0.473472 0.59375-0.6875c0.439947-0.428056 0.94291-0.814526 1.5-1.09375 0.278545-0.139612 0.5734731-0.246947 0.875-0.34375-0.2562018 0.100222-0.4867109 0.236272-0.71875 0.375-0.00741 0.0044-0.023866-0.0045-0.03125 0-0.031933 0.0193-0.062293 0.04251-0.09375 0.0625-0.120395 0.0767-0.2310226 0.163513-0.34375 0.25-0.1061728 0.0808-0.2132809 0.161112-0.3125 0.25-0.1779299 0.161433-0.3474596 0.345388-0.5 0.53125-0.1075789 0.130255-0.2183939 0.265285-0.3125 0.40625-0.025089 0.03838-0.038446 0.08587-0.0625 0.125-0.064763 0.103032-0.1302275 0.204517-0.1875 0.3125-0.1010083 0.194706-0.2056748 0.415701-0.28125 0.625-0.00796 0.02181-0.023589 0.04055-0.03125 0.0625-0.0318251 0.09195-0.0358045 0.186831-0.0625 0.28125-0.0303323 0.106618-0.0703894 0.203031-0.09375 0.3125-0.0728786 0.341512-0.125 0.698205-0.125 1.0625v2 56 2c0 2.781848 2.2181517 5 5 5h2 68 2c2.781848 0 5-2.218152 5-5v-2-56-2c0-0.364295-0.05212-0.720988-0.125-1.0625-0.04415-0.206893-0.08838-0.397658-0.15625-0.59375-0.0077-0.02195-0.0233-0.04069-0.03125-0.0625-0.06274-0.173739-0.138383-0.367449-0.21875-0.53125-0.04158-0.0828-0.07904-0.169954-0.125-0.25-0.0546-0.09721-0.126774-0.18835-0.1875-0.28125-0.09411-0.140965-0.204921-0.275995-0.3125-0.40625-0.143174-0.17445-0.303141-0.346998-0.46875-0.5-0.01117-0.0102-0.01998-0.02115-0.03125-0.03125-0.138386-0.125556-0.285091-0.234436-0.4375-0.34375-0.102571-0.07315-0.204318-0.153364-0.3125-0.21875-0.0074-0.0045-0.02384 0.0044-0.03125 0-0.232039-0.138728-0.462548-0.274778-0.71875-0.375 0.301527 0.0968 0.596455 0.204138 0.875 0.34375 0.55709 0.279224 1.060053 0.665694 1.5 1.09375 0.219973 0.214028 0.409366 0.441865 0.59375 0.6875s0.355408 0.507743 0.5 0.78125c0.14012 0.265048 0.276135 0.524729 0.375 0.8125 0.01041 0.03078 0.02133 0.06274 0.03125 0.09375 0.09046 0.278085 0.1388 0.579404 0.1875 0.875 0.0524 0.31805 0.09375 0.634029 0.09375 0.96875v2 56 2c0 3.324-2.676 6-6 6h-72z" style="fill:url(#radialGradient2874);opacity:.2"/>
 </g>
 <g id="layer5">
  <path id="path3850" d="m15.96875 22.53125c-2.845903 0.0043-5.433244 2.591597-5.4375 5.4375v48.0625c0.0043 2.845903 2.591597 5.433244 5.4375 5.4375h64.0625c2.845903-0.0043 5.433244-2.591597 5.4375-5.4375v-48.0625c-0.0043-2.845903-2.591597-5.433244-5.4375-5.4375z" clip-path="url(#clipPath3860)" style="fill:url(#linearGradient3123);filter:url(#filter3870);opacity:.15"/>
 </g>
</svg>
